G75*
%MOMM*%
%OFA0B0*%
%FSLAX33Y33*%
%IPPOS*%
%LPD*%
%AMOC8*
5,1,8,0,0,1.08239X$1,22.5*
%
%ADD10C,0.152*%
D10*
X49808Y44815D02*
X50080Y45086D01*
X50622Y45086D01*
X50893Y44815D01*
X50893Y43731D01*
X50622Y43459D01*
X50080Y43459D01*
X49808Y43731D01*
X49808Y44273D01*
X50351Y44273D01*
X49256Y44544D02*
X49256Y43459D01*
X49256Y44002D02*
X48714Y44544D01*
X48442Y44544D01*
X47078Y43459D02*
X47621Y43459D01*
X47892Y43731D01*
X47892Y44273D01*
X47621Y44544D01*
X47078Y44544D01*
X46807Y44273D01*
X46807Y44002D01*
X47892Y44002D01*
X45441Y43459D02*
X45983Y43459D01*
X46255Y43731D01*
X46255Y44273D01*
X45983Y44544D01*
X45441Y44544D01*
X45170Y44273D01*
X45170Y44002D01*
X46255Y44002D01*
X44617Y43459D02*
X44617Y44544D01*
X43804Y44544D01*
X43533Y44273D01*
X43533Y43459D01*
X42980Y43459D02*
X42980Y45086D01*
X42980Y44273D02*
X42709Y44544D01*
X42167Y44544D01*
X41896Y44273D01*
X41896Y43459D01*
X41072Y43459D02*
X40530Y43459D01*
X40258Y43731D01*
X40258Y44273D01*
X40530Y44544D01*
X41072Y44544D01*
X41343Y44273D01*
X41343Y43731D01*
X41072Y43459D01*
X39706Y44544D02*
X39706Y43731D01*
X39435Y43459D01*
X38621Y43459D01*
X38621Y44544D01*
X38069Y43459D02*
X37255Y43459D01*
X36984Y43731D01*
X37255Y44002D01*
X37798Y44002D01*
X38069Y44273D01*
X37798Y44544D01*
X36984Y44544D01*
X35618Y43459D02*
X36160Y43459D01*
X36432Y43731D01*
X36432Y44273D01*
X36160Y44544D01*
X35618Y44544D01*
X35347Y44273D01*
X35347Y44002D01*
X36432Y44002D01*
X33157Y43459D02*
X33157Y45086D01*
X32344Y45086D01*
X32073Y44815D01*
X32073Y44273D01*
X32344Y44002D01*
X33157Y44002D01*
X31520Y43459D02*
X31520Y44544D01*
X31520Y44002D02*
X30978Y44544D01*
X30707Y44544D01*
X29885Y43459D02*
X29342Y43459D01*
X29071Y43731D01*
X29071Y44273D01*
X29342Y44544D01*
X29885Y44544D01*
X30156Y44273D01*
X30156Y43731D01*
X29885Y43459D01*
X28519Y42917D02*
X28247Y42917D01*
X27976Y43188D01*
X27976Y44544D01*
X27976Y45086D02*
X27976Y45358D01*
X26614Y43459D02*
X27156Y43459D01*
X27427Y43731D01*
X27427Y44273D01*
X27156Y44544D01*
X26614Y44544D01*
X26343Y44273D01*
X26343Y44002D01*
X27427Y44002D01*
X24705Y44544D02*
X25519Y44544D01*
X25790Y44273D01*
X25790Y43731D01*
X25519Y43459D01*
X24705Y43459D01*
X23882Y44815D02*
X23882Y43731D01*
X23611Y43459D01*
X23611Y44544D02*
X24153Y44544D01*
X50893Y42419D02*
X50893Y40792D01*
X50080Y40792D01*
X49808Y41064D01*
X49808Y41606D01*
X50080Y41877D01*
X50893Y41877D01*
X49256Y41877D02*
X49256Y40792D01*
X49256Y41335D02*
X48714Y41877D01*
X48442Y41877D01*
X47078Y40792D02*
X47621Y40792D01*
X47892Y41064D01*
X47892Y41606D01*
X47621Y41877D01*
X47078Y41877D01*
X46807Y41606D01*
X46807Y41335D01*
X47892Y41335D01*
X46255Y40792D02*
X46255Y41877D01*
X45441Y41877D01*
X45170Y41606D01*
X45170Y40792D01*
X44346Y42148D02*
X44346Y41064D01*
X44075Y40792D01*
X44075Y41877D02*
X44617Y41877D01*
X43526Y40792D02*
X42441Y42419D01*
X40804Y42419D02*
X40804Y40792D01*
X41618Y40792D01*
X41889Y41064D01*
X41889Y41606D01*
X41618Y41877D01*
X40804Y41877D01*
X39980Y41877D02*
X39438Y41877D01*
X39167Y41606D01*
X39167Y40792D01*
X39980Y40792D01*
X40252Y41064D01*
X39980Y41335D01*
X39167Y41335D01*
X38614Y41877D02*
X38072Y40792D01*
X37530Y41877D01*
X36164Y40792D02*
X36706Y40792D01*
X36977Y41064D01*
X36977Y41606D01*
X36706Y41877D01*
X36164Y41877D01*
X35893Y41606D01*
X35893Y41335D01*
X36977Y41335D01*
X35340Y40792D02*
X34255Y42419D01*
X33703Y40250D02*
X33432Y40250D01*
X33161Y40521D01*
X33161Y41877D01*
X33161Y42419D02*
X33161Y42691D01*
X32340Y41877D02*
X31798Y41877D01*
X31527Y41606D01*
X31527Y40792D01*
X32340Y40792D01*
X32612Y41064D01*
X32340Y41335D01*
X31527Y41335D01*
X30974Y41877D02*
X30974Y40792D01*
X30974Y41335D02*
X30432Y41877D01*
X30161Y41877D01*
X29610Y41877D02*
X29610Y40792D01*
X29610Y41335D02*
X29068Y41877D01*
X28797Y41877D01*
X27432Y40792D02*
X27975Y40792D01*
X28246Y41064D01*
X28246Y41606D01*
X27975Y41877D01*
X27432Y41877D01*
X27161Y41606D01*
X27161Y41335D01*
X28246Y41335D01*
X25524Y42419D02*
X25524Y40792D01*
X26337Y40792D01*
X26609Y41064D01*
X26609Y41606D01*
X26337Y41877D01*
X25524Y41877D01*
M02*
