%
M48
METRIC,TZ,000.000
T01C0.381000
T02C0.508000
T03C0.600000
T04C0.812800
T05C0.900000
T06C1.016000
T07C1.193800
T08C1.200000
T09C1.300000
T10C1.320800
T11C2.997200
%
T01
X21696Y21730
T02
X18838Y39827
X55668Y48717
X73448Y16967
X30268Y43637
X18711Y23063
X20362Y20523
X18838Y17983
X62018Y51257
X59478Y53797
X37888Y14681
X39412Y12141
X9948Y44907
X13758Y46177
X30268Y51257
X37888Y24587
X17695Y22174
X17441Y17983
X51985Y53289
X4868Y18237
X17568Y19634
X12488Y24587
X18838Y9347
X31538Y19507
X64558Y9347
X16298Y22174
X12488Y33477
X9948Y37287
X7027Y41732
X19727Y22682
X8678Y46177
X13758Y25857
X11218Y19761
X8678Y25857
X64050Y53924
X69638Y19507
X42968Y58877
X63415Y62560
X50588Y48717
X58208Y47447
X63288Y48717
X63288Y51257
X63288Y60147
X65828Y60147
X39158Y56337
X40428Y58877
X42206Y52146
X39158Y62687
X51350Y65227
X34078Y56718
X64558Y52527
X26458Y42367
X37380Y35382
X36618Y15697
X39158Y15697
X9948Y48717
T03
X27728Y25857
X14520Y16205
X8678Y18237
X54017Y51257
X19346Y28524
X27728Y29667
X50588Y51257
X24934Y44907
X29760Y37287
X25188Y60147
X25188Y53797
X27474Y49987
X15028Y49987
X41698Y68021
X50588Y49987
X46778Y28397
X21378Y49987
X25188Y49987
X26458Y43637
X38269Y29667
X6138Y37287
X23918Y62687
X31538Y32842
X32046Y9093
X25823Y14427
X37380Y11633
X10329Y20904
X22648Y12395
X32808Y13157
X36618Y13665
X40301Y61290
X13758Y29667
X26458Y56337
X37507Y67005
X22140Y46177
X23410Y38557
X51858Y20777
X64812Y14427
X26458Y30937
X23918Y30937
X15282Y43891
X6646Y42875
X13631Y44399
X58208Y13157
X44238Y67767
T04
X10075Y34747
X14901Y34747
X3598Y33477
X3598Y36017
X3598Y38557
X3598Y41097
X3598Y43637
X3598Y46177
X3598Y48717
X3598Y51257
X3598Y13157
X3598Y15697
X3598Y18237
X3598Y20777
X3598Y23317
X3598Y25857
X3598Y28397
X3598Y30937
T05
X32808Y28397
X32808Y30937
X30268Y30937
X30268Y28397
X35348Y28397
X35348Y30937
T06
X35348Y34747
X30268Y34747
X25188Y34747
X32808Y34747
X27728Y34747
X22648Y34747
T07
X69638Y46217
X69638Y51217
X69638Y56377
X69638Y61377
T08
X53128Y61417
X54398Y56337
X55668Y61417
X56938Y56337
X58208Y61417
X59478Y56337
X51858Y56337
X50588Y61417
X49318Y56337
X48048Y61417
X46778Y56337
X60748Y61417
X62018Y56337
X45508Y61417
X44238Y56337
X14724Y4267
X18401Y4267
X22079Y4267
X26281Y4267
X29958Y4267
X33636Y4267
X42791Y4267
X46468Y4267
X50146Y4267
X59301Y4267
X62978Y4267
X66656Y4267
X3344Y4267
X7022Y4267
X10700Y4267
T09
X69638Y28397
X69638Y33397
X69638Y38397
T10
X55668Y22682
X61637Y24714
X49699Y24714
X49699Y36906
X61637Y36906
T11
X8297Y56226
X8297Y62226
X3597Y59226
M30
