G75*
%MOIN*%
%OFA0B0*%
%FSLAX25Y25*%
%IPPOS*%
%LPD*%
%AMOC8*
5,1,8,0,0,1.08239X$1,22.5*
%
%ADD10R,0.05906X0.05118*%
%ADD11R,0.05118X0.05906*%
%ADD12R,0.03150X0.02362*%
%ADD13R,0.03937X0.03150*%
%ADD14OC8,0.06000*%
%ADD15R,0.02200X0.05000*%
%ADD16R,0.05000X0.02200*%
%ADD17C,0.06400*%
%ADD18C,0.17000*%
%ADD19R,0.09500X0.09500*%
%ADD20C,0.09500*%
%ADD21R,0.07008X0.05984*%
%ADD22R,0.03543X0.03150*%
%ADD23R,0.05118X0.06299*%
%ADD24R,0.06299X0.05118*%
%ADD25R,0.03543X0.03346*%
%ADD26C,0.07050*%
%ADD27R,0.07600X0.21000*%
%ADD28R,0.08300X0.05500*%
%ADD29C,0.07800*%
%ADD30R,0.04724X0.04724*%
%ADD31R,0.21260X0.24409*%
%ADD32R,0.03937X0.06299*%
%ADD33R,0.08000X0.08000*%
%ADD34C,0.08000*%
%ADD35C,0.05200*%
%ADD36C,0.07480*%
%ADD37C,0.01600*%
%ADD38OC8,0.03562*%
%ADD39C,0.00800*%
%ADD40C,0.01000*%
%ADD41OC8,0.03200*%
%ADD42C,0.03200*%
%ADD43R,0.03562X0.03562*%
%ADD44C,0.05000*%
%ADD45C,0.02700*%
%ADD46C,0.03000*%
%ADD47C,0.03200*%
D10*
X0079018Y0136362D03*
X0079018Y0143842D03*
X0089018Y0156362D03*
X0089018Y0163842D03*
X0094018Y0186756D03*
X0094018Y0193449D03*
X0183018Y0148449D03*
X0183018Y0141756D03*
X0253518Y0178256D03*
X0253518Y0184949D03*
X0235018Y0207256D03*
X0235018Y0213949D03*
D11*
X0192364Y0115102D03*
X0185671Y0115102D03*
D12*
X0228018Y0178452D03*
X0228018Y0184752D03*
X0236018Y0184752D03*
X0236018Y0178452D03*
X0244518Y0178452D03*
X0244518Y0184752D03*
X0246018Y0197952D03*
X0246018Y0204252D03*
X0228018Y0199252D03*
X0228018Y0192952D03*
X0220018Y0195252D03*
X0220018Y0188952D03*
X0179018Y0241952D03*
X0179018Y0248252D03*
X0179018Y0256952D03*
X0179018Y0263252D03*
D13*
X0280081Y0055102D03*
X0272955Y0050102D03*
X0265081Y0050102D03*
X0287955Y0055102D03*
D14*
X0154018Y0140102D03*
X0144018Y0140102D03*
X0134018Y0140102D03*
X0124018Y0140102D03*
X0114018Y0140102D03*
X0104018Y0140102D03*
D15*
X0100041Y0102002D03*
X0096892Y0102002D03*
X0093742Y0102002D03*
X0090593Y0102002D03*
X0087443Y0102002D03*
X0084293Y0102002D03*
X0081144Y0102002D03*
X0077994Y0102002D03*
X0077994Y0068202D03*
X0081144Y0068202D03*
X0084293Y0068202D03*
X0087443Y0068202D03*
X0090593Y0068202D03*
X0093742Y0068202D03*
X0096892Y0068202D03*
X0100041Y0068202D03*
D16*
X0105918Y0074078D03*
X0105918Y0077228D03*
X0105918Y0080378D03*
X0105918Y0083527D03*
X0105918Y0086677D03*
X0105918Y0089826D03*
X0105918Y0092976D03*
X0105918Y0096126D03*
X0072118Y0096126D03*
X0072118Y0092976D03*
X0072118Y0089826D03*
X0072118Y0086677D03*
X0072118Y0083527D03*
X0072118Y0080378D03*
X0072118Y0077228D03*
X0072118Y0074078D03*
D17*
X0134018Y0115102D03*
X0144018Y0115102D03*
X0154018Y0115102D03*
X0154018Y0125102D03*
X0144018Y0125102D03*
X0134018Y0125102D03*
D18*
X0047518Y0224665D03*
X0029014Y0236476D03*
X0047518Y0248287D03*
D19*
X0289018Y0075102D03*
D20*
X0289018Y0094787D03*
X0289018Y0114472D03*
D21*
X0169018Y0181815D03*
X0159018Y0181815D03*
X0149018Y0181815D03*
X0149018Y0218389D03*
X0159018Y0218389D03*
X0169018Y0218389D03*
X0154018Y0231815D03*
X0144018Y0231815D03*
X0134018Y0231815D03*
X0134018Y0268389D03*
X0144018Y0268389D03*
X0154018Y0268389D03*
D22*
X0255081Y0043842D03*
X0255081Y0036362D03*
X0263349Y0040102D03*
D23*
X0275278Y0040102D03*
X0282758Y0040102D03*
X0242758Y0045102D03*
X0235278Y0045102D03*
X0147758Y0170102D03*
X0140278Y0170102D03*
X0102758Y0245102D03*
X0095278Y0245102D03*
X0095278Y0255102D03*
X0102758Y0255102D03*
D24*
X0120199Y0243055D03*
X0120199Y0235575D03*
X0136518Y0218342D03*
X0136518Y0210862D03*
X0136018Y0190342D03*
X0136018Y0182862D03*
X0085518Y0188362D03*
X0085518Y0195842D03*
X0166518Y0236862D03*
X0166518Y0244342D03*
X0169018Y0261362D03*
X0169018Y0268842D03*
X0195518Y0210842D03*
X0195518Y0203362D03*
X0262018Y0185342D03*
X0262018Y0177862D03*
X0174018Y0133842D03*
X0174018Y0126362D03*
D25*
X0185018Y0059386D03*
X0185018Y0054819D03*
D26*
X0286493Y0142260D02*
X0293543Y0142260D01*
X0293543Y0161945D02*
X0286493Y0161945D01*
X0286493Y0182260D02*
X0293543Y0182260D01*
X0293543Y0201945D02*
X0286493Y0201945D01*
D27*
X0059018Y0159102D03*
X0059018Y0121102D03*
D28*
X0070618Y0217402D03*
X0070618Y0235102D03*
X0106518Y0235102D03*
X0106518Y0217402D03*
D29*
X0210518Y0132502D02*
X0210518Y0124702D01*
X0210518Y0084502D02*
X0210518Y0076702D01*
X0234018Y0076502D02*
X0234018Y0068702D01*
X0257518Y0076702D02*
X0257518Y0084502D01*
X0257518Y0124702D02*
X0257518Y0132502D01*
D30*
X0301518Y0048736D03*
X0301518Y0040468D03*
X0088152Y0245102D03*
X0079884Y0245102D03*
X0079884Y0255102D03*
X0088152Y0255102D03*
D31*
X0184018Y0075260D03*
D32*
X0192994Y0104000D03*
X0175041Y0104000D03*
D33*
X0163318Y0020102D03*
X0208318Y0020102D03*
X0253318Y0020102D03*
X0118318Y0020102D03*
X0072818Y0020102D03*
X0028018Y0020102D03*
D34*
X0042497Y0020102D03*
X0056977Y0020102D03*
X0087297Y0020102D03*
X0101777Y0020102D03*
X0132797Y0020102D03*
X0147277Y0020102D03*
X0177797Y0020102D03*
X0192277Y0020102D03*
X0222797Y0020102D03*
X0237277Y0020102D03*
X0267797Y0020102D03*
X0282277Y0020102D03*
D35*
X0031618Y0055102D02*
X0026418Y0055102D01*
X0026418Y0065102D02*
X0031618Y0065102D01*
X0031618Y0075102D02*
X0026418Y0075102D01*
X0026418Y0085102D02*
X0031618Y0085102D01*
X0031618Y0095102D02*
X0026418Y0095102D01*
X0026418Y0105102D02*
X0031618Y0105102D01*
X0031618Y0115102D02*
X0026418Y0115102D01*
X0026418Y0125102D02*
X0031618Y0125102D01*
X0031618Y0135102D02*
X0026418Y0135102D01*
X0026418Y0145102D02*
X0031618Y0145102D01*
X0031618Y0155102D02*
X0026418Y0155102D01*
X0026418Y0165102D02*
X0031618Y0165102D01*
X0031618Y0175102D02*
X0026418Y0175102D01*
X0026418Y0185102D02*
X0031618Y0185102D01*
X0031618Y0195102D02*
X0026418Y0195102D01*
X0026418Y0205102D02*
X0031618Y0205102D01*
D36*
X0213782Y0230693D03*
X0223782Y0230693D03*
X0233782Y0230693D03*
X0243782Y0230693D03*
X0253782Y0230693D03*
X0263782Y0230693D03*
X0273782Y0230693D03*
X0283782Y0230693D03*
X0278782Y0250693D03*
X0268782Y0250693D03*
X0258782Y0250693D03*
X0248782Y0250693D03*
X0238782Y0250693D03*
X0228782Y0250693D03*
X0218782Y0250693D03*
D37*
X0021018Y0229983D02*
X0021018Y0007102D01*
X0306939Y0007102D01*
X0306939Y0212676D01*
X0305584Y0211321D01*
X0302452Y0211321D01*
X0300237Y0213536D01*
X0300237Y0214923D01*
X0288183Y0226977D01*
X0287033Y0225826D01*
X0284923Y0224952D01*
X0283482Y0224952D01*
X0286392Y0222042D01*
X0286818Y0221013D01*
X0286818Y0214545D01*
X0286392Y0213516D01*
X0285604Y0212728D01*
X0278618Y0205742D01*
X0278618Y0205611D01*
X0276509Y0203502D01*
X0273527Y0203502D01*
X0271418Y0205611D01*
X0271418Y0208593D01*
X0273527Y0210702D01*
X0275658Y0210702D01*
X0281218Y0216262D01*
X0281218Y0219297D01*
X0275375Y0225140D01*
X0274923Y0224952D01*
X0272640Y0224952D01*
X0270530Y0225826D01*
X0268915Y0227441D01*
X0268782Y0227764D01*
X0268648Y0227441D01*
X0267033Y0225826D01*
X0264923Y0224952D01*
X0262640Y0224952D01*
X0260530Y0225826D01*
X0258915Y0227441D01*
X0258782Y0227764D01*
X0258648Y0227441D01*
X0257033Y0225826D01*
X0254923Y0224952D01*
X0252640Y0224952D01*
X0252188Y0225140D01*
X0251818Y0224769D01*
X0251818Y0217393D01*
X0252618Y0216593D01*
X0252618Y0213611D01*
X0250509Y0211502D01*
X0247527Y0211502D01*
X0245418Y0213611D01*
X0245418Y0214742D01*
X0242858Y0217302D01*
X0239971Y0217302D01*
X0239971Y0214109D01*
X0242392Y0211688D01*
X0242818Y0210659D01*
X0242818Y0206636D01*
X0243615Y0207433D01*
X0245663Y0207433D01*
X0249202Y0210971D01*
X0250121Y0211352D01*
X0252015Y0211352D01*
X0252699Y0211069D01*
X0263852Y0222221D01*
X0264771Y0222602D01*
X0266427Y0222602D01*
X0267527Y0223702D01*
X0270509Y0223702D01*
X0272618Y0221593D01*
X0272618Y0220038D01*
X0273953Y0218702D01*
X0274734Y0218702D01*
X0276057Y0218154D01*
X0277070Y0217141D01*
X0277618Y0215818D01*
X0277618Y0214386D01*
X0277070Y0213063D01*
X0276057Y0212050D01*
X0274734Y0211502D01*
X0273302Y0211502D01*
X0271979Y0212050D01*
X0270966Y0213063D01*
X0270418Y0214386D01*
X0270418Y0215167D01*
X0269082Y0216502D01*
X0267527Y0216502D01*
X0266427Y0217602D01*
X0266303Y0217602D01*
X0256518Y0207817D01*
X0256518Y0207693D01*
X0257527Y0208702D01*
X0260509Y0208702D01*
X0261518Y0207693D01*
X0262527Y0208702D01*
X0265509Y0208702D01*
X0267618Y0206593D01*
X0267618Y0203611D01*
X0266518Y0202511D01*
X0266518Y0197693D01*
X0267618Y0196593D01*
X0267618Y0193611D01*
X0265509Y0191502D01*
X0262527Y0191502D01*
X0260952Y0193077D01*
X0257341Y0189466D01*
X0257614Y0189193D01*
X0257763Y0189342D01*
X0258173Y0189579D01*
X0258631Y0189701D01*
X0261538Y0189701D01*
X0261538Y0185822D01*
X0262497Y0185822D01*
X0262497Y0189701D01*
X0265404Y0189701D01*
X0265862Y0189579D01*
X0266273Y0189342D01*
X0266608Y0189006D01*
X0266845Y0188596D01*
X0266967Y0188138D01*
X0266967Y0185822D01*
X0262497Y0185822D01*
X0262497Y0184863D01*
X0266967Y0184863D01*
X0266967Y0182546D01*
X0266845Y0182088D01*
X0266656Y0181761D01*
X0267167Y0181249D01*
X0267167Y0174474D01*
X0265996Y0173303D01*
X0264818Y0173303D01*
X0264818Y0168883D01*
X0265584Y0168883D01*
X0267799Y0166668D01*
X0267799Y0163536D01*
X0267165Y0162902D01*
X0272732Y0162902D01*
X0273761Y0162476D01*
X0274549Y0161688D01*
X0288453Y0147785D01*
X0294642Y0147785D01*
X0296672Y0146943D01*
X0298227Y0145389D01*
X0299068Y0143359D01*
X0299068Y0141161D01*
X0298227Y0139130D01*
X0296672Y0137576D01*
X0294642Y0136735D01*
X0285394Y0136735D01*
X0283363Y0137576D01*
X0281809Y0139130D01*
X0280968Y0141161D01*
X0280968Y0143359D01*
X0281809Y0145389D01*
X0282369Y0145949D01*
X0271015Y0157302D01*
X0208461Y0157302D01*
X0207432Y0157728D01*
X0182432Y0182728D01*
X0181644Y0183516D01*
X0181218Y0184545D01*
X0181218Y0205211D01*
X0181009Y0205002D01*
X0178027Y0205002D01*
X0177740Y0205289D01*
X0161518Y0189067D01*
X0161518Y0186807D01*
X0163350Y0186807D01*
X0164159Y0185998D01*
X0164409Y0186247D01*
X0164819Y0186484D01*
X0165277Y0186607D01*
X0168322Y0186607D01*
X0168322Y0182511D01*
X0169714Y0182511D01*
X0169714Y0186607D01*
X0172759Y0186607D01*
X0173217Y0186484D01*
X0173627Y0186247D01*
X0173962Y0185912D01*
X0174199Y0185502D01*
X0174322Y0185044D01*
X0174322Y0182511D01*
X0169714Y0182511D01*
X0169714Y0181119D01*
X0174322Y0181119D01*
X0174322Y0178586D01*
X0174199Y0178128D01*
X0173962Y0177717D01*
X0173627Y0177382D01*
X0173217Y0177145D01*
X0172759Y0177023D01*
X0169714Y0177023D01*
X0169714Y0181119D01*
X0168322Y0181119D01*
X0168322Y0177023D01*
X0165277Y0177023D01*
X0164819Y0177145D01*
X0164409Y0177382D01*
X0164159Y0177632D01*
X0163350Y0176823D01*
X0158438Y0176823D01*
X0152317Y0170701D01*
X0152317Y0166124D01*
X0151145Y0164952D01*
X0144370Y0164952D01*
X0144018Y0165305D01*
X0143665Y0164952D01*
X0143078Y0164952D01*
X0143078Y0157805D01*
X0142651Y0156776D01*
X0135978Y0150102D01*
X0136392Y0149688D01*
X0136818Y0148659D01*
X0136818Y0144373D01*
X0139018Y0142173D01*
X0139018Y0138031D01*
X0141947Y0135102D01*
X0146089Y0135102D01*
X0149018Y0138031D01*
X0149018Y0142173D01*
X0146089Y0145102D01*
X0141947Y0145102D01*
X0139018Y0142173D01*
X0139018Y0138031D01*
X0136518Y0135531D01*
X0136518Y0135449D01*
X0137452Y0136383D01*
X0140584Y0136383D01*
X0142799Y0134168D01*
X0142799Y0132781D01*
X0145437Y0130143D01*
X0146963Y0129510D01*
X0148426Y0128048D01*
X0149150Y0126300D01*
X0149384Y0127021D01*
X0149741Y0127723D01*
X0150204Y0128359D01*
X0150761Y0128916D01*
X0151397Y0129378D01*
X0152098Y0129736D01*
X0152847Y0129979D01*
X0153624Y0130102D01*
X0153932Y0130102D01*
X0153932Y0125188D01*
X0154104Y0125188D01*
X0159018Y0125188D01*
X0159018Y0125496D01*
X0158895Y0126273D01*
X0158651Y0127021D01*
X0158294Y0127723D01*
X0157832Y0128359D01*
X0157275Y0128916D01*
X0156638Y0129378D01*
X0155937Y0129736D01*
X0155189Y0129979D01*
X0154411Y0130102D01*
X0154104Y0130102D01*
X0154104Y0125188D01*
X0154104Y0125016D01*
X0159018Y0125016D01*
X0159018Y0124709D01*
X0158895Y0123931D01*
X0158651Y0123183D01*
X0158294Y0122481D01*
X0157832Y0121845D01*
X0157275Y0121288D01*
X0156638Y0120826D01*
X0155937Y0120468D01*
X0155216Y0120234D01*
X0156963Y0119510D01*
X0158426Y0118048D01*
X0159218Y0116136D01*
X0159218Y0114262D01*
X0166218Y0121262D01*
X0166218Y0155659D01*
X0166644Y0156688D01*
X0167432Y0157476D01*
X0177432Y0167476D01*
X0178461Y0167902D01*
X0184575Y0167902D01*
X0185604Y0167476D01*
X0186392Y0166688D01*
X0195178Y0157902D01*
X0201471Y0157902D01*
X0202452Y0158883D01*
X0205584Y0158883D01*
X0207799Y0156668D01*
X0207799Y0153536D01*
X0205584Y0151321D01*
X0202452Y0151321D01*
X0201471Y0152302D01*
X0193461Y0152302D01*
X0192432Y0152728D01*
X0191818Y0153342D01*
X0191818Y0129545D01*
X0191392Y0128516D01*
X0190604Y0127728D01*
X0182677Y0119802D01*
X0182875Y0119855D01*
X0185192Y0119855D01*
X0185192Y0115582D01*
X0186151Y0115582D01*
X0186151Y0119855D01*
X0188467Y0119855D01*
X0188711Y0119789D01*
X0188977Y0120055D01*
X0189564Y0120055D01*
X0189564Y0124005D01*
X0189991Y0125035D01*
X0190418Y0125462D01*
X0190418Y0126593D01*
X0192527Y0128702D01*
X0195509Y0128702D01*
X0197618Y0126593D01*
X0197618Y0123611D01*
X0195509Y0121502D01*
X0195164Y0121502D01*
X0195164Y0120055D01*
X0195752Y0120055D01*
X0196923Y0118883D01*
X0196923Y0111321D01*
X0195794Y0110192D01*
X0195794Y0109146D01*
X0196963Y0107978D01*
X0196963Y0100022D01*
X0195791Y0098850D01*
X0190197Y0098850D01*
X0189026Y0100022D01*
X0189026Y0107978D01*
X0190194Y0109146D01*
X0190194Y0110149D01*
X0188977Y0110149D01*
X0188711Y0110415D01*
X0188467Y0110349D01*
X0186151Y0110349D01*
X0186151Y0114622D01*
X0185192Y0114622D01*
X0185192Y0110349D01*
X0182875Y0110349D01*
X0182677Y0110402D01*
X0186392Y0106688D01*
X0186818Y0105659D01*
X0186818Y0089464D01*
X0195476Y0089464D01*
X0196648Y0088293D01*
X0196648Y0062226D01*
X0195476Y0061055D01*
X0188789Y0061055D01*
X0188789Y0056884D01*
X0188589Y0056684D01*
X0188589Y0054855D01*
X0185054Y0054855D01*
X0185054Y0054782D01*
X0185054Y0051345D01*
X0187026Y0051345D01*
X0187484Y0051468D01*
X0187895Y0051705D01*
X0188230Y0052040D01*
X0188467Y0052451D01*
X0188589Y0052908D01*
X0188589Y0054782D01*
X0185054Y0054782D01*
X0184981Y0054782D01*
X0181446Y0054782D01*
X0181446Y0052908D01*
X0181569Y0052451D01*
X0181806Y0052040D01*
X0182141Y0051705D01*
X0182551Y0051468D01*
X0183009Y0051345D01*
X0184981Y0051345D01*
X0184981Y0054782D01*
X0184981Y0054855D01*
X0181446Y0054855D01*
X0181446Y0056684D01*
X0181246Y0056884D01*
X0181246Y0061055D01*
X0172559Y0061055D01*
X0171388Y0062226D01*
X0171388Y0062381D01*
X0170509Y0061502D01*
X0167618Y0061502D01*
X0167618Y0059677D01*
X0168104Y0059476D01*
X0168892Y0058688D01*
X0179678Y0047902D01*
X0230719Y0047902D01*
X0230719Y0049080D01*
X0231890Y0050252D01*
X0238665Y0050252D01*
X0239018Y0049899D01*
X0239370Y0050252D01*
X0246145Y0050252D01*
X0247317Y0049080D01*
X0247317Y0047602D01*
X0249515Y0047602D01*
X0250434Y0047221D01*
X0251137Y0046518D01*
X0251313Y0046342D01*
X0251406Y0046342D01*
X0252481Y0047417D01*
X0257681Y0047417D01*
X0258852Y0046245D01*
X0258852Y0041439D01*
X0257681Y0040267D01*
X0252481Y0040267D01*
X0251406Y0041342D01*
X0249996Y0041342D01*
X0248709Y0041875D01*
X0248709Y0041875D01*
X0248569Y0042016D01*
X0248569Y0042016D01*
X0247982Y0042602D01*
X0247317Y0042602D01*
X0247317Y0041124D01*
X0246145Y0039952D01*
X0239370Y0039952D01*
X0239018Y0040305D01*
X0238665Y0039952D01*
X0231890Y0039952D01*
X0230719Y0041124D01*
X0230719Y0042302D01*
X0177961Y0042302D01*
X0176932Y0042728D01*
X0165358Y0054302D01*
X0161565Y0054302D01*
X0160584Y0053321D01*
X0159759Y0053321D01*
X0160324Y0052756D01*
X0160452Y0052883D01*
X0163584Y0052883D01*
X0165799Y0050668D01*
X0165799Y0047536D01*
X0163584Y0045321D01*
X0160452Y0045321D01*
X0159471Y0046302D01*
X0159461Y0046302D01*
X0158432Y0046728D01*
X0133882Y0071278D01*
X0109546Y0071278D01*
X0109246Y0070978D01*
X0103141Y0070978D01*
X0103141Y0066985D01*
X0107225Y0062902D01*
X0113971Y0062902D01*
X0114952Y0063883D01*
X0118084Y0063883D01*
X0120299Y0061668D01*
X0120299Y0058536D01*
X0118084Y0056321D01*
X0114952Y0056321D01*
X0113971Y0057302D01*
X0105508Y0057302D01*
X0104479Y0057728D01*
X0099818Y0062390D01*
X0099818Y0049902D01*
X0100871Y0049902D01*
X0100237Y0050536D01*
X0100237Y0053668D01*
X0102452Y0055883D01*
X0105584Y0055883D01*
X0106565Y0054902D01*
X0139858Y0054902D01*
X0140237Y0055281D01*
X0140237Y0056668D01*
X0142452Y0058883D01*
X0145584Y0058883D01*
X0147799Y0056668D01*
X0147799Y0053536D01*
X0145584Y0051321D01*
X0144196Y0051321D01*
X0142604Y0049728D01*
X0141575Y0049302D01*
X0123778Y0049302D01*
X0125178Y0047902D01*
X0134575Y0047902D01*
X0135604Y0047476D01*
X0136392Y0046688D01*
X0140196Y0042883D01*
X0142584Y0042883D01*
X0144799Y0040668D01*
X0144799Y0037536D01*
X0142584Y0035321D01*
X0139452Y0035321D01*
X0137237Y0037536D01*
X0137237Y0037923D01*
X0132858Y0042302D01*
X0132165Y0042302D01*
X0132799Y0041668D01*
X0132799Y0038536D01*
X0130584Y0036321D01*
X0129196Y0036321D01*
X0126392Y0033516D01*
X0125604Y0032728D01*
X0124575Y0032302D01*
X0083461Y0032302D01*
X0082432Y0032728D01*
X0078839Y0036321D01*
X0077452Y0036321D01*
X0076818Y0036955D01*
X0076818Y0034541D01*
X0085505Y0025854D01*
X0086104Y0026102D01*
X0088491Y0026102D01*
X0090696Y0025189D01*
X0092384Y0023501D01*
X0093297Y0021296D01*
X0093297Y0018909D01*
X0092384Y0016703D01*
X0090696Y0015016D01*
X0088491Y0014102D01*
X0086104Y0014102D01*
X0083899Y0015016D01*
X0082211Y0016703D01*
X0081297Y0018909D01*
X0081297Y0021296D01*
X0081545Y0021894D01*
X0078818Y0024622D01*
X0078818Y0015274D01*
X0077646Y0014102D01*
X0067989Y0014102D01*
X0066818Y0015274D01*
X0066818Y0024930D01*
X0067989Y0026102D01*
X0077338Y0026102D01*
X0072432Y0031008D01*
X0072432Y0031008D01*
X0071644Y0031796D01*
X0071218Y0032825D01*
X0071218Y0052302D01*
X0045297Y0052302D01*
X0045297Y0046729D01*
X0047452Y0048883D01*
X0050584Y0048883D01*
X0051565Y0047902D01*
X0054575Y0047902D01*
X0055604Y0047476D01*
X0056392Y0046688D01*
X0059196Y0043883D01*
X0060584Y0043883D01*
X0062799Y0041668D01*
X0062799Y0038536D01*
X0060584Y0036321D01*
X0057452Y0036321D01*
X0055237Y0038536D01*
X0055237Y0039923D01*
X0052858Y0042302D01*
X0051565Y0042302D01*
X0050584Y0041321D01*
X0047452Y0041321D01*
X0045297Y0043475D01*
X0045297Y0025437D01*
X0045896Y0025189D01*
X0047584Y0023501D01*
X0048497Y0021296D01*
X0048497Y0018909D01*
X0047584Y0016703D01*
X0045896Y0015016D01*
X0043691Y0014102D01*
X0041304Y0014102D01*
X0039099Y0015016D01*
X0037411Y0016703D01*
X0036497Y0018909D01*
X0036497Y0021296D01*
X0037411Y0023501D01*
X0039099Y0025189D01*
X0039697Y0025437D01*
X0039697Y0054139D01*
X0040085Y0055075D01*
X0034036Y0061125D01*
X0032533Y0060502D01*
X0025503Y0060502D01*
X0023812Y0061202D01*
X0022518Y0062496D01*
X0021818Y0064187D01*
X0021818Y0066017D01*
X0022518Y0067708D01*
X0023812Y0069002D01*
X0025503Y0069702D01*
X0032533Y0069702D01*
X0034223Y0069002D01*
X0035517Y0067708D01*
X0035620Y0067459D01*
X0045178Y0057902D01*
X0047796Y0057902D01*
X0047602Y0057983D01*
X0034303Y0071282D01*
X0034223Y0071202D01*
X0032533Y0070502D01*
X0025503Y0070502D01*
X0023812Y0071202D01*
X0022518Y0072496D01*
X0021818Y0074187D01*
X0021818Y0076017D01*
X0022518Y0077708D01*
X0023812Y0079002D01*
X0025503Y0079702D01*
X0032533Y0079702D01*
X0034223Y0079002D01*
X0035517Y0077708D01*
X0035920Y0076735D01*
X0048793Y0063863D01*
X0048793Y0063893D01*
X0049303Y0065125D01*
X0050245Y0066067D01*
X0051476Y0066577D01*
X0052809Y0066577D01*
X0054040Y0066067D01*
X0054480Y0065627D01*
X0068237Y0065627D01*
X0068237Y0068668D01*
X0069218Y0069649D01*
X0069218Y0070978D01*
X0068854Y0070978D01*
X0065604Y0067728D01*
X0064575Y0067302D01*
X0053461Y0067302D01*
X0052432Y0067728D01*
X0051644Y0068516D01*
X0048839Y0071321D01*
X0047452Y0071321D01*
X0045237Y0073536D01*
X0045237Y0074923D01*
X0037858Y0082302D01*
X0035323Y0082302D01*
X0034223Y0081202D01*
X0032533Y0080502D01*
X0025503Y0080502D01*
X0023812Y0081202D01*
X0022518Y0082496D01*
X0021818Y0084187D01*
X0021818Y0086017D01*
X0022518Y0087708D01*
X0023812Y0089002D01*
X0025503Y0089702D01*
X0032533Y0089702D01*
X0034223Y0089002D01*
X0035323Y0087902D01*
X0039575Y0087902D01*
X0040604Y0087476D01*
X0041392Y0086688D01*
X0049196Y0078883D01*
X0050584Y0078883D01*
X0052799Y0076668D01*
X0052799Y0075281D01*
X0055178Y0072902D01*
X0057258Y0072902D01*
X0056644Y0073516D01*
X0056644Y0073516D01*
X0037858Y0092302D01*
X0035323Y0092302D01*
X0034223Y0091202D01*
X0032533Y0090502D01*
X0025503Y0090502D01*
X0023812Y0091202D01*
X0022518Y0092496D01*
X0021818Y0094187D01*
X0021818Y0096017D01*
X0022518Y0097708D01*
X0023812Y0099002D01*
X0025503Y0099702D01*
X0032533Y0099702D01*
X0034223Y0099002D01*
X0035323Y0097902D01*
X0037858Y0097902D01*
X0041864Y0101908D01*
X0041471Y0102302D01*
X0035323Y0102302D01*
X0034223Y0101202D01*
X0032533Y0100502D01*
X0025503Y0100502D01*
X0023812Y0101202D01*
X0022518Y0102496D01*
X0021818Y0104187D01*
X0021818Y0106017D01*
X0022518Y0107708D01*
X0023812Y0109002D01*
X0025503Y0109702D01*
X0032533Y0109702D01*
X0034223Y0109002D01*
X0035323Y0107902D01*
X0041471Y0107902D01*
X0041864Y0108296D01*
X0036644Y0113516D01*
X0036218Y0114545D01*
X0036218Y0153942D01*
X0036146Y0154014D01*
X0035517Y0152496D01*
X0034223Y0151202D01*
X0032533Y0150502D01*
X0025503Y0150502D01*
X0023812Y0151202D01*
X0022518Y0152496D01*
X0021818Y0154187D01*
X0021818Y0156017D01*
X0022518Y0157708D01*
X0023812Y0159002D01*
X0025503Y0159702D01*
X0030458Y0159702D01*
X0029658Y0160502D01*
X0025503Y0160502D01*
X0023812Y0161202D01*
X0022518Y0162496D01*
X0021818Y0164187D01*
X0021818Y0166017D01*
X0022518Y0167708D01*
X0023812Y0169002D01*
X0025503Y0169702D01*
X0030458Y0169702D01*
X0029658Y0170502D01*
X0025503Y0170502D01*
X0023812Y0171202D01*
X0022518Y0172496D01*
X0021818Y0174187D01*
X0021818Y0176017D01*
X0022518Y0177708D01*
X0023812Y0179002D01*
X0025503Y0179702D01*
X0032533Y0179702D01*
X0034223Y0179002D01*
X0035517Y0177708D01*
X0036218Y0176017D01*
X0036218Y0174187D01*
X0035537Y0172543D01*
X0045604Y0162476D01*
X0046392Y0161688D01*
X0046818Y0160659D01*
X0046818Y0137393D01*
X0047618Y0136593D01*
X0047618Y0133611D01*
X0045509Y0131502D01*
X0042527Y0131502D01*
X0041818Y0132211D01*
X0041818Y0116262D01*
X0050178Y0107902D01*
X0066727Y0107902D01*
X0067527Y0108702D01*
X0070509Y0108702D01*
X0071218Y0107993D01*
X0071218Y0113942D01*
X0068839Y0116321D01*
X0067452Y0116321D01*
X0065237Y0118536D01*
X0065237Y0121668D01*
X0067452Y0123883D01*
X0070584Y0123883D01*
X0072799Y0121668D01*
X0072799Y0120281D01*
X0075194Y0117885D01*
X0075194Y0124966D01*
X0072858Y0127302D01*
X0070378Y0127302D01*
X0064818Y0121742D01*
X0064818Y0109774D01*
X0063646Y0108602D01*
X0054389Y0108602D01*
X0053218Y0109774D01*
X0053218Y0132430D01*
X0054389Y0133602D01*
X0063646Y0133602D01*
X0064818Y0132430D01*
X0064818Y0128813D01*
X0066969Y0130964D01*
X0067269Y0131688D01*
X0068057Y0132476D01*
X0069086Y0132902D01*
X0072022Y0132902D01*
X0072602Y0133481D01*
X0074065Y0134945D01*
X0074065Y0139749D01*
X0074577Y0140261D01*
X0074388Y0140588D01*
X0074265Y0141046D01*
X0074265Y0143363D01*
X0078538Y0143363D01*
X0078538Y0144322D01*
X0074265Y0144322D01*
X0074265Y0146638D01*
X0074388Y0147096D01*
X0074625Y0147506D01*
X0074720Y0147602D01*
X0066609Y0147602D01*
X0065509Y0146502D01*
X0062527Y0146502D01*
X0062427Y0146602D01*
X0054389Y0146602D01*
X0053218Y0147774D01*
X0053218Y0170430D01*
X0054389Y0171602D01*
X0063646Y0171602D01*
X0064818Y0170430D01*
X0064818Y0153702D01*
X0065509Y0153702D01*
X0066609Y0152602D01*
X0081722Y0152602D01*
X0084065Y0154945D01*
X0084065Y0159749D01*
X0084577Y0160261D01*
X0084388Y0160588D01*
X0084265Y0161046D01*
X0084265Y0163363D01*
X0088538Y0163363D01*
X0088538Y0164322D01*
X0088538Y0168201D01*
X0085828Y0168201D01*
X0085370Y0168079D01*
X0084960Y0167842D01*
X0084625Y0167506D01*
X0084388Y0167096D01*
X0084265Y0166638D01*
X0084265Y0164322D01*
X0088538Y0164322D01*
X0089497Y0164322D01*
X0089497Y0168201D01*
X0092208Y0168201D01*
X0092665Y0168079D01*
X0093076Y0167842D01*
X0093411Y0167506D01*
X0093648Y0167096D01*
X0093771Y0166638D01*
X0093771Y0164322D01*
X0089497Y0164322D01*
X0089497Y0163363D01*
X0093771Y0163363D01*
X0093771Y0161046D01*
X0093648Y0160588D01*
X0093459Y0160261D01*
X0093971Y0159749D01*
X0093971Y0155369D01*
X0095604Y0153736D01*
X0096218Y0153122D01*
X0096218Y0155659D01*
X0096644Y0156688D01*
X0097432Y0157476D01*
X0102432Y0162476D01*
X0103461Y0162902D01*
X0117858Y0162902D01*
X0121218Y0166262D01*
X0121218Y0171955D01*
X0120584Y0171321D01*
X0117452Y0171321D01*
X0115237Y0173536D01*
X0115237Y0176668D01*
X0116218Y0177649D01*
X0116218Y0177955D01*
X0114584Y0176321D01*
X0111452Y0176321D01*
X0110471Y0177302D01*
X0043461Y0177302D01*
X0042432Y0177728D01*
X0035934Y0184226D01*
X0035909Y0184072D01*
X0035695Y0183413D01*
X0035381Y0182796D01*
X0034974Y0182236D01*
X0034484Y0181746D01*
X0033924Y0181339D01*
X0033307Y0181024D01*
X0032648Y0180810D01*
X0031964Y0180702D01*
X0029018Y0180702D01*
X0029018Y0185102D01*
X0029018Y0185102D01*
X0029018Y0185102D01*
X0029018Y0189502D01*
X0030658Y0189502D01*
X0029658Y0190502D01*
X0025503Y0190502D01*
X0023812Y0191202D01*
X0022518Y0192496D01*
X0021818Y0194187D01*
X0021818Y0196017D01*
X0022518Y0197708D01*
X0023812Y0199002D01*
X0025503Y0199702D01*
X0032533Y0199702D01*
X0034223Y0199002D01*
X0035517Y0197708D01*
X0036218Y0196017D01*
X0036218Y0194187D01*
X0035537Y0192543D01*
X0045178Y0182902D01*
X0086218Y0182902D01*
X0086218Y0183702D01*
X0086117Y0183803D01*
X0081540Y0183803D01*
X0080368Y0184974D01*
X0080368Y0191749D01*
X0080721Y0192102D01*
X0080368Y0192455D01*
X0080368Y0199230D01*
X0081540Y0200401D01*
X0082718Y0200401D01*
X0082718Y0202442D01*
X0072858Y0212302D01*
X0069861Y0212302D01*
X0069016Y0212652D01*
X0065639Y0212652D01*
X0064468Y0213824D01*
X0064468Y0220980D01*
X0065639Y0222152D01*
X0075596Y0222152D01*
X0076768Y0220980D01*
X0076768Y0216312D01*
X0087892Y0205188D01*
X0088318Y0204159D01*
X0088318Y0200401D01*
X0089496Y0200401D01*
X0090667Y0199230D01*
X0090667Y0198342D01*
X0092121Y0198342D01*
X0092929Y0198008D01*
X0092964Y0198008D01*
X0095237Y0200281D01*
X0095237Y0201668D01*
X0097452Y0203883D01*
X0100584Y0203883D01*
X0102799Y0201668D01*
X0102799Y0198536D01*
X0100584Y0196321D01*
X0099196Y0196321D01*
X0098971Y0196095D01*
X0098971Y0189256D01*
X0100862Y0189256D01*
X0101761Y0188883D01*
X0103584Y0188883D01*
X0105799Y0186668D01*
X0105799Y0183536D01*
X0105165Y0182902D01*
X0110471Y0182902D01*
X0111452Y0183883D01*
X0111492Y0183883D01*
X0111218Y0184545D01*
X0111218Y0197555D01*
X0110237Y0198536D01*
X0110237Y0201668D01*
X0112452Y0203883D01*
X0115584Y0203883D01*
X0117799Y0201668D01*
X0117799Y0198536D01*
X0116818Y0197555D01*
X0116818Y0186262D01*
X0120604Y0182476D01*
X0121392Y0181688D01*
X0121518Y0181383D01*
X0121644Y0181688D01*
X0122432Y0182476D01*
X0126218Y0186262D01*
X0126218Y0197955D01*
X0124584Y0196321D01*
X0121452Y0196321D01*
X0119237Y0198536D01*
X0119237Y0201668D01*
X0120218Y0202649D01*
X0120218Y0209942D01*
X0117858Y0212302D01*
X0116565Y0212302D01*
X0115584Y0211321D01*
X0112452Y0211321D01*
X0111121Y0212652D01*
X0101539Y0212652D01*
X0100368Y0213824D01*
X0100368Y0220980D01*
X0101539Y0222152D01*
X0111496Y0222152D01*
X0112668Y0220980D01*
X0112668Y0218883D01*
X0115584Y0218883D01*
X0116565Y0217902D01*
X0119575Y0217902D01*
X0120604Y0217476D01*
X0121392Y0216688D01*
X0121392Y0216688D01*
X0124604Y0213476D01*
X0124604Y0213476D01*
X0125392Y0212688D01*
X0125818Y0211659D01*
X0125818Y0202649D01*
X0126218Y0202249D01*
X0126218Y0222302D01*
X0121565Y0222302D01*
X0120584Y0221321D01*
X0117452Y0221321D01*
X0115237Y0223536D01*
X0115237Y0226668D01*
X0117452Y0228883D01*
X0120584Y0228883D01*
X0121565Y0227902D01*
X0128606Y0227902D01*
X0128514Y0227994D01*
X0128514Y0229315D01*
X0118973Y0229315D01*
X0118054Y0229695D01*
X0117351Y0230399D01*
X0117096Y0231015D01*
X0116221Y0231015D01*
X0115049Y0232187D01*
X0115049Y0236321D01*
X0112668Y0236321D01*
X0112668Y0231524D01*
X0111496Y0230352D01*
X0101539Y0230352D01*
X0100368Y0231524D01*
X0100368Y0238680D01*
X0101539Y0239852D01*
X0110237Y0239852D01*
X0110237Y0239923D01*
X0107858Y0242302D01*
X0107317Y0242302D01*
X0107317Y0241124D01*
X0106145Y0239952D01*
X0099370Y0239952D01*
X0099018Y0240305D01*
X0098665Y0239952D01*
X0091890Y0239952D01*
X0091103Y0240740D01*
X0084961Y0240740D01*
X0083826Y0241875D01*
X0083687Y0241635D01*
X0083351Y0241299D01*
X0082941Y0241063D01*
X0082483Y0240940D01*
X0080265Y0240940D01*
X0080265Y0244721D01*
X0079503Y0244721D01*
X0079503Y0240940D01*
X0077285Y0240940D01*
X0076827Y0241063D01*
X0076417Y0241299D01*
X0076081Y0241635D01*
X0075844Y0242045D01*
X0075722Y0242503D01*
X0075722Y0244721D01*
X0079503Y0244721D01*
X0079503Y0245483D01*
X0075722Y0245483D01*
X0075722Y0247701D01*
X0075844Y0248159D01*
X0076081Y0248569D01*
X0076417Y0248905D01*
X0076827Y0249142D01*
X0077285Y0249264D01*
X0079503Y0249264D01*
X0079503Y0245483D01*
X0080265Y0245483D01*
X0080265Y0249264D01*
X0082483Y0249264D01*
X0082941Y0249142D01*
X0083351Y0248905D01*
X0083687Y0248569D01*
X0083826Y0248329D01*
X0084961Y0249464D01*
X0091103Y0249464D01*
X0091741Y0250102D01*
X0091103Y0250740D01*
X0084961Y0250740D01*
X0083826Y0251875D01*
X0083687Y0251635D01*
X0083351Y0251299D01*
X0082941Y0251063D01*
X0082483Y0250940D01*
X0080265Y0250940D01*
X0080265Y0254721D01*
X0079503Y0254721D01*
X0079503Y0250940D01*
X0077285Y0250940D01*
X0076827Y0251063D01*
X0076417Y0251299D01*
X0076081Y0251635D01*
X0075844Y0252045D01*
X0075722Y0252503D01*
X0075722Y0254721D01*
X0079503Y0254721D01*
X0079503Y0255483D01*
X0075722Y0255483D01*
X0075722Y0257701D01*
X0075844Y0258159D01*
X0076081Y0258569D01*
X0076417Y0258905D01*
X0076827Y0259142D01*
X0077285Y0259264D01*
X0079503Y0259264D01*
X0079503Y0255483D01*
X0080265Y0255483D01*
X0080265Y0259264D01*
X0082483Y0259264D01*
X0082941Y0259142D01*
X0083351Y0258905D01*
X0083687Y0258569D01*
X0083826Y0258329D01*
X0084961Y0259464D01*
X0091103Y0259464D01*
X0091890Y0260252D01*
X0098665Y0260252D01*
X0099018Y0259899D01*
X0099370Y0260252D01*
X0106145Y0260252D01*
X0107317Y0259080D01*
X0107317Y0254503D01*
X0107937Y0253883D01*
X0110584Y0253883D01*
X0110996Y0253471D01*
X0111218Y0253693D01*
X0111218Y0260659D01*
X0111644Y0261688D01*
X0112432Y0262476D01*
X0127432Y0277476D01*
X0128461Y0277902D01*
X0163315Y0277902D01*
X0164344Y0277476D01*
X0165132Y0276688D01*
X0168419Y0273401D01*
X0172996Y0273401D01*
X0174167Y0272230D01*
X0174167Y0265455D01*
X0173815Y0265102D01*
X0174167Y0264749D01*
X0174167Y0257974D01*
X0172996Y0256803D01*
X0165040Y0256803D01*
X0164241Y0257602D01*
X0160102Y0257602D01*
X0159183Y0257983D01*
X0158480Y0258686D01*
X0156898Y0260267D01*
X0156518Y0261186D01*
X0156518Y0263397D01*
X0149685Y0263397D01*
X0148876Y0264206D01*
X0148627Y0263957D01*
X0148217Y0263720D01*
X0147759Y0263597D01*
X0144714Y0263597D01*
X0144714Y0267693D01*
X0143322Y0267693D01*
X0143322Y0263597D01*
X0140277Y0263597D01*
X0139819Y0263720D01*
X0139409Y0263957D01*
X0139159Y0264206D01*
X0138350Y0263397D01*
X0129685Y0263397D01*
X0128514Y0264569D01*
X0128514Y0270638D01*
X0116818Y0258942D01*
X0116818Y0253693D01*
X0117799Y0252712D01*
X0117799Y0247493D01*
X0117720Y0247414D01*
X0119719Y0247414D01*
X0119719Y0243534D01*
X0120678Y0243534D01*
X0120678Y0247414D01*
X0123585Y0247414D01*
X0124043Y0247291D01*
X0124454Y0247054D01*
X0124789Y0246719D01*
X0125026Y0246309D01*
X0125148Y0245851D01*
X0125148Y0243534D01*
X0120679Y0243534D01*
X0120679Y0242575D01*
X0125148Y0242575D01*
X0125148Y0240259D01*
X0125026Y0239801D01*
X0124837Y0239474D01*
X0125348Y0238962D01*
X0125348Y0234315D01*
X0128514Y0234315D01*
X0128514Y0235635D01*
X0129685Y0236807D01*
X0138350Y0236807D01*
X0139018Y0236139D01*
X0139685Y0236807D01*
X0148350Y0236807D01*
X0149159Y0235998D01*
X0149409Y0236247D01*
X0149819Y0236484D01*
X0150277Y0236607D01*
X0153322Y0236607D01*
X0153322Y0232511D01*
X0154714Y0232511D01*
X0154714Y0236607D01*
X0157759Y0236607D01*
X0158217Y0236484D01*
X0158627Y0236247D01*
X0158962Y0235912D01*
X0159199Y0235502D01*
X0159322Y0235044D01*
X0159322Y0232511D01*
X0154714Y0232511D01*
X0154714Y0231119D01*
X0159322Y0231119D01*
X0159322Y0228586D01*
X0159199Y0228128D01*
X0158962Y0227717D01*
X0158627Y0227382D01*
X0158217Y0227145D01*
X0157759Y0227023D01*
X0154714Y0227023D01*
X0154714Y0231119D01*
X0153322Y0231119D01*
X0153322Y0227023D01*
X0152618Y0227023D01*
X0152618Y0225111D01*
X0150888Y0223382D01*
X0153350Y0223382D01*
X0154159Y0222573D01*
X0154409Y0222822D01*
X0154819Y0223059D01*
X0155277Y0223182D01*
X0158322Y0223182D01*
X0158322Y0219086D01*
X0159714Y0219086D01*
X0159714Y0223182D01*
X0162759Y0223182D01*
X0163217Y0223059D01*
X0163627Y0222822D01*
X0163876Y0222573D01*
X0164685Y0223382D01*
X0165647Y0223382D01*
X0165418Y0223611D01*
X0165418Y0226593D01*
X0167527Y0228702D01*
X0170509Y0228702D01*
X0172618Y0226593D01*
X0172618Y0223611D01*
X0172388Y0223382D01*
X0173350Y0223382D01*
X0174522Y0222210D01*
X0174522Y0214569D01*
X0173350Y0213397D01*
X0164685Y0213397D01*
X0163876Y0214206D01*
X0163627Y0213957D01*
X0163217Y0213720D01*
X0162759Y0213597D01*
X0159714Y0213597D01*
X0159714Y0217693D01*
X0158322Y0217693D01*
X0158322Y0213597D01*
X0155277Y0213597D01*
X0154819Y0213720D01*
X0154409Y0213957D01*
X0154159Y0214206D01*
X0153350Y0213397D01*
X0144685Y0213397D01*
X0143514Y0214569D01*
X0143514Y0222210D01*
X0144685Y0223382D01*
X0147147Y0223382D01*
X0146727Y0223802D01*
X0142937Y0223802D01*
X0141266Y0222131D01*
X0141667Y0221730D01*
X0141667Y0214955D01*
X0141315Y0214602D01*
X0141667Y0214249D01*
X0141667Y0207474D01*
X0140496Y0206303D01*
X0139010Y0206303D01*
X0138892Y0206016D01*
X0137618Y0204742D01*
X0137618Y0203611D01*
X0135509Y0201502D01*
X0132527Y0201502D01*
X0131818Y0202211D01*
X0131818Y0194679D01*
X0132040Y0194901D01*
X0139996Y0194901D01*
X0141167Y0193730D01*
X0141167Y0192768D01*
X0141906Y0192462D01*
X0147561Y0186807D01*
X0153350Y0186807D01*
X0154018Y0186139D01*
X0154685Y0186807D01*
X0156518Y0186807D01*
X0156518Y0190599D01*
X0156898Y0191518D01*
X0176102Y0210721D01*
X0176860Y0211036D01*
X0178027Y0212202D01*
X0181009Y0212202D01*
X0181218Y0211993D01*
X0181218Y0232811D01*
X0180418Y0233611D01*
X0180418Y0236593D01*
X0181518Y0237693D01*
X0181518Y0239227D01*
X0181287Y0239094D01*
X0180830Y0238971D01*
X0179018Y0238971D01*
X0179018Y0241952D01*
X0179018Y0241952D01*
X0179018Y0238971D01*
X0177206Y0238971D01*
X0176748Y0239094D01*
X0176338Y0239331D01*
X0176003Y0239666D01*
X0175766Y0240077D01*
X0175643Y0240534D01*
X0175643Y0241380D01*
X0175084Y0240821D01*
X0171952Y0240821D01*
X0171667Y0241105D01*
X0171667Y0240955D01*
X0171315Y0240602D01*
X0171667Y0240249D01*
X0171667Y0239362D01*
X0172755Y0239362D01*
X0173674Y0238981D01*
X0173953Y0238702D01*
X0175509Y0238702D01*
X0177618Y0236593D01*
X0177618Y0233611D01*
X0175509Y0231502D01*
X0172527Y0231502D01*
X0171111Y0232918D01*
X0170496Y0232303D01*
X0162540Y0232303D01*
X0161368Y0233474D01*
X0161368Y0240249D01*
X0161721Y0240602D01*
X0161368Y0240955D01*
X0161368Y0247730D01*
X0162540Y0248901D01*
X0165418Y0248901D01*
X0165418Y0251593D01*
X0167527Y0253702D01*
X0170509Y0253702D01*
X0172618Y0251593D01*
X0172618Y0248611D01*
X0172390Y0248383D01*
X0175084Y0248383D01*
X0175443Y0248024D01*
X0175443Y0250261D01*
X0176518Y0251336D01*
X0176518Y0253868D01*
X0175443Y0254943D01*
X0175443Y0258962D01*
X0176193Y0259712D01*
X0175203Y0260703D01*
X0174518Y0262357D01*
X0174518Y0271997D01*
X0175203Y0273651D01*
X0176469Y0274917D01*
X0178123Y0275602D01*
X0179913Y0275602D01*
X0181567Y0274917D01*
X0182833Y0273651D01*
X0183518Y0271997D01*
X0183518Y0264562D01*
X0199196Y0248883D01*
X0200584Y0248883D01*
X0202799Y0246668D01*
X0202799Y0243536D01*
X0200584Y0241321D01*
X0197452Y0241321D01*
X0195237Y0243536D01*
X0195237Y0244923D01*
X0182593Y0257567D01*
X0182593Y0254943D01*
X0181518Y0253868D01*
X0181518Y0251336D01*
X0182593Y0250261D01*
X0182593Y0250063D01*
X0182988Y0249668D01*
X0186137Y0246518D01*
X0186518Y0245599D01*
X0186518Y0237693D01*
X0187618Y0236593D01*
X0187618Y0233611D01*
X0186818Y0232811D01*
X0186818Y0221862D01*
X0187432Y0222476D01*
X0207432Y0242476D01*
X0208461Y0242902D01*
X0229575Y0242902D01*
X0230604Y0242476D01*
X0231392Y0241688D01*
X0236155Y0236924D01*
X0236582Y0235895D01*
X0236582Y0235746D01*
X0237033Y0235559D01*
X0238648Y0233944D01*
X0238905Y0233324D01*
X0239043Y0233596D01*
X0239556Y0234302D01*
X0240172Y0234918D01*
X0240878Y0235431D01*
X0241655Y0235827D01*
X0242484Y0236096D01*
X0243346Y0236233D01*
X0243499Y0236233D01*
X0243499Y0230975D01*
X0244064Y0230975D01*
X0244064Y0236233D01*
X0244218Y0236233D01*
X0245079Y0236096D01*
X0245908Y0235827D01*
X0246685Y0235431D01*
X0247391Y0234918D01*
X0248007Y0234302D01*
X0248520Y0233596D01*
X0248659Y0233324D01*
X0248915Y0233944D01*
X0250530Y0235559D01*
X0252640Y0236433D01*
X0254923Y0236433D01*
X0257033Y0235559D01*
X0258648Y0233944D01*
X0258782Y0233621D01*
X0258915Y0233944D01*
X0260530Y0235559D01*
X0262428Y0236345D01*
X0260237Y0238536D01*
X0260237Y0239923D01*
X0256408Y0243752D01*
X0255982Y0244781D01*
X0255982Y0245639D01*
X0255530Y0245826D01*
X0253915Y0247441D01*
X0253659Y0248061D01*
X0253520Y0247789D01*
X0253007Y0247083D01*
X0252391Y0246467D01*
X0251685Y0245954D01*
X0250908Y0245558D01*
X0250079Y0245289D01*
X0249218Y0245152D01*
X0249064Y0245152D01*
X0249064Y0250410D01*
X0248499Y0250410D01*
X0248499Y0245152D01*
X0248346Y0245152D01*
X0247484Y0245289D01*
X0246655Y0245558D01*
X0245878Y0245954D01*
X0245172Y0246467D01*
X0244556Y0247083D01*
X0244043Y0247789D01*
X0243905Y0248061D01*
X0243648Y0247441D01*
X0242033Y0245826D01*
X0239923Y0244952D01*
X0237640Y0244952D01*
X0235530Y0245826D01*
X0233915Y0247441D01*
X0233782Y0247764D01*
X0233648Y0247441D01*
X0232033Y0245826D01*
X0229923Y0244952D01*
X0227640Y0244952D01*
X0225530Y0245826D01*
X0223915Y0247441D01*
X0223782Y0247764D01*
X0223648Y0247441D01*
X0222033Y0245826D01*
X0219923Y0244952D01*
X0217640Y0244952D01*
X0215530Y0245826D01*
X0213915Y0247441D01*
X0213041Y0249551D01*
X0213041Y0251834D01*
X0213915Y0253944D01*
X0215530Y0255559D01*
X0217640Y0256433D01*
X0219923Y0256433D01*
X0222033Y0255559D01*
X0223648Y0253944D01*
X0223782Y0253621D01*
X0223915Y0253944D01*
X0225530Y0255559D01*
X0227640Y0256433D01*
X0229923Y0256433D01*
X0232033Y0255559D01*
X0233648Y0253944D01*
X0233782Y0253621D01*
X0233915Y0253944D01*
X0235530Y0255559D01*
X0237640Y0256433D01*
X0239923Y0256433D01*
X0242033Y0255559D01*
X0243648Y0253944D01*
X0243905Y0253324D01*
X0244043Y0253596D01*
X0244556Y0254302D01*
X0245172Y0254918D01*
X0245878Y0255431D01*
X0246655Y0255827D01*
X0247484Y0256096D01*
X0248346Y0256233D01*
X0248499Y0256233D01*
X0248499Y0250975D01*
X0249064Y0250975D01*
X0249064Y0256233D01*
X0249218Y0256233D01*
X0250079Y0256096D01*
X0250908Y0255827D01*
X0251685Y0255431D01*
X0252391Y0254918D01*
X0253007Y0254302D01*
X0253520Y0253596D01*
X0253659Y0253324D01*
X0253915Y0253944D01*
X0255530Y0255559D01*
X0257640Y0256433D01*
X0259923Y0256433D01*
X0262033Y0255559D01*
X0263648Y0253944D01*
X0263905Y0253324D01*
X0264043Y0253596D01*
X0264556Y0254302D01*
X0265172Y0254918D01*
X0265878Y0255431D01*
X0266655Y0255827D01*
X0267484Y0256096D01*
X0268346Y0256233D01*
X0268499Y0256233D01*
X0268499Y0250975D01*
X0269064Y0250975D01*
X0269064Y0256233D01*
X0269218Y0256233D01*
X0270079Y0256096D01*
X0270908Y0255827D01*
X0271685Y0255431D01*
X0272391Y0254918D01*
X0273007Y0254302D01*
X0273520Y0253596D01*
X0273659Y0253324D01*
X0273915Y0253944D01*
X0275530Y0255559D01*
X0277640Y0256433D01*
X0279923Y0256433D01*
X0282033Y0255559D01*
X0283648Y0253944D01*
X0284522Y0251834D01*
X0284522Y0249551D01*
X0284210Y0248799D01*
X0285408Y0247602D01*
X0289515Y0247602D01*
X0290434Y0247221D01*
X0291137Y0246518D01*
X0296137Y0241518D01*
X0296518Y0240599D01*
X0296518Y0232949D01*
X0297799Y0231668D01*
X0297799Y0228536D01*
X0296171Y0226908D01*
X0304196Y0218883D01*
X0305584Y0218883D01*
X0306939Y0217528D01*
X0306939Y0280102D01*
X0303690Y0280102D01*
X0305715Y0278077D01*
X0306918Y0275173D01*
X0306918Y0272031D01*
X0305715Y0269127D01*
X0303493Y0266905D01*
X0300589Y0265702D01*
X0297446Y0265702D01*
X0294543Y0266905D01*
X0292321Y0269127D01*
X0291118Y0272031D01*
X0291118Y0275173D01*
X0292321Y0278077D01*
X0294346Y0280102D01*
X0203690Y0280102D01*
X0205715Y0278077D01*
X0206918Y0275173D01*
X0206918Y0272031D01*
X0205715Y0269127D01*
X0203493Y0266905D01*
X0200589Y0265702D01*
X0197446Y0265702D01*
X0194543Y0266905D01*
X0192321Y0269127D01*
X0191118Y0272031D01*
X0191118Y0275173D01*
X0192321Y0278077D01*
X0194346Y0280102D01*
X0021018Y0280102D01*
X0021018Y0242969D01*
X0021322Y0243350D01*
X0022140Y0244168D01*
X0023044Y0244890D01*
X0024024Y0245505D01*
X0025066Y0246007D01*
X0026158Y0246389D01*
X0027286Y0246647D01*
X0028214Y0246751D01*
X0028214Y0237276D01*
X0029814Y0237276D01*
X0039289Y0237276D01*
X0039184Y0238204D01*
X0038927Y0239332D01*
X0038545Y0240424D01*
X0038043Y0241466D01*
X0037427Y0242446D01*
X0036706Y0243350D01*
X0035888Y0244168D01*
X0034984Y0244890D01*
X0034004Y0245505D01*
X0032962Y0246007D01*
X0031870Y0246389D01*
X0030742Y0246647D01*
X0029814Y0246751D01*
X0029814Y0237276D01*
X0029814Y0235676D01*
X0039289Y0235676D01*
X0039184Y0234748D01*
X0038927Y0233620D01*
X0038545Y0232528D01*
X0038043Y0231486D01*
X0037427Y0230506D01*
X0036706Y0229602D01*
X0035888Y0228784D01*
X0034984Y0228063D01*
X0034004Y0227447D01*
X0032962Y0226945D01*
X0031870Y0226563D01*
X0030742Y0226306D01*
X0029814Y0226201D01*
X0029814Y0235676D01*
X0028214Y0235676D01*
X0028214Y0226201D01*
X0027286Y0226306D01*
X0026158Y0226563D01*
X0025066Y0226945D01*
X0024024Y0227447D01*
X0023044Y0228063D01*
X0022140Y0228784D01*
X0021322Y0229602D01*
X0021018Y0229983D01*
X0021018Y0228894D02*
X0022030Y0228894D01*
X0021018Y0227295D02*
X0024339Y0227295D01*
X0021018Y0225697D02*
X0037018Y0225697D01*
X0037018Y0226047D02*
X0037018Y0223283D01*
X0037733Y0220612D01*
X0039116Y0218218D01*
X0041071Y0216263D01*
X0043465Y0214881D01*
X0046135Y0214165D01*
X0048900Y0214165D01*
X0051571Y0214881D01*
X0053965Y0216263D01*
X0055920Y0218218D01*
X0057302Y0220612D01*
X0058018Y0223283D01*
X0058018Y0226047D01*
X0057302Y0228718D01*
X0055920Y0231112D01*
X0053965Y0233067D01*
X0051571Y0234449D01*
X0048900Y0235165D01*
X0046135Y0235165D01*
X0043465Y0234449D01*
X0041071Y0233067D01*
X0039116Y0231112D01*
X0037733Y0228718D01*
X0037018Y0226047D01*
X0037352Y0227295D02*
X0033689Y0227295D01*
X0035998Y0228894D02*
X0037835Y0228894D01*
X0037416Y0230492D02*
X0038758Y0230492D01*
X0038334Y0232091D02*
X0040094Y0232091D01*
X0038943Y0233689D02*
X0042148Y0233689D01*
X0039245Y0235288D02*
X0070043Y0235288D01*
X0070043Y0235677D02*
X0070043Y0234527D01*
X0071193Y0234527D01*
X0071193Y0235677D01*
X0076568Y0235677D01*
X0076568Y0238089D01*
X0076445Y0238547D01*
X0076208Y0238957D01*
X0075873Y0239292D01*
X0075463Y0239529D01*
X0075005Y0239652D01*
X0071193Y0239652D01*
X0071193Y0235677D01*
X0070043Y0235677D01*
X0070043Y0239652D01*
X0066231Y0239652D01*
X0065773Y0239529D01*
X0065363Y0239292D01*
X0065027Y0238957D01*
X0064790Y0238547D01*
X0064668Y0238089D01*
X0064668Y0235677D01*
X0070043Y0235677D01*
X0070043Y0234527D02*
X0064668Y0234527D01*
X0064668Y0232115D01*
X0064790Y0231657D01*
X0065027Y0231247D01*
X0065363Y0230912D01*
X0065773Y0230675D01*
X0066231Y0230552D01*
X0070043Y0230552D01*
X0070043Y0234527D01*
X0070043Y0233689D02*
X0071193Y0233689D01*
X0071193Y0234527D02*
X0071193Y0230552D01*
X0075005Y0230552D01*
X0075463Y0230675D01*
X0075873Y0230912D01*
X0076208Y0231247D01*
X0076445Y0231657D01*
X0076568Y0232115D01*
X0076568Y0234527D01*
X0071193Y0234527D01*
X0071193Y0235288D02*
X0100368Y0235288D01*
X0100368Y0236886D02*
X0076568Y0236886D01*
X0076462Y0238485D02*
X0100368Y0238485D01*
X0099240Y0240083D02*
X0098796Y0240083D01*
X0102758Y0245102D02*
X0109018Y0245102D01*
X0114018Y0240102D01*
X0110077Y0240083D02*
X0106276Y0240083D01*
X0107317Y0241682D02*
X0108478Y0241682D01*
X0112668Y0235288D02*
X0115049Y0235288D01*
X0115049Y0233689D02*
X0112668Y0233689D01*
X0112668Y0232091D02*
X0115146Y0232091D01*
X0117312Y0230492D02*
X0111636Y0230492D01*
X0115864Y0227295D02*
X0057683Y0227295D01*
X0058018Y0225697D02*
X0115237Y0225697D01*
X0115237Y0224098D02*
X0058018Y0224098D01*
X0057808Y0222500D02*
X0116273Y0222500D01*
X0119018Y0225102D02*
X0129018Y0225102D01*
X0129018Y0185102D01*
X0124018Y0180102D01*
X0124018Y0165102D01*
X0119018Y0160102D01*
X0104018Y0160102D01*
X0099018Y0155102D01*
X0099018Y0108602D01*
X0096892Y0106476D01*
X0096892Y0102002D01*
X0100041Y0102002D02*
X0107118Y0102002D01*
X0109018Y0100102D01*
X0114018Y0094102D02*
X0114018Y0115102D01*
X0109018Y0120102D01*
X0109018Y0125102D01*
X0114018Y0120102D02*
X0116518Y0117602D01*
X0116518Y0092602D01*
X0114018Y0090102D01*
X0106193Y0090102D01*
X0105918Y0089826D01*
X0106292Y0092602D02*
X0105918Y0092976D01*
X0112892Y0092976D01*
X0114018Y0094102D01*
X0124018Y0095102D02*
X0124018Y0110102D01*
X0129018Y0115102D01*
X0134018Y0115102D01*
X0125371Y0124990D02*
X0122799Y0124990D01*
X0122799Y0123883D02*
X0122799Y0126668D01*
X0121818Y0127649D01*
X0121818Y0128942D01*
X0126392Y0133516D01*
X0126818Y0134545D01*
X0126818Y0135831D01*
X0129018Y0138031D01*
X0131518Y0135531D01*
X0131518Y0129695D01*
X0131072Y0129510D01*
X0129609Y0128048D01*
X0129425Y0127602D01*
X0128521Y0127602D01*
X0127602Y0127221D01*
X0126898Y0126518D01*
X0124263Y0123883D01*
X0122799Y0123883D01*
X0122799Y0126589D02*
X0126969Y0126589D01*
X0129749Y0128187D02*
X0121818Y0128187D01*
X0122661Y0129786D02*
X0131518Y0129786D01*
X0131518Y0131384D02*
X0124260Y0131384D01*
X0125859Y0132983D02*
X0131518Y0132983D01*
X0131518Y0134581D02*
X0126818Y0134581D01*
X0127167Y0136180D02*
X0130869Y0136180D01*
X0129270Y0137779D02*
X0128765Y0137779D01*
X0129018Y0138031D02*
X0129018Y0142173D01*
X0129018Y0138031D01*
X0129018Y0139377D02*
X0129018Y0139377D01*
X0129018Y0140976D02*
X0129018Y0140976D01*
X0129018Y0142173D02*
X0126089Y0145102D01*
X0121947Y0145102D01*
X0119018Y0142173D01*
X0119018Y0138031D01*
X0121002Y0136046D01*
X0117432Y0132476D01*
X0116818Y0131862D01*
X0116818Y0135831D01*
X0119018Y0138031D01*
X0119018Y0142173D01*
X0116089Y0145102D01*
X0111947Y0145102D01*
X0109818Y0142973D01*
X0109818Y0152555D01*
X0110799Y0153536D01*
X0110799Y0156668D01*
X0110165Y0157302D01*
X0119575Y0157302D01*
X0120604Y0157728D01*
X0121392Y0158516D01*
X0126392Y0163516D01*
X0126818Y0164545D01*
X0126818Y0178942D01*
X0131217Y0183341D01*
X0135538Y0183341D01*
X0135538Y0182382D01*
X0136497Y0182382D01*
X0136497Y0178503D01*
X0139404Y0178503D01*
X0139862Y0178626D01*
X0140273Y0178862D01*
X0140608Y0179198D01*
X0140845Y0179608D01*
X0140967Y0180066D01*
X0140967Y0182382D01*
X0136497Y0182382D01*
X0136497Y0183341D01*
X0140967Y0183341D01*
X0140967Y0185658D01*
X0140845Y0186116D01*
X0140656Y0186443D01*
X0140755Y0186542D01*
X0143514Y0183783D01*
X0143514Y0177994D01*
X0144685Y0176823D01*
X0150519Y0176823D01*
X0148948Y0175252D01*
X0144370Y0175252D01*
X0144018Y0174899D01*
X0143665Y0175252D01*
X0136890Y0175252D01*
X0135719Y0174080D01*
X0135719Y0166124D01*
X0136890Y0164952D01*
X0137478Y0164952D01*
X0137478Y0159522D01*
X0131839Y0153883D01*
X0130452Y0153883D01*
X0128237Y0151668D01*
X0128237Y0148536D01*
X0130452Y0146321D01*
X0131218Y0146321D01*
X0131218Y0144373D01*
X0129018Y0142173D01*
X0128617Y0142574D02*
X0129419Y0142574D01*
X0131017Y0144173D02*
X0127018Y0144173D01*
X0129403Y0147370D02*
X0109818Y0147370D01*
X0109818Y0148968D02*
X0128237Y0148968D01*
X0128237Y0150567D02*
X0109818Y0150567D01*
X0109818Y0152165D02*
X0128734Y0152165D01*
X0130332Y0153764D02*
X0110799Y0153764D01*
X0110799Y0155362D02*
X0133318Y0155362D01*
X0134917Y0156961D02*
X0110506Y0156961D01*
X0107018Y0155102D02*
X0107018Y0143102D01*
X0104018Y0140102D01*
X0109818Y0144173D02*
X0111017Y0144173D01*
X0109818Y0145771D02*
X0131218Y0145771D01*
X0134018Y0148102D02*
X0132018Y0150102D01*
X0140278Y0158362D01*
X0140278Y0170102D01*
X0135719Y0169749D02*
X0126818Y0169749D01*
X0126818Y0171347D02*
X0135719Y0171347D01*
X0135719Y0172946D02*
X0126818Y0172946D01*
X0126818Y0174544D02*
X0136183Y0174544D01*
X0135538Y0178503D02*
X0132631Y0178503D01*
X0132173Y0178626D01*
X0131763Y0178862D01*
X0131428Y0179198D01*
X0131191Y0179608D01*
X0131068Y0180066D01*
X0131068Y0182382D01*
X0135538Y0182382D01*
X0135538Y0178503D01*
X0135538Y0179340D02*
X0136497Y0179340D01*
X0136497Y0180938D02*
X0135538Y0180938D01*
X0135538Y0182537D02*
X0130412Y0182537D01*
X0131068Y0180938D02*
X0128814Y0180938D01*
X0127215Y0179340D02*
X0131346Y0179340D01*
X0126818Y0177741D02*
X0143767Y0177741D01*
X0143514Y0179340D02*
X0140690Y0179340D01*
X0140967Y0180938D02*
X0143514Y0180938D01*
X0143514Y0182537D02*
X0136497Y0182537D01*
X0140967Y0184135D02*
X0143162Y0184135D01*
X0141563Y0185734D02*
X0140947Y0185734D01*
X0145437Y0188931D02*
X0156518Y0188931D01*
X0156518Y0190529D02*
X0143839Y0190529D01*
X0142240Y0192128D02*
X0157508Y0192128D01*
X0159107Y0193726D02*
X0141167Y0193726D01*
X0135726Y0201719D02*
X0167099Y0201719D01*
X0165501Y0200120D02*
X0131818Y0200120D01*
X0131818Y0198522D02*
X0163902Y0198522D01*
X0162304Y0196923D02*
X0131818Y0196923D01*
X0131818Y0195325D02*
X0160705Y0195325D01*
X0164579Y0192128D02*
X0181218Y0192128D01*
X0181218Y0193726D02*
X0166178Y0193726D01*
X0167776Y0195325D02*
X0181218Y0195325D01*
X0181218Y0196923D02*
X0169375Y0196923D01*
X0170973Y0198522D02*
X0181218Y0198522D01*
X0181218Y0200120D02*
X0172572Y0200120D01*
X0174170Y0201719D02*
X0181218Y0201719D01*
X0181218Y0203317D02*
X0175769Y0203317D01*
X0177367Y0204916D02*
X0181218Y0204916D01*
X0175092Y0209712D02*
X0141667Y0209712D01*
X0141667Y0211310D02*
X0177135Y0211310D01*
X0174460Y0214507D02*
X0181218Y0214507D01*
X0181218Y0212909D02*
X0141667Y0212909D01*
X0141410Y0214507D02*
X0143576Y0214507D01*
X0143514Y0216106D02*
X0141667Y0216106D01*
X0141667Y0217704D02*
X0143514Y0217704D01*
X0143514Y0219303D02*
X0141667Y0219303D01*
X0141667Y0220901D02*
X0143514Y0220901D01*
X0143803Y0222500D02*
X0141635Y0222500D01*
X0141778Y0226602D02*
X0136518Y0221342D01*
X0136518Y0218342D01*
X0136518Y0210862D02*
X0136518Y0207602D01*
X0134018Y0205102D01*
X0137324Y0203317D02*
X0168698Y0203317D01*
X0170296Y0204916D02*
X0137792Y0204916D01*
X0140707Y0206514D02*
X0171895Y0206514D01*
X0173493Y0208113D02*
X0141667Y0208113D01*
X0132310Y0201719D02*
X0131818Y0201719D01*
X0126218Y0203317D02*
X0125818Y0203317D01*
X0125818Y0204916D02*
X0126218Y0204916D01*
X0126218Y0206514D02*
X0125818Y0206514D01*
X0125818Y0208113D02*
X0126218Y0208113D01*
X0126218Y0209712D02*
X0125818Y0209712D01*
X0125818Y0211310D02*
X0126218Y0211310D01*
X0126218Y0212909D02*
X0125171Y0212909D01*
X0126218Y0214507D02*
X0123573Y0214507D01*
X0121974Y0216106D02*
X0126218Y0216106D01*
X0126218Y0217704D02*
X0120053Y0217704D01*
X0119018Y0215102D02*
X0123018Y0211102D01*
X0123018Y0200102D01*
X0119237Y0200120D02*
X0117799Y0200120D01*
X0117785Y0198522D02*
X0119251Y0198522D01*
X0120849Y0196923D02*
X0116818Y0196923D01*
X0116818Y0195325D02*
X0126218Y0195325D01*
X0126218Y0196923D02*
X0125186Y0196923D01*
X0126218Y0193726D02*
X0116818Y0193726D01*
X0116818Y0192128D02*
X0126218Y0192128D01*
X0126218Y0190529D02*
X0116818Y0190529D01*
X0116818Y0188931D02*
X0126218Y0188931D01*
X0126218Y0187332D02*
X0116818Y0187332D01*
X0117346Y0185734D02*
X0125690Y0185734D01*
X0124091Y0184135D02*
X0118944Y0184135D01*
X0120543Y0182537D02*
X0122493Y0182537D01*
X0119018Y0180102D02*
X0119018Y0175102D01*
X0115237Y0174544D02*
X0036218Y0174544D01*
X0036166Y0176143D02*
X0115237Y0176143D01*
X0116004Y0177741D02*
X0116218Y0177741D01*
X0119018Y0180102D02*
X0114018Y0185102D01*
X0114018Y0200102D01*
X0110237Y0200120D02*
X0102799Y0200120D01*
X0102785Y0198522D02*
X0110251Y0198522D01*
X0111218Y0196923D02*
X0101186Y0196923D01*
X0098971Y0195325D02*
X0111218Y0195325D01*
X0111218Y0193726D02*
X0098971Y0193726D01*
X0098971Y0192128D02*
X0111218Y0192128D01*
X0111218Y0190529D02*
X0098971Y0190529D01*
X0101646Y0188931D02*
X0111218Y0188931D01*
X0111218Y0187332D02*
X0105135Y0187332D01*
X0105799Y0185734D02*
X0111218Y0185734D01*
X0111388Y0184135D02*
X0105799Y0184135D01*
X0113018Y0180102D02*
X0089018Y0180102D01*
X0044018Y0180102D01*
X0029018Y0195102D01*
X0034703Y0198522D02*
X0080368Y0198522D01*
X0080368Y0196923D02*
X0035842Y0196923D01*
X0036218Y0195325D02*
X0080368Y0195325D01*
X0080368Y0193726D02*
X0036027Y0193726D01*
X0035952Y0192128D02*
X0080695Y0192128D01*
X0080368Y0190529D02*
X0037550Y0190529D01*
X0039149Y0188931D02*
X0080368Y0188931D01*
X0080368Y0187332D02*
X0040747Y0187332D01*
X0042346Y0185734D02*
X0080368Y0185734D01*
X0081207Y0184135D02*
X0043944Y0184135D01*
X0039222Y0180938D02*
X0033042Y0180938D01*
X0033407Y0179340D02*
X0040820Y0179340D01*
X0042419Y0177741D02*
X0035484Y0177741D01*
X0035704Y0172946D02*
X0115827Y0172946D01*
X0117425Y0171347D02*
X0063901Y0171347D01*
X0064818Y0169749D02*
X0121218Y0169749D01*
X0121218Y0171347D02*
X0120610Y0171347D01*
X0121218Y0168150D02*
X0092398Y0168150D01*
X0093771Y0166552D02*
X0121218Y0166552D01*
X0119909Y0164953D02*
X0093771Y0164953D01*
X0093771Y0163355D02*
X0118311Y0163355D01*
X0123033Y0160158D02*
X0137478Y0160158D01*
X0137478Y0161756D02*
X0124632Y0161756D01*
X0126230Y0163355D02*
X0137478Y0163355D01*
X0136889Y0164953D02*
X0126818Y0164953D01*
X0126818Y0166552D02*
X0135719Y0166552D01*
X0135719Y0168150D02*
X0126818Y0168150D01*
X0126818Y0176143D02*
X0149839Y0176143D01*
X0152963Y0171347D02*
X0193813Y0171347D01*
X0195411Y0169749D02*
X0152317Y0169749D01*
X0152317Y0168150D02*
X0197010Y0168150D01*
X0198608Y0166552D02*
X0186528Y0166552D01*
X0188126Y0164953D02*
X0200207Y0164953D01*
X0201805Y0163355D02*
X0189725Y0163355D01*
X0191323Y0161756D02*
X0203404Y0161756D01*
X0205002Y0160158D02*
X0192922Y0160158D01*
X0194520Y0158559D02*
X0202128Y0158559D01*
X0205908Y0158559D02*
X0206601Y0158559D01*
X0207506Y0156961D02*
X0271357Y0156961D01*
X0272955Y0155362D02*
X0207799Y0155362D01*
X0207799Y0153764D02*
X0274554Y0153764D01*
X0276152Y0152165D02*
X0206428Y0152165D01*
X0204018Y0155102D02*
X0194018Y0155102D01*
X0184018Y0165102D01*
X0179018Y0165102D01*
X0169018Y0155102D01*
X0169018Y0120102D01*
X0149018Y0100102D01*
X0164018Y0100102D02*
X0164018Y0061102D01*
X0167618Y0061050D02*
X0181246Y0061050D01*
X0181246Y0059451D02*
X0168128Y0059451D01*
X0169727Y0057853D02*
X0181246Y0057853D01*
X0181446Y0056254D02*
X0171325Y0056254D01*
X0172924Y0054656D02*
X0181446Y0054656D01*
X0181446Y0053057D02*
X0174522Y0053057D01*
X0176121Y0051459D02*
X0182585Y0051459D01*
X0184981Y0051459D02*
X0185054Y0051459D01*
X0185054Y0053057D02*
X0184981Y0053057D01*
X0184981Y0054656D02*
X0185054Y0054656D01*
X0188589Y0054656D02*
X0251237Y0054656D01*
X0251237Y0053536D02*
X0251237Y0056668D01*
X0253452Y0058883D01*
X0256277Y0058883D01*
X0255932Y0059228D01*
X0255932Y0059228D01*
X0255144Y0060016D01*
X0254718Y0061045D01*
X0254718Y0071476D01*
X0254176Y0071700D01*
X0252516Y0073360D01*
X0251618Y0075528D01*
X0251618Y0085676D01*
X0252516Y0087844D01*
X0254176Y0089504D01*
X0256344Y0090402D01*
X0258691Y0090402D01*
X0260860Y0089504D01*
X0262520Y0087844D01*
X0263418Y0085676D01*
X0263418Y0075528D01*
X0262520Y0073360D01*
X0260860Y0071700D01*
X0260318Y0071476D01*
X0260318Y0062762D01*
X0265178Y0057902D01*
X0276509Y0057902D01*
X0277281Y0058674D01*
X0277281Y0061722D01*
X0277707Y0062751D01*
X0281644Y0066688D01*
X0282432Y0067476D01*
X0283461Y0067902D01*
X0299575Y0067902D01*
X0300604Y0067476D01*
X0303104Y0064976D01*
X0303892Y0064188D01*
X0304318Y0063159D01*
X0304318Y0053098D01*
X0304708Y0053098D01*
X0305880Y0051927D01*
X0305880Y0045545D01*
X0304937Y0044602D01*
X0305880Y0043659D01*
X0305880Y0037278D01*
X0304708Y0036106D01*
X0298327Y0036106D01*
X0297156Y0037278D01*
X0297156Y0037668D01*
X0287317Y0037668D01*
X0287317Y0036124D01*
X0286145Y0034952D01*
X0279370Y0034952D01*
X0279018Y0035305D01*
X0278665Y0034952D01*
X0271890Y0034952D01*
X0270719Y0036124D01*
X0270719Y0037602D01*
X0267023Y0037602D01*
X0265949Y0036527D01*
X0260748Y0036527D01*
X0259577Y0037699D01*
X0259577Y0042505D01*
X0260748Y0043677D01*
X0260849Y0043677D01*
X0260849Y0045715D01*
X0261381Y0047001D01*
X0261381Y0047001D01*
X0261522Y0047142D01*
X0261522Y0047142D01*
X0261596Y0047215D01*
X0261509Y0047302D01*
X0259461Y0047302D01*
X0258432Y0047728D01*
X0254839Y0051321D01*
X0253452Y0051321D01*
X0251237Y0053536D01*
X0251715Y0053057D02*
X0188589Y0053057D01*
X0187450Y0051459D02*
X0253314Y0051459D01*
X0256300Y0049860D02*
X0246537Y0049860D01*
X0247317Y0048262D02*
X0257898Y0048262D01*
X0258435Y0046663D02*
X0261241Y0046663D01*
X0260849Y0045065D02*
X0258852Y0045065D01*
X0258852Y0043466D02*
X0260538Y0043466D01*
X0259577Y0041868D02*
X0258852Y0041868D01*
X0259577Y0040269D02*
X0257683Y0040269D01*
X0257547Y0039614D02*
X0257089Y0039737D01*
X0255081Y0039737D01*
X0255081Y0036362D01*
X0258652Y0036362D01*
X0258652Y0038174D01*
X0258530Y0038631D01*
X0258293Y0039042D01*
X0257958Y0039377D01*
X0257547Y0039614D01*
X0258507Y0038671D02*
X0259577Y0038671D01*
X0260203Y0037072D02*
X0258652Y0037072D01*
X0258652Y0036362D02*
X0258652Y0034550D01*
X0258530Y0034092D01*
X0258293Y0033682D01*
X0257958Y0033347D01*
X0257547Y0033110D01*
X0257089Y0032987D01*
X0255081Y0032987D01*
X0255081Y0036362D01*
X0255081Y0036362D01*
X0255081Y0036362D01*
X0258652Y0036362D01*
X0258652Y0035474D02*
X0271369Y0035474D01*
X0270719Y0037072D02*
X0266494Y0037072D01*
X0258404Y0033875D02*
X0306939Y0033875D01*
X0306939Y0032277D02*
X0162803Y0032277D01*
X0163957Y0031123D02*
X0153618Y0041462D01*
X0153618Y0042593D01*
X0151509Y0044702D01*
X0148527Y0044702D01*
X0146418Y0042593D01*
X0146418Y0039611D01*
X0148527Y0037502D01*
X0149658Y0037502D01*
X0160424Y0026736D01*
X0161211Y0025949D01*
X0161324Y0025902D01*
X0159081Y0025902D01*
X0158623Y0025779D01*
X0158213Y0025542D01*
X0157877Y0025207D01*
X0157640Y0024797D01*
X0157518Y0024339D01*
X0157518Y0020483D01*
X0162937Y0020483D01*
X0162937Y0019721D01*
X0163699Y0019721D01*
X0163699Y0020483D01*
X0169118Y0020483D01*
X0169118Y0024339D01*
X0168995Y0024797D01*
X0168758Y0025207D01*
X0168443Y0025523D01*
X0174997Y0025523D01*
X0174997Y0025437D01*
X0174399Y0025189D01*
X0172711Y0023501D01*
X0171797Y0021296D01*
X0171797Y0018909D01*
X0172711Y0016703D01*
X0174399Y0015016D01*
X0176218Y0014262D01*
X0176218Y0012902D01*
X0143957Y0012902D01*
X0138549Y0018310D01*
X0138797Y0018909D01*
X0138797Y0021296D01*
X0137884Y0023501D01*
X0136196Y0025189D01*
X0133991Y0026102D01*
X0131604Y0026102D01*
X0129399Y0025189D01*
X0127711Y0023501D01*
X0126797Y0021296D01*
X0126797Y0018909D01*
X0127711Y0016703D01*
X0129399Y0015016D01*
X0131604Y0014102D01*
X0133991Y0014102D01*
X0134590Y0014350D01*
X0140424Y0008516D01*
X0141211Y0007728D01*
X0142240Y0007302D01*
X0214575Y0007302D01*
X0215604Y0007728D01*
X0221978Y0014102D01*
X0223991Y0014102D01*
X0224590Y0014350D01*
X0230424Y0008516D01*
X0231211Y0007728D01*
X0232240Y0007302D01*
X0264575Y0007302D01*
X0265604Y0007728D01*
X0269383Y0011508D01*
X0270171Y0012296D01*
X0270597Y0013325D01*
X0270597Y0014768D01*
X0271196Y0015016D01*
X0272884Y0016703D01*
X0273797Y0018909D01*
X0273797Y0021296D01*
X0272884Y0023501D01*
X0271196Y0025189D01*
X0268991Y0026102D01*
X0266604Y0026102D01*
X0264399Y0025189D01*
X0262711Y0023501D01*
X0261797Y0021296D01*
X0261797Y0018909D01*
X0262711Y0016703D01*
X0264399Y0015016D01*
X0264804Y0014848D01*
X0262858Y0012902D01*
X0233957Y0012902D01*
X0228549Y0018310D01*
X0228797Y0018909D01*
X0228797Y0021296D01*
X0227884Y0023501D01*
X0226196Y0025189D01*
X0223991Y0026102D01*
X0221604Y0026102D01*
X0219399Y0025189D01*
X0217711Y0023501D01*
X0216797Y0021296D01*
X0216797Y0018909D01*
X0217403Y0017447D01*
X0212858Y0012902D01*
X0181818Y0012902D01*
X0181818Y0015637D01*
X0182884Y0016703D01*
X0183797Y0018909D01*
X0183797Y0021296D01*
X0182884Y0023501D01*
X0181196Y0025189D01*
X0180597Y0025437D01*
X0180597Y0028879D01*
X0180171Y0029909D01*
X0179383Y0030696D01*
X0178354Y0031123D01*
X0163957Y0031123D01*
X0162797Y0028323D02*
X0177797Y0028323D01*
X0177797Y0020102D01*
X0179018Y0018882D01*
X0179018Y0010102D01*
X0142797Y0010102D01*
X0132797Y0020102D01*
X0128494Y0024284D02*
X0124318Y0024284D01*
X0124318Y0024930D02*
X0123146Y0026102D01*
X0113489Y0026102D01*
X0112318Y0024930D01*
X0112318Y0015274D01*
X0113489Y0014102D01*
X0123146Y0014102D01*
X0124318Y0015274D01*
X0124318Y0024930D01*
X0123366Y0025883D02*
X0131074Y0025883D01*
X0134520Y0025883D02*
X0146698Y0025883D01*
X0146820Y0025902D02*
X0145919Y0025759D01*
X0145050Y0025477D01*
X0144237Y0025063D01*
X0143498Y0024526D01*
X0142853Y0023880D01*
X0142316Y0023142D01*
X0141902Y0022328D01*
X0141620Y0021460D01*
X0141477Y0020559D01*
X0141477Y0020483D01*
X0146896Y0020483D01*
X0146896Y0025902D01*
X0146820Y0025902D01*
X0146896Y0025883D02*
X0147658Y0025883D01*
X0147658Y0025902D02*
X0147733Y0025902D01*
X0148635Y0025759D01*
X0149503Y0025477D01*
X0150317Y0025063D01*
X0151055Y0024526D01*
X0151701Y0023880D01*
X0152237Y0023142D01*
X0152652Y0022328D01*
X0152934Y0021460D01*
X0153077Y0020559D01*
X0153077Y0020483D01*
X0147658Y0020483D01*
X0147658Y0019721D01*
X0153077Y0019721D01*
X0153077Y0019646D01*
X0152934Y0018744D01*
X0152652Y0017876D01*
X0152237Y0017062D01*
X0151701Y0016324D01*
X0151055Y0015678D01*
X0150317Y0015141D01*
X0149503Y0014727D01*
X0148635Y0014445D01*
X0147733Y0014302D01*
X0147658Y0014302D01*
X0147658Y0019721D01*
X0146896Y0019721D01*
X0146896Y0014302D01*
X0146820Y0014302D01*
X0145919Y0014445D01*
X0145050Y0014727D01*
X0144237Y0015141D01*
X0143498Y0015678D01*
X0142853Y0016324D01*
X0142316Y0017062D01*
X0141902Y0017876D01*
X0141620Y0018744D01*
X0141477Y0019646D01*
X0141477Y0019721D01*
X0146896Y0019721D01*
X0146896Y0020483D01*
X0147658Y0020483D01*
X0147658Y0025902D01*
X0147855Y0025883D02*
X0159009Y0025883D01*
X0159679Y0027481D02*
X0083878Y0027481D01*
X0085476Y0025883D02*
X0085574Y0025883D01*
X0089020Y0025883D02*
X0101198Y0025883D01*
X0101320Y0025902D02*
X0100419Y0025759D01*
X0099550Y0025477D01*
X0098737Y0025063D01*
X0097998Y0024526D01*
X0097353Y0023880D01*
X0096816Y0023142D01*
X0096402Y0022328D01*
X0096120Y0021460D01*
X0095977Y0020559D01*
X0095977Y0020483D01*
X0101396Y0020483D01*
X0101396Y0025902D01*
X0101320Y0025902D01*
X0101396Y0025883D02*
X0102158Y0025883D01*
X0102158Y0025902D02*
X0102233Y0025902D01*
X0103135Y0025759D01*
X0104003Y0025477D01*
X0104817Y0025063D01*
X0105555Y0024526D01*
X0106201Y0023880D01*
X0106737Y0023142D01*
X0107152Y0022328D01*
X0107434Y0021460D01*
X0107577Y0020559D01*
X0107577Y0020483D01*
X0102158Y0020483D01*
X0102158Y0019721D01*
X0107577Y0019721D01*
X0107577Y0019646D01*
X0107434Y0018744D01*
X0107152Y0017876D01*
X0106737Y0017062D01*
X0106201Y0016324D01*
X0105555Y0015678D01*
X0104817Y0015141D01*
X0104003Y0014727D01*
X0103135Y0014445D01*
X0102233Y0014302D01*
X0102158Y0014302D01*
X0102158Y0019721D01*
X0101396Y0019721D01*
X0101396Y0014302D01*
X0101320Y0014302D01*
X0100419Y0014445D01*
X0099550Y0014727D01*
X0098737Y0015141D01*
X0097998Y0015678D01*
X0097353Y0016324D01*
X0096816Y0017062D01*
X0096402Y0017876D01*
X0096120Y0018744D01*
X0095977Y0019646D01*
X0095977Y0019721D01*
X0101396Y0019721D01*
X0101396Y0020483D01*
X0102158Y0020483D01*
X0102158Y0025902D01*
X0102355Y0025883D02*
X0113270Y0025883D01*
X0112318Y0024284D02*
X0105797Y0024284D01*
X0106970Y0022686D02*
X0112318Y0022686D01*
X0112318Y0021087D02*
X0107493Y0021087D01*
X0107552Y0019489D02*
X0112318Y0019489D01*
X0112318Y0017890D02*
X0107157Y0017890D01*
X0106169Y0016292D02*
X0112318Y0016292D01*
X0112898Y0014693D02*
X0103899Y0014693D01*
X0102158Y0014693D02*
X0101396Y0014693D01*
X0101396Y0016292D02*
X0102158Y0016292D01*
X0102158Y0017890D02*
X0101396Y0017890D01*
X0101396Y0019489D02*
X0102158Y0019489D01*
X0102158Y0021087D02*
X0101396Y0021087D01*
X0101396Y0022686D02*
X0102158Y0022686D01*
X0102158Y0024284D02*
X0101396Y0024284D01*
X0097757Y0024284D02*
X0091600Y0024284D01*
X0092722Y0022686D02*
X0096584Y0022686D01*
X0096061Y0021087D02*
X0093297Y0021087D01*
X0093297Y0019489D02*
X0096002Y0019489D01*
X0096397Y0017890D02*
X0092875Y0017890D01*
X0091972Y0016292D02*
X0097385Y0016292D01*
X0099655Y0014693D02*
X0089918Y0014693D01*
X0084677Y0014693D02*
X0078237Y0014693D01*
X0078818Y0016292D02*
X0082622Y0016292D01*
X0081719Y0017890D02*
X0078818Y0017890D01*
X0078818Y0019489D02*
X0081297Y0019489D01*
X0081297Y0021087D02*
X0078818Y0021087D01*
X0078818Y0022686D02*
X0080754Y0022686D01*
X0079155Y0024284D02*
X0078818Y0024284D01*
X0075958Y0027481D02*
X0045297Y0027481D01*
X0045297Y0025883D02*
X0055254Y0025883D01*
X0055783Y0026102D02*
X0053578Y0025189D01*
X0051890Y0023501D01*
X0050977Y0021296D01*
X0050977Y0018909D01*
X0051890Y0016703D01*
X0053578Y0015016D01*
X0055783Y0014102D01*
X0058170Y0014102D01*
X0060376Y0015016D01*
X0062063Y0016703D01*
X0062977Y0018909D01*
X0062977Y0021296D01*
X0062063Y0023501D01*
X0060376Y0025189D01*
X0058170Y0026102D01*
X0055783Y0026102D01*
X0058700Y0025883D02*
X0067770Y0025883D01*
X0066818Y0024284D02*
X0061280Y0024284D01*
X0062401Y0022686D02*
X0066818Y0022686D01*
X0066818Y0021087D02*
X0062977Y0021087D01*
X0062977Y0019489D02*
X0066818Y0019489D01*
X0066818Y0017890D02*
X0062555Y0017890D01*
X0061652Y0016292D02*
X0066818Y0016292D01*
X0067398Y0014693D02*
X0059597Y0014693D01*
X0054356Y0014693D02*
X0045118Y0014693D01*
X0047172Y0016292D02*
X0052302Y0016292D01*
X0051399Y0017890D02*
X0048075Y0017890D01*
X0048497Y0019489D02*
X0050977Y0019489D01*
X0050977Y0021087D02*
X0048497Y0021087D01*
X0047922Y0022686D02*
X0051553Y0022686D01*
X0052674Y0024284D02*
X0046800Y0024284D01*
X0042497Y0020102D02*
X0042497Y0053582D01*
X0044018Y0055102D01*
X0034018Y0065102D01*
X0029018Y0065102D01*
X0033856Y0061050D02*
X0034110Y0061050D01*
X0033307Y0059180D02*
X0032648Y0059394D01*
X0031964Y0059502D01*
X0029018Y0059502D01*
X0029018Y0055102D01*
X0029018Y0055102D01*
X0036018Y0055102D01*
X0036018Y0054756D01*
X0035909Y0054072D01*
X0035695Y0053413D01*
X0035381Y0052796D01*
X0034974Y0052236D01*
X0034484Y0051746D01*
X0033924Y0051339D01*
X0033307Y0051024D01*
X0032648Y0050810D01*
X0031964Y0050702D01*
X0029018Y0050702D01*
X0029018Y0055102D01*
X0036018Y0055102D01*
X0036018Y0055448D01*
X0035909Y0056132D01*
X0035695Y0056791D01*
X0035381Y0057408D01*
X0034974Y0057968D01*
X0034484Y0058458D01*
X0033924Y0058865D01*
X0033307Y0059180D01*
X0032284Y0059451D02*
X0035709Y0059451D01*
X0035058Y0057853D02*
X0037307Y0057853D01*
X0035870Y0056254D02*
X0038906Y0056254D01*
X0039912Y0054656D02*
X0036002Y0054656D01*
X0035514Y0053057D02*
X0039697Y0053057D01*
X0039697Y0051459D02*
X0034089Y0051459D01*
X0029018Y0051459D02*
X0029018Y0051459D01*
X0029018Y0050702D02*
X0026072Y0050702D01*
X0025387Y0050810D01*
X0024729Y0051024D01*
X0024112Y0051339D01*
X0023551Y0051746D01*
X0023062Y0052236D01*
X0022655Y0052796D01*
X0022340Y0053413D01*
X0022126Y0054072D01*
X0022018Y0054756D01*
X0022018Y0055102D01*
X0029018Y0055102D01*
X0029018Y0055102D01*
X0028018Y0055102D01*
X0028018Y0020102D01*
X0028399Y0019721D02*
X0028399Y0014302D01*
X0032255Y0014302D01*
X0032713Y0014425D01*
X0033123Y0014662D01*
X0033458Y0014997D01*
X0033695Y0015407D01*
X0033818Y0015865D01*
X0033818Y0019721D01*
X0028399Y0019721D01*
X0028399Y0020483D01*
X0033818Y0020483D01*
X0033818Y0024339D01*
X0033695Y0024797D01*
X0033458Y0025207D01*
X0033123Y0025542D01*
X0032713Y0025779D01*
X0032255Y0025902D01*
X0028399Y0025902D01*
X0028399Y0020483D01*
X0027637Y0020483D01*
X0027637Y0025902D01*
X0023781Y0025902D01*
X0023323Y0025779D01*
X0022913Y0025542D01*
X0022577Y0025207D01*
X0022340Y0024797D01*
X0022218Y0024339D01*
X0022218Y0020483D01*
X0027637Y0020483D01*
X0027637Y0019721D01*
X0028399Y0019721D01*
X0028399Y0019489D02*
X0027637Y0019489D01*
X0027637Y0019721D02*
X0027637Y0014302D01*
X0023781Y0014302D01*
X0023323Y0014425D01*
X0022913Y0014662D01*
X0022577Y0014997D01*
X0022340Y0015407D01*
X0022218Y0015865D01*
X0022218Y0019721D01*
X0027637Y0019721D01*
X0027637Y0021087D02*
X0028399Y0021087D01*
X0028399Y0022686D02*
X0027637Y0022686D01*
X0027637Y0024284D02*
X0028399Y0024284D01*
X0028399Y0025883D02*
X0027637Y0025883D01*
X0023709Y0025883D02*
X0021018Y0025883D01*
X0021018Y0027481D02*
X0039697Y0027481D01*
X0039697Y0025883D02*
X0032327Y0025883D01*
X0033818Y0024284D02*
X0038194Y0024284D01*
X0037073Y0022686D02*
X0033818Y0022686D01*
X0033818Y0021087D02*
X0036497Y0021087D01*
X0036497Y0019489D02*
X0033818Y0019489D01*
X0033818Y0017890D02*
X0036919Y0017890D01*
X0037822Y0016292D02*
X0033818Y0016292D01*
X0033154Y0014693D02*
X0039877Y0014693D01*
X0028399Y0014693D02*
X0027637Y0014693D01*
X0027637Y0016292D02*
X0028399Y0016292D01*
X0028399Y0017890D02*
X0027637Y0017890D01*
X0022881Y0014693D02*
X0021018Y0014693D01*
X0021018Y0013095D02*
X0135845Y0013095D01*
X0137443Y0011496D02*
X0021018Y0011496D01*
X0021018Y0009898D02*
X0139042Y0009898D01*
X0140641Y0008299D02*
X0021018Y0008299D01*
X0021018Y0016292D02*
X0022218Y0016292D01*
X0022218Y0017890D02*
X0021018Y0017890D01*
X0021018Y0019489D02*
X0022218Y0019489D01*
X0022218Y0021087D02*
X0021018Y0021087D01*
X0021018Y0022686D02*
X0022218Y0022686D01*
X0022218Y0024284D02*
X0021018Y0024284D01*
X0021018Y0029080D02*
X0039697Y0029080D01*
X0039697Y0030678D02*
X0021018Y0030678D01*
X0021018Y0032277D02*
X0039697Y0032277D01*
X0039697Y0033875D02*
X0021018Y0033875D01*
X0021018Y0035474D02*
X0039697Y0035474D01*
X0039697Y0037072D02*
X0021018Y0037072D01*
X0021018Y0038671D02*
X0039697Y0038671D01*
X0039697Y0040269D02*
X0021018Y0040269D01*
X0021018Y0041868D02*
X0039697Y0041868D01*
X0039697Y0043466D02*
X0021018Y0043466D01*
X0021018Y0045065D02*
X0039697Y0045065D01*
X0039697Y0046663D02*
X0021018Y0046663D01*
X0021018Y0048262D02*
X0039697Y0048262D01*
X0039697Y0049860D02*
X0021018Y0049860D01*
X0021018Y0051459D02*
X0023946Y0051459D01*
X0022521Y0053057D02*
X0021018Y0053057D01*
X0021018Y0054656D02*
X0022034Y0054656D01*
X0022018Y0055102D02*
X0029018Y0055102D01*
X0029018Y0055102D01*
X0029018Y0050702D01*
X0029018Y0053057D02*
X0029018Y0053057D01*
X0029018Y0054656D02*
X0029018Y0054656D01*
X0029018Y0055102D02*
X0029018Y0055102D01*
X0029018Y0059502D01*
X0026072Y0059502D01*
X0025387Y0059394D01*
X0024729Y0059180D01*
X0024112Y0058865D01*
X0023551Y0058458D01*
X0023062Y0057968D01*
X0022655Y0057408D01*
X0022340Y0056791D01*
X0022126Y0056132D01*
X0022018Y0055448D01*
X0022018Y0055102D01*
X0022166Y0056254D02*
X0021018Y0056254D01*
X0021018Y0057853D02*
X0022978Y0057853D01*
X0021018Y0059451D02*
X0025752Y0059451D01*
X0024180Y0061050D02*
X0021018Y0061050D01*
X0021018Y0062648D02*
X0022455Y0062648D01*
X0021818Y0064247D02*
X0021018Y0064247D01*
X0021018Y0065845D02*
X0021818Y0065845D01*
X0022409Y0067444D02*
X0021018Y0067444D01*
X0021018Y0069043D02*
X0023911Y0069043D01*
X0025167Y0070641D02*
X0021018Y0070641D01*
X0021018Y0072240D02*
X0022775Y0072240D01*
X0021962Y0073838D02*
X0021018Y0073838D01*
X0021018Y0075437D02*
X0021818Y0075437D01*
X0022239Y0077035D02*
X0021018Y0077035D01*
X0021018Y0078634D02*
X0023444Y0078634D01*
X0021018Y0080232D02*
X0039928Y0080232D01*
X0041526Y0078634D02*
X0034592Y0078634D01*
X0035796Y0077035D02*
X0043125Y0077035D01*
X0044723Y0075437D02*
X0037219Y0075437D01*
X0038817Y0073838D02*
X0045237Y0073838D01*
X0046533Y0072240D02*
X0040416Y0072240D01*
X0042014Y0070641D02*
X0049519Y0070641D01*
X0051118Y0069043D02*
X0043613Y0069043D01*
X0045211Y0067444D02*
X0053118Y0067444D01*
X0054262Y0065845D02*
X0068237Y0065845D01*
X0068237Y0067444D02*
X0064917Y0067444D01*
X0066918Y0069043D02*
X0068611Y0069043D01*
X0068517Y0070641D02*
X0069218Y0070641D01*
X0067994Y0074078D02*
X0064018Y0070102D01*
X0054018Y0070102D01*
X0049018Y0075102D01*
X0039018Y0085102D01*
X0029018Y0085102D01*
X0034018Y0085102D01*
X0035001Y0088225D02*
X0041935Y0088225D01*
X0041454Y0086626D02*
X0043534Y0086626D01*
X0043052Y0085028D02*
X0045132Y0085028D01*
X0044651Y0083429D02*
X0046731Y0083429D01*
X0046249Y0081831D02*
X0048329Y0081831D01*
X0047848Y0080232D02*
X0049928Y0080232D01*
X0050834Y0078634D02*
X0051526Y0078634D01*
X0052432Y0077035D02*
X0053125Y0077035D01*
X0052799Y0075437D02*
X0054723Y0075437D01*
X0054242Y0073838D02*
X0056322Y0073838D01*
X0059018Y0075102D02*
X0064018Y0075102D01*
X0066144Y0077228D01*
X0072118Y0077228D01*
X0072118Y0074078D02*
X0067994Y0074078D01*
X0072018Y0073978D02*
X0072118Y0074078D01*
X0072018Y0073978D02*
X0072018Y0067102D01*
X0077994Y0068202D02*
X0077994Y0079078D01*
X0079518Y0080602D01*
X0083018Y0080602D01*
X0085109Y0077602D02*
X0086333Y0078827D01*
X0090942Y0074218D01*
X0090942Y0072502D01*
X0090593Y0072502D01*
X0090593Y0068202D01*
X0090593Y0063902D01*
X0091614Y0063902D01*
X0091814Y0063702D01*
X0094092Y0063702D01*
X0094092Y0062419D01*
X0094218Y0062115D01*
X0094218Y0044262D01*
X0092858Y0042902D01*
X0091309Y0042902D01*
X0091057Y0043154D01*
X0089734Y0043702D01*
X0088302Y0043702D01*
X0086979Y0043154D01*
X0085966Y0042141D01*
X0085418Y0040818D01*
X0085418Y0039386D01*
X0085966Y0038063D01*
X0086127Y0037902D01*
X0085178Y0037902D01*
X0082799Y0040281D01*
X0082799Y0041668D01*
X0080584Y0043883D01*
X0077452Y0043883D01*
X0076818Y0043249D01*
X0076818Y0053942D01*
X0077418Y0054542D01*
X0077418Y0052611D01*
X0079527Y0050502D01*
X0082509Y0050502D01*
X0084618Y0052611D01*
X0084618Y0053742D01*
X0086667Y0055792D01*
X0087093Y0056821D01*
X0087093Y0063702D01*
X0089371Y0063702D01*
X0089571Y0063902D01*
X0090593Y0063902D01*
X0090593Y0068202D01*
X0090593Y0068202D01*
X0090593Y0068202D01*
X0090593Y0072527D01*
X0090593Y0073527D01*
X0089018Y0075102D01*
X0089724Y0075437D02*
X0087118Y0075437D01*
X0087118Y0075593D02*
X0085109Y0077602D01*
X0085676Y0077035D02*
X0088125Y0077035D01*
X0087118Y0075593D02*
X0087118Y0072702D01*
X0089371Y0072702D01*
X0089571Y0072502D01*
X0090593Y0072502D01*
X0090593Y0068202D01*
X0090593Y0067444D02*
X0090593Y0067444D01*
X0090593Y0065845D02*
X0090593Y0065845D01*
X0090593Y0064247D02*
X0090593Y0064247D01*
X0087093Y0062648D02*
X0094092Y0062648D01*
X0094218Y0061050D02*
X0087093Y0061050D01*
X0087093Y0059451D02*
X0094218Y0059451D01*
X0094218Y0057853D02*
X0087093Y0057853D01*
X0086859Y0056254D02*
X0094218Y0056254D01*
X0094218Y0054656D02*
X0085531Y0054656D01*
X0084618Y0053057D02*
X0094218Y0053057D01*
X0094218Y0051459D02*
X0083466Y0051459D01*
X0081018Y0054102D02*
X0084293Y0057378D01*
X0084293Y0068202D01*
X0081144Y0068202D02*
X0081144Y0072228D01*
X0083018Y0074102D01*
X0083518Y0074102D01*
X0087118Y0073838D02*
X0090942Y0073838D01*
X0090593Y0072527D02*
X0089018Y0074102D01*
X0090593Y0072240D02*
X0090593Y0072240D01*
X0090593Y0070641D02*
X0090593Y0070641D01*
X0090593Y0069043D02*
X0090593Y0069043D01*
X0093742Y0068202D02*
X0093742Y0075378D01*
X0079018Y0090102D01*
X0084518Y0090602D02*
X0084518Y0101778D01*
X0084293Y0102002D01*
X0084293Y0105378D01*
X0086518Y0107602D01*
X0089518Y0107602D01*
X0090518Y0106602D01*
X0090518Y0110102D01*
X0091018Y0110602D01*
X0091018Y0115602D01*
X0093818Y0113055D02*
X0094799Y0114036D01*
X0094799Y0117168D01*
X0092584Y0119383D01*
X0089452Y0119383D01*
X0087237Y0117168D01*
X0087237Y0114036D01*
X0088218Y0113055D01*
X0088218Y0111762D01*
X0088144Y0111688D01*
X0087718Y0110659D01*
X0087718Y0110402D01*
X0085961Y0110402D01*
X0084932Y0109976D01*
X0084144Y0109188D01*
X0083944Y0108988D01*
X0083944Y0125808D01*
X0090604Y0132468D01*
X0091392Y0133256D01*
X0091818Y0134285D01*
X0091818Y0138942D01*
X0096218Y0143342D01*
X0096218Y0109762D01*
X0094518Y0108062D01*
X0094092Y0107033D01*
X0094092Y0106302D01*
X0093742Y0106302D01*
X0093393Y0106302D01*
X0093393Y0107234D01*
X0093318Y0107414D01*
X0093318Y0108942D01*
X0093392Y0109016D01*
X0093818Y0110045D01*
X0093818Y0113055D01*
X0093818Y0112202D02*
X0096218Y0112202D01*
X0096218Y0110604D02*
X0093818Y0110604D01*
X0093381Y0109005D02*
X0095461Y0109005D01*
X0094247Y0107407D02*
X0093321Y0107407D01*
X0093742Y0106302D02*
X0093742Y0102002D01*
X0093742Y0102002D01*
X0093742Y0097702D01*
X0092721Y0097702D01*
X0092521Y0097502D01*
X0088664Y0097502D01*
X0088464Y0097702D01*
X0087443Y0097702D01*
X0087443Y0102002D01*
X0087443Y0102002D01*
X0087443Y0097702D01*
X0087318Y0097702D01*
X0087318Y0092893D01*
X0088118Y0092093D01*
X0088118Y0089111D01*
X0086043Y0087036D01*
X0095328Y0077751D01*
X0095328Y0077751D01*
X0096116Y0076964D01*
X0096542Y0075935D01*
X0096542Y0072702D01*
X0101418Y0072702D01*
X0101418Y0085702D01*
X0100934Y0085502D01*
X0099601Y0085502D01*
X0098370Y0086012D01*
X0097428Y0086954D01*
X0096918Y0088186D01*
X0096918Y0089518D01*
X0097428Y0090750D01*
X0097868Y0091190D01*
X0097868Y0093113D01*
X0097768Y0093355D01*
X0097768Y0094349D01*
X0098148Y0095268D01*
X0100382Y0097502D01*
X0094963Y0097502D01*
X0094763Y0097702D01*
X0093742Y0097702D01*
X0093742Y0102002D01*
X0093742Y0102002D01*
X0093742Y0106302D01*
X0093742Y0105808D02*
X0093742Y0105808D01*
X0093742Y0104210D02*
X0093742Y0104210D01*
X0093742Y0102611D02*
X0093742Y0102611D01*
X0093742Y0101013D02*
X0093742Y0101013D01*
X0093742Y0099414D02*
X0093742Y0099414D01*
X0093742Y0097816D02*
X0093742Y0097816D01*
X0097879Y0094619D02*
X0087318Y0094619D01*
X0087318Y0096217D02*
X0099097Y0096217D01*
X0097868Y0093020D02*
X0087318Y0093020D01*
X0088118Y0091422D02*
X0097868Y0091422D01*
X0097044Y0089823D02*
X0088118Y0089823D01*
X0087232Y0088225D02*
X0096918Y0088225D01*
X0097756Y0086626D02*
X0086453Y0086626D01*
X0088052Y0085028D02*
X0101418Y0085028D01*
X0101418Y0083429D02*
X0089651Y0083429D01*
X0090518Y0083602D02*
X0089018Y0085102D01*
X0091249Y0081831D02*
X0101418Y0081831D01*
X0101418Y0080232D02*
X0092848Y0080232D01*
X0094446Y0078634D02*
X0101418Y0078634D01*
X0101418Y0077035D02*
X0096045Y0077035D01*
X0096542Y0075437D02*
X0101418Y0075437D01*
X0101418Y0073838D02*
X0096542Y0073838D01*
X0096892Y0068202D02*
X0096892Y0062976D01*
X0097018Y0062850D01*
X0097018Y0047102D01*
X0097018Y0043102D01*
X0094018Y0040102D01*
X0089018Y0040102D01*
X0085714Y0038671D02*
X0084409Y0038671D01*
X0085418Y0040269D02*
X0082810Y0040269D01*
X0082599Y0041868D02*
X0085853Y0041868D01*
X0087733Y0043466D02*
X0081001Y0043466D01*
X0079018Y0040102D02*
X0084018Y0035102D01*
X0124018Y0035102D01*
X0129018Y0040102D01*
X0132799Y0040269D02*
X0134891Y0040269D01*
X0136489Y0038671D02*
X0132799Y0038671D01*
X0131335Y0037072D02*
X0137700Y0037072D01*
X0139299Y0035474D02*
X0128349Y0035474D01*
X0126751Y0033875D02*
X0153285Y0033875D01*
X0154883Y0032277D02*
X0079082Y0032277D01*
X0077484Y0033875D02*
X0081285Y0033875D01*
X0079686Y0035474D02*
X0076818Y0035474D01*
X0074018Y0033382D02*
X0074018Y0055102D01*
X0044018Y0055102D01*
X0045297Y0051459D02*
X0071218Y0051459D01*
X0071218Y0049860D02*
X0045297Y0049860D01*
X0045297Y0048262D02*
X0046830Y0048262D01*
X0049018Y0045102D02*
X0054018Y0045102D01*
X0059018Y0040102D01*
X0062799Y0040269D02*
X0071218Y0040269D01*
X0071218Y0038671D02*
X0062799Y0038671D01*
X0061335Y0037072D02*
X0071218Y0037072D01*
X0071218Y0035474D02*
X0045297Y0035474D01*
X0045297Y0037072D02*
X0056700Y0037072D01*
X0055237Y0038671D02*
X0045297Y0038671D01*
X0045297Y0040269D02*
X0054891Y0040269D01*
X0053292Y0041868D02*
X0051131Y0041868D01*
X0046905Y0041868D02*
X0045297Y0041868D01*
X0045297Y0043466D02*
X0045306Y0043466D01*
X0051205Y0048262D02*
X0071218Y0048262D01*
X0071218Y0046663D02*
X0056416Y0046663D01*
X0058015Y0045065D02*
X0071218Y0045065D01*
X0071218Y0043466D02*
X0061001Y0043466D01*
X0062599Y0041868D02*
X0071218Y0041868D01*
X0076818Y0043466D02*
X0077035Y0043466D01*
X0076818Y0045065D02*
X0094218Y0045065D01*
X0094218Y0046663D02*
X0076818Y0046663D01*
X0076818Y0048262D02*
X0094218Y0048262D01*
X0094218Y0049860D02*
X0076818Y0049860D01*
X0076818Y0051459D02*
X0078570Y0051459D01*
X0077418Y0053057D02*
X0076818Y0053057D01*
X0074018Y0055102D02*
X0081144Y0062228D01*
X0081144Y0068202D01*
X0086140Y0078634D02*
X0086526Y0078634D01*
X0100041Y0068202D02*
X0100041Y0066126D01*
X0106065Y0060102D01*
X0116518Y0060102D01*
X0119319Y0062648D02*
X0142512Y0062648D01*
X0144110Y0061050D02*
X0120299Y0061050D01*
X0120299Y0059451D02*
X0145709Y0059451D01*
X0146614Y0057853D02*
X0147307Y0057853D01*
X0147799Y0056254D02*
X0148906Y0056254D01*
X0147799Y0054656D02*
X0150504Y0054656D01*
X0152103Y0053057D02*
X0147320Y0053057D01*
X0145722Y0051459D02*
X0153701Y0051459D01*
X0155300Y0049860D02*
X0142736Y0049860D01*
X0141018Y0052102D02*
X0144018Y0055102D01*
X0141421Y0057853D02*
X0119616Y0057853D01*
X0124818Y0048262D02*
X0156898Y0048262D01*
X0158589Y0046663D02*
X0136416Y0046663D01*
X0138015Y0045065D02*
X0174595Y0045065D01*
X0172997Y0046663D02*
X0164926Y0046663D01*
X0165799Y0048262D02*
X0171398Y0048262D01*
X0169800Y0049860D02*
X0165799Y0049860D01*
X0165008Y0051459D02*
X0168201Y0051459D01*
X0166603Y0053057D02*
X0160022Y0053057D01*
X0160018Y0049102D02*
X0135041Y0074078D01*
X0105918Y0074078D01*
X0105918Y0077228D02*
X0136144Y0077228D01*
X0139018Y0080102D01*
X0134519Y0070641D02*
X0103141Y0070641D01*
X0103141Y0069043D02*
X0136118Y0069043D01*
X0137716Y0067444D02*
X0103141Y0067444D01*
X0104281Y0065845D02*
X0139315Y0065845D01*
X0140913Y0064247D02*
X0105880Y0064247D01*
X0101157Y0061050D02*
X0099818Y0061050D01*
X0099818Y0059451D02*
X0102756Y0059451D01*
X0104354Y0057853D02*
X0099818Y0057853D01*
X0099818Y0056254D02*
X0140237Y0056254D01*
X0141018Y0052102D02*
X0104018Y0052102D01*
X0101224Y0054656D02*
X0099818Y0054656D01*
X0099818Y0053057D02*
X0100237Y0053057D01*
X0100237Y0051459D02*
X0099818Y0051459D01*
X0097018Y0047102D02*
X0122018Y0047102D01*
X0124018Y0045102D01*
X0134018Y0045102D01*
X0140018Y0039102D01*
X0141018Y0039102D01*
X0143599Y0041868D02*
X0146418Y0041868D01*
X0146418Y0040269D02*
X0144799Y0040269D01*
X0144799Y0038671D02*
X0147358Y0038671D01*
X0150088Y0037072D02*
X0144335Y0037072D01*
X0142737Y0035474D02*
X0151686Y0035474D01*
X0156409Y0038671D02*
X0251655Y0038671D01*
X0251632Y0038631D02*
X0251509Y0038174D01*
X0251509Y0036362D01*
X0255081Y0036362D01*
X0255081Y0036362D01*
X0255081Y0039737D01*
X0253072Y0039737D01*
X0252614Y0039614D01*
X0252204Y0039377D01*
X0251869Y0039042D01*
X0251632Y0038631D01*
X0251509Y0037072D02*
X0158007Y0037072D01*
X0159606Y0035474D02*
X0251509Y0035474D01*
X0251509Y0036362D02*
X0251509Y0034550D01*
X0251632Y0034092D01*
X0251869Y0033682D01*
X0252204Y0033347D01*
X0252614Y0033110D01*
X0253072Y0032987D01*
X0255081Y0032987D01*
X0255081Y0036362D01*
X0255081Y0036362D01*
X0251509Y0036362D01*
X0251757Y0033875D02*
X0161204Y0033875D01*
X0156482Y0030678D02*
X0080681Y0030678D01*
X0082279Y0029080D02*
X0158080Y0029080D01*
X0162797Y0028323D02*
X0150018Y0041102D01*
X0152745Y0043466D02*
X0176194Y0043466D01*
X0178518Y0045102D02*
X0166518Y0057102D01*
X0159018Y0057102D01*
X0160018Y0049102D02*
X0162018Y0049102D01*
X0153618Y0041868D02*
X0230719Y0041868D01*
X0231573Y0040269D02*
X0154810Y0040269D01*
X0147291Y0043466D02*
X0139613Y0043466D01*
X0133292Y0041868D02*
X0132599Y0041868D01*
X0137100Y0024284D02*
X0143257Y0024284D01*
X0142084Y0022686D02*
X0138222Y0022686D01*
X0138797Y0021087D02*
X0141561Y0021087D01*
X0141502Y0019489D02*
X0138797Y0019489D01*
X0138969Y0017890D02*
X0141897Y0017890D01*
X0142885Y0016292D02*
X0140568Y0016292D01*
X0142166Y0014693D02*
X0145155Y0014693D01*
X0146896Y0014693D02*
X0147658Y0014693D01*
X0147658Y0016292D02*
X0146896Y0016292D01*
X0146896Y0017890D02*
X0147658Y0017890D01*
X0147658Y0019489D02*
X0146896Y0019489D01*
X0147277Y0020102D02*
X0149018Y0020102D01*
X0147658Y0021087D02*
X0146896Y0021087D01*
X0146896Y0022686D02*
X0147658Y0022686D01*
X0147658Y0024284D02*
X0146896Y0024284D01*
X0151297Y0024284D02*
X0157518Y0024284D01*
X0157518Y0022686D02*
X0152470Y0022686D01*
X0152993Y0021087D02*
X0157518Y0021087D01*
X0157518Y0019721D02*
X0157518Y0015865D01*
X0157640Y0015407D01*
X0157877Y0014997D01*
X0158213Y0014662D01*
X0158623Y0014425D01*
X0159081Y0014302D01*
X0162937Y0014302D01*
X0162937Y0019721D01*
X0157518Y0019721D01*
X0157518Y0019489D02*
X0153052Y0019489D01*
X0152657Y0017890D02*
X0157518Y0017890D01*
X0157518Y0016292D02*
X0151669Y0016292D01*
X0149399Y0014693D02*
X0158181Y0014693D01*
X0162937Y0014693D02*
X0163699Y0014693D01*
X0163699Y0014302D02*
X0167555Y0014302D01*
X0168013Y0014425D01*
X0168423Y0014662D01*
X0168758Y0014997D01*
X0168995Y0015407D01*
X0169118Y0015865D01*
X0169118Y0019721D01*
X0163699Y0019721D01*
X0163699Y0014302D01*
X0163699Y0016292D02*
X0162937Y0016292D01*
X0162937Y0017890D02*
X0163699Y0017890D01*
X0163699Y0019489D02*
X0162937Y0019489D01*
X0168454Y0014693D02*
X0175177Y0014693D01*
X0176218Y0013095D02*
X0143765Y0013095D01*
X0130177Y0014693D02*
X0123737Y0014693D01*
X0124318Y0016292D02*
X0128122Y0016292D01*
X0127219Y0017890D02*
X0124318Y0017890D01*
X0124318Y0019489D02*
X0126797Y0019489D01*
X0126797Y0021087D02*
X0124318Y0021087D01*
X0124318Y0022686D02*
X0127373Y0022686D01*
X0093422Y0043466D02*
X0090303Y0043466D01*
X0074018Y0033382D02*
X0087297Y0020102D01*
X0074360Y0029080D02*
X0045297Y0029080D01*
X0045297Y0030678D02*
X0072761Y0030678D01*
X0071445Y0032277D02*
X0045297Y0032277D01*
X0045297Y0033875D02*
X0071218Y0033875D01*
X0046133Y0059451D02*
X0043628Y0059451D01*
X0044534Y0061050D02*
X0042030Y0061050D01*
X0042936Y0062648D02*
X0040431Y0062648D01*
X0041337Y0064247D02*
X0038833Y0064247D01*
X0039739Y0065845D02*
X0037234Y0065845D01*
X0038140Y0067444D02*
X0035636Y0067444D01*
X0036542Y0069043D02*
X0034125Y0069043D01*
X0034943Y0070641D02*
X0032868Y0070641D01*
X0034852Y0081831D02*
X0038329Y0081831D01*
X0040337Y0089823D02*
X0021018Y0089823D01*
X0021018Y0088225D02*
X0023035Y0088225D01*
X0022070Y0086626D02*
X0021018Y0086626D01*
X0021018Y0085028D02*
X0021818Y0085028D01*
X0022132Y0083429D02*
X0021018Y0083429D01*
X0021018Y0081831D02*
X0023184Y0081831D01*
X0023593Y0091422D02*
X0021018Y0091422D01*
X0021018Y0093020D02*
X0022301Y0093020D01*
X0021818Y0094619D02*
X0021018Y0094619D01*
X0021018Y0096217D02*
X0021901Y0096217D01*
X0022626Y0097816D02*
X0021018Y0097816D01*
X0021018Y0099414D02*
X0024808Y0099414D01*
X0024270Y0101013D02*
X0021018Y0101013D01*
X0021018Y0102611D02*
X0022471Y0102611D01*
X0021818Y0104210D02*
X0021018Y0104210D01*
X0021018Y0105808D02*
X0021818Y0105808D01*
X0022393Y0107407D02*
X0021018Y0107407D01*
X0021018Y0109005D02*
X0023821Y0109005D01*
X0025257Y0110604D02*
X0021018Y0110604D01*
X0021018Y0112202D02*
X0022812Y0112202D01*
X0022518Y0112496D02*
X0023812Y0111202D01*
X0025503Y0110502D01*
X0032533Y0110502D01*
X0034223Y0111202D01*
X0035517Y0112496D01*
X0036218Y0114187D01*
X0036218Y0116017D01*
X0035517Y0117708D01*
X0034223Y0119002D01*
X0032533Y0119702D01*
X0025503Y0119702D01*
X0023812Y0119002D01*
X0022518Y0117708D01*
X0021818Y0116017D01*
X0021818Y0114187D01*
X0022518Y0112496D01*
X0021978Y0113801D02*
X0021018Y0113801D01*
X0021018Y0115399D02*
X0021818Y0115399D01*
X0022224Y0116998D02*
X0021018Y0116998D01*
X0021018Y0118596D02*
X0023407Y0118596D01*
X0023812Y0121202D02*
X0025503Y0120502D01*
X0032533Y0120502D01*
X0034223Y0121202D01*
X0035517Y0122496D01*
X0036218Y0124187D01*
X0036218Y0126017D01*
X0035517Y0127708D01*
X0034223Y0129002D01*
X0032533Y0129702D01*
X0025503Y0129702D01*
X0023812Y0129002D01*
X0022518Y0127708D01*
X0021818Y0126017D01*
X0021818Y0124187D01*
X0022518Y0122496D01*
X0023812Y0121202D01*
X0023221Y0121793D02*
X0021018Y0121793D01*
X0021018Y0120195D02*
X0036218Y0120195D01*
X0036218Y0121793D02*
X0034815Y0121793D01*
X0035888Y0123392D02*
X0036218Y0123392D01*
X0036218Y0124990D02*
X0036218Y0124990D01*
X0036218Y0126589D02*
X0035981Y0126589D01*
X0036218Y0128187D02*
X0035038Y0128187D01*
X0036218Y0129786D02*
X0021018Y0129786D01*
X0021018Y0131384D02*
X0023630Y0131384D01*
X0023812Y0131202D02*
X0025503Y0130502D01*
X0032533Y0130502D01*
X0034223Y0131202D01*
X0035517Y0132496D01*
X0036218Y0134187D01*
X0036218Y0136017D01*
X0035517Y0137708D01*
X0034223Y0139002D01*
X0032533Y0139702D01*
X0025503Y0139702D01*
X0023812Y0139002D01*
X0022518Y0137708D01*
X0021818Y0136017D01*
X0021818Y0134187D01*
X0022518Y0132496D01*
X0023812Y0131202D01*
X0022317Y0132983D02*
X0021018Y0132983D01*
X0021018Y0134581D02*
X0021818Y0134581D01*
X0021885Y0136180D02*
X0021018Y0136180D01*
X0021018Y0137779D02*
X0022589Y0137779D01*
X0021018Y0139377D02*
X0024718Y0139377D01*
X0025503Y0140502D02*
X0023812Y0141202D01*
X0022518Y0142496D01*
X0021818Y0144187D01*
X0021818Y0146017D01*
X0022518Y0147708D01*
X0023812Y0149002D01*
X0025503Y0149702D01*
X0032533Y0149702D01*
X0034223Y0149002D01*
X0035517Y0147708D01*
X0036218Y0146017D01*
X0036218Y0144187D01*
X0035517Y0142496D01*
X0034223Y0141202D01*
X0032533Y0140502D01*
X0025503Y0140502D01*
X0024360Y0140976D02*
X0021018Y0140976D01*
X0021018Y0142574D02*
X0022486Y0142574D01*
X0021824Y0144173D02*
X0021018Y0144173D01*
X0021018Y0145771D02*
X0021818Y0145771D01*
X0022378Y0147370D02*
X0021018Y0147370D01*
X0021018Y0148968D02*
X0023778Y0148968D01*
X0025347Y0150567D02*
X0021018Y0150567D01*
X0021018Y0152165D02*
X0022849Y0152165D01*
X0021993Y0153764D02*
X0021018Y0153764D01*
X0021018Y0155362D02*
X0021818Y0155362D01*
X0022209Y0156961D02*
X0021018Y0156961D01*
X0021018Y0158559D02*
X0023370Y0158559D01*
X0021018Y0160158D02*
X0030002Y0160158D01*
X0029018Y0165102D02*
X0039018Y0155102D01*
X0039018Y0115102D01*
X0049018Y0105102D01*
X0069018Y0105102D01*
X0072118Y0101126D02*
X0072118Y0096126D01*
X0072118Y0092976D02*
X0066144Y0092976D01*
X0064018Y0095102D01*
X0062018Y0092102D02*
X0064018Y0090102D01*
X0071842Y0090102D01*
X0072118Y0089826D01*
X0072118Y0086677D02*
X0056593Y0086677D01*
X0055518Y0085602D01*
X0059293Y0080378D02*
X0072118Y0080378D01*
X0059293Y0080378D02*
X0059018Y0080102D01*
X0059018Y0075102D02*
X0039018Y0095102D01*
X0044018Y0100102D01*
X0064018Y0100102D01*
X0072118Y0101126D02*
X0074018Y0103026D01*
X0074018Y0115102D01*
X0069018Y0120102D01*
X0065237Y0120195D02*
X0064818Y0120195D01*
X0064818Y0118596D02*
X0065237Y0118596D01*
X0064818Y0116998D02*
X0066775Y0116998D01*
X0064818Y0115399D02*
X0069761Y0115399D01*
X0071218Y0113801D02*
X0064818Y0113801D01*
X0064818Y0112202D02*
X0071218Y0112202D01*
X0071218Y0110604D02*
X0064818Y0110604D01*
X0064049Y0109005D02*
X0071218Y0109005D01*
X0077994Y0102002D02*
X0077994Y0126126D01*
X0074018Y0130102D01*
X0069643Y0130102D01*
X0067143Y0131384D02*
X0064818Y0131384D01*
X0064818Y0129786D02*
X0065791Y0129786D01*
X0064265Y0132983D02*
X0072103Y0132983D01*
X0073702Y0134581D02*
X0047618Y0134581D01*
X0047618Y0136180D02*
X0074065Y0136180D01*
X0074065Y0137779D02*
X0046818Y0137779D01*
X0046818Y0139377D02*
X0074065Y0139377D01*
X0074284Y0140976D02*
X0046818Y0140976D01*
X0046818Y0142574D02*
X0074265Y0142574D01*
X0074265Y0145771D02*
X0046818Y0145771D01*
X0046818Y0144173D02*
X0078538Y0144173D01*
X0079497Y0144173D02*
X0089128Y0144173D01*
X0087530Y0142574D02*
X0083771Y0142574D01*
X0083771Y0143363D02*
X0079497Y0143363D01*
X0079497Y0144322D01*
X0083771Y0144322D01*
X0083771Y0146638D01*
X0083648Y0147096D01*
X0083411Y0147506D01*
X0083298Y0147620D01*
X0084174Y0147983D01*
X0084877Y0148686D01*
X0087994Y0151803D01*
X0089617Y0151803D01*
X0091218Y0150202D01*
X0091218Y0146262D01*
X0087432Y0142476D01*
X0086644Y0141688D01*
X0086218Y0140659D01*
X0086218Y0136002D01*
X0083971Y0133755D01*
X0083971Y0139749D01*
X0083459Y0140261D01*
X0083648Y0140588D01*
X0083771Y0141046D01*
X0083771Y0143363D01*
X0083752Y0140976D02*
X0086349Y0140976D01*
X0086218Y0139377D02*
X0083971Y0139377D01*
X0083971Y0137779D02*
X0086218Y0137779D01*
X0086218Y0136180D02*
X0083971Y0136180D01*
X0083971Y0134581D02*
X0084797Y0134581D01*
X0089018Y0134842D02*
X0089018Y0140102D01*
X0094018Y0145102D01*
X0094018Y0151362D01*
X0089018Y0156362D01*
X0084065Y0156961D02*
X0064818Y0156961D01*
X0064818Y0158559D02*
X0084065Y0158559D01*
X0084473Y0160158D02*
X0064818Y0160158D01*
X0064818Y0161756D02*
X0084265Y0161756D01*
X0084265Y0163355D02*
X0064818Y0163355D01*
X0064818Y0164953D02*
X0084265Y0164953D01*
X0084265Y0166552D02*
X0064818Y0166552D01*
X0064818Y0168150D02*
X0085638Y0168150D01*
X0088538Y0168150D02*
X0089497Y0168150D01*
X0089497Y0166552D02*
X0088538Y0166552D01*
X0088538Y0164953D02*
X0089497Y0164953D01*
X0093771Y0161756D02*
X0101712Y0161756D01*
X0100114Y0160158D02*
X0093562Y0160158D01*
X0093971Y0158559D02*
X0098515Y0158559D01*
X0096917Y0156961D02*
X0093971Y0156961D01*
X0093977Y0155362D02*
X0096218Y0155362D01*
X0096218Y0153764D02*
X0095576Y0153764D01*
X0090853Y0150567D02*
X0086758Y0150567D01*
X0085160Y0148968D02*
X0091218Y0148968D01*
X0091218Y0147370D02*
X0083490Y0147370D01*
X0083771Y0145771D02*
X0090727Y0145771D01*
X0095450Y0142574D02*
X0096218Y0142574D01*
X0096218Y0140976D02*
X0093851Y0140976D01*
X0092253Y0139377D02*
X0096218Y0139377D01*
X0096218Y0137779D02*
X0091818Y0137779D01*
X0091818Y0136180D02*
X0096218Y0136180D01*
X0096218Y0134581D02*
X0091818Y0134581D01*
X0091118Y0132983D02*
X0096218Y0132983D01*
X0096218Y0131384D02*
X0089520Y0131384D01*
X0087921Y0129786D02*
X0096218Y0129786D01*
X0096218Y0128187D02*
X0086323Y0128187D01*
X0084724Y0126589D02*
X0096218Y0126589D01*
X0096218Y0124990D02*
X0083944Y0124990D01*
X0083944Y0123392D02*
X0096218Y0123392D01*
X0096218Y0121793D02*
X0083944Y0121793D01*
X0083944Y0120195D02*
X0096218Y0120195D01*
X0096218Y0118596D02*
X0093371Y0118596D01*
X0094799Y0116998D02*
X0096218Y0116998D01*
X0096218Y0115399D02*
X0094799Y0115399D01*
X0094564Y0113801D02*
X0096218Y0113801D01*
X0090593Y0106677D02*
X0090593Y0102002D01*
X0090518Y0102077D01*
X0090518Y0106602D01*
X0087718Y0110604D02*
X0083944Y0110604D01*
X0083944Y0112202D02*
X0088218Y0112202D01*
X0087472Y0113801D02*
X0083944Y0113801D01*
X0083944Y0115399D02*
X0087237Y0115399D01*
X0087237Y0116998D02*
X0083944Y0116998D01*
X0083944Y0118596D02*
X0088665Y0118596D01*
X0083961Y0109005D02*
X0083944Y0109005D01*
X0084293Y0102002D02*
X0084018Y0101726D01*
X0081144Y0102002D02*
X0081144Y0126968D01*
X0089018Y0134842D01*
X0075170Y0124990D02*
X0068067Y0124990D01*
X0066960Y0123392D02*
X0066468Y0123392D01*
X0065362Y0121793D02*
X0064870Y0121793D01*
X0060643Y0121102D02*
X0059018Y0121102D01*
X0053218Y0121793D02*
X0041818Y0121793D01*
X0041818Y0120195D02*
X0053218Y0120195D01*
X0053218Y0118596D02*
X0041818Y0118596D01*
X0041818Y0116998D02*
X0053218Y0116998D01*
X0053218Y0115399D02*
X0042680Y0115399D01*
X0044279Y0113801D02*
X0053218Y0113801D01*
X0053218Y0112202D02*
X0045877Y0112202D01*
X0047476Y0110604D02*
X0053218Y0110604D01*
X0053986Y0109005D02*
X0049074Y0109005D01*
X0044018Y0105102D02*
X0029018Y0105102D01*
X0033766Y0101013D02*
X0040969Y0101013D01*
X0039370Y0099414D02*
X0033228Y0099414D01*
X0029018Y0095102D02*
X0039018Y0095102D01*
X0038738Y0091422D02*
X0034443Y0091422D01*
X0050018Y0092102D02*
X0062018Y0092102D01*
X0041155Y0109005D02*
X0034215Y0109005D01*
X0032778Y0110604D02*
X0039556Y0110604D01*
X0037958Y0112202D02*
X0035223Y0112202D01*
X0036058Y0113801D02*
X0036526Y0113801D01*
X0036218Y0115399D02*
X0036218Y0115399D01*
X0036218Y0116998D02*
X0035812Y0116998D01*
X0036218Y0118596D02*
X0034629Y0118596D01*
X0041818Y0123392D02*
X0053218Y0123392D01*
X0053218Y0124990D02*
X0041818Y0124990D01*
X0041818Y0126589D02*
X0053218Y0126589D01*
X0053218Y0128187D02*
X0041818Y0128187D01*
X0041818Y0129786D02*
X0053218Y0129786D01*
X0053218Y0131384D02*
X0041818Y0131384D01*
X0044018Y0135102D02*
X0044018Y0160102D01*
X0029018Y0175102D01*
X0030411Y0169749D02*
X0021018Y0169749D01*
X0021018Y0171347D02*
X0023667Y0171347D01*
X0022332Y0172946D02*
X0021018Y0172946D01*
X0021018Y0174544D02*
X0021818Y0174544D01*
X0021870Y0176143D02*
X0021018Y0176143D01*
X0021018Y0177741D02*
X0022552Y0177741D01*
X0021018Y0179340D02*
X0024628Y0179340D01*
X0024994Y0180938D02*
X0021018Y0180938D01*
X0021018Y0182537D02*
X0022843Y0182537D01*
X0022655Y0182796D02*
X0023062Y0182236D01*
X0023551Y0181746D01*
X0024112Y0181339D01*
X0024729Y0181024D01*
X0025387Y0180810D01*
X0026072Y0180702D01*
X0029018Y0180702D01*
X0029018Y0185102D01*
X0029018Y0189502D01*
X0026072Y0189502D01*
X0025387Y0189394D01*
X0024729Y0189180D01*
X0024112Y0188865D01*
X0023551Y0188458D01*
X0023062Y0187968D01*
X0022655Y0187408D01*
X0022340Y0186791D01*
X0022126Y0186132D01*
X0022018Y0185448D01*
X0022018Y0185102D01*
X0022018Y0184756D01*
X0022126Y0184072D01*
X0022340Y0183413D01*
X0022655Y0182796D01*
X0022116Y0184135D02*
X0021018Y0184135D01*
X0022018Y0185102D02*
X0029018Y0185102D01*
X0029018Y0185102D01*
X0022018Y0185102D01*
X0022063Y0185734D02*
X0021018Y0185734D01*
X0021018Y0187332D02*
X0022616Y0187332D01*
X0021018Y0188931D02*
X0024240Y0188931D01*
X0025437Y0190529D02*
X0021018Y0190529D01*
X0021018Y0192128D02*
X0022887Y0192128D01*
X0022009Y0193726D02*
X0021018Y0193726D01*
X0021018Y0195325D02*
X0021818Y0195325D01*
X0022193Y0196923D02*
X0021018Y0196923D01*
X0021018Y0198522D02*
X0023332Y0198522D01*
X0021018Y0200120D02*
X0081259Y0200120D01*
X0082718Y0201719D02*
X0034447Y0201719D01*
X0034484Y0201746D02*
X0034974Y0202236D01*
X0035381Y0202796D01*
X0035695Y0203413D01*
X0035909Y0204072D01*
X0036018Y0204756D01*
X0036018Y0205102D01*
X0029018Y0205102D01*
X0029018Y0205102D01*
X0036018Y0205102D01*
X0036018Y0205448D01*
X0035909Y0206132D01*
X0035695Y0206791D01*
X0035381Y0207408D01*
X0034974Y0207968D01*
X0034484Y0208458D01*
X0033924Y0208865D01*
X0033307Y0209180D01*
X0032648Y0209394D01*
X0031964Y0209502D01*
X0029018Y0209502D01*
X0029018Y0205102D01*
X0029018Y0200702D01*
X0031964Y0200702D01*
X0032648Y0200810D01*
X0033307Y0201024D01*
X0033924Y0201339D01*
X0034484Y0201746D01*
X0035647Y0203317D02*
X0081843Y0203317D01*
X0080244Y0204916D02*
X0036018Y0204916D01*
X0035785Y0206514D02*
X0078646Y0206514D01*
X0077047Y0208113D02*
X0034829Y0208113D01*
X0029018Y0208113D02*
X0029018Y0208113D01*
X0029018Y0209502D02*
X0026072Y0209502D01*
X0025387Y0209394D01*
X0024729Y0209180D01*
X0024112Y0208865D01*
X0023551Y0208458D01*
X0023062Y0207968D01*
X0022655Y0207408D01*
X0022340Y0206791D01*
X0022126Y0206132D01*
X0022018Y0205448D01*
X0022018Y0205102D01*
X0022018Y0204756D01*
X0022126Y0204072D01*
X0022340Y0203413D01*
X0022655Y0202796D01*
X0023062Y0202236D01*
X0023551Y0201746D01*
X0024112Y0201339D01*
X0024729Y0201024D01*
X0025387Y0200810D01*
X0026072Y0200702D01*
X0029018Y0200702D01*
X0029018Y0205102D01*
X0029018Y0205102D01*
X0029018Y0205102D01*
X0029018Y0209502D01*
X0029018Y0206514D02*
X0029018Y0206514D01*
X0029018Y0205102D02*
X0029018Y0205102D01*
X0022018Y0205102D01*
X0029018Y0205102D01*
X0029018Y0204916D02*
X0029018Y0204916D01*
X0029018Y0203317D02*
X0029018Y0203317D01*
X0029018Y0201719D02*
X0029018Y0201719D01*
X0023589Y0201719D02*
X0021018Y0201719D01*
X0021018Y0203317D02*
X0022389Y0203317D01*
X0022018Y0204916D02*
X0021018Y0204916D01*
X0021018Y0206514D02*
X0022250Y0206514D01*
X0023206Y0208113D02*
X0021018Y0208113D01*
X0021018Y0209712D02*
X0075449Y0209712D01*
X0073850Y0211310D02*
X0021018Y0211310D01*
X0021018Y0212909D02*
X0065383Y0212909D01*
X0064468Y0214507D02*
X0050176Y0214507D01*
X0053692Y0216106D02*
X0064468Y0216106D01*
X0064468Y0217704D02*
X0055406Y0217704D01*
X0056546Y0219303D02*
X0064468Y0219303D01*
X0064468Y0220901D02*
X0057380Y0220901D01*
X0057201Y0228894D02*
X0128514Y0228894D01*
X0128514Y0235288D02*
X0125348Y0235288D01*
X0125348Y0236886D02*
X0161368Y0236886D01*
X0161368Y0235288D02*
X0159256Y0235288D01*
X0159322Y0233689D02*
X0161368Y0233689D01*
X0161368Y0238485D02*
X0125348Y0238485D01*
X0125101Y0240083D02*
X0161368Y0240083D01*
X0161368Y0241682D02*
X0125148Y0241682D01*
X0125148Y0244879D02*
X0161368Y0244879D01*
X0161368Y0246477D02*
X0124928Y0246477D01*
X0120678Y0246477D02*
X0119719Y0246477D01*
X0119719Y0244879D02*
X0120678Y0244879D01*
X0120679Y0243280D02*
X0161368Y0243280D01*
X0161714Y0248076D02*
X0117799Y0248076D01*
X0117799Y0249674D02*
X0165418Y0249674D01*
X0165418Y0251273D02*
X0117799Y0251273D01*
X0117639Y0252871D02*
X0166696Y0252871D01*
X0171340Y0252871D02*
X0176518Y0252871D01*
X0176455Y0251273D02*
X0172618Y0251273D01*
X0172618Y0249674D02*
X0175443Y0249674D01*
X0175391Y0248076D02*
X0175443Y0248076D01*
X0177299Y0245071D02*
X0180514Y0245071D01*
X0180651Y0244934D01*
X0179018Y0244934D01*
X0179018Y0241953D01*
X0179018Y0241953D01*
X0179018Y0244934D01*
X0177299Y0244934D01*
X0177299Y0245071D01*
X0179018Y0244879D02*
X0179018Y0244879D01*
X0179018Y0243280D02*
X0179018Y0243280D01*
X0179018Y0241682D02*
X0179018Y0241682D01*
X0179018Y0240083D02*
X0179018Y0240083D01*
X0181518Y0238485D02*
X0175726Y0238485D01*
X0175764Y0240083D02*
X0171667Y0240083D01*
X0177325Y0236886D02*
X0180711Y0236886D01*
X0180418Y0235288D02*
X0177618Y0235288D01*
X0177618Y0233689D02*
X0180418Y0233689D01*
X0181218Y0232091D02*
X0176098Y0232091D01*
X0181218Y0230492D02*
X0159322Y0230492D01*
X0159322Y0228894D02*
X0181218Y0228894D01*
X0181218Y0227295D02*
X0171916Y0227295D01*
X0172618Y0225697D02*
X0181218Y0225697D01*
X0181218Y0224098D02*
X0172618Y0224098D01*
X0174232Y0222500D02*
X0181218Y0222500D01*
X0181218Y0220901D02*
X0174522Y0220901D01*
X0174522Y0219303D02*
X0181218Y0219303D01*
X0181218Y0217704D02*
X0174522Y0217704D01*
X0174522Y0216106D02*
X0181218Y0216106D01*
X0186818Y0222500D02*
X0187456Y0222500D01*
X0186818Y0224098D02*
X0189054Y0224098D01*
X0190653Y0225697D02*
X0186818Y0225697D01*
X0186818Y0227295D02*
X0192251Y0227295D01*
X0193850Y0228894D02*
X0186818Y0228894D01*
X0186818Y0230492D02*
X0195448Y0230492D01*
X0197047Y0232091D02*
X0186818Y0232091D01*
X0187618Y0233689D02*
X0198645Y0233689D01*
X0200244Y0235288D02*
X0187618Y0235288D01*
X0187325Y0236886D02*
X0201842Y0236886D01*
X0203441Y0238485D02*
X0186518Y0238485D01*
X0186518Y0240083D02*
X0205039Y0240083D01*
X0206638Y0241682D02*
X0200945Y0241682D01*
X0202543Y0243280D02*
X0256880Y0243280D01*
X0255982Y0244879D02*
X0202799Y0244879D01*
X0202799Y0246477D02*
X0214879Y0246477D01*
X0213652Y0248076D02*
X0201391Y0248076D01*
X0198405Y0249674D02*
X0213041Y0249674D01*
X0213041Y0251273D02*
X0196807Y0251273D01*
X0195208Y0252871D02*
X0213471Y0252871D01*
X0214441Y0254470D02*
X0193610Y0254470D01*
X0192011Y0256068D02*
X0216760Y0256068D01*
X0220803Y0256068D02*
X0226760Y0256068D01*
X0224441Y0254470D02*
X0223122Y0254470D01*
X0230803Y0256068D02*
X0236760Y0256068D01*
X0234441Y0254470D02*
X0233122Y0254470D01*
X0240803Y0256068D02*
X0247398Y0256068D01*
X0248499Y0256068D02*
X0249064Y0256068D01*
X0250165Y0256068D02*
X0256760Y0256068D01*
X0254441Y0254470D02*
X0252839Y0254470D01*
X0249064Y0254470D02*
X0248499Y0254470D01*
X0248499Y0252871D02*
X0249064Y0252871D01*
X0249064Y0251273D02*
X0248499Y0251273D01*
X0248499Y0249674D02*
X0249064Y0249674D01*
X0249064Y0248076D02*
X0248499Y0248076D01*
X0248499Y0246477D02*
X0249064Y0246477D01*
X0252401Y0246477D02*
X0254879Y0246477D01*
X0258782Y0245338D02*
X0258782Y0250693D01*
X0260803Y0256068D02*
X0267398Y0256068D01*
X0268499Y0256068D02*
X0269064Y0256068D01*
X0270165Y0256068D02*
X0276760Y0256068D01*
X0274441Y0254470D02*
X0272839Y0254470D01*
X0269064Y0254470D02*
X0268499Y0254470D01*
X0268499Y0252871D02*
X0269064Y0252871D01*
X0269064Y0251273D02*
X0268499Y0251273D01*
X0268499Y0250410D02*
X0269064Y0250410D01*
X0269064Y0245152D01*
X0269218Y0245152D01*
X0270079Y0245289D01*
X0270908Y0245558D01*
X0271685Y0245954D01*
X0272391Y0246467D01*
X0273007Y0247083D01*
X0273520Y0247789D01*
X0273659Y0248061D01*
X0273915Y0247441D01*
X0275530Y0245826D01*
X0277640Y0244952D01*
X0279923Y0244952D01*
X0280675Y0245264D01*
X0282956Y0242983D01*
X0283875Y0242602D01*
X0287982Y0242602D01*
X0291518Y0239067D01*
X0291518Y0232949D01*
X0290824Y0232256D01*
X0290013Y0233066D01*
X0288984Y0233493D01*
X0288835Y0233493D01*
X0288648Y0233944D01*
X0287033Y0235559D01*
X0284923Y0236433D01*
X0282640Y0236433D01*
X0280530Y0235559D01*
X0278915Y0233944D01*
X0278782Y0233621D01*
X0278648Y0233944D01*
X0277033Y0235559D01*
X0274923Y0236433D01*
X0272640Y0236433D01*
X0270530Y0235559D01*
X0268915Y0233944D01*
X0268782Y0233621D01*
X0268648Y0233944D01*
X0267033Y0235559D01*
X0265193Y0236321D01*
X0265584Y0236321D01*
X0267799Y0238536D01*
X0267799Y0241668D01*
X0265584Y0243883D01*
X0264196Y0243883D01*
X0262143Y0245936D01*
X0263648Y0247441D01*
X0263905Y0248061D01*
X0264043Y0247789D01*
X0264556Y0247083D01*
X0265172Y0246467D01*
X0265878Y0245954D01*
X0266655Y0245558D01*
X0267484Y0245289D01*
X0268346Y0245152D01*
X0268499Y0245152D01*
X0268499Y0250410D01*
X0268499Y0249674D02*
X0269064Y0249674D01*
X0269064Y0248076D02*
X0268499Y0248076D01*
X0268499Y0246477D02*
X0269064Y0246477D01*
X0272401Y0246477D02*
X0274879Y0246477D01*
X0281060Y0244879D02*
X0263201Y0244879D01*
X0262684Y0246477D02*
X0265162Y0246477D01*
X0266187Y0243280D02*
X0282658Y0243280D01*
X0284934Y0248076D02*
X0306939Y0248076D01*
X0306939Y0249674D02*
X0284522Y0249674D01*
X0284522Y0251273D02*
X0306939Y0251273D01*
X0306939Y0252871D02*
X0284092Y0252871D01*
X0283122Y0254470D02*
X0306939Y0254470D01*
X0306939Y0256068D02*
X0280803Y0256068D01*
X0291178Y0246477D02*
X0306939Y0246477D01*
X0306939Y0244879D02*
X0292777Y0244879D01*
X0294375Y0243280D02*
X0306939Y0243280D01*
X0306939Y0241682D02*
X0295974Y0241682D01*
X0296518Y0240083D02*
X0306939Y0240083D01*
X0306939Y0238485D02*
X0296518Y0238485D01*
X0296518Y0236886D02*
X0306939Y0236886D01*
X0306939Y0235288D02*
X0296518Y0235288D01*
X0296518Y0233689D02*
X0306939Y0233689D01*
X0306939Y0232091D02*
X0297376Y0232091D01*
X0297799Y0230492D02*
X0306939Y0230492D01*
X0306939Y0228894D02*
X0297799Y0228894D01*
X0296558Y0227295D02*
X0306939Y0227295D01*
X0306939Y0225697D02*
X0297383Y0225697D01*
X0298982Y0224098D02*
X0306939Y0224098D01*
X0306939Y0222500D02*
X0300580Y0222500D01*
X0302179Y0220901D02*
X0306939Y0220901D01*
X0306939Y0219303D02*
X0303777Y0219303D01*
X0306763Y0217704D02*
X0306939Y0217704D01*
X0304018Y0215102D02*
X0288427Y0230693D01*
X0283782Y0230693D01*
X0280259Y0235288D02*
X0277304Y0235288D01*
X0278753Y0233689D02*
X0278810Y0233689D01*
X0273782Y0230693D02*
X0284018Y0220456D01*
X0284018Y0215102D01*
X0276018Y0207102D01*
X0275018Y0207102D01*
X0272536Y0209712D02*
X0258413Y0209712D01*
X0256938Y0208113D02*
X0256814Y0208113D01*
X0259018Y0205102D02*
X0259018Y0195102D01*
X0254018Y0190102D01*
X0254018Y0185449D01*
X0253518Y0184949D01*
X0248830Y0181296D02*
X0248765Y0181052D01*
X0248765Y0178735D01*
X0253038Y0178735D01*
X0253038Y0177776D01*
X0248765Y0177776D01*
X0248765Y0175460D01*
X0248888Y0175002D01*
X0249125Y0174591D01*
X0249460Y0174256D01*
X0249870Y0174019D01*
X0250328Y0173897D01*
X0253038Y0173897D01*
X0253038Y0177776D01*
X0253997Y0177776D01*
X0253997Y0173897D01*
X0256708Y0173897D01*
X0257165Y0174019D01*
X0257266Y0174077D01*
X0258040Y0173303D01*
X0259218Y0173303D01*
X0259218Y0166545D01*
X0259644Y0165516D01*
X0260237Y0164923D01*
X0260237Y0163536D01*
X0260871Y0162902D01*
X0210178Y0162902D01*
X0186818Y0186262D01*
X0186818Y0186955D01*
X0187452Y0186321D01*
X0190584Y0186321D01*
X0192799Y0188536D01*
X0192799Y0191668D01*
X0191818Y0192649D01*
X0191818Y0199087D01*
X0192131Y0199003D01*
X0195038Y0199003D01*
X0195038Y0202882D01*
X0195997Y0202882D01*
X0195997Y0199003D01*
X0198904Y0199003D01*
X0199362Y0199126D01*
X0199773Y0199362D01*
X0200108Y0199698D01*
X0200345Y0200108D01*
X0200467Y0200566D01*
X0200467Y0202882D01*
X0195997Y0202882D01*
X0195997Y0203841D01*
X0200467Y0203841D01*
X0200467Y0206158D01*
X0200345Y0206616D01*
X0200156Y0206943D01*
X0200518Y0207305D01*
X0200518Y0197555D01*
X0201051Y0196269D01*
X0204667Y0192652D01*
X0204667Y0191306D01*
X0205048Y0190387D01*
X0208602Y0186833D01*
X0209521Y0186452D01*
X0216933Y0186452D01*
X0217615Y0185771D01*
X0219663Y0185771D01*
X0222099Y0183336D01*
X0222802Y0182632D01*
X0223721Y0182252D01*
X0224933Y0182252D01*
X0225615Y0181571D01*
X0230421Y0181571D01*
X0231593Y0182742D01*
X0231593Y0185842D01*
X0232443Y0184992D01*
X0232443Y0182742D01*
X0233615Y0181571D01*
X0238421Y0181571D01*
X0239593Y0182742D01*
X0239593Y0186761D01*
X0238752Y0187602D01*
X0241427Y0187602D01*
X0241605Y0187423D01*
X0240943Y0186761D01*
X0240943Y0182742D01*
X0242115Y0181571D01*
X0246921Y0181571D01*
X0248093Y0182742D01*
X0248093Y0186408D01*
X0248565Y0186880D01*
X0248565Y0181561D01*
X0248830Y0181296D01*
X0248765Y0180938D02*
X0247333Y0180938D01*
X0247198Y0181074D02*
X0246787Y0181311D01*
X0246330Y0181434D01*
X0244518Y0181434D01*
X0244518Y0178453D01*
X0244518Y0178453D01*
X0247893Y0178453D01*
X0247893Y0179871D01*
X0247770Y0180328D01*
X0247533Y0180739D01*
X0247198Y0181074D01*
X0247887Y0182537D02*
X0248565Y0182537D01*
X0248565Y0184135D02*
X0248093Y0184135D01*
X0248093Y0185734D02*
X0248565Y0185734D01*
X0244518Y0181434D02*
X0242706Y0181434D01*
X0242248Y0181311D01*
X0241838Y0181074D01*
X0241503Y0180739D01*
X0241266Y0180328D01*
X0241143Y0179871D01*
X0241143Y0178453D01*
X0244518Y0178453D01*
X0244518Y0178452D01*
X0244518Y0175471D01*
X0246330Y0175471D01*
X0246787Y0175594D01*
X0247198Y0175831D01*
X0247533Y0176166D01*
X0247770Y0176577D01*
X0247893Y0177034D01*
X0247893Y0178452D01*
X0244518Y0178452D01*
X0244518Y0178452D01*
X0244518Y0175471D01*
X0242706Y0175471D01*
X0242248Y0175594D01*
X0241838Y0175831D01*
X0241503Y0176166D01*
X0241266Y0176577D01*
X0241143Y0177034D01*
X0241143Y0178452D01*
X0244518Y0178452D01*
X0244518Y0178453D01*
X0244518Y0181434D01*
X0244518Y0180938D02*
X0244518Y0180938D01*
X0244518Y0179340D02*
X0244518Y0179340D01*
X0244518Y0177741D02*
X0244518Y0177741D01*
X0244518Y0176143D02*
X0244518Y0176143D01*
X0247510Y0176143D02*
X0248765Y0176143D01*
X0248765Y0177741D02*
X0247893Y0177741D01*
X0247893Y0179340D02*
X0248765Y0179340D01*
X0249172Y0174544D02*
X0198535Y0174544D01*
X0196937Y0176143D02*
X0225026Y0176143D01*
X0225003Y0176166D02*
X0225338Y0175831D01*
X0225748Y0175594D01*
X0226206Y0175471D01*
X0228018Y0175471D01*
X0229830Y0175471D01*
X0230287Y0175594D01*
X0230698Y0175831D01*
X0231033Y0176166D01*
X0231270Y0176577D01*
X0231393Y0177034D01*
X0231393Y0178452D01*
X0228018Y0178452D01*
X0228018Y0175471D01*
X0228018Y0178452D01*
X0228018Y0178452D01*
X0228018Y0178453D01*
X0228018Y0178453D01*
X0228018Y0181434D01*
X0229830Y0181434D01*
X0230287Y0181311D01*
X0230698Y0181074D01*
X0231033Y0180739D01*
X0231270Y0180328D01*
X0231393Y0179871D01*
X0231393Y0178453D01*
X0228018Y0178453D01*
X0228018Y0181434D01*
X0226206Y0181434D01*
X0225748Y0181311D01*
X0225338Y0181074D01*
X0225003Y0180739D01*
X0224766Y0180328D01*
X0224643Y0179871D01*
X0224643Y0178453D01*
X0228018Y0178453D01*
X0228018Y0178452D01*
X0224643Y0178452D01*
X0224643Y0177034D01*
X0224766Y0176577D01*
X0225003Y0176166D01*
X0224643Y0177741D02*
X0195338Y0177741D01*
X0193740Y0179340D02*
X0224643Y0179340D01*
X0225202Y0180938D02*
X0192141Y0180938D01*
X0190543Y0182537D02*
X0223033Y0182537D01*
X0221299Y0184135D02*
X0188944Y0184135D01*
X0187346Y0185734D02*
X0219701Y0185734D01*
X0220018Y0195252D02*
X0224018Y0199252D01*
X0228018Y0199252D01*
X0219518Y0207752D01*
X0219518Y0208252D02*
X0219518Y0210102D01*
X0223364Y0213949D01*
X0235018Y0213949D01*
X0236171Y0213949D02*
X0240018Y0210102D01*
X0240018Y0200102D01*
X0243868Y0200102D01*
X0246018Y0197952D01*
X0249593Y0198522D02*
X0251518Y0198522D01*
X0251518Y0200120D02*
X0249434Y0200120D01*
X0249593Y0199962D02*
X0248453Y0201102D01*
X0249593Y0202242D01*
X0249593Y0204291D01*
X0251068Y0205766D01*
X0251518Y0205317D01*
X0251518Y0196138D01*
X0248607Y0193227D01*
X0248521Y0193227D01*
X0247602Y0192846D01*
X0246983Y0192228D01*
X0245509Y0193702D01*
X0242527Y0193702D01*
X0241427Y0192602D01*
X0231904Y0192602D01*
X0231593Y0192913D01*
X0231593Y0194962D01*
X0230453Y0196102D01*
X0231593Y0197242D01*
X0231593Y0201261D01*
X0230421Y0202433D01*
X0228796Y0202433D01*
X0222318Y0208911D01*
X0222318Y0208942D01*
X0223724Y0210349D01*
X0224855Y0210349D01*
X0225655Y0211149D01*
X0230065Y0211149D01*
X0230065Y0210561D01*
X0230330Y0210296D01*
X0230265Y0210052D01*
X0230265Y0207735D01*
X0234538Y0207735D01*
X0234538Y0206776D01*
X0230265Y0206776D01*
X0230265Y0204460D01*
X0230388Y0204002D01*
X0230625Y0203591D01*
X0230960Y0203256D01*
X0231370Y0203019D01*
X0231828Y0202897D01*
X0234538Y0202897D01*
X0234538Y0206776D01*
X0235497Y0206776D01*
X0235497Y0202897D01*
X0237218Y0202897D01*
X0237218Y0199545D01*
X0237644Y0198516D01*
X0238432Y0197728D01*
X0239461Y0197302D01*
X0242443Y0197302D01*
X0242443Y0195943D01*
X0243615Y0194771D01*
X0248421Y0194771D01*
X0249593Y0195943D01*
X0249593Y0199962D01*
X0249069Y0201719D02*
X0251518Y0201719D01*
X0251518Y0203317D02*
X0249593Y0203317D01*
X0250218Y0204916D02*
X0251518Y0204916D01*
X0247942Y0209712D02*
X0242818Y0209712D01*
X0242818Y0208113D02*
X0246344Y0208113D01*
X0246120Y0212909D02*
X0241171Y0212909D01*
X0239971Y0214507D02*
X0245418Y0214507D01*
X0244055Y0216106D02*
X0239971Y0216106D01*
X0242548Y0211310D02*
X0250019Y0211310D01*
X0252117Y0211310D02*
X0252940Y0211310D01*
X0251915Y0212909D02*
X0254539Y0212909D01*
X0256137Y0214507D02*
X0252618Y0214507D01*
X0252618Y0216106D02*
X0257736Y0216106D01*
X0259334Y0217704D02*
X0251818Y0217704D01*
X0251818Y0219303D02*
X0260933Y0219303D01*
X0262531Y0220901D02*
X0251818Y0220901D01*
X0251818Y0222500D02*
X0264523Y0222500D01*
X0266720Y0225697D02*
X0270843Y0225697D01*
X0269061Y0227295D02*
X0268502Y0227295D01*
X0271711Y0222500D02*
X0278015Y0222500D01*
X0276416Y0224098D02*
X0251818Y0224098D01*
X0249018Y0225929D02*
X0253782Y0230693D01*
X0257304Y0235288D02*
X0260259Y0235288D01*
X0258810Y0233689D02*
X0258753Y0233689D01*
X0261886Y0236886D02*
X0236171Y0236886D01*
X0237304Y0235288D02*
X0240681Y0235288D01*
X0239111Y0233689D02*
X0238753Y0233689D01*
X0233782Y0235338D02*
X0233782Y0230693D01*
X0233782Y0235338D02*
X0229018Y0240102D01*
X0209018Y0240102D01*
X0189018Y0220102D01*
X0189018Y0190102D01*
X0191595Y0187332D02*
X0208102Y0187332D01*
X0206504Y0188931D02*
X0192799Y0188931D01*
X0192799Y0190529D02*
X0204989Y0190529D01*
X0204667Y0192128D02*
X0192339Y0192128D01*
X0191818Y0193726D02*
X0203593Y0193726D01*
X0201995Y0195325D02*
X0191818Y0195325D01*
X0191818Y0196923D02*
X0200780Y0196923D01*
X0200518Y0198522D02*
X0191818Y0198522D01*
X0195038Y0200120D02*
X0195997Y0200120D01*
X0195518Y0198602D02*
X0195518Y0203362D01*
X0195997Y0203317D02*
X0200518Y0203317D01*
X0200467Y0201719D02*
X0200518Y0201719D01*
X0200518Y0200120D02*
X0200348Y0200120D01*
X0195997Y0201719D02*
X0195038Y0201719D01*
X0200467Y0204916D02*
X0200518Y0204916D01*
X0200518Y0206514D02*
X0200372Y0206514D01*
X0195518Y0210842D02*
X0195518Y0216602D01*
X0209608Y0230693D01*
X0213782Y0230693D01*
X0223268Y0222902D02*
X0225597Y0225231D01*
X0227033Y0225826D01*
X0228648Y0227441D01*
X0228782Y0227764D01*
X0228915Y0227441D01*
X0230530Y0225826D01*
X0232640Y0224952D01*
X0234923Y0224952D01*
X0237033Y0225826D01*
X0238648Y0227441D01*
X0238905Y0228061D01*
X0239043Y0227789D01*
X0239556Y0227083D01*
X0240172Y0226467D01*
X0240878Y0225954D01*
X0241655Y0225558D01*
X0242484Y0225289D01*
X0243346Y0225152D01*
X0243499Y0225152D01*
X0243499Y0230410D01*
X0244064Y0230410D01*
X0244064Y0225152D01*
X0244218Y0225152D01*
X0245079Y0225289D01*
X0245908Y0225558D01*
X0246218Y0225716D01*
X0246218Y0221862D01*
X0245604Y0222476D01*
X0244575Y0222902D01*
X0223268Y0222902D01*
X0224464Y0224098D02*
X0246218Y0224098D01*
X0246218Y0222500D02*
X0245546Y0222500D01*
X0244018Y0220102D02*
X0249018Y0215102D01*
X0249018Y0225929D01*
X0246218Y0225697D02*
X0246180Y0225697D01*
X0244064Y0225697D02*
X0243499Y0225697D01*
X0243499Y0227295D02*
X0244064Y0227295D01*
X0244064Y0228894D02*
X0243499Y0228894D01*
X0243499Y0232091D02*
X0244064Y0232091D01*
X0244064Y0233689D02*
X0243499Y0233689D01*
X0243499Y0235288D02*
X0244064Y0235288D01*
X0246882Y0235288D02*
X0250259Y0235288D01*
X0248810Y0233689D02*
X0248452Y0233689D01*
X0241384Y0225697D02*
X0236720Y0225697D01*
X0238502Y0227295D02*
X0239402Y0227295D01*
X0244018Y0220102D02*
X0219018Y0220102D01*
X0214018Y0215102D01*
X0214018Y0205102D01*
X0211218Y0207649D02*
X0210237Y0206668D01*
X0210237Y0203536D01*
X0211171Y0202602D01*
X0210237Y0201668D01*
X0210237Y0198602D01*
X0208617Y0198602D01*
X0207518Y0199701D01*
X0207518Y0215723D01*
X0212396Y0220602D01*
X0215558Y0220602D01*
X0212432Y0217476D01*
X0211644Y0216688D01*
X0211218Y0215659D01*
X0211218Y0207649D01*
X0211218Y0208113D02*
X0207518Y0208113D01*
X0207518Y0209712D02*
X0211218Y0209712D01*
X0211218Y0211310D02*
X0207518Y0211310D01*
X0207518Y0212909D02*
X0211218Y0212909D01*
X0211218Y0214507D02*
X0207518Y0214507D01*
X0207900Y0216106D02*
X0211403Y0216106D01*
X0212660Y0217704D02*
X0209498Y0217704D01*
X0211097Y0219303D02*
X0214259Y0219303D01*
X0209018Y0210102D02*
X0209018Y0201102D01*
X0210287Y0201719D02*
X0207518Y0201719D01*
X0207518Y0203317D02*
X0210455Y0203317D01*
X0210237Y0204916D02*
X0207518Y0204916D01*
X0207518Y0206514D02*
X0210237Y0206514D01*
X0210237Y0200120D02*
X0207518Y0200120D01*
X0214018Y0200102D02*
X0215167Y0200102D01*
X0220018Y0195252D01*
X0227912Y0203317D02*
X0230899Y0203317D01*
X0231135Y0201719D02*
X0237218Y0201719D01*
X0237218Y0200120D02*
X0231593Y0200120D01*
X0231593Y0198522D02*
X0237642Y0198522D01*
X0234018Y0200102D02*
X0234018Y0195102D01*
X0231593Y0193726D02*
X0249107Y0193726D01*
X0248975Y0195325D02*
X0250705Y0195325D01*
X0251518Y0196923D02*
X0249593Y0196923D01*
X0243061Y0195325D02*
X0231230Y0195325D01*
X0231274Y0196923D02*
X0242443Y0196923D01*
X0235497Y0203317D02*
X0234538Y0203317D01*
X0235018Y0203256D02*
X0235018Y0207256D01*
X0234018Y0206256D01*
X0234538Y0206514D02*
X0235497Y0206514D01*
X0235497Y0204916D02*
X0234538Y0204916D01*
X0230265Y0204916D02*
X0226313Y0204916D01*
X0224715Y0206514D02*
X0230265Y0206514D01*
X0230265Y0208113D02*
X0223116Y0208113D01*
X0223087Y0209712D02*
X0230265Y0209712D01*
X0230843Y0225697D02*
X0226720Y0225697D01*
X0228502Y0227295D02*
X0229061Y0227295D01*
X0234595Y0238485D02*
X0260288Y0238485D01*
X0260077Y0240083D02*
X0232996Y0240083D01*
X0231398Y0241682D02*
X0258478Y0241682D01*
X0258782Y0245338D02*
X0264018Y0240102D01*
X0267799Y0240083D02*
X0290501Y0240083D01*
X0291518Y0238485D02*
X0267748Y0238485D01*
X0266149Y0236886D02*
X0291518Y0236886D01*
X0291518Y0235288D02*
X0287304Y0235288D01*
X0288753Y0233689D02*
X0291518Y0233689D01*
X0288903Y0241682D02*
X0267785Y0241682D01*
X0267304Y0235288D02*
X0270259Y0235288D01*
X0268810Y0233689D02*
X0268753Y0233689D01*
X0260843Y0225697D02*
X0256720Y0225697D01*
X0258502Y0227295D02*
X0259061Y0227295D01*
X0264807Y0216106D02*
X0269479Y0216106D01*
X0270418Y0214507D02*
X0263208Y0214507D01*
X0261610Y0212909D02*
X0271120Y0212909D01*
X0271418Y0208113D02*
X0266098Y0208113D01*
X0267618Y0206514D02*
X0271418Y0206514D01*
X0272113Y0204916D02*
X0267618Y0204916D01*
X0267324Y0203317D02*
X0281081Y0203317D01*
X0280968Y0203044D02*
X0280968Y0200846D01*
X0281809Y0198815D01*
X0283363Y0197261D01*
X0285394Y0196420D01*
X0294642Y0196420D01*
X0296672Y0197261D01*
X0298227Y0198815D01*
X0299068Y0200846D01*
X0299068Y0203044D01*
X0298227Y0205074D01*
X0296672Y0206628D01*
X0294642Y0207470D01*
X0285394Y0207470D01*
X0283363Y0206628D01*
X0281809Y0205074D01*
X0280968Y0203044D01*
X0280968Y0201719D02*
X0266518Y0201719D01*
X0266518Y0200120D02*
X0281268Y0200120D01*
X0282102Y0198522D02*
X0266518Y0198522D01*
X0267288Y0196923D02*
X0284177Y0196923D01*
X0285509Y0193702D02*
X0282527Y0193702D01*
X0281979Y0193154D01*
X0281979Y0193154D01*
X0280966Y0192141D01*
X0280418Y0191593D01*
X0280418Y0188611D01*
X0280966Y0188063D01*
X0280966Y0188063D01*
X0282724Y0186304D01*
X0281809Y0185389D01*
X0280968Y0183359D01*
X0280968Y0181161D01*
X0281809Y0179130D01*
X0283363Y0177576D01*
X0285394Y0176735D01*
X0294642Y0176735D01*
X0296672Y0177576D01*
X0298227Y0179130D01*
X0299068Y0181161D01*
X0299068Y0183359D01*
X0298227Y0185389D01*
X0296672Y0186943D01*
X0294642Y0187785D01*
X0291426Y0187785D01*
X0286057Y0193154D01*
X0285509Y0193702D01*
X0286057Y0193154D02*
X0286057Y0193154D01*
X0287083Y0192128D02*
X0306939Y0192128D01*
X0306939Y0193726D02*
X0267618Y0193726D01*
X0267618Y0195325D02*
X0306939Y0195325D01*
X0306939Y0196923D02*
X0295858Y0196923D01*
X0297934Y0198522D02*
X0306939Y0198522D01*
X0306939Y0200120D02*
X0298767Y0200120D01*
X0299068Y0201719D02*
X0306939Y0201719D01*
X0306939Y0203317D02*
X0298954Y0203317D01*
X0298292Y0204916D02*
X0306939Y0204916D01*
X0306939Y0206514D02*
X0296786Y0206514D01*
X0300864Y0212909D02*
X0285784Y0212909D01*
X0286802Y0214507D02*
X0300237Y0214507D01*
X0299055Y0216106D02*
X0286818Y0216106D01*
X0286818Y0217704D02*
X0297456Y0217704D01*
X0295857Y0219303D02*
X0286818Y0219303D01*
X0286818Y0220901D02*
X0294259Y0220901D01*
X0292660Y0222500D02*
X0285934Y0222500D01*
X0284336Y0224098D02*
X0291062Y0224098D01*
X0289463Y0225697D02*
X0286720Y0225697D01*
X0281212Y0219303D02*
X0273353Y0219303D01*
X0272618Y0220901D02*
X0279613Y0220901D01*
X0281218Y0217704D02*
X0276507Y0217704D01*
X0277499Y0216106D02*
X0281062Y0216106D01*
X0279463Y0214507D02*
X0277618Y0214507D01*
X0277864Y0212909D02*
X0276915Y0212909D01*
X0276266Y0211310D02*
X0260011Y0211310D01*
X0261098Y0208113D02*
X0261938Y0208113D01*
X0277923Y0204916D02*
X0281743Y0204916D01*
X0283249Y0206514D02*
X0279390Y0206514D01*
X0280989Y0208113D02*
X0306939Y0208113D01*
X0306939Y0209712D02*
X0282587Y0209712D01*
X0284186Y0211310D02*
X0306939Y0211310D01*
X0306939Y0190529D02*
X0288682Y0190529D01*
X0290280Y0188931D02*
X0306939Y0188931D01*
X0306939Y0187332D02*
X0295733Y0187332D01*
X0297882Y0185734D02*
X0306939Y0185734D01*
X0306939Y0184135D02*
X0298746Y0184135D01*
X0299068Y0182537D02*
X0306939Y0182537D01*
X0306939Y0180938D02*
X0298976Y0180938D01*
X0298314Y0179340D02*
X0306939Y0179340D01*
X0306939Y0177741D02*
X0296838Y0177741D01*
X0306939Y0176143D02*
X0267167Y0176143D01*
X0267167Y0177741D02*
X0283198Y0177741D01*
X0281722Y0179340D02*
X0267167Y0179340D01*
X0267167Y0180938D02*
X0281060Y0180938D01*
X0280968Y0182537D02*
X0266965Y0182537D01*
X0266967Y0184135D02*
X0281290Y0184135D01*
X0282154Y0185734D02*
X0262497Y0185734D01*
X0262497Y0187332D02*
X0261538Y0187332D01*
X0261538Y0188931D02*
X0262497Y0188931D01*
X0261901Y0192128D02*
X0260003Y0192128D01*
X0258405Y0190529D02*
X0280418Y0190529D01*
X0280418Y0188931D02*
X0266651Y0188931D01*
X0266967Y0187332D02*
X0281696Y0187332D01*
X0280952Y0192128D02*
X0266135Y0192128D01*
X0280966Y0192141D02*
X0280966Y0192141D01*
X0267167Y0174544D02*
X0306939Y0174544D01*
X0306939Y0172946D02*
X0264818Y0172946D01*
X0264818Y0171347D02*
X0306939Y0171347D01*
X0306939Y0169749D02*
X0264818Y0169749D01*
X0266317Y0168150D02*
X0306939Y0168150D01*
X0306939Y0166552D02*
X0296749Y0166552D01*
X0296672Y0166628D02*
X0294642Y0167470D01*
X0285394Y0167470D01*
X0283363Y0166628D01*
X0281809Y0165074D01*
X0280968Y0163044D01*
X0280968Y0160846D01*
X0281809Y0158815D01*
X0283363Y0157261D01*
X0285394Y0156420D01*
X0294642Y0156420D01*
X0296672Y0157261D01*
X0298227Y0158815D01*
X0299068Y0160846D01*
X0299068Y0163044D01*
X0298227Y0165074D01*
X0296672Y0166628D01*
X0298277Y0164953D02*
X0306939Y0164953D01*
X0306939Y0163355D02*
X0298939Y0163355D01*
X0299068Y0161756D02*
X0306939Y0161756D01*
X0306939Y0160158D02*
X0298783Y0160158D01*
X0297971Y0158559D02*
X0306939Y0158559D01*
X0306939Y0156961D02*
X0295948Y0156961D01*
X0287269Y0148968D02*
X0306939Y0148968D01*
X0306939Y0147370D02*
X0295644Y0147370D01*
X0297845Y0145771D02*
X0306939Y0145771D01*
X0306939Y0144173D02*
X0298731Y0144173D01*
X0299068Y0142574D02*
X0306939Y0142574D01*
X0306939Y0140976D02*
X0298991Y0140976D01*
X0298329Y0139377D02*
X0306939Y0139377D01*
X0306939Y0137779D02*
X0296875Y0137779D01*
X0290018Y0142260D02*
X0272175Y0160102D01*
X0209018Y0160102D01*
X0184018Y0185102D01*
X0184018Y0235102D01*
X0186518Y0241682D02*
X0197091Y0241682D01*
X0195492Y0243280D02*
X0186518Y0243280D01*
X0186518Y0244879D02*
X0195237Y0244879D01*
X0193683Y0246477D02*
X0186154Y0246477D01*
X0184580Y0248076D02*
X0192084Y0248076D01*
X0190486Y0249674D02*
X0182981Y0249674D01*
X0181581Y0251273D02*
X0188887Y0251273D01*
X0187289Y0252871D02*
X0181518Y0252871D01*
X0182120Y0254470D02*
X0185690Y0254470D01*
X0184092Y0256068D02*
X0182593Y0256068D01*
X0187216Y0260864D02*
X0306939Y0260864D01*
X0306939Y0262462D02*
X0185617Y0262462D01*
X0184019Y0264061D02*
X0306939Y0264061D01*
X0306939Y0265659D02*
X0183518Y0265659D01*
X0183518Y0267258D02*
X0194190Y0267258D01*
X0192591Y0268856D02*
X0183518Y0268856D01*
X0183518Y0270455D02*
X0191770Y0270455D01*
X0191118Y0272053D02*
X0183494Y0272053D01*
X0182832Y0273652D02*
X0191118Y0273652D01*
X0191150Y0275250D02*
X0180762Y0275250D01*
X0177274Y0275250D02*
X0166569Y0275250D01*
X0168168Y0273652D02*
X0175204Y0273652D01*
X0174541Y0272053D02*
X0174167Y0272053D01*
X0174167Y0270455D02*
X0174518Y0270455D01*
X0174518Y0268856D02*
X0174167Y0268856D01*
X0174167Y0267258D02*
X0174518Y0267258D01*
X0174518Y0265659D02*
X0174167Y0265659D01*
X0174167Y0264061D02*
X0174518Y0264061D01*
X0174518Y0262462D02*
X0174167Y0262462D01*
X0174167Y0260864D02*
X0175136Y0260864D01*
X0175746Y0259265D02*
X0174167Y0259265D01*
X0173860Y0257667D02*
X0175443Y0257667D01*
X0175443Y0256068D02*
X0116818Y0256068D01*
X0116818Y0254470D02*
X0175916Y0254470D01*
X0179018Y0263252D02*
X0180868Y0263252D01*
X0199018Y0245102D01*
X0190413Y0257667D02*
X0306939Y0257667D01*
X0306939Y0259265D02*
X0188814Y0259265D01*
X0203846Y0267258D02*
X0294190Y0267258D01*
X0292591Y0268856D02*
X0205444Y0268856D01*
X0206265Y0270455D02*
X0291770Y0270455D01*
X0291118Y0272053D02*
X0206918Y0272053D01*
X0206918Y0273652D02*
X0291118Y0273652D01*
X0291150Y0275250D02*
X0206886Y0275250D01*
X0206224Y0276849D02*
X0291812Y0276849D01*
X0292691Y0278448D02*
X0205345Y0278448D01*
X0203746Y0280046D02*
X0294289Y0280046D01*
X0303746Y0280046D02*
X0306939Y0280046D01*
X0306939Y0278448D02*
X0305345Y0278448D01*
X0306224Y0276849D02*
X0306939Y0276849D01*
X0306886Y0275250D02*
X0306939Y0275250D01*
X0306918Y0273652D02*
X0306939Y0273652D01*
X0306918Y0272053D02*
X0306939Y0272053D01*
X0306939Y0270455D02*
X0306265Y0270455D01*
X0306939Y0268856D02*
X0305444Y0268856D01*
X0306939Y0267258D02*
X0303846Y0267258D01*
X0264724Y0254470D02*
X0263122Y0254470D01*
X0244724Y0254470D02*
X0243122Y0254470D01*
X0242684Y0246477D02*
X0245162Y0246477D01*
X0234879Y0246477D02*
X0232684Y0246477D01*
X0224879Y0246477D02*
X0222684Y0246477D01*
X0191812Y0276849D02*
X0164971Y0276849D01*
X0162758Y0275102D02*
X0129018Y0275102D01*
X0114018Y0260102D01*
X0114018Y0250102D01*
X0109018Y0250102D02*
X0107758Y0250102D01*
X0102758Y0255102D01*
X0107350Y0254470D02*
X0111218Y0254470D01*
X0111218Y0256068D02*
X0107317Y0256068D01*
X0107317Y0257667D02*
X0111218Y0257667D01*
X0111218Y0259265D02*
X0107132Y0259265D01*
X0111303Y0260864D02*
X0021018Y0260864D01*
X0021018Y0262462D02*
X0112418Y0262462D01*
X0114017Y0264061D02*
X0021018Y0264061D01*
X0021018Y0265659D02*
X0115615Y0265659D01*
X0117214Y0267258D02*
X0021018Y0267258D01*
X0021018Y0268856D02*
X0118812Y0268856D01*
X0120411Y0270455D02*
X0021018Y0270455D01*
X0021018Y0272053D02*
X0122009Y0272053D01*
X0123608Y0273652D02*
X0021018Y0273652D01*
X0021018Y0275250D02*
X0125206Y0275250D01*
X0126805Y0276849D02*
X0021018Y0276849D01*
X0021018Y0278448D02*
X0192691Y0278448D01*
X0194289Y0280046D02*
X0021018Y0280046D01*
X0021018Y0259265D02*
X0084762Y0259265D01*
X0080265Y0257667D02*
X0079503Y0257667D01*
X0079503Y0256068D02*
X0080265Y0256068D01*
X0079884Y0255102D02*
X0079018Y0255968D01*
X0079503Y0254470D02*
X0080265Y0254470D01*
X0080265Y0252871D02*
X0079503Y0252871D01*
X0079503Y0251273D02*
X0080265Y0251273D01*
X0083305Y0251273D02*
X0084428Y0251273D01*
X0080265Y0248076D02*
X0079503Y0248076D01*
X0079503Y0246477D02*
X0080265Y0246477D01*
X0079503Y0244879D02*
X0057238Y0244879D01*
X0057049Y0244339D02*
X0057431Y0245431D01*
X0057688Y0246559D01*
X0057793Y0247487D01*
X0048318Y0247487D01*
X0048318Y0249087D01*
X0057793Y0249087D01*
X0057688Y0250015D01*
X0057431Y0251143D01*
X0057049Y0252235D01*
X0056547Y0253277D01*
X0055931Y0254257D01*
X0055210Y0255161D01*
X0054392Y0255979D01*
X0053487Y0256701D01*
X0052508Y0257316D01*
X0051466Y0257818D01*
X0050374Y0258200D01*
X0049246Y0258458D01*
X0048318Y0258562D01*
X0048318Y0249087D01*
X0046718Y0249087D01*
X0046718Y0258562D01*
X0045790Y0258458D01*
X0044662Y0258200D01*
X0043570Y0257818D01*
X0042528Y0257316D01*
X0041548Y0256701D01*
X0040644Y0255979D01*
X0039826Y0255161D01*
X0039104Y0254257D01*
X0038489Y0253277D01*
X0037987Y0252235D01*
X0037605Y0251143D01*
X0037347Y0250015D01*
X0037243Y0249087D01*
X0046718Y0249087D01*
X0046718Y0247487D01*
X0048318Y0247487D01*
X0048318Y0238012D01*
X0049246Y0238117D01*
X0050374Y0238374D01*
X0051466Y0238756D01*
X0052508Y0239258D01*
X0053487Y0239874D01*
X0054392Y0240595D01*
X0055210Y0241413D01*
X0055931Y0242317D01*
X0056547Y0243297D01*
X0057049Y0244339D01*
X0056536Y0243280D02*
X0075722Y0243280D01*
X0076054Y0241682D02*
X0055424Y0241682D01*
X0053750Y0240083D02*
X0091759Y0240083D01*
X0084019Y0241682D02*
X0083714Y0241682D01*
X0080265Y0241682D02*
X0079503Y0241682D01*
X0079503Y0243280D02*
X0080265Y0243280D01*
X0075722Y0246477D02*
X0057670Y0246477D01*
X0057727Y0249674D02*
X0091313Y0249674D01*
X0076463Y0251273D02*
X0057385Y0251273D01*
X0056742Y0252871D02*
X0075722Y0252871D01*
X0075722Y0254470D02*
X0055761Y0254470D01*
X0054280Y0256068D02*
X0075722Y0256068D01*
X0075722Y0257667D02*
X0051780Y0257667D01*
X0048318Y0257667D02*
X0046718Y0257667D01*
X0046718Y0256068D02*
X0048318Y0256068D01*
X0048318Y0254470D02*
X0046718Y0254470D01*
X0046718Y0252871D02*
X0048318Y0252871D01*
X0048318Y0251273D02*
X0046718Y0251273D01*
X0046718Y0249674D02*
X0048318Y0249674D01*
X0048318Y0248076D02*
X0075822Y0248076D01*
X0071193Y0238485D02*
X0070043Y0238485D01*
X0070043Y0236886D02*
X0071193Y0236886D01*
X0071193Y0232091D02*
X0070043Y0232091D01*
X0064674Y0232091D02*
X0054941Y0232091D01*
X0056278Y0230492D02*
X0101399Y0230492D01*
X0100368Y0232091D02*
X0076561Y0232091D01*
X0076568Y0233689D02*
X0100368Y0233689D01*
X0100368Y0220901D02*
X0076768Y0220901D01*
X0076768Y0219303D02*
X0100368Y0219303D01*
X0100368Y0217704D02*
X0076768Y0217704D01*
X0076974Y0216106D02*
X0100368Y0216106D01*
X0100368Y0214507D02*
X0078573Y0214507D01*
X0080171Y0212909D02*
X0101283Y0212909D01*
X0101150Y0203317D02*
X0111886Y0203317D01*
X0110287Y0201719D02*
X0102748Y0201719D01*
X0099018Y0200102D02*
X0094018Y0195102D01*
X0094018Y0193449D01*
X0093624Y0193842D01*
X0093478Y0198522D02*
X0090667Y0198522D01*
X0089777Y0200120D02*
X0095076Y0200120D01*
X0095287Y0201719D02*
X0088318Y0201719D01*
X0088318Y0203317D02*
X0096886Y0203317D01*
X0088004Y0204916D02*
X0120218Y0204916D01*
X0120218Y0206514D02*
X0086565Y0206514D01*
X0084967Y0208113D02*
X0120218Y0208113D01*
X0120218Y0209712D02*
X0083368Y0209712D01*
X0081770Y0211310D02*
X0118850Y0211310D01*
X0119018Y0215102D02*
X0114018Y0215102D01*
X0112668Y0219303D02*
X0126218Y0219303D01*
X0126218Y0220901D02*
X0112668Y0220901D01*
X0116150Y0203317D02*
X0120218Y0203317D01*
X0119287Y0201719D02*
X0117748Y0201719D01*
X0089018Y0184862D02*
X0089018Y0180102D01*
X0089018Y0184862D02*
X0085518Y0188362D01*
X0085518Y0195842D02*
X0085518Y0203602D01*
X0074018Y0215102D01*
X0070418Y0215102D01*
X0064668Y0233689D02*
X0052888Y0233689D01*
X0050690Y0238485D02*
X0064774Y0238485D01*
X0064668Y0236886D02*
X0029814Y0236886D01*
X0029814Y0235288D02*
X0028214Y0235288D01*
X0028214Y0233689D02*
X0029814Y0233689D01*
X0029814Y0232091D02*
X0028214Y0232091D01*
X0028214Y0230492D02*
X0029814Y0230492D01*
X0029814Y0228894D02*
X0028214Y0228894D01*
X0028214Y0227295D02*
X0029814Y0227295D01*
X0037018Y0224098D02*
X0021018Y0224098D01*
X0021018Y0222500D02*
X0037228Y0222500D01*
X0037656Y0220901D02*
X0021018Y0220901D01*
X0021018Y0219303D02*
X0038489Y0219303D01*
X0039630Y0217704D02*
X0021018Y0217704D01*
X0021018Y0216106D02*
X0041343Y0216106D01*
X0044859Y0214507D02*
X0021018Y0214507D01*
X0028214Y0238485D02*
X0029814Y0238485D01*
X0029814Y0240083D02*
X0028214Y0240083D01*
X0028214Y0241682D02*
X0029814Y0241682D01*
X0029814Y0243280D02*
X0028214Y0243280D01*
X0028214Y0244879D02*
X0029814Y0244879D01*
X0029814Y0246477D02*
X0028214Y0246477D01*
X0026544Y0246477D02*
X0021018Y0246477D01*
X0021018Y0244879D02*
X0023031Y0244879D01*
X0021266Y0243280D02*
X0021018Y0243280D01*
X0021018Y0248076D02*
X0046718Y0248076D01*
X0046718Y0247487D02*
X0037243Y0247487D01*
X0037347Y0246559D01*
X0037605Y0245431D01*
X0037987Y0244339D01*
X0038489Y0243297D01*
X0039104Y0242317D01*
X0039826Y0241413D01*
X0040644Y0240595D01*
X0041548Y0239874D01*
X0042528Y0239258D01*
X0043570Y0238756D01*
X0044662Y0238374D01*
X0045790Y0238117D01*
X0046718Y0238012D01*
X0046718Y0247487D01*
X0046718Y0246477D02*
X0048318Y0246477D01*
X0048318Y0244879D02*
X0046718Y0244879D01*
X0046718Y0243280D02*
X0048318Y0243280D01*
X0048318Y0241682D02*
X0046718Y0241682D01*
X0046718Y0240083D02*
X0048318Y0240083D01*
X0048318Y0238485D02*
X0046718Y0238485D01*
X0044346Y0238485D02*
X0039120Y0238485D01*
X0038664Y0240083D02*
X0041285Y0240083D01*
X0039611Y0241682D02*
X0037907Y0241682D01*
X0038499Y0243280D02*
X0036762Y0243280D01*
X0037798Y0244879D02*
X0034997Y0244879D01*
X0037366Y0246477D02*
X0031484Y0246477D01*
X0037309Y0249674D02*
X0021018Y0249674D01*
X0021018Y0251273D02*
X0037650Y0251273D01*
X0038293Y0252871D02*
X0021018Y0252871D01*
X0021018Y0254470D02*
X0039274Y0254470D01*
X0040755Y0256068D02*
X0021018Y0256068D01*
X0021018Y0257667D02*
X0043256Y0257667D01*
X0116818Y0257667D02*
X0159945Y0257667D01*
X0157900Y0259265D02*
X0117141Y0259265D01*
X0118739Y0260864D02*
X0156651Y0260864D01*
X0156518Y0262462D02*
X0120338Y0262462D01*
X0121936Y0264061D02*
X0129022Y0264061D01*
X0128514Y0265659D02*
X0123535Y0265659D01*
X0125133Y0267258D02*
X0128514Y0267258D01*
X0128514Y0268856D02*
X0126732Y0268856D01*
X0128330Y0270455D02*
X0128514Y0270455D01*
X0139014Y0264061D02*
X0139305Y0264061D01*
X0143322Y0264061D02*
X0144714Y0264061D01*
X0144714Y0265659D02*
X0143322Y0265659D01*
X0143322Y0267258D02*
X0144714Y0267258D01*
X0148731Y0264061D02*
X0149022Y0264061D01*
X0162758Y0275102D02*
X0169018Y0268842D01*
X0167758Y0270102D01*
X0154714Y0235288D02*
X0153322Y0235288D01*
X0153322Y0233689D02*
X0154714Y0233689D01*
X0154714Y0232091D02*
X0171938Y0232091D01*
X0166120Y0227295D02*
X0158476Y0227295D01*
X0154714Y0227295D02*
X0153322Y0227295D01*
X0153322Y0228894D02*
X0154714Y0228894D01*
X0154714Y0230492D02*
X0153322Y0230492D01*
X0152618Y0225697D02*
X0165418Y0225697D01*
X0165418Y0224098D02*
X0151605Y0224098D01*
X0149018Y0226602D02*
X0141778Y0226602D01*
X0158322Y0222500D02*
X0159714Y0222500D01*
X0159714Y0220901D02*
X0158322Y0220901D01*
X0158322Y0219303D02*
X0159714Y0219303D01*
X0159714Y0216106D02*
X0158322Y0216106D01*
X0158322Y0214507D02*
X0159714Y0214507D01*
X0162981Y0190529D02*
X0181218Y0190529D01*
X0181218Y0188931D02*
X0161518Y0188931D01*
X0161518Y0187332D02*
X0181218Y0187332D01*
X0181218Y0185734D02*
X0174065Y0185734D01*
X0174322Y0184135D02*
X0181388Y0184135D01*
X0182623Y0182537D02*
X0174322Y0182537D01*
X0174322Y0180938D02*
X0184222Y0180938D01*
X0185820Y0179340D02*
X0174322Y0179340D01*
X0173976Y0177741D02*
X0187419Y0177741D01*
X0189017Y0176143D02*
X0157758Y0176143D01*
X0156160Y0174544D02*
X0190616Y0174544D01*
X0192214Y0172946D02*
X0154561Y0172946D01*
X0152317Y0166552D02*
X0176508Y0166552D01*
X0174909Y0164953D02*
X0151146Y0164953D01*
X0147758Y0170102D02*
X0159018Y0181362D01*
X0159018Y0181815D01*
X0156518Y0187332D02*
X0147036Y0187332D01*
X0168322Y0185734D02*
X0169714Y0185734D01*
X0169714Y0184135D02*
X0168322Y0184135D01*
X0168322Y0182537D02*
X0169714Y0182537D01*
X0169714Y0180938D02*
X0168322Y0180938D01*
X0168322Y0179340D02*
X0169714Y0179340D01*
X0169714Y0177741D02*
X0168322Y0177741D01*
X0173311Y0163355D02*
X0143078Y0163355D01*
X0143078Y0161756D02*
X0171712Y0161756D01*
X0170114Y0160158D02*
X0143078Y0160158D01*
X0143078Y0158559D02*
X0168515Y0158559D01*
X0166917Y0156961D02*
X0142728Y0156961D01*
X0141238Y0155362D02*
X0166218Y0155362D01*
X0166218Y0153764D02*
X0139639Y0153764D01*
X0138041Y0152165D02*
X0166218Y0152165D01*
X0166218Y0150567D02*
X0136442Y0150567D01*
X0136690Y0148968D02*
X0166218Y0148968D01*
X0166218Y0147370D02*
X0136818Y0147370D01*
X0136818Y0145771D02*
X0166218Y0145771D01*
X0166218Y0144173D02*
X0156736Y0144173D01*
X0156006Y0144902D02*
X0158818Y0142090D01*
X0158818Y0140302D01*
X0154218Y0140302D01*
X0154218Y0139902D01*
X0158818Y0139902D01*
X0158818Y0138114D01*
X0156006Y0135302D01*
X0154218Y0135302D01*
X0154218Y0139902D01*
X0153818Y0139902D01*
X0153818Y0135302D01*
X0152030Y0135302D01*
X0149218Y0138114D01*
X0149218Y0139902D01*
X0153818Y0139902D01*
X0153818Y0140302D01*
X0153818Y0144902D01*
X0152030Y0144902D01*
X0149218Y0142090D01*
X0149218Y0140302D01*
X0153818Y0140302D01*
X0154218Y0140302D01*
X0154218Y0144902D01*
X0156006Y0144902D01*
X0154218Y0144173D02*
X0153818Y0144173D01*
X0153818Y0142574D02*
X0154218Y0142574D01*
X0154218Y0140976D02*
X0153818Y0140976D01*
X0153818Y0139377D02*
X0154218Y0139377D01*
X0154218Y0137779D02*
X0153818Y0137779D01*
X0153818Y0136180D02*
X0154218Y0136180D01*
X0156884Y0136180D02*
X0166218Y0136180D01*
X0166218Y0134581D02*
X0142386Y0134581D01*
X0142799Y0132983D02*
X0166218Y0132983D01*
X0166218Y0131384D02*
X0144195Y0131384D01*
X0146298Y0129786D02*
X0152253Y0129786D01*
X0153932Y0129786D02*
X0154104Y0129786D01*
X0154104Y0128187D02*
X0153932Y0128187D01*
X0153932Y0126589D02*
X0154104Y0126589D01*
X0155783Y0129786D02*
X0166218Y0129786D01*
X0166218Y0128187D02*
X0157956Y0128187D01*
X0158792Y0126589D02*
X0166218Y0126589D01*
X0166218Y0124990D02*
X0159018Y0124990D01*
X0158719Y0123392D02*
X0166218Y0123392D01*
X0166218Y0121793D02*
X0157780Y0121793D01*
X0155311Y0120195D02*
X0165151Y0120195D01*
X0163552Y0118596D02*
X0157877Y0118596D01*
X0158861Y0116998D02*
X0161954Y0116998D01*
X0160355Y0115399D02*
X0159218Y0115399D01*
X0154018Y0115102D02*
X0125518Y0086602D01*
X0124518Y0086602D01*
X0124443Y0086677D01*
X0105918Y0086677D01*
X0105993Y0086602D01*
X0087443Y0097816D02*
X0087443Y0097816D01*
X0087443Y0099414D02*
X0087443Y0099414D01*
X0087443Y0101013D02*
X0087443Y0101013D01*
X0075194Y0118596D02*
X0074483Y0118596D01*
X0075194Y0120195D02*
X0072885Y0120195D01*
X0072674Y0121793D02*
X0075194Y0121793D01*
X0075194Y0123392D02*
X0071075Y0123392D01*
X0069665Y0126589D02*
X0073571Y0126589D01*
X0074546Y0147370D02*
X0066376Y0147370D01*
X0064818Y0153764D02*
X0082884Y0153764D01*
X0084065Y0155362D02*
X0064818Y0155362D01*
X0053218Y0155362D02*
X0046818Y0155362D01*
X0046818Y0153764D02*
X0053218Y0153764D01*
X0053218Y0152165D02*
X0046818Y0152165D01*
X0046818Y0150567D02*
X0053218Y0150567D01*
X0053218Y0148968D02*
X0046818Y0148968D01*
X0046818Y0147370D02*
X0053622Y0147370D01*
X0053218Y0156961D02*
X0046818Y0156961D01*
X0046818Y0158559D02*
X0053218Y0158559D01*
X0053218Y0160158D02*
X0046818Y0160158D01*
X0046323Y0161756D02*
X0053218Y0161756D01*
X0053218Y0163355D02*
X0044725Y0163355D01*
X0043126Y0164953D02*
X0053218Y0164953D01*
X0053218Y0166552D02*
X0041528Y0166552D01*
X0039929Y0168150D02*
X0053218Y0168150D01*
X0053218Y0169749D02*
X0038331Y0169749D01*
X0036732Y0171347D02*
X0054135Y0171347D01*
X0037623Y0182537D02*
X0035193Y0182537D01*
X0035920Y0184135D02*
X0036025Y0184135D01*
X0029018Y0184135D02*
X0029018Y0184135D01*
X0029018Y0182537D02*
X0029018Y0182537D01*
X0029018Y0180938D02*
X0029018Y0180938D01*
X0029018Y0185734D02*
X0029018Y0185734D01*
X0029018Y0187332D02*
X0029018Y0187332D01*
X0029018Y0188931D02*
X0029018Y0188931D01*
X0022961Y0168150D02*
X0021018Y0168150D01*
X0021018Y0166552D02*
X0022039Y0166552D01*
X0021818Y0164953D02*
X0021018Y0164953D01*
X0021018Y0163355D02*
X0022163Y0163355D01*
X0023258Y0161756D02*
X0021018Y0161756D01*
X0032689Y0150567D02*
X0036218Y0150567D01*
X0036218Y0152165D02*
X0035186Y0152165D01*
X0036042Y0153764D02*
X0036218Y0153764D01*
X0036218Y0148968D02*
X0034257Y0148968D01*
X0035658Y0147370D02*
X0036218Y0147370D01*
X0036218Y0145771D02*
X0036218Y0145771D01*
X0036212Y0144173D02*
X0036218Y0144173D01*
X0036218Y0142574D02*
X0035550Y0142574D01*
X0036218Y0140976D02*
X0033676Y0140976D01*
X0033318Y0139377D02*
X0036218Y0139377D01*
X0036218Y0137779D02*
X0035447Y0137779D01*
X0036150Y0136180D02*
X0036218Y0136180D01*
X0036218Y0134581D02*
X0036218Y0134581D01*
X0036218Y0132983D02*
X0035719Y0132983D01*
X0036218Y0131384D02*
X0034406Y0131384D01*
X0022998Y0128187D02*
X0021018Y0128187D01*
X0021018Y0126589D02*
X0022055Y0126589D01*
X0021818Y0124990D02*
X0021018Y0124990D01*
X0021018Y0123392D02*
X0022147Y0123392D01*
X0046990Y0132983D02*
X0053770Y0132983D01*
X0114018Y0140102D02*
X0114018Y0120102D01*
X0119018Y0125102D02*
X0119018Y0130102D01*
X0124018Y0135102D01*
X0124018Y0140102D01*
X0119018Y0139377D02*
X0119018Y0139377D01*
X0119018Y0140976D02*
X0119018Y0140976D01*
X0118617Y0142574D02*
X0119419Y0142574D01*
X0121017Y0144173D02*
X0117018Y0144173D01*
X0118765Y0137779D02*
X0119270Y0137779D01*
X0120869Y0136180D02*
X0117167Y0136180D01*
X0116818Y0134581D02*
X0119537Y0134581D01*
X0117939Y0132983D02*
X0116818Y0132983D01*
X0134018Y0140102D02*
X0134018Y0148102D01*
X0137018Y0144173D02*
X0141017Y0144173D01*
X0139419Y0142574D02*
X0138617Y0142574D01*
X0139018Y0140976D02*
X0139018Y0140976D01*
X0139018Y0139377D02*
X0139018Y0139377D01*
X0138765Y0137779D02*
X0139270Y0137779D01*
X0140787Y0136180D02*
X0140869Y0136180D01*
X0137248Y0136180D02*
X0137167Y0136180D01*
X0139018Y0132602D02*
X0144018Y0127602D01*
X0144018Y0125102D01*
X0149030Y0126589D02*
X0149244Y0126589D01*
X0150079Y0128187D02*
X0148286Y0128187D01*
X0147167Y0136180D02*
X0151152Y0136180D01*
X0149553Y0137779D02*
X0148765Y0137779D01*
X0149018Y0139377D02*
X0149218Y0139377D01*
X0149218Y0140976D02*
X0149018Y0140976D01*
X0148617Y0142574D02*
X0149702Y0142574D01*
X0151300Y0144173D02*
X0147018Y0144173D01*
X0158334Y0142574D02*
X0166218Y0142574D01*
X0166218Y0140976D02*
X0158818Y0140976D01*
X0158818Y0139377D02*
X0166218Y0139377D01*
X0166218Y0137779D02*
X0158482Y0137779D01*
X0172758Y0135102D02*
X0174018Y0133842D01*
X0174018Y0155102D01*
X0179018Y0160102D01*
X0184018Y0160102D01*
X0189018Y0155102D01*
X0189018Y0130102D01*
X0179018Y0120102D01*
X0179018Y0110102D01*
X0184018Y0105102D01*
X0184018Y0075260D01*
X0185018Y0074260D01*
X0185018Y0059386D01*
X0188789Y0059451D02*
X0255709Y0059451D01*
X0254718Y0061050D02*
X0188789Y0061050D01*
X0188789Y0057853D02*
X0252421Y0057853D01*
X0251237Y0056254D02*
X0188589Y0056254D01*
X0196648Y0062648D02*
X0254718Y0062648D01*
X0254718Y0064247D02*
X0237907Y0064247D01*
X0237360Y0063700D02*
X0239020Y0065360D01*
X0239918Y0067528D01*
X0239918Y0077676D01*
X0239020Y0079844D01*
X0238518Y0080346D01*
X0238518Y0091167D01*
X0242953Y0095602D01*
X0262154Y0095602D01*
X0282268Y0075488D01*
X0282268Y0069524D01*
X0283439Y0068352D01*
X0294596Y0068352D01*
X0295768Y0069524D01*
X0295768Y0080680D01*
X0294596Y0081852D01*
X0288632Y0081852D01*
X0266567Y0103917D01*
X0264913Y0104602D01*
X0240194Y0104602D01*
X0238540Y0103917D01*
X0237274Y0102651D01*
X0230203Y0095580D01*
X0229518Y0093926D01*
X0229518Y0080346D01*
X0229016Y0079844D01*
X0228118Y0077676D01*
X0228118Y0067528D01*
X0229016Y0065360D01*
X0230676Y0063700D01*
X0232844Y0062802D01*
X0235191Y0062802D01*
X0237360Y0063700D01*
X0239221Y0065845D02*
X0254718Y0065845D01*
X0254718Y0067444D02*
X0239883Y0067444D01*
X0239918Y0069043D02*
X0254718Y0069043D01*
X0254718Y0070641D02*
X0239918Y0070641D01*
X0239918Y0072240D02*
X0253636Y0072240D01*
X0252318Y0073838D02*
X0239918Y0073838D01*
X0239918Y0075437D02*
X0251656Y0075437D01*
X0251618Y0077035D02*
X0239918Y0077035D01*
X0239521Y0078634D02*
X0251618Y0078634D01*
X0251618Y0080232D02*
X0238632Y0080232D01*
X0238518Y0081831D02*
X0251618Y0081831D01*
X0251618Y0083429D02*
X0238518Y0083429D01*
X0238518Y0085028D02*
X0251618Y0085028D01*
X0252012Y0086626D02*
X0238518Y0086626D01*
X0238518Y0088225D02*
X0252897Y0088225D01*
X0254947Y0089823D02*
X0238518Y0089823D01*
X0238772Y0091422D02*
X0266334Y0091422D01*
X0264736Y0093020D02*
X0240371Y0093020D01*
X0241969Y0094619D02*
X0263137Y0094619D01*
X0260089Y0089823D02*
X0267933Y0089823D01*
X0269531Y0088225D02*
X0262139Y0088225D01*
X0263024Y0086626D02*
X0271130Y0086626D01*
X0272728Y0085028D02*
X0263418Y0085028D01*
X0263418Y0083429D02*
X0274327Y0083429D01*
X0275925Y0081831D02*
X0263418Y0081831D01*
X0263418Y0080232D02*
X0277524Y0080232D01*
X0279122Y0078634D02*
X0263418Y0078634D01*
X0263418Y0077035D02*
X0280721Y0077035D01*
X0282268Y0075437D02*
X0263380Y0075437D01*
X0262718Y0073838D02*
X0282268Y0073838D01*
X0282268Y0072240D02*
X0261399Y0072240D01*
X0260318Y0070641D02*
X0282268Y0070641D01*
X0282749Y0069043D02*
X0260318Y0069043D01*
X0260318Y0067444D02*
X0282400Y0067444D01*
X0280801Y0065845D02*
X0260318Y0065845D01*
X0260318Y0064247D02*
X0279203Y0064247D01*
X0277665Y0062648D02*
X0260431Y0062648D01*
X0262030Y0061050D02*
X0277281Y0061050D01*
X0277281Y0059451D02*
X0263628Y0059451D01*
X0264018Y0055102D02*
X0280081Y0055102D01*
X0280081Y0061165D01*
X0284018Y0065102D01*
X0299018Y0065102D01*
X0301518Y0062602D01*
X0301518Y0048736D01*
X0305880Y0048262D02*
X0306939Y0048262D01*
X0306939Y0049860D02*
X0305880Y0049860D01*
X0305880Y0051459D02*
X0306939Y0051459D01*
X0306939Y0053057D02*
X0304749Y0053057D01*
X0304318Y0054656D02*
X0306939Y0054656D01*
X0306939Y0056254D02*
X0304318Y0056254D01*
X0304318Y0057853D02*
X0306939Y0057853D01*
X0306939Y0059451D02*
X0304318Y0059451D01*
X0304318Y0061050D02*
X0306939Y0061050D01*
X0306939Y0062648D02*
X0304318Y0062648D01*
X0303833Y0064247D02*
X0306939Y0064247D01*
X0306939Y0065845D02*
X0302234Y0065845D01*
X0300636Y0067444D02*
X0306939Y0067444D01*
X0306939Y0069043D02*
X0295287Y0069043D01*
X0295768Y0070641D02*
X0306939Y0070641D01*
X0306939Y0072240D02*
X0295768Y0072240D01*
X0295768Y0073838D02*
X0306939Y0073838D01*
X0306939Y0075437D02*
X0295768Y0075437D01*
X0295768Y0077035D02*
X0306939Y0077035D01*
X0306939Y0078634D02*
X0295768Y0078634D01*
X0295768Y0080232D02*
X0306939Y0080232D01*
X0306939Y0081831D02*
X0294618Y0081831D01*
X0290813Y0088225D02*
X0306939Y0088225D01*
X0306939Y0089823D02*
X0293600Y0089823D01*
X0292841Y0089065D02*
X0294740Y0090964D01*
X0295768Y0093444D01*
X0295768Y0096130D01*
X0294740Y0098611D01*
X0292841Y0100509D01*
X0290360Y0101537D01*
X0288632Y0101537D01*
X0263418Y0126751D01*
X0263418Y0133676D01*
X0262520Y0135844D01*
X0260860Y0137504D01*
X0258691Y0138402D01*
X0256344Y0138402D01*
X0254176Y0137504D01*
X0252516Y0135844D01*
X0251618Y0133676D01*
X0251618Y0123528D01*
X0252516Y0121360D01*
X0254176Y0119700D01*
X0256344Y0118802D01*
X0258639Y0118802D01*
X0282268Y0095173D01*
X0282268Y0093444D01*
X0283295Y0090964D01*
X0285194Y0089065D01*
X0287675Y0088037D01*
X0290360Y0088037D01*
X0292841Y0089065D01*
X0294930Y0091422D02*
X0306939Y0091422D01*
X0306939Y0093020D02*
X0295592Y0093020D01*
X0295768Y0094619D02*
X0306939Y0094619D01*
X0306939Y0096217D02*
X0295732Y0096217D01*
X0295069Y0097816D02*
X0306939Y0097816D01*
X0306939Y0099414D02*
X0293937Y0099414D01*
X0291626Y0101013D02*
X0306939Y0101013D01*
X0306939Y0102611D02*
X0287558Y0102611D01*
X0285959Y0104210D02*
X0306939Y0104210D01*
X0306939Y0105808D02*
X0284361Y0105808D01*
X0282762Y0107407D02*
X0306939Y0107407D01*
X0306939Y0109005D02*
X0293097Y0109005D01*
X0292841Y0108750D02*
X0294740Y0110649D01*
X0295768Y0113129D01*
X0295768Y0115815D01*
X0294740Y0118296D01*
X0292841Y0120195D01*
X0292840Y0120195D02*
X0306939Y0120195D01*
X0306939Y0121793D02*
X0268375Y0121793D01*
X0266777Y0123392D02*
X0306939Y0123392D01*
X0306939Y0124990D02*
X0265178Y0124990D01*
X0263580Y0126589D02*
X0306939Y0126589D01*
X0306939Y0128187D02*
X0263418Y0128187D01*
X0263418Y0129786D02*
X0306939Y0129786D01*
X0306939Y0131384D02*
X0263418Y0131384D01*
X0263418Y0132983D02*
X0306939Y0132983D01*
X0306939Y0134581D02*
X0263043Y0134581D01*
X0262184Y0136180D02*
X0306939Y0136180D01*
X0306939Y0150567D02*
X0285671Y0150567D01*
X0284072Y0152165D02*
X0306939Y0152165D01*
X0306939Y0153764D02*
X0282474Y0153764D01*
X0280875Y0155362D02*
X0306939Y0155362D01*
X0284088Y0156961D02*
X0279276Y0156961D01*
X0277678Y0158559D02*
X0282065Y0158559D01*
X0281253Y0160158D02*
X0276079Y0160158D01*
X0274481Y0161756D02*
X0280968Y0161756D01*
X0281097Y0163355D02*
X0267618Y0163355D01*
X0267799Y0164953D02*
X0281759Y0164953D01*
X0283286Y0166552D02*
X0267799Y0166552D01*
X0264018Y0165102D02*
X0262018Y0167102D01*
X0262018Y0177862D01*
X0259218Y0172946D02*
X0200134Y0172946D01*
X0201732Y0171347D02*
X0259218Y0171347D01*
X0259218Y0169749D02*
X0203331Y0169749D01*
X0204929Y0168150D02*
X0259218Y0168150D01*
X0259218Y0166552D02*
X0206528Y0166552D01*
X0208126Y0164953D02*
X0260207Y0164953D01*
X0260418Y0163355D02*
X0209725Y0163355D01*
X0201607Y0152165D02*
X0191818Y0152165D01*
X0191818Y0150567D02*
X0277751Y0150567D01*
X0279349Y0148968D02*
X0191818Y0148968D01*
X0191818Y0147370D02*
X0280948Y0147370D01*
X0282191Y0145771D02*
X0191818Y0145771D01*
X0191818Y0144173D02*
X0281305Y0144173D01*
X0280968Y0142574D02*
X0191818Y0142574D01*
X0191818Y0140976D02*
X0281044Y0140976D01*
X0281707Y0139377D02*
X0191818Y0139377D01*
X0191818Y0137779D02*
X0207839Y0137779D01*
X0207176Y0137504D02*
X0209344Y0138402D01*
X0211691Y0138402D01*
X0213860Y0137504D01*
X0215520Y0135844D01*
X0216418Y0133676D01*
X0216418Y0123528D01*
X0215520Y0121360D01*
X0213860Y0119700D01*
X0211691Y0118802D01*
X0209344Y0118802D01*
X0207176Y0119700D01*
X0205516Y0121360D01*
X0204618Y0123528D01*
X0204618Y0133676D01*
X0205516Y0135844D01*
X0207176Y0137504D01*
X0205852Y0136180D02*
X0191818Y0136180D01*
X0191818Y0134581D02*
X0204993Y0134581D01*
X0204618Y0132983D02*
X0191818Y0132983D01*
X0191818Y0131384D02*
X0204618Y0131384D01*
X0204618Y0129786D02*
X0191818Y0129786D01*
X0192012Y0128187D02*
X0191063Y0128187D01*
X0190418Y0126589D02*
X0189464Y0126589D01*
X0189972Y0124990D02*
X0187866Y0124990D01*
X0186267Y0123392D02*
X0189564Y0123392D01*
X0189564Y0121793D02*
X0184669Y0121793D01*
X0183070Y0120195D02*
X0189564Y0120195D01*
X0186151Y0118596D02*
X0185192Y0118596D01*
X0185192Y0116998D02*
X0186151Y0116998D01*
X0186151Y0113801D02*
X0185192Y0113801D01*
X0185192Y0112202D02*
X0186151Y0112202D01*
X0186151Y0110604D02*
X0185192Y0110604D01*
X0184074Y0109005D02*
X0190053Y0109005D01*
X0189026Y0107407D02*
X0185673Y0107407D01*
X0186756Y0105808D02*
X0189026Y0105808D01*
X0189026Y0104210D02*
X0186818Y0104210D01*
X0186818Y0102611D02*
X0189026Y0102611D01*
X0189026Y0101013D02*
X0186818Y0101013D01*
X0186818Y0099414D02*
X0189633Y0099414D01*
X0186818Y0097816D02*
X0232439Y0097816D01*
X0234037Y0099414D02*
X0196355Y0099414D01*
X0196963Y0101013D02*
X0235636Y0101013D01*
X0237234Y0102611D02*
X0196963Y0102611D01*
X0196963Y0104210D02*
X0239247Y0104210D01*
X0230840Y0096217D02*
X0186818Y0096217D01*
X0186818Y0094619D02*
X0229805Y0094619D01*
X0229518Y0093020D02*
X0186818Y0093020D01*
X0186818Y0091422D02*
X0229518Y0091422D01*
X0229518Y0089823D02*
X0213089Y0089823D01*
X0213860Y0089504D02*
X0211691Y0090402D01*
X0209344Y0090402D01*
X0207176Y0089504D01*
X0205516Y0087844D01*
X0204618Y0085676D01*
X0204618Y0075528D01*
X0205516Y0073360D01*
X0207176Y0071700D01*
X0209344Y0070802D01*
X0211691Y0070802D01*
X0213860Y0071700D01*
X0215520Y0073360D01*
X0216418Y0075528D01*
X0216418Y0085676D01*
X0215520Y0087844D01*
X0213860Y0089504D01*
X0215139Y0088225D02*
X0229518Y0088225D01*
X0229518Y0086626D02*
X0216024Y0086626D01*
X0216418Y0085028D02*
X0229518Y0085028D01*
X0229518Y0083429D02*
X0216418Y0083429D01*
X0216418Y0081831D02*
X0229518Y0081831D01*
X0229404Y0080232D02*
X0216418Y0080232D01*
X0216418Y0078634D02*
X0228515Y0078634D01*
X0228118Y0077035D02*
X0216418Y0077035D01*
X0216380Y0075437D02*
X0228118Y0075437D01*
X0228118Y0073838D02*
X0215718Y0073838D01*
X0214399Y0072240D02*
X0228118Y0072240D01*
X0228118Y0070641D02*
X0196648Y0070641D01*
X0196648Y0069043D02*
X0228118Y0069043D01*
X0228153Y0067444D02*
X0196648Y0067444D01*
X0196648Y0065845D02*
X0228815Y0065845D01*
X0230129Y0064247D02*
X0196648Y0064247D01*
X0196648Y0072240D02*
X0206636Y0072240D01*
X0205318Y0073838D02*
X0196648Y0073838D01*
X0196648Y0075437D02*
X0204656Y0075437D01*
X0204618Y0077035D02*
X0196648Y0077035D01*
X0196648Y0078634D02*
X0204618Y0078634D01*
X0204618Y0080232D02*
X0196648Y0080232D01*
X0196648Y0081831D02*
X0204618Y0081831D01*
X0204618Y0083429D02*
X0196648Y0083429D01*
X0196648Y0085028D02*
X0204618Y0085028D01*
X0205012Y0086626D02*
X0196648Y0086626D01*
X0196648Y0088225D02*
X0205897Y0088225D01*
X0207947Y0089823D02*
X0186818Y0089823D01*
X0192994Y0104000D02*
X0192994Y0114472D01*
X0192364Y0115102D01*
X0192364Y0123449D01*
X0194018Y0125102D01*
X0197618Y0124990D02*
X0204618Y0124990D01*
X0204618Y0126589D02*
X0197618Y0126589D01*
X0196024Y0128187D02*
X0204618Y0128187D01*
X0204674Y0123392D02*
X0197399Y0123392D01*
X0195800Y0121793D02*
X0205336Y0121793D01*
X0206681Y0120195D02*
X0195164Y0120195D01*
X0196923Y0118596D02*
X0258845Y0118596D01*
X0260443Y0116998D02*
X0196923Y0116998D01*
X0196923Y0115399D02*
X0262042Y0115399D01*
X0263640Y0113801D02*
X0196923Y0113801D01*
X0196923Y0112202D02*
X0265239Y0112202D01*
X0266837Y0110604D02*
X0196206Y0110604D01*
X0195935Y0109005D02*
X0268436Y0109005D01*
X0270034Y0107407D02*
X0196963Y0107407D01*
X0196963Y0105808D02*
X0271633Y0105808D01*
X0273231Y0104210D02*
X0265860Y0104210D01*
X0267873Y0102611D02*
X0274830Y0102611D01*
X0276428Y0101013D02*
X0269471Y0101013D01*
X0271070Y0099414D02*
X0278027Y0099414D01*
X0279625Y0097816D02*
X0272668Y0097816D01*
X0274267Y0096217D02*
X0281224Y0096217D01*
X0282268Y0094619D02*
X0275865Y0094619D01*
X0277464Y0093020D02*
X0282444Y0093020D01*
X0283106Y0091422D02*
X0279062Y0091422D01*
X0280661Y0089823D02*
X0284436Y0089823D01*
X0282259Y0088225D02*
X0287222Y0088225D01*
X0285456Y0085028D02*
X0306939Y0085028D01*
X0306939Y0086626D02*
X0283858Y0086626D01*
X0287055Y0083429D02*
X0306939Y0083429D01*
X0292841Y0108750D02*
X0290360Y0107722D01*
X0287675Y0107722D01*
X0285194Y0108750D01*
X0283295Y0110649D01*
X0282268Y0113129D01*
X0282268Y0115815D01*
X0283295Y0118296D01*
X0285194Y0120195D01*
X0287675Y0121222D01*
X0290360Y0121222D01*
X0292841Y0120195D01*
X0294440Y0118596D02*
X0306939Y0118596D01*
X0306939Y0116998D02*
X0295278Y0116998D01*
X0295768Y0115399D02*
X0306939Y0115399D01*
X0306939Y0113801D02*
X0295768Y0113801D01*
X0295384Y0112202D02*
X0306939Y0112202D01*
X0306939Y0110604D02*
X0294695Y0110604D01*
X0284939Y0109005D02*
X0281164Y0109005D01*
X0279565Y0110604D02*
X0283340Y0110604D01*
X0282652Y0112202D02*
X0277967Y0112202D01*
X0276368Y0113801D02*
X0282268Y0113801D01*
X0282268Y0115399D02*
X0274770Y0115399D01*
X0273171Y0116998D02*
X0282758Y0116998D01*
X0283596Y0118596D02*
X0271572Y0118596D01*
X0269974Y0120195D02*
X0285195Y0120195D01*
X0283160Y0137779D02*
X0260197Y0137779D01*
X0254839Y0137779D02*
X0213197Y0137779D01*
X0215184Y0136180D02*
X0252852Y0136180D01*
X0251993Y0134581D02*
X0216043Y0134581D01*
X0216418Y0132983D02*
X0251618Y0132983D01*
X0251618Y0131384D02*
X0216418Y0131384D01*
X0216418Y0129786D02*
X0251618Y0129786D01*
X0251618Y0128187D02*
X0216418Y0128187D01*
X0216418Y0126589D02*
X0251618Y0126589D01*
X0251618Y0124990D02*
X0216418Y0124990D01*
X0216361Y0123392D02*
X0251674Y0123392D01*
X0252336Y0121793D02*
X0215699Y0121793D01*
X0214354Y0120195D02*
X0253681Y0120195D01*
X0257518Y0080602D02*
X0257518Y0061602D01*
X0264018Y0055102D01*
X0265081Y0050102D02*
X0260018Y0050102D01*
X0255018Y0055102D01*
X0251727Y0046663D02*
X0250992Y0046663D01*
X0248727Y0041868D02*
X0247317Y0041868D01*
X0246462Y0040269D02*
X0252479Y0040269D01*
X0255081Y0038671D02*
X0255081Y0038671D01*
X0255081Y0037072D02*
X0255081Y0037072D01*
X0255081Y0035474D02*
X0255081Y0035474D01*
X0255081Y0033875D02*
X0255081Y0033875D01*
X0258146Y0026102D02*
X0248489Y0026102D01*
X0247318Y0024930D01*
X0247318Y0015274D01*
X0248489Y0014102D01*
X0258146Y0014102D01*
X0259318Y0015274D01*
X0259318Y0024930D01*
X0258146Y0026102D01*
X0258366Y0025883D02*
X0266074Y0025883D01*
X0263494Y0024284D02*
X0259318Y0024284D01*
X0259318Y0022686D02*
X0262373Y0022686D01*
X0261797Y0021087D02*
X0259318Y0021087D01*
X0259318Y0019489D02*
X0261797Y0019489D01*
X0262219Y0017890D02*
X0259318Y0017890D01*
X0259318Y0016292D02*
X0263122Y0016292D01*
X0264649Y0014693D02*
X0258737Y0014693D01*
X0263051Y0013095D02*
X0233765Y0013095D01*
X0234656Y0014693D02*
X0232166Y0014693D01*
X0232602Y0016292D02*
X0230568Y0016292D01*
X0232190Y0016703D02*
X0233878Y0015016D01*
X0236083Y0014102D01*
X0238470Y0014102D01*
X0240676Y0015016D01*
X0242363Y0016703D01*
X0243277Y0018909D01*
X0243277Y0021296D01*
X0242363Y0023501D01*
X0240676Y0025189D01*
X0238470Y0026102D01*
X0236083Y0026102D01*
X0233878Y0025189D01*
X0232190Y0023501D01*
X0231277Y0021296D01*
X0231277Y0018909D01*
X0232190Y0016703D01*
X0231699Y0017890D02*
X0228969Y0017890D01*
X0228797Y0019489D02*
X0231277Y0019489D01*
X0231277Y0021087D02*
X0228797Y0021087D01*
X0228222Y0022686D02*
X0231853Y0022686D01*
X0232974Y0024284D02*
X0227100Y0024284D01*
X0224520Y0025883D02*
X0235554Y0025883D01*
X0239000Y0025883D02*
X0248270Y0025883D01*
X0247318Y0024284D02*
X0241580Y0024284D01*
X0242701Y0022686D02*
X0247318Y0022686D01*
X0247318Y0021087D02*
X0243277Y0021087D01*
X0243277Y0019489D02*
X0247318Y0019489D01*
X0247318Y0017890D02*
X0242855Y0017890D01*
X0241952Y0016292D02*
X0247318Y0016292D01*
X0247898Y0014693D02*
X0239897Y0014693D01*
X0232797Y0010102D02*
X0264018Y0010102D01*
X0267797Y0013882D01*
X0267797Y0020102D01*
X0272100Y0024284D02*
X0278257Y0024284D01*
X0278498Y0024526D02*
X0277853Y0023880D01*
X0277316Y0023142D01*
X0276902Y0022328D01*
X0276620Y0021460D01*
X0276477Y0020559D01*
X0276477Y0020483D01*
X0281896Y0020483D01*
X0281896Y0025902D01*
X0281820Y0025902D01*
X0280919Y0025759D01*
X0280050Y0025477D01*
X0279237Y0025063D01*
X0278498Y0024526D01*
X0277084Y0022686D02*
X0273222Y0022686D01*
X0273797Y0021087D02*
X0276561Y0021087D01*
X0276477Y0019721D02*
X0276477Y0019646D01*
X0276620Y0018744D01*
X0276902Y0017876D01*
X0277316Y0017062D01*
X0277853Y0016324D01*
X0278498Y0015678D01*
X0279237Y0015141D01*
X0280050Y0014727D01*
X0280919Y0014445D01*
X0281820Y0014302D01*
X0281896Y0014302D01*
X0281896Y0019721D01*
X0282658Y0019721D01*
X0282658Y0020483D01*
X0288077Y0020483D01*
X0288077Y0020559D01*
X0287934Y0021460D01*
X0287652Y0022328D01*
X0287237Y0023142D01*
X0286701Y0023880D01*
X0286055Y0024526D01*
X0285317Y0025063D01*
X0284503Y0025477D01*
X0283635Y0025759D01*
X0282733Y0025902D01*
X0282658Y0025902D01*
X0282658Y0020483D01*
X0281896Y0020483D01*
X0281896Y0019721D01*
X0276477Y0019721D01*
X0276502Y0019489D02*
X0273797Y0019489D01*
X0273375Y0017890D02*
X0276897Y0017890D01*
X0277885Y0016292D02*
X0272472Y0016292D01*
X0270597Y0014693D02*
X0280155Y0014693D01*
X0281896Y0014693D02*
X0282658Y0014693D01*
X0282658Y0014302D02*
X0282733Y0014302D01*
X0283635Y0014445D01*
X0284503Y0014727D01*
X0285317Y0015141D01*
X0286055Y0015678D01*
X0286701Y0016324D01*
X0287237Y0017062D01*
X0287652Y0017876D01*
X0287934Y0018744D01*
X0288077Y0019646D01*
X0288077Y0019721D01*
X0282658Y0019721D01*
X0282658Y0014302D01*
X0284399Y0014693D02*
X0306939Y0014693D01*
X0306939Y0013095D02*
X0270502Y0013095D01*
X0269372Y0011496D02*
X0306939Y0011496D01*
X0306939Y0009898D02*
X0267773Y0009898D01*
X0266175Y0008299D02*
X0306939Y0008299D01*
X0306939Y0016292D02*
X0286669Y0016292D01*
X0287657Y0017890D02*
X0306939Y0017890D01*
X0306939Y0019489D02*
X0288052Y0019489D01*
X0287993Y0021087D02*
X0306939Y0021087D01*
X0306939Y0022686D02*
X0287470Y0022686D01*
X0286297Y0024284D02*
X0306939Y0024284D01*
X0306939Y0025883D02*
X0282855Y0025883D01*
X0282658Y0025883D02*
X0281896Y0025883D01*
X0281698Y0025883D02*
X0269520Y0025883D01*
X0281896Y0024284D02*
X0282658Y0024284D01*
X0282658Y0022686D02*
X0281896Y0022686D01*
X0281896Y0021087D02*
X0282658Y0021087D01*
X0282658Y0019489D02*
X0281896Y0019489D01*
X0281896Y0017890D02*
X0282658Y0017890D01*
X0282658Y0016292D02*
X0281896Y0016292D01*
X0286667Y0035474D02*
X0306939Y0035474D01*
X0306939Y0037072D02*
X0305675Y0037072D01*
X0305880Y0038671D02*
X0306939Y0038671D01*
X0306939Y0040269D02*
X0305880Y0040269D01*
X0305880Y0041868D02*
X0306939Y0041868D01*
X0306939Y0043466D02*
X0305880Y0043466D01*
X0305400Y0045065D02*
X0306939Y0045065D01*
X0306939Y0046663D02*
X0305880Y0046663D01*
X0301518Y0040468D02*
X0283124Y0040468D01*
X0282758Y0040102D01*
X0287317Y0037072D02*
X0297361Y0037072D01*
X0306939Y0030678D02*
X0179401Y0030678D01*
X0180514Y0029080D02*
X0306939Y0029080D01*
X0306939Y0027481D02*
X0180597Y0027481D01*
X0180597Y0025883D02*
X0190554Y0025883D01*
X0191083Y0026102D02*
X0188878Y0025189D01*
X0187190Y0023501D01*
X0186277Y0021296D01*
X0186277Y0018909D01*
X0187190Y0016703D01*
X0188878Y0015016D01*
X0191083Y0014102D01*
X0193470Y0014102D01*
X0195676Y0015016D01*
X0197363Y0016703D01*
X0198277Y0018909D01*
X0198277Y0021296D01*
X0197363Y0023501D01*
X0195676Y0025189D01*
X0193470Y0026102D01*
X0191083Y0026102D01*
X0194000Y0025883D02*
X0204009Y0025883D01*
X0204081Y0025902D02*
X0203623Y0025779D01*
X0203213Y0025542D01*
X0202877Y0025207D01*
X0202640Y0024797D01*
X0202518Y0024339D01*
X0202518Y0020483D01*
X0207937Y0020483D01*
X0207937Y0025902D01*
X0204081Y0025902D01*
X0202518Y0024284D02*
X0196580Y0024284D01*
X0197701Y0022686D02*
X0202518Y0022686D01*
X0202518Y0021087D02*
X0198277Y0021087D01*
X0198277Y0019489D02*
X0202518Y0019489D01*
X0202518Y0019721D02*
X0202518Y0015865D01*
X0202640Y0015407D01*
X0202877Y0014997D01*
X0203213Y0014662D01*
X0203623Y0014425D01*
X0204081Y0014302D01*
X0207937Y0014302D01*
X0207937Y0019721D01*
X0208699Y0019721D01*
X0208699Y0020483D01*
X0214118Y0020483D01*
X0214118Y0024339D01*
X0213995Y0024797D01*
X0213758Y0025207D01*
X0213423Y0025542D01*
X0213013Y0025779D01*
X0212555Y0025902D01*
X0208699Y0025902D01*
X0208699Y0020483D01*
X0207937Y0020483D01*
X0207937Y0019721D01*
X0202518Y0019721D01*
X0202518Y0017890D02*
X0197855Y0017890D01*
X0196952Y0016292D02*
X0202518Y0016292D01*
X0203181Y0014693D02*
X0194897Y0014693D01*
X0189656Y0014693D02*
X0181818Y0014693D01*
X0181818Y0013095D02*
X0213051Y0013095D01*
X0212555Y0014302D02*
X0208699Y0014302D01*
X0208699Y0019721D01*
X0214118Y0019721D01*
X0214118Y0015865D01*
X0213995Y0015407D01*
X0213758Y0014997D01*
X0213423Y0014662D01*
X0213013Y0014425D01*
X0212555Y0014302D01*
X0213454Y0014693D02*
X0214649Y0014693D01*
X0214118Y0016292D02*
X0216248Y0016292D01*
X0217219Y0017890D02*
X0214118Y0017890D01*
X0214118Y0019489D02*
X0216797Y0019489D01*
X0216797Y0021087D02*
X0214118Y0021087D01*
X0214118Y0022686D02*
X0217373Y0022686D01*
X0218494Y0024284D02*
X0214118Y0024284D01*
X0212627Y0025883D02*
X0221074Y0025883D01*
X0222797Y0020102D02*
X0232797Y0010102D01*
X0230641Y0008299D02*
X0216175Y0008299D01*
X0217773Y0009898D02*
X0229042Y0009898D01*
X0227443Y0011496D02*
X0219372Y0011496D01*
X0220970Y0013095D02*
X0225845Y0013095D01*
X0222797Y0018882D02*
X0222797Y0020102D01*
X0222797Y0018882D02*
X0214018Y0010102D01*
X0179018Y0010102D01*
X0182472Y0016292D02*
X0187602Y0016292D01*
X0186699Y0017890D02*
X0183375Y0017890D01*
X0183797Y0019489D02*
X0186277Y0019489D01*
X0186277Y0021087D02*
X0183797Y0021087D01*
X0183222Y0022686D02*
X0186853Y0022686D01*
X0187974Y0024284D02*
X0182100Y0024284D01*
X0173494Y0024284D02*
X0169118Y0024284D01*
X0169118Y0022686D02*
X0172373Y0022686D01*
X0171797Y0021087D02*
X0169118Y0021087D01*
X0169118Y0019489D02*
X0171797Y0019489D01*
X0172219Y0017890D02*
X0169118Y0017890D01*
X0169118Y0016292D02*
X0173122Y0016292D01*
X0178518Y0045102D02*
X0235278Y0045102D01*
X0230719Y0048262D02*
X0179318Y0048262D01*
X0177719Y0049860D02*
X0231499Y0049860D01*
X0238982Y0040269D02*
X0239054Y0040269D01*
X0208699Y0025883D02*
X0207937Y0025883D01*
X0207937Y0024284D02*
X0208699Y0024284D01*
X0208699Y0022686D02*
X0207937Y0022686D01*
X0207937Y0021087D02*
X0208699Y0021087D01*
X0208699Y0019489D02*
X0207937Y0019489D01*
X0207937Y0017890D02*
X0208699Y0017890D01*
X0208699Y0016292D02*
X0207937Y0016292D01*
X0207937Y0014693D02*
X0208699Y0014693D01*
X0184018Y0070102D02*
X0181439Y0072681D01*
X0164018Y0100102D02*
X0167915Y0104000D01*
X0175041Y0104000D01*
X0179167Y0128862D02*
X0179167Y0129749D01*
X0178815Y0130102D01*
X0179167Y0130455D01*
X0179167Y0137230D01*
X0177996Y0138401D01*
X0176818Y0138401D01*
X0176818Y0153942D01*
X0180178Y0157302D01*
X0182858Y0157302D01*
X0186218Y0153942D01*
X0186218Y0152805D01*
X0186208Y0152808D01*
X0183497Y0152808D01*
X0183497Y0148928D01*
X0182538Y0148928D01*
X0182538Y0147969D01*
X0178265Y0147969D01*
X0178265Y0145652D01*
X0178330Y0145408D01*
X0178065Y0145143D01*
X0178065Y0138368D01*
X0179237Y0137197D01*
X0181518Y0137197D01*
X0181518Y0131138D01*
X0179242Y0128862D01*
X0179167Y0128862D01*
X0179131Y0129786D02*
X0180166Y0129786D01*
X0179167Y0131384D02*
X0181518Y0131384D01*
X0181518Y0132983D02*
X0179167Y0132983D01*
X0179167Y0134581D02*
X0181518Y0134581D01*
X0181518Y0136180D02*
X0179167Y0136180D01*
X0178655Y0137779D02*
X0178619Y0137779D01*
X0178065Y0139377D02*
X0176818Y0139377D01*
X0176818Y0140976D02*
X0178065Y0140976D01*
X0178065Y0142574D02*
X0176818Y0142574D01*
X0176818Y0144173D02*
X0178065Y0144173D01*
X0178265Y0145771D02*
X0176818Y0145771D01*
X0176818Y0147370D02*
X0178265Y0147370D01*
X0178265Y0148928D02*
X0182538Y0148928D01*
X0182538Y0152808D01*
X0179828Y0152808D01*
X0179370Y0152685D01*
X0178960Y0152448D01*
X0178625Y0152113D01*
X0178388Y0151702D01*
X0178265Y0151245D01*
X0178265Y0148928D01*
X0178265Y0148968D02*
X0176818Y0148968D01*
X0176818Y0150567D02*
X0178265Y0150567D01*
X0178677Y0152165D02*
X0176818Y0152165D01*
X0176818Y0153764D02*
X0186218Y0153764D01*
X0184798Y0155362D02*
X0178238Y0155362D01*
X0179836Y0156961D02*
X0183199Y0156961D01*
X0183497Y0152165D02*
X0182538Y0152165D01*
X0182538Y0150567D02*
X0183497Y0150567D01*
X0183497Y0148968D02*
X0182538Y0148968D01*
X0144370Y0164953D02*
X0143666Y0164953D01*
X0136515Y0158559D02*
X0121435Y0158559D01*
X0050024Y0065845D02*
X0046810Y0065845D01*
X0048408Y0064247D02*
X0048939Y0064247D01*
X0029018Y0059451D02*
X0029018Y0059451D01*
X0029018Y0057853D02*
X0029018Y0057853D01*
X0029018Y0056254D02*
X0029018Y0056254D01*
X0228018Y0176143D02*
X0228018Y0176143D01*
X0228018Y0177741D02*
X0228018Y0177741D01*
X0228018Y0179340D02*
X0228018Y0179340D01*
X0228018Y0180938D02*
X0228018Y0180938D01*
X0230833Y0180938D02*
X0233202Y0180938D01*
X0233338Y0181074D02*
X0233003Y0180739D01*
X0232766Y0180328D01*
X0232643Y0179871D01*
X0232643Y0178453D01*
X0236018Y0178453D01*
X0236018Y0178453D01*
X0236018Y0181434D01*
X0237830Y0181434D01*
X0238287Y0181311D01*
X0238698Y0181074D01*
X0239033Y0180739D01*
X0239270Y0180328D01*
X0239393Y0179871D01*
X0239393Y0178453D01*
X0236018Y0178453D01*
X0236018Y0178452D01*
X0236018Y0175471D01*
X0237830Y0175471D01*
X0238287Y0175594D01*
X0238698Y0175831D01*
X0239033Y0176166D01*
X0239270Y0176577D01*
X0239393Y0177034D01*
X0239393Y0178452D01*
X0236018Y0178452D01*
X0236018Y0178452D01*
X0236018Y0175471D01*
X0234206Y0175471D01*
X0233748Y0175594D01*
X0233338Y0175831D01*
X0233003Y0176166D01*
X0232766Y0176577D01*
X0232643Y0177034D01*
X0232643Y0178452D01*
X0236018Y0178452D01*
X0236018Y0178453D01*
X0236018Y0181434D01*
X0234206Y0181434D01*
X0233748Y0181311D01*
X0233338Y0181074D01*
X0232648Y0182537D02*
X0231387Y0182537D01*
X0231593Y0184135D02*
X0232443Y0184135D01*
X0231701Y0185734D02*
X0231593Y0185734D01*
X0236018Y0180938D02*
X0236018Y0180938D01*
X0236018Y0179340D02*
X0236018Y0179340D01*
X0236018Y0177741D02*
X0236018Y0177741D01*
X0236018Y0176143D02*
X0236018Y0176143D01*
X0239010Y0176143D02*
X0241526Y0176143D01*
X0241143Y0177741D02*
X0239393Y0177741D01*
X0239393Y0179340D02*
X0241143Y0179340D01*
X0241702Y0180938D02*
X0238833Y0180938D01*
X0239387Y0182537D02*
X0241148Y0182537D01*
X0240943Y0184135D02*
X0239593Y0184135D01*
X0239593Y0185734D02*
X0240943Y0185734D01*
X0241514Y0187332D02*
X0239021Y0187332D01*
X0232643Y0179340D02*
X0231393Y0179340D01*
X0231393Y0177741D02*
X0232643Y0177741D01*
X0233026Y0176143D02*
X0231010Y0176143D01*
X0253038Y0176143D02*
X0253997Y0176143D01*
X0253997Y0177741D02*
X0253038Y0177741D01*
X0253038Y0174544D02*
X0253997Y0174544D01*
X0287955Y0055102D02*
X0287955Y0054039D01*
X0284018Y0050102D01*
X0272955Y0050102D01*
D38*
X0255018Y0055102D03*
X0162018Y0049102D03*
X0159018Y0057102D03*
X0144018Y0055102D03*
X0129018Y0040102D03*
X0141018Y0039102D03*
X0116518Y0060102D03*
X0104018Y0052102D03*
X0079018Y0040102D03*
X0059018Y0040102D03*
X0049018Y0045102D03*
X0072018Y0067102D03*
X0059018Y0080102D03*
X0055518Y0085602D03*
X0050018Y0092102D03*
X0044018Y0105102D03*
X0064018Y0095102D03*
X0049018Y0075102D03*
X0091018Y0115602D03*
X0109018Y0125102D03*
X0119018Y0125102D03*
X0124018Y0120102D03*
X0139018Y0132602D03*
X0132018Y0150102D03*
X0107018Y0155102D03*
X0119018Y0175102D03*
X0113018Y0180102D03*
X0102018Y0185102D03*
X0099018Y0200102D03*
X0114018Y0200102D03*
X0123018Y0200102D03*
X0114018Y0215102D03*
X0119018Y0225102D03*
X0109018Y0250102D03*
X0162518Y0265602D03*
X0179018Y0271102D03*
X0199018Y0245102D03*
X0173518Y0244602D03*
X0214018Y0205102D03*
X0214018Y0200102D03*
X0209018Y0201102D03*
X0195518Y0198602D03*
X0189018Y0190102D03*
X0204018Y0155102D03*
X0229018Y0205102D03*
X0264018Y0240102D03*
X0294018Y0230102D03*
X0304018Y0215102D03*
X0264018Y0165102D03*
X0149018Y0100102D03*
X0124018Y0095102D03*
X0109018Y0100102D03*
X0069018Y0120102D03*
D39*
X0100268Y0093852D02*
X0100268Y0088852D01*
X0075893Y0081977D02*
X0075893Y0071977D01*
X0075268Y0071352D01*
X0075268Y0065727D02*
X0072768Y0063227D01*
X0052143Y0063227D01*
X0074643Y0083227D02*
X0075893Y0081977D01*
X0244643Y0186352D02*
X0249018Y0190727D01*
X0095278Y0245102D02*
X0088152Y0245102D01*
X0079884Y0245102D02*
X0078411Y0243629D01*
X0078369Y0243585D01*
X0078331Y0243539D01*
X0078295Y0243490D01*
X0078262Y0243439D01*
X0078233Y0243387D01*
X0078206Y0243332D01*
X0078183Y0243277D01*
X0078163Y0243220D01*
X0078147Y0243161D01*
X0078134Y0243102D01*
X0078125Y0243043D01*
X0078120Y0242982D01*
X0078118Y0242922D01*
X0088152Y0255102D02*
X0095278Y0255102D01*
D40*
X0119471Y0234846D02*
X0119471Y0231815D01*
X0134018Y0231815D01*
X0144018Y0231815D02*
X0147305Y0231815D01*
X0149018Y0230102D01*
X0149018Y0226602D01*
X0159018Y0218389D02*
X0154471Y0213842D01*
X0169018Y0218389D02*
X0169018Y0225102D01*
X0174018Y0235102D02*
X0172258Y0236862D01*
X0166518Y0236862D01*
X0166518Y0244342D02*
X0166778Y0244602D01*
X0173518Y0244602D01*
X0179018Y0248252D02*
X0180868Y0248252D01*
X0184018Y0245102D01*
X0184018Y0235102D01*
X0179018Y0248252D02*
X0179018Y0256952D01*
X0169018Y0261362D02*
X0167758Y0260102D01*
X0160599Y0260102D01*
X0159018Y0261683D01*
X0159018Y0265102D01*
X0155730Y0268389D01*
X0154018Y0268389D01*
X0144018Y0268389D02*
X0144018Y0260102D01*
X0139018Y0255102D01*
X0134018Y0255102D01*
X0125278Y0263842D01*
X0120199Y0235575D02*
X0119471Y0234846D01*
X0091624Y0195842D02*
X0085518Y0195842D01*
X0091624Y0195842D02*
X0094018Y0193449D01*
X0094018Y0186756D02*
X0100364Y0186756D01*
X0102018Y0185102D01*
X0089018Y0156362D02*
X0082758Y0150102D01*
X0064018Y0150102D01*
X0059018Y0150102D01*
X0059018Y0159102D01*
X0079018Y0143842D02*
X0085278Y0143842D01*
X0079018Y0136362D02*
X0074018Y0131362D01*
X0074018Y0130102D01*
X0069643Y0130102D02*
X0060643Y0121102D01*
X0100268Y0093852D02*
X0102541Y0096126D01*
X0105918Y0096126D01*
X0124018Y0120102D02*
X0129018Y0125102D01*
X0134018Y0125102D01*
X0134018Y0140102D01*
X0174018Y0126362D02*
X0180278Y0126362D01*
X0184018Y0130102D01*
X0184018Y0140756D01*
X0183018Y0141756D01*
X0174018Y0126362D02*
X0174018Y0105023D01*
X0175041Y0104000D01*
X0184018Y0075260D02*
X0181439Y0072681D01*
X0173860Y0065102D01*
X0169018Y0065102D01*
X0242758Y0045102D02*
X0249018Y0045102D01*
X0249985Y0044135D01*
X0250692Y0043842D02*
X0255081Y0043842D01*
X0250692Y0043842D02*
X0250632Y0043844D01*
X0250571Y0043849D01*
X0250512Y0043858D01*
X0250453Y0043871D01*
X0250394Y0043887D01*
X0250337Y0043907D01*
X0250282Y0043930D01*
X0250227Y0043957D01*
X0250175Y0043986D01*
X0250124Y0044019D01*
X0250075Y0044055D01*
X0250029Y0044093D01*
X0249985Y0044135D01*
X0263349Y0045019D02*
X0263349Y0040102D01*
X0275278Y0040102D01*
X0265018Y0047102D02*
X0265018Y0049950D01*
X0265020Y0049978D01*
X0265025Y0050006D01*
X0265034Y0050032D01*
X0265047Y0050057D01*
X0265062Y0050081D01*
X0265081Y0050102D01*
X0265018Y0047102D02*
X0263641Y0045726D01*
X0263599Y0045682D01*
X0263561Y0045636D01*
X0263525Y0045587D01*
X0263492Y0045536D01*
X0263463Y0045484D01*
X0263436Y0045429D01*
X0263413Y0045374D01*
X0263393Y0045317D01*
X0263377Y0045258D01*
X0263364Y0045199D01*
X0263355Y0045140D01*
X0263350Y0045079D01*
X0263348Y0045019D01*
X0253518Y0178256D02*
X0253321Y0178452D01*
X0244518Y0184752D02*
X0244518Y0186227D01*
X0244643Y0186352D01*
X0244018Y0190102D02*
X0230868Y0190102D01*
X0228018Y0192952D01*
X0236018Y0184952D01*
X0236018Y0184752D01*
X0228018Y0184752D02*
X0224219Y0184752D01*
X0220018Y0188952D01*
X0210018Y0188952D01*
X0207167Y0191803D01*
X0207167Y0195102D01*
X0219018Y0207752D02*
X0219518Y0207752D01*
X0219518Y0208252D02*
X0219018Y0207752D01*
X0235018Y0213949D02*
X0236171Y0213949D01*
X0246018Y0204252D02*
X0250618Y0208852D01*
X0251518Y0208852D01*
X0254018Y0206352D01*
X0254018Y0208852D01*
X0265268Y0220102D01*
X0269018Y0220102D01*
X0274018Y0215102D01*
X0264018Y0205102D02*
X0264018Y0195102D01*
X0254018Y0195102D02*
X0249643Y0190727D01*
X0249018Y0190727D01*
X0254018Y0195102D02*
X0254018Y0206352D01*
X0246167Y0204102D02*
X0246018Y0204252D01*
X0294018Y0230102D02*
X0294018Y0240102D01*
X0289018Y0245102D01*
X0284372Y0245102D01*
X0278782Y0250693D01*
X0179518Y0208602D02*
X0177518Y0208602D01*
X0159018Y0190102D01*
X0159018Y0181815D01*
X0149018Y0181815D02*
X0140490Y0190342D01*
X0136018Y0190342D01*
X0070418Y0215102D02*
X0070418Y0217202D01*
X0070618Y0217402D01*
X0072118Y0083527D02*
X0072418Y0083227D01*
X0074643Y0083227D01*
X0075268Y0071352D02*
X0075268Y0065727D01*
X0077994Y0064078D02*
X0074018Y0060102D01*
X0049018Y0060102D01*
X0034018Y0075102D01*
X0029018Y0075102D01*
X0077994Y0068202D02*
X0077994Y0064078D01*
D41*
X0081018Y0054102D03*
X0090518Y0063602D03*
X0089018Y0074102D03*
X0083518Y0074102D03*
X0083018Y0080602D03*
X0084518Y0090602D03*
X0079018Y0090102D03*
X0064018Y0100102D03*
X0069018Y0105102D03*
X0089018Y0125102D03*
X0094018Y0135102D03*
X0085278Y0143842D03*
X0064018Y0150102D03*
X0044018Y0135102D03*
X0094518Y0096102D03*
X0095018Y0084102D03*
X0139018Y0080102D03*
X0159018Y0065102D03*
X0164018Y0061102D03*
X0169018Y0065102D03*
X0194018Y0055102D03*
X0204018Y0050102D03*
X0249018Y0065102D03*
X0194018Y0125102D03*
X0164018Y0100102D03*
X0150018Y0041102D03*
X0134018Y0175102D03*
X0134018Y0205102D03*
X0149018Y0226602D03*
X0169018Y0225102D03*
X0174018Y0235102D03*
X0184018Y0235102D03*
X0169018Y0250102D03*
X0209018Y0215102D03*
X0223364Y0213949D03*
X0244018Y0210102D03*
X0249018Y0215102D03*
X0244018Y0224102D03*
X0244018Y0240102D03*
X0269018Y0220102D03*
X0275018Y0207102D03*
X0264018Y0205102D03*
X0259018Y0205102D03*
X0264018Y0195102D03*
X0244018Y0190102D03*
X0234018Y0195102D03*
X0214018Y0195102D03*
X0204018Y0186602D03*
X0179518Y0208602D03*
X0284018Y0190102D03*
D42*
X0274018Y0215102D03*
X0181518Y0153102D03*
X0089018Y0040102D03*
D43*
X0114018Y0240102D03*
X0114018Y0250102D03*
D44*
X0179018Y0263252D02*
X0179018Y0271102D01*
X0257518Y0128602D02*
X0257518Y0126287D01*
X0289018Y0094787D01*
X0289018Y0075102D02*
X0264018Y0100102D01*
X0241089Y0100102D01*
X0234018Y0093031D01*
X0234018Y0072602D01*
D45*
X0100268Y0088852D03*
X0052143Y0063227D03*
D46*
X0204018Y0198252D02*
X0207167Y0195102D01*
X0214018Y0195102D01*
X0204018Y0198252D02*
X0204018Y0217173D01*
X0210947Y0224102D01*
X0219518Y0224102D01*
X0223782Y0228366D01*
X0223782Y0230693D01*
D47*
X0284018Y0190102D02*
X0290018Y0184102D01*
X0290018Y0182260D01*
M02*
