G75*
%MOIN*%
%OFA0B0*%
%FSLAX25Y25*%
%IPPOS*%
%LPD*%
%AMOC8*
5,1,8,0,0,1.08239X$1,22.5*
%
%ADD10R,0.06306X0.05518*%
%ADD11R,0.03550X0.02762*%
%ADD12R,0.03550X0.04337*%
%ADD13R,0.04337X0.03550*%
%ADD14OC8,0.06400*%
%ADD15R,0.02600X0.05400*%
%ADD16R,0.05400X0.02600*%
%ADD17C,0.07487*%
%ADD18C,0.06800*%
%ADD19C,0.17400*%
%ADD20R,0.09900X0.09900*%
%ADD21C,0.09900*%
%ADD22R,0.02900X0.05400*%
%ADD23R,0.07408X0.06384*%
%ADD24R,0.03943X0.03550*%
%ADD25R,0.05518X0.06699*%
%ADD26R,0.06699X0.05518*%
%ADD27R,0.03943X0.03746*%
%ADD28C,0.05600*%
%ADD29C,0.07450*%
%ADD30C,0.07487*%
%ADD31R,0.08700X0.05900*%
%ADD32C,0.08200*%
%ADD33R,0.05124X0.05124*%
%ADD34R,0.21660X0.24809*%
%ADD35R,0.04337X0.06699*%
D10*
X0074167Y0128639D03*
X0074167Y0136119D03*
X0059167Y0163639D03*
X0059167Y0171119D03*
X0049167Y0170725D03*
X0049167Y0164032D03*
X0039167Y0164032D03*
X0039167Y0170725D03*
X0079167Y0189032D03*
X0079167Y0195725D03*
X0220167Y0204532D03*
X0220167Y0211225D03*
X0238667Y0187225D03*
X0238667Y0180532D03*
D11*
X0229667Y0180729D03*
X0229667Y0187028D03*
X0221167Y0187028D03*
X0221167Y0180729D03*
X0213167Y0180729D03*
X0213167Y0187028D03*
X0213167Y0195229D03*
X0213167Y0201528D03*
X0205167Y0197528D03*
X0205167Y0191229D03*
X0231167Y0200229D03*
X0231167Y0206528D03*
X0164167Y0244229D03*
X0164167Y0250528D03*
X0164167Y0259229D03*
X0164167Y0265528D03*
D12*
X0259167Y0081316D03*
X0259167Y0073442D03*
D13*
X0260230Y0087379D03*
X0268104Y0087379D03*
D14*
X0139167Y0142379D03*
X0129167Y0142379D03*
X0119167Y0142379D03*
X0109167Y0142379D03*
X0099167Y0142379D03*
X0089167Y0142379D03*
D15*
X0085190Y0104279D03*
X0082041Y0104279D03*
X0078891Y0104279D03*
X0075741Y0104279D03*
X0072592Y0104279D03*
X0069442Y0104279D03*
X0066293Y0104279D03*
X0063143Y0104279D03*
X0063143Y0070479D03*
X0066293Y0070479D03*
X0069442Y0070479D03*
X0072592Y0070479D03*
X0075741Y0070479D03*
X0078891Y0070479D03*
X0082041Y0070479D03*
X0085190Y0070479D03*
D16*
X0091067Y0076355D03*
X0091067Y0079505D03*
X0091067Y0082654D03*
X0091067Y0085804D03*
X0091067Y0088954D03*
X0091067Y0092103D03*
X0091067Y0095253D03*
X0091067Y0098402D03*
X0057267Y0098402D03*
X0057267Y0095253D03*
X0057267Y0092103D03*
X0057267Y0088954D03*
X0057267Y0085804D03*
X0057267Y0082654D03*
X0057267Y0079505D03*
X0057267Y0076355D03*
D17*
X0174167Y0223835D02*
X0174167Y0230922D01*
X0184167Y0230922D02*
X0184167Y0223835D01*
X0194167Y0223835D02*
X0194167Y0230922D01*
X0204167Y0230922D02*
X0204167Y0223835D01*
X0214167Y0223835D02*
X0214167Y0230922D01*
X0224167Y0230922D02*
X0224167Y0223835D01*
X0234167Y0223835D02*
X0234167Y0230922D01*
X0244167Y0230922D02*
X0244167Y0223835D01*
X0239167Y0243835D02*
X0239167Y0250922D01*
X0229167Y0250922D02*
X0229167Y0243835D01*
X0219167Y0243835D02*
X0219167Y0250922D01*
X0209167Y0250922D02*
X0209167Y0243835D01*
X0199167Y0243835D02*
X0199167Y0250922D01*
X0189167Y0250922D02*
X0189167Y0243835D01*
X0179167Y0243835D02*
X0179167Y0250922D01*
D18*
X0139167Y0127379D03*
X0139167Y0117379D03*
X0129167Y0117379D03*
X0119167Y0117379D03*
X0119167Y0127379D03*
X0129167Y0127379D03*
D19*
X0028167Y0247694D03*
X0046671Y0259505D03*
X0028167Y0271316D03*
D20*
X0274167Y0117379D03*
D21*
X0274167Y0137064D03*
X0274167Y0156749D03*
D22*
X0270938Y0077379D03*
X0267395Y0077379D03*
D23*
X0154167Y0184091D03*
X0144167Y0184091D03*
X0134167Y0184091D03*
X0134167Y0220666D03*
X0144167Y0220666D03*
X0154167Y0220666D03*
X0139167Y0234091D03*
X0129167Y0234091D03*
X0119167Y0234091D03*
X0119167Y0270666D03*
X0129167Y0270666D03*
X0139167Y0270666D03*
D24*
X0283104Y0071119D03*
X0283104Y0063639D03*
X0274836Y0067379D03*
D25*
X0267907Y0067379D03*
X0260427Y0067379D03*
X0260427Y0057379D03*
X0267907Y0057379D03*
X0087907Y0247379D03*
X0080427Y0247379D03*
X0080427Y0257379D03*
X0087907Y0257379D03*
D26*
X0104167Y0258639D03*
X0104167Y0266119D03*
X0105348Y0245331D03*
X0105348Y0237851D03*
X0119167Y0216119D03*
X0119167Y0208639D03*
X0121167Y0192619D03*
X0121167Y0185139D03*
X0070667Y0190639D03*
X0070667Y0198119D03*
X0151667Y0239139D03*
X0151667Y0246619D03*
X0154167Y0263639D03*
X0154167Y0271119D03*
X0180667Y0213119D03*
X0180667Y0205639D03*
X0247167Y0188119D03*
X0247167Y0180639D03*
D27*
X0074167Y0179662D03*
X0074167Y0175095D03*
X0065167Y0176662D03*
X0065167Y0172095D03*
D28*
X0016767Y0017379D02*
X0011567Y0017379D01*
X0011567Y0027379D02*
X0016767Y0027379D01*
X0016767Y0037379D02*
X0011567Y0037379D01*
X0011567Y0047379D02*
X0016767Y0047379D01*
X0016767Y0057379D02*
X0011567Y0057379D01*
X0011567Y0067379D02*
X0016767Y0067379D01*
X0016767Y0077379D02*
X0011567Y0077379D01*
X0011567Y0087379D02*
X0016767Y0087379D01*
X0016767Y0097379D02*
X0011567Y0097379D01*
X0011567Y0107379D02*
X0016767Y0107379D01*
X0016767Y0117379D02*
X0011567Y0117379D01*
X0011567Y0127379D02*
X0016767Y0127379D01*
X0016767Y0137379D02*
X0011567Y0137379D01*
X0011567Y0147379D02*
X0016767Y0147379D01*
X0016767Y0157379D02*
X0011567Y0157379D01*
X0011567Y0167379D02*
X0016767Y0167379D01*
X0016767Y0177379D02*
X0011567Y0177379D01*
X0011567Y0187379D02*
X0016767Y0187379D01*
X0016767Y0197379D02*
X0011567Y0197379D01*
X0011567Y0207379D02*
X0016767Y0207379D01*
D29*
X0034482Y0030825D02*
X0034482Y0023775D01*
X0054167Y0023775D02*
X0054167Y0030825D01*
X0073852Y0030825D02*
X0073852Y0023775D01*
X0099482Y0023775D02*
X0099482Y0030825D01*
X0119167Y0030825D02*
X0119167Y0023775D01*
X0138852Y0023775D02*
X0138852Y0030825D01*
X0164482Y0030825D02*
X0164482Y0023775D01*
X0184167Y0023775D02*
X0184167Y0030825D01*
X0203852Y0030825D02*
X0203852Y0023775D01*
X0229482Y0023775D02*
X0229482Y0030825D01*
X0249167Y0030825D02*
X0249167Y0023775D01*
X0268852Y0023775D02*
X0268852Y0030825D01*
X0270642Y0187536D02*
X0277692Y0187536D01*
X0277692Y0207221D02*
X0270642Y0207221D01*
X0270642Y0227536D02*
X0277692Y0227536D01*
X0277692Y0247221D02*
X0270642Y0247221D01*
D30*
X0058667Y0142379D03*
X0039667Y0142379D03*
D31*
X0053267Y0219679D03*
X0053267Y0237379D03*
X0089167Y0237379D03*
X0089167Y0219679D03*
D32*
X0195667Y0154779D02*
X0195667Y0146979D01*
X0195667Y0106779D02*
X0195667Y0098979D01*
X0219167Y0098779D02*
X0219167Y0090979D01*
X0242667Y0098979D02*
X0242667Y0106779D01*
X0242667Y0146979D02*
X0242667Y0154779D01*
D33*
X0260033Y0097379D03*
X0268301Y0097379D03*
X0073301Y0247379D03*
X0065033Y0247379D03*
X0065033Y0257379D03*
X0073301Y0257379D03*
D34*
X0169167Y0077536D03*
D35*
X0178143Y0106276D03*
X0160190Y0106276D03*
M02*
