G75*
%MOIN*%
%OFA0B0*%
%FSLAX25Y25*%
%IPPOS*%
%LPD*%
%AMOC8*
5,1,8,0,0,1.08239X$1,22.5*
%
%ADD10C,0.00000*%
%ADD11OC8,0.06400*%
%ADD12C,0.07487*%
%ADD13C,0.06800*%
%ADD14C,0.17400*%
%ADD15R,0.09900X0.09900*%
%ADD16C,0.09900*%
%ADD17C,0.07450*%
%ADD18C,0.08200*%
%ADD19R,0.08400X0.08400*%
%ADD20C,0.08400*%
%ADD21C,0.05600*%
D10*
X0004167Y0001800D02*
X0004167Y0275501D01*
X0294088Y0275501D01*
X0294088Y0001800D01*
X0004167Y0001800D01*
D11*
X0089167Y0136800D03*
X0099167Y0136800D03*
X0109167Y0136800D03*
X0119167Y0136800D03*
X0129167Y0136800D03*
X0139167Y0136800D03*
D12*
X0174167Y0218257D02*
X0174167Y0225343D01*
X0184167Y0225343D02*
X0184167Y0218257D01*
X0194167Y0218257D02*
X0194167Y0225343D01*
X0204167Y0225343D02*
X0204167Y0218257D01*
X0214167Y0218257D02*
X0214167Y0225343D01*
X0224167Y0225343D02*
X0224167Y0218257D01*
X0234167Y0218257D02*
X0234167Y0225343D01*
X0244167Y0225343D02*
X0244167Y0218257D01*
X0239167Y0238257D02*
X0239167Y0245343D01*
X0229167Y0245343D02*
X0229167Y0238257D01*
X0219167Y0238257D02*
X0219167Y0245343D01*
X0209167Y0245343D02*
X0209167Y0238257D01*
X0199167Y0238257D02*
X0199167Y0245343D01*
X0189167Y0245343D02*
X0189167Y0238257D01*
X0179167Y0238257D02*
X0179167Y0245343D01*
D13*
X0139167Y0121800D03*
X0139167Y0111800D03*
X0129167Y0111800D03*
X0119167Y0111800D03*
X0119167Y0121800D03*
X0129167Y0121800D03*
D14*
X0032667Y0221363D03*
X0014163Y0233174D03*
X0032667Y0244985D03*
D15*
X0274167Y0111800D03*
D16*
X0274167Y0131485D03*
X0274167Y0151170D03*
D17*
X0277692Y0181957D02*
X0270642Y0181957D01*
X0270642Y0201643D02*
X0277692Y0201643D01*
X0277692Y0221957D02*
X0270642Y0221957D01*
X0270642Y0241643D02*
X0277692Y0241643D01*
D18*
X0242667Y0149200D02*
X0242667Y0141400D01*
X0242667Y0101200D02*
X0242667Y0093400D01*
X0219167Y0093200D02*
X0219167Y0085400D01*
X0195667Y0093400D02*
X0195667Y0101200D01*
X0195667Y0141400D02*
X0195667Y0149200D01*
D19*
X0193467Y0016800D03*
X0238467Y0016800D03*
X0148467Y0016800D03*
X0103467Y0016800D03*
X0057967Y0016800D03*
X0013167Y0016800D03*
D20*
X0027646Y0016800D03*
X0042126Y0016800D03*
X0072446Y0016800D03*
X0086926Y0016800D03*
X0117946Y0016800D03*
X0132426Y0016800D03*
X0162946Y0016800D03*
X0177426Y0016800D03*
X0207946Y0016800D03*
X0222426Y0016800D03*
X0252946Y0016800D03*
X0267426Y0016800D03*
D21*
X0016767Y0051800D02*
X0011567Y0051800D01*
X0011567Y0061800D02*
X0016767Y0061800D01*
X0016767Y0071800D02*
X0011567Y0071800D01*
X0011567Y0081800D02*
X0016767Y0081800D01*
X0016767Y0091800D02*
X0011567Y0091800D01*
X0011567Y0101800D02*
X0016767Y0101800D01*
X0016767Y0111800D02*
X0011567Y0111800D01*
X0011567Y0121800D02*
X0016767Y0121800D01*
X0016767Y0131800D02*
X0011567Y0131800D01*
X0011567Y0141800D02*
X0016767Y0141800D01*
X0016767Y0151800D02*
X0011567Y0151800D01*
X0011567Y0161800D02*
X0016767Y0161800D01*
X0016767Y0171800D02*
X0011567Y0171800D01*
X0011567Y0181800D02*
X0016767Y0181800D01*
X0016767Y0191800D02*
X0011567Y0191800D01*
X0011567Y0201800D02*
X0016767Y0201800D01*
M02*
