G75*
%MOIN*%
%OFA0B0*%
%FSLAX25Y25*%
%IPPOS*%
%LPD*%
%AMOC8*
5,1,8,0,0,1.08239X$1,22.5*
%
%ADD10C,0.02400*%
%ADD11R,0.06306X0.05518*%
%ADD12R,0.05518X0.06306*%
%ADD13R,0.03550X0.02762*%
%ADD14R,0.04337X0.03550*%
%ADD15OC8,0.06400*%
%ADD16R,0.02600X0.05400*%
%ADD17R,0.05400X0.02600*%
%ADD18C,0.07487*%
%ADD19C,0.06800*%
%ADD20C,0.17400*%
%ADD21R,0.09900X0.09900*%
%ADD22C,0.09900*%
%ADD23R,0.07408X0.06384*%
%ADD24R,0.03943X0.03550*%
%ADD25R,0.05518X0.06699*%
%ADD26R,0.06699X0.05518*%
%ADD27R,0.03746X0.03943*%
%ADD28C,0.07450*%
%ADD29R,0.08000X0.21400*%
%ADD30R,0.08700X0.05900*%
%ADD31C,0.08200*%
%ADD32R,0.05124X0.05124*%
%ADD33R,0.21660X0.24809*%
%ADD34R,0.04337X0.06699*%
%ADD35R,0.08400X0.08400*%
%ADD36C,0.08400*%
%ADD37C,0.05600*%
D10*
X0210167Y0248800D03*
X0289167Y0249800D03*
D11*
X0220167Y0210646D03*
X0220167Y0203954D03*
X0238667Y0181646D03*
X0238667Y0174954D03*
X0168167Y0145146D03*
X0168167Y0138454D03*
X0079167Y0183454D03*
X0079167Y0190146D03*
X0074167Y0160540D03*
X0074167Y0153060D03*
X0064167Y0140540D03*
X0064167Y0133060D03*
D12*
X0170820Y0111800D03*
X0177513Y0111800D03*
D13*
X0213167Y0175150D03*
X0213167Y0181450D03*
X0221167Y0181450D03*
X0221167Y0175150D03*
X0229667Y0175150D03*
X0229667Y0181450D03*
X0231167Y0194650D03*
X0231167Y0200950D03*
X0213167Y0195950D03*
X0213167Y0189650D03*
X0205167Y0191950D03*
X0205167Y0185650D03*
X0164167Y0238650D03*
X0164167Y0244950D03*
X0164167Y0253650D03*
X0164167Y0259950D03*
D14*
X0265230Y0051800D03*
X0258104Y0046800D03*
X0250230Y0046800D03*
X0273104Y0051800D03*
D15*
X0139167Y0136800D03*
X0129167Y0136800D03*
X0119167Y0136800D03*
X0109167Y0136800D03*
X0099167Y0136800D03*
X0089167Y0136800D03*
D16*
X0085190Y0098700D03*
X0082041Y0098700D03*
X0078891Y0098700D03*
X0075741Y0098700D03*
X0072592Y0098700D03*
X0069442Y0098700D03*
X0066293Y0098700D03*
X0063143Y0098700D03*
X0063143Y0064900D03*
X0066293Y0064900D03*
X0069442Y0064900D03*
X0072592Y0064900D03*
X0075741Y0064900D03*
X0078891Y0064900D03*
X0082041Y0064900D03*
X0085190Y0064900D03*
D17*
X0091067Y0070776D03*
X0091067Y0073926D03*
X0091067Y0077076D03*
X0091067Y0080225D03*
X0091067Y0083375D03*
X0091067Y0086524D03*
X0091067Y0089674D03*
X0091067Y0092824D03*
X0057267Y0092824D03*
X0057267Y0089674D03*
X0057267Y0086524D03*
X0057267Y0083375D03*
X0057267Y0080225D03*
X0057267Y0077076D03*
X0057267Y0073926D03*
X0057267Y0070776D03*
D18*
X0214167Y0233257D02*
X0214167Y0240343D01*
X0224167Y0240343D02*
X0224167Y0233257D01*
X0234167Y0233257D02*
X0234167Y0240343D01*
X0244167Y0240343D02*
X0244167Y0233257D01*
X0254167Y0233257D02*
X0254167Y0240343D01*
X0264167Y0240343D02*
X0264167Y0233257D01*
X0274167Y0233257D02*
X0274167Y0240343D01*
X0284167Y0240343D02*
X0284167Y0233257D01*
X0279167Y0253257D02*
X0279167Y0260343D01*
X0269167Y0260343D02*
X0269167Y0253257D01*
X0259167Y0253257D02*
X0259167Y0260343D01*
X0249167Y0260343D02*
X0249167Y0253257D01*
X0239167Y0253257D02*
X0239167Y0260343D01*
X0229167Y0260343D02*
X0229167Y0253257D01*
X0219167Y0253257D02*
X0219167Y0260343D01*
D19*
X0139167Y0121800D03*
X0139167Y0111800D03*
X0129167Y0111800D03*
X0119167Y0111800D03*
X0119167Y0121800D03*
X0129167Y0121800D03*
D20*
X0032667Y0221363D03*
X0014163Y0233174D03*
X0032667Y0244985D03*
D21*
X0274167Y0071800D03*
D22*
X0274167Y0091485D03*
X0274167Y0111170D03*
D23*
X0154167Y0178513D03*
X0144167Y0178513D03*
X0134167Y0178513D03*
X0134167Y0215087D03*
X0144167Y0215087D03*
X0154167Y0215087D03*
X0139167Y0228513D03*
X0129167Y0228513D03*
X0119167Y0228513D03*
X0119167Y0265087D03*
X0129167Y0265087D03*
X0139167Y0265087D03*
D24*
X0240230Y0040540D03*
X0248497Y0036800D03*
X0240230Y0033060D03*
D25*
X0227907Y0041800D03*
X0220427Y0041800D03*
X0260427Y0036800D03*
X0267907Y0036800D03*
X0132907Y0166800D03*
X0125427Y0166800D03*
X0087907Y0241800D03*
X0080427Y0241800D03*
X0080427Y0251800D03*
X0087907Y0251800D03*
D26*
X0105348Y0239753D03*
X0105348Y0232272D03*
X0121667Y0215040D03*
X0121667Y0207560D03*
X0121167Y0187040D03*
X0121167Y0179560D03*
X0070667Y0185060D03*
X0070667Y0192540D03*
X0151667Y0233560D03*
X0151667Y0241040D03*
X0154167Y0258060D03*
X0154167Y0265540D03*
X0180667Y0207540D03*
X0180667Y0200060D03*
X0247167Y0182540D03*
X0247167Y0175060D03*
X0159167Y0130540D03*
X0159167Y0123060D03*
D27*
X0194883Y0072800D03*
X0199450Y0072800D03*
D28*
X0271642Y0138957D02*
X0278692Y0138957D01*
X0278692Y0158643D02*
X0271642Y0158643D01*
X0271642Y0178957D02*
X0278692Y0178957D01*
X0278692Y0198643D02*
X0271642Y0198643D01*
D29*
X0044167Y0155800D03*
X0044167Y0117800D03*
D30*
X0055767Y0214100D03*
X0055767Y0231800D03*
X0091667Y0231800D03*
X0091667Y0214100D03*
D31*
X0195667Y0149200D02*
X0195667Y0141400D01*
X0195667Y0101200D02*
X0195667Y0093400D01*
X0219167Y0093200D02*
X0219167Y0085400D01*
X0242667Y0093400D02*
X0242667Y0101200D01*
X0242667Y0141400D02*
X0242667Y0149200D01*
D32*
X0286667Y0045434D03*
X0286667Y0037166D03*
X0073301Y0241800D03*
X0065033Y0241800D03*
X0065033Y0251800D03*
X0073301Y0251800D03*
D33*
X0169167Y0071957D03*
D34*
X0178143Y0100698D03*
X0160190Y0100698D03*
D35*
X0013167Y0016800D03*
X0057967Y0016800D03*
X0103467Y0016800D03*
X0148467Y0016800D03*
X0193467Y0016800D03*
X0238467Y0016800D03*
D36*
X0252946Y0016800D03*
X0267426Y0016800D03*
X0222426Y0016800D03*
X0207946Y0016800D03*
X0177426Y0016800D03*
X0162946Y0016800D03*
X0132426Y0016800D03*
X0117946Y0016800D03*
X0086926Y0016800D03*
X0072446Y0016800D03*
X0042126Y0016800D03*
X0027646Y0016800D03*
D37*
X0016767Y0051800D02*
X0011567Y0051800D01*
X0011567Y0061800D02*
X0016767Y0061800D01*
X0016767Y0071800D02*
X0011567Y0071800D01*
X0011567Y0081800D02*
X0016767Y0081800D01*
X0016767Y0091800D02*
X0011567Y0091800D01*
X0011567Y0101800D02*
X0016767Y0101800D01*
X0016767Y0111800D02*
X0011567Y0111800D01*
X0011567Y0121800D02*
X0016767Y0121800D01*
X0016767Y0131800D02*
X0011567Y0131800D01*
X0011567Y0141800D02*
X0016767Y0141800D01*
X0016767Y0151800D02*
X0011567Y0151800D01*
X0011567Y0161800D02*
X0016767Y0161800D01*
X0016767Y0171800D02*
X0011567Y0171800D01*
X0011567Y0181800D02*
X0016767Y0181800D01*
X0016767Y0191800D02*
X0011567Y0191800D01*
X0011567Y0201800D02*
X0016767Y0201800D01*
M02*
