G75*
%MOIN*%
%OFA0B0*%
%FSLAX25Y25*%
%IPPOS*%
%LPD*%
%AMOC8*
5,1,8,0,0,1.08239X$1,22.5*
%
%ADD10C,0.00100*%
%ADD11C,0.01000*%
%ADD12C,0.00300*%
%ADD13C,0.00500*%
%ADD14C,0.00400*%
%ADD15C,0.00200*%
%ADD16C,0.00000*%
%ADD17C,0.00600*%
%ADD18R,0.74606X0.06594*%
%ADD19C,0.00800*%
%ADD20C,0.02174*%
%ADD21R,0.01600X0.02800*%
%ADD22R,0.01181X0.00591*%
%ADD23R,0.01181X0.01181*%
%ADD24R,0.00591X0.01181*%
%ADD25R,0.03400X0.03000*%
D10*
X0033450Y0031584D02*
X0033684Y0031350D01*
X0033450Y0031584D02*
X0033450Y0032518D01*
X0033217Y0032284D02*
X0033684Y0032284D01*
X0034137Y0032051D02*
X0034371Y0032284D01*
X0034838Y0032284D01*
X0035072Y0032051D01*
X0035072Y0031817D01*
X0034137Y0031817D01*
X0034137Y0031584D02*
X0034137Y0032051D01*
X0034137Y0031584D02*
X0034371Y0031350D01*
X0034838Y0031350D01*
X0035519Y0031350D02*
X0035519Y0032284D01*
X0035752Y0032284D01*
X0035986Y0032051D01*
X0036219Y0032284D01*
X0036453Y0032051D01*
X0036453Y0031350D01*
X0036900Y0031350D02*
X0037600Y0031350D01*
X0037834Y0031584D01*
X0037834Y0032051D01*
X0037600Y0032284D01*
X0036900Y0032284D01*
X0036900Y0030883D01*
X0035986Y0031350D02*
X0035986Y0032051D01*
X0039662Y0032051D02*
X0039896Y0032284D01*
X0040596Y0032284D01*
X0041043Y0032051D02*
X0041277Y0032284D01*
X0041744Y0032284D01*
X0041977Y0032051D01*
X0041977Y0031817D01*
X0041043Y0031817D01*
X0041043Y0031584D02*
X0041043Y0032051D01*
X0041043Y0031584D02*
X0041277Y0031350D01*
X0041744Y0031350D01*
X0042424Y0031350D02*
X0042424Y0032284D01*
X0043125Y0032284D01*
X0043359Y0032051D01*
X0043359Y0031350D01*
X0043806Y0031350D02*
X0044506Y0031350D01*
X0044740Y0031584D01*
X0044506Y0031817D01*
X0044039Y0031817D01*
X0043806Y0032051D01*
X0044039Y0032284D01*
X0044740Y0032284D01*
X0045187Y0032051D02*
X0045187Y0031584D01*
X0045420Y0031350D01*
X0045887Y0031350D01*
X0046121Y0031584D01*
X0046121Y0032051D01*
X0045887Y0032284D01*
X0045420Y0032284D01*
X0045187Y0032051D01*
X0046568Y0032284D02*
X0046568Y0031350D01*
X0046568Y0031817D02*
X0047035Y0032284D01*
X0047269Y0032284D01*
X0040596Y0031584D02*
X0040363Y0031817D01*
X0039896Y0031817D01*
X0039662Y0032051D01*
X0039662Y0031350D02*
X0040363Y0031350D01*
X0040596Y0031584D01*
X0069999Y0031814D02*
X0069999Y0030413D01*
X0069999Y0030880D02*
X0070700Y0030880D01*
X0070933Y0031114D01*
X0070933Y0031581D01*
X0070700Y0031814D01*
X0069999Y0031814D01*
X0071381Y0031581D02*
X0071614Y0031814D01*
X0072081Y0031814D01*
X0072315Y0031581D01*
X0072315Y0030880D01*
X0072762Y0031114D02*
X0072995Y0030880D01*
X0073462Y0030880D01*
X0073696Y0031114D01*
X0073696Y0031581D01*
X0073462Y0031814D01*
X0072995Y0031814D01*
X0072762Y0031581D01*
X0072762Y0031114D01*
X0071381Y0030880D02*
X0071381Y0032281D01*
X0074143Y0031814D02*
X0074610Y0031814D01*
X0074376Y0032048D02*
X0074376Y0031114D01*
X0074610Y0030880D01*
X0075064Y0031114D02*
X0075297Y0030880D01*
X0075764Y0030880D01*
X0075998Y0031114D01*
X0075998Y0031581D01*
X0075764Y0031814D01*
X0075297Y0031814D01*
X0075064Y0031581D01*
X0075064Y0031114D01*
X0076445Y0031347D02*
X0076912Y0031814D01*
X0077145Y0031814D01*
X0077596Y0031581D02*
X0077829Y0031814D01*
X0078296Y0031814D01*
X0078530Y0031581D01*
X0078530Y0031347D01*
X0077596Y0031347D01*
X0077596Y0031114D02*
X0077596Y0031581D01*
X0077596Y0031114D02*
X0077829Y0030880D01*
X0078296Y0030880D01*
X0078977Y0030880D02*
X0079678Y0030880D01*
X0079911Y0031114D01*
X0079678Y0031347D01*
X0079211Y0031347D01*
X0078977Y0031581D01*
X0079211Y0031814D01*
X0079911Y0031814D01*
X0080358Y0031814D02*
X0080592Y0031814D01*
X0080592Y0030880D01*
X0080825Y0030880D02*
X0080358Y0030880D01*
X0081279Y0030880D02*
X0081980Y0030880D01*
X0082213Y0031114D01*
X0081980Y0031347D01*
X0081512Y0031347D01*
X0081279Y0031581D01*
X0081512Y0031814D01*
X0082213Y0031814D01*
X0082660Y0031814D02*
X0083127Y0031814D01*
X0082894Y0032048D02*
X0082894Y0031114D01*
X0083127Y0030880D01*
X0083581Y0031114D02*
X0083814Y0030880D01*
X0084281Y0030880D01*
X0084515Y0031114D01*
X0084515Y0031581D01*
X0084281Y0031814D01*
X0083814Y0031814D01*
X0083581Y0031581D01*
X0083581Y0031114D01*
X0084962Y0031347D02*
X0085429Y0031814D01*
X0085663Y0031814D01*
X0084962Y0031814D02*
X0084962Y0030880D01*
X0087494Y0031347D02*
X0088428Y0031347D01*
X0088428Y0031814D02*
X0088195Y0031814D01*
X0087494Y0031814D01*
X0087728Y0032281D02*
X0087728Y0030880D01*
X0088195Y0030880D02*
X0088195Y0032281D01*
X0088875Y0031814D02*
X0089342Y0032281D01*
X0089342Y0030880D01*
X0088875Y0030880D02*
X0089810Y0030880D01*
X0097487Y0030843D02*
X0097487Y0032244D01*
X0098187Y0032244D01*
X0098421Y0032011D01*
X0098421Y0031544D01*
X0098187Y0031310D01*
X0097487Y0031310D01*
X0098868Y0031310D02*
X0098868Y0032711D01*
X0099101Y0032244D02*
X0099568Y0032244D01*
X0099802Y0032011D01*
X0099802Y0031310D01*
X0100249Y0031544D02*
X0100483Y0031310D01*
X0100950Y0031310D01*
X0101183Y0031544D01*
X0101183Y0032011D01*
X0100950Y0032244D01*
X0100483Y0032244D01*
X0100249Y0032011D01*
X0100249Y0031544D01*
X0099101Y0032244D02*
X0098868Y0032011D01*
X0101630Y0032244D02*
X0102097Y0032244D01*
X0101864Y0032478D02*
X0101864Y0031544D01*
X0102097Y0031310D01*
X0102551Y0031544D02*
X0102784Y0031310D01*
X0103252Y0031310D01*
X0103485Y0031544D01*
X0103485Y0032011D01*
X0103252Y0032244D01*
X0102784Y0032244D01*
X0102551Y0032011D01*
X0102551Y0031544D01*
X0103932Y0031777D02*
X0104399Y0032244D01*
X0104633Y0032244D01*
X0105083Y0032011D02*
X0105317Y0032244D01*
X0105784Y0032244D01*
X0106017Y0032011D01*
X0106017Y0031777D01*
X0105083Y0031777D01*
X0105083Y0031544D02*
X0105083Y0032011D01*
X0105083Y0031544D02*
X0105317Y0031310D01*
X0105784Y0031310D01*
X0106464Y0031310D02*
X0107165Y0031310D01*
X0107398Y0031544D01*
X0107165Y0031777D01*
X0106698Y0031777D01*
X0106464Y0032011D01*
X0106698Y0032244D01*
X0107398Y0032244D01*
X0107845Y0032244D02*
X0108079Y0032244D01*
X0108079Y0031310D01*
X0107845Y0031310D02*
X0108313Y0031310D01*
X0108766Y0031310D02*
X0109467Y0031310D01*
X0109700Y0031544D01*
X0109467Y0031777D01*
X0109000Y0031777D01*
X0108766Y0032011D01*
X0109000Y0032244D01*
X0109700Y0032244D01*
X0110147Y0032244D02*
X0110614Y0032244D01*
X0110381Y0032478D02*
X0110381Y0031544D01*
X0110614Y0031310D01*
X0111068Y0031544D02*
X0111302Y0031310D01*
X0111769Y0031310D01*
X0112002Y0031544D01*
X0112002Y0032011D01*
X0111769Y0032244D01*
X0111302Y0032244D01*
X0111068Y0032011D01*
X0111068Y0031544D01*
X0112449Y0031777D02*
X0112916Y0032244D01*
X0113150Y0032244D01*
X0112449Y0032244D02*
X0112449Y0031310D01*
X0114982Y0031777D02*
X0115916Y0031777D01*
X0115916Y0032244D02*
X0115682Y0032244D01*
X0114982Y0032244D01*
X0115215Y0032711D02*
X0115215Y0031310D01*
X0115682Y0031310D02*
X0115682Y0032711D01*
X0116363Y0032478D02*
X0116596Y0032711D01*
X0117063Y0032711D01*
X0117297Y0032478D01*
X0117297Y0032244D01*
X0116363Y0031310D01*
X0117297Y0031310D01*
X0108079Y0032711D02*
X0108079Y0032945D01*
X0103932Y0032244D02*
X0103932Y0031310D01*
X0080592Y0032281D02*
X0080592Y0032515D01*
X0076445Y0031814D02*
X0076445Y0030880D01*
X0080655Y0069340D02*
X0080422Y0069574D01*
X0080655Y0069340D02*
X0081123Y0069340D01*
X0081356Y0069574D01*
X0081356Y0069807D01*
X0081123Y0070041D01*
X0080889Y0070041D01*
X0081123Y0070041D02*
X0081356Y0070274D01*
X0081356Y0070508D01*
X0081123Y0070741D01*
X0080655Y0070741D01*
X0080422Y0070508D01*
X0081803Y0070508D02*
X0082037Y0070741D01*
X0082504Y0070741D01*
X0082737Y0070508D01*
X0082737Y0070274D01*
X0081803Y0069340D01*
X0082737Y0069340D01*
X0083184Y0069574D02*
X0083184Y0069807D01*
X0083418Y0070041D01*
X0083885Y0070041D01*
X0084118Y0069807D01*
X0084118Y0069574D01*
X0083885Y0069340D01*
X0083418Y0069340D01*
X0083184Y0069574D01*
X0083418Y0070041D02*
X0083184Y0070274D01*
X0083184Y0070508D01*
X0083418Y0070741D01*
X0083885Y0070741D01*
X0084118Y0070508D01*
X0084118Y0070274D01*
X0083885Y0070041D01*
X0084565Y0070274D02*
X0084565Y0068873D01*
X0084565Y0069340D02*
X0085266Y0069340D01*
X0085500Y0069574D01*
X0085500Y0070041D01*
X0085266Y0070274D01*
X0084565Y0070274D01*
X0117547Y0104670D02*
X0117547Y0105604D01*
X0117780Y0105604D01*
X0118014Y0105371D01*
X0118247Y0105604D01*
X0118481Y0105371D01*
X0118481Y0104670D01*
X0118928Y0104670D02*
X0119395Y0104670D01*
X0119161Y0104670D02*
X0119161Y0105604D01*
X0118928Y0105604D01*
X0119161Y0106071D02*
X0119161Y0106305D01*
X0120082Y0105604D02*
X0120783Y0105604D01*
X0121230Y0105371D02*
X0121230Y0104904D01*
X0121463Y0104670D01*
X0121930Y0104670D01*
X0122164Y0104904D01*
X0122164Y0105371D01*
X0121930Y0105604D01*
X0121463Y0105604D01*
X0121230Y0105371D01*
X0120783Y0104904D02*
X0120549Y0105137D01*
X0120082Y0105137D01*
X0119849Y0105371D01*
X0120082Y0105604D01*
X0119849Y0104670D02*
X0120549Y0104670D01*
X0120783Y0104904D01*
X0118014Y0104670D02*
X0118014Y0105371D01*
X0125933Y0105041D02*
X0126167Y0105274D01*
X0126867Y0105274D01*
X0127314Y0105041D02*
X0127314Y0104574D01*
X0127548Y0104340D01*
X0128249Y0104340D01*
X0128696Y0104340D02*
X0128696Y0105741D01*
X0128249Y0105274D02*
X0127548Y0105274D01*
X0127314Y0105041D01*
X0126867Y0104574D02*
X0126634Y0104807D01*
X0126167Y0104807D01*
X0125933Y0105041D01*
X0125933Y0104340D02*
X0126634Y0104340D01*
X0126867Y0104574D01*
X0128696Y0104807D02*
X0129396Y0105274D01*
X0128696Y0104807D02*
X0129396Y0104340D01*
X0137274Y0104290D02*
X0137274Y0105224D01*
X0137741Y0105224D02*
X0137974Y0105224D01*
X0137741Y0105224D02*
X0137274Y0104757D01*
X0138425Y0104991D02*
X0138658Y0105224D01*
X0139359Y0105224D01*
X0139806Y0105224D02*
X0140273Y0105224D01*
X0140039Y0105458D02*
X0140039Y0104524D01*
X0140273Y0104290D01*
X0139359Y0104524D02*
X0139125Y0104757D01*
X0138658Y0104757D01*
X0138425Y0104991D01*
X0138425Y0104290D02*
X0139125Y0104290D01*
X0139359Y0104524D01*
X0144825Y0116640D02*
X0144825Y0117140D01*
X0144825Y0116890D02*
X0146327Y0116890D01*
X0146327Y0116640D02*
X0146327Y0117140D01*
X0146076Y0117622D02*
X0146327Y0117872D01*
X0146327Y0118373D01*
X0146076Y0118623D01*
X0146076Y0119095D02*
X0146327Y0119346D01*
X0146327Y0119846D01*
X0146076Y0120096D01*
X0145826Y0120096D01*
X0145576Y0119846D01*
X0145576Y0119346D01*
X0145326Y0119095D01*
X0145076Y0119095D01*
X0144825Y0119346D01*
X0144825Y0119846D01*
X0145076Y0120096D01*
X0144825Y0120569D02*
X0144825Y0121319D01*
X0145076Y0121570D01*
X0145576Y0121570D01*
X0145826Y0121319D01*
X0145826Y0120569D01*
X0146327Y0120569D02*
X0144825Y0120569D01*
X0145076Y0118623D02*
X0144825Y0118373D01*
X0144825Y0117872D01*
X0145076Y0117622D01*
X0146076Y0117622D01*
X0140563Y0127870D02*
X0139863Y0127870D01*
X0139629Y0128104D01*
X0139629Y0128571D01*
X0139863Y0128804D01*
X0140563Y0128804D01*
X0140563Y0129271D02*
X0140563Y0127870D01*
X0139182Y0127870D02*
X0139182Y0128571D01*
X0138948Y0128804D01*
X0138248Y0128804D01*
X0138248Y0127870D01*
X0137801Y0127870D02*
X0137100Y0127870D01*
X0136867Y0128104D01*
X0136867Y0128571D01*
X0137100Y0128804D01*
X0137801Y0128804D01*
X0137801Y0127636D01*
X0137567Y0127403D01*
X0137334Y0127403D01*
X0137644Y0142583D02*
X0137877Y0142583D01*
X0138111Y0142816D01*
X0138111Y0143984D01*
X0137410Y0143984D01*
X0137177Y0143751D01*
X0137177Y0143284D01*
X0137410Y0143050D01*
X0138111Y0143050D01*
X0138558Y0143050D02*
X0138558Y0143984D01*
X0139258Y0143984D01*
X0139492Y0143751D01*
X0139492Y0143050D01*
X0139939Y0143284D02*
X0139939Y0143751D01*
X0140173Y0143984D01*
X0140873Y0143984D01*
X0140873Y0144451D02*
X0140873Y0143050D01*
X0140173Y0143050D01*
X0139939Y0143284D01*
X0121413Y0143864D02*
X0120946Y0142930D01*
X0120479Y0143864D01*
X0120032Y0143631D02*
X0120032Y0143164D01*
X0119798Y0142930D01*
X0119331Y0142930D01*
X0119098Y0143164D01*
X0119098Y0143631D02*
X0119565Y0143864D01*
X0119798Y0143864D01*
X0120032Y0143631D01*
X0120032Y0144331D02*
X0119098Y0144331D01*
X0119098Y0143631D01*
X0118651Y0143631D02*
X0117717Y0143631D01*
X0118184Y0144098D02*
X0118184Y0143164D01*
X0109872Y0142930D02*
X0108937Y0143864D01*
X0108484Y0143864D02*
X0108017Y0143864D01*
X0108250Y0144098D02*
X0108250Y0143164D01*
X0108484Y0142930D01*
X0108937Y0142930D02*
X0109872Y0143864D01*
X0099862Y0143804D02*
X0098928Y0142870D01*
X0098887Y0143351D02*
X0098887Y0141850D01*
X0099137Y0141850D02*
X0098636Y0141850D01*
X0098164Y0142100D02*
X0098164Y0143101D01*
X0097914Y0143351D01*
X0097163Y0143351D01*
X0097163Y0141850D01*
X0097914Y0141850D01*
X0098164Y0142100D01*
X0097777Y0142870D02*
X0097777Y0143804D01*
X0098244Y0143804D02*
X0098477Y0143804D01*
X0098244Y0143804D02*
X0097777Y0143337D01*
X0098636Y0143351D02*
X0099137Y0143351D01*
X0098928Y0143804D02*
X0099862Y0142870D01*
X0096691Y0143351D02*
X0095690Y0143351D01*
X0095218Y0143351D02*
X0094217Y0143351D01*
X0094217Y0141850D01*
X0094217Y0142601D02*
X0094717Y0142601D01*
X0096190Y0143351D02*
X0096190Y0141850D01*
X0090469Y0143924D02*
X0090236Y0143924D01*
X0089769Y0143457D01*
X0089769Y0142990D02*
X0089769Y0143924D01*
X0089315Y0143924D02*
X0088848Y0143924D01*
X0089081Y0144158D02*
X0089081Y0143224D01*
X0089315Y0142990D01*
X0088401Y0142990D02*
X0087700Y0142990D01*
X0087467Y0143224D01*
X0087467Y0143691D01*
X0087700Y0143924D01*
X0088401Y0143924D01*
X0088401Y0144391D02*
X0088401Y0142990D01*
X0117717Y0128571D02*
X0118651Y0128571D01*
X0119098Y0128571D02*
X0119565Y0128804D01*
X0119798Y0128804D01*
X0120032Y0128571D01*
X0120032Y0128104D01*
X0119798Y0127870D01*
X0119331Y0127870D01*
X0119098Y0128104D01*
X0119098Y0128571D02*
X0119098Y0129271D01*
X0120032Y0129271D01*
X0120479Y0128804D02*
X0120946Y0127870D01*
X0121413Y0128804D01*
X0118184Y0129038D02*
X0118184Y0128104D01*
X0184716Y0094654D02*
X0184966Y0094904D01*
X0185216Y0094904D01*
X0185216Y0093903D01*
X0184966Y0093903D02*
X0184716Y0094154D01*
X0184716Y0094654D01*
X0184966Y0093903D02*
X0185466Y0093903D01*
X0185717Y0094154D01*
X0185717Y0094654D01*
X0185717Y0093431D02*
X0185717Y0092680D01*
X0185466Y0092430D01*
X0184966Y0092430D01*
X0184716Y0092680D01*
X0184716Y0093431D01*
X0185967Y0093431D01*
X0186217Y0093181D01*
X0186217Y0092931D01*
X0185717Y0091958D02*
X0185717Y0091207D01*
X0185466Y0090957D01*
X0185216Y0091207D01*
X0185216Y0091958D01*
X0184966Y0091958D02*
X0185717Y0091958D01*
X0184966Y0091958D02*
X0184716Y0091708D01*
X0184716Y0091207D01*
X0184716Y0090475D02*
X0184716Y0089975D01*
X0184466Y0090225D02*
X0185466Y0090225D01*
X0185717Y0090475D01*
X0185717Y0089493D02*
X0185717Y0088993D01*
X0185717Y0089243D02*
X0184215Y0089243D01*
X0184215Y0088993D01*
X0184716Y0088270D02*
X0184716Y0087770D01*
X0184966Y0087519D01*
X0185466Y0087519D01*
X0185717Y0087770D01*
X0185717Y0088270D01*
X0185466Y0088520D01*
X0184966Y0088520D01*
X0184716Y0088270D01*
X0185216Y0087047D02*
X0184215Y0087047D01*
X0184215Y0086046D02*
X0185216Y0086046D01*
X0185717Y0086546D01*
X0185216Y0087047D01*
X0184966Y0084100D02*
X0185717Y0084100D01*
X0184966Y0084100D02*
X0184716Y0083850D01*
X0184716Y0083350D01*
X0184966Y0083100D01*
X0184716Y0082627D02*
X0184716Y0081877D01*
X0184966Y0081626D01*
X0185466Y0081626D01*
X0185717Y0081877D01*
X0185717Y0082627D01*
X0185967Y0082627D02*
X0184716Y0082627D01*
X0184215Y0083100D02*
X0185717Y0083100D01*
X0185967Y0082627D02*
X0186217Y0082377D01*
X0186217Y0082127D01*
X0185717Y0081145D02*
X0185717Y0080644D01*
X0185717Y0080894D02*
X0184716Y0080894D01*
X0184716Y0080644D01*
X0184966Y0080172D02*
X0184966Y0079171D01*
X0185717Y0079171D02*
X0184215Y0079171D01*
X0184215Y0080172D02*
X0185717Y0080172D01*
X0184215Y0080894D02*
X0183965Y0080894D01*
X0209217Y0078351D02*
X0209217Y0076850D01*
X0209217Y0077601D02*
X0210218Y0077601D01*
X0210690Y0077851D02*
X0210940Y0077851D01*
X0210940Y0076850D01*
X0210690Y0076850D02*
X0211190Y0076850D01*
X0211672Y0077100D02*
X0211922Y0076850D01*
X0212673Y0076850D01*
X0212673Y0076600D02*
X0212673Y0077851D01*
X0211922Y0077851D01*
X0211672Y0077601D01*
X0211672Y0077100D01*
X0212173Y0076350D02*
X0212423Y0076350D01*
X0212673Y0076600D01*
X0213145Y0076850D02*
X0213145Y0078351D01*
X0213396Y0077851D02*
X0213896Y0077851D01*
X0214146Y0077601D01*
X0214146Y0076850D01*
X0213396Y0077851D02*
X0213145Y0077601D01*
X0210940Y0078351D02*
X0210940Y0078601D01*
X0210218Y0078351D02*
X0210218Y0076850D01*
X0216092Y0077350D02*
X0216592Y0076850D01*
X0217093Y0077350D01*
X0217093Y0078351D01*
X0217815Y0077851D02*
X0217565Y0077601D01*
X0217565Y0077100D01*
X0217815Y0076850D01*
X0218316Y0076850D01*
X0218566Y0077100D01*
X0218566Y0077601D01*
X0218316Y0077851D01*
X0217815Y0077851D01*
X0219038Y0078351D02*
X0219289Y0078351D01*
X0219289Y0076850D01*
X0219539Y0076850D02*
X0219038Y0076850D01*
X0220271Y0077100D02*
X0220521Y0076850D01*
X0220271Y0077100D02*
X0220271Y0078101D01*
X0220021Y0077851D02*
X0220521Y0077851D01*
X0221253Y0077851D02*
X0221753Y0077851D01*
X0222004Y0077601D01*
X0222004Y0076850D01*
X0221253Y0076850D01*
X0221003Y0077100D01*
X0221253Y0077350D01*
X0222004Y0077350D01*
X0222476Y0077100D02*
X0222726Y0076850D01*
X0223477Y0076850D01*
X0223477Y0076600D02*
X0223477Y0077851D01*
X0222726Y0077851D01*
X0222476Y0077601D01*
X0222476Y0077100D01*
X0222976Y0076350D02*
X0223227Y0076350D01*
X0223477Y0076600D01*
X0223949Y0077100D02*
X0223949Y0077601D01*
X0224199Y0077851D01*
X0224700Y0077851D01*
X0224950Y0077601D01*
X0224950Y0077350D01*
X0223949Y0077350D01*
X0223949Y0077100D02*
X0224199Y0076850D01*
X0224700Y0076850D01*
X0216092Y0077350D02*
X0216092Y0078351D01*
X0216493Y0032698D02*
X0216493Y0031764D01*
X0216726Y0031530D01*
X0217180Y0031764D02*
X0217180Y0032231D01*
X0217413Y0032464D01*
X0217880Y0032464D01*
X0218114Y0032231D01*
X0218114Y0031997D01*
X0217180Y0031997D01*
X0217180Y0031764D02*
X0217413Y0031530D01*
X0217880Y0031530D01*
X0218561Y0031530D02*
X0218561Y0032464D01*
X0218561Y0031997D02*
X0219028Y0032464D01*
X0219262Y0032464D01*
X0221093Y0032931D02*
X0221327Y0032931D01*
X0221327Y0031530D01*
X0221560Y0031530D02*
X0221093Y0031530D01*
X0222014Y0031764D02*
X0222014Y0032231D01*
X0222247Y0032464D01*
X0222714Y0032464D01*
X0222948Y0032231D01*
X0222948Y0031997D01*
X0222014Y0031997D01*
X0222014Y0031764D02*
X0222247Y0031530D01*
X0222714Y0031530D01*
X0223862Y0031530D02*
X0224329Y0032464D01*
X0224776Y0032231D02*
X0225010Y0032464D01*
X0225477Y0032464D01*
X0225710Y0032231D01*
X0225710Y0031997D01*
X0224776Y0031997D01*
X0224776Y0031764D02*
X0224776Y0032231D01*
X0224776Y0031764D02*
X0225010Y0031530D01*
X0225477Y0031530D01*
X0226157Y0031530D02*
X0226624Y0031530D01*
X0226391Y0031530D02*
X0226391Y0032931D01*
X0226157Y0032931D01*
X0223862Y0031530D02*
X0223395Y0032464D01*
X0216726Y0032464D02*
X0216259Y0032464D01*
X0215812Y0032231D02*
X0215812Y0031530D01*
X0215111Y0031530D01*
X0214878Y0031764D01*
X0215111Y0031997D01*
X0215812Y0031997D01*
X0215812Y0032231D02*
X0215578Y0032464D01*
X0215111Y0032464D01*
X0214431Y0032464D02*
X0214431Y0031764D01*
X0214197Y0031530D01*
X0213964Y0031764D01*
X0213730Y0031530D01*
X0213497Y0031764D01*
X0213497Y0032464D01*
X0180593Y0030700D02*
X0180126Y0030700D01*
X0180360Y0030700D02*
X0180360Y0032101D01*
X0180126Y0032101D01*
X0179445Y0031634D02*
X0179679Y0031401D01*
X0179679Y0031167D01*
X0178745Y0031167D01*
X0178745Y0030934D02*
X0178745Y0031401D01*
X0178978Y0031634D01*
X0179445Y0031634D01*
X0179445Y0030700D02*
X0178978Y0030700D01*
X0178745Y0030934D01*
X0178298Y0031634D02*
X0177831Y0030700D01*
X0177364Y0031634D01*
X0176917Y0031401D02*
X0176917Y0031167D01*
X0175983Y0031167D01*
X0175983Y0030934D02*
X0175983Y0031401D01*
X0176216Y0031634D01*
X0176683Y0031634D01*
X0176917Y0031401D01*
X0176683Y0030700D02*
X0176216Y0030700D01*
X0175983Y0030934D01*
X0175529Y0030700D02*
X0175062Y0030700D01*
X0175295Y0030700D02*
X0175295Y0032101D01*
X0175062Y0032101D01*
X0172993Y0032101D02*
X0172993Y0030700D01*
X0172760Y0030700D02*
X0173227Y0030700D01*
X0172306Y0030700D02*
X0171839Y0030700D01*
X0172073Y0030700D02*
X0172073Y0031634D01*
X0171839Y0031634D01*
X0171392Y0031401D02*
X0171158Y0031634D01*
X0170691Y0031634D01*
X0170458Y0031401D01*
X0170458Y0030934D01*
X0170691Y0030700D01*
X0171158Y0030700D01*
X0171392Y0030934D01*
X0171392Y0031401D01*
X0172073Y0032101D02*
X0172073Y0032335D01*
X0172760Y0032101D02*
X0172993Y0032101D01*
X0170011Y0031634D02*
X0169310Y0031634D01*
X0169077Y0031401D01*
X0169310Y0031167D01*
X0169777Y0031167D01*
X0170011Y0030934D01*
X0169777Y0030700D01*
X0169077Y0030700D01*
X0287263Y0142650D02*
X0287963Y0142650D01*
X0288197Y0142884D01*
X0287963Y0143117D01*
X0288197Y0143351D01*
X0287963Y0143584D01*
X0287263Y0143584D01*
X0287263Y0144265D02*
X0287263Y0144732D01*
X0287496Y0144965D01*
X0288197Y0144965D01*
X0288197Y0144265D01*
X0287963Y0144031D01*
X0287730Y0144265D01*
X0287730Y0144965D01*
X0287263Y0145412D02*
X0287263Y0145879D01*
X0287029Y0145646D02*
X0287963Y0145646D01*
X0288197Y0145879D01*
X0287963Y0146333D02*
X0287496Y0146333D01*
X0287263Y0146567D01*
X0287263Y0147034D01*
X0287496Y0147267D01*
X0287730Y0147267D01*
X0287730Y0146333D01*
X0287963Y0146333D02*
X0288197Y0146567D01*
X0288197Y0147034D01*
X0288197Y0147714D02*
X0287263Y0147714D01*
X0287730Y0147714D02*
X0287263Y0148181D01*
X0287263Y0148415D01*
X0287263Y0150246D02*
X0287263Y0150947D01*
X0287496Y0151181D01*
X0287963Y0151181D01*
X0288197Y0150947D01*
X0288197Y0150246D01*
X0288664Y0150246D02*
X0287263Y0150246D01*
X0287263Y0151628D02*
X0287963Y0151628D01*
X0288197Y0151861D01*
X0288197Y0152562D01*
X0287263Y0152562D01*
X0287263Y0153009D02*
X0287263Y0153242D01*
X0287496Y0153476D01*
X0287263Y0153709D01*
X0287496Y0153943D01*
X0288197Y0153943D01*
X0288197Y0154390D02*
X0288197Y0155091D01*
X0287963Y0155324D01*
X0287496Y0155324D01*
X0287263Y0155091D01*
X0287263Y0154390D01*
X0288664Y0154390D01*
X0288197Y0153476D02*
X0287496Y0153476D01*
X0287263Y0153009D02*
X0288197Y0153009D01*
X0287716Y0185110D02*
X0287716Y0185577D01*
X0287249Y0185344D02*
X0287015Y0185577D01*
X0287249Y0185344D02*
X0288417Y0185344D01*
X0288183Y0186031D02*
X0287950Y0186264D01*
X0287950Y0186965D01*
X0287716Y0186965D02*
X0288417Y0186965D01*
X0288417Y0186264D01*
X0288183Y0186031D01*
X0287483Y0186264D02*
X0287483Y0186731D01*
X0287716Y0186965D01*
X0287483Y0187412D02*
X0287483Y0188113D01*
X0287716Y0188346D01*
X0288417Y0188346D01*
X0288417Y0187412D02*
X0287483Y0187412D01*
X0288515Y0259050D02*
X0289917Y0259050D01*
X0289216Y0259050D02*
X0288983Y0259284D01*
X0288983Y0259751D01*
X0289216Y0259984D01*
X0289917Y0259984D01*
X0289216Y0260431D02*
X0289216Y0261365D01*
X0288983Y0261812D02*
X0288983Y0262513D01*
X0289216Y0262746D01*
X0289683Y0262746D01*
X0289917Y0262513D01*
X0289917Y0261812D01*
X0288515Y0261812D01*
X0288983Y0263194D02*
X0289917Y0263194D01*
X0289450Y0263194D02*
X0288983Y0263661D01*
X0288983Y0263894D01*
X0288983Y0264345D02*
X0288983Y0264578D01*
X0289917Y0264578D01*
X0289917Y0264345D02*
X0289917Y0264812D01*
X0289683Y0265265D02*
X0289216Y0265265D01*
X0288983Y0265499D01*
X0288983Y0266199D01*
X0288515Y0266199D02*
X0289917Y0266199D01*
X0289917Y0265499D01*
X0289683Y0265265D01*
X0288515Y0264578D02*
X0288282Y0264578D01*
X0289216Y0266646D02*
X0289683Y0266646D01*
X0289917Y0266880D01*
X0289917Y0267581D01*
X0290150Y0267581D02*
X0288983Y0267581D01*
X0288983Y0266880D01*
X0289216Y0266646D01*
X0290384Y0267114D02*
X0290384Y0267347D01*
X0290150Y0267581D01*
X0289683Y0268028D02*
X0289216Y0268028D01*
X0288983Y0268261D01*
X0288983Y0268728D01*
X0289216Y0268962D01*
X0289450Y0268962D01*
X0289450Y0268028D01*
X0289683Y0268028D02*
X0289917Y0268261D01*
X0289917Y0268728D01*
X0013524Y0246324D02*
X0012123Y0246324D01*
X0012123Y0247025D01*
X0012356Y0247258D01*
X0012823Y0247258D01*
X0013057Y0247025D01*
X0013057Y0246324D01*
X0012823Y0247705D02*
X0013057Y0247939D01*
X0013057Y0248406D01*
X0012823Y0248640D01*
X0012356Y0248640D01*
X0012123Y0248406D01*
X0012123Y0247939D01*
X0012356Y0247705D01*
X0012823Y0247705D01*
X0012823Y0249087D02*
X0013057Y0249320D01*
X0012823Y0249554D01*
X0013057Y0249787D01*
X0012823Y0250021D01*
X0012123Y0250021D01*
X0012356Y0250468D02*
X0012123Y0250701D01*
X0012123Y0251168D01*
X0012356Y0251402D01*
X0012590Y0251402D01*
X0012590Y0250468D01*
X0012823Y0250468D02*
X0012356Y0250468D01*
X0012823Y0250468D02*
X0013057Y0250701D01*
X0013057Y0251168D01*
X0013057Y0251849D02*
X0012123Y0251849D01*
X0012590Y0251849D02*
X0012123Y0252316D01*
X0012123Y0252550D01*
X0012123Y0249087D02*
X0012823Y0249087D01*
X0012893Y0208731D02*
X0012893Y0207330D01*
X0012192Y0207330D01*
X0011959Y0207564D01*
X0011959Y0208031D01*
X0012192Y0208264D01*
X0012893Y0208264D01*
X0011512Y0208264D02*
X0010811Y0208264D01*
X0010577Y0208031D01*
X0010577Y0207564D01*
X0010811Y0207330D01*
X0011512Y0207330D01*
X0010124Y0207330D02*
X0009657Y0207330D01*
X0009890Y0207330D02*
X0009890Y0208731D01*
X0009657Y0208731D01*
D11*
X0129167Y0206800D02*
X0129167Y0186800D01*
X0159167Y0186800D01*
X0159167Y0191800D01*
X0154167Y0191800D01*
X0154167Y0201800D01*
X0159167Y0201800D01*
X0159167Y0206800D01*
X0129167Y0206800D01*
X0215467Y0146600D02*
X0216667Y0145300D01*
X0219167Y0142800D01*
X0221667Y0114300D02*
X0216667Y0114300D01*
X0216667Y0109300D01*
X0216667Y0104300D01*
X0221667Y0104300D02*
X0221667Y0109300D01*
X0221667Y0114300D01*
D12*
X0283051Y0034536D02*
X0283051Y0032067D01*
X0281817Y0033302D02*
X0284285Y0033302D01*
X0115017Y0104950D02*
X0115017Y0107419D01*
X0115017Y0106184D02*
X0111313Y0106184D01*
X0112548Y0104950D01*
X0138000Y0195716D02*
X0138000Y0199419D01*
X0139851Y0199419D01*
X0140469Y0198802D01*
X0140469Y0197567D01*
X0139851Y0196950D01*
X0138000Y0196950D01*
X0136785Y0197567D02*
X0136785Y0198802D01*
X0136168Y0199419D01*
X0134934Y0199419D01*
X0134317Y0198802D01*
X0134317Y0197567D01*
X0134934Y0196950D01*
X0136168Y0196950D01*
X0136785Y0197567D01*
X0141683Y0199419D02*
X0142917Y0199419D01*
X0142300Y0200036D02*
X0142300Y0197567D01*
X0142917Y0196950D01*
X0144138Y0197567D02*
X0144756Y0196950D01*
X0145990Y0196950D01*
X0146607Y0197567D01*
X0146607Y0198802D01*
X0145990Y0199419D01*
X0144756Y0199419D01*
X0144138Y0198802D01*
X0144138Y0197567D01*
X0135990Y0251950D02*
X0136607Y0252567D01*
X0136607Y0253802D01*
X0135990Y0254419D01*
X0134756Y0254419D01*
X0134138Y0253802D01*
X0134138Y0252567D01*
X0134756Y0251950D01*
X0135990Y0251950D01*
X0132917Y0251950D02*
X0132300Y0252567D01*
X0132300Y0255036D01*
X0131683Y0254419D02*
X0132917Y0254419D01*
X0130469Y0253802D02*
X0130469Y0252567D01*
X0129851Y0251950D01*
X0128000Y0251950D01*
X0128000Y0250716D02*
X0128000Y0254419D01*
X0129851Y0254419D01*
X0130469Y0253802D01*
X0126785Y0253802D02*
X0126168Y0254419D01*
X0124934Y0254419D01*
X0124317Y0253802D01*
X0124317Y0252567D01*
X0124934Y0251950D01*
X0126168Y0251950D01*
X0126785Y0252567D01*
X0126785Y0253802D01*
X0062399Y0254501D02*
X0059931Y0254501D01*
X0061165Y0253267D02*
X0061165Y0255736D01*
X0061165Y0245736D02*
X0061165Y0243267D01*
X0059931Y0244501D02*
X0062399Y0244501D01*
D13*
X0061917Y0234750D02*
X0061917Y0226800D01*
X0061917Y0234750D02*
X0061915Y0234750D01*
X0061917Y0234750D02*
X0068017Y0234750D01*
X0085517Y0216800D02*
X0085517Y0211100D01*
X0081667Y0211100D01*
X0007917Y0202302D02*
X0007917Y0200801D01*
X0007166Y0200050D01*
X0006415Y0200050D01*
X0005665Y0200801D01*
X0005665Y0202302D01*
X0006415Y0203053D01*
X0007166Y0203053D01*
X0007917Y0202302D01*
X0005665Y0202302D02*
X0004914Y0203053D01*
X0004163Y0203053D01*
X0003413Y0202302D01*
X0003413Y0200801D01*
X0004163Y0200050D01*
X0004914Y0200050D01*
X0005665Y0200801D01*
X0007917Y0133053D02*
X0007917Y0130050D01*
X0007917Y0131551D02*
X0003413Y0131551D01*
X0004914Y0130050D01*
X0004914Y0123053D02*
X0005665Y0122302D01*
X0005665Y0120801D01*
X0004914Y0120050D01*
X0004163Y0120050D01*
X0003413Y0120801D01*
X0003413Y0122302D01*
X0004163Y0123053D01*
X0004914Y0123053D01*
X0005665Y0122302D02*
X0006415Y0123053D01*
X0007166Y0123053D01*
X0007917Y0122302D01*
X0007917Y0120801D01*
X0007166Y0120050D01*
X0006415Y0120050D01*
X0005665Y0120801D01*
X0007917Y0053053D02*
X0007917Y0050050D01*
X0007917Y0051551D02*
X0003413Y0051551D01*
X0004914Y0050050D01*
X0114167Y0109800D02*
X0114167Y0123800D01*
X0117167Y0126800D01*
X0122167Y0126800D01*
X0124167Y0124800D01*
X0126167Y0126800D01*
X0132167Y0126800D01*
X0134167Y0124800D01*
X0136167Y0126800D01*
X0141167Y0126800D01*
X0144167Y0123800D01*
X0144167Y0109800D01*
X0141167Y0106800D01*
X0136167Y0106800D01*
X0134167Y0108800D01*
X0132167Y0106800D01*
X0126167Y0106800D01*
X0124167Y0108800D01*
X0122167Y0106800D01*
X0117167Y0106800D01*
X0114167Y0109800D01*
X0158927Y0083290D02*
X0160762Y0079620D01*
X0162596Y0083290D01*
X0164451Y0083290D02*
X0164451Y0079620D01*
X0164451Y0081455D02*
X0166286Y0083290D01*
X0167204Y0083290D01*
X0169055Y0082372D02*
X0169055Y0080537D01*
X0169973Y0079620D01*
X0171808Y0079620D01*
X0172725Y0081455D02*
X0169055Y0081455D01*
X0169055Y0082372D02*
X0169973Y0083290D01*
X0171808Y0083290D01*
X0172725Y0082372D01*
X0172725Y0081455D01*
X0174580Y0082372D02*
X0174580Y0080537D01*
X0175497Y0079620D01*
X0178250Y0079620D01*
X0178250Y0078703D02*
X0178250Y0083290D01*
X0175497Y0083290D01*
X0174580Y0082372D01*
X0176415Y0077785D02*
X0177332Y0077785D01*
X0178250Y0078703D01*
X0210527Y0130750D02*
X0210527Y0134420D01*
X0212362Y0134420D02*
X0213279Y0134420D01*
X0212362Y0134420D02*
X0210527Y0132585D01*
X0215131Y0132585D02*
X0218800Y0132585D01*
X0218800Y0133502D01*
X0217883Y0134420D01*
X0216048Y0134420D01*
X0215131Y0133502D01*
X0215131Y0131667D01*
X0216048Y0130750D01*
X0217883Y0130750D01*
X0220655Y0130750D02*
X0222490Y0130750D01*
X0221573Y0130750D02*
X0221573Y0136255D01*
X0220655Y0136255D01*
X0225256Y0134420D02*
X0227091Y0134420D01*
X0228008Y0133502D01*
X0228008Y0130750D01*
X0225256Y0130750D01*
X0224338Y0131667D01*
X0225256Y0132585D01*
X0228008Y0132585D01*
X0229863Y0131667D02*
X0229863Y0134420D01*
X0229863Y0131667D02*
X0230781Y0130750D01*
X0233533Y0130750D01*
X0233533Y0129833D02*
X0232616Y0128915D01*
X0231698Y0128915D01*
X0233533Y0129833D02*
X0233533Y0134420D01*
X0262913Y0132709D02*
X0267417Y0132709D01*
X0267417Y0134210D02*
X0267417Y0131207D01*
X0264414Y0131207D02*
X0262913Y0132709D01*
X0263663Y0150707D02*
X0262913Y0151458D01*
X0262913Y0152959D01*
X0263663Y0153710D01*
X0264414Y0153710D01*
X0267417Y0150707D01*
X0267417Y0153710D01*
X0267417Y0171207D02*
X0267417Y0174210D01*
X0267417Y0172709D02*
X0262913Y0172709D01*
X0264414Y0171207D01*
X0263663Y0190707D02*
X0262913Y0191458D01*
X0262913Y0192959D01*
X0263663Y0193710D01*
X0264414Y0193710D01*
X0267417Y0190707D01*
X0267417Y0193710D01*
X0234119Y0191894D02*
X0234119Y0203706D01*
X0228214Y0203706D01*
X0228214Y0191894D01*
X0234119Y0191894D01*
X0232917Y0197050D02*
X0229417Y0197050D01*
X0229417Y0198550D02*
X0231167Y0197050D01*
X0232917Y0198550D01*
X0229417Y0198550D01*
X0216119Y0198706D02*
X0216119Y0186894D01*
X0210214Y0186894D01*
X0210214Y0198706D01*
X0216119Y0198706D01*
X0214917Y0193550D02*
X0211417Y0193550D01*
X0211417Y0192050D02*
X0213167Y0193550D01*
X0214917Y0192050D01*
X0211417Y0192050D01*
X0208119Y0194706D02*
X0208119Y0182894D01*
X0202214Y0182894D01*
X0202214Y0194706D01*
X0208119Y0194706D01*
X0206917Y0189550D02*
X0203417Y0189550D01*
X0203417Y0188050D02*
X0205167Y0189550D01*
X0206917Y0188050D01*
X0203417Y0188050D01*
X0210214Y0184206D02*
X0210214Y0172394D01*
X0216119Y0172394D01*
X0216119Y0184206D01*
X0210214Y0184206D01*
X0211417Y0179050D02*
X0214917Y0179050D01*
X0214917Y0177550D02*
X0213167Y0179050D01*
X0211417Y0177550D01*
X0214917Y0177550D01*
X0219417Y0177550D02*
X0221167Y0179050D01*
X0222917Y0177550D01*
X0219417Y0177550D01*
X0219417Y0179050D02*
X0222917Y0179050D01*
X0227917Y0179050D02*
X0231417Y0179050D01*
X0231417Y0177550D02*
X0229667Y0179050D01*
X0227917Y0177550D01*
X0231417Y0177550D01*
X0232619Y0172394D02*
X0226714Y0172394D01*
X0226714Y0184206D01*
X0232619Y0184206D01*
X0232619Y0172394D01*
X0224119Y0172394D02*
X0218214Y0172394D01*
X0218214Y0184206D01*
X0224119Y0184206D01*
X0224119Y0172394D01*
X0167119Y0235894D02*
X0161214Y0235894D01*
X0161214Y0247706D01*
X0167119Y0247706D01*
X0167119Y0235894D01*
X0165917Y0241050D02*
X0164167Y0242550D01*
X0162417Y0241050D01*
X0165917Y0241050D01*
X0165917Y0242550D02*
X0162417Y0242550D01*
X0161214Y0250894D02*
X0161214Y0262706D01*
X0167119Y0262706D01*
X0167119Y0250894D01*
X0161214Y0250894D01*
X0162417Y0256050D02*
X0164167Y0257550D01*
X0165917Y0256050D01*
X0162417Y0256050D01*
X0162417Y0257550D02*
X0165917Y0257550D01*
X0265820Y0054359D02*
X0272513Y0054359D01*
X0272513Y0049241D01*
X0265820Y0049241D01*
X0265820Y0054359D01*
X0267592Y0054162D02*
X0267986Y0054162D01*
X0267986Y0049438D01*
X0267592Y0049438D02*
X0267592Y0054162D01*
X0257513Y0049359D02*
X0257513Y0044241D01*
X0250820Y0044241D01*
X0250820Y0049359D01*
X0257513Y0049359D01*
X0252986Y0049162D02*
X0252986Y0044438D01*
X0252592Y0044438D02*
X0252592Y0049162D01*
X0252986Y0049162D01*
D14*
X0287833Y0081217D02*
X0291937Y0081217D01*
X0291937Y0083269D01*
X0291253Y0083953D01*
X0289885Y0083953D01*
X0289201Y0083269D01*
X0289201Y0081217D01*
X0289201Y0085361D02*
X0291253Y0085361D01*
X0291937Y0086044D01*
X0291937Y0088096D01*
X0289201Y0088096D01*
X0287833Y0089504D02*
X0287833Y0090188D01*
X0291937Y0090188D01*
X0291937Y0089504D02*
X0291937Y0090872D01*
X0291937Y0092266D02*
X0291937Y0094318D01*
X0291253Y0095002D01*
X0289885Y0095002D01*
X0289201Y0094318D01*
X0289201Y0092266D01*
X0287833Y0092266D02*
X0291937Y0092266D01*
X0287995Y0226531D02*
X0286461Y0226531D01*
X0285693Y0227298D01*
X0285693Y0228833D02*
X0287228Y0229600D01*
X0287995Y0229600D01*
X0288763Y0228833D01*
X0288763Y0227298D01*
X0287995Y0226531D01*
X0285693Y0228833D02*
X0285693Y0231135D01*
X0288763Y0231135D01*
X0282624Y0231135D02*
X0282624Y0226531D01*
X0281089Y0226531D02*
X0284159Y0226531D01*
X0281089Y0229600D02*
X0282624Y0231135D01*
X0282526Y0262000D02*
X0282526Y0266604D01*
X0280225Y0264302D01*
X0283294Y0264302D01*
X0278690Y0262000D02*
X0275621Y0262000D01*
X0277155Y0262000D02*
X0277155Y0266604D01*
X0275621Y0265069D01*
X0220245Y0265069D02*
X0220245Y0265837D01*
X0219478Y0266604D01*
X0217943Y0266604D01*
X0217176Y0265837D01*
X0220245Y0265069D02*
X0217176Y0262000D01*
X0220245Y0262000D01*
X0214179Y0230902D02*
X0214179Y0226298D01*
X0212645Y0226298D02*
X0215714Y0226298D01*
X0212645Y0229367D02*
X0214179Y0230902D01*
X0082832Y0225837D02*
X0082065Y0226604D01*
X0080530Y0226604D01*
X0079763Y0225837D01*
X0078228Y0226604D02*
X0078228Y0222000D01*
X0076693Y0223535D01*
X0075159Y0222000D01*
X0075159Y0226604D01*
X0073624Y0225837D02*
X0072857Y0226604D01*
X0071322Y0226604D01*
X0070555Y0225837D01*
X0070555Y0225069D01*
X0071322Y0224302D01*
X0072857Y0224302D01*
X0073624Y0223535D01*
X0073624Y0222767D01*
X0072857Y0222000D01*
X0071322Y0222000D01*
X0070555Y0222767D01*
X0079763Y0222000D02*
X0082832Y0225069D01*
X0082832Y0225837D01*
X0082832Y0222000D02*
X0079763Y0222000D01*
D15*
X0086399Y0222722D02*
X0086933Y0222722D01*
X0087067Y0222855D01*
X0086533Y0222855D02*
X0086533Y0222588D01*
X0086533Y0222201D02*
X0086533Y0221801D01*
X0086666Y0221667D01*
X0086800Y0221801D01*
X0086800Y0222068D01*
X0086933Y0222201D01*
X0087067Y0222068D01*
X0087067Y0221667D01*
X0086533Y0221300D02*
X0086533Y0221167D01*
X0086800Y0220900D01*
X0087067Y0220900D02*
X0086533Y0220900D01*
X0067009Y0246400D02*
X0066608Y0246667D01*
X0067009Y0246934D01*
X0066608Y0247201D02*
X0066608Y0246400D01*
X0066221Y0246400D02*
X0065821Y0246400D01*
X0065687Y0246533D01*
X0065687Y0246800D01*
X0065821Y0246934D01*
X0066221Y0246934D01*
X0065300Y0246934D02*
X0064900Y0246934D01*
X0064767Y0246800D01*
X0064900Y0246667D01*
X0065167Y0246667D01*
X0065300Y0246533D01*
X0065167Y0246400D01*
X0064767Y0246400D01*
X0064767Y0255633D02*
X0064767Y0256434D01*
X0065167Y0256434D01*
X0065300Y0256300D01*
X0065300Y0256033D01*
X0065167Y0255900D01*
X0064767Y0255900D01*
X0065687Y0256033D02*
X0065821Y0255900D01*
X0066088Y0255900D01*
X0066221Y0256033D01*
X0066221Y0256300D01*
X0066088Y0256434D01*
X0065821Y0256434D01*
X0065687Y0256300D01*
X0065687Y0256033D01*
X0066608Y0256033D02*
X0066742Y0255900D01*
X0066875Y0256033D01*
X0067009Y0255900D01*
X0067142Y0256033D01*
X0067142Y0256434D01*
X0067529Y0256300D02*
X0067662Y0256434D01*
X0067929Y0256434D01*
X0068063Y0256300D01*
X0068063Y0256167D01*
X0067529Y0256167D01*
X0067529Y0256300D02*
X0067529Y0256033D01*
X0067662Y0255900D01*
X0067929Y0255900D01*
X0068450Y0255900D02*
X0068450Y0256434D01*
X0068717Y0256434D02*
X0068850Y0256434D01*
X0068717Y0256434D02*
X0068450Y0256167D01*
X0066608Y0256033D02*
X0066608Y0256434D01*
X0052167Y0150300D02*
X0052167Y0123300D01*
X0049167Y0123300D02*
X0049167Y0150300D01*
X0049165Y0150433D01*
X0049160Y0150565D01*
X0049151Y0150697D01*
X0049139Y0150830D01*
X0049123Y0150961D01*
X0049104Y0151093D01*
X0049081Y0151223D01*
X0049055Y0151353D01*
X0049025Y0151483D01*
X0048992Y0151611D01*
X0048956Y0151739D01*
X0048916Y0151865D01*
X0048873Y0151991D01*
X0048826Y0152115D01*
X0048776Y0152238D01*
X0048723Y0152359D01*
X0048667Y0152479D01*
X0039667Y0156914D02*
X0039507Y0156803D01*
X0039351Y0156688D01*
X0039197Y0156569D01*
X0039045Y0156446D01*
X0038897Y0156319D01*
X0038753Y0156189D01*
X0038611Y0156056D01*
X0038472Y0155919D01*
X0038337Y0155779D01*
X0038206Y0155635D01*
X0038078Y0155489D01*
X0037953Y0155339D01*
X0037833Y0155186D01*
X0037716Y0155031D01*
X0037602Y0154872D01*
X0037493Y0154711D01*
X0037388Y0154547D01*
X0037286Y0154381D01*
X0037189Y0154213D01*
X0037096Y0154042D01*
X0037007Y0153868D01*
X0036922Y0153693D01*
X0036842Y0153516D01*
X0036766Y0153337D01*
X0036694Y0153156D01*
X0036627Y0152973D01*
X0036564Y0152789D01*
X0036506Y0152603D01*
X0036452Y0152416D01*
X0036403Y0152227D01*
X0036358Y0152038D01*
X0036318Y0151847D01*
X0036283Y0151656D01*
X0036252Y0151464D01*
X0036226Y0151271D01*
X0036205Y0151077D01*
X0036188Y0150883D01*
X0036176Y0150689D01*
X0036169Y0150494D01*
X0036167Y0150300D01*
X0036167Y0123300D01*
X0039167Y0123300D02*
X0039167Y0150300D01*
X0048667Y0156915D02*
X0048826Y0156803D01*
X0048983Y0156688D01*
X0049137Y0156569D01*
X0049288Y0156446D01*
X0049436Y0156320D01*
X0049581Y0156190D01*
X0049723Y0156056D01*
X0049861Y0155919D01*
X0049996Y0155779D01*
X0050128Y0155636D01*
X0050256Y0155489D01*
X0050380Y0155339D01*
X0050501Y0155187D01*
X0050618Y0155031D01*
X0050731Y0154873D01*
X0050841Y0154712D01*
X0050946Y0154548D01*
X0051047Y0154382D01*
X0051145Y0154213D01*
X0051238Y0154042D01*
X0051327Y0153869D01*
X0051412Y0153694D01*
X0051492Y0153516D01*
X0051568Y0153337D01*
X0051640Y0153156D01*
X0051707Y0152974D01*
X0051770Y0152789D01*
X0051828Y0152604D01*
X0051882Y0152416D01*
X0051931Y0152228D01*
X0051976Y0152039D01*
X0052016Y0151848D01*
X0052051Y0151657D01*
X0052082Y0151464D01*
X0052108Y0151271D01*
X0052129Y0151078D01*
X0052146Y0150884D01*
X0052158Y0150690D01*
X0052165Y0150495D01*
X0052167Y0150300D01*
X0039667Y0152479D02*
X0039611Y0152359D01*
X0039558Y0152238D01*
X0039508Y0152115D01*
X0039461Y0151991D01*
X0039418Y0151865D01*
X0039378Y0151739D01*
X0039342Y0151611D01*
X0039309Y0151483D01*
X0039279Y0151353D01*
X0039253Y0151223D01*
X0039230Y0151093D01*
X0039211Y0150961D01*
X0039195Y0150830D01*
X0039183Y0150697D01*
X0039174Y0150565D01*
X0039169Y0150433D01*
X0039167Y0150300D01*
X0044167Y0140800D02*
X0044167Y0139300D01*
X0044167Y0134300D02*
X0044167Y0132800D01*
X0036167Y0123300D02*
X0036169Y0123105D01*
X0036176Y0122911D01*
X0036188Y0122716D01*
X0036205Y0122522D01*
X0036226Y0122329D01*
X0036252Y0122136D01*
X0036283Y0121944D01*
X0036318Y0121752D01*
X0036358Y0121562D01*
X0036403Y0121372D01*
X0036452Y0121184D01*
X0036506Y0120997D01*
X0036564Y0120811D01*
X0036627Y0120627D01*
X0036694Y0120444D01*
X0036766Y0120263D01*
X0036842Y0120084D01*
X0036922Y0119907D01*
X0037007Y0119731D01*
X0037096Y0119558D01*
X0037189Y0119387D01*
X0037286Y0119219D01*
X0037388Y0119052D01*
X0037493Y0118889D01*
X0037603Y0118728D01*
X0037716Y0118569D01*
X0037833Y0118414D01*
X0037954Y0118261D01*
X0038078Y0118111D01*
X0038206Y0117965D01*
X0038338Y0117821D01*
X0038473Y0117681D01*
X0038611Y0117544D01*
X0038753Y0117411D01*
X0038898Y0117281D01*
X0039046Y0117154D01*
X0039197Y0117031D01*
X0039351Y0116912D01*
X0039508Y0116797D01*
X0039667Y0116685D01*
X0048667Y0116686D02*
X0048827Y0116797D01*
X0048983Y0116912D01*
X0049137Y0117031D01*
X0049289Y0117154D01*
X0049437Y0117281D01*
X0049581Y0117411D01*
X0049723Y0117544D01*
X0049862Y0117681D01*
X0049997Y0117821D01*
X0050128Y0117965D01*
X0050256Y0118111D01*
X0050381Y0118261D01*
X0050501Y0118414D01*
X0050618Y0118569D01*
X0050732Y0118728D01*
X0050841Y0118889D01*
X0050946Y0119053D01*
X0051048Y0119219D01*
X0051145Y0119387D01*
X0051238Y0119558D01*
X0051327Y0119732D01*
X0051412Y0119907D01*
X0051492Y0120084D01*
X0051568Y0120263D01*
X0051640Y0120444D01*
X0051707Y0120627D01*
X0051770Y0120811D01*
X0051828Y0120997D01*
X0051882Y0121184D01*
X0051931Y0121373D01*
X0051976Y0121562D01*
X0052016Y0121753D01*
X0052051Y0121944D01*
X0052082Y0122136D01*
X0052108Y0122329D01*
X0052129Y0122523D01*
X0052146Y0122717D01*
X0052158Y0122911D01*
X0052165Y0123106D01*
X0052167Y0123300D01*
X0049167Y0123300D02*
X0049165Y0123167D01*
X0049160Y0123035D01*
X0049151Y0122903D01*
X0049139Y0122770D01*
X0049123Y0122639D01*
X0049104Y0122507D01*
X0049081Y0122377D01*
X0049055Y0122247D01*
X0049025Y0122117D01*
X0048992Y0121989D01*
X0048956Y0121861D01*
X0048916Y0121735D01*
X0048873Y0121609D01*
X0048826Y0121485D01*
X0048776Y0121362D01*
X0048723Y0121241D01*
X0048667Y0121121D01*
X0039667Y0121121D02*
X0039611Y0121241D01*
X0039558Y0121362D01*
X0039508Y0121485D01*
X0039461Y0121609D01*
X0039418Y0121735D01*
X0039378Y0121861D01*
X0039342Y0121989D01*
X0039309Y0122117D01*
X0039279Y0122247D01*
X0039253Y0122377D01*
X0039230Y0122507D01*
X0039211Y0122639D01*
X0039195Y0122770D01*
X0039183Y0122903D01*
X0039174Y0123035D01*
X0039169Y0123167D01*
X0039167Y0123300D01*
X0053767Y0024067D02*
X0054267Y0024067D01*
X0054434Y0023900D01*
X0054434Y0023567D01*
X0054267Y0023400D01*
X0053767Y0023400D01*
X0053767Y0023066D02*
X0053767Y0024067D01*
X0054872Y0023900D02*
X0054872Y0023567D01*
X0055038Y0023400D01*
X0055539Y0023400D01*
X0055977Y0023567D02*
X0056644Y0024234D01*
X0056644Y0023567D01*
X0056477Y0023400D01*
X0056143Y0023400D01*
X0055977Y0023567D01*
X0055977Y0024234D01*
X0056143Y0024401D01*
X0056477Y0024401D01*
X0056644Y0024234D01*
X0055539Y0024067D02*
X0055038Y0024067D01*
X0054872Y0023900D01*
X0037144Y0022734D02*
X0036977Y0022901D01*
X0036643Y0022901D01*
X0036477Y0022734D01*
X0036039Y0022567D02*
X0035538Y0022567D01*
X0035372Y0022400D01*
X0035372Y0022067D01*
X0035538Y0021900D01*
X0036039Y0021900D01*
X0036039Y0022901D01*
X0036477Y0021900D02*
X0037144Y0022567D01*
X0037144Y0022734D01*
X0037144Y0021900D02*
X0036477Y0021900D01*
X0034934Y0022067D02*
X0034767Y0021900D01*
X0034267Y0021900D01*
X0034267Y0021566D02*
X0034267Y0022567D01*
X0034767Y0022567D01*
X0034934Y0022400D01*
X0034934Y0022067D01*
X0098267Y0022566D02*
X0098267Y0023567D01*
X0098767Y0023567D01*
X0098934Y0023400D01*
X0098934Y0023067D01*
X0098767Y0022900D01*
X0098267Y0022900D01*
X0099372Y0023067D02*
X0099538Y0022900D01*
X0100039Y0022900D01*
X0100477Y0022900D02*
X0101144Y0022900D01*
X0100810Y0022900D02*
X0100810Y0023901D01*
X0100477Y0023567D01*
X0100039Y0023567D02*
X0099538Y0023567D01*
X0099372Y0023400D01*
X0099372Y0023067D01*
X0170566Y0018110D02*
X0170566Y0017777D01*
X0170733Y0017610D01*
X0170899Y0017172D02*
X0170899Y0016672D01*
X0171066Y0016505D01*
X0171400Y0016505D01*
X0171567Y0016672D01*
X0171567Y0017172D01*
X0171567Y0017610D02*
X0170899Y0018277D01*
X0170733Y0018277D01*
X0170566Y0018110D01*
X0171567Y0018277D02*
X0171567Y0017610D01*
X0171400Y0016067D02*
X0171567Y0015900D01*
X0171567Y0015400D01*
X0171900Y0015400D02*
X0170899Y0015400D01*
X0170899Y0015900D01*
X0171066Y0016067D01*
X0171400Y0016067D01*
X0215566Y0018277D02*
X0215566Y0018610D01*
X0215733Y0018777D01*
X0215899Y0018777D01*
X0216066Y0018610D01*
X0216233Y0018777D01*
X0216400Y0018777D01*
X0216567Y0018610D01*
X0216567Y0018277D01*
X0216400Y0018110D01*
X0216567Y0017672D02*
X0216567Y0017172D01*
X0216400Y0017005D01*
X0216066Y0017005D01*
X0215899Y0017172D01*
X0215899Y0017672D01*
X0215733Y0018110D02*
X0215566Y0018277D01*
X0216066Y0018443D02*
X0216066Y0018610D01*
X0216066Y0016567D02*
X0215899Y0016400D01*
X0215899Y0015900D01*
X0216900Y0015900D01*
X0216567Y0015900D02*
X0216567Y0016400D01*
X0216400Y0016567D01*
X0216066Y0016567D01*
X0235267Y0022566D02*
X0235267Y0023567D01*
X0235767Y0023567D01*
X0235934Y0023400D01*
X0235934Y0023067D01*
X0235767Y0022900D01*
X0235267Y0022900D01*
X0236372Y0022900D02*
X0236872Y0022900D01*
X0237039Y0023067D01*
X0237039Y0023400D01*
X0236872Y0023567D01*
X0236372Y0023567D01*
X0236372Y0023901D02*
X0236372Y0022900D01*
X0237477Y0022900D02*
X0238144Y0022900D01*
X0237810Y0022900D02*
X0237810Y0023901D01*
X0237477Y0023567D01*
X0268267Y0031400D02*
X0268767Y0031400D01*
X0268934Y0031567D01*
X0268767Y0031734D01*
X0268433Y0031734D01*
X0268267Y0031900D01*
X0268433Y0032067D01*
X0268934Y0032067D01*
X0269372Y0031900D02*
X0269538Y0032067D01*
X0269872Y0032067D01*
X0270039Y0031900D01*
X0270039Y0031734D01*
X0269372Y0031734D01*
X0269372Y0031900D02*
X0269372Y0031567D01*
X0269538Y0031400D01*
X0269872Y0031400D01*
X0270477Y0031400D02*
X0270477Y0032067D01*
X0270810Y0032067D02*
X0270977Y0032067D01*
X0270810Y0032067D02*
X0270477Y0031734D01*
X0271397Y0032067D02*
X0271731Y0031400D01*
X0272065Y0032067D01*
X0272502Y0031900D02*
X0272502Y0031567D01*
X0272669Y0031400D01*
X0273003Y0031400D01*
X0273169Y0031567D01*
X0273169Y0031900D01*
X0273003Y0032067D01*
X0272669Y0032067D01*
X0272502Y0031900D01*
X0196000Y0244534D02*
X0196000Y0244751D01*
X0195784Y0244967D01*
X0194699Y0244967D01*
X0194266Y0244967D02*
X0194049Y0244967D01*
X0194699Y0245671D02*
X0194699Y0246105D01*
X0194916Y0246322D01*
X0195567Y0246322D01*
X0195567Y0245671D01*
X0195350Y0245454D01*
X0195133Y0245671D01*
X0195133Y0246322D01*
X0195133Y0246836D02*
X0194699Y0247269D01*
X0194699Y0247486D01*
X0194699Y0247987D02*
X0195567Y0247987D01*
X0195133Y0247987D02*
X0194699Y0248420D01*
X0194699Y0248637D01*
X0194916Y0249138D02*
X0194699Y0249354D01*
X0194699Y0249788D01*
X0194916Y0250005D01*
X0195133Y0250005D01*
X0195133Y0249138D01*
X0195350Y0249138D02*
X0194916Y0249138D01*
X0195350Y0249138D02*
X0195567Y0249354D01*
X0195567Y0249788D01*
X0195350Y0250519D02*
X0194916Y0250519D01*
X0194699Y0250736D01*
X0194699Y0251386D01*
X0194266Y0251386D02*
X0195567Y0251386D01*
X0195567Y0250736D01*
X0195350Y0250519D01*
X0195567Y0246836D02*
X0194699Y0246836D01*
X0190567Y0246592D02*
X0190350Y0246375D01*
X0189916Y0246375D01*
X0189699Y0246592D01*
X0189699Y0247243D01*
X0189266Y0247243D02*
X0190567Y0247243D01*
X0190567Y0246592D01*
X0190350Y0247756D02*
X0190133Y0247973D01*
X0190133Y0248624D01*
X0189916Y0248624D02*
X0190567Y0248624D01*
X0190567Y0247973D01*
X0190350Y0247756D01*
X0189699Y0247973D02*
X0189699Y0248407D01*
X0189916Y0248624D01*
X0189699Y0249138D02*
X0190567Y0249571D01*
X0189699Y0250005D01*
X0189916Y0250519D02*
X0189699Y0250736D01*
X0189699Y0251169D01*
X0189916Y0251386D01*
X0190133Y0251386D01*
X0190133Y0250519D01*
X0190350Y0250519D02*
X0189916Y0250519D01*
X0190350Y0250519D02*
X0190567Y0250736D01*
X0190567Y0251169D01*
X0186567Y0250965D02*
X0185916Y0250965D01*
X0185699Y0250749D01*
X0185699Y0250098D01*
X0186567Y0250098D01*
X0186133Y0249584D02*
X0186133Y0248717D01*
X0186350Y0248717D02*
X0185916Y0248717D01*
X0185699Y0248934D01*
X0185699Y0249367D01*
X0185916Y0249584D01*
X0186133Y0249584D01*
X0186567Y0249367D02*
X0186567Y0248934D01*
X0186350Y0248717D01*
X0185699Y0248216D02*
X0185699Y0248000D01*
X0186133Y0247566D01*
X0186567Y0247566D02*
X0185699Y0247566D01*
X0185916Y0247052D02*
X0185699Y0246835D01*
X0185699Y0246185D01*
X0185266Y0246185D02*
X0186567Y0246185D01*
X0186567Y0246835D01*
X0186350Y0247052D01*
X0185916Y0247052D01*
X0185699Y0251479D02*
X0185699Y0251913D01*
X0185482Y0251696D02*
X0186350Y0251696D01*
X0186567Y0251913D01*
X0189749Y0256966D02*
X0189749Y0258267D01*
X0190400Y0258267D01*
X0190617Y0258051D01*
X0190617Y0257617D01*
X0190400Y0257400D01*
X0189749Y0257400D01*
X0191131Y0257400D02*
X0191131Y0258267D01*
X0191564Y0258267D02*
X0191781Y0258267D01*
X0191564Y0258267D02*
X0191131Y0257834D01*
X0192282Y0258051D02*
X0192282Y0257617D01*
X0192498Y0257400D01*
X0192932Y0257400D01*
X0193149Y0257617D01*
X0193149Y0258051D01*
X0192932Y0258267D01*
X0192498Y0258267D01*
X0192282Y0258051D01*
X0193663Y0256966D02*
X0193880Y0256966D01*
X0194096Y0257183D01*
X0194096Y0258267D01*
X0194096Y0258701D02*
X0194096Y0258918D01*
X0194800Y0258267D02*
X0195234Y0258267D01*
X0195451Y0258051D01*
X0195451Y0257834D01*
X0194583Y0257834D01*
X0194583Y0257617D02*
X0194583Y0258051D01*
X0194800Y0258267D01*
X0194583Y0257617D02*
X0194800Y0257400D01*
X0195234Y0257400D01*
X0195965Y0257617D02*
X0195965Y0258051D01*
X0196182Y0258267D01*
X0196832Y0258267D01*
X0197346Y0258267D02*
X0197780Y0258267D01*
X0197563Y0258484D02*
X0197563Y0257617D01*
X0197780Y0257400D01*
X0196832Y0257400D02*
X0196182Y0257400D01*
X0195965Y0257617D01*
X0196221Y0255767D02*
X0196004Y0255551D01*
X0196004Y0255117D01*
X0196221Y0254900D01*
X0196872Y0254900D01*
X0197385Y0254900D02*
X0198036Y0254900D01*
X0198253Y0255117D01*
X0198253Y0255551D01*
X0198036Y0255767D01*
X0197385Y0255767D01*
X0197385Y0256201D02*
X0197385Y0254900D01*
X0196872Y0255767D02*
X0196221Y0255767D01*
X0195491Y0255551D02*
X0195491Y0255117D01*
X0195274Y0254900D01*
X0194623Y0254900D01*
X0194623Y0254466D02*
X0194623Y0255767D01*
X0195274Y0255767D01*
X0195491Y0255551D01*
X0195340Y0260400D02*
X0195123Y0260617D01*
X0195123Y0261267D01*
X0194609Y0261051D02*
X0194392Y0261267D01*
X0193959Y0261267D01*
X0193742Y0261051D01*
X0193742Y0260617D01*
X0193959Y0260400D01*
X0194392Y0260400D01*
X0194609Y0260617D01*
X0194609Y0261051D01*
X0195340Y0260400D02*
X0195990Y0260400D01*
X0195990Y0261267D01*
X0196504Y0261051D02*
X0196721Y0261267D01*
X0197372Y0261267D01*
X0197155Y0260834D02*
X0196721Y0260834D01*
X0196504Y0261051D01*
X0196504Y0260400D02*
X0197155Y0260400D01*
X0197372Y0260617D01*
X0197155Y0260834D01*
X0197885Y0260834D02*
X0198753Y0260834D01*
X0198753Y0261051D01*
X0198536Y0261267D01*
X0198102Y0261267D01*
X0197885Y0261051D01*
X0197885Y0260617D01*
X0198102Y0260400D01*
X0198536Y0260400D01*
X0193228Y0260400D02*
X0193228Y0261051D01*
X0193011Y0261267D01*
X0192578Y0261267D01*
X0192361Y0261051D01*
X0191847Y0261051D02*
X0191847Y0260400D01*
X0192361Y0260400D02*
X0192361Y0261701D01*
X0191847Y0261051D02*
X0191630Y0261267D01*
X0190980Y0261267D01*
X0190980Y0260400D01*
X0190466Y0260834D02*
X0189598Y0260834D01*
X0189598Y0261051D02*
X0189815Y0261267D01*
X0190249Y0261267D01*
X0190466Y0261051D01*
X0190466Y0260834D01*
X0190249Y0260400D02*
X0189815Y0260400D01*
X0189598Y0260617D01*
X0189598Y0261051D01*
X0189085Y0261051D02*
X0189085Y0260834D01*
X0188217Y0260834D01*
X0188217Y0261051D02*
X0188434Y0261267D01*
X0188868Y0261267D01*
X0189085Y0261051D01*
X0188868Y0260400D02*
X0188434Y0260400D01*
X0188217Y0260617D01*
X0188217Y0261051D01*
X0187717Y0261267D02*
X0187500Y0261267D01*
X0187066Y0260834D01*
X0187066Y0261267D02*
X0187066Y0260400D01*
X0186552Y0260400D02*
X0185902Y0260400D01*
X0185685Y0260617D01*
X0185685Y0261051D01*
X0185902Y0261267D01*
X0186552Y0261267D01*
X0186552Y0260183D01*
X0186336Y0259966D01*
X0186119Y0259966D01*
D16*
X0070596Y0246867D02*
X0070563Y0246867D01*
X0070580Y0246883D02*
X0070580Y0246817D01*
X0070596Y0246800D01*
X0070538Y0246800D02*
X0070538Y0246850D01*
X0070521Y0246867D01*
X0070488Y0246867D01*
X0070471Y0246850D01*
X0070446Y0246867D02*
X0070396Y0246867D01*
X0070379Y0246850D01*
X0070379Y0246817D01*
X0070396Y0246800D01*
X0070446Y0246800D01*
X0070446Y0246783D02*
X0070446Y0246867D01*
X0070471Y0246900D02*
X0070471Y0246800D01*
X0070446Y0246783D02*
X0070429Y0246767D01*
X0070412Y0246767D01*
X0070351Y0246800D02*
X0070318Y0246800D01*
X0070334Y0246800D02*
X0070334Y0246867D01*
X0070318Y0246867D01*
X0070334Y0246900D02*
X0070334Y0246917D01*
X0070273Y0246900D02*
X0070273Y0246800D01*
X0070256Y0246800D02*
X0070290Y0246800D01*
X0070273Y0246900D02*
X0070256Y0246900D01*
X0070139Y0246850D02*
X0070139Y0246833D01*
X0070072Y0246833D01*
X0070072Y0246817D02*
X0070072Y0246850D01*
X0070089Y0246867D01*
X0070122Y0246867D01*
X0070139Y0246850D01*
X0070122Y0246800D02*
X0070089Y0246800D01*
X0070072Y0246817D01*
X0070047Y0246817D02*
X0070047Y0246850D01*
X0070030Y0246867D01*
X0069980Y0246867D01*
X0069980Y0246900D02*
X0069980Y0246800D01*
X0070030Y0246800D01*
X0070047Y0246817D01*
X0069863Y0246833D02*
X0069796Y0246833D01*
X0069796Y0246817D02*
X0069796Y0246850D01*
X0069813Y0246867D01*
X0069846Y0246867D01*
X0069863Y0246850D01*
X0069863Y0246833D01*
X0069846Y0246800D02*
X0069813Y0246800D01*
X0069796Y0246817D01*
X0069769Y0246867D02*
X0069752Y0246867D01*
X0069719Y0246833D01*
X0069694Y0246833D02*
X0069627Y0246833D01*
X0069627Y0246817D02*
X0069627Y0246850D01*
X0069644Y0246867D01*
X0069677Y0246867D01*
X0069694Y0246850D01*
X0069694Y0246833D01*
X0069677Y0246800D02*
X0069644Y0246800D01*
X0069627Y0246817D01*
X0069602Y0246800D02*
X0069602Y0246850D01*
X0069585Y0246867D01*
X0069552Y0246867D01*
X0069535Y0246850D01*
X0069507Y0246867D02*
X0069474Y0246867D01*
X0069490Y0246883D02*
X0069490Y0246817D01*
X0069507Y0246800D01*
X0069535Y0246800D02*
X0069535Y0246900D01*
X0069353Y0246867D02*
X0069320Y0246867D01*
X0069337Y0246883D02*
X0069337Y0246817D01*
X0069353Y0246800D01*
X0069295Y0246833D02*
X0069228Y0246833D01*
X0069228Y0246817D02*
X0069228Y0246850D01*
X0069245Y0246867D01*
X0069278Y0246867D01*
X0069295Y0246850D01*
X0069295Y0246833D01*
X0069278Y0246800D02*
X0069245Y0246800D01*
X0069228Y0246817D01*
X0069200Y0246800D02*
X0069167Y0246800D01*
X0069183Y0246800D02*
X0069183Y0246900D01*
X0069167Y0246900D01*
X0069719Y0246867D02*
X0069719Y0246800D01*
D17*
X0112001Y0257288D02*
X0112001Y0234280D01*
X0146430Y0234280D01*
X0146430Y0259320D01*
X0112001Y0259320D01*
X0112001Y0257288D01*
X0146037Y0257288D01*
X0161430Y0209320D02*
X0127001Y0209320D01*
X0127001Y0207288D01*
X0161037Y0207288D01*
X0161430Y0209320D02*
X0161430Y0184280D01*
X0127001Y0184280D01*
X0127001Y0207288D01*
X0186667Y0168300D02*
X0251667Y0168300D01*
X0251667Y0079300D01*
X0186667Y0079300D01*
X0186667Y0168300D01*
X0204467Y0145300D02*
X0216667Y0145300D01*
X0219167Y0142800D02*
X0219167Y0116800D01*
X0216667Y0114300D02*
X0221667Y0104300D01*
X0216667Y0104300D01*
X0219167Y0101800D02*
X0219167Y0097800D01*
X0221667Y0109300D02*
X0242667Y0109300D01*
X0242667Y0106800D01*
X0255466Y0129158D02*
X0256265Y0129158D01*
X0256265Y0168457D01*
X0282265Y0168457D01*
X0291667Y0168457D01*
X0291667Y0129158D01*
X0282265Y0129158D01*
X0256265Y0129158D01*
X0255466Y0129158D02*
X0255466Y0168457D01*
X0256265Y0168457D01*
X0256265Y0169158D02*
X0255466Y0169158D01*
X0255466Y0208457D01*
X0256265Y0208457D01*
X0282265Y0208457D01*
X0291667Y0208457D01*
X0291667Y0169158D01*
X0282265Y0169158D01*
X0256265Y0169158D01*
X0256265Y0208457D01*
X0259467Y0198657D02*
X0259469Y0198746D01*
X0259475Y0198835D01*
X0259485Y0198924D01*
X0259499Y0199012D01*
X0259516Y0199099D01*
X0259538Y0199185D01*
X0259564Y0199271D01*
X0259593Y0199355D01*
X0259626Y0199438D01*
X0259662Y0199519D01*
X0259703Y0199599D01*
X0259746Y0199676D01*
X0259793Y0199752D01*
X0259844Y0199825D01*
X0259897Y0199896D01*
X0259954Y0199965D01*
X0260014Y0200031D01*
X0260077Y0200095D01*
X0260142Y0200155D01*
X0260210Y0200213D01*
X0260281Y0200267D01*
X0260354Y0200318D01*
X0260429Y0200366D01*
X0260506Y0200411D01*
X0260585Y0200452D01*
X0260666Y0200489D01*
X0260748Y0200523D01*
X0260832Y0200554D01*
X0260917Y0200580D01*
X0261003Y0200603D01*
X0261090Y0200621D01*
X0261178Y0200636D01*
X0261267Y0200647D01*
X0261356Y0200654D01*
X0261445Y0200657D01*
X0261534Y0200656D01*
X0261623Y0200651D01*
X0261711Y0200642D01*
X0261800Y0200629D01*
X0261887Y0200612D01*
X0261974Y0200592D01*
X0262060Y0200567D01*
X0262144Y0200539D01*
X0262227Y0200507D01*
X0262309Y0200471D01*
X0262389Y0200432D01*
X0262467Y0200389D01*
X0262543Y0200343D01*
X0262617Y0200293D01*
X0262689Y0200240D01*
X0262758Y0200184D01*
X0262825Y0200125D01*
X0262889Y0200063D01*
X0262950Y0199999D01*
X0263009Y0199931D01*
X0263064Y0199861D01*
X0263116Y0199789D01*
X0263165Y0199714D01*
X0263210Y0199638D01*
X0263252Y0199559D01*
X0263290Y0199479D01*
X0263325Y0199397D01*
X0263356Y0199313D01*
X0263384Y0199228D01*
X0263407Y0199142D01*
X0263427Y0199055D01*
X0263443Y0198968D01*
X0263455Y0198879D01*
X0263463Y0198791D01*
X0263467Y0198702D01*
X0263467Y0198612D01*
X0263463Y0198523D01*
X0263455Y0198435D01*
X0263443Y0198346D01*
X0263427Y0198259D01*
X0263407Y0198172D01*
X0263384Y0198086D01*
X0263356Y0198001D01*
X0263325Y0197917D01*
X0263290Y0197835D01*
X0263252Y0197755D01*
X0263210Y0197676D01*
X0263165Y0197600D01*
X0263116Y0197525D01*
X0263064Y0197453D01*
X0263009Y0197383D01*
X0262950Y0197315D01*
X0262889Y0197251D01*
X0262825Y0197189D01*
X0262758Y0197130D01*
X0262689Y0197074D01*
X0262617Y0197021D01*
X0262543Y0196971D01*
X0262467Y0196925D01*
X0262389Y0196882D01*
X0262309Y0196843D01*
X0262227Y0196807D01*
X0262144Y0196775D01*
X0262060Y0196747D01*
X0261974Y0196722D01*
X0261887Y0196702D01*
X0261800Y0196685D01*
X0261711Y0196672D01*
X0261623Y0196663D01*
X0261534Y0196658D01*
X0261445Y0196657D01*
X0261356Y0196660D01*
X0261267Y0196667D01*
X0261178Y0196678D01*
X0261090Y0196693D01*
X0261003Y0196711D01*
X0260917Y0196734D01*
X0260832Y0196760D01*
X0260748Y0196791D01*
X0260666Y0196825D01*
X0260585Y0196862D01*
X0260506Y0196903D01*
X0260429Y0196948D01*
X0260354Y0196996D01*
X0260281Y0197047D01*
X0260210Y0197101D01*
X0260142Y0197159D01*
X0260077Y0197219D01*
X0260014Y0197283D01*
X0259954Y0197349D01*
X0259897Y0197418D01*
X0259844Y0197489D01*
X0259793Y0197562D01*
X0259746Y0197638D01*
X0259703Y0197715D01*
X0259662Y0197795D01*
X0259626Y0197876D01*
X0259593Y0197959D01*
X0259564Y0198043D01*
X0259538Y0198129D01*
X0259516Y0198215D01*
X0259499Y0198302D01*
X0259485Y0198390D01*
X0259475Y0198479D01*
X0259469Y0198568D01*
X0259467Y0198657D01*
X0259467Y0178957D02*
X0259469Y0179046D01*
X0259475Y0179135D01*
X0259485Y0179224D01*
X0259499Y0179312D01*
X0259516Y0179399D01*
X0259538Y0179485D01*
X0259564Y0179571D01*
X0259593Y0179655D01*
X0259626Y0179738D01*
X0259662Y0179819D01*
X0259703Y0179899D01*
X0259746Y0179976D01*
X0259793Y0180052D01*
X0259844Y0180125D01*
X0259897Y0180196D01*
X0259954Y0180265D01*
X0260014Y0180331D01*
X0260077Y0180395D01*
X0260142Y0180455D01*
X0260210Y0180513D01*
X0260281Y0180567D01*
X0260354Y0180618D01*
X0260429Y0180666D01*
X0260506Y0180711D01*
X0260585Y0180752D01*
X0260666Y0180789D01*
X0260748Y0180823D01*
X0260832Y0180854D01*
X0260917Y0180880D01*
X0261003Y0180903D01*
X0261090Y0180921D01*
X0261178Y0180936D01*
X0261267Y0180947D01*
X0261356Y0180954D01*
X0261445Y0180957D01*
X0261534Y0180956D01*
X0261623Y0180951D01*
X0261711Y0180942D01*
X0261800Y0180929D01*
X0261887Y0180912D01*
X0261974Y0180892D01*
X0262060Y0180867D01*
X0262144Y0180839D01*
X0262227Y0180807D01*
X0262309Y0180771D01*
X0262389Y0180732D01*
X0262467Y0180689D01*
X0262543Y0180643D01*
X0262617Y0180593D01*
X0262689Y0180540D01*
X0262758Y0180484D01*
X0262825Y0180425D01*
X0262889Y0180363D01*
X0262950Y0180299D01*
X0263009Y0180231D01*
X0263064Y0180161D01*
X0263116Y0180089D01*
X0263165Y0180014D01*
X0263210Y0179938D01*
X0263252Y0179859D01*
X0263290Y0179779D01*
X0263325Y0179697D01*
X0263356Y0179613D01*
X0263384Y0179528D01*
X0263407Y0179442D01*
X0263427Y0179355D01*
X0263443Y0179268D01*
X0263455Y0179179D01*
X0263463Y0179091D01*
X0263467Y0179002D01*
X0263467Y0178912D01*
X0263463Y0178823D01*
X0263455Y0178735D01*
X0263443Y0178646D01*
X0263427Y0178559D01*
X0263407Y0178472D01*
X0263384Y0178386D01*
X0263356Y0178301D01*
X0263325Y0178217D01*
X0263290Y0178135D01*
X0263252Y0178055D01*
X0263210Y0177976D01*
X0263165Y0177900D01*
X0263116Y0177825D01*
X0263064Y0177753D01*
X0263009Y0177683D01*
X0262950Y0177615D01*
X0262889Y0177551D01*
X0262825Y0177489D01*
X0262758Y0177430D01*
X0262689Y0177374D01*
X0262617Y0177321D01*
X0262543Y0177271D01*
X0262467Y0177225D01*
X0262389Y0177182D01*
X0262309Y0177143D01*
X0262227Y0177107D01*
X0262144Y0177075D01*
X0262060Y0177047D01*
X0261974Y0177022D01*
X0261887Y0177002D01*
X0261800Y0176985D01*
X0261711Y0176972D01*
X0261623Y0176963D01*
X0261534Y0176958D01*
X0261445Y0176957D01*
X0261356Y0176960D01*
X0261267Y0176967D01*
X0261178Y0176978D01*
X0261090Y0176993D01*
X0261003Y0177011D01*
X0260917Y0177034D01*
X0260832Y0177060D01*
X0260748Y0177091D01*
X0260666Y0177125D01*
X0260585Y0177162D01*
X0260506Y0177203D01*
X0260429Y0177248D01*
X0260354Y0177296D01*
X0260281Y0177347D01*
X0260210Y0177401D01*
X0260142Y0177459D01*
X0260077Y0177519D01*
X0260014Y0177583D01*
X0259954Y0177649D01*
X0259897Y0177718D01*
X0259844Y0177789D01*
X0259793Y0177862D01*
X0259746Y0177938D01*
X0259703Y0178015D01*
X0259662Y0178095D01*
X0259626Y0178176D01*
X0259593Y0178259D01*
X0259564Y0178343D01*
X0259538Y0178429D01*
X0259516Y0178515D01*
X0259499Y0178602D01*
X0259485Y0178690D01*
X0259475Y0178779D01*
X0259469Y0178868D01*
X0259467Y0178957D01*
X0259467Y0158657D02*
X0259469Y0158746D01*
X0259475Y0158835D01*
X0259485Y0158924D01*
X0259499Y0159012D01*
X0259516Y0159099D01*
X0259538Y0159185D01*
X0259564Y0159271D01*
X0259593Y0159355D01*
X0259626Y0159438D01*
X0259662Y0159519D01*
X0259703Y0159599D01*
X0259746Y0159676D01*
X0259793Y0159752D01*
X0259844Y0159825D01*
X0259897Y0159896D01*
X0259954Y0159965D01*
X0260014Y0160031D01*
X0260077Y0160095D01*
X0260142Y0160155D01*
X0260210Y0160213D01*
X0260281Y0160267D01*
X0260354Y0160318D01*
X0260429Y0160366D01*
X0260506Y0160411D01*
X0260585Y0160452D01*
X0260666Y0160489D01*
X0260748Y0160523D01*
X0260832Y0160554D01*
X0260917Y0160580D01*
X0261003Y0160603D01*
X0261090Y0160621D01*
X0261178Y0160636D01*
X0261267Y0160647D01*
X0261356Y0160654D01*
X0261445Y0160657D01*
X0261534Y0160656D01*
X0261623Y0160651D01*
X0261711Y0160642D01*
X0261800Y0160629D01*
X0261887Y0160612D01*
X0261974Y0160592D01*
X0262060Y0160567D01*
X0262144Y0160539D01*
X0262227Y0160507D01*
X0262309Y0160471D01*
X0262389Y0160432D01*
X0262467Y0160389D01*
X0262543Y0160343D01*
X0262617Y0160293D01*
X0262689Y0160240D01*
X0262758Y0160184D01*
X0262825Y0160125D01*
X0262889Y0160063D01*
X0262950Y0159999D01*
X0263009Y0159931D01*
X0263064Y0159861D01*
X0263116Y0159789D01*
X0263165Y0159714D01*
X0263210Y0159638D01*
X0263252Y0159559D01*
X0263290Y0159479D01*
X0263325Y0159397D01*
X0263356Y0159313D01*
X0263384Y0159228D01*
X0263407Y0159142D01*
X0263427Y0159055D01*
X0263443Y0158968D01*
X0263455Y0158879D01*
X0263463Y0158791D01*
X0263467Y0158702D01*
X0263467Y0158612D01*
X0263463Y0158523D01*
X0263455Y0158435D01*
X0263443Y0158346D01*
X0263427Y0158259D01*
X0263407Y0158172D01*
X0263384Y0158086D01*
X0263356Y0158001D01*
X0263325Y0157917D01*
X0263290Y0157835D01*
X0263252Y0157755D01*
X0263210Y0157676D01*
X0263165Y0157600D01*
X0263116Y0157525D01*
X0263064Y0157453D01*
X0263009Y0157383D01*
X0262950Y0157315D01*
X0262889Y0157251D01*
X0262825Y0157189D01*
X0262758Y0157130D01*
X0262689Y0157074D01*
X0262617Y0157021D01*
X0262543Y0156971D01*
X0262467Y0156925D01*
X0262389Y0156882D01*
X0262309Y0156843D01*
X0262227Y0156807D01*
X0262144Y0156775D01*
X0262060Y0156747D01*
X0261974Y0156722D01*
X0261887Y0156702D01*
X0261800Y0156685D01*
X0261711Y0156672D01*
X0261623Y0156663D01*
X0261534Y0156658D01*
X0261445Y0156657D01*
X0261356Y0156660D01*
X0261267Y0156667D01*
X0261178Y0156678D01*
X0261090Y0156693D01*
X0261003Y0156711D01*
X0260917Y0156734D01*
X0260832Y0156760D01*
X0260748Y0156791D01*
X0260666Y0156825D01*
X0260585Y0156862D01*
X0260506Y0156903D01*
X0260429Y0156948D01*
X0260354Y0156996D01*
X0260281Y0157047D01*
X0260210Y0157101D01*
X0260142Y0157159D01*
X0260077Y0157219D01*
X0260014Y0157283D01*
X0259954Y0157349D01*
X0259897Y0157418D01*
X0259844Y0157489D01*
X0259793Y0157562D01*
X0259746Y0157638D01*
X0259703Y0157715D01*
X0259662Y0157795D01*
X0259626Y0157876D01*
X0259593Y0157959D01*
X0259564Y0158043D01*
X0259538Y0158129D01*
X0259516Y0158215D01*
X0259499Y0158302D01*
X0259485Y0158390D01*
X0259475Y0158479D01*
X0259469Y0158568D01*
X0259467Y0158657D01*
X0259467Y0138957D02*
X0259469Y0139046D01*
X0259475Y0139135D01*
X0259485Y0139224D01*
X0259499Y0139312D01*
X0259516Y0139399D01*
X0259538Y0139485D01*
X0259564Y0139571D01*
X0259593Y0139655D01*
X0259626Y0139738D01*
X0259662Y0139819D01*
X0259703Y0139899D01*
X0259746Y0139976D01*
X0259793Y0140052D01*
X0259844Y0140125D01*
X0259897Y0140196D01*
X0259954Y0140265D01*
X0260014Y0140331D01*
X0260077Y0140395D01*
X0260142Y0140455D01*
X0260210Y0140513D01*
X0260281Y0140567D01*
X0260354Y0140618D01*
X0260429Y0140666D01*
X0260506Y0140711D01*
X0260585Y0140752D01*
X0260666Y0140789D01*
X0260748Y0140823D01*
X0260832Y0140854D01*
X0260917Y0140880D01*
X0261003Y0140903D01*
X0261090Y0140921D01*
X0261178Y0140936D01*
X0261267Y0140947D01*
X0261356Y0140954D01*
X0261445Y0140957D01*
X0261534Y0140956D01*
X0261623Y0140951D01*
X0261711Y0140942D01*
X0261800Y0140929D01*
X0261887Y0140912D01*
X0261974Y0140892D01*
X0262060Y0140867D01*
X0262144Y0140839D01*
X0262227Y0140807D01*
X0262309Y0140771D01*
X0262389Y0140732D01*
X0262467Y0140689D01*
X0262543Y0140643D01*
X0262617Y0140593D01*
X0262689Y0140540D01*
X0262758Y0140484D01*
X0262825Y0140425D01*
X0262889Y0140363D01*
X0262950Y0140299D01*
X0263009Y0140231D01*
X0263064Y0140161D01*
X0263116Y0140089D01*
X0263165Y0140014D01*
X0263210Y0139938D01*
X0263252Y0139859D01*
X0263290Y0139779D01*
X0263325Y0139697D01*
X0263356Y0139613D01*
X0263384Y0139528D01*
X0263407Y0139442D01*
X0263427Y0139355D01*
X0263443Y0139268D01*
X0263455Y0139179D01*
X0263463Y0139091D01*
X0263467Y0139002D01*
X0263467Y0138912D01*
X0263463Y0138823D01*
X0263455Y0138735D01*
X0263443Y0138646D01*
X0263427Y0138559D01*
X0263407Y0138472D01*
X0263384Y0138386D01*
X0263356Y0138301D01*
X0263325Y0138217D01*
X0263290Y0138135D01*
X0263252Y0138055D01*
X0263210Y0137976D01*
X0263165Y0137900D01*
X0263116Y0137825D01*
X0263064Y0137753D01*
X0263009Y0137683D01*
X0262950Y0137615D01*
X0262889Y0137551D01*
X0262825Y0137489D01*
X0262758Y0137430D01*
X0262689Y0137374D01*
X0262617Y0137321D01*
X0262543Y0137271D01*
X0262467Y0137225D01*
X0262389Y0137182D01*
X0262309Y0137143D01*
X0262227Y0137107D01*
X0262144Y0137075D01*
X0262060Y0137047D01*
X0261974Y0137022D01*
X0261887Y0137002D01*
X0261800Y0136985D01*
X0261711Y0136972D01*
X0261623Y0136963D01*
X0261534Y0136958D01*
X0261445Y0136957D01*
X0261356Y0136960D01*
X0261267Y0136967D01*
X0261178Y0136978D01*
X0261090Y0136993D01*
X0261003Y0137011D01*
X0260917Y0137034D01*
X0260832Y0137060D01*
X0260748Y0137091D01*
X0260666Y0137125D01*
X0260585Y0137162D01*
X0260506Y0137203D01*
X0260429Y0137248D01*
X0260354Y0137296D01*
X0260281Y0137347D01*
X0260210Y0137401D01*
X0260142Y0137459D01*
X0260077Y0137519D01*
X0260014Y0137583D01*
X0259954Y0137649D01*
X0259897Y0137718D01*
X0259844Y0137789D01*
X0259793Y0137862D01*
X0259746Y0137938D01*
X0259703Y0138015D01*
X0259662Y0138095D01*
X0259626Y0138176D01*
X0259593Y0138259D01*
X0259564Y0138343D01*
X0259538Y0138429D01*
X0259516Y0138515D01*
X0259499Y0138602D01*
X0259485Y0138690D01*
X0259475Y0138779D01*
X0259469Y0138868D01*
X0259467Y0138957D01*
X0282265Y0135457D02*
X0282265Y0129158D01*
X0282265Y0142457D02*
X0282265Y0155158D01*
X0282265Y0162158D02*
X0282265Y0168457D01*
X0282265Y0169158D02*
X0282265Y0175457D01*
X0282265Y0182457D02*
X0282265Y0195158D01*
X0282265Y0202158D02*
X0282265Y0208457D01*
X0285167Y0253800D02*
X0286167Y0253800D01*
X0286167Y0267800D01*
X0213167Y0253800D02*
X0212167Y0253800D01*
X0212167Y0267800D01*
X0221667Y0145300D02*
X0233967Y0145300D01*
X0216667Y0109300D02*
X0195667Y0109300D01*
X0195667Y0106800D01*
X0144167Y0134300D02*
X0144167Y0139300D01*
X0141667Y0141800D01*
X0136667Y0141800D01*
X0134167Y0139300D01*
X0131667Y0141800D01*
X0126667Y0141800D01*
X0124167Y0139300D01*
X0121667Y0141800D01*
X0116667Y0141800D01*
X0114167Y0139300D01*
X0111667Y0141800D01*
X0106667Y0141800D01*
X0104167Y0139300D01*
X0101667Y0141800D01*
X0096667Y0141800D01*
X0094167Y0139300D01*
X0091667Y0141800D01*
X0086667Y0141800D01*
X0084167Y0139300D01*
X0084167Y0134300D01*
X0086667Y0131800D01*
X0091667Y0131800D01*
X0094167Y0134300D01*
X0096667Y0131800D01*
X0101667Y0131800D01*
X0104167Y0134300D01*
X0106667Y0131800D01*
X0111667Y0131800D01*
X0114167Y0134300D01*
X0116667Y0131800D01*
X0121667Y0131800D01*
X0124167Y0134300D01*
X0126667Y0131800D01*
X0131667Y0131800D01*
X0134167Y0134300D01*
X0136667Y0131800D01*
X0141667Y0131800D01*
X0144167Y0134300D01*
X0087966Y0094202D02*
X0086568Y0095599D01*
X0060367Y0095599D01*
X0060367Y0068001D01*
X0087966Y0068001D01*
X0087966Y0094202D01*
X0083553Y0092600D02*
X0083555Y0092675D01*
X0083561Y0092749D01*
X0083571Y0092823D01*
X0083584Y0092896D01*
X0083602Y0092969D01*
X0083623Y0093040D01*
X0083648Y0093111D01*
X0083677Y0093180D01*
X0083710Y0093247D01*
X0083746Y0093312D01*
X0083785Y0093376D01*
X0083827Y0093437D01*
X0083873Y0093496D01*
X0083922Y0093553D01*
X0083974Y0093606D01*
X0084028Y0093657D01*
X0084085Y0093706D01*
X0084145Y0093750D01*
X0084207Y0093792D01*
X0084271Y0093831D01*
X0084337Y0093866D01*
X0084404Y0093897D01*
X0084474Y0093925D01*
X0084544Y0093949D01*
X0084616Y0093970D01*
X0084689Y0093986D01*
X0084762Y0093999D01*
X0084837Y0094008D01*
X0084911Y0094013D01*
X0084986Y0094014D01*
X0085060Y0094011D01*
X0085135Y0094004D01*
X0085208Y0093993D01*
X0085282Y0093979D01*
X0085354Y0093960D01*
X0085425Y0093938D01*
X0085495Y0093912D01*
X0085564Y0093882D01*
X0085630Y0093849D01*
X0085695Y0093812D01*
X0085758Y0093772D01*
X0085819Y0093728D01*
X0085877Y0093682D01*
X0085933Y0093632D01*
X0085986Y0093580D01*
X0086037Y0093525D01*
X0086084Y0093467D01*
X0086128Y0093407D01*
X0086169Y0093344D01*
X0086207Y0093280D01*
X0086241Y0093214D01*
X0086272Y0093145D01*
X0086299Y0093076D01*
X0086322Y0093005D01*
X0086341Y0092933D01*
X0086357Y0092860D01*
X0086369Y0092786D01*
X0086377Y0092712D01*
X0086381Y0092637D01*
X0086381Y0092563D01*
X0086377Y0092488D01*
X0086369Y0092414D01*
X0086357Y0092340D01*
X0086341Y0092267D01*
X0086322Y0092195D01*
X0086299Y0092124D01*
X0086272Y0092055D01*
X0086241Y0091986D01*
X0086207Y0091920D01*
X0086169Y0091856D01*
X0086128Y0091793D01*
X0086084Y0091733D01*
X0086037Y0091675D01*
X0085986Y0091620D01*
X0085933Y0091568D01*
X0085877Y0091518D01*
X0085819Y0091472D01*
X0085758Y0091428D01*
X0085695Y0091388D01*
X0085630Y0091351D01*
X0085564Y0091318D01*
X0085495Y0091288D01*
X0085425Y0091262D01*
X0085354Y0091240D01*
X0085282Y0091221D01*
X0085208Y0091207D01*
X0085135Y0091196D01*
X0085060Y0091189D01*
X0084986Y0091186D01*
X0084911Y0091187D01*
X0084837Y0091192D01*
X0084762Y0091201D01*
X0084689Y0091214D01*
X0084616Y0091230D01*
X0084544Y0091251D01*
X0084474Y0091275D01*
X0084404Y0091303D01*
X0084337Y0091334D01*
X0084271Y0091369D01*
X0084207Y0091408D01*
X0084145Y0091450D01*
X0084085Y0091494D01*
X0084028Y0091543D01*
X0083974Y0091594D01*
X0083922Y0091647D01*
X0083873Y0091704D01*
X0083827Y0091763D01*
X0083785Y0091824D01*
X0083746Y0091888D01*
X0083710Y0091953D01*
X0083677Y0092020D01*
X0083648Y0092089D01*
X0083623Y0092160D01*
X0083602Y0092231D01*
X0083584Y0092304D01*
X0083571Y0092377D01*
X0083561Y0092451D01*
X0083555Y0092525D01*
X0083553Y0092600D01*
X0053667Y0115300D02*
X0053667Y0158300D01*
X0053665Y0158360D01*
X0053660Y0158421D01*
X0053651Y0158480D01*
X0053638Y0158539D01*
X0053622Y0158598D01*
X0053602Y0158655D01*
X0053579Y0158710D01*
X0053552Y0158765D01*
X0053523Y0158817D01*
X0053490Y0158868D01*
X0053454Y0158917D01*
X0053416Y0158963D01*
X0053374Y0159007D01*
X0053330Y0159049D01*
X0053284Y0159087D01*
X0053235Y0159123D01*
X0053184Y0159156D01*
X0053132Y0159185D01*
X0053077Y0159212D01*
X0053022Y0159235D01*
X0052965Y0159255D01*
X0052906Y0159271D01*
X0052847Y0159284D01*
X0052788Y0159293D01*
X0052727Y0159298D01*
X0052667Y0159300D01*
X0048667Y0159300D01*
X0039667Y0159300D02*
X0035667Y0159300D01*
X0035607Y0159298D01*
X0035546Y0159293D01*
X0035487Y0159284D01*
X0035428Y0159271D01*
X0035369Y0159255D01*
X0035312Y0159235D01*
X0035257Y0159212D01*
X0035202Y0159185D01*
X0035150Y0159156D01*
X0035099Y0159123D01*
X0035050Y0159087D01*
X0035004Y0159049D01*
X0034960Y0159007D01*
X0034918Y0158963D01*
X0034880Y0158917D01*
X0034844Y0158868D01*
X0034811Y0158817D01*
X0034782Y0158765D01*
X0034755Y0158710D01*
X0034732Y0158655D01*
X0034712Y0158598D01*
X0034696Y0158539D01*
X0034683Y0158480D01*
X0034674Y0158421D01*
X0034669Y0158360D01*
X0034667Y0158300D01*
X0034667Y0115300D01*
X0034669Y0115240D01*
X0034674Y0115179D01*
X0034683Y0115120D01*
X0034696Y0115061D01*
X0034712Y0115002D01*
X0034732Y0114945D01*
X0034755Y0114890D01*
X0034782Y0114835D01*
X0034811Y0114783D01*
X0034844Y0114732D01*
X0034880Y0114683D01*
X0034918Y0114637D01*
X0034960Y0114593D01*
X0035004Y0114551D01*
X0035050Y0114513D01*
X0035099Y0114477D01*
X0035150Y0114444D01*
X0035202Y0114415D01*
X0035257Y0114388D01*
X0035312Y0114365D01*
X0035369Y0114345D01*
X0035428Y0114329D01*
X0035487Y0114316D01*
X0035546Y0114307D01*
X0035607Y0114302D01*
X0035667Y0114300D01*
X0039667Y0114300D01*
X0048667Y0114300D02*
X0052667Y0114300D01*
X0052727Y0114302D01*
X0052788Y0114307D01*
X0052847Y0114316D01*
X0052906Y0114329D01*
X0052965Y0114345D01*
X0053022Y0114365D01*
X0053077Y0114388D01*
X0053132Y0114415D01*
X0053184Y0114444D01*
X0053235Y0114477D01*
X0053284Y0114513D01*
X0053330Y0114551D01*
X0053374Y0114593D01*
X0053416Y0114637D01*
X0053454Y0114683D01*
X0053490Y0114732D01*
X0053523Y0114783D01*
X0053552Y0114835D01*
X0053579Y0114890D01*
X0053602Y0114945D01*
X0053622Y0115002D01*
X0053638Y0115061D01*
X0053651Y0115120D01*
X0053660Y0115179D01*
X0053665Y0115240D01*
X0053667Y0115300D01*
X0046667Y0134300D02*
X0044167Y0134300D01*
X0041667Y0134300D01*
X0041667Y0135800D02*
X0041667Y0137800D01*
X0046667Y0137800D01*
X0046667Y0135800D01*
X0041667Y0135800D01*
X0041667Y0139300D02*
X0044167Y0139300D01*
X0046667Y0139300D01*
X0019167Y0137800D02*
X0018167Y0136800D01*
X0019167Y0135800D01*
X0019167Y0126800D01*
X0019167Y0117800D01*
X0018167Y0116800D01*
X0019167Y0115800D01*
X0019167Y0107800D01*
X0018167Y0106800D01*
X0019167Y0105800D01*
X0019167Y0097800D01*
X0018167Y0096800D01*
X0019167Y0095800D01*
X0019167Y0087800D01*
X0018167Y0086800D01*
X0019167Y0085800D01*
X0019167Y0077800D01*
X0018167Y0076800D01*
X0019167Y0075800D01*
X0019167Y0067800D01*
X0018167Y0066800D01*
X0019167Y0065800D01*
X0019167Y0057800D01*
X0018167Y0056800D01*
X0019167Y0055800D01*
X0019167Y0046800D01*
X0009167Y0046800D01*
X0009167Y0055800D01*
X0010167Y0056800D01*
X0009167Y0057800D01*
X0009167Y0065800D01*
X0010167Y0066800D01*
X0009167Y0067800D01*
X0009167Y0075800D01*
X0010167Y0076800D01*
X0009167Y0077800D01*
X0009167Y0085800D01*
X0010167Y0086800D01*
X0009167Y0087800D01*
X0009167Y0095800D01*
X0010167Y0096800D01*
X0009167Y0097800D01*
X0009167Y0105800D01*
X0010167Y0106800D01*
X0009167Y0107800D01*
X0009167Y0115800D01*
X0010167Y0116800D01*
X0009167Y0117800D01*
X0009167Y0126800D01*
X0019167Y0126800D01*
X0009167Y0126800D01*
X0009167Y0135800D01*
X0010167Y0136800D01*
X0009167Y0137800D01*
X0009167Y0145800D01*
X0010167Y0146800D01*
X0009167Y0147800D01*
X0009167Y0155800D01*
X0010167Y0156800D01*
X0009167Y0157800D01*
X0009167Y0165800D01*
X0010167Y0166800D01*
X0009167Y0167800D01*
X0009167Y0175800D01*
X0010167Y0176800D01*
X0009167Y0177800D01*
X0009167Y0185800D01*
X0010167Y0186800D01*
X0009167Y0187800D01*
X0009167Y0195800D01*
X0010167Y0196800D01*
X0009167Y0197800D01*
X0009167Y0206800D01*
X0019167Y0206800D01*
X0019167Y0197800D01*
X0018167Y0196800D01*
X0019167Y0195800D01*
X0019167Y0187800D01*
X0018167Y0186800D01*
X0019167Y0185800D01*
X0019167Y0177800D01*
X0018167Y0176800D01*
X0019167Y0175800D01*
X0019167Y0167800D01*
X0018167Y0166800D01*
X0019167Y0165800D01*
X0019167Y0157800D01*
X0018167Y0156800D01*
X0019167Y0155800D01*
X0019167Y0147800D01*
X0018167Y0146800D01*
X0019167Y0145800D01*
X0019167Y0137800D01*
D18*
X0249167Y0270786D03*
D19*
X0006977Y0005776D02*
X0006977Y0002627D01*
X0048315Y0002627D01*
X0048315Y0005776D01*
X0006977Y0005776D01*
X0006977Y0030186D01*
X0048315Y0030186D01*
X0048315Y0005776D01*
X0051777Y0005776D02*
X0093115Y0005776D01*
X0093115Y0002627D01*
X0051777Y0002627D01*
X0051777Y0005776D01*
X0051777Y0030186D01*
X0093115Y0030186D01*
X0093115Y0005776D01*
X0097277Y0005776D02*
X0138615Y0005776D01*
X0138615Y0002627D01*
X0097277Y0002627D01*
X0097277Y0005776D01*
X0097277Y0030186D01*
X0138615Y0030186D01*
X0138615Y0005776D01*
X0142277Y0005776D02*
X0142277Y0002627D01*
X0183615Y0002627D01*
X0183615Y0005776D01*
X0142277Y0005776D01*
X0142277Y0030186D01*
X0183615Y0030186D01*
X0183615Y0005776D01*
X0187277Y0005776D02*
X0228615Y0005776D01*
X0228615Y0002627D01*
X0187277Y0002627D01*
X0187277Y0005776D01*
X0187277Y0030186D01*
X0228615Y0030186D01*
X0228615Y0005776D01*
X0232277Y0005776D02*
X0273615Y0005776D01*
X0273615Y0002627D01*
X0232277Y0002627D01*
X0232277Y0005776D01*
X0232277Y0030186D01*
X0273615Y0030186D01*
X0273615Y0005776D01*
X0246923Y0031288D02*
X0243773Y0031288D01*
X0246923Y0031288D02*
X0246923Y0033650D01*
X0246923Y0039950D02*
X0246923Y0042312D01*
X0243773Y0042312D01*
X0257631Y0059595D02*
X0283222Y0059595D01*
X0283222Y0123375D01*
X0287159Y0123375D01*
X0287159Y0059595D01*
X0283222Y0059595D01*
X0257631Y0059595D02*
X0257631Y0123375D01*
X0283222Y0123375D01*
X0182068Y0090300D02*
X0182067Y0066700D01*
X0182068Y0090300D02*
X0156265Y0090300D01*
X0156267Y0066700D01*
X0050383Y0221363D02*
X0042115Y0221363D01*
X0050383Y0221363D02*
X0050383Y0263489D01*
X0014950Y0263489D01*
X0014950Y0242623D01*
X0014950Y0224119D02*
X0014950Y0221363D01*
X0023218Y0221363D01*
D20*
X0142946Y0254674D03*
X0157946Y0204674D03*
D21*
X0197167Y0072800D03*
D22*
X0069757Y0239438D03*
X0069757Y0244162D03*
X0069757Y0249438D03*
X0069757Y0254162D03*
D23*
X0069757Y0251800D03*
X0069757Y0241800D03*
X0286667Y0041891D03*
D24*
X0289029Y0041891D03*
X0284304Y0041891D03*
D25*
X0169167Y0092200D03*
M02*
