%
M48
M72
T01C0.0150
T02C0.0200
T03C0.0236
T04C0.0320
T05C0.0354
T06C0.0400
T07C0.0470
T08C0.0472
T09C0.0512
T10C0.0520
T11C0.1180
%
T01
X3729Y5993
X8542Y8555
T02
X8017Y8080
X7767Y8930
X7367Y9080
X6967Y8730
X6417Y8730
X6917Y7730
X6867Y7080
X7417Y7080
X4917Y9680
X5417Y10180
X3417Y10180
X4417Y7780
X1917Y7180
X7417Y3680
X12417Y7680
X14417Y6180
X14917Y5780
X15417Y6180
X15517Y4780
X14917Y9680
X17917Y12180
X14717Y13930
X11917Y17180
X10417Y16680
X11917Y20180
X13417Y22330
X15417Y22180
X15917Y23180
X16917Y23180
X15417Y24680
X16617Y20530
X19917Y19180
X20467Y20980
X21917Y22180
X23417Y22180
X23417Y21180
X22917Y20680
X24417Y20180
X24917Y20180
X25417Y20830
X25917Y21180
X25417Y21680
X26017Y20380
X24917Y19180
X26917Y18680
X22917Y18680
X21917Y19180
X20467Y24230
X21017Y24880
X23917Y24680
X24917Y24680
X26917Y24680
X28917Y24980
X23717Y27180
X7917Y13180
X7043Y14054
X7417Y12180
X4917Y13180
X4917Y14680
X3417Y13680
X2767Y16430
X3917Y17680
X3417Y18180
X3917Y19180
X5417Y18180
X21917Y6680
X24917Y6680
T03
X24017Y5680
X22417Y5180
X20417Y8180
X15067Y11680
X12417Y12930
X10917Y11680
X10417Y12180
X9417Y12180
X7617Y11230
X5417Y11680
X2417Y14680
X2617Y16880
X5917Y19680
X6017Y17280
X8717Y18180
X9817Y17680
X10417Y17180
X9217Y15180
X11717Y14680
X10917Y10180
X10167Y5680
X8917Y4880
X5717Y6380
X4067Y8230
X3417Y7180
X12617Y3580
X12917Y5180
X14417Y5380
X14717Y4580
X10817Y19680
X9917Y19680
X9917Y21180
X10417Y22180
X9917Y23680
X9417Y24680
X8417Y19680
X14767Y26380
X16417Y26780
X17417Y26680
X15867Y24130
X19917Y20180
X19917Y19680
X21417Y20180
T04
X1417Y20180
X1417Y19180
X1417Y18180
X1417Y17180
X1417Y16180
X1417Y15180
X1417Y14180
X1417Y13180
X1417Y12180
X1417Y11180
X1417Y10180
X1417Y9180
X1417Y8180
X1417Y7180
X1417Y6180
X1417Y5180
T05
X11917Y11180
X12917Y11180
X13917Y11180
X13917Y12180
X12917Y12180
X11917Y12180
T06
X11917Y13680
X12917Y13680
X13917Y13680
X10917Y13680
X9917Y13680
X8917Y13680
T07
X27517Y13896
X27517Y15864
X27517Y17896
X27517Y19864
T08
X1317Y1680
X2765Y1680
X4213Y1680
X5797Y1680
X7245Y1680
X8693Y1680
X10347Y1680
X11795Y1680
X13243Y1680
X14847Y1680
X16295Y1680
X17743Y1680
X19347Y1680
X20795Y1680
X22243Y1680
X23847Y1680
X25295Y1680
X26743Y1680
X26417Y23680
X27417Y23680
X28417Y23680
X27917Y25680
X26917Y25680
X25917Y25680
X24917Y25680
X23917Y25680
X22917Y25680
X21917Y25680
X22417Y23680
X21417Y23680
X23417Y23680
X24417Y23680
X25417Y23680
T09
X27417Y11117
X27417Y9149
X27417Y7180
T10
X24267Y9730
X21917Y8930
X19567Y9730
X19567Y14530
X24267Y14530
T11
X3267Y22136
X1416Y23317
X3267Y24499
M30
