G75*
%MOIN*%
%OFA0B0*%
%FSLAX25Y25*%
%IPPOS*%
%LPD*%
%AMOC8*
5,1,8,0,0,1.08239X$1,22.5*
%
%ADD10OC8,0.06000*%
%ADD11C,0.07087*%
%ADD12C,0.06400*%
%ADD13C,0.17000*%
%ADD14R,0.09500X0.09500*%
%ADD15C,0.09500*%
%ADD16C,0.07050*%
%ADD17C,0.07800*%
%ADD18R,0.08000X0.08000*%
%ADD19C,0.08000*%
%ADD20C,0.05200*%
%ADD21OC8,0.03562*%
%ADD22C,0.01600*%
%ADD23OC8,0.03200*%
%ADD24C,0.01000*%
%ADD25R,0.03562X0.03562*%
%ADD26C,0.03200*%
%ADD27C,0.00800*%
%ADD28C,0.02700*%
%ADD29C,0.02000*%
%ADD30C,0.03000*%
D10*
X0089167Y0136800D03*
X0099167Y0136800D03*
X0109167Y0136800D03*
X0119167Y0136800D03*
X0129167Y0136800D03*
X0139167Y0136800D03*
D11*
X0214167Y0233257D02*
X0214167Y0240343D01*
X0224167Y0240343D02*
X0224167Y0233257D01*
X0234167Y0233257D02*
X0234167Y0240343D01*
X0244167Y0240343D02*
X0244167Y0233257D01*
X0254167Y0233257D02*
X0254167Y0240343D01*
X0264167Y0240343D02*
X0264167Y0233257D01*
X0274167Y0233257D02*
X0274167Y0240343D01*
X0284167Y0240343D02*
X0284167Y0233257D01*
X0279167Y0253257D02*
X0279167Y0260343D01*
X0269167Y0260343D02*
X0269167Y0253257D01*
X0259167Y0253257D02*
X0259167Y0260343D01*
X0249167Y0260343D02*
X0249167Y0253257D01*
X0239167Y0253257D02*
X0239167Y0260343D01*
X0229167Y0260343D02*
X0229167Y0253257D01*
X0219167Y0253257D02*
X0219167Y0260343D01*
D12*
X0139167Y0121800D03*
X0139167Y0111800D03*
X0129167Y0111800D03*
X0119167Y0111800D03*
X0119167Y0121800D03*
X0129167Y0121800D03*
D13*
X0032667Y0221363D03*
X0014163Y0233174D03*
X0032667Y0244985D03*
D14*
X0274167Y0071800D03*
D15*
X0274167Y0091485D03*
X0274167Y0111170D03*
D16*
X0271642Y0138957D02*
X0278692Y0138957D01*
X0278692Y0158643D02*
X0271642Y0158643D01*
X0271642Y0178957D02*
X0278692Y0178957D01*
X0278692Y0198643D02*
X0271642Y0198643D01*
D17*
X0242667Y0149200D02*
X0242667Y0141400D01*
X0242667Y0101200D02*
X0242667Y0093400D01*
X0219167Y0093200D02*
X0219167Y0085400D01*
X0195667Y0093400D02*
X0195667Y0101200D01*
X0195667Y0141400D02*
X0195667Y0149200D01*
D18*
X0193467Y0016800D03*
X0238467Y0016800D03*
X0148467Y0016800D03*
X0103467Y0016800D03*
X0057967Y0016800D03*
X0013167Y0016800D03*
D19*
X0027646Y0016800D03*
X0042126Y0016800D03*
X0072446Y0016800D03*
X0086926Y0016800D03*
X0117946Y0016800D03*
X0132426Y0016800D03*
X0162946Y0016800D03*
X0177426Y0016800D03*
X0207946Y0016800D03*
X0222426Y0016800D03*
X0252946Y0016800D03*
X0267426Y0016800D03*
D20*
X0016767Y0051800D02*
X0011567Y0051800D01*
X0011567Y0061800D02*
X0016767Y0061800D01*
X0016767Y0071800D02*
X0011567Y0071800D01*
X0011567Y0081800D02*
X0016767Y0081800D01*
X0016767Y0091800D02*
X0011567Y0091800D01*
X0011567Y0101800D02*
X0016767Y0101800D01*
X0016767Y0111800D02*
X0011567Y0111800D01*
X0011567Y0121800D02*
X0016767Y0121800D01*
X0016767Y0131800D02*
X0011567Y0131800D01*
X0011567Y0141800D02*
X0016767Y0141800D01*
X0016767Y0151800D02*
X0011567Y0151800D01*
X0011567Y0161800D02*
X0016767Y0161800D01*
X0016767Y0171800D02*
X0011567Y0171800D01*
X0011567Y0181800D02*
X0016767Y0181800D01*
X0016767Y0191800D02*
X0011567Y0191800D01*
X0011567Y0201800D02*
X0016767Y0201800D01*
D21*
X0026167Y0168800D03*
X0024167Y0146800D03*
X0054167Y0116800D03*
X0076167Y0112300D03*
X0094167Y0121800D03*
X0104167Y0121800D03*
X0109167Y0116800D03*
X0109167Y0101800D03*
X0124167Y0129300D03*
X0117167Y0146800D03*
X0092167Y0151800D03*
X0104167Y0171800D03*
X0098167Y0176800D03*
X0087167Y0181800D03*
X0084167Y0196800D03*
X0099167Y0196800D03*
X0108167Y0196800D03*
X0099167Y0211800D03*
X0104167Y0221800D03*
X0094167Y0246800D03*
X0147667Y0263800D03*
X0164167Y0267800D03*
X0174167Y0266800D03*
X0158667Y0241300D03*
X0199167Y0201800D03*
X0199167Y0196800D03*
X0214167Y0201800D03*
X0150667Y0116800D03*
X0204167Y0081800D03*
X0224167Y0051800D03*
X0240167Y0056800D03*
X0147167Y0045800D03*
X0144167Y0053800D03*
X0129167Y0051800D03*
X0126167Y0035800D03*
X0101667Y0056800D03*
X0089167Y0048800D03*
X0057167Y0063800D03*
X0040667Y0082300D03*
X0034167Y0071800D03*
X0060167Y0172800D03*
X0059167Y0196800D03*
D22*
X0006167Y0226681D02*
X0006167Y0003800D01*
X0292088Y0003800D01*
X0292088Y0249013D01*
X0291710Y0248101D01*
X0290866Y0247257D01*
X0289763Y0246800D01*
X0288570Y0246800D01*
X0287467Y0247257D01*
X0286623Y0248101D01*
X0286167Y0249203D01*
X0286167Y0250397D01*
X0286623Y0251499D01*
X0287467Y0252343D01*
X0288570Y0252800D01*
X0289763Y0252800D01*
X0290866Y0252343D01*
X0291710Y0251499D01*
X0292088Y0250587D01*
X0292088Y0273501D01*
X0240557Y0273501D01*
X0240767Y0273291D01*
X0240767Y0270309D01*
X0240058Y0269600D01*
X0262724Y0269600D01*
X0263753Y0269174D01*
X0266540Y0266386D01*
X0266940Y0265421D01*
X0268064Y0265887D01*
X0270269Y0265887D01*
X0272307Y0265043D01*
X0273866Y0263483D01*
X0274167Y0262758D01*
X0274467Y0263483D01*
X0276027Y0265043D01*
X0278064Y0265887D01*
X0280269Y0265887D01*
X0282307Y0265043D01*
X0283866Y0263483D01*
X0284710Y0261446D01*
X0284710Y0252154D01*
X0283866Y0250117D01*
X0282307Y0248557D01*
X0280269Y0247713D01*
X0278447Y0247713D01*
X0277881Y0247479D01*
X0275990Y0245588D01*
X0277307Y0245043D01*
X0278866Y0243483D01*
X0279167Y0242758D01*
X0279467Y0243483D01*
X0281027Y0245043D01*
X0283064Y0245887D01*
X0285269Y0245887D01*
X0287307Y0245043D01*
X0288866Y0243483D01*
X0289710Y0241446D01*
X0289710Y0232154D01*
X0288866Y0230117D01*
X0287307Y0228557D01*
X0285269Y0227713D01*
X0283616Y0227713D01*
X0270583Y0214681D01*
X0269664Y0214300D01*
X0261758Y0214300D01*
X0261758Y0214300D01*
X0262506Y0214300D01*
X0263425Y0213919D01*
X0270028Y0207316D01*
X0270753Y0207016D01*
X0273601Y0204168D01*
X0279791Y0204168D01*
X0281821Y0203326D01*
X0283376Y0201772D01*
X0284217Y0199742D01*
X0284217Y0197544D01*
X0283376Y0195513D01*
X0281821Y0193959D01*
X0279791Y0193118D01*
X0270543Y0193118D01*
X0268512Y0193959D01*
X0266958Y0195513D01*
X0266117Y0197544D01*
X0266117Y0199742D01*
X0266958Y0201772D01*
X0267518Y0202332D01*
X0266793Y0203056D01*
X0266493Y0203781D01*
X0261366Y0208908D01*
X0261206Y0208748D01*
X0259883Y0208200D01*
X0258451Y0208200D01*
X0257767Y0208483D01*
X0257767Y0206809D01*
X0257558Y0206600D01*
X0257875Y0206600D01*
X0258675Y0207400D01*
X0261658Y0207400D01*
X0263767Y0205291D01*
X0263767Y0202309D01*
X0261967Y0200509D01*
X0261967Y0197960D01*
X0269526Y0190400D01*
X0270658Y0190400D01*
X0272767Y0188291D01*
X0272767Y0185309D01*
X0271940Y0184482D01*
X0279791Y0184482D01*
X0281821Y0183641D01*
X0283376Y0182087D01*
X0284217Y0180056D01*
X0284217Y0177858D01*
X0283376Y0175828D01*
X0281821Y0174274D01*
X0279791Y0173432D01*
X0270543Y0173432D01*
X0268512Y0174274D01*
X0266958Y0175828D01*
X0266117Y0177858D01*
X0266117Y0180056D01*
X0266958Y0182087D01*
X0268071Y0183200D01*
X0267675Y0183200D01*
X0265567Y0185309D01*
X0265567Y0186440D01*
X0257581Y0194426D01*
X0257150Y0194857D01*
X0257134Y0194817D01*
X0256967Y0194650D01*
X0256967Y0187960D01*
X0260753Y0184174D01*
X0261540Y0183386D01*
X0261967Y0182357D01*
X0261967Y0175802D01*
X0273601Y0164168D01*
X0279791Y0164168D01*
X0281821Y0163326D01*
X0283376Y0161772D01*
X0284217Y0159742D01*
X0284217Y0157544D01*
X0283376Y0155513D01*
X0281821Y0153959D01*
X0279791Y0153118D01*
X0270543Y0153118D01*
X0268512Y0153959D01*
X0266958Y0155513D01*
X0266117Y0157544D01*
X0266117Y0159742D01*
X0266958Y0161772D01*
X0267518Y0162332D01*
X0256793Y0173056D01*
X0256367Y0174086D01*
X0256367Y0180640D01*
X0251793Y0185214D01*
X0251367Y0186243D01*
X0251367Y0188909D01*
X0250658Y0188200D01*
X0249102Y0188200D01*
X0246286Y0185384D01*
X0245583Y0184681D01*
X0244664Y0184300D01*
X0231758Y0184300D01*
X0230658Y0183200D01*
X0227675Y0183200D01*
X0225567Y0185309D01*
X0225567Y0188291D01*
X0227675Y0190400D01*
X0230658Y0190400D01*
X0231758Y0189300D01*
X0243131Y0189300D01*
X0245567Y0191736D01*
X0245567Y0193291D01*
X0245576Y0193300D01*
X0215616Y0193300D01*
X0212134Y0189817D01*
X0212134Y0189817D01*
X0211149Y0188833D01*
X0209863Y0188300D01*
X0200758Y0188300D01*
X0200658Y0188200D01*
X0197675Y0188200D01*
X0196101Y0189775D01*
X0195753Y0189426D01*
X0194724Y0189000D01*
X0185326Y0189000D01*
X0181967Y0185640D01*
X0181967Y0124091D01*
X0182767Y0123291D01*
X0182767Y0120309D01*
X0180658Y0118200D01*
X0177675Y0118200D01*
X0175567Y0120309D01*
X0175567Y0123291D01*
X0176367Y0124091D01*
X0176367Y0187357D01*
X0176793Y0188386D01*
X0177581Y0189174D01*
X0182581Y0194174D01*
X0183610Y0194600D01*
X0193007Y0194600D01*
X0195386Y0196979D01*
X0195386Y0198366D01*
X0196019Y0199000D01*
X0121458Y0199000D01*
X0120658Y0198200D01*
X0117675Y0198200D01*
X0116875Y0199000D01*
X0114326Y0199000D01*
X0111948Y0196621D01*
X0111948Y0196403D01*
X0111967Y0196357D01*
X0111967Y0186243D01*
X0111540Y0185214D01*
X0110753Y0184426D01*
X0110753Y0184426D01*
X0101948Y0175621D01*
X0101948Y0175234D01*
X0099967Y0173253D01*
X0099967Y0167960D01*
X0100567Y0167360D01*
X0100567Y0168291D01*
X0101447Y0169172D01*
X0100386Y0170234D01*
X0100386Y0173366D01*
X0102600Y0175581D01*
X0105733Y0175581D01*
X0107948Y0173366D01*
X0107948Y0171979D01*
X0120326Y0159600D01*
X0136724Y0159600D01*
X0137753Y0159174D01*
X0153040Y0143886D01*
X0153467Y0142857D01*
X0153467Y0119347D01*
X0154448Y0118366D01*
X0154448Y0115234D01*
X0152233Y0113019D01*
X0149100Y0113019D01*
X0146886Y0115234D01*
X0146886Y0118366D01*
X0147867Y0119347D01*
X0147867Y0135700D01*
X0145675Y0135700D01*
X0143967Y0137409D01*
X0143967Y0137000D01*
X0139367Y0137000D01*
X0139367Y0136600D01*
X0143967Y0136600D01*
X0143967Y0134812D01*
X0141155Y0132000D01*
X0139367Y0132000D01*
X0139367Y0136600D01*
X0138967Y0136600D01*
X0138967Y0132000D01*
X0137178Y0132000D01*
X0134367Y0134812D01*
X0134367Y0136600D01*
X0138967Y0136600D01*
X0138967Y0137000D01*
X0138967Y0141600D01*
X0137178Y0141600D01*
X0134367Y0138788D01*
X0134367Y0137000D01*
X0138967Y0137000D01*
X0139367Y0137000D01*
X0139367Y0141600D01*
X0140907Y0141600D01*
X0138507Y0144000D01*
X0133610Y0144000D01*
X0132581Y0144426D01*
X0131793Y0145214D01*
X0131793Y0145214D01*
X0128007Y0149000D01*
X0120314Y0149000D01*
X0120948Y0148366D01*
X0120948Y0145234D01*
X0118733Y0143019D01*
X0115600Y0143019D01*
X0113386Y0145234D01*
X0113386Y0146621D01*
X0096967Y0163040D01*
X0096967Y0162960D01*
X0100753Y0159174D01*
X0100753Y0159174D01*
X0101540Y0158386D01*
X0101967Y0157357D01*
X0101967Y0151243D01*
X0101540Y0150214D01*
X0096540Y0145214D01*
X0096540Y0145214D01*
X0095753Y0144426D01*
X0094724Y0144000D01*
X0060326Y0144000D01*
X0053126Y0136800D01*
X0056540Y0133386D01*
X0056967Y0132357D01*
X0056967Y0119347D01*
X0057948Y0118366D01*
X0057948Y0115234D01*
X0057314Y0114600D01*
X0063007Y0114600D01*
X0067581Y0119174D01*
X0068610Y0119600D01*
X0078007Y0119600D01*
X0081367Y0122960D01*
X0081367Y0127357D01*
X0081793Y0128386D01*
X0082581Y0129174D01*
X0085081Y0131674D01*
X0086110Y0132100D01*
X0086796Y0132100D01*
X0084167Y0134729D01*
X0084167Y0138871D01*
X0087096Y0141800D01*
X0091238Y0141800D01*
X0094167Y0138871D01*
X0094167Y0134729D01*
X0096796Y0132100D01*
X0091538Y0132100D01*
X0094167Y0134729D01*
X0094167Y0138871D01*
X0097096Y0141800D01*
X0101238Y0141800D01*
X0104167Y0138871D01*
X0104167Y0134729D01*
X0106796Y0132100D01*
X0101538Y0132100D01*
X0104167Y0134729D01*
X0104167Y0138871D01*
X0107096Y0141800D01*
X0111238Y0141800D01*
X0114167Y0138871D01*
X0114167Y0134729D01*
X0116796Y0132100D01*
X0111538Y0132100D01*
X0114167Y0134729D01*
X0114167Y0138871D01*
X0117096Y0141800D01*
X0121238Y0141800D01*
X0124167Y0138871D01*
X0124167Y0134729D01*
X0127096Y0131800D01*
X0131238Y0131800D01*
X0134167Y0134729D01*
X0134167Y0138871D01*
X0131238Y0141800D01*
X0127096Y0141800D01*
X0124167Y0138871D01*
X0124167Y0134729D01*
X0121538Y0132100D01*
X0121619Y0132100D01*
X0122600Y0133081D01*
X0125733Y0133081D01*
X0127948Y0130866D01*
X0127948Y0127734D01*
X0126565Y0126351D01*
X0128132Y0127000D01*
X0130201Y0127000D01*
X0132112Y0126208D01*
X0133575Y0124746D01*
X0134299Y0122998D01*
X0134533Y0123719D01*
X0134890Y0124421D01*
X0135353Y0125057D01*
X0135909Y0125614D01*
X0136546Y0126076D01*
X0137247Y0126434D01*
X0137996Y0126677D01*
X0138773Y0126800D01*
X0139081Y0126800D01*
X0139081Y0121886D01*
X0139252Y0121886D01*
X0139252Y0126800D01*
X0139560Y0126800D01*
X0140337Y0126677D01*
X0141086Y0126434D01*
X0141787Y0126076D01*
X0142424Y0125614D01*
X0142980Y0125057D01*
X0143443Y0124421D01*
X0143800Y0123719D01*
X0144044Y0122971D01*
X0144167Y0122194D01*
X0144167Y0121886D01*
X0139253Y0121886D01*
X0139253Y0121714D01*
X0144167Y0121714D01*
X0144167Y0121406D01*
X0144044Y0120629D01*
X0143800Y0119881D01*
X0143443Y0119179D01*
X0142980Y0118543D01*
X0142424Y0117986D01*
X0141787Y0117524D01*
X0141086Y0117166D01*
X0140365Y0116932D01*
X0142112Y0116208D01*
X0143575Y0114746D01*
X0144367Y0112834D01*
X0144367Y0110766D01*
X0143575Y0108854D01*
X0142323Y0107603D01*
X0149526Y0100400D01*
X0150658Y0100400D01*
X0152767Y0098291D01*
X0152767Y0095309D01*
X0150658Y0093200D01*
X0147675Y0093200D01*
X0145567Y0095309D01*
X0145567Y0096440D01*
X0138007Y0104000D01*
X0133610Y0104000D01*
X0132581Y0104426D01*
X0131793Y0105214D01*
X0131667Y0105519D01*
X0131540Y0105214D01*
X0130753Y0104426D01*
X0125753Y0099426D01*
X0124724Y0099000D01*
X0118610Y0099000D01*
X0117581Y0099426D01*
X0116793Y0100214D01*
X0113007Y0104000D01*
X0112314Y0104000D01*
X0112948Y0103366D01*
X0112948Y0100234D01*
X0110733Y0098019D01*
X0109345Y0098019D01*
X0106967Y0095640D01*
X0106967Y0085243D01*
X0106540Y0084214D01*
X0105753Y0083426D01*
X0105753Y0083426D01*
X0102967Y0080640D01*
X0102967Y0066243D01*
X0102540Y0065214D01*
X0101753Y0064426D01*
X0100724Y0064000D01*
X0099467Y0064000D01*
X0099467Y0063743D01*
X0099040Y0062714D01*
X0093026Y0056700D01*
X0093295Y0056700D01*
X0093382Y0056909D01*
X0098382Y0061909D01*
X0099057Y0062585D01*
X0099939Y0062950D01*
X0109644Y0062950D01*
X0110526Y0062585D01*
X0111201Y0061909D01*
X0111567Y0061027D01*
X0111567Y0011323D01*
X0111464Y0011075D01*
X0116089Y0011075D01*
X0114547Y0011713D01*
X0112860Y0013401D01*
X0111946Y0015607D01*
X0111946Y0017993D01*
X0112860Y0020199D01*
X0114547Y0021887D01*
X0116753Y0022800D01*
X0119140Y0022800D01*
X0121345Y0021887D01*
X0123033Y0020199D01*
X0123946Y0017993D01*
X0123946Y0015607D01*
X0123033Y0013401D01*
X0121345Y0011713D01*
X0119804Y0011075D01*
X0131496Y0011075D01*
X0131068Y0011143D01*
X0130199Y0011425D01*
X0129386Y0011839D01*
X0128647Y0012376D01*
X0128002Y0013022D01*
X0127465Y0013760D01*
X0127051Y0014574D01*
X0126769Y0015442D01*
X0126626Y0016344D01*
X0126626Y0016419D01*
X0132045Y0016419D01*
X0132045Y0017181D01*
X0132045Y0022600D01*
X0131969Y0022600D01*
X0131068Y0022457D01*
X0130199Y0022175D01*
X0129386Y0021761D01*
X0128647Y0021224D01*
X0128002Y0020578D01*
X0127465Y0019840D01*
X0127051Y0019026D01*
X0126769Y0018158D01*
X0126626Y0017256D01*
X0126626Y0017181D01*
X0132045Y0017181D01*
X0132807Y0017181D01*
X0138226Y0017181D01*
X0138226Y0017256D01*
X0138083Y0018158D01*
X0137801Y0019026D01*
X0137386Y0019840D01*
X0136850Y0020578D01*
X0136204Y0021224D01*
X0135466Y0021761D01*
X0134652Y0022175D01*
X0133784Y0022457D01*
X0132882Y0022600D01*
X0132807Y0022600D01*
X0132807Y0017181D01*
X0132807Y0016419D01*
X0138226Y0016419D01*
X0138226Y0016344D01*
X0138083Y0015442D01*
X0137801Y0014574D01*
X0137386Y0013760D01*
X0136850Y0013022D01*
X0136204Y0012376D01*
X0135466Y0011839D01*
X0134652Y0011425D01*
X0133784Y0011143D01*
X0133356Y0011075D01*
X0143950Y0011075D01*
X0143772Y0011123D01*
X0143361Y0011360D01*
X0143026Y0011695D01*
X0142789Y0012105D01*
X0142667Y0012563D01*
X0142667Y0016419D01*
X0148085Y0016419D01*
X0148085Y0017181D01*
X0142667Y0017181D01*
X0142667Y0021037D01*
X0142789Y0021495D01*
X0143026Y0021905D01*
X0143361Y0022240D01*
X0143772Y0022477D01*
X0144230Y0022600D01*
X0148086Y0022600D01*
X0148086Y0017181D01*
X0148848Y0017181D01*
X0154267Y0017181D01*
X0154267Y0021037D01*
X0154144Y0021495D01*
X0153907Y0021905D01*
X0153572Y0022240D01*
X0153161Y0022477D01*
X0152704Y0022600D01*
X0148848Y0022600D01*
X0148848Y0017181D01*
X0148848Y0016419D01*
X0154267Y0016419D01*
X0154267Y0012563D01*
X0154144Y0012105D01*
X0153907Y0011695D01*
X0153572Y0011360D01*
X0153161Y0011123D01*
X0152983Y0011075D01*
X0161089Y0011075D01*
X0159547Y0011713D01*
X0157860Y0013401D01*
X0156946Y0015607D01*
X0156946Y0017993D01*
X0157860Y0020199D01*
X0159547Y0021887D01*
X0161753Y0022800D01*
X0164140Y0022800D01*
X0166345Y0021887D01*
X0168033Y0020199D01*
X0168946Y0017993D01*
X0168946Y0015607D01*
X0168033Y0013401D01*
X0166345Y0011713D01*
X0164804Y0011075D01*
X0175568Y0011075D01*
X0174027Y0011713D01*
X0172339Y0013401D01*
X0171426Y0015607D01*
X0171426Y0017993D01*
X0172339Y0020199D01*
X0174027Y0021887D01*
X0174626Y0022135D01*
X0174626Y0027381D01*
X0168007Y0034000D01*
X0155610Y0034000D01*
X0154581Y0034426D01*
X0153793Y0035214D01*
X0146988Y0042019D01*
X0145600Y0042019D01*
X0143386Y0044234D01*
X0143386Y0047366D01*
X0145600Y0049581D01*
X0148733Y0049581D01*
X0150948Y0047366D01*
X0150948Y0045979D01*
X0157326Y0039600D01*
X0169724Y0039600D01*
X0170753Y0039174D01*
X0179012Y0030915D01*
X0179799Y0030127D01*
X0180226Y0029098D01*
X0180226Y0022135D01*
X0180824Y0021887D01*
X0182512Y0020199D01*
X0183426Y0017993D01*
X0183426Y0015607D01*
X0182512Y0013401D01*
X0180824Y0011713D01*
X0179283Y0011075D01*
X0188950Y0011075D01*
X0188772Y0011123D01*
X0188361Y0011360D01*
X0188026Y0011695D01*
X0187789Y0012105D01*
X0187667Y0012563D01*
X0187667Y0016419D01*
X0193085Y0016419D01*
X0193085Y0017181D01*
X0187667Y0017181D01*
X0187667Y0021037D01*
X0187789Y0021495D01*
X0188026Y0021905D01*
X0188361Y0022240D01*
X0188772Y0022477D01*
X0189230Y0022600D01*
X0193086Y0022600D01*
X0193086Y0017181D01*
X0193848Y0017181D01*
X0199267Y0017181D01*
X0199267Y0021037D01*
X0199144Y0021495D01*
X0198907Y0021905D01*
X0198572Y0022240D01*
X0198161Y0022477D01*
X0197704Y0022600D01*
X0193848Y0022600D01*
X0193848Y0017181D01*
X0193848Y0016419D01*
X0199267Y0016419D01*
X0199267Y0012563D01*
X0199144Y0012105D01*
X0198907Y0011695D01*
X0198572Y0011360D01*
X0198161Y0011123D01*
X0197983Y0011075D01*
X0206089Y0011075D01*
X0204547Y0011713D01*
X0202860Y0013401D01*
X0201946Y0015607D01*
X0201946Y0017993D01*
X0202860Y0020199D01*
X0204547Y0021887D01*
X0206753Y0022800D01*
X0209140Y0022800D01*
X0211345Y0021887D01*
X0213033Y0020199D01*
X0213946Y0017993D01*
X0213946Y0015607D01*
X0213033Y0013401D01*
X0211345Y0011713D01*
X0209804Y0011075D01*
X0220568Y0011075D01*
X0219027Y0011713D01*
X0217339Y0013401D01*
X0216426Y0015607D01*
X0216426Y0017993D01*
X0217339Y0020199D01*
X0219027Y0021887D01*
X0219926Y0022259D01*
X0219926Y0027505D01*
X0208305Y0039126D01*
X0207581Y0039426D01*
X0206793Y0040214D01*
X0206367Y0041243D01*
X0206367Y0064000D01*
X0188610Y0064000D01*
X0187581Y0064426D01*
X0173007Y0079000D01*
X0165326Y0079000D01*
X0161540Y0075214D01*
X0160753Y0074426D01*
X0159724Y0074000D01*
X0126458Y0074000D01*
X0125658Y0073200D01*
X0122675Y0073200D01*
X0120567Y0075309D01*
X0120567Y0078291D01*
X0122675Y0080400D01*
X0125658Y0080400D01*
X0126458Y0079600D01*
X0158007Y0079600D01*
X0162581Y0084174D01*
X0163610Y0084600D01*
X0174724Y0084600D01*
X0175753Y0084174D01*
X0176540Y0083386D01*
X0190326Y0069600D01*
X0209724Y0069600D01*
X0210753Y0069174D01*
X0211540Y0068386D01*
X0211967Y0067357D01*
X0211967Y0042536D01*
X0223842Y0030660D01*
X0224545Y0029957D01*
X0224926Y0029038D01*
X0224926Y0022259D01*
X0225824Y0021887D01*
X0227512Y0020199D01*
X0228426Y0017993D01*
X0228426Y0015607D01*
X0227512Y0013401D01*
X0225824Y0011713D01*
X0224283Y0011075D01*
X0228798Y0011075D01*
X0232467Y0014744D01*
X0232467Y0021628D01*
X0233638Y0022800D01*
X0243295Y0022800D01*
X0244467Y0021628D01*
X0244467Y0011972D01*
X0243295Y0010800D01*
X0235311Y0010800D01*
X0231151Y0006640D01*
X0230269Y0006275D01*
X0036189Y0006275D01*
X0035307Y0006640D01*
X0034632Y0007316D01*
X0034267Y0008198D01*
X0034267Y0019777D01*
X0034632Y0020659D01*
X0034892Y0020919D01*
X0034892Y0057587D01*
X0034452Y0058027D01*
X0033942Y0059259D01*
X0033942Y0060591D01*
X0034452Y0061823D01*
X0035394Y0062765D01*
X0036625Y0063275D01*
X0037867Y0063275D01*
X0037867Y0070153D01*
X0035733Y0068019D01*
X0032600Y0068019D01*
X0030386Y0070234D01*
X0030386Y0073366D01*
X0032600Y0075581D01*
X0035733Y0075581D01*
X0037867Y0073447D01*
X0037867Y0079753D01*
X0036886Y0080734D01*
X0036886Y0083866D01*
X0039100Y0086081D01*
X0041367Y0086081D01*
X0041367Y0090640D01*
X0033807Y0098200D01*
X0032675Y0098200D01*
X0030567Y0100309D01*
X0030567Y0103291D01*
X0032675Y0105400D01*
X0035658Y0105400D01*
X0036367Y0104691D01*
X0036367Y0107357D01*
X0036793Y0108386D01*
X0037581Y0109174D01*
X0037581Y0109174D01*
X0046367Y0117960D01*
X0046367Y0129509D01*
X0045567Y0130309D01*
X0045567Y0133291D01*
X0047141Y0134866D01*
X0046793Y0135214D01*
X0046367Y0136243D01*
X0046367Y0137357D01*
X0046793Y0138386D01*
X0047581Y0139174D01*
X0047581Y0139174D01*
X0056793Y0148386D01*
X0056793Y0148386D01*
X0057581Y0149174D01*
X0058610Y0149600D01*
X0089019Y0149600D01*
X0088386Y0150234D01*
X0088386Y0151621D01*
X0084793Y0155214D01*
X0084367Y0156243D01*
X0084367Y0179253D01*
X0083386Y0180234D01*
X0083386Y0183366D01*
X0085600Y0185581D01*
X0088733Y0185581D01*
X0090948Y0183366D01*
X0090948Y0180234D01*
X0089967Y0179253D01*
X0089967Y0157960D01*
X0092345Y0155581D01*
X0093733Y0155581D01*
X0095948Y0153366D01*
X0095948Y0152541D01*
X0096367Y0152960D01*
X0096367Y0155640D01*
X0091793Y0160214D01*
X0091367Y0161243D01*
X0091367Y0182357D01*
X0091793Y0183386D01*
X0101367Y0192960D01*
X0101367Y0193653D01*
X0100733Y0193019D01*
X0097600Y0193019D01*
X0096619Y0194000D01*
X0086714Y0194000D01*
X0085733Y0193019D01*
X0082600Y0193019D01*
X0080386Y0195234D01*
X0080386Y0198366D01*
X0082600Y0200581D01*
X0085733Y0200581D01*
X0086714Y0199600D01*
X0096619Y0199600D01*
X0097600Y0200581D01*
X0100733Y0200581D01*
X0101367Y0199947D01*
X0101367Y0208653D01*
X0100733Y0208019D01*
X0097600Y0208019D01*
X0095386Y0210234D01*
X0095386Y0213366D01*
X0096367Y0214347D01*
X0096367Y0233209D01*
X0095386Y0234190D01*
X0095386Y0239410D01*
X0096557Y0240581D01*
X0101367Y0240581D01*
X0101367Y0257357D01*
X0101793Y0258386D01*
X0106793Y0263386D01*
X0107581Y0264174D01*
X0108610Y0264600D01*
X0143886Y0264600D01*
X0143886Y0265000D01*
X0064902Y0265000D01*
X0061967Y0262064D01*
X0061967Y0233560D01*
X0076793Y0248386D01*
X0077581Y0249174D01*
X0078610Y0249600D01*
X0091619Y0249600D01*
X0092600Y0250581D01*
X0095733Y0250581D01*
X0097948Y0248366D01*
X0097948Y0245234D01*
X0095733Y0243019D01*
X0092600Y0243019D01*
X0091619Y0244000D01*
X0080326Y0244000D01*
X0066967Y0230640D01*
X0066967Y0191243D01*
X0066540Y0190214D01*
X0065753Y0189426D01*
X0060753Y0184426D01*
X0059724Y0184000D01*
X0057058Y0184000D01*
X0057767Y0183291D01*
X0057767Y0180309D01*
X0055658Y0178200D01*
X0054526Y0178200D01*
X0051540Y0175214D01*
X0050753Y0174426D01*
X0049724Y0174000D01*
X0041458Y0174000D01*
X0040658Y0173200D01*
X0037675Y0173200D01*
X0035567Y0175309D01*
X0035567Y0178200D01*
X0032675Y0178200D01*
X0030567Y0180309D01*
X0030567Y0183291D01*
X0031276Y0184000D01*
X0030326Y0184000D01*
X0026967Y0180640D01*
X0026967Y0172581D01*
X0027733Y0172581D01*
X0028714Y0171600D01*
X0030724Y0171600D01*
X0031753Y0171174D01*
X0032540Y0170386D01*
X0036040Y0166886D01*
X0036467Y0165857D01*
X0036467Y0154600D01*
X0051367Y0154600D01*
X0051367Y0167357D01*
X0051793Y0168386D01*
X0056386Y0172979D01*
X0056386Y0174366D01*
X0058600Y0176581D01*
X0061733Y0176581D01*
X0063948Y0174366D01*
X0063948Y0171234D01*
X0061733Y0169019D01*
X0060345Y0169019D01*
X0056967Y0165640D01*
X0056967Y0151243D01*
X0056540Y0150214D01*
X0055753Y0149426D01*
X0054724Y0149000D01*
X0052058Y0149000D01*
X0052767Y0148291D01*
X0052767Y0145309D01*
X0050658Y0143200D01*
X0047675Y0143200D01*
X0045567Y0145309D01*
X0045567Y0148291D01*
X0046276Y0149000D01*
X0031967Y0149000D01*
X0031967Y0146243D01*
X0031667Y0145519D01*
X0031667Y0142836D01*
X0034102Y0140400D01*
X0035658Y0140400D01*
X0037767Y0138291D01*
X0037767Y0135309D01*
X0035658Y0133200D01*
X0032675Y0133200D01*
X0030567Y0135309D01*
X0030567Y0136864D01*
X0027047Y0140384D01*
X0026967Y0140578D01*
X0026967Y0076243D01*
X0026540Y0075214D01*
X0025753Y0074426D01*
X0022767Y0071440D01*
X0022767Y0070309D01*
X0020658Y0068200D01*
X0019672Y0068200D01*
X0019372Y0067900D01*
X0017682Y0067200D01*
X0010652Y0067200D01*
X0008961Y0067900D01*
X0007667Y0069194D01*
X0006967Y0070885D01*
X0006967Y0072715D01*
X0007667Y0074406D01*
X0008961Y0075700D01*
X0010652Y0076400D01*
X0017682Y0076400D01*
X0019184Y0075778D01*
X0021367Y0077960D01*
X0021367Y0144253D01*
X0020386Y0145234D01*
X0020386Y0148366D01*
X0020867Y0148847D01*
X0020867Y0149678D01*
X0020666Y0149194D01*
X0019372Y0147900D01*
X0017682Y0147200D01*
X0010652Y0147200D01*
X0008961Y0147900D01*
X0007667Y0149194D01*
X0006967Y0150885D01*
X0006967Y0152715D01*
X0007667Y0154406D01*
X0008961Y0155700D01*
X0010652Y0156400D01*
X0017682Y0156400D01*
X0019372Y0155700D01*
X0020666Y0154406D01*
X0020867Y0153922D01*
X0020867Y0159678D01*
X0020666Y0159194D01*
X0019372Y0157900D01*
X0017682Y0157200D01*
X0010652Y0157200D01*
X0008961Y0157900D01*
X0007667Y0159194D01*
X0006967Y0160885D01*
X0006967Y0162715D01*
X0007667Y0164406D01*
X0008961Y0165700D01*
X0010652Y0166400D01*
X0016367Y0166400D01*
X0016367Y0167200D01*
X0010652Y0167200D01*
X0008961Y0167900D01*
X0007667Y0169194D01*
X0006967Y0170885D01*
X0006967Y0172715D01*
X0007667Y0174406D01*
X0008961Y0175700D01*
X0010652Y0176400D01*
X0017682Y0176400D01*
X0019372Y0175700D01*
X0020666Y0174406D01*
X0021295Y0172888D01*
X0021367Y0172960D01*
X0021367Y0182357D01*
X0021793Y0183386D01*
X0022581Y0184174D01*
X0022581Y0184174D01*
X0027581Y0189174D01*
X0028610Y0189600D01*
X0036276Y0189600D01*
X0035567Y0190309D01*
X0035567Y0193291D01*
X0037675Y0195400D01*
X0040658Y0195400D01*
X0042767Y0193291D01*
X0042767Y0190309D01*
X0042058Y0189600D01*
X0058007Y0189600D01*
X0061367Y0192960D01*
X0061367Y0193653D01*
X0060733Y0193019D01*
X0057600Y0193019D01*
X0055386Y0195234D01*
X0055386Y0198366D01*
X0056367Y0199347D01*
X0056367Y0263357D01*
X0056793Y0264386D01*
X0057581Y0265174D01*
X0058305Y0265474D01*
X0061493Y0268662D01*
X0061793Y0269386D01*
X0062581Y0270174D01*
X0063610Y0270600D01*
X0161619Y0270600D01*
X0162600Y0271581D01*
X0165733Y0271581D01*
X0167948Y0269366D01*
X0167948Y0266234D01*
X0165733Y0264019D01*
X0162600Y0264019D01*
X0161619Y0265000D01*
X0151448Y0265000D01*
X0151448Y0262234D01*
X0149233Y0260019D01*
X0147845Y0260019D01*
X0147253Y0259426D01*
X0146224Y0259000D01*
X0110326Y0259000D01*
X0106967Y0255640D01*
X0106967Y0224347D01*
X0107948Y0223366D01*
X0107948Y0220234D01*
X0105733Y0218019D01*
X0102600Y0218019D01*
X0101967Y0218653D01*
X0101967Y0214347D01*
X0102360Y0213954D01*
X0102581Y0214174D01*
X0107581Y0219174D01*
X0108610Y0219600D01*
X0151276Y0219600D01*
X0150567Y0220309D01*
X0150567Y0221864D01*
X0147751Y0224681D01*
X0147047Y0225384D01*
X0146667Y0226303D01*
X0146667Y0237297D01*
X0147047Y0238216D01*
X0147751Y0238919D01*
X0148669Y0239300D01*
X0154664Y0239300D01*
X0155583Y0238919D01*
X0156286Y0238216D01*
X0159102Y0235400D01*
X0160658Y0235400D01*
X0161367Y0234691D01*
X0161367Y0235640D01*
X0159488Y0237519D01*
X0157100Y0237519D01*
X0154886Y0239734D01*
X0154886Y0242866D01*
X0155219Y0243200D01*
X0152675Y0243200D01*
X0151576Y0244300D01*
X0150202Y0244300D01*
X0146667Y0240764D01*
X0146667Y0231303D01*
X0146286Y0230384D01*
X0141286Y0225384D01*
X0141286Y0225384D01*
X0140583Y0224681D01*
X0139664Y0224300D01*
X0138702Y0224300D01*
X0137767Y0223364D01*
X0137767Y0221809D01*
X0135658Y0219700D01*
X0132675Y0219700D01*
X0130567Y0221809D01*
X0130567Y0224791D01*
X0132675Y0226900D01*
X0134231Y0226900D01*
X0136251Y0228919D01*
X0137169Y0229300D01*
X0138131Y0229300D01*
X0141667Y0232836D01*
X0141667Y0242297D01*
X0142047Y0243216D01*
X0142751Y0243919D01*
X0147751Y0248919D01*
X0148669Y0249300D01*
X0151576Y0249300D01*
X0152675Y0250400D01*
X0155658Y0250400D01*
X0156758Y0249300D01*
X0166667Y0249300D01*
X0166667Y0252297D01*
X0167047Y0253216D01*
X0167751Y0253919D01*
X0168669Y0254300D01*
X0197131Y0254300D01*
X0216332Y0273501D01*
X0006167Y0273501D01*
X0006167Y0239667D01*
X0006470Y0240048D01*
X0007289Y0240866D01*
X0008193Y0241588D01*
X0009173Y0242203D01*
X0010215Y0242705D01*
X0011307Y0243087D01*
X0012435Y0243344D01*
X0013363Y0243449D01*
X0013363Y0233974D01*
X0014963Y0233974D01*
X0024438Y0233974D01*
X0024333Y0234902D01*
X0024076Y0236030D01*
X0023694Y0237122D01*
X0023192Y0238164D01*
X0022576Y0239144D01*
X0021855Y0240048D01*
X0021037Y0240866D01*
X0020132Y0241588D01*
X0019153Y0242203D01*
X0018111Y0242705D01*
X0017019Y0243087D01*
X0015891Y0243344D01*
X0014963Y0243449D01*
X0014963Y0233974D01*
X0014963Y0232374D01*
X0024438Y0232374D01*
X0024333Y0231446D01*
X0024076Y0230318D01*
X0023694Y0229226D01*
X0023192Y0228184D01*
X0022576Y0227204D01*
X0021855Y0226300D01*
X0021037Y0225482D01*
X0020132Y0224760D01*
X0019153Y0224145D01*
X0018111Y0223643D01*
X0017019Y0223261D01*
X0015891Y0223004D01*
X0014963Y0222899D01*
X0014963Y0232374D01*
X0013363Y0232374D01*
X0013363Y0222899D01*
X0012435Y0223004D01*
X0011307Y0223261D01*
X0010215Y0223643D01*
X0009173Y0224145D01*
X0008193Y0224760D01*
X0007289Y0225482D01*
X0006470Y0226300D01*
X0006167Y0226681D01*
X0006167Y0225592D02*
X0007179Y0225592D01*
X0006167Y0223993D02*
X0009488Y0223993D01*
X0006167Y0222395D02*
X0022167Y0222395D01*
X0022167Y0222745D02*
X0022167Y0219981D01*
X0022882Y0217310D01*
X0024265Y0214916D01*
X0026220Y0212961D01*
X0028614Y0211579D01*
X0031284Y0210863D01*
X0034049Y0210863D01*
X0036720Y0211579D01*
X0039114Y0212961D01*
X0041069Y0214916D01*
X0042451Y0217310D01*
X0043167Y0219981D01*
X0043167Y0222745D01*
X0042451Y0225416D01*
X0041069Y0227810D01*
X0039114Y0229765D01*
X0036720Y0231147D01*
X0034049Y0231863D01*
X0031284Y0231863D01*
X0028614Y0231147D01*
X0026220Y0229765D01*
X0024265Y0227810D01*
X0022882Y0225416D01*
X0022167Y0222745D01*
X0022501Y0223993D02*
X0018837Y0223993D01*
X0021147Y0225592D02*
X0022984Y0225592D01*
X0022565Y0227190D02*
X0023907Y0227190D01*
X0023483Y0228789D02*
X0025243Y0228789D01*
X0024091Y0230387D02*
X0027297Y0230387D01*
X0024394Y0231986D02*
X0056367Y0231986D01*
X0056367Y0233584D02*
X0014963Y0233584D01*
X0014963Y0231986D02*
X0013363Y0231986D01*
X0013363Y0230387D02*
X0014963Y0230387D01*
X0014963Y0228789D02*
X0013363Y0228789D01*
X0013363Y0227190D02*
X0014963Y0227190D01*
X0014963Y0225592D02*
X0013363Y0225592D01*
X0013363Y0223993D02*
X0014963Y0223993D01*
X0022167Y0220796D02*
X0006167Y0220796D01*
X0006167Y0219198D02*
X0022376Y0219198D01*
X0022805Y0217599D02*
X0006167Y0217599D01*
X0006167Y0216001D02*
X0023638Y0216001D01*
X0024778Y0214402D02*
X0006167Y0214402D01*
X0006167Y0212803D02*
X0026492Y0212803D01*
X0030008Y0211205D02*
X0006167Y0211205D01*
X0006167Y0209606D02*
X0056367Y0209606D01*
X0056367Y0208008D02*
X0006167Y0208008D01*
X0006167Y0206409D02*
X0056367Y0206409D01*
X0056367Y0204811D02*
X0019978Y0204811D01*
X0020123Y0204666D02*
X0019633Y0205156D01*
X0019073Y0205563D01*
X0018456Y0205878D01*
X0017797Y0206092D01*
X0017113Y0206200D01*
X0014167Y0206200D01*
X0014167Y0201800D01*
X0021167Y0201800D01*
X0021167Y0202146D01*
X0021058Y0202830D01*
X0020844Y0203489D01*
X0020530Y0204106D01*
X0020123Y0204666D01*
X0020934Y0203212D02*
X0056367Y0203212D01*
X0056367Y0201614D02*
X0021167Y0201614D01*
X0021167Y0201454D02*
X0021167Y0201800D01*
X0014167Y0201800D01*
X0014167Y0201800D01*
X0014167Y0201800D01*
X0014167Y0197400D01*
X0017113Y0197400D01*
X0017797Y0197508D01*
X0018456Y0197722D01*
X0019073Y0198037D01*
X0019633Y0198444D01*
X0020123Y0198934D01*
X0020530Y0199494D01*
X0020844Y0200111D01*
X0021058Y0200770D01*
X0021167Y0201454D01*
X0020796Y0200015D02*
X0056367Y0200015D01*
X0055436Y0198417D02*
X0019596Y0198417D01*
X0019372Y0195700D02*
X0017682Y0196400D01*
X0010652Y0196400D01*
X0008961Y0195700D01*
X0007667Y0194406D01*
X0006967Y0192715D01*
X0006967Y0190885D01*
X0007667Y0189194D01*
X0008961Y0187900D01*
X0010652Y0187200D01*
X0017682Y0187200D01*
X0019372Y0187900D01*
X0020666Y0189194D01*
X0021367Y0190885D01*
X0021367Y0192715D01*
X0020666Y0194406D01*
X0019372Y0195700D01*
X0019852Y0195220D02*
X0037495Y0195220D01*
X0035897Y0193621D02*
X0020991Y0193621D01*
X0021367Y0192023D02*
X0035567Y0192023D01*
X0035567Y0190424D02*
X0021176Y0190424D01*
X0020298Y0188826D02*
X0027233Y0188826D01*
X0025634Y0187227D02*
X0017748Y0187227D01*
X0017797Y0186092D02*
X0017113Y0186200D01*
X0014167Y0186200D01*
X0014167Y0181800D01*
X0021167Y0181800D01*
X0021167Y0182146D01*
X0021058Y0182830D01*
X0020844Y0183489D01*
X0020530Y0184106D01*
X0020123Y0184666D01*
X0019633Y0185156D01*
X0019073Y0185563D01*
X0018456Y0185878D01*
X0017797Y0186092D01*
X0018944Y0185629D02*
X0024036Y0185629D01*
X0022437Y0184030D02*
X0020568Y0184030D01*
X0021121Y0182432D02*
X0021398Y0182432D01*
X0021167Y0181800D02*
X0014167Y0181800D01*
X0014167Y0181800D01*
X0014167Y0181800D01*
X0014167Y0177400D01*
X0017113Y0177400D01*
X0017797Y0177508D01*
X0018456Y0177722D01*
X0019073Y0178037D01*
X0019633Y0178444D01*
X0020123Y0178934D01*
X0020530Y0179494D01*
X0020844Y0180111D01*
X0021058Y0180770D01*
X0021167Y0181454D01*
X0021167Y0181800D01*
X0021068Y0180833D02*
X0021367Y0180833D01*
X0021367Y0179235D02*
X0020342Y0179235D01*
X0021367Y0177636D02*
X0018191Y0177636D01*
X0018556Y0176038D02*
X0021367Y0176038D01*
X0021367Y0174439D02*
X0020633Y0174439D01*
X0024167Y0171800D02*
X0024167Y0181800D01*
X0029167Y0186800D01*
X0059167Y0186800D01*
X0064167Y0191800D01*
X0064167Y0231800D01*
X0079167Y0246800D01*
X0094167Y0246800D01*
X0096745Y0249569D02*
X0101367Y0249569D01*
X0101367Y0247971D02*
X0097948Y0247971D01*
X0097948Y0246372D02*
X0101367Y0246372D01*
X0101367Y0244774D02*
X0097488Y0244774D01*
X0095889Y0243175D02*
X0101367Y0243175D01*
X0101367Y0241577D02*
X0077903Y0241577D01*
X0079502Y0243175D02*
X0092444Y0243175D01*
X0095954Y0239978D02*
X0076305Y0239978D01*
X0074706Y0238380D02*
X0095386Y0238380D01*
X0095386Y0236781D02*
X0073108Y0236781D01*
X0071509Y0235183D02*
X0095386Y0235183D01*
X0095992Y0233584D02*
X0069911Y0233584D01*
X0068312Y0231986D02*
X0096367Y0231986D01*
X0096367Y0230387D02*
X0066967Y0230387D01*
X0066967Y0228789D02*
X0096367Y0228789D01*
X0096367Y0227190D02*
X0066967Y0227190D01*
X0066967Y0225592D02*
X0096367Y0225592D01*
X0096367Y0223993D02*
X0066967Y0223993D01*
X0066967Y0222395D02*
X0096367Y0222395D01*
X0096367Y0220796D02*
X0066967Y0220796D01*
X0066967Y0219198D02*
X0096367Y0219198D01*
X0096367Y0217599D02*
X0066967Y0217599D01*
X0066967Y0216001D02*
X0096367Y0216001D01*
X0096367Y0214402D02*
X0066967Y0214402D01*
X0066967Y0212803D02*
X0095386Y0212803D01*
X0095386Y0211205D02*
X0066967Y0211205D01*
X0066967Y0209606D02*
X0096013Y0209606D01*
X0099167Y0211800D02*
X0099167Y0236800D01*
X0106967Y0236781D02*
X0141667Y0236781D01*
X0141667Y0235183D02*
X0106967Y0235183D01*
X0106967Y0233584D02*
X0141667Y0233584D01*
X0140817Y0231986D02*
X0106967Y0231986D01*
X0106967Y0230387D02*
X0139218Y0230387D01*
X0143092Y0227190D02*
X0146667Y0227190D01*
X0146667Y0228789D02*
X0144691Y0228789D01*
X0146287Y0230387D02*
X0146667Y0230387D01*
X0146667Y0231986D02*
X0146667Y0231986D01*
X0146667Y0233584D02*
X0146667Y0233584D01*
X0146667Y0235183D02*
X0146667Y0235183D01*
X0146667Y0236781D02*
X0146667Y0236781D01*
X0146667Y0238380D02*
X0147211Y0238380D01*
X0146667Y0239978D02*
X0154886Y0239978D01*
X0154886Y0241577D02*
X0147479Y0241577D01*
X0149077Y0243175D02*
X0155195Y0243175D01*
X0158667Y0241300D02*
X0159667Y0241300D01*
X0164167Y0236800D01*
X0164167Y0221800D01*
X0159167Y0216800D01*
X0109167Y0216800D01*
X0104167Y0211800D01*
X0104167Y0191800D01*
X0094167Y0181800D01*
X0094167Y0161800D01*
X0099167Y0156800D01*
X0099167Y0151800D01*
X0094167Y0146800D01*
X0059167Y0146800D01*
X0049167Y0136800D01*
X0054167Y0131800D01*
X0054167Y0116800D01*
X0057948Y0116893D02*
X0065300Y0116893D01*
X0066898Y0118491D02*
X0057823Y0118491D01*
X0056967Y0120090D02*
X0078497Y0120090D01*
X0080095Y0121688D02*
X0056967Y0121688D01*
X0056967Y0123287D02*
X0081367Y0123287D01*
X0081367Y0124885D02*
X0056967Y0124885D01*
X0056967Y0126484D02*
X0081367Y0126484D01*
X0081667Y0128082D02*
X0056967Y0128082D01*
X0056967Y0129681D02*
X0083088Y0129681D01*
X0084686Y0131279D02*
X0056967Y0131279D01*
X0056751Y0132878D02*
X0086018Y0132878D01*
X0084419Y0134476D02*
X0055450Y0134476D01*
X0053851Y0136075D02*
X0084167Y0136075D01*
X0084167Y0137673D02*
X0054000Y0137673D01*
X0055598Y0139272D02*
X0084568Y0139272D01*
X0086166Y0140870D02*
X0057197Y0140870D01*
X0058795Y0142469D02*
X0140038Y0142469D01*
X0139367Y0140870D02*
X0138967Y0140870D01*
X0138967Y0139272D02*
X0139367Y0139272D01*
X0139367Y0137673D02*
X0138967Y0137673D01*
X0138967Y0136075D02*
X0139367Y0136075D01*
X0139367Y0134476D02*
X0138967Y0134476D01*
X0138967Y0132878D02*
X0139367Y0132878D01*
X0142033Y0132878D02*
X0147867Y0132878D01*
X0147867Y0134476D02*
X0143631Y0134476D01*
X0143967Y0136075D02*
X0145301Y0136075D01*
X0147167Y0139300D02*
X0139667Y0146800D01*
X0134167Y0146800D01*
X0129167Y0151800D01*
X0119167Y0151800D01*
X0104167Y0166800D01*
X0100976Y0169644D02*
X0099967Y0169644D01*
X0099967Y0171242D02*
X0100386Y0171242D01*
X0100386Y0172841D02*
X0099967Y0172841D01*
X0101153Y0174439D02*
X0101459Y0174439D01*
X0102364Y0176038D02*
X0176367Y0176038D01*
X0176367Y0177636D02*
X0103963Y0177636D01*
X0105561Y0179235D02*
X0176367Y0179235D01*
X0176367Y0180833D02*
X0107160Y0180833D01*
X0108758Y0182432D02*
X0176367Y0182432D01*
X0176367Y0184030D02*
X0110357Y0184030D01*
X0111712Y0185629D02*
X0176367Y0185629D01*
X0176367Y0187227D02*
X0111967Y0187227D01*
X0111967Y0188826D02*
X0177233Y0188826D01*
X0178831Y0190424D02*
X0111967Y0190424D01*
X0111967Y0192023D02*
X0180430Y0192023D01*
X0182028Y0193621D02*
X0111967Y0193621D01*
X0111967Y0195220D02*
X0193627Y0195220D01*
X0195225Y0196818D02*
X0112145Y0196818D01*
X0113743Y0198417D02*
X0117459Y0198417D01*
X0120875Y0198417D02*
X0195436Y0198417D01*
X0199167Y0196800D02*
X0194167Y0191800D01*
X0184167Y0191800D01*
X0179167Y0186800D01*
X0179167Y0121800D01*
X0182767Y0121688D02*
X0292088Y0121688D01*
X0292088Y0120090D02*
X0182548Y0120090D01*
X0180949Y0118491D02*
X0292088Y0118491D01*
X0292088Y0116893D02*
X0277989Y0116893D01*
X0277990Y0116892D02*
X0275509Y0117920D01*
X0272824Y0117920D01*
X0270343Y0116892D01*
X0268444Y0114994D01*
X0267417Y0112513D01*
X0267417Y0109827D01*
X0268444Y0107347D01*
X0270343Y0105448D01*
X0272824Y0104420D01*
X0275509Y0104420D01*
X0277990Y0105448D01*
X0279889Y0107347D01*
X0280917Y0109827D01*
X0280917Y0112513D01*
X0279889Y0114994D01*
X0277990Y0116892D01*
X0279588Y0115294D02*
X0292088Y0115294D01*
X0292088Y0113696D02*
X0280427Y0113696D01*
X0280917Y0112097D02*
X0292088Y0112097D01*
X0292088Y0110499D02*
X0280917Y0110499D01*
X0280533Y0108900D02*
X0292088Y0108900D01*
X0292088Y0107302D02*
X0279844Y0107302D01*
X0278246Y0105703D02*
X0292088Y0105703D01*
X0292088Y0104105D02*
X0247850Y0104105D01*
X0247668Y0104542D02*
X0246009Y0106202D01*
X0243840Y0107100D01*
X0241493Y0107100D01*
X0239325Y0106202D01*
X0237665Y0104542D01*
X0236767Y0102374D01*
X0236767Y0092226D01*
X0237665Y0090058D01*
X0239325Y0088398D01*
X0241493Y0087500D01*
X0243840Y0087500D01*
X0246009Y0088398D01*
X0247668Y0090058D01*
X0248567Y0092226D01*
X0248567Y0102374D01*
X0247668Y0104542D01*
X0246507Y0105703D02*
X0270088Y0105703D01*
X0268489Y0107302D02*
X0142625Y0107302D01*
X0143594Y0108900D02*
X0267801Y0108900D01*
X0267417Y0110499D02*
X0144256Y0110499D01*
X0144367Y0112097D02*
X0267417Y0112097D01*
X0267907Y0113696D02*
X0152910Y0113696D01*
X0154448Y0115294D02*
X0268745Y0115294D01*
X0270344Y0116893D02*
X0154448Y0116893D01*
X0154323Y0118491D02*
X0177384Y0118491D01*
X0175786Y0120090D02*
X0153467Y0120090D01*
X0153467Y0121688D02*
X0175567Y0121688D01*
X0175567Y0123287D02*
X0153467Y0123287D01*
X0153467Y0124885D02*
X0176367Y0124885D01*
X0176367Y0126484D02*
X0153467Y0126484D01*
X0153467Y0128082D02*
X0176367Y0128082D01*
X0176367Y0129681D02*
X0153467Y0129681D01*
X0153467Y0131279D02*
X0176367Y0131279D01*
X0176367Y0132878D02*
X0153467Y0132878D01*
X0153467Y0134476D02*
X0176367Y0134476D01*
X0176367Y0136075D02*
X0153467Y0136075D01*
X0153467Y0137673D02*
X0176367Y0137673D01*
X0176367Y0139272D02*
X0153467Y0139272D01*
X0153467Y0140870D02*
X0176367Y0140870D01*
X0176367Y0142469D02*
X0153467Y0142469D01*
X0152859Y0144068D02*
X0176367Y0144068D01*
X0176367Y0145666D02*
X0151260Y0145666D01*
X0149662Y0147265D02*
X0176367Y0147265D01*
X0176367Y0148863D02*
X0148063Y0148863D01*
X0146465Y0150462D02*
X0176367Y0150462D01*
X0176367Y0152060D02*
X0144866Y0152060D01*
X0143268Y0153659D02*
X0176367Y0153659D01*
X0176367Y0155257D02*
X0141669Y0155257D01*
X0140071Y0156856D02*
X0176367Y0156856D01*
X0176367Y0158454D02*
X0138472Y0158454D01*
X0136167Y0156800D02*
X0150667Y0142300D01*
X0150667Y0116800D01*
X0146886Y0116893D02*
X0140460Y0116893D01*
X0142929Y0118491D02*
X0147011Y0118491D01*
X0147867Y0120090D02*
X0143868Y0120090D01*
X0144167Y0121688D02*
X0147867Y0121688D01*
X0147867Y0123287D02*
X0143941Y0123287D01*
X0143105Y0124885D02*
X0147867Y0124885D01*
X0147867Y0126484D02*
X0140931Y0126484D01*
X0139252Y0126484D02*
X0139081Y0126484D01*
X0139081Y0124885D02*
X0139252Y0124885D01*
X0139252Y0123287D02*
X0139081Y0123287D01*
X0135228Y0124885D02*
X0133435Y0124885D01*
X0134179Y0123287D02*
X0134392Y0123287D01*
X0131447Y0126484D02*
X0137402Y0126484D01*
X0136301Y0132878D02*
X0132316Y0132878D01*
X0133914Y0134476D02*
X0134702Y0134476D01*
X0134367Y0136075D02*
X0134167Y0136075D01*
X0134167Y0137673D02*
X0134367Y0137673D01*
X0134850Y0139272D02*
X0133766Y0139272D01*
X0132167Y0140870D02*
X0136449Y0140870D01*
X0133447Y0144068D02*
X0119781Y0144068D01*
X0120948Y0145666D02*
X0131341Y0145666D01*
X0129742Y0147265D02*
X0120948Y0147265D01*
X0120451Y0148863D02*
X0128144Y0148863D01*
X0126166Y0140870D02*
X0122167Y0140870D01*
X0123766Y0139272D02*
X0124568Y0139272D01*
X0124167Y0137673D02*
X0124167Y0137673D01*
X0124167Y0136075D02*
X0124167Y0136075D01*
X0123914Y0134476D02*
X0124419Y0134476D01*
X0125936Y0132878D02*
X0126018Y0132878D01*
X0127535Y0131279D02*
X0147867Y0131279D01*
X0147867Y0129681D02*
X0127948Y0129681D01*
X0127948Y0128082D02*
X0147867Y0128082D01*
X0146886Y0115294D02*
X0143026Y0115294D01*
X0144010Y0113696D02*
X0148424Y0113696D01*
X0144223Y0105703D02*
X0191826Y0105703D01*
X0192325Y0106202D02*
X0190665Y0104542D01*
X0189767Y0102374D01*
X0189767Y0092226D01*
X0190665Y0090058D01*
X0192325Y0088398D01*
X0194493Y0087500D01*
X0196840Y0087500D01*
X0199009Y0088398D01*
X0200668Y0090058D01*
X0201567Y0092226D01*
X0201567Y0102374D01*
X0200668Y0104542D01*
X0199009Y0106202D01*
X0196840Y0107100D01*
X0194493Y0107100D01*
X0192325Y0106202D01*
X0190484Y0104105D02*
X0145822Y0104105D01*
X0147420Y0102506D02*
X0189822Y0102506D01*
X0189767Y0100908D02*
X0149019Y0100908D01*
X0151749Y0099309D02*
X0189767Y0099309D01*
X0189767Y0097711D02*
X0152767Y0097711D01*
X0152767Y0096112D02*
X0189767Y0096112D01*
X0189767Y0094514D02*
X0151971Y0094514D01*
X0149167Y0096800D02*
X0139167Y0106800D01*
X0134167Y0106800D01*
X0134167Y0116800D01*
X0124167Y0116800D01*
X0119167Y0121800D01*
X0126698Y0126484D02*
X0126886Y0126484D01*
X0124167Y0129300D02*
X0086667Y0129300D01*
X0084167Y0126800D01*
X0084167Y0121800D01*
X0079167Y0116800D01*
X0069167Y0116800D01*
X0064167Y0111800D01*
X0054167Y0111800D01*
X0049167Y0106800D01*
X0049167Y0096800D01*
X0051971Y0094514D02*
X0078921Y0094514D01*
X0080519Y0096112D02*
X0052767Y0096112D01*
X0052767Y0095309D02*
X0052767Y0098200D01*
X0055658Y0098200D01*
X0056458Y0099000D01*
X0083407Y0099000D01*
X0077307Y0092900D01*
X0076175Y0092900D01*
X0074067Y0090791D01*
X0074067Y0087809D01*
X0075877Y0085999D01*
X0070900Y0080658D01*
X0070658Y0080900D01*
X0067675Y0080900D01*
X0066967Y0080191D01*
X0066967Y0080640D01*
X0070026Y0083700D01*
X0071158Y0083700D01*
X0073267Y0085809D01*
X0073267Y0088791D01*
X0071158Y0090900D01*
X0068175Y0090900D01*
X0066917Y0089641D01*
X0065658Y0090900D01*
X0062675Y0090900D01*
X0061875Y0090100D01*
X0055110Y0090100D01*
X0054909Y0090017D01*
X0051192Y0093734D01*
X0052767Y0095309D01*
X0052767Y0097711D02*
X0082118Y0097711D01*
X0077322Y0092915D02*
X0052011Y0092915D01*
X0053610Y0091317D02*
X0074592Y0091317D01*
X0074067Y0089718D02*
X0072340Y0089718D01*
X0073267Y0088120D02*
X0074067Y0088120D01*
X0073267Y0086521D02*
X0075354Y0086521D01*
X0074874Y0084923D02*
X0072380Y0084923D01*
X0073385Y0083324D02*
X0069651Y0083324D01*
X0068052Y0081726D02*
X0071895Y0081726D01*
X0076570Y0078529D02*
X0081767Y0078529D01*
X0081767Y0077794D02*
X0073173Y0069200D01*
X0072158Y0069200D01*
X0072267Y0069309D01*
X0072267Y0072291D01*
X0071801Y0072757D01*
X0071540Y0073386D01*
X0071379Y0073547D01*
X0071784Y0073732D01*
X0072253Y0073926D01*
X0072289Y0073962D01*
X0072335Y0073984D01*
X0072681Y0074355D01*
X0073040Y0074714D01*
X0073060Y0074761D01*
X0081767Y0084105D01*
X0081767Y0077794D01*
X0080903Y0076930D02*
X0075081Y0076930D01*
X0073591Y0075332D02*
X0079304Y0075332D01*
X0077706Y0073733D02*
X0071786Y0073733D01*
X0072267Y0072134D02*
X0076107Y0072134D01*
X0074509Y0070536D02*
X0072267Y0070536D01*
X0069167Y0071800D02*
X0068667Y0071300D01*
X0068667Y0070800D01*
X0069167Y0071800D02*
X0064167Y0076800D01*
X0064167Y0081800D01*
X0069667Y0087300D01*
X0066994Y0089718D02*
X0066840Y0089718D01*
X0064167Y0087300D02*
X0055667Y0087300D01*
X0054667Y0086300D01*
X0039167Y0101800D01*
X0039167Y0106800D01*
X0049167Y0116800D01*
X0049167Y0131800D01*
X0046752Y0134476D02*
X0036934Y0134476D01*
X0037767Y0136075D02*
X0046436Y0136075D01*
X0046498Y0137673D02*
X0037767Y0137673D01*
X0036786Y0139272D02*
X0047679Y0139272D01*
X0049277Y0140870D02*
X0033632Y0140870D01*
X0032033Y0142469D02*
X0050876Y0142469D01*
X0051525Y0144068D02*
X0052474Y0144068D01*
X0052767Y0145666D02*
X0054073Y0145666D01*
X0052767Y0147265D02*
X0055671Y0147265D01*
X0057270Y0148863D02*
X0052195Y0148863D01*
X0054167Y0151800D02*
X0054167Y0166800D01*
X0060167Y0172800D01*
X0063948Y0172841D02*
X0084367Y0172841D01*
X0084367Y0174439D02*
X0063875Y0174439D01*
X0062276Y0176038D02*
X0084367Y0176038D01*
X0084367Y0177636D02*
X0053963Y0177636D01*
X0052364Y0176038D02*
X0058057Y0176038D01*
X0056459Y0174439D02*
X0050766Y0174439D01*
X0049167Y0176800D02*
X0039167Y0176800D01*
X0036436Y0174439D02*
X0026967Y0174439D01*
X0026967Y0172841D02*
X0056248Y0172841D01*
X0054649Y0171242D02*
X0031587Y0171242D01*
X0033283Y0169644D02*
X0053051Y0169644D01*
X0051652Y0168045D02*
X0034881Y0168045D01*
X0036222Y0166447D02*
X0051367Y0166447D01*
X0051367Y0164848D02*
X0036467Y0164848D01*
X0036467Y0163250D02*
X0051367Y0163250D01*
X0051367Y0161651D02*
X0036467Y0161651D01*
X0036467Y0160053D02*
X0051367Y0160053D01*
X0051367Y0158454D02*
X0036467Y0158454D01*
X0036467Y0156856D02*
X0051367Y0156856D01*
X0051367Y0155257D02*
X0036467Y0155257D01*
X0033667Y0153300D02*
X0033667Y0165300D01*
X0030167Y0168800D01*
X0026167Y0168800D01*
X0024167Y0171800D02*
X0019167Y0166800D01*
X0023667Y0162300D01*
X0023667Y0147300D01*
X0024167Y0146800D01*
X0024167Y0076800D01*
X0019167Y0071800D01*
X0021395Y0068937D02*
X0031682Y0068937D01*
X0030386Y0070536D02*
X0022767Y0070536D01*
X0023461Y0072134D02*
X0030386Y0072134D01*
X0030752Y0073733D02*
X0025059Y0073733D01*
X0026589Y0075332D02*
X0032351Y0075332D01*
X0026967Y0076930D02*
X0037867Y0076930D01*
X0037867Y0075332D02*
X0035982Y0075332D01*
X0037581Y0073733D02*
X0037867Y0073733D01*
X0037867Y0068937D02*
X0036651Y0068937D01*
X0037867Y0067339D02*
X0018017Y0067339D01*
X0017682Y0066400D02*
X0010652Y0066400D01*
X0008961Y0065700D01*
X0007667Y0064406D01*
X0006967Y0062715D01*
X0006967Y0060885D01*
X0007667Y0059194D01*
X0008961Y0057900D01*
X0010652Y0057200D01*
X0017682Y0057200D01*
X0019372Y0057900D01*
X0020666Y0059194D01*
X0021367Y0060885D01*
X0021367Y0062715D01*
X0020666Y0064406D01*
X0019372Y0065700D01*
X0017682Y0066400D01*
X0019274Y0065740D02*
X0037867Y0065740D01*
X0037867Y0064142D02*
X0020776Y0064142D01*
X0021367Y0062543D02*
X0035172Y0062543D01*
X0034088Y0060945D02*
X0021367Y0060945D01*
X0020729Y0059346D02*
X0033942Y0059346D01*
X0034731Y0057748D02*
X0019004Y0057748D01*
X0018456Y0055878D02*
X0017797Y0056092D01*
X0017113Y0056200D01*
X0014167Y0056200D01*
X0014167Y0051800D01*
X0021167Y0051800D01*
X0021167Y0052146D01*
X0021058Y0052830D01*
X0020844Y0053489D01*
X0020530Y0054106D01*
X0020123Y0054666D01*
X0019633Y0055156D01*
X0019073Y0055563D01*
X0018456Y0055878D01*
X0017432Y0056149D02*
X0034892Y0056149D01*
X0034892Y0054551D02*
X0020207Y0054551D01*
X0021019Y0052952D02*
X0034892Y0052952D01*
X0034892Y0051354D02*
X0021151Y0051354D01*
X0021167Y0051454D02*
X0021167Y0051800D01*
X0014167Y0051800D01*
X0014167Y0051800D01*
X0014167Y0051800D01*
X0014167Y0047400D01*
X0017113Y0047400D01*
X0017797Y0047508D01*
X0018456Y0047722D01*
X0019073Y0048037D01*
X0019633Y0048444D01*
X0020123Y0048934D01*
X0020530Y0049494D01*
X0020844Y0050111D01*
X0021058Y0050770D01*
X0021167Y0051454D01*
X0020663Y0049755D02*
X0034892Y0049755D01*
X0034892Y0048157D02*
X0019238Y0048157D01*
X0014167Y0048157D02*
X0014167Y0048157D01*
X0014167Y0047400D02*
X0011220Y0047400D01*
X0010536Y0047508D01*
X0009878Y0047722D01*
X0009261Y0048037D01*
X0008700Y0048444D01*
X0008211Y0048934D01*
X0007803Y0049494D01*
X0007489Y0050111D01*
X0007275Y0050770D01*
X0007167Y0051454D01*
X0007167Y0051800D01*
X0014167Y0051800D01*
X0014167Y0051800D01*
X0014167Y0056200D01*
X0011220Y0056200D01*
X0010536Y0056092D01*
X0009878Y0055878D01*
X0009261Y0055563D01*
X0008700Y0055156D01*
X0008211Y0054666D01*
X0007803Y0054106D01*
X0007489Y0053489D01*
X0007275Y0052830D01*
X0007167Y0052146D01*
X0007167Y0051800D01*
X0014167Y0051800D01*
X0014167Y0047400D01*
X0014167Y0049755D02*
X0014167Y0049755D01*
X0014167Y0051354D02*
X0014167Y0051354D01*
X0014167Y0051800D02*
X0014167Y0051800D01*
X0014167Y0052952D02*
X0014167Y0052952D01*
X0014167Y0054551D02*
X0014167Y0054551D01*
X0014167Y0056149D02*
X0014167Y0056149D01*
X0010901Y0056149D02*
X0006167Y0056149D01*
X0006167Y0054551D02*
X0008127Y0054551D01*
X0007315Y0052952D02*
X0006167Y0052952D01*
X0006167Y0051354D02*
X0007182Y0051354D01*
X0007670Y0049755D02*
X0006167Y0049755D01*
X0006167Y0048157D02*
X0009095Y0048157D01*
X0006167Y0046558D02*
X0034892Y0046558D01*
X0034892Y0044960D02*
X0006167Y0044960D01*
X0006167Y0043361D02*
X0034892Y0043361D01*
X0034892Y0041763D02*
X0006167Y0041763D01*
X0006167Y0040164D02*
X0034892Y0040164D01*
X0034892Y0038566D02*
X0006167Y0038566D01*
X0006167Y0036967D02*
X0034892Y0036967D01*
X0034892Y0035369D02*
X0006167Y0035369D01*
X0006167Y0033770D02*
X0034892Y0033770D01*
X0034892Y0032172D02*
X0006167Y0032172D01*
X0006167Y0030573D02*
X0034892Y0030573D01*
X0034892Y0028975D02*
X0006167Y0028975D01*
X0006167Y0027376D02*
X0034892Y0027376D01*
X0034892Y0025778D02*
X0006167Y0025778D01*
X0006167Y0024179D02*
X0034892Y0024179D01*
X0034892Y0022581D02*
X0029369Y0022581D01*
X0028840Y0022800D02*
X0026453Y0022800D01*
X0024247Y0021887D01*
X0022560Y0020199D01*
X0021646Y0017993D01*
X0021646Y0015607D01*
X0022560Y0013401D01*
X0024247Y0011713D01*
X0026453Y0010800D01*
X0028840Y0010800D01*
X0031045Y0011713D01*
X0032733Y0013401D01*
X0033646Y0015607D01*
X0033646Y0017993D01*
X0032733Y0020199D01*
X0031045Y0021887D01*
X0028840Y0022800D01*
X0025923Y0022581D02*
X0017476Y0022581D01*
X0017404Y0022600D02*
X0013548Y0022600D01*
X0013548Y0017181D01*
X0018967Y0017181D01*
X0018967Y0021037D01*
X0018844Y0021495D01*
X0018607Y0021905D01*
X0018272Y0022240D01*
X0017861Y0022477D01*
X0017404Y0022600D01*
X0018967Y0020982D02*
X0023343Y0020982D01*
X0022222Y0019384D02*
X0018967Y0019384D01*
X0018967Y0017785D02*
X0021646Y0017785D01*
X0021646Y0016187D02*
X0018967Y0016187D01*
X0018967Y0016419D02*
X0013548Y0016419D01*
X0013548Y0017181D01*
X0012786Y0017181D01*
X0012786Y0022600D01*
X0008930Y0022600D01*
X0008472Y0022477D01*
X0008061Y0022240D01*
X0007726Y0021905D01*
X0007489Y0021495D01*
X0007367Y0021037D01*
X0007367Y0017181D01*
X0012785Y0017181D01*
X0012785Y0016419D01*
X0007367Y0016419D01*
X0007367Y0012563D01*
X0007489Y0012105D01*
X0007726Y0011695D01*
X0008061Y0011360D01*
X0008472Y0011123D01*
X0008930Y0011000D01*
X0012786Y0011000D01*
X0012786Y0016419D01*
X0013548Y0016419D01*
X0013548Y0011000D01*
X0017404Y0011000D01*
X0017861Y0011123D01*
X0018272Y0011360D01*
X0018607Y0011695D01*
X0018844Y0012105D01*
X0018967Y0012563D01*
X0018967Y0016419D01*
X0018967Y0014588D02*
X0022068Y0014588D01*
X0022971Y0012990D02*
X0018967Y0012990D01*
X0018303Y0011391D02*
X0025026Y0011391D01*
X0030267Y0011391D02*
X0034267Y0011391D01*
X0034267Y0009793D02*
X0006167Y0009793D01*
X0006167Y0011391D02*
X0008030Y0011391D01*
X0007367Y0012990D02*
X0006167Y0012990D01*
X0006167Y0014588D02*
X0007367Y0014588D01*
X0007367Y0016187D02*
X0006167Y0016187D01*
X0006167Y0017785D02*
X0007367Y0017785D01*
X0007367Y0019384D02*
X0006167Y0019384D01*
X0006167Y0020982D02*
X0007367Y0020982D01*
X0006167Y0022581D02*
X0008857Y0022581D01*
X0012786Y0022581D02*
X0013548Y0022581D01*
X0013548Y0020982D02*
X0012786Y0020982D01*
X0012786Y0019384D02*
X0013548Y0019384D01*
X0013548Y0017785D02*
X0012786Y0017785D01*
X0012786Y0016187D02*
X0013548Y0016187D01*
X0013548Y0014588D02*
X0012786Y0014588D01*
X0012786Y0012990D02*
X0013548Y0012990D01*
X0013548Y0011391D02*
X0012786Y0011391D01*
X0006167Y0008194D02*
X0034268Y0008194D01*
X0035415Y0006596D02*
X0006167Y0006596D01*
X0006167Y0004997D02*
X0292088Y0004997D01*
X0292088Y0006596D02*
X0231043Y0006596D01*
X0232705Y0008194D02*
X0292088Y0008194D01*
X0292088Y0009793D02*
X0234303Y0009793D01*
X0230712Y0012990D02*
X0227101Y0012990D01*
X0228004Y0014588D02*
X0232311Y0014588D01*
X0232467Y0016187D02*
X0228426Y0016187D01*
X0228426Y0017785D02*
X0232467Y0017785D01*
X0232467Y0019384D02*
X0227850Y0019384D01*
X0226729Y0020982D02*
X0232467Y0020982D01*
X0233419Y0022581D02*
X0224926Y0022581D01*
X0224926Y0024179D02*
X0292088Y0024179D01*
X0292088Y0022581D02*
X0268004Y0022581D01*
X0267882Y0022600D02*
X0267807Y0022600D01*
X0267807Y0017181D01*
X0273226Y0017181D01*
X0273226Y0017256D01*
X0273083Y0018158D01*
X0272801Y0019026D01*
X0272386Y0019840D01*
X0271850Y0020578D01*
X0271204Y0021224D01*
X0270466Y0021761D01*
X0269652Y0022175D01*
X0268784Y0022457D01*
X0267882Y0022600D01*
X0267807Y0022581D02*
X0267045Y0022581D01*
X0267045Y0022600D02*
X0266969Y0022600D01*
X0266068Y0022457D01*
X0265199Y0022175D01*
X0264386Y0021761D01*
X0263647Y0021224D01*
X0263002Y0020578D01*
X0262465Y0019840D01*
X0262051Y0019026D01*
X0261769Y0018158D01*
X0261626Y0017256D01*
X0261626Y0017181D01*
X0267045Y0017181D01*
X0267045Y0022600D01*
X0266847Y0022581D02*
X0254669Y0022581D01*
X0254140Y0022800D02*
X0256345Y0021887D01*
X0258033Y0020199D01*
X0258946Y0017993D01*
X0258946Y0015607D01*
X0258033Y0013401D01*
X0256345Y0011713D01*
X0254140Y0010800D01*
X0251753Y0010800D01*
X0249547Y0011713D01*
X0247860Y0013401D01*
X0246946Y0015607D01*
X0246946Y0017993D01*
X0247860Y0020199D01*
X0249547Y0021887D01*
X0251753Y0022800D01*
X0254140Y0022800D01*
X0251223Y0022581D02*
X0243514Y0022581D01*
X0244467Y0020982D02*
X0248643Y0020982D01*
X0247522Y0019384D02*
X0244467Y0019384D01*
X0244467Y0017785D02*
X0246946Y0017785D01*
X0246946Y0016187D02*
X0244467Y0016187D01*
X0244467Y0014588D02*
X0247368Y0014588D01*
X0248271Y0012990D02*
X0244467Y0012990D01*
X0243886Y0011391D02*
X0250326Y0011391D01*
X0255567Y0011391D02*
X0265303Y0011391D01*
X0265199Y0011425D02*
X0266068Y0011143D01*
X0266969Y0011000D01*
X0267045Y0011000D01*
X0267045Y0016419D01*
X0267807Y0016419D01*
X0267807Y0017181D01*
X0267045Y0017181D01*
X0267045Y0016419D01*
X0261626Y0016419D01*
X0261626Y0016344D01*
X0261769Y0015442D01*
X0262051Y0014574D01*
X0262465Y0013760D01*
X0263002Y0013022D01*
X0263647Y0012376D01*
X0264386Y0011839D01*
X0265199Y0011425D01*
X0267045Y0011391D02*
X0267807Y0011391D01*
X0267807Y0011000D02*
X0267882Y0011000D01*
X0268784Y0011143D01*
X0269652Y0011425D01*
X0270466Y0011839D01*
X0271204Y0012376D01*
X0271850Y0013022D01*
X0272386Y0013760D01*
X0272801Y0014574D01*
X0273083Y0015442D01*
X0273226Y0016344D01*
X0273226Y0016419D01*
X0267807Y0016419D01*
X0267807Y0011000D01*
X0269548Y0011391D02*
X0292088Y0011391D01*
X0292088Y0012990D02*
X0271818Y0012990D01*
X0272805Y0014588D02*
X0292088Y0014588D01*
X0292088Y0016187D02*
X0273201Y0016187D01*
X0273142Y0017785D02*
X0292088Y0017785D01*
X0292088Y0019384D02*
X0272619Y0019384D01*
X0271446Y0020982D02*
X0292088Y0020982D01*
X0292088Y0025778D02*
X0224926Y0025778D01*
X0224926Y0027376D02*
X0292088Y0027376D01*
X0292088Y0028975D02*
X0224926Y0028975D01*
X0223929Y0030573D02*
X0292088Y0030573D01*
X0292088Y0032172D02*
X0222330Y0032172D01*
X0220732Y0033770D02*
X0292088Y0033770D01*
X0292088Y0035369D02*
X0219133Y0035369D01*
X0217535Y0036967D02*
X0292088Y0036967D01*
X0292088Y0038566D02*
X0215936Y0038566D01*
X0214338Y0040164D02*
X0292088Y0040164D01*
X0292088Y0041763D02*
X0212739Y0041763D01*
X0211967Y0043361D02*
X0292088Y0043361D01*
X0292088Y0044960D02*
X0211967Y0044960D01*
X0211967Y0046558D02*
X0292088Y0046558D01*
X0292088Y0048157D02*
X0225871Y0048157D01*
X0225733Y0048019D02*
X0227948Y0050234D01*
X0227948Y0053366D01*
X0225733Y0055581D01*
X0222600Y0055581D01*
X0220386Y0053366D01*
X0220386Y0050234D01*
X0222600Y0048019D01*
X0225733Y0048019D01*
X0227469Y0049755D02*
X0292088Y0049755D01*
X0292088Y0051354D02*
X0227948Y0051354D01*
X0227948Y0052952D02*
X0292088Y0052952D01*
X0292088Y0054551D02*
X0243265Y0054551D01*
X0243948Y0055234D02*
X0241733Y0053019D01*
X0238600Y0053019D01*
X0236386Y0055234D01*
X0236386Y0058366D01*
X0237667Y0059647D01*
X0237667Y0069300D01*
X0213669Y0069300D01*
X0212751Y0069681D01*
X0212047Y0070384D01*
X0204412Y0078019D01*
X0202600Y0078019D01*
X0200386Y0080234D01*
X0200386Y0083366D01*
X0202600Y0085581D01*
X0205733Y0085581D01*
X0207948Y0083366D01*
X0207948Y0081554D01*
X0215202Y0074300D01*
X0240664Y0074300D01*
X0241583Y0073919D01*
X0242286Y0073216D01*
X0242667Y0072297D01*
X0242667Y0059647D01*
X0243948Y0058366D01*
X0243948Y0055234D01*
X0243948Y0056149D02*
X0292088Y0056149D01*
X0292088Y0057748D02*
X0243948Y0057748D01*
X0242968Y0059346D02*
X0292088Y0059346D01*
X0292088Y0060945D02*
X0242667Y0060945D01*
X0242667Y0062543D02*
X0292088Y0062543D01*
X0292088Y0064142D02*
X0242667Y0064142D01*
X0242667Y0065740D02*
X0267898Y0065740D01*
X0267417Y0066222D02*
X0268588Y0065050D01*
X0279745Y0065050D01*
X0280917Y0066222D01*
X0280917Y0077378D01*
X0279745Y0078550D01*
X0268588Y0078550D01*
X0267417Y0077378D01*
X0267417Y0066222D01*
X0267417Y0067339D02*
X0242667Y0067339D01*
X0242667Y0068937D02*
X0267417Y0068937D01*
X0267417Y0070536D02*
X0242667Y0070536D01*
X0242667Y0072134D02*
X0267417Y0072134D01*
X0267417Y0073733D02*
X0241769Y0073733D01*
X0237667Y0068937D02*
X0210989Y0068937D01*
X0211895Y0070536D02*
X0189390Y0070536D01*
X0187792Y0072134D02*
X0210297Y0072134D01*
X0208698Y0073733D02*
X0186193Y0073733D01*
X0184595Y0075332D02*
X0207100Y0075332D01*
X0205501Y0076930D02*
X0182996Y0076930D01*
X0181398Y0078529D02*
X0202091Y0078529D01*
X0200492Y0080127D02*
X0179799Y0080127D01*
X0178201Y0081726D02*
X0200386Y0081726D01*
X0200386Y0083324D02*
X0176602Y0083324D01*
X0174167Y0081800D02*
X0164167Y0081800D01*
X0159167Y0076800D01*
X0124167Y0076800D01*
X0120567Y0076930D02*
X0102967Y0076930D01*
X0102967Y0075332D02*
X0120567Y0075332D01*
X0122142Y0073733D02*
X0102967Y0073733D01*
X0102967Y0072134D02*
X0179872Y0072134D01*
X0181471Y0070536D02*
X0102967Y0070536D01*
X0102967Y0068937D02*
X0183069Y0068937D01*
X0184668Y0067339D02*
X0102967Y0067339D01*
X0102758Y0065740D02*
X0186266Y0065740D01*
X0188267Y0064142D02*
X0156916Y0064142D01*
X0157767Y0063291D02*
X0155658Y0065400D01*
X0152675Y0065400D01*
X0151575Y0064300D01*
X0146758Y0064300D01*
X0145658Y0065400D01*
X0142675Y0065400D01*
X0140567Y0063291D01*
X0140567Y0060309D01*
X0142675Y0058200D01*
X0145567Y0058200D01*
X0145567Y0057581D01*
X0142600Y0057581D01*
X0140386Y0055366D01*
X0140386Y0054600D01*
X0131714Y0054600D01*
X0130733Y0055581D01*
X0127600Y0055581D01*
X0125386Y0053366D01*
X0125386Y0050234D01*
X0127600Y0048019D01*
X0130733Y0048019D01*
X0131714Y0049000D01*
X0142724Y0049000D01*
X0143753Y0049426D01*
X0144345Y0050019D01*
X0145733Y0050019D01*
X0147360Y0051646D01*
X0147581Y0051426D01*
X0151567Y0047440D01*
X0151567Y0046309D01*
X0153675Y0044200D01*
X0156658Y0044200D01*
X0158767Y0046309D01*
X0158767Y0049291D01*
X0156658Y0051400D01*
X0155526Y0051400D01*
X0151967Y0054960D01*
X0151967Y0055509D01*
X0152767Y0056309D01*
X0152767Y0058200D01*
X0155658Y0058200D01*
X0157767Y0060309D01*
X0157767Y0063291D01*
X0157767Y0062543D02*
X0206367Y0062543D01*
X0206367Y0060945D02*
X0157767Y0060945D01*
X0156804Y0059346D02*
X0206367Y0059346D01*
X0206367Y0057748D02*
X0152767Y0057748D01*
X0152607Y0056149D02*
X0206367Y0056149D01*
X0206367Y0054551D02*
X0152376Y0054551D01*
X0153974Y0052952D02*
X0206367Y0052952D01*
X0206367Y0051354D02*
X0156704Y0051354D01*
X0158302Y0049755D02*
X0206367Y0049755D01*
X0206367Y0048157D02*
X0158767Y0048157D01*
X0158767Y0046558D02*
X0206367Y0046558D01*
X0206367Y0044960D02*
X0157418Y0044960D01*
X0155167Y0047800D02*
X0149167Y0053800D01*
X0149167Y0057800D01*
X0145567Y0057748D02*
X0111567Y0057748D01*
X0111567Y0059346D02*
X0141529Y0059346D01*
X0140567Y0060945D02*
X0111567Y0060945D01*
X0110567Y0062543D02*
X0140567Y0062543D01*
X0141417Y0064142D02*
X0101066Y0064142D01*
X0099016Y0062543D02*
X0098870Y0062543D01*
X0097417Y0060945D02*
X0097271Y0060945D01*
X0095819Y0059346D02*
X0095673Y0059346D01*
X0094220Y0057748D02*
X0094074Y0057748D01*
X0089167Y0056800D02*
X0096667Y0064300D01*
X0096667Y0066800D01*
X0100167Y0066800D01*
X0100167Y0081800D01*
X0104167Y0085800D01*
X0104167Y0096800D01*
X0109167Y0101800D01*
X0112023Y0099309D02*
X0117863Y0099309D01*
X0116099Y0100908D02*
X0112948Y0100908D01*
X0112948Y0102506D02*
X0114501Y0102506D01*
X0114167Y0106800D02*
X0119167Y0101800D01*
X0124167Y0101800D01*
X0129167Y0106800D01*
X0129167Y0111800D01*
X0130431Y0104105D02*
X0133357Y0104105D01*
X0128833Y0102506D02*
X0139501Y0102506D01*
X0141099Y0100908D02*
X0127234Y0100908D01*
X0125470Y0099309D02*
X0142698Y0099309D01*
X0144296Y0097711D02*
X0109037Y0097711D01*
X0107439Y0096112D02*
X0145567Y0096112D01*
X0146362Y0094514D02*
X0106967Y0094514D01*
X0106967Y0092915D02*
X0189767Y0092915D01*
X0190143Y0091317D02*
X0106967Y0091317D01*
X0106967Y0089718D02*
X0191005Y0089718D01*
X0192997Y0088120D02*
X0106967Y0088120D01*
X0106967Y0086521D02*
X0213267Y0086521D01*
X0213267Y0084923D02*
X0206391Y0084923D01*
X0207948Y0083324D02*
X0213640Y0083324D01*
X0213267Y0084226D02*
X0214165Y0082058D01*
X0215825Y0080398D01*
X0217993Y0079500D01*
X0220340Y0079500D01*
X0222509Y0080398D01*
X0224168Y0082058D01*
X0225067Y0084226D01*
X0225067Y0094374D01*
X0224168Y0096542D01*
X0222509Y0098202D01*
X0220340Y0099100D01*
X0217993Y0099100D01*
X0215825Y0098202D01*
X0214165Y0096542D01*
X0213267Y0094374D01*
X0213267Y0084226D01*
X0214497Y0081726D02*
X0207948Y0081726D01*
X0209375Y0080127D02*
X0216479Y0080127D01*
X0221854Y0080127D02*
X0292088Y0080127D01*
X0292088Y0078529D02*
X0279767Y0078529D01*
X0280917Y0076930D02*
X0292088Y0076930D01*
X0292088Y0075332D02*
X0280917Y0075332D01*
X0280917Y0073733D02*
X0292088Y0073733D01*
X0292088Y0072134D02*
X0280917Y0072134D01*
X0280917Y0070536D02*
X0292088Y0070536D01*
X0292088Y0068937D02*
X0280917Y0068937D01*
X0280917Y0067339D02*
X0292088Y0067339D01*
X0292088Y0065740D02*
X0280436Y0065740D01*
X0267417Y0075332D02*
X0214171Y0075332D01*
X0212572Y0076930D02*
X0267417Y0076930D01*
X0268567Y0078529D02*
X0210974Y0078529D01*
X0213267Y0088120D02*
X0198336Y0088120D01*
X0200329Y0089718D02*
X0213267Y0089718D01*
X0213267Y0091317D02*
X0201190Y0091317D01*
X0201567Y0092915D02*
X0213267Y0092915D01*
X0213325Y0094514D02*
X0201567Y0094514D01*
X0201567Y0096112D02*
X0213987Y0096112D01*
X0215333Y0097711D02*
X0201567Y0097711D01*
X0201567Y0099309D02*
X0236767Y0099309D01*
X0236767Y0097711D02*
X0223000Y0097711D01*
X0224347Y0096112D02*
X0236767Y0096112D01*
X0236767Y0094514D02*
X0225009Y0094514D01*
X0225067Y0092915D02*
X0236767Y0092915D01*
X0237143Y0091317D02*
X0225067Y0091317D01*
X0225067Y0089718D02*
X0238005Y0089718D01*
X0239997Y0088120D02*
X0225067Y0088120D01*
X0225067Y0086521D02*
X0269585Y0086521D01*
X0270343Y0085763D02*
X0272824Y0084735D01*
X0275509Y0084735D01*
X0277990Y0085763D01*
X0279889Y0087661D01*
X0280917Y0090142D01*
X0280917Y0092828D01*
X0279889Y0095309D01*
X0277990Y0097207D01*
X0275509Y0098235D01*
X0272824Y0098235D01*
X0270343Y0097207D01*
X0268444Y0095309D01*
X0267417Y0092828D01*
X0267417Y0090142D01*
X0268444Y0087661D01*
X0270343Y0085763D01*
X0272371Y0084923D02*
X0225067Y0084923D01*
X0224693Y0083324D02*
X0292088Y0083324D01*
X0292088Y0081726D02*
X0223836Y0081726D01*
X0211967Y0067339D02*
X0237667Y0067339D01*
X0237667Y0065740D02*
X0211967Y0065740D01*
X0211967Y0064142D02*
X0237667Y0064142D01*
X0237667Y0062543D02*
X0211967Y0062543D01*
X0211967Y0060945D02*
X0237667Y0060945D01*
X0237366Y0059346D02*
X0211967Y0059346D01*
X0211967Y0057748D02*
X0236386Y0057748D01*
X0236386Y0056149D02*
X0211967Y0056149D01*
X0211967Y0054551D02*
X0221570Y0054551D01*
X0220386Y0052952D02*
X0211967Y0052952D01*
X0211967Y0051354D02*
X0220386Y0051354D01*
X0220864Y0049755D02*
X0211967Y0049755D01*
X0211967Y0048157D02*
X0222463Y0048157D01*
X0226763Y0054551D02*
X0237068Y0054551D01*
X0215259Y0032172D02*
X0177755Y0032172D01*
X0176156Y0033770D02*
X0213661Y0033770D01*
X0212062Y0035369D02*
X0174558Y0035369D01*
X0172959Y0036967D02*
X0210464Y0036967D01*
X0208865Y0038566D02*
X0171361Y0038566D01*
X0169167Y0036800D02*
X0177426Y0028541D01*
X0177426Y0016800D01*
X0171848Y0014588D02*
X0168524Y0014588D01*
X0168946Y0016187D02*
X0171426Y0016187D01*
X0171426Y0017785D02*
X0168946Y0017785D01*
X0168370Y0019384D02*
X0172002Y0019384D01*
X0173123Y0020982D02*
X0167249Y0020982D01*
X0164669Y0022581D02*
X0174626Y0022581D01*
X0174626Y0024179D02*
X0111567Y0024179D01*
X0111567Y0022581D02*
X0116223Y0022581D01*
X0113643Y0020982D02*
X0111567Y0020982D01*
X0111567Y0019384D02*
X0112522Y0019384D01*
X0111946Y0017785D02*
X0111567Y0017785D01*
X0111567Y0016187D02*
X0111946Y0016187D01*
X0111567Y0014588D02*
X0112368Y0014588D01*
X0111567Y0012990D02*
X0113271Y0012990D01*
X0111567Y0011391D02*
X0115326Y0011391D01*
X0120567Y0011391D02*
X0130303Y0011391D01*
X0128034Y0012990D02*
X0122621Y0012990D01*
X0123524Y0014588D02*
X0127046Y0014588D01*
X0126651Y0016187D02*
X0123946Y0016187D01*
X0123946Y0017785D02*
X0126709Y0017785D01*
X0127233Y0019384D02*
X0123370Y0019384D01*
X0122249Y0020982D02*
X0128405Y0020982D01*
X0132045Y0020982D02*
X0132807Y0020982D01*
X0132807Y0019384D02*
X0132045Y0019384D01*
X0132045Y0017785D02*
X0132807Y0017785D01*
X0132807Y0022581D02*
X0132045Y0022581D01*
X0131847Y0022581D02*
X0119669Y0022581D01*
X0111567Y0025778D02*
X0174626Y0025778D01*
X0174626Y0027376D02*
X0111567Y0027376D01*
X0111567Y0028975D02*
X0173032Y0028975D01*
X0171434Y0030573D02*
X0111567Y0030573D01*
X0111567Y0032172D02*
X0124441Y0032172D01*
X0124581Y0032033D02*
X0124591Y0032028D01*
X0124600Y0032019D01*
X0124614Y0032019D01*
X0125610Y0031606D01*
X0126724Y0031606D01*
X0127720Y0032019D01*
X0127733Y0032019D01*
X0127742Y0032028D01*
X0127753Y0032033D01*
X0128540Y0032820D01*
X0128545Y0032831D01*
X0129948Y0034234D01*
X0129948Y0037366D01*
X0127733Y0039581D01*
X0124600Y0039581D01*
X0122386Y0037366D01*
X0122386Y0034234D01*
X0123789Y0032831D01*
X0123793Y0032820D01*
X0124581Y0032033D01*
X0122849Y0033770D02*
X0111567Y0033770D01*
X0111567Y0035369D02*
X0122386Y0035369D01*
X0122386Y0036967D02*
X0111567Y0036967D01*
X0111567Y0038566D02*
X0123585Y0038566D01*
X0126167Y0035800D02*
X0126167Y0034406D01*
X0127892Y0032172D02*
X0169835Y0032172D01*
X0168237Y0033770D02*
X0129484Y0033770D01*
X0129948Y0035369D02*
X0153638Y0035369D01*
X0152040Y0036967D02*
X0129948Y0036967D01*
X0128748Y0038566D02*
X0150441Y0038566D01*
X0148843Y0040164D02*
X0111567Y0040164D01*
X0111567Y0041763D02*
X0147244Y0041763D01*
X0144258Y0043361D02*
X0111567Y0043361D01*
X0111567Y0044960D02*
X0143386Y0044960D01*
X0143386Y0046558D02*
X0111567Y0046558D01*
X0111567Y0048157D02*
X0127463Y0048157D01*
X0125864Y0049755D02*
X0111567Y0049755D01*
X0111567Y0051354D02*
X0125386Y0051354D01*
X0125386Y0052952D02*
X0111567Y0052952D01*
X0111567Y0054551D02*
X0126570Y0054551D01*
X0129167Y0051800D02*
X0142167Y0051800D01*
X0144167Y0053800D01*
X0147068Y0051354D02*
X0147653Y0051354D01*
X0149252Y0049755D02*
X0144082Y0049755D01*
X0144176Y0048157D02*
X0130871Y0048157D01*
X0141169Y0056149D02*
X0111567Y0056149D01*
X0101667Y0056800D02*
X0094167Y0049300D01*
X0094167Y0046800D01*
X0103467Y0037500D01*
X0103467Y0016800D01*
X0097467Y0016187D02*
X0092701Y0016187D01*
X0092726Y0016344D02*
X0092726Y0016419D01*
X0087307Y0016419D01*
X0087307Y0017181D01*
X0092726Y0017181D01*
X0092726Y0017256D01*
X0092583Y0018158D01*
X0092301Y0019026D01*
X0091886Y0019840D01*
X0091350Y0020578D01*
X0090704Y0021224D01*
X0089966Y0021761D01*
X0089152Y0022175D01*
X0088284Y0022457D01*
X0087382Y0022600D01*
X0087307Y0022600D01*
X0087307Y0017181D01*
X0086545Y0017181D01*
X0086545Y0022600D01*
X0086469Y0022600D01*
X0085568Y0022457D01*
X0084699Y0022175D01*
X0083886Y0021761D01*
X0083147Y0021224D01*
X0082502Y0020578D01*
X0081965Y0019840D01*
X0081551Y0019026D01*
X0081269Y0018158D01*
X0081126Y0017256D01*
X0081126Y0017181D01*
X0086545Y0017181D01*
X0086545Y0016419D01*
X0081126Y0016419D01*
X0081126Y0016344D01*
X0081269Y0015442D01*
X0081551Y0014574D01*
X0081965Y0013760D01*
X0082502Y0013022D01*
X0082573Y0012950D01*
X0077081Y0012950D01*
X0077533Y0013401D01*
X0078446Y0015607D01*
X0078446Y0017993D01*
X0077533Y0020199D01*
X0075845Y0021887D01*
X0073640Y0022800D01*
X0071253Y0022800D01*
X0069047Y0021887D01*
X0067360Y0020199D01*
X0066967Y0019250D01*
X0066967Y0022357D01*
X0066540Y0023386D01*
X0065753Y0024174D01*
X0061267Y0028660D01*
X0061267Y0034000D01*
X0071875Y0034000D01*
X0072127Y0033748D01*
X0073451Y0033200D01*
X0074883Y0033200D01*
X0076206Y0033748D01*
X0077219Y0034761D01*
X0077767Y0036084D01*
X0077767Y0037516D01*
X0077219Y0038839D01*
X0076206Y0039852D01*
X0074883Y0040400D01*
X0073451Y0040400D01*
X0072127Y0039852D01*
X0071875Y0039600D01*
X0057910Y0039600D01*
X0056881Y0039174D01*
X0056093Y0038386D01*
X0055667Y0037357D01*
X0055667Y0026943D01*
X0056093Y0025914D01*
X0059207Y0022800D01*
X0053138Y0022800D01*
X0051967Y0021628D01*
X0051967Y0012950D01*
X0046761Y0012950D01*
X0047212Y0013401D01*
X0048126Y0015607D01*
X0048126Y0017993D01*
X0047212Y0020199D01*
X0045524Y0021887D01*
X0043319Y0022800D01*
X0040932Y0022800D01*
X0039692Y0022286D01*
X0039692Y0047315D01*
X0041793Y0045214D01*
X0041793Y0045214D01*
X0042581Y0044426D01*
X0043610Y0044000D01*
X0069724Y0044000D01*
X0070753Y0044426D01*
X0075826Y0049500D01*
X0084507Y0049500D01*
X0085386Y0048621D01*
X0085386Y0047234D01*
X0087600Y0045019D01*
X0090733Y0045019D01*
X0091540Y0045826D01*
X0091793Y0045214D01*
X0100667Y0036340D01*
X0100667Y0022800D01*
X0098638Y0022800D01*
X0097467Y0021628D01*
X0097467Y0012950D01*
X0091278Y0012950D01*
X0091350Y0013022D01*
X0091886Y0013760D01*
X0092301Y0014574D01*
X0092583Y0015442D01*
X0092726Y0016344D01*
X0092642Y0017785D02*
X0097467Y0017785D01*
X0097467Y0019384D02*
X0092119Y0019384D01*
X0090946Y0020982D02*
X0097467Y0020982D01*
X0098419Y0022581D02*
X0087504Y0022581D01*
X0087307Y0022581D02*
X0086545Y0022581D01*
X0086347Y0022581D02*
X0074169Y0022581D01*
X0076749Y0020982D02*
X0082905Y0020982D01*
X0081733Y0019384D02*
X0077870Y0019384D01*
X0078446Y0017785D02*
X0081209Y0017785D01*
X0081151Y0016187D02*
X0078446Y0016187D01*
X0078024Y0014588D02*
X0081546Y0014588D01*
X0082534Y0012990D02*
X0077121Y0012990D01*
X0086545Y0017785D02*
X0087307Y0017785D01*
X0087307Y0019384D02*
X0086545Y0019384D01*
X0086545Y0020982D02*
X0087307Y0020982D01*
X0092305Y0014588D02*
X0097467Y0014588D01*
X0097467Y0012990D02*
X0091318Y0012990D01*
X0100667Y0024179D02*
X0065747Y0024179D01*
X0066874Y0022581D02*
X0070723Y0022581D01*
X0068143Y0020982D02*
X0066967Y0020982D01*
X0066967Y0019384D02*
X0067022Y0019384D01*
X0064167Y0021800D02*
X0064167Y0016300D01*
X0058467Y0016300D01*
X0057967Y0016800D01*
X0051967Y0016187D02*
X0048126Y0016187D01*
X0048126Y0017785D02*
X0051967Y0017785D01*
X0051967Y0019384D02*
X0047550Y0019384D01*
X0046429Y0020982D02*
X0051967Y0020982D01*
X0052919Y0022581D02*
X0043849Y0022581D01*
X0040403Y0022581D02*
X0039692Y0022581D01*
X0039692Y0024179D02*
X0057828Y0024179D01*
X0056229Y0025778D02*
X0039692Y0025778D01*
X0039692Y0027376D02*
X0055667Y0027376D01*
X0055667Y0028975D02*
X0039692Y0028975D01*
X0039692Y0030573D02*
X0055667Y0030573D01*
X0055667Y0032172D02*
X0039692Y0032172D01*
X0039692Y0033770D02*
X0055667Y0033770D01*
X0055667Y0035369D02*
X0039692Y0035369D01*
X0039692Y0036967D02*
X0055667Y0036967D01*
X0056273Y0038566D02*
X0039692Y0038566D01*
X0039692Y0040164D02*
X0072882Y0040164D01*
X0075452Y0040164D02*
X0096843Y0040164D01*
X0098441Y0038566D02*
X0077332Y0038566D01*
X0077767Y0036967D02*
X0100040Y0036967D01*
X0100667Y0035369D02*
X0077470Y0035369D01*
X0076228Y0033770D02*
X0100667Y0033770D01*
X0100667Y0032172D02*
X0061267Y0032172D01*
X0061267Y0033770D02*
X0072105Y0033770D01*
X0074167Y0036800D02*
X0058467Y0036800D01*
X0058467Y0027500D01*
X0064167Y0021800D01*
X0064149Y0025778D02*
X0100667Y0025778D01*
X0100667Y0027376D02*
X0062550Y0027376D01*
X0061267Y0028975D02*
X0100667Y0028975D01*
X0100667Y0030573D02*
X0061267Y0030573D01*
X0051967Y0014588D02*
X0047704Y0014588D01*
X0046801Y0012990D02*
X0051967Y0012990D01*
X0034267Y0012990D02*
X0032321Y0012990D01*
X0033224Y0014588D02*
X0034267Y0014588D01*
X0034267Y0016187D02*
X0033646Y0016187D01*
X0033646Y0017785D02*
X0034267Y0017785D01*
X0034267Y0019384D02*
X0033070Y0019384D01*
X0031949Y0020982D02*
X0034892Y0020982D01*
X0039692Y0041763D02*
X0095244Y0041763D01*
X0093646Y0043361D02*
X0039692Y0043361D01*
X0039692Y0044960D02*
X0042047Y0044960D01*
X0040449Y0046558D02*
X0039692Y0046558D01*
X0040667Y0050300D02*
X0040667Y0082300D01*
X0037942Y0084923D02*
X0026967Y0084923D01*
X0026967Y0086521D02*
X0041367Y0086521D01*
X0041367Y0088120D02*
X0026967Y0088120D01*
X0026967Y0089718D02*
X0041367Y0089718D01*
X0040690Y0091317D02*
X0026967Y0091317D01*
X0026967Y0092915D02*
X0039092Y0092915D01*
X0037493Y0094514D02*
X0026967Y0094514D01*
X0026967Y0096112D02*
X0035895Y0096112D01*
X0034296Y0097711D02*
X0026967Y0097711D01*
X0026967Y0099309D02*
X0031566Y0099309D01*
X0030567Y0100908D02*
X0026967Y0100908D01*
X0026967Y0102506D02*
X0030567Y0102506D01*
X0031380Y0104105D02*
X0026967Y0104105D01*
X0026967Y0105703D02*
X0036367Y0105703D01*
X0036367Y0107302D02*
X0026967Y0107302D01*
X0026967Y0108900D02*
X0037307Y0108900D01*
X0038906Y0110499D02*
X0026967Y0110499D01*
X0026967Y0112097D02*
X0040504Y0112097D01*
X0042103Y0113696D02*
X0026967Y0113696D01*
X0026967Y0115294D02*
X0043701Y0115294D01*
X0045300Y0116893D02*
X0026967Y0116893D01*
X0026967Y0118491D02*
X0046367Y0118491D01*
X0046367Y0120090D02*
X0026967Y0120090D01*
X0026967Y0121688D02*
X0046367Y0121688D01*
X0046367Y0123287D02*
X0026967Y0123287D01*
X0026967Y0124885D02*
X0046367Y0124885D01*
X0046367Y0126484D02*
X0026967Y0126484D01*
X0026967Y0128082D02*
X0046367Y0128082D01*
X0046195Y0129681D02*
X0026967Y0129681D01*
X0026967Y0131279D02*
X0045567Y0131279D01*
X0045567Y0132878D02*
X0026967Y0132878D01*
X0026967Y0134476D02*
X0031399Y0134476D01*
X0030567Y0136075D02*
X0026967Y0136075D01*
X0026967Y0137673D02*
X0029758Y0137673D01*
X0028159Y0139272D02*
X0026967Y0139272D01*
X0021367Y0139272D02*
X0020698Y0139272D01*
X0020666Y0139194D02*
X0021367Y0140885D01*
X0021367Y0142715D01*
X0020666Y0144406D01*
X0019372Y0145700D01*
X0017682Y0146400D01*
X0010652Y0146400D01*
X0008961Y0145700D01*
X0007667Y0144406D01*
X0006967Y0142715D01*
X0006967Y0140885D01*
X0007667Y0139194D01*
X0008961Y0137900D01*
X0010652Y0137200D01*
X0017682Y0137200D01*
X0019372Y0137900D01*
X0020666Y0139194D01*
X0021367Y0137673D02*
X0018825Y0137673D01*
X0018466Y0136075D02*
X0021367Y0136075D01*
X0021367Y0134476D02*
X0020596Y0134476D01*
X0020666Y0134406D02*
X0019372Y0135700D01*
X0017682Y0136400D01*
X0010652Y0136400D01*
X0008961Y0135700D01*
X0007667Y0134406D01*
X0006967Y0132715D01*
X0006967Y0130885D01*
X0007667Y0129194D01*
X0008961Y0127900D01*
X0010652Y0127200D01*
X0017682Y0127200D01*
X0019372Y0127900D01*
X0020666Y0129194D01*
X0021367Y0130885D01*
X0021367Y0132715D01*
X0020666Y0134406D01*
X0021299Y0132878D02*
X0021367Y0132878D01*
X0021367Y0131279D02*
X0021367Y0131279D01*
X0021367Y0129681D02*
X0020868Y0129681D01*
X0021367Y0128082D02*
X0019554Y0128082D01*
X0019372Y0125700D02*
X0017682Y0126400D01*
X0010652Y0126400D01*
X0008961Y0125700D01*
X0007667Y0124406D01*
X0006967Y0122715D01*
X0006967Y0120885D01*
X0007667Y0119194D01*
X0008961Y0117900D01*
X0010652Y0117200D01*
X0017682Y0117200D01*
X0019372Y0117900D01*
X0020666Y0119194D01*
X0021367Y0120885D01*
X0021367Y0122715D01*
X0020666Y0124406D01*
X0019372Y0125700D01*
X0020187Y0124885D02*
X0021367Y0124885D01*
X0021367Y0123287D02*
X0021130Y0123287D01*
X0021367Y0121688D02*
X0021367Y0121688D01*
X0021367Y0120090D02*
X0021037Y0120090D01*
X0021367Y0118491D02*
X0019963Y0118491D01*
X0021367Y0116893D02*
X0006167Y0116893D01*
X0006167Y0118491D02*
X0008370Y0118491D01*
X0007296Y0120090D02*
X0006167Y0120090D01*
X0006167Y0121688D02*
X0006967Y0121688D01*
X0007204Y0123287D02*
X0006167Y0123287D01*
X0006167Y0124885D02*
X0008147Y0124885D01*
X0006167Y0126484D02*
X0021367Y0126484D01*
X0017682Y0116400D02*
X0010652Y0116400D01*
X0008961Y0115700D01*
X0007667Y0114406D01*
X0006967Y0112715D01*
X0006967Y0110885D01*
X0007667Y0109194D01*
X0008961Y0107900D01*
X0010652Y0107200D01*
X0017682Y0107200D01*
X0019372Y0107900D01*
X0020666Y0109194D01*
X0021367Y0110885D01*
X0021367Y0112715D01*
X0020666Y0114406D01*
X0019372Y0115700D01*
X0017682Y0116400D01*
X0019778Y0115294D02*
X0021367Y0115294D01*
X0021367Y0113696D02*
X0020960Y0113696D01*
X0021367Y0112097D02*
X0021367Y0112097D01*
X0021367Y0110499D02*
X0021207Y0110499D01*
X0021367Y0108900D02*
X0020372Y0108900D01*
X0021367Y0107302D02*
X0017927Y0107302D01*
X0017682Y0106400D02*
X0010652Y0106400D01*
X0008961Y0105700D01*
X0007667Y0104406D01*
X0006967Y0102715D01*
X0006967Y0100885D01*
X0007667Y0099194D01*
X0008961Y0097900D01*
X0010652Y0097200D01*
X0017682Y0097200D01*
X0019372Y0097900D01*
X0020666Y0099194D01*
X0021367Y0100885D01*
X0021367Y0102715D01*
X0020666Y0104406D01*
X0019372Y0105700D01*
X0017682Y0106400D01*
X0019364Y0105703D02*
X0021367Y0105703D01*
X0021367Y0104105D02*
X0020791Y0104105D01*
X0021367Y0102506D02*
X0021367Y0102506D01*
X0021367Y0100908D02*
X0021367Y0100908D01*
X0021367Y0099309D02*
X0020714Y0099309D01*
X0021367Y0097711D02*
X0018915Y0097711D01*
X0018377Y0096112D02*
X0021367Y0096112D01*
X0021367Y0094514D02*
X0020558Y0094514D01*
X0020666Y0094406D02*
X0019372Y0095700D01*
X0017682Y0096400D01*
X0010652Y0096400D01*
X0008961Y0095700D01*
X0007667Y0094406D01*
X0006967Y0092715D01*
X0006967Y0090885D01*
X0007667Y0089194D01*
X0008961Y0087900D01*
X0010652Y0087200D01*
X0017682Y0087200D01*
X0019372Y0087900D01*
X0020666Y0089194D01*
X0021367Y0090885D01*
X0021367Y0092715D01*
X0020666Y0094406D01*
X0021284Y0092915D02*
X0021367Y0092915D01*
X0021367Y0091317D02*
X0021367Y0091317D01*
X0021367Y0089718D02*
X0020883Y0089718D01*
X0021367Y0088120D02*
X0019592Y0088120D01*
X0021367Y0086521D02*
X0006167Y0086521D01*
X0006167Y0084923D02*
X0008184Y0084923D01*
X0007667Y0084406D02*
X0006967Y0082715D01*
X0006967Y0080885D01*
X0007667Y0079194D01*
X0008961Y0077900D01*
X0010652Y0077200D01*
X0017682Y0077200D01*
X0019372Y0077900D01*
X0020666Y0079194D01*
X0021367Y0080885D01*
X0021367Y0082715D01*
X0020666Y0084406D01*
X0019372Y0085700D01*
X0017682Y0086400D01*
X0010652Y0086400D01*
X0008961Y0085700D01*
X0007667Y0084406D01*
X0007219Y0083324D02*
X0006167Y0083324D01*
X0006167Y0081726D02*
X0006967Y0081726D01*
X0007281Y0080127D02*
X0006167Y0080127D01*
X0006167Y0078529D02*
X0008333Y0078529D01*
X0006167Y0076930D02*
X0020337Y0076930D01*
X0020001Y0078529D02*
X0021367Y0078529D01*
X0021367Y0080127D02*
X0021053Y0080127D01*
X0021367Y0081726D02*
X0021367Y0081726D01*
X0021367Y0083324D02*
X0021114Y0083324D01*
X0021367Y0084923D02*
X0020149Y0084923D01*
X0026967Y0083324D02*
X0036886Y0083324D01*
X0036886Y0081726D02*
X0026967Y0081726D01*
X0026967Y0080127D02*
X0037492Y0080127D01*
X0037867Y0078529D02*
X0026967Y0078529D01*
X0044167Y0077800D02*
X0044167Y0090800D01*
X0044667Y0091300D01*
X0034167Y0101800D01*
X0054167Y0101800D02*
X0089167Y0101800D01*
X0089167Y0100800D01*
X0077667Y0089300D01*
X0081039Y0083324D02*
X0081767Y0083324D01*
X0081767Y0081726D02*
X0079549Y0081726D01*
X0078060Y0080127D02*
X0081767Y0080127D01*
X0070667Y0076300D02*
X0070167Y0076300D01*
X0069167Y0077300D01*
X0070667Y0076300D02*
X0091167Y0098300D01*
X0094167Y0098300D01*
X0102667Y0106800D01*
X0114167Y0106800D01*
X0109167Y0116800D02*
X0104167Y0111800D01*
X0076667Y0111800D01*
X0076167Y0112300D01*
X0063701Y0115294D02*
X0057948Y0115294D01*
X0046808Y0144068D02*
X0031667Y0144068D01*
X0031728Y0145666D02*
X0045567Y0145666D01*
X0045567Y0147265D02*
X0031967Y0147265D01*
X0031967Y0148863D02*
X0046139Y0148863D01*
X0054167Y0151800D02*
X0032167Y0151800D01*
X0033667Y0153300D01*
X0029167Y0146800D02*
X0029167Y0161300D01*
X0027667Y0162800D01*
X0027667Y0164300D01*
X0020867Y0158454D02*
X0019926Y0158454D01*
X0020867Y0156856D02*
X0006167Y0156856D01*
X0006167Y0158454D02*
X0008407Y0158454D01*
X0007311Y0160053D02*
X0006167Y0160053D01*
X0006167Y0161651D02*
X0006967Y0161651D01*
X0007188Y0163250D02*
X0006167Y0163250D01*
X0006167Y0164848D02*
X0008109Y0164848D01*
X0006167Y0166447D02*
X0016367Y0166447D01*
X0008816Y0168045D02*
X0006167Y0168045D01*
X0006167Y0169644D02*
X0007481Y0169644D01*
X0006967Y0171242D02*
X0006167Y0171242D01*
X0006167Y0172841D02*
X0007019Y0172841D01*
X0007701Y0174439D02*
X0006167Y0174439D01*
X0006167Y0176038D02*
X0009777Y0176038D01*
X0010143Y0177636D02*
X0006167Y0177636D01*
X0006167Y0179235D02*
X0007992Y0179235D01*
X0007803Y0179494D02*
X0008211Y0178934D01*
X0008700Y0178444D01*
X0009261Y0178037D01*
X0009878Y0177722D01*
X0010536Y0177508D01*
X0011220Y0177400D01*
X0014167Y0177400D01*
X0014167Y0181800D01*
X0014167Y0181800D01*
X0014167Y0186200D01*
X0011220Y0186200D01*
X0010536Y0186092D01*
X0009878Y0185878D01*
X0009261Y0185563D01*
X0008700Y0185156D01*
X0008211Y0184666D01*
X0007803Y0184106D01*
X0007489Y0183489D01*
X0007275Y0182830D01*
X0007167Y0182146D01*
X0007167Y0181800D01*
X0007167Y0181454D01*
X0007275Y0180770D01*
X0007489Y0180111D01*
X0007803Y0179494D01*
X0007265Y0180833D02*
X0006167Y0180833D01*
X0007167Y0181800D02*
X0014167Y0181800D01*
X0014167Y0181800D01*
X0007167Y0181800D01*
X0007212Y0182432D02*
X0006167Y0182432D01*
X0006167Y0184030D02*
X0007765Y0184030D01*
X0006167Y0185629D02*
X0009389Y0185629D01*
X0010586Y0187227D02*
X0006167Y0187227D01*
X0006167Y0188826D02*
X0008035Y0188826D01*
X0007157Y0190424D02*
X0006167Y0190424D01*
X0006167Y0192023D02*
X0006967Y0192023D01*
X0007342Y0193621D02*
X0006167Y0193621D01*
X0006167Y0195220D02*
X0008481Y0195220D01*
X0006167Y0196818D02*
X0055386Y0196818D01*
X0055399Y0195220D02*
X0040838Y0195220D01*
X0042436Y0193621D02*
X0056998Y0193621D01*
X0060430Y0192023D02*
X0042767Y0192023D01*
X0042767Y0190424D02*
X0058831Y0190424D01*
X0061955Y0185629D02*
X0094036Y0185629D01*
X0095634Y0187227D02*
X0063554Y0187227D01*
X0065152Y0188826D02*
X0097233Y0188826D01*
X0098831Y0190424D02*
X0066628Y0190424D01*
X0066967Y0192023D02*
X0100430Y0192023D01*
X0101335Y0193621D02*
X0101367Y0193621D01*
X0099167Y0196800D02*
X0084167Y0196800D01*
X0080386Y0196818D02*
X0066967Y0196818D01*
X0066967Y0195220D02*
X0080399Y0195220D01*
X0081998Y0193621D02*
X0066967Y0193621D01*
X0066967Y0198417D02*
X0080436Y0198417D01*
X0082035Y0200015D02*
X0066967Y0200015D01*
X0066967Y0201614D02*
X0101367Y0201614D01*
X0101367Y0203212D02*
X0066967Y0203212D01*
X0066967Y0204811D02*
X0101367Y0204811D01*
X0101367Y0206409D02*
X0066967Y0206409D01*
X0066967Y0208008D02*
X0101367Y0208008D01*
X0106967Y0208008D02*
X0163783Y0208008D01*
X0164675Y0208900D02*
X0162567Y0206791D01*
X0162567Y0204600D01*
X0121458Y0204600D01*
X0120658Y0205400D01*
X0117675Y0205400D01*
X0116875Y0204600D01*
X0112610Y0204600D01*
X0111581Y0204174D01*
X0107988Y0200581D01*
X0106967Y0200581D01*
X0106967Y0210640D01*
X0110326Y0214000D01*
X0159724Y0214000D01*
X0160753Y0214426D01*
X0161540Y0215214D01*
X0166540Y0220214D01*
X0166967Y0221243D01*
X0166967Y0228909D01*
X0167675Y0228200D01*
X0170658Y0228200D01*
X0171758Y0229300D01*
X0184449Y0229300D01*
X0185735Y0229833D01*
X0185876Y0229973D01*
X0210202Y0254300D01*
X0213623Y0254300D01*
X0213623Y0252154D01*
X0214467Y0250117D01*
X0216027Y0248557D01*
X0218064Y0247713D01*
X0220269Y0247713D01*
X0222307Y0248557D01*
X0223866Y0250117D01*
X0224167Y0250842D01*
X0224467Y0250117D01*
X0226027Y0248557D01*
X0228064Y0247713D01*
X0230269Y0247713D01*
X0232307Y0248557D01*
X0233866Y0250117D01*
X0234167Y0250842D01*
X0234467Y0250117D01*
X0236027Y0248557D01*
X0238064Y0247713D01*
X0240269Y0247713D01*
X0242307Y0248557D01*
X0243866Y0250117D01*
X0244271Y0251095D01*
X0244597Y0250456D01*
X0245091Y0249776D01*
X0245686Y0249181D01*
X0246366Y0248687D01*
X0247116Y0248305D01*
X0247915Y0248045D01*
X0248746Y0247913D01*
X0248786Y0247913D01*
X0248786Y0256419D01*
X0249548Y0256419D01*
X0249548Y0247913D01*
X0249587Y0247913D01*
X0250418Y0248045D01*
X0251218Y0248305D01*
X0251967Y0248687D01*
X0252648Y0249181D01*
X0253242Y0249776D01*
X0253737Y0250456D01*
X0254062Y0251095D01*
X0254467Y0250117D01*
X0256027Y0248557D01*
X0258064Y0247713D01*
X0260269Y0247713D01*
X0261393Y0248179D01*
X0261793Y0247214D01*
X0263120Y0245887D01*
X0263064Y0245887D01*
X0261027Y0245043D01*
X0259467Y0243483D01*
X0259167Y0242758D01*
X0258866Y0243483D01*
X0257307Y0245043D01*
X0255269Y0245887D01*
X0253064Y0245887D01*
X0251027Y0245043D01*
X0249467Y0243483D01*
X0249167Y0242758D01*
X0248866Y0243483D01*
X0247307Y0245043D01*
X0245269Y0245887D01*
X0243064Y0245887D01*
X0241027Y0245043D01*
X0239467Y0243483D01*
X0239167Y0242758D01*
X0238866Y0243483D01*
X0237307Y0245043D01*
X0235269Y0245887D01*
X0233064Y0245887D01*
X0231027Y0245043D01*
X0229467Y0243483D01*
X0229167Y0242758D01*
X0228866Y0243483D01*
X0227307Y0245043D01*
X0225269Y0245887D01*
X0223064Y0245887D01*
X0221027Y0245043D01*
X0219467Y0243483D01*
X0219167Y0242758D01*
X0218866Y0243483D01*
X0217307Y0245043D01*
X0215269Y0245887D01*
X0213064Y0245887D01*
X0211027Y0245043D01*
X0209467Y0243483D01*
X0208623Y0241446D01*
X0208623Y0232154D01*
X0209467Y0230117D01*
X0211027Y0228557D01*
X0213064Y0227713D01*
X0215269Y0227713D01*
X0217307Y0228557D01*
X0218866Y0230117D01*
X0219167Y0230842D01*
X0219467Y0230117D01*
X0221027Y0228557D01*
X0223064Y0227713D01*
X0225269Y0227713D01*
X0227307Y0228557D01*
X0228866Y0230117D01*
X0229167Y0230842D01*
X0229467Y0230117D01*
X0231027Y0228557D01*
X0233064Y0227713D01*
X0235269Y0227713D01*
X0237307Y0228557D01*
X0238866Y0230117D01*
X0239167Y0230842D01*
X0239467Y0230117D01*
X0241027Y0228557D01*
X0243064Y0227713D01*
X0245269Y0227713D01*
X0247307Y0228557D01*
X0248866Y0230117D01*
X0249167Y0230842D01*
X0249467Y0230117D01*
X0251027Y0228557D01*
X0251990Y0228158D01*
X0243131Y0219300D01*
X0223669Y0219300D01*
X0222751Y0218919D01*
X0222047Y0218216D01*
X0217047Y0213216D01*
X0216667Y0212297D01*
X0216667Y0211836D01*
X0212631Y0207800D01*
X0207758Y0207800D01*
X0208267Y0208309D01*
X0208267Y0211291D01*
X0207167Y0212391D01*
X0207167Y0239709D01*
X0208267Y0240809D01*
X0208267Y0243791D01*
X0206158Y0245900D01*
X0203175Y0245900D01*
X0201067Y0243791D01*
X0201067Y0240809D01*
X0202167Y0239709D01*
X0202167Y0212391D01*
X0201067Y0211291D01*
X0201067Y0208309D01*
X0201576Y0207800D01*
X0168758Y0207800D01*
X0167658Y0208900D01*
X0164675Y0208900D01*
X0162567Y0206409D02*
X0106967Y0206409D01*
X0106967Y0204811D02*
X0117086Y0204811D01*
X0121247Y0204811D02*
X0162567Y0204811D01*
X0168550Y0208008D02*
X0201368Y0208008D01*
X0201067Y0209606D02*
X0106967Y0209606D01*
X0107531Y0211205D02*
X0201067Y0211205D01*
X0202167Y0212803D02*
X0109130Y0212803D01*
X0104407Y0216001D02*
X0101967Y0216001D01*
X0101967Y0217599D02*
X0106006Y0217599D01*
X0106911Y0219198D02*
X0107638Y0219198D01*
X0107948Y0220796D02*
X0131579Y0220796D01*
X0130567Y0222395D02*
X0107948Y0222395D01*
X0107321Y0223993D02*
X0130567Y0223993D01*
X0131367Y0225592D02*
X0106967Y0225592D01*
X0106967Y0227190D02*
X0134521Y0227190D01*
X0136120Y0228789D02*
X0106967Y0228789D01*
X0104167Y0221800D02*
X0104167Y0256800D01*
X0109167Y0261800D01*
X0145667Y0261800D01*
X0147667Y0263800D01*
X0149973Y0260759D02*
X0203590Y0260759D01*
X0205188Y0262357D02*
X0151448Y0262357D01*
X0151448Y0263956D02*
X0171664Y0263956D01*
X0172600Y0263019D02*
X0175733Y0263019D01*
X0177948Y0265234D01*
X0177948Y0268366D01*
X0175733Y0270581D01*
X0172600Y0270581D01*
X0170386Y0268366D01*
X0170386Y0265234D01*
X0172600Y0263019D01*
X0170386Y0265554D02*
X0167268Y0265554D01*
X0167948Y0267153D02*
X0170386Y0267153D01*
X0170771Y0268751D02*
X0167948Y0268751D01*
X0166964Y0270350D02*
X0172369Y0270350D01*
X0175964Y0270350D02*
X0213181Y0270350D01*
X0214780Y0271948D02*
X0006167Y0271948D01*
X0006167Y0270350D02*
X0063006Y0270350D01*
X0061530Y0268751D02*
X0006167Y0268751D01*
X0006167Y0267153D02*
X0059984Y0267153D01*
X0058386Y0265554D02*
X0006167Y0265554D01*
X0006167Y0263956D02*
X0056615Y0263956D01*
X0056367Y0262357D02*
X0006167Y0262357D01*
X0006167Y0260759D02*
X0056367Y0260759D01*
X0056367Y0259160D02*
X0006167Y0259160D01*
X0006167Y0257562D02*
X0056367Y0257562D01*
X0056367Y0255963D02*
X0006167Y0255963D01*
X0006167Y0254365D02*
X0028405Y0254365D01*
X0028719Y0254516D02*
X0027677Y0254014D01*
X0026697Y0253399D01*
X0025792Y0252677D01*
X0024974Y0251859D01*
X0024253Y0250955D01*
X0023638Y0249975D01*
X0023136Y0248933D01*
X0022754Y0247841D01*
X0022496Y0246713D01*
X0022392Y0245785D01*
X0031867Y0245785D01*
X0031867Y0255260D01*
X0030939Y0255155D01*
X0029811Y0254898D01*
X0028719Y0254516D01*
X0031867Y0254365D02*
X0033467Y0254365D01*
X0033467Y0255260D02*
X0034395Y0255155D01*
X0035523Y0254898D01*
X0036615Y0254516D01*
X0037657Y0254014D01*
X0038636Y0253399D01*
X0039541Y0252677D01*
X0040359Y0251859D01*
X0041080Y0250955D01*
X0041696Y0249975D01*
X0042198Y0248933D01*
X0042580Y0247841D01*
X0042837Y0246713D01*
X0042942Y0245785D01*
X0033467Y0245785D01*
X0033467Y0244185D01*
X0042942Y0244185D01*
X0042837Y0243257D01*
X0042580Y0242129D01*
X0042198Y0241037D01*
X0041696Y0239995D01*
X0041080Y0239015D01*
X0040359Y0238111D01*
X0039541Y0237293D01*
X0038636Y0236572D01*
X0037657Y0235956D01*
X0036615Y0235454D01*
X0035523Y0235072D01*
X0034395Y0234815D01*
X0033467Y0234710D01*
X0033467Y0244185D01*
X0031867Y0244185D01*
X0031867Y0234710D01*
X0030939Y0234815D01*
X0029811Y0235072D01*
X0028719Y0235454D01*
X0027677Y0235956D01*
X0026697Y0236572D01*
X0025792Y0237293D01*
X0024974Y0238111D01*
X0024253Y0239015D01*
X0023638Y0239995D01*
X0023136Y0241037D01*
X0022754Y0242129D01*
X0022496Y0243257D01*
X0022392Y0244185D01*
X0031867Y0244185D01*
X0031867Y0245785D01*
X0033467Y0245785D01*
X0033467Y0255260D01*
X0033467Y0252766D02*
X0031867Y0252766D01*
X0031867Y0251168D02*
X0033467Y0251168D01*
X0033467Y0249569D02*
X0031867Y0249569D01*
X0031867Y0247971D02*
X0033467Y0247971D01*
X0033467Y0246372D02*
X0031867Y0246372D01*
X0031867Y0244774D02*
X0006167Y0244774D01*
X0006167Y0246372D02*
X0022458Y0246372D01*
X0022799Y0247971D02*
X0006167Y0247971D01*
X0006167Y0249569D02*
X0023442Y0249569D01*
X0024423Y0251168D02*
X0006167Y0251168D01*
X0006167Y0252766D02*
X0025904Y0252766D01*
X0033467Y0244774D02*
X0056367Y0244774D01*
X0056367Y0246372D02*
X0042876Y0246372D01*
X0042534Y0247971D02*
X0056367Y0247971D01*
X0056367Y0249569D02*
X0041891Y0249569D01*
X0040910Y0251168D02*
X0056367Y0251168D01*
X0056367Y0252766D02*
X0039429Y0252766D01*
X0036928Y0254365D02*
X0056367Y0254365D01*
X0061967Y0254365D02*
X0101367Y0254365D01*
X0101367Y0255963D02*
X0061967Y0255963D01*
X0061967Y0257562D02*
X0101452Y0257562D01*
X0102567Y0259160D02*
X0061967Y0259160D01*
X0061967Y0260759D02*
X0104166Y0260759D01*
X0105764Y0262357D02*
X0062260Y0262357D01*
X0063858Y0263956D02*
X0107363Y0263956D01*
X0108888Y0257562D02*
X0200393Y0257562D01*
X0201991Y0259160D02*
X0146611Y0259160D01*
X0151845Y0249569D02*
X0106967Y0249569D01*
X0106967Y0247971D02*
X0146802Y0247971D01*
X0145203Y0246372D02*
X0106967Y0246372D01*
X0106967Y0244774D02*
X0143605Y0244774D01*
X0142030Y0243175D02*
X0106967Y0243175D01*
X0106967Y0241577D02*
X0141667Y0241577D01*
X0141667Y0239978D02*
X0106967Y0239978D01*
X0106967Y0238380D02*
X0141667Y0238380D01*
X0141494Y0225592D02*
X0146961Y0225592D01*
X0148438Y0223993D02*
X0138395Y0223993D01*
X0137767Y0222395D02*
X0150037Y0222395D01*
X0150567Y0220796D02*
X0136754Y0220796D01*
X0119167Y0201800D02*
X0199167Y0201800D01*
X0202948Y0201614D02*
X0240567Y0201614D01*
X0240567Y0201864D02*
X0240567Y0200309D01*
X0240576Y0200300D01*
X0213470Y0200300D01*
X0212184Y0199767D01*
X0207717Y0195300D01*
X0202948Y0195300D01*
X0202948Y0198366D01*
X0202014Y0199300D01*
X0202948Y0200234D01*
X0202948Y0202800D01*
X0214164Y0202800D01*
X0215083Y0203181D01*
X0221286Y0209384D01*
X0221667Y0210303D01*
X0221667Y0210764D01*
X0225202Y0214300D01*
X0231576Y0214300D01*
X0230567Y0213291D01*
X0230567Y0210309D01*
X0232675Y0208200D01*
X0234231Y0208200D01*
X0240567Y0201864D01*
X0239219Y0203212D02*
X0215115Y0203212D01*
X0216713Y0204811D02*
X0237620Y0204811D01*
X0236022Y0206409D02*
X0218312Y0206409D01*
X0219910Y0208008D02*
X0234423Y0208008D01*
X0231269Y0209606D02*
X0221378Y0209606D01*
X0222107Y0211205D02*
X0230567Y0211205D01*
X0230567Y0212803D02*
X0223706Y0212803D01*
X0219832Y0216001D02*
X0207167Y0216001D01*
X0207167Y0217599D02*
X0221430Y0217599D01*
X0223422Y0219198D02*
X0207167Y0219198D01*
X0207167Y0220796D02*
X0244627Y0220796D01*
X0246226Y0222395D02*
X0207167Y0222395D01*
X0207167Y0223993D02*
X0247824Y0223993D01*
X0249423Y0225592D02*
X0207167Y0225592D01*
X0207167Y0227190D02*
X0251021Y0227190D01*
X0250795Y0228789D02*
X0247538Y0228789D01*
X0248978Y0230387D02*
X0249355Y0230387D01*
X0240795Y0228789D02*
X0237538Y0228789D01*
X0238978Y0230387D02*
X0239355Y0230387D01*
X0239167Y0226800D02*
X0234167Y0221800D01*
X0230795Y0228789D02*
X0227538Y0228789D01*
X0228978Y0230387D02*
X0229355Y0230387D01*
X0220795Y0228789D02*
X0217538Y0228789D01*
X0218978Y0230387D02*
X0219355Y0230387D01*
X0210795Y0228789D02*
X0207167Y0228789D01*
X0207167Y0230387D02*
X0209355Y0230387D01*
X0208693Y0231986D02*
X0207167Y0231986D01*
X0207167Y0233584D02*
X0208623Y0233584D01*
X0208623Y0235183D02*
X0207167Y0235183D01*
X0207167Y0236781D02*
X0208623Y0236781D01*
X0208623Y0238380D02*
X0207167Y0238380D01*
X0207436Y0239978D02*
X0208623Y0239978D01*
X0208678Y0241577D02*
X0208267Y0241577D01*
X0208267Y0243175D02*
X0209340Y0243175D01*
X0210758Y0244774D02*
X0207284Y0244774D01*
X0208467Y0246257D02*
X0209570Y0245800D01*
X0210763Y0245800D01*
X0211866Y0246257D01*
X0212710Y0247101D01*
X0213167Y0248203D01*
X0213167Y0249397D01*
X0212710Y0250499D01*
X0211866Y0251343D01*
X0210763Y0251800D01*
X0209570Y0251800D01*
X0208467Y0251343D01*
X0207623Y0250499D01*
X0207167Y0249397D01*
X0207167Y0248203D01*
X0207623Y0247101D01*
X0208467Y0246257D01*
X0208352Y0246372D02*
X0202274Y0246372D01*
X0202049Y0244774D02*
X0200676Y0244774D01*
X0201067Y0243175D02*
X0199077Y0243175D01*
X0197479Y0241577D02*
X0201067Y0241577D01*
X0201897Y0239978D02*
X0195880Y0239978D01*
X0194282Y0238380D02*
X0202167Y0238380D01*
X0202167Y0236781D02*
X0192683Y0236781D01*
X0191085Y0235183D02*
X0202167Y0235183D01*
X0202167Y0233584D02*
X0189486Y0233584D01*
X0187888Y0231986D02*
X0202167Y0231986D01*
X0202167Y0230387D02*
X0186289Y0230387D01*
X0185876Y0229973D02*
X0185876Y0229973D01*
X0185735Y0229833D02*
X0185735Y0229833D01*
X0171246Y0228789D02*
X0202167Y0228789D01*
X0202167Y0227190D02*
X0166967Y0227190D01*
X0166967Y0225592D02*
X0202167Y0225592D01*
X0202167Y0223993D02*
X0166967Y0223993D01*
X0166967Y0222395D02*
X0202167Y0222395D01*
X0202167Y0220796D02*
X0166781Y0220796D01*
X0165524Y0219198D02*
X0202167Y0219198D01*
X0202167Y0217599D02*
X0163925Y0217599D01*
X0162327Y0216001D02*
X0202167Y0216001D01*
X0202167Y0214402D02*
X0160694Y0214402D01*
X0166967Y0228789D02*
X0167087Y0228789D01*
X0161367Y0235183D02*
X0160875Y0235183D01*
X0160226Y0236781D02*
X0157721Y0236781D01*
X0156240Y0238380D02*
X0156123Y0238380D01*
X0156489Y0249569D02*
X0166667Y0249569D01*
X0166667Y0251168D02*
X0106967Y0251168D01*
X0106967Y0252766D02*
X0166861Y0252766D01*
X0176670Y0263956D02*
X0206787Y0263956D01*
X0208386Y0265554D02*
X0177948Y0265554D01*
X0177948Y0267153D02*
X0209984Y0267153D01*
X0211583Y0268751D02*
X0177563Y0268751D01*
X0164167Y0267800D02*
X0064167Y0267800D01*
X0059167Y0262800D02*
X0059167Y0196800D01*
X0061335Y0193621D02*
X0061367Y0193621D01*
X0059797Y0184030D02*
X0084050Y0184030D01*
X0083386Y0182432D02*
X0057767Y0182432D01*
X0057767Y0180833D02*
X0083386Y0180833D01*
X0084367Y0179235D02*
X0056693Y0179235D01*
X0054167Y0181800D02*
X0049167Y0176800D01*
X0044167Y0181800D02*
X0034167Y0181800D01*
X0031641Y0179235D02*
X0026967Y0179235D01*
X0026967Y0177636D02*
X0035567Y0177636D01*
X0035567Y0176038D02*
X0026967Y0176038D01*
X0027160Y0180833D02*
X0030567Y0180833D01*
X0030567Y0182432D02*
X0028758Y0182432D01*
X0014167Y0182432D02*
X0014167Y0182432D01*
X0014167Y0184030D02*
X0014167Y0184030D01*
X0014167Y0185629D02*
X0014167Y0185629D01*
X0014167Y0180833D02*
X0014167Y0180833D01*
X0014167Y0179235D02*
X0014167Y0179235D01*
X0014167Y0177636D02*
X0014167Y0177636D01*
X0014167Y0197400D02*
X0011220Y0197400D01*
X0010536Y0197508D01*
X0009878Y0197722D01*
X0009261Y0198037D01*
X0008700Y0198444D01*
X0008211Y0198934D01*
X0007803Y0199494D01*
X0007489Y0200111D01*
X0007275Y0200770D01*
X0007167Y0201454D01*
X0007167Y0201800D01*
X0014167Y0201800D01*
X0014167Y0201800D01*
X0014167Y0206200D01*
X0011220Y0206200D01*
X0010536Y0206092D01*
X0009878Y0205878D01*
X0009261Y0205563D01*
X0008700Y0205156D01*
X0008211Y0204666D01*
X0007803Y0204106D01*
X0007489Y0203489D01*
X0007275Y0202830D01*
X0007167Y0202146D01*
X0007167Y0201800D01*
X0014167Y0201800D01*
X0014167Y0197400D01*
X0014167Y0198417D02*
X0014167Y0198417D01*
X0014167Y0200015D02*
X0014167Y0200015D01*
X0014167Y0201614D02*
X0014167Y0201614D01*
X0014167Y0201800D02*
X0014167Y0201800D01*
X0014167Y0203212D02*
X0014167Y0203212D01*
X0014167Y0204811D02*
X0014167Y0204811D01*
X0008355Y0204811D02*
X0006167Y0204811D01*
X0006167Y0203212D02*
X0007399Y0203212D01*
X0007167Y0201614D02*
X0006167Y0201614D01*
X0006167Y0200015D02*
X0007538Y0200015D01*
X0008737Y0198417D02*
X0006167Y0198417D01*
X0035325Y0211205D02*
X0056367Y0211205D01*
X0056367Y0212803D02*
X0038841Y0212803D01*
X0040555Y0214402D02*
X0056367Y0214402D01*
X0056367Y0216001D02*
X0041695Y0216001D01*
X0042528Y0217599D02*
X0056367Y0217599D01*
X0056367Y0219198D02*
X0042957Y0219198D01*
X0043167Y0220796D02*
X0056367Y0220796D01*
X0056367Y0222395D02*
X0043167Y0222395D01*
X0042832Y0223993D02*
X0056367Y0223993D01*
X0056367Y0225592D02*
X0042350Y0225592D01*
X0041427Y0227190D02*
X0056367Y0227190D01*
X0056367Y0228789D02*
X0040090Y0228789D01*
X0038036Y0230387D02*
X0056367Y0230387D01*
X0056367Y0235183D02*
X0035839Y0235183D01*
X0033467Y0235183D02*
X0031867Y0235183D01*
X0031867Y0236781D02*
X0033467Y0236781D01*
X0033467Y0238380D02*
X0031867Y0238380D01*
X0031867Y0239978D02*
X0033467Y0239978D01*
X0033467Y0241577D02*
X0031867Y0241577D01*
X0031867Y0243175D02*
X0033467Y0243175D01*
X0038899Y0236781D02*
X0056367Y0236781D01*
X0056367Y0238380D02*
X0040573Y0238380D01*
X0041685Y0239978D02*
X0056367Y0239978D01*
X0056367Y0241577D02*
X0042386Y0241577D01*
X0042818Y0243175D02*
X0056367Y0243175D01*
X0061967Y0243175D02*
X0071582Y0243175D01*
X0069984Y0241577D02*
X0061967Y0241577D01*
X0061967Y0239978D02*
X0068385Y0239978D01*
X0066787Y0238380D02*
X0061967Y0238380D01*
X0061967Y0236781D02*
X0065188Y0236781D01*
X0063590Y0235183D02*
X0061967Y0235183D01*
X0061967Y0233584D02*
X0061991Y0233584D01*
X0061967Y0244774D02*
X0073181Y0244774D01*
X0074779Y0246372D02*
X0061967Y0246372D01*
X0061967Y0247971D02*
X0076378Y0247971D01*
X0078536Y0249569D02*
X0061967Y0249569D01*
X0061967Y0251168D02*
X0101367Y0251168D01*
X0101367Y0252766D02*
X0061967Y0252766D01*
X0029495Y0235183D02*
X0024269Y0235183D01*
X0023813Y0236781D02*
X0026434Y0236781D01*
X0024760Y0238380D02*
X0023056Y0238380D01*
X0023648Y0239978D02*
X0021911Y0239978D01*
X0022947Y0241577D02*
X0020146Y0241577D01*
X0022515Y0243175D02*
X0016632Y0243175D01*
X0014963Y0243175D02*
X0013363Y0243175D01*
X0013363Y0241577D02*
X0014963Y0241577D01*
X0014963Y0239978D02*
X0013363Y0239978D01*
X0013363Y0238380D02*
X0014963Y0238380D01*
X0014963Y0236781D02*
X0013363Y0236781D01*
X0013363Y0235183D02*
X0014963Y0235183D01*
X0011693Y0243175D02*
X0006167Y0243175D01*
X0006167Y0241577D02*
X0008179Y0241577D01*
X0006415Y0239978D02*
X0006167Y0239978D01*
X0063948Y0171242D02*
X0084367Y0171242D01*
X0084367Y0169644D02*
X0062358Y0169644D01*
X0059372Y0168045D02*
X0084367Y0168045D01*
X0084367Y0166447D02*
X0057773Y0166447D01*
X0056967Y0164848D02*
X0084367Y0164848D01*
X0084367Y0163250D02*
X0056967Y0163250D01*
X0056967Y0161651D02*
X0084367Y0161651D01*
X0084367Y0160053D02*
X0056967Y0160053D01*
X0056967Y0158454D02*
X0084367Y0158454D01*
X0084367Y0156856D02*
X0056967Y0156856D01*
X0056967Y0155257D02*
X0084775Y0155257D01*
X0086348Y0153659D02*
X0056967Y0153659D01*
X0056967Y0152060D02*
X0087947Y0152060D01*
X0088386Y0150462D02*
X0056643Y0150462D01*
X0087167Y0156800D02*
X0092167Y0151800D01*
X0094057Y0155257D02*
X0096367Y0155257D01*
X0096367Y0153659D02*
X0095655Y0153659D01*
X0095151Y0156856D02*
X0091071Y0156856D01*
X0089967Y0158454D02*
X0093553Y0158454D01*
X0091954Y0160053D02*
X0089967Y0160053D01*
X0089967Y0161651D02*
X0091367Y0161651D01*
X0091367Y0163250D02*
X0089967Y0163250D01*
X0089967Y0164848D02*
X0091367Y0164848D01*
X0091367Y0166447D02*
X0089967Y0166447D01*
X0089967Y0168045D02*
X0091367Y0168045D01*
X0091367Y0169644D02*
X0089967Y0169644D01*
X0089967Y0171242D02*
X0091367Y0171242D01*
X0091367Y0172841D02*
X0089967Y0172841D01*
X0089967Y0174439D02*
X0091367Y0174439D01*
X0091367Y0176038D02*
X0089967Y0176038D01*
X0089967Y0177636D02*
X0091367Y0177636D01*
X0091367Y0179235D02*
X0089967Y0179235D01*
X0090948Y0180833D02*
X0091367Y0180833D01*
X0091398Y0182432D02*
X0090948Y0182432D01*
X0090284Y0184030D02*
X0092437Y0184030D01*
X0087167Y0181800D02*
X0087167Y0156800D01*
X0098275Y0161651D02*
X0098356Y0161651D01*
X0099874Y0160053D02*
X0099954Y0160053D01*
X0101472Y0158454D02*
X0101553Y0158454D01*
X0101967Y0156856D02*
X0103151Y0156856D01*
X0101967Y0155257D02*
X0104750Y0155257D01*
X0106348Y0153659D02*
X0101967Y0153659D01*
X0101967Y0152060D02*
X0107947Y0152060D01*
X0109545Y0150462D02*
X0101643Y0150462D01*
X0100189Y0148863D02*
X0111144Y0148863D01*
X0112742Y0147265D02*
X0098591Y0147265D01*
X0096992Y0145666D02*
X0113386Y0145666D01*
X0114552Y0144068D02*
X0094887Y0144068D01*
X0096166Y0140870D02*
X0092167Y0140870D01*
X0093766Y0139272D02*
X0094568Y0139272D01*
X0094167Y0137673D02*
X0094167Y0137673D01*
X0094167Y0136075D02*
X0094167Y0136075D01*
X0093914Y0134476D02*
X0094419Y0134476D01*
X0096018Y0132878D02*
X0092316Y0132878D01*
X0102316Y0132878D02*
X0106018Y0132878D01*
X0104419Y0134476D02*
X0103914Y0134476D01*
X0104167Y0136075D02*
X0104167Y0136075D01*
X0104167Y0137673D02*
X0104167Y0137673D01*
X0103766Y0139272D02*
X0104568Y0139272D01*
X0106166Y0140870D02*
X0102167Y0140870D01*
X0112167Y0140870D02*
X0116166Y0140870D01*
X0114568Y0139272D02*
X0113766Y0139272D01*
X0114167Y0137673D02*
X0114167Y0137673D01*
X0114167Y0136075D02*
X0114167Y0136075D01*
X0113914Y0134476D02*
X0114419Y0134476D01*
X0116018Y0132878D02*
X0112316Y0132878D01*
X0122316Y0132878D02*
X0122397Y0132878D01*
X0117167Y0146800D02*
X0097167Y0166800D01*
X0097167Y0175800D01*
X0098167Y0176800D01*
X0099167Y0176800D01*
X0109167Y0186800D01*
X0109167Y0195800D01*
X0108167Y0196800D01*
X0113167Y0201800D01*
X0119167Y0201800D01*
X0110619Y0203212D02*
X0106967Y0203212D01*
X0106967Y0201614D02*
X0109021Y0201614D01*
X0101367Y0200015D02*
X0101299Y0200015D01*
X0097035Y0200015D02*
X0086299Y0200015D01*
X0086335Y0193621D02*
X0096998Y0193621D01*
X0101967Y0214402D02*
X0102809Y0214402D01*
X0106875Y0174439D02*
X0176367Y0174439D01*
X0176367Y0172841D02*
X0107948Y0172841D01*
X0108684Y0171242D02*
X0176367Y0171242D01*
X0176367Y0169644D02*
X0110283Y0169644D01*
X0111881Y0168045D02*
X0176367Y0168045D01*
X0176367Y0166447D02*
X0113480Y0166447D01*
X0115078Y0164848D02*
X0176367Y0164848D01*
X0176367Y0163250D02*
X0116677Y0163250D01*
X0118275Y0161651D02*
X0176367Y0161651D01*
X0176367Y0160053D02*
X0119874Y0160053D01*
X0119167Y0156800D02*
X0136167Y0156800D01*
X0119167Y0156800D02*
X0104167Y0171800D01*
X0100567Y0168045D02*
X0099967Y0168045D01*
X0104167Y0121800D02*
X0094167Y0121800D01*
X0106834Y0084923D02*
X0201942Y0084923D01*
X0201567Y0100908D02*
X0236767Y0100908D01*
X0236822Y0102506D02*
X0201512Y0102506D01*
X0200850Y0104105D02*
X0237484Y0104105D01*
X0238826Y0105703D02*
X0199507Y0105703D01*
X0182767Y0123287D02*
X0292088Y0123287D01*
X0292088Y0124885D02*
X0181967Y0124885D01*
X0181967Y0126484D02*
X0292088Y0126484D01*
X0292088Y0128082D02*
X0181967Y0128082D01*
X0181967Y0129681D02*
X0292088Y0129681D01*
X0292088Y0131279D02*
X0181967Y0131279D01*
X0181967Y0132878D02*
X0292088Y0132878D01*
X0292088Y0134476D02*
X0282024Y0134476D01*
X0281821Y0134274D02*
X0283376Y0135828D01*
X0284217Y0137858D01*
X0284217Y0140056D01*
X0283376Y0142087D01*
X0281821Y0143641D01*
X0279791Y0144482D01*
X0270543Y0144482D01*
X0268512Y0143641D01*
X0266958Y0142087D01*
X0266117Y0140056D01*
X0266117Y0137858D01*
X0266958Y0135828D01*
X0268512Y0134274D01*
X0270543Y0133432D01*
X0279791Y0133432D01*
X0281821Y0134274D01*
X0283478Y0136075D02*
X0292088Y0136075D01*
X0292088Y0137673D02*
X0284140Y0137673D01*
X0284217Y0139272D02*
X0292088Y0139272D01*
X0292088Y0140870D02*
X0283879Y0140870D01*
X0282994Y0142469D02*
X0292088Y0142469D01*
X0292088Y0144068D02*
X0280792Y0144068D01*
X0281097Y0153659D02*
X0292088Y0153659D01*
X0292088Y0155257D02*
X0283120Y0155257D01*
X0283932Y0156856D02*
X0292088Y0156856D01*
X0292088Y0158454D02*
X0284217Y0158454D01*
X0284088Y0160053D02*
X0292088Y0160053D01*
X0292088Y0161651D02*
X0283426Y0161651D01*
X0281898Y0163250D02*
X0292088Y0163250D01*
X0292088Y0164848D02*
X0272921Y0164848D01*
X0271322Y0166447D02*
X0292088Y0166447D01*
X0292088Y0168045D02*
X0269724Y0168045D01*
X0268125Y0169644D02*
X0292088Y0169644D01*
X0292088Y0171242D02*
X0266527Y0171242D01*
X0264928Y0172841D02*
X0292088Y0172841D01*
X0292088Y0174439D02*
X0281987Y0174439D01*
X0283462Y0176038D02*
X0292088Y0176038D01*
X0292088Y0177636D02*
X0284125Y0177636D01*
X0284217Y0179235D02*
X0292088Y0179235D01*
X0292088Y0180833D02*
X0283895Y0180833D01*
X0283031Y0182432D02*
X0292088Y0182432D01*
X0292088Y0184030D02*
X0280882Y0184030D01*
X0272767Y0185629D02*
X0292088Y0185629D01*
X0292088Y0187227D02*
X0272767Y0187227D01*
X0272232Y0188826D02*
X0292088Y0188826D01*
X0292088Y0190424D02*
X0269502Y0190424D01*
X0267904Y0192023D02*
X0292088Y0192023D01*
X0292088Y0193621D02*
X0281007Y0193621D01*
X0283083Y0195220D02*
X0292088Y0195220D01*
X0292088Y0196818D02*
X0283916Y0196818D01*
X0284217Y0198417D02*
X0292088Y0198417D01*
X0292088Y0200015D02*
X0284103Y0200015D01*
X0283441Y0201614D02*
X0292088Y0201614D01*
X0292088Y0203212D02*
X0281935Y0203212D01*
X0275167Y0198643D02*
X0269167Y0204643D01*
X0271360Y0206409D02*
X0292088Y0206409D01*
X0292088Y0204811D02*
X0272958Y0204811D01*
X0269337Y0208008D02*
X0292088Y0208008D01*
X0292088Y0209606D02*
X0267738Y0209606D01*
X0266140Y0211205D02*
X0292088Y0211205D01*
X0292088Y0212803D02*
X0264541Y0212803D01*
X0262266Y0208008D02*
X0257767Y0208008D01*
X0262648Y0206409D02*
X0263864Y0206409D01*
X0263767Y0204811D02*
X0265463Y0204811D01*
X0266728Y0203212D02*
X0263767Y0203212D01*
X0263072Y0201614D02*
X0266892Y0201614D01*
X0266230Y0200015D02*
X0261967Y0200015D01*
X0261967Y0198417D02*
X0266117Y0198417D01*
X0266417Y0196818D02*
X0263108Y0196818D01*
X0264707Y0195220D02*
X0267251Y0195220D01*
X0266305Y0193621D02*
X0269326Y0193621D01*
X0263181Y0188826D02*
X0256967Y0188826D01*
X0256967Y0190424D02*
X0261583Y0190424D01*
X0259984Y0192023D02*
X0256967Y0192023D01*
X0256967Y0193621D02*
X0258385Y0193621D01*
X0259167Y0196800D02*
X0259167Y0202800D01*
X0260167Y0203800D01*
X0251167Y0203800D01*
X0249167Y0201800D01*
X0254167Y0196800D02*
X0254167Y0186800D01*
X0259167Y0181800D01*
X0259167Y0174643D01*
X0275167Y0158643D01*
X0269236Y0153659D02*
X0246552Y0153659D01*
X0246009Y0154202D02*
X0247668Y0152542D01*
X0248567Y0150374D01*
X0248567Y0140226D01*
X0247668Y0138058D01*
X0246009Y0136398D01*
X0243840Y0135500D01*
X0241493Y0135500D01*
X0239325Y0136398D01*
X0237665Y0138058D01*
X0236767Y0140226D01*
X0236767Y0150374D01*
X0237665Y0152542D01*
X0239325Y0154202D01*
X0241493Y0155100D01*
X0243840Y0155100D01*
X0246009Y0154202D01*
X0247868Y0152060D02*
X0292088Y0152060D01*
X0292088Y0150462D02*
X0248530Y0150462D01*
X0248567Y0148863D02*
X0292088Y0148863D01*
X0292088Y0147265D02*
X0248567Y0147265D01*
X0248567Y0145666D02*
X0292088Y0145666D01*
X0269541Y0144068D02*
X0248567Y0144068D01*
X0248567Y0142469D02*
X0267340Y0142469D01*
X0266454Y0140870D02*
X0248567Y0140870D01*
X0248171Y0139272D02*
X0266117Y0139272D01*
X0266193Y0137673D02*
X0247284Y0137673D01*
X0245228Y0136075D02*
X0266855Y0136075D01*
X0268309Y0134476D02*
X0181967Y0134476D01*
X0181967Y0136075D02*
X0193105Y0136075D01*
X0192325Y0136398D02*
X0194493Y0135500D01*
X0196840Y0135500D01*
X0199009Y0136398D01*
X0200668Y0138058D01*
X0201567Y0140226D01*
X0201567Y0150374D01*
X0200668Y0152542D01*
X0199009Y0154202D01*
X0196840Y0155100D01*
X0194493Y0155100D01*
X0192325Y0154202D01*
X0190665Y0152542D01*
X0189767Y0150374D01*
X0189767Y0140226D01*
X0190665Y0138058D01*
X0192325Y0136398D01*
X0191049Y0137673D02*
X0181967Y0137673D01*
X0181967Y0139272D02*
X0190162Y0139272D01*
X0189767Y0140870D02*
X0181967Y0140870D01*
X0181967Y0142469D02*
X0189767Y0142469D01*
X0189767Y0144068D02*
X0181967Y0144068D01*
X0181967Y0145666D02*
X0189767Y0145666D01*
X0189767Y0147265D02*
X0181967Y0147265D01*
X0181967Y0148863D02*
X0189767Y0148863D01*
X0189803Y0150462D02*
X0181967Y0150462D01*
X0181967Y0152060D02*
X0190465Y0152060D01*
X0191781Y0153659D02*
X0181967Y0153659D01*
X0181967Y0155257D02*
X0267214Y0155257D01*
X0266402Y0156856D02*
X0181967Y0156856D01*
X0181967Y0158454D02*
X0266117Y0158454D01*
X0266246Y0160053D02*
X0181967Y0160053D01*
X0181967Y0161651D02*
X0266908Y0161651D01*
X0266600Y0163250D02*
X0181967Y0163250D01*
X0181967Y0164848D02*
X0265001Y0164848D01*
X0263403Y0166447D02*
X0181967Y0166447D01*
X0181967Y0168045D02*
X0261804Y0168045D01*
X0260206Y0169644D02*
X0181967Y0169644D01*
X0181967Y0171242D02*
X0258607Y0171242D01*
X0257009Y0172841D02*
X0181967Y0172841D01*
X0181967Y0174439D02*
X0256367Y0174439D01*
X0256367Y0176038D02*
X0181967Y0176038D01*
X0181967Y0177636D02*
X0256367Y0177636D01*
X0256367Y0179235D02*
X0181967Y0179235D01*
X0181967Y0180833D02*
X0256174Y0180833D01*
X0254575Y0182432D02*
X0181967Y0182432D01*
X0181967Y0184030D02*
X0226845Y0184030D01*
X0225567Y0185629D02*
X0181967Y0185629D01*
X0183554Y0187227D02*
X0225567Y0187227D01*
X0226101Y0188826D02*
X0211132Y0188826D01*
X0212741Y0190424D02*
X0244255Y0190424D01*
X0245567Y0192023D02*
X0214339Y0192023D01*
X0219167Y0191800D02*
X0219167Y0186800D01*
X0209167Y0176800D01*
X0197050Y0188826D02*
X0185152Y0188826D01*
X0202948Y0196818D02*
X0209235Y0196818D01*
X0210834Y0198417D02*
X0202897Y0198417D01*
X0202729Y0200015D02*
X0212783Y0200015D01*
X0212839Y0208008D02*
X0207966Y0208008D01*
X0208267Y0209606D02*
X0214438Y0209606D01*
X0216036Y0211205D02*
X0208267Y0211205D01*
X0207167Y0212803D02*
X0216876Y0212803D01*
X0218233Y0214402D02*
X0207167Y0214402D01*
X0218994Y0243175D02*
X0219340Y0243175D01*
X0220758Y0244774D02*
X0217576Y0244774D01*
X0217443Y0247971D02*
X0213070Y0247971D01*
X0213095Y0249569D02*
X0215015Y0249569D01*
X0214032Y0251168D02*
X0212042Y0251168D01*
X0213623Y0252766D02*
X0208668Y0252766D01*
X0208292Y0251168D02*
X0207070Y0251168D01*
X0207238Y0249569D02*
X0205471Y0249569D01*
X0203873Y0247971D02*
X0207263Y0247971D01*
X0211982Y0246372D02*
X0262635Y0246372D01*
X0261479Y0247971D02*
X0260891Y0247971D01*
X0260758Y0244774D02*
X0257576Y0244774D01*
X0258994Y0243175D02*
X0259340Y0243175D01*
X0257443Y0247971D02*
X0249949Y0247971D01*
X0249548Y0247971D02*
X0248786Y0247971D01*
X0248384Y0247971D02*
X0240891Y0247971D01*
X0243319Y0249569D02*
X0245298Y0249569D01*
X0248786Y0249569D02*
X0249548Y0249569D01*
X0249548Y0251168D02*
X0248786Y0251168D01*
X0248786Y0252766D02*
X0249548Y0252766D01*
X0249548Y0254365D02*
X0248786Y0254365D01*
X0248786Y0255963D02*
X0249548Y0255963D01*
X0253036Y0249569D02*
X0255015Y0249569D01*
X0250758Y0244774D02*
X0247576Y0244774D01*
X0248994Y0243175D02*
X0249340Y0243175D01*
X0240758Y0244774D02*
X0237576Y0244774D01*
X0238994Y0243175D02*
X0239340Y0243175D01*
X0237443Y0247971D02*
X0230891Y0247971D01*
X0233319Y0249569D02*
X0235015Y0249569D01*
X0230758Y0244774D02*
X0227576Y0244774D01*
X0228994Y0243175D02*
X0229340Y0243175D01*
X0227443Y0247971D02*
X0220891Y0247971D01*
X0223319Y0249569D02*
X0225015Y0249569D01*
X0224167Y0266800D02*
X0262167Y0266800D01*
X0264167Y0264800D01*
X0266885Y0265554D02*
X0267262Y0265554D01*
X0265774Y0267153D02*
X0292088Y0267153D01*
X0292088Y0268751D02*
X0264175Y0268751D01*
X0271071Y0265554D02*
X0277262Y0265554D01*
X0274940Y0263956D02*
X0273394Y0263956D01*
X0281071Y0265554D02*
X0292088Y0265554D01*
X0292088Y0263956D02*
X0283394Y0263956D01*
X0284332Y0262357D02*
X0292088Y0262357D01*
X0292088Y0260759D02*
X0284710Y0260759D01*
X0284710Y0259160D02*
X0292088Y0259160D01*
X0292088Y0257562D02*
X0284710Y0257562D01*
X0284710Y0255963D02*
X0292088Y0255963D01*
X0292088Y0254365D02*
X0284710Y0254365D01*
X0284710Y0252766D02*
X0288489Y0252766D01*
X0289845Y0252766D02*
X0292088Y0252766D01*
X0292088Y0251168D02*
X0291847Y0251168D01*
X0292088Y0247971D02*
X0291580Y0247971D01*
X0292088Y0246372D02*
X0276774Y0246372D01*
X0277576Y0244774D02*
X0280758Y0244774D01*
X0279340Y0243175D02*
X0278994Y0243175D01*
X0280891Y0247971D02*
X0286753Y0247971D01*
X0286167Y0249569D02*
X0283319Y0249569D01*
X0284301Y0251168D02*
X0286486Y0251168D01*
X0287576Y0244774D02*
X0292088Y0244774D01*
X0292088Y0243175D02*
X0288994Y0243175D01*
X0289656Y0241577D02*
X0292088Y0241577D01*
X0292088Y0239978D02*
X0289710Y0239978D01*
X0289710Y0238380D02*
X0292088Y0238380D01*
X0292088Y0236781D02*
X0289710Y0236781D01*
X0289710Y0235183D02*
X0292088Y0235183D01*
X0292088Y0233584D02*
X0289710Y0233584D01*
X0289640Y0231986D02*
X0292088Y0231986D01*
X0292088Y0230387D02*
X0288978Y0230387D01*
X0287538Y0228789D02*
X0292088Y0228789D01*
X0292088Y0227190D02*
X0283092Y0227190D01*
X0281494Y0225592D02*
X0292088Y0225592D01*
X0292088Y0223993D02*
X0279895Y0223993D01*
X0278297Y0222395D02*
X0292088Y0222395D01*
X0292088Y0220796D02*
X0276698Y0220796D01*
X0275100Y0219198D02*
X0292088Y0219198D01*
X0292088Y0217599D02*
X0273501Y0217599D01*
X0271903Y0216001D02*
X0292088Y0216001D01*
X0292088Y0214402D02*
X0269910Y0214402D01*
X0259167Y0196800D02*
X0269167Y0186800D01*
X0266845Y0184030D02*
X0260896Y0184030D01*
X0261936Y0182432D02*
X0267302Y0182432D01*
X0266438Y0180833D02*
X0261967Y0180833D01*
X0261967Y0179235D02*
X0266117Y0179235D01*
X0266209Y0177636D02*
X0261967Y0177636D01*
X0261967Y0176038D02*
X0266871Y0176038D01*
X0268346Y0174439D02*
X0263330Y0174439D01*
X0252977Y0184030D02*
X0231488Y0184030D01*
X0246531Y0185629D02*
X0251621Y0185629D01*
X0251367Y0187227D02*
X0248130Y0187227D01*
X0251284Y0188826D02*
X0251367Y0188826D01*
X0257699Y0187227D02*
X0264780Y0187227D01*
X0265567Y0185629D02*
X0259298Y0185629D01*
X0238781Y0153659D02*
X0199552Y0153659D01*
X0200868Y0152060D02*
X0237465Y0152060D01*
X0236803Y0150462D02*
X0201530Y0150462D01*
X0201567Y0148863D02*
X0236767Y0148863D01*
X0236767Y0147265D02*
X0201567Y0147265D01*
X0201567Y0145666D02*
X0236767Y0145666D01*
X0236767Y0144068D02*
X0201567Y0144068D01*
X0201567Y0142469D02*
X0236767Y0142469D01*
X0236767Y0140870D02*
X0201567Y0140870D01*
X0201171Y0139272D02*
X0237162Y0139272D01*
X0238049Y0137673D02*
X0200284Y0137673D01*
X0198228Y0136075D02*
X0240105Y0136075D01*
X0248512Y0102506D02*
X0292088Y0102506D01*
X0292088Y0100908D02*
X0248567Y0100908D01*
X0248567Y0099309D02*
X0292088Y0099309D01*
X0292088Y0097711D02*
X0276775Y0097711D01*
X0279085Y0096112D02*
X0292088Y0096112D01*
X0292088Y0094514D02*
X0280218Y0094514D01*
X0280880Y0092915D02*
X0292088Y0092915D01*
X0292088Y0091317D02*
X0280917Y0091317D01*
X0280741Y0089718D02*
X0292088Y0089718D01*
X0292088Y0088120D02*
X0280079Y0088120D01*
X0278749Y0086521D02*
X0292088Y0086521D01*
X0292088Y0084923D02*
X0275962Y0084923D01*
X0268255Y0088120D02*
X0245336Y0088120D01*
X0247329Y0089718D02*
X0267592Y0089718D01*
X0267417Y0091317D02*
X0248190Y0091317D01*
X0248567Y0092915D02*
X0267453Y0092915D01*
X0268115Y0094514D02*
X0248567Y0094514D01*
X0248567Y0096112D02*
X0269248Y0096112D01*
X0271558Y0097711D02*
X0248567Y0097711D01*
X0209167Y0066800D02*
X0209167Y0041800D01*
X0206367Y0041763D02*
X0155164Y0041763D01*
X0156762Y0040164D02*
X0206843Y0040164D01*
X0206367Y0043361D02*
X0153565Y0043361D01*
X0152916Y0044960D02*
X0151967Y0044960D01*
X0151567Y0046558D02*
X0150948Y0046558D01*
X0150850Y0048157D02*
X0150157Y0048157D01*
X0147167Y0045800D02*
X0156167Y0036800D01*
X0169167Y0036800D01*
X0179353Y0030573D02*
X0216858Y0030573D01*
X0218456Y0028975D02*
X0180226Y0028975D01*
X0180226Y0027376D02*
X0219926Y0027376D01*
X0219926Y0025778D02*
X0180226Y0025778D01*
X0180226Y0024179D02*
X0219926Y0024179D01*
X0219926Y0022581D02*
X0209669Y0022581D01*
X0212249Y0020982D02*
X0218123Y0020982D01*
X0217002Y0019384D02*
X0213370Y0019384D01*
X0213946Y0017785D02*
X0216426Y0017785D01*
X0216426Y0016187D02*
X0213946Y0016187D01*
X0213524Y0014588D02*
X0216848Y0014588D01*
X0217751Y0012990D02*
X0212621Y0012990D01*
X0210567Y0011391D02*
X0219805Y0011391D01*
X0225046Y0011391D02*
X0229114Y0011391D01*
X0205326Y0011391D02*
X0198603Y0011391D01*
X0199267Y0012990D02*
X0203271Y0012990D01*
X0202368Y0014588D02*
X0199267Y0014588D01*
X0199267Y0016187D02*
X0201946Y0016187D01*
X0201946Y0017785D02*
X0199267Y0017785D01*
X0199267Y0019384D02*
X0202522Y0019384D01*
X0203643Y0020982D02*
X0199267Y0020982D01*
X0197776Y0022581D02*
X0206223Y0022581D01*
X0193848Y0022581D02*
X0193086Y0022581D01*
X0193086Y0020982D02*
X0193848Y0020982D01*
X0193848Y0019384D02*
X0193086Y0019384D01*
X0193086Y0017785D02*
X0193848Y0017785D01*
X0187667Y0017785D02*
X0183426Y0017785D01*
X0183426Y0016187D02*
X0187667Y0016187D01*
X0187667Y0014588D02*
X0183004Y0014588D01*
X0182101Y0012990D02*
X0187667Y0012990D01*
X0188330Y0011391D02*
X0180046Y0011391D01*
X0174805Y0011391D02*
X0165567Y0011391D01*
X0167621Y0012990D02*
X0172751Y0012990D01*
X0182850Y0019384D02*
X0187667Y0019384D01*
X0187667Y0020982D02*
X0181729Y0020982D01*
X0180226Y0022581D02*
X0189157Y0022581D01*
X0161223Y0022581D02*
X0152776Y0022581D01*
X0154267Y0020982D02*
X0158643Y0020982D01*
X0157522Y0019384D02*
X0154267Y0019384D01*
X0154267Y0017785D02*
X0156946Y0017785D01*
X0156946Y0016187D02*
X0154267Y0016187D01*
X0154267Y0014588D02*
X0157368Y0014588D01*
X0158271Y0012990D02*
X0154267Y0012990D01*
X0153603Y0011391D02*
X0160326Y0011391D01*
X0148848Y0017785D02*
X0148086Y0017785D01*
X0148086Y0019384D02*
X0148848Y0019384D01*
X0148848Y0020982D02*
X0148086Y0020982D01*
X0148086Y0022581D02*
X0148848Y0022581D01*
X0144157Y0022581D02*
X0133004Y0022581D01*
X0136446Y0020982D02*
X0142667Y0020982D01*
X0142667Y0019384D02*
X0137619Y0019384D01*
X0138142Y0017785D02*
X0142667Y0017785D01*
X0142667Y0016187D02*
X0138201Y0016187D01*
X0137805Y0014588D02*
X0142667Y0014588D01*
X0142667Y0012990D02*
X0136818Y0012990D01*
X0134548Y0011391D02*
X0143330Y0011391D01*
X0092047Y0044960D02*
X0071286Y0044960D01*
X0072885Y0046558D02*
X0086061Y0046558D01*
X0085386Y0048157D02*
X0074483Y0048157D01*
X0074667Y0052300D02*
X0085667Y0052300D01*
X0089167Y0048800D01*
X0089167Y0056800D02*
X0061667Y0056800D01*
X0061667Y0059300D01*
X0057167Y0063800D01*
X0069167Y0046800D02*
X0044167Y0046800D01*
X0040667Y0050300D01*
X0069167Y0046800D02*
X0074667Y0052300D01*
X0102967Y0078529D02*
X0120804Y0078529D01*
X0122403Y0080127D02*
X0102967Y0080127D01*
X0104052Y0081726D02*
X0160132Y0081726D01*
X0161731Y0083324D02*
X0105651Y0083324D01*
X0125931Y0080127D02*
X0158534Y0080127D01*
X0163256Y0076930D02*
X0175077Y0076930D01*
X0176675Y0075332D02*
X0161658Y0075332D01*
X0164855Y0078529D02*
X0173478Y0078529D01*
X0174167Y0081800D02*
X0189167Y0066800D01*
X0209167Y0066800D01*
X0178274Y0073733D02*
X0126191Y0073733D01*
X0021367Y0140870D02*
X0021361Y0140870D01*
X0021367Y0142469D02*
X0021367Y0142469D01*
X0021367Y0144068D02*
X0020806Y0144068D01*
X0020386Y0145666D02*
X0019406Y0145666D01*
X0020386Y0147265D02*
X0017837Y0147265D01*
X0020335Y0148863D02*
X0020867Y0148863D01*
X0020867Y0155257D02*
X0019815Y0155257D01*
X0010496Y0147265D02*
X0006167Y0147265D01*
X0006167Y0148863D02*
X0007998Y0148863D01*
X0007142Y0150462D02*
X0006167Y0150462D01*
X0006167Y0152060D02*
X0006967Y0152060D01*
X0007358Y0153659D02*
X0006167Y0153659D01*
X0006167Y0155257D02*
X0008518Y0155257D01*
X0008927Y0145666D02*
X0006167Y0145666D01*
X0006167Y0144068D02*
X0007527Y0144068D01*
X0006967Y0142469D02*
X0006167Y0142469D01*
X0006167Y0140870D02*
X0006973Y0140870D01*
X0007635Y0139272D02*
X0006167Y0139272D01*
X0006167Y0137673D02*
X0009509Y0137673D01*
X0009867Y0136075D02*
X0006167Y0136075D01*
X0006167Y0134476D02*
X0007738Y0134476D01*
X0007034Y0132878D02*
X0006167Y0132878D01*
X0006167Y0131279D02*
X0006967Y0131279D01*
X0007465Y0129681D02*
X0006167Y0129681D01*
X0006167Y0128082D02*
X0008779Y0128082D01*
X0008556Y0115294D02*
X0006167Y0115294D01*
X0006167Y0113696D02*
X0007373Y0113696D01*
X0006967Y0112097D02*
X0006167Y0112097D01*
X0006167Y0110499D02*
X0007127Y0110499D01*
X0007961Y0108900D02*
X0006167Y0108900D01*
X0006167Y0107302D02*
X0010406Y0107302D01*
X0008970Y0105703D02*
X0006167Y0105703D01*
X0006167Y0104105D02*
X0007542Y0104105D01*
X0006967Y0102506D02*
X0006167Y0102506D01*
X0006167Y0100908D02*
X0006967Y0100908D01*
X0007619Y0099309D02*
X0006167Y0099309D01*
X0006167Y0097711D02*
X0009419Y0097711D01*
X0009957Y0096112D02*
X0006167Y0096112D01*
X0006167Y0094514D02*
X0007775Y0094514D01*
X0007050Y0092915D02*
X0006167Y0092915D01*
X0006167Y0091317D02*
X0006967Y0091317D01*
X0007450Y0089718D02*
X0006167Y0089718D01*
X0006167Y0088120D02*
X0008742Y0088120D01*
X0008593Y0075332D02*
X0006167Y0075332D01*
X0006167Y0073733D02*
X0007388Y0073733D01*
X0006967Y0072134D02*
X0006167Y0072134D01*
X0006167Y0070536D02*
X0007111Y0070536D01*
X0007924Y0068937D02*
X0006167Y0068937D01*
X0006167Y0067339D02*
X0010316Y0067339D01*
X0009059Y0065740D02*
X0006167Y0065740D01*
X0006167Y0064142D02*
X0007558Y0064142D01*
X0006967Y0062543D02*
X0006167Y0062543D01*
X0006167Y0060945D02*
X0006967Y0060945D01*
X0007604Y0059346D02*
X0006167Y0059346D01*
X0006167Y0057748D02*
X0009329Y0057748D01*
X0106967Y0254365D02*
X0197196Y0254365D01*
X0198794Y0255963D02*
X0107290Y0255963D01*
X0240767Y0270350D02*
X0292088Y0270350D01*
X0292088Y0271948D02*
X0240767Y0271948D01*
X0264167Y0248800D02*
X0266167Y0246800D01*
X0269167Y0246800D01*
X0267807Y0020982D02*
X0267045Y0020982D01*
X0267045Y0019384D02*
X0267807Y0019384D01*
X0267807Y0017785D02*
X0267045Y0017785D01*
X0267045Y0016187D02*
X0267807Y0016187D01*
X0267807Y0014588D02*
X0267045Y0014588D01*
X0267045Y0012990D02*
X0267807Y0012990D01*
X0263034Y0012990D02*
X0257621Y0012990D01*
X0258524Y0014588D02*
X0262046Y0014588D01*
X0261651Y0016187D02*
X0258946Y0016187D01*
X0258946Y0017785D02*
X0261709Y0017785D01*
X0262233Y0019384D02*
X0258370Y0019384D01*
X0257249Y0020982D02*
X0263405Y0020982D01*
D23*
X0249167Y0066800D03*
X0219167Y0066800D03*
X0179167Y0121800D03*
X0149167Y0096800D03*
X0124167Y0076800D03*
X0144167Y0061800D03*
X0149167Y0057800D03*
X0154167Y0061800D03*
X0155167Y0047800D03*
X0080167Y0080800D03*
X0077667Y0089300D03*
X0073667Y0090800D03*
X0069667Y0087300D03*
X0064167Y0087300D03*
X0069167Y0077300D03*
X0068667Y0070800D03*
X0074167Y0070800D03*
X0049167Y0096800D03*
X0054167Y0101800D03*
X0034167Y0101800D03*
X0044167Y0077800D03*
X0019167Y0071800D03*
X0074167Y0121800D03*
X0079167Y0131800D03*
X0070427Y0140540D03*
X0049167Y0146800D03*
X0049167Y0131800D03*
X0034167Y0136800D03*
X0027667Y0164300D03*
X0039167Y0176800D03*
X0034167Y0181800D03*
X0039167Y0191800D03*
X0054167Y0181800D03*
X0104167Y0166800D03*
X0119167Y0171800D03*
X0119167Y0201800D03*
X0134167Y0223300D03*
X0154167Y0221800D03*
X0159167Y0231800D03*
X0169167Y0231800D03*
X0154167Y0246800D03*
X0166167Y0205300D03*
X0199167Y0191800D03*
X0204667Y0209800D03*
X0219167Y0221800D03*
X0234167Y0221800D03*
X0234167Y0211800D03*
X0229167Y0206800D03*
X0244167Y0201800D03*
X0249167Y0201800D03*
X0254167Y0208300D03*
X0260167Y0203800D03*
X0249167Y0191800D03*
X0269167Y0186800D03*
X0254167Y0216800D03*
X0249167Y0246800D03*
X0239167Y0246800D03*
X0237167Y0271800D03*
X0269167Y0246800D03*
X0219167Y0191800D03*
X0229167Y0186800D03*
X0204667Y0242300D03*
X0147167Y0139300D03*
D24*
X0204167Y0081800D02*
X0214167Y0071800D01*
X0240167Y0071800D01*
X0240167Y0056800D01*
X0222426Y0028541D02*
X0222426Y0016800D01*
X0222426Y0028541D02*
X0209167Y0041800D01*
X0154167Y0061800D02*
X0144167Y0061800D01*
X0079167Y0131800D02*
X0070427Y0140540D01*
X0034167Y0136800D02*
X0029167Y0141800D01*
X0029167Y0146800D01*
X0134167Y0223300D02*
X0137667Y0226800D01*
X0139167Y0226800D01*
X0144167Y0231800D01*
X0144167Y0241800D01*
X0149167Y0246800D01*
X0154167Y0246800D01*
X0168167Y0246800D01*
X0169167Y0247800D01*
X0169167Y0251800D01*
X0197752Y0251800D01*
X0198460Y0252093D02*
X0218167Y0271800D01*
X0237167Y0271800D01*
X0219167Y0256800D02*
X0209167Y0256800D01*
X0184460Y0232093D01*
X0183752Y0231800D02*
X0169167Y0231800D01*
X0159167Y0231800D02*
X0154167Y0236800D01*
X0149167Y0236800D01*
X0149167Y0226800D01*
X0154167Y0221800D01*
X0166167Y0205300D02*
X0213667Y0205300D01*
X0219167Y0210800D01*
X0219167Y0211800D01*
X0224167Y0216800D01*
X0244167Y0216800D01*
X0254167Y0226800D01*
X0259167Y0226800D01*
X0263874Y0231507D01*
X0264167Y0232214D02*
X0264167Y0236800D01*
X0264167Y0232214D02*
X0264165Y0232154D01*
X0264160Y0232093D01*
X0264151Y0232034D01*
X0264138Y0231975D01*
X0264122Y0231916D01*
X0264102Y0231859D01*
X0264079Y0231804D01*
X0264052Y0231749D01*
X0264023Y0231697D01*
X0263990Y0231646D01*
X0263954Y0231597D01*
X0263916Y0231551D01*
X0263874Y0231507D01*
X0269167Y0226800D02*
X0269167Y0242300D01*
X0276667Y0249800D01*
X0276752Y0249800D01*
X0277460Y0250093D02*
X0279324Y0251957D01*
X0279324Y0256643D01*
X0277459Y0250093D02*
X0277415Y0250051D01*
X0277369Y0250013D01*
X0277320Y0249977D01*
X0277269Y0249944D01*
X0277217Y0249915D01*
X0277162Y0249888D01*
X0277107Y0249865D01*
X0277050Y0249845D01*
X0276991Y0249829D01*
X0276932Y0249816D01*
X0276873Y0249807D01*
X0276812Y0249802D01*
X0276752Y0249800D01*
X0264167Y0248800D02*
X0264167Y0264800D01*
X0239167Y0246800D02*
X0239167Y0226800D01*
X0234167Y0211800D02*
X0244167Y0201800D01*
X0249167Y0191800D02*
X0244167Y0186800D01*
X0229167Y0186800D01*
X0254167Y0208300D02*
X0254167Y0211800D01*
X0259167Y0216800D01*
X0269167Y0216800D01*
X0284167Y0231800D01*
X0284167Y0236800D01*
X0269167Y0226800D02*
X0264460Y0222093D01*
X0263752Y0221800D02*
X0259167Y0221800D01*
X0254167Y0216800D01*
X0259167Y0211800D02*
X0262009Y0211800D01*
X0269167Y0204643D01*
X0263752Y0221800D02*
X0263812Y0221802D01*
X0263873Y0221807D01*
X0263932Y0221816D01*
X0263991Y0221829D01*
X0264050Y0221845D01*
X0264107Y0221865D01*
X0264162Y0221888D01*
X0264217Y0221915D01*
X0264269Y0221944D01*
X0264320Y0221977D01*
X0264369Y0222013D01*
X0264415Y0222051D01*
X0264459Y0222093D01*
X0204667Y0209800D02*
X0204667Y0242300D01*
X0198459Y0252093D02*
X0198415Y0252051D01*
X0198369Y0252013D01*
X0198320Y0251977D01*
X0198269Y0251944D01*
X0198217Y0251915D01*
X0198162Y0251888D01*
X0198107Y0251865D01*
X0198050Y0251845D01*
X0197991Y0251829D01*
X0197932Y0251816D01*
X0197873Y0251807D01*
X0197812Y0251802D01*
X0197752Y0251800D01*
X0184459Y0232093D02*
X0184415Y0232051D01*
X0184369Y0232013D01*
X0184320Y0231977D01*
X0184269Y0231944D01*
X0184217Y0231915D01*
X0184162Y0231888D01*
X0184107Y0231865D01*
X0184050Y0231845D01*
X0183991Y0231829D01*
X0183932Y0231816D01*
X0183873Y0231807D01*
X0183812Y0231802D01*
X0183752Y0231800D01*
X0275009Y0158800D02*
X0275167Y0158643D01*
X0064167Y0267800D02*
X0059167Y0262800D01*
D25*
X0099167Y0236800D03*
D26*
X0259167Y0211800D03*
X0074167Y0036800D03*
D27*
X0060417Y0054300D02*
X0095417Y0054300D01*
X0095417Y0055550D01*
X0100417Y0060550D01*
X0109167Y0060550D01*
X0109167Y0011800D01*
X0107917Y0010550D01*
X0042917Y0010550D01*
X0042917Y0016800D01*
X0042126Y0016800D01*
X0037292Y0019925D02*
X0036667Y0019300D01*
X0036667Y0008675D01*
X0229792Y0008675D01*
X0237917Y0016800D01*
X0238467Y0016800D01*
X0084167Y0076800D02*
X0074167Y0066800D01*
X0054167Y0066800D01*
X0054167Y0060550D01*
X0060417Y0054300D01*
X0037292Y0059925D02*
X0037292Y0019925D01*
X0084167Y0076800D02*
X0084167Y0084300D01*
X0085417Y0085550D01*
X0279167Y0256800D02*
X0279324Y0256643D01*
D28*
X0085417Y0085550D03*
X0037292Y0059925D03*
D29*
X0219167Y0256800D02*
X0222702Y0260336D01*
X0224167Y0263871D02*
X0224167Y0266800D01*
X0224167Y0263871D02*
X0224165Y0263731D01*
X0224159Y0263591D01*
X0224149Y0263451D01*
X0224136Y0263311D01*
X0224118Y0263172D01*
X0224096Y0263033D01*
X0224071Y0262896D01*
X0224042Y0262758D01*
X0224009Y0262622D01*
X0223972Y0262487D01*
X0223931Y0262353D01*
X0223886Y0262220D01*
X0223838Y0262088D01*
X0223786Y0261958D01*
X0223731Y0261829D01*
X0223672Y0261702D01*
X0223609Y0261576D01*
X0223543Y0261452D01*
X0223474Y0261331D01*
X0223401Y0261211D01*
X0223324Y0261093D01*
X0223245Y0260978D01*
X0223162Y0260864D01*
X0223076Y0260754D01*
X0222987Y0260645D01*
X0222895Y0260539D01*
X0222800Y0260436D01*
X0222703Y0260335D01*
D30*
X0214167Y0196800D02*
X0209167Y0191800D01*
X0199167Y0191800D01*
X0214167Y0196800D02*
X0254167Y0196800D01*
M02*
