G75*
%MOIN*%
%OFA0B0*%
%FSLAX25Y25*%
%IPPOS*%
%LPD*%
%AMOC8*
5,1,8,0,0,1.08239X$1,22.5*
%
%ADD10OC8,0.06000*%
%ADD11C,0.07087*%
%ADD12C,0.06400*%
%ADD13C,0.17000*%
%ADD14R,0.09500X0.09500*%
%ADD15C,0.09500*%
%ADD16C,0.07050*%
%ADD17C,0.07087*%
%ADD18C,0.07800*%
%ADD19R,0.08000X0.08000*%
%ADD20C,0.08000*%
%ADD21C,0.05200*%
%ADD22OC8,0.03562*%
%ADD23C,0.01600*%
%ADD24OC8,0.03200*%
%ADD25C,0.01000*%
%ADD26R,0.03562X0.03562*%
%ADD27C,0.03200*%
D10*
X0089167Y0136800D03*
X0099167Y0136800D03*
X0109167Y0136800D03*
X0119167Y0136800D03*
X0129167Y0136800D03*
X0139167Y0136800D03*
D11*
X0174167Y0218257D02*
X0174167Y0225343D01*
X0184167Y0225343D02*
X0184167Y0218257D01*
X0194167Y0218257D02*
X0194167Y0225343D01*
X0204167Y0225343D02*
X0204167Y0218257D01*
X0214167Y0218257D02*
X0214167Y0225343D01*
X0224167Y0225343D02*
X0224167Y0218257D01*
X0234167Y0218257D02*
X0234167Y0225343D01*
X0244167Y0225343D02*
X0244167Y0218257D01*
X0239167Y0238257D02*
X0239167Y0245343D01*
X0229167Y0245343D02*
X0229167Y0238257D01*
X0219167Y0238257D02*
X0219167Y0245343D01*
X0209167Y0245343D02*
X0209167Y0238257D01*
X0199167Y0238257D02*
X0199167Y0245343D01*
X0189167Y0245343D02*
X0189167Y0238257D01*
X0179167Y0238257D02*
X0179167Y0245343D01*
D12*
X0139167Y0121800D03*
X0139167Y0111800D03*
X0129167Y0111800D03*
X0129167Y0121800D03*
X0119167Y0121800D03*
X0119167Y0111800D03*
D13*
X0028167Y0242115D03*
X0046671Y0253926D03*
X0028167Y0265737D03*
D14*
X0274167Y0111800D03*
D15*
X0274167Y0131485D03*
X0274167Y0151170D03*
D16*
X0277692Y0181957D02*
X0270642Y0181957D01*
X0270642Y0201643D02*
X0277692Y0201643D01*
X0277692Y0221957D02*
X0270642Y0221957D01*
X0270642Y0241643D02*
X0277692Y0241643D01*
D17*
X0058667Y0136800D03*
X0039667Y0136800D03*
D18*
X0195667Y0141400D02*
X0195667Y0149200D01*
X0242667Y0149200D02*
X0242667Y0141400D01*
X0242667Y0101200D02*
X0242667Y0093400D01*
X0219167Y0093200D02*
X0219167Y0085400D01*
X0195667Y0093400D02*
X0195667Y0101200D01*
D19*
X0168467Y0016800D03*
X0233467Y0016800D03*
X0103467Y0016800D03*
X0038467Y0016800D03*
D20*
X0052946Y0016800D03*
X0067426Y0016800D03*
X0117946Y0016800D03*
X0132426Y0016800D03*
X0182946Y0016800D03*
X0197426Y0016800D03*
X0247946Y0016800D03*
X0262426Y0016800D03*
D21*
X0016767Y0051800D02*
X0011567Y0051800D01*
X0011567Y0061800D02*
X0016767Y0061800D01*
X0016767Y0071800D02*
X0011567Y0071800D01*
X0011567Y0081800D02*
X0016767Y0081800D01*
X0016767Y0091800D02*
X0011567Y0091800D01*
X0011567Y0101800D02*
X0016767Y0101800D01*
X0016767Y0111800D02*
X0011567Y0111800D01*
X0011567Y0121800D02*
X0016767Y0121800D01*
X0016767Y0131800D02*
X0011567Y0131800D01*
X0011567Y0141800D02*
X0016767Y0141800D01*
X0016767Y0151800D02*
X0011567Y0151800D01*
X0011567Y0161800D02*
X0016767Y0161800D01*
X0016767Y0171800D02*
X0011567Y0171800D01*
X0011567Y0181800D02*
X0016767Y0181800D01*
X0016767Y0191800D02*
X0011567Y0191800D01*
X0011567Y0201800D02*
X0016767Y0201800D01*
D22*
X0026167Y0168800D03*
X0024167Y0146800D03*
X0053667Y0174800D03*
X0060167Y0172800D03*
X0059167Y0196800D03*
X0084167Y0196800D03*
X0099167Y0196800D03*
X0108167Y0196800D03*
X0099167Y0211800D03*
X0104167Y0221800D03*
X0094167Y0246800D03*
X0147667Y0263800D03*
X0164167Y0267800D03*
X0174167Y0266800D03*
X0158667Y0241300D03*
X0199167Y0201800D03*
X0199167Y0196800D03*
X0212667Y0201800D03*
X0124167Y0129300D03*
X0109167Y0116800D03*
X0104167Y0121800D03*
X0094167Y0121800D03*
X0076167Y0112300D03*
X0054167Y0116800D03*
X0040667Y0082300D03*
X0034167Y0071800D03*
X0057167Y0063800D03*
X0089167Y0048800D03*
X0101667Y0056800D03*
X0126167Y0035800D03*
X0129167Y0051800D03*
X0144167Y0053800D03*
X0147167Y0045800D03*
X0204167Y0081800D03*
X0184167Y0111800D03*
X0150667Y0116800D03*
X0117167Y0146800D03*
X0092167Y0151800D03*
X0104167Y0171800D03*
X0098167Y0176800D03*
X0087167Y0181800D03*
X0109167Y0101800D03*
X0229167Y0051800D03*
X0255167Y0056800D03*
D23*
X0006167Y0003800D02*
X0006167Y0273501D01*
X0021081Y0273501D01*
X0019765Y0272184D01*
X0018382Y0269790D01*
X0017667Y0267119D01*
X0017667Y0264355D01*
X0018382Y0261684D01*
X0019765Y0259290D01*
X0021720Y0257335D01*
X0024114Y0255953D01*
X0026784Y0255237D01*
X0029549Y0255237D01*
X0032220Y0255953D01*
X0034614Y0257335D01*
X0036569Y0259290D01*
X0037951Y0261684D01*
X0038652Y0264300D01*
X0053131Y0264300D01*
X0056367Y0261064D01*
X0056367Y0257402D01*
X0056202Y0257874D01*
X0055700Y0258916D01*
X0055084Y0259896D01*
X0054363Y0260800D01*
X0053545Y0261618D01*
X0052640Y0262339D01*
X0051661Y0262955D01*
X0050618Y0263457D01*
X0049526Y0263839D01*
X0048399Y0264096D01*
X0047471Y0264201D01*
X0047471Y0254726D01*
X0045871Y0254726D01*
X0045871Y0264201D01*
X0044943Y0264096D01*
X0043815Y0263839D01*
X0042723Y0263457D01*
X0041680Y0262955D01*
X0040701Y0262339D01*
X0039796Y0261618D01*
X0038978Y0260800D01*
X0038257Y0259896D01*
X0037642Y0258916D01*
X0037140Y0257874D01*
X0036758Y0256782D01*
X0036500Y0255654D01*
X0036396Y0254726D01*
X0045871Y0254726D01*
X0045871Y0253126D01*
X0047471Y0253126D01*
X0047471Y0243651D01*
X0048399Y0243756D01*
X0049526Y0244013D01*
X0050618Y0244395D01*
X0051661Y0244897D01*
X0052640Y0245512D01*
X0053545Y0246234D01*
X0054363Y0247052D01*
X0055084Y0247956D01*
X0055700Y0248936D01*
X0056202Y0249978D01*
X0056367Y0250450D01*
X0056367Y0199347D01*
X0055386Y0198366D01*
X0055386Y0195234D01*
X0057600Y0193019D01*
X0060733Y0193019D01*
X0061367Y0193653D01*
X0061367Y0192960D01*
X0058007Y0189600D01*
X0042058Y0189600D01*
X0042767Y0190309D01*
X0042767Y0193291D01*
X0040658Y0195400D01*
X0037675Y0195400D01*
X0035567Y0193291D01*
X0035567Y0190309D01*
X0036276Y0189600D01*
X0028610Y0189600D01*
X0027581Y0189174D01*
X0021793Y0183386D01*
X0021367Y0182357D01*
X0021367Y0172960D01*
X0021295Y0172888D01*
X0020666Y0174406D01*
X0019372Y0175700D01*
X0017682Y0176400D01*
X0010652Y0176400D01*
X0008961Y0175700D01*
X0007667Y0174406D01*
X0006967Y0172715D01*
X0006967Y0170885D01*
X0007667Y0169194D01*
X0008961Y0167900D01*
X0010652Y0167200D01*
X0016367Y0167200D01*
X0016367Y0166400D01*
X0010652Y0166400D01*
X0008961Y0165700D01*
X0007667Y0164406D01*
X0006967Y0162715D01*
X0006967Y0160885D01*
X0007667Y0159194D01*
X0008961Y0157900D01*
X0010652Y0157200D01*
X0017682Y0157200D01*
X0019372Y0157900D01*
X0020666Y0159194D01*
X0020867Y0159678D01*
X0020867Y0153922D01*
X0020666Y0154406D01*
X0019372Y0155700D01*
X0017682Y0156400D01*
X0010652Y0156400D01*
X0008961Y0155700D01*
X0007667Y0154406D01*
X0006967Y0152715D01*
X0006967Y0150885D01*
X0007667Y0149194D01*
X0008961Y0147900D01*
X0010652Y0147200D01*
X0017682Y0147200D01*
X0019372Y0147900D01*
X0020666Y0149194D01*
X0020867Y0149678D01*
X0020867Y0148847D01*
X0020386Y0148366D01*
X0020386Y0145234D01*
X0021367Y0144253D01*
X0021367Y0077960D01*
X0019184Y0075778D01*
X0017682Y0076400D01*
X0010652Y0076400D01*
X0008961Y0075700D01*
X0007667Y0074406D01*
X0006967Y0072715D01*
X0006967Y0070885D01*
X0007667Y0069194D01*
X0008961Y0067900D01*
X0010652Y0067200D01*
X0017682Y0067200D01*
X0019372Y0067900D01*
X0019672Y0068200D01*
X0020658Y0068200D01*
X0022767Y0070309D01*
X0022767Y0071440D01*
X0025753Y0074426D01*
X0026540Y0075214D01*
X0026967Y0076243D01*
X0026967Y0144253D01*
X0027360Y0144646D01*
X0027581Y0144426D01*
X0028610Y0144000D01*
X0036875Y0144000D01*
X0037391Y0143484D01*
X0037293Y0143386D01*
X0036867Y0142357D01*
X0036867Y0141640D01*
X0036527Y0141499D01*
X0034967Y0139940D01*
X0034123Y0137903D01*
X0034123Y0135697D01*
X0034967Y0133660D01*
X0036527Y0132101D01*
X0038564Y0131257D01*
X0040769Y0131257D01*
X0042807Y0132101D01*
X0044366Y0133660D01*
X0045210Y0135697D01*
X0045210Y0137903D01*
X0044366Y0139940D01*
X0043066Y0141240D01*
X0045826Y0144000D01*
X0052407Y0144000D01*
X0046793Y0138386D01*
X0046367Y0137357D01*
X0046367Y0136243D01*
X0046793Y0135214D01*
X0047141Y0134866D01*
X0045567Y0133291D01*
X0045567Y0130309D01*
X0046367Y0129509D01*
X0046367Y0117960D01*
X0037581Y0109174D01*
X0036793Y0108386D01*
X0036367Y0107357D01*
X0036367Y0104691D01*
X0035658Y0105400D01*
X0032675Y0105400D01*
X0030567Y0103291D01*
X0030567Y0100309D01*
X0032675Y0098200D01*
X0033807Y0098200D01*
X0041367Y0090640D01*
X0041367Y0086081D01*
X0039100Y0086081D01*
X0036886Y0083866D01*
X0036886Y0080734D01*
X0037867Y0079753D01*
X0037867Y0073447D01*
X0035733Y0075581D01*
X0032600Y0075581D01*
X0030386Y0073366D01*
X0030386Y0070234D01*
X0032600Y0068019D01*
X0035733Y0068019D01*
X0037867Y0070153D01*
X0037867Y0049743D01*
X0038293Y0048714D01*
X0039081Y0047926D01*
X0041793Y0045214D01*
X0041793Y0045214D01*
X0042581Y0044426D01*
X0043610Y0044000D01*
X0069724Y0044000D01*
X0070753Y0044426D01*
X0075826Y0049500D01*
X0084507Y0049500D01*
X0085386Y0048621D01*
X0085386Y0047234D01*
X0087600Y0045019D01*
X0088426Y0045019D01*
X0077581Y0034174D01*
X0077581Y0034174D01*
X0076793Y0033386D01*
X0076367Y0032357D01*
X0076367Y0021243D01*
X0076793Y0020214D01*
X0077581Y0019426D01*
X0082581Y0014426D01*
X0083610Y0014000D01*
X0097467Y0014000D01*
X0097467Y0011972D01*
X0098638Y0010800D01*
X0108295Y0010800D01*
X0109467Y0011972D01*
X0109467Y0021628D01*
X0108295Y0022800D01*
X0098638Y0022800D01*
X0097467Y0021628D01*
X0097467Y0019600D01*
X0085326Y0019600D01*
X0081967Y0022960D01*
X0081967Y0030640D01*
X0096540Y0045214D01*
X0096967Y0046243D01*
X0096967Y0048140D01*
X0101845Y0053019D01*
X0103233Y0053019D01*
X0105448Y0055234D01*
X0105448Y0058366D01*
X0103233Y0060581D01*
X0100100Y0060581D01*
X0097886Y0058366D01*
X0097886Y0056979D01*
X0092581Y0051674D01*
X0092110Y0051204D01*
X0090733Y0052581D01*
X0089345Y0052581D01*
X0087926Y0054000D01*
X0089724Y0054000D01*
X0090753Y0054426D01*
X0099040Y0062714D01*
X0099467Y0063743D01*
X0099467Y0064000D01*
X0099724Y0064000D01*
X0100753Y0064426D01*
X0101540Y0065214D01*
X0101967Y0066243D01*
X0101967Y0080640D01*
X0106540Y0085214D01*
X0106967Y0086243D01*
X0106967Y0095640D01*
X0109345Y0098019D01*
X0110733Y0098019D01*
X0112948Y0100234D01*
X0112948Y0103366D01*
X0112314Y0104000D01*
X0113007Y0104000D01*
X0116793Y0100214D01*
X0117581Y0099426D01*
X0118610Y0099000D01*
X0124724Y0099000D01*
X0125753Y0099426D01*
X0130753Y0104426D01*
X0131540Y0105214D01*
X0131667Y0105519D01*
X0131793Y0105214D01*
X0132581Y0104426D01*
X0133610Y0104000D01*
X0138007Y0104000D01*
X0145567Y0096440D01*
X0145567Y0095309D01*
X0147675Y0093200D01*
X0150658Y0093200D01*
X0152767Y0095309D01*
X0152767Y0098291D01*
X0150658Y0100400D01*
X0149526Y0100400D01*
X0142323Y0107603D01*
X0143575Y0108854D01*
X0144367Y0110766D01*
X0144367Y0112834D01*
X0143575Y0114746D01*
X0142112Y0116208D01*
X0140365Y0116932D01*
X0141086Y0117166D01*
X0141787Y0117524D01*
X0142424Y0117986D01*
X0142980Y0118543D01*
X0143443Y0119179D01*
X0143800Y0119881D01*
X0144044Y0120629D01*
X0144167Y0121406D01*
X0144167Y0121714D01*
X0139253Y0121714D01*
X0139253Y0121886D01*
X0144167Y0121886D01*
X0144167Y0122194D01*
X0144044Y0122971D01*
X0143800Y0123719D01*
X0143443Y0124421D01*
X0142980Y0125057D01*
X0142424Y0125614D01*
X0141787Y0126076D01*
X0141086Y0126434D01*
X0140337Y0126677D01*
X0139560Y0126800D01*
X0139252Y0126800D01*
X0139252Y0121886D01*
X0139081Y0121886D01*
X0139081Y0126800D01*
X0138773Y0126800D01*
X0137996Y0126677D01*
X0137247Y0126434D01*
X0136546Y0126076D01*
X0135909Y0125614D01*
X0135353Y0125057D01*
X0134890Y0124421D01*
X0134533Y0123719D01*
X0134299Y0122998D01*
X0133575Y0124746D01*
X0132112Y0126208D01*
X0130201Y0127000D01*
X0128132Y0127000D01*
X0126565Y0126351D01*
X0127948Y0127734D01*
X0127948Y0130866D01*
X0125733Y0133081D01*
X0122600Y0133081D01*
X0121619Y0132100D01*
X0121538Y0132100D01*
X0124167Y0134729D01*
X0127096Y0131800D01*
X0131238Y0131800D01*
X0134167Y0134729D01*
X0134167Y0138871D01*
X0131238Y0141800D01*
X0127096Y0141800D01*
X0124167Y0138871D01*
X0124167Y0134729D01*
X0124167Y0138871D01*
X0121238Y0141800D01*
X0117096Y0141800D01*
X0114167Y0138871D01*
X0114167Y0134729D01*
X0116796Y0132100D01*
X0111538Y0132100D01*
X0114167Y0134729D01*
X0114167Y0138871D01*
X0111238Y0141800D01*
X0107096Y0141800D01*
X0104167Y0138871D01*
X0104167Y0134729D01*
X0106796Y0132100D01*
X0101538Y0132100D01*
X0104167Y0134729D01*
X0104167Y0138871D01*
X0101238Y0141800D01*
X0097096Y0141800D01*
X0094167Y0138871D01*
X0094167Y0134729D01*
X0096796Y0132100D01*
X0091538Y0132100D01*
X0094167Y0134729D01*
X0094167Y0138871D01*
X0091238Y0141800D01*
X0087096Y0141800D01*
X0084167Y0138871D01*
X0084167Y0134729D01*
X0086796Y0132100D01*
X0086110Y0132100D01*
X0085081Y0131674D01*
X0082581Y0129174D01*
X0081793Y0128386D01*
X0081367Y0127357D01*
X0081367Y0122960D01*
X0078007Y0119600D01*
X0068610Y0119600D01*
X0067581Y0119174D01*
X0063007Y0114600D01*
X0057314Y0114600D01*
X0057948Y0115234D01*
X0057948Y0118366D01*
X0056967Y0119347D01*
X0056967Y0131504D01*
X0057564Y0131257D01*
X0059769Y0131257D01*
X0061807Y0132101D01*
X0063366Y0133660D01*
X0064210Y0135697D01*
X0064210Y0137903D01*
X0063366Y0139940D01*
X0061807Y0141499D01*
X0059769Y0142343D01*
X0058670Y0142343D01*
X0060326Y0144000D01*
X0094724Y0144000D01*
X0095753Y0144426D01*
X0101540Y0150214D01*
X0101967Y0151243D01*
X0101967Y0157357D01*
X0101540Y0158386D01*
X0100753Y0159174D01*
X0096967Y0162960D01*
X0096967Y0163040D01*
X0113386Y0146621D01*
X0113386Y0145234D01*
X0115600Y0143019D01*
X0118733Y0143019D01*
X0120948Y0145234D01*
X0120948Y0148366D01*
X0120314Y0149000D01*
X0128007Y0149000D01*
X0131793Y0145214D01*
X0132581Y0144426D01*
X0133610Y0144000D01*
X0138507Y0144000D01*
X0140907Y0141600D01*
X0139367Y0141600D01*
X0139367Y0137000D01*
X0143967Y0137000D01*
X0143967Y0137409D01*
X0145675Y0135700D01*
X0147867Y0135700D01*
X0147867Y0119347D01*
X0146886Y0118366D01*
X0146886Y0115234D01*
X0149100Y0113019D01*
X0152233Y0113019D01*
X0154448Y0115234D01*
X0154448Y0118366D01*
X0153467Y0119347D01*
X0153467Y0142857D01*
X0153040Y0143886D01*
X0137753Y0159174D01*
X0136724Y0159600D01*
X0120326Y0159600D01*
X0107948Y0171979D01*
X0107948Y0173366D01*
X0105733Y0175581D01*
X0102600Y0175581D01*
X0100386Y0173366D01*
X0100386Y0170234D01*
X0101447Y0169172D01*
X0100567Y0168291D01*
X0100567Y0167360D01*
X0099967Y0167960D01*
X0099967Y0173253D01*
X0101948Y0175234D01*
X0101948Y0175621D01*
X0110753Y0184426D01*
X0111540Y0185214D01*
X0111967Y0186243D01*
X0111967Y0196357D01*
X0111948Y0196403D01*
X0111948Y0196621D01*
X0114326Y0199000D01*
X0116875Y0199000D01*
X0117675Y0198200D01*
X0120658Y0198200D01*
X0121458Y0199000D01*
X0196019Y0199000D01*
X0195386Y0198366D01*
X0195386Y0196979D01*
X0193007Y0194600D01*
X0183610Y0194600D01*
X0182581Y0194174D01*
X0181793Y0193386D01*
X0181367Y0192357D01*
X0181367Y0114347D01*
X0180386Y0113366D01*
X0180386Y0110234D01*
X0182600Y0108019D01*
X0185733Y0108019D01*
X0187948Y0110234D01*
X0187948Y0113366D01*
X0186967Y0114347D01*
X0186967Y0189000D01*
X0194724Y0189000D01*
X0195753Y0189426D01*
X0196101Y0189775D01*
X0197675Y0188200D01*
X0200658Y0188200D01*
X0201758Y0189300D01*
X0209664Y0189300D01*
X0210583Y0189681D01*
X0211286Y0190384D01*
X0215202Y0194300D01*
X0246576Y0194300D01*
X0245567Y0193291D01*
X0245567Y0191736D01*
X0243131Y0189300D01*
X0231758Y0189300D01*
X0230658Y0190400D01*
X0227675Y0190400D01*
X0225567Y0188291D01*
X0225567Y0185309D01*
X0227675Y0183200D01*
X0230658Y0183200D01*
X0231758Y0184300D01*
X0244664Y0184300D01*
X0245583Y0184681D01*
X0246286Y0185384D01*
X0249102Y0188200D01*
X0250658Y0188200D01*
X0252767Y0190309D01*
X0252767Y0193291D01*
X0251758Y0194300D01*
X0254664Y0194300D01*
X0255583Y0194681D01*
X0256286Y0195384D01*
X0260202Y0199300D01*
X0265632Y0199300D01*
X0265958Y0198513D01*
X0267512Y0196959D01*
X0269543Y0196118D01*
X0278791Y0196118D01*
X0280821Y0196959D01*
X0282376Y0198513D01*
X0283217Y0200544D01*
X0283217Y0202742D01*
X0282376Y0204772D01*
X0280821Y0206326D01*
X0278791Y0207168D01*
X0269543Y0207168D01*
X0267512Y0206326D01*
X0265958Y0204772D01*
X0265762Y0204300D01*
X0258669Y0204300D01*
X0257751Y0203919D01*
X0253131Y0199300D01*
X0251758Y0199300D01*
X0252767Y0200309D01*
X0252767Y0203200D01*
X0255658Y0203200D01*
X0257767Y0205309D01*
X0257767Y0208291D01*
X0255658Y0210400D01*
X0255358Y0210400D01*
X0255767Y0210809D01*
X0255767Y0212364D01*
X0260583Y0217181D01*
X0261286Y0217884D01*
X0261667Y0218803D01*
X0261667Y0230764D01*
X0267759Y0236856D01*
X0269543Y0236118D01*
X0278791Y0236118D01*
X0280821Y0236959D01*
X0282376Y0238513D01*
X0283217Y0240544D01*
X0283217Y0242742D01*
X0282376Y0244772D01*
X0280821Y0246326D01*
X0278791Y0247168D01*
X0269543Y0247168D01*
X0267512Y0246326D01*
X0265958Y0244772D01*
X0265117Y0242742D01*
X0265117Y0241286D01*
X0262444Y0238613D01*
X0260658Y0240400D01*
X0257675Y0240400D01*
X0256575Y0239300D01*
X0251758Y0239300D01*
X0250658Y0240400D01*
X0247675Y0240400D01*
X0245889Y0238613D01*
X0244710Y0239792D01*
X0244710Y0246446D01*
X0243866Y0248483D01*
X0243049Y0249300D01*
X0243131Y0249300D01*
X0246067Y0246364D01*
X0246067Y0244809D01*
X0248175Y0242700D01*
X0251158Y0242700D01*
X0253267Y0244809D01*
X0253267Y0247791D01*
X0251158Y0249900D01*
X0249602Y0249900D01*
X0245583Y0253919D01*
X0244664Y0254300D01*
X0204758Y0254300D01*
X0205767Y0255309D01*
X0205767Y0258291D01*
X0203658Y0260400D01*
X0200675Y0260400D01*
X0199576Y0259300D01*
X0177669Y0259300D01*
X0176751Y0258919D01*
X0172131Y0254300D01*
X0168669Y0254300D01*
X0167751Y0253919D01*
X0167047Y0253216D01*
X0166667Y0252297D01*
X0166667Y0249300D01*
X0156758Y0249300D01*
X0155658Y0250400D01*
X0152675Y0250400D01*
X0151575Y0249300D01*
X0148669Y0249300D01*
X0147751Y0248919D01*
X0142751Y0243919D01*
X0142047Y0243216D01*
X0141667Y0242297D01*
X0141667Y0232836D01*
X0138131Y0229300D01*
X0137169Y0229300D01*
X0136251Y0228919D01*
X0134231Y0226900D01*
X0132675Y0226900D01*
X0130567Y0224791D01*
X0130567Y0221809D01*
X0132675Y0219700D01*
X0135658Y0219700D01*
X0137767Y0221809D01*
X0137767Y0223364D01*
X0138702Y0224300D01*
X0139664Y0224300D01*
X0140583Y0224681D01*
X0141286Y0225384D01*
X0146286Y0230384D01*
X0146667Y0231303D01*
X0146667Y0240764D01*
X0150202Y0244300D01*
X0151575Y0244300D01*
X0152675Y0243200D01*
X0155219Y0243200D01*
X0154886Y0242866D01*
X0154886Y0239734D01*
X0157100Y0237519D01*
X0159488Y0237519D01*
X0161367Y0235640D01*
X0161367Y0234691D01*
X0160658Y0235400D01*
X0159102Y0235400D01*
X0156286Y0238216D01*
X0156286Y0238216D01*
X0155583Y0238919D01*
X0154664Y0239300D01*
X0148669Y0239300D01*
X0147751Y0238919D01*
X0147047Y0238216D01*
X0146667Y0237297D01*
X0146667Y0226303D01*
X0147047Y0225384D01*
X0147751Y0224681D01*
X0150567Y0221864D01*
X0150567Y0220309D01*
X0151276Y0219600D01*
X0108610Y0219600D01*
X0107581Y0219174D01*
X0102581Y0214174D01*
X0102360Y0213954D01*
X0101967Y0214347D01*
X0101967Y0218653D01*
X0102600Y0218019D01*
X0105733Y0218019D01*
X0107948Y0220234D01*
X0107948Y0223366D01*
X0106967Y0224347D01*
X0106967Y0255640D01*
X0110326Y0259000D01*
X0146224Y0259000D01*
X0147253Y0259426D01*
X0147845Y0260019D01*
X0149233Y0260019D01*
X0151448Y0262234D01*
X0151448Y0265000D01*
X0161619Y0265000D01*
X0162600Y0264019D01*
X0165733Y0264019D01*
X0167948Y0266234D01*
X0167948Y0269366D01*
X0165733Y0271581D01*
X0162600Y0271581D01*
X0161619Y0270600D01*
X0063610Y0270600D01*
X0062581Y0270174D01*
X0061793Y0269386D01*
X0061493Y0268662D01*
X0058667Y0265836D01*
X0056286Y0268216D01*
X0055583Y0268919D01*
X0054664Y0269300D01*
X0038082Y0269300D01*
X0037951Y0269790D01*
X0036569Y0272184D01*
X0035252Y0273501D01*
X0292088Y0273501D01*
X0292088Y0003800D01*
X0006167Y0003800D01*
X0006167Y0004997D02*
X0292088Y0004997D01*
X0292088Y0006596D02*
X0006167Y0006596D01*
X0006167Y0008194D02*
X0292088Y0008194D01*
X0292088Y0009793D02*
X0006167Y0009793D01*
X0006167Y0011391D02*
X0033047Y0011391D01*
X0032467Y0011972D02*
X0033638Y0010800D01*
X0043295Y0010800D01*
X0044467Y0011972D01*
X0044467Y0018840D01*
X0059626Y0034000D01*
X0071875Y0034000D01*
X0072127Y0033748D01*
X0073451Y0033200D01*
X0074883Y0033200D01*
X0076206Y0033748D01*
X0077219Y0034761D01*
X0077767Y0036084D01*
X0077767Y0037516D01*
X0077219Y0038839D01*
X0076206Y0039852D01*
X0074883Y0040400D01*
X0073451Y0040400D01*
X0072127Y0039852D01*
X0071875Y0039600D01*
X0057910Y0039600D01*
X0056881Y0039174D01*
X0040507Y0022800D01*
X0033638Y0022800D01*
X0032467Y0021628D01*
X0032467Y0011972D01*
X0032467Y0012990D02*
X0006167Y0012990D01*
X0006167Y0014588D02*
X0032467Y0014588D01*
X0032467Y0016187D02*
X0006167Y0016187D01*
X0006167Y0017785D02*
X0032467Y0017785D01*
X0032467Y0019384D02*
X0006167Y0019384D01*
X0006167Y0020982D02*
X0032467Y0020982D01*
X0033419Y0022581D02*
X0006167Y0022581D01*
X0006167Y0024179D02*
X0041886Y0024179D01*
X0043485Y0025778D02*
X0006167Y0025778D01*
X0006167Y0027376D02*
X0045083Y0027376D01*
X0046682Y0028975D02*
X0006167Y0028975D01*
X0006167Y0030573D02*
X0048280Y0030573D01*
X0049879Y0032172D02*
X0006167Y0032172D01*
X0006167Y0033770D02*
X0051477Y0033770D01*
X0053076Y0035369D02*
X0006167Y0035369D01*
X0006167Y0036967D02*
X0054674Y0036967D01*
X0056273Y0038566D02*
X0006167Y0038566D01*
X0006167Y0040164D02*
X0072882Y0040164D01*
X0075452Y0040164D02*
X0083571Y0040164D01*
X0081973Y0038566D02*
X0077332Y0038566D01*
X0077767Y0036967D02*
X0080374Y0036967D01*
X0078776Y0035369D02*
X0077470Y0035369D01*
X0077177Y0033770D02*
X0076228Y0033770D01*
X0076367Y0032172D02*
X0057798Y0032172D01*
X0059397Y0033770D02*
X0072105Y0033770D01*
X0074167Y0036800D02*
X0058467Y0036800D01*
X0038467Y0016800D01*
X0043886Y0011391D02*
X0050326Y0011391D01*
X0049547Y0011713D02*
X0051753Y0010800D01*
X0054140Y0010800D01*
X0056345Y0011713D01*
X0058033Y0013401D01*
X0058946Y0015607D01*
X0058946Y0017993D01*
X0058033Y0020199D01*
X0056345Y0021887D01*
X0054140Y0022800D01*
X0051753Y0022800D01*
X0049547Y0021887D01*
X0047860Y0020199D01*
X0046946Y0017993D01*
X0046946Y0015607D01*
X0047860Y0013401D01*
X0049547Y0011713D01*
X0048271Y0012990D02*
X0044467Y0012990D01*
X0044467Y0014588D02*
X0047368Y0014588D01*
X0046946Y0016187D02*
X0044467Y0016187D01*
X0044467Y0017785D02*
X0046946Y0017785D01*
X0047522Y0019384D02*
X0045010Y0019384D01*
X0046609Y0020982D02*
X0048643Y0020982D01*
X0048207Y0022581D02*
X0051223Y0022581D01*
X0049806Y0024179D02*
X0076367Y0024179D01*
X0076367Y0022581D02*
X0068004Y0022581D01*
X0067882Y0022600D02*
X0067807Y0022600D01*
X0067807Y0017181D01*
X0073226Y0017181D01*
X0073226Y0017256D01*
X0073083Y0018158D01*
X0072801Y0019026D01*
X0072386Y0019840D01*
X0071850Y0020578D01*
X0071204Y0021224D01*
X0070466Y0021761D01*
X0069652Y0022175D01*
X0068784Y0022457D01*
X0067882Y0022600D01*
X0067807Y0022581D02*
X0067045Y0022581D01*
X0067045Y0022600D02*
X0066969Y0022600D01*
X0066068Y0022457D01*
X0065199Y0022175D01*
X0064386Y0021761D01*
X0063647Y0021224D01*
X0063002Y0020578D01*
X0062465Y0019840D01*
X0062051Y0019026D01*
X0061769Y0018158D01*
X0061626Y0017256D01*
X0061626Y0017181D01*
X0067045Y0017181D01*
X0067045Y0022600D01*
X0066847Y0022581D02*
X0054669Y0022581D01*
X0057249Y0020982D02*
X0063405Y0020982D01*
X0062233Y0019384D02*
X0058370Y0019384D01*
X0058946Y0017785D02*
X0061709Y0017785D01*
X0061626Y0016419D02*
X0061626Y0016344D01*
X0061769Y0015442D01*
X0062051Y0014574D01*
X0062465Y0013760D01*
X0063002Y0013022D01*
X0063647Y0012376D01*
X0064386Y0011839D01*
X0065199Y0011425D01*
X0066068Y0011143D01*
X0066969Y0011000D01*
X0067045Y0011000D01*
X0067045Y0016419D01*
X0067807Y0016419D01*
X0067807Y0017181D01*
X0067045Y0017181D01*
X0067045Y0016419D01*
X0061626Y0016419D01*
X0061651Y0016187D02*
X0058946Y0016187D01*
X0058524Y0014588D02*
X0062046Y0014588D01*
X0063034Y0012990D02*
X0057621Y0012990D01*
X0055567Y0011391D02*
X0065303Y0011391D01*
X0067045Y0011391D02*
X0067807Y0011391D01*
X0067807Y0011000D02*
X0067882Y0011000D01*
X0068784Y0011143D01*
X0069652Y0011425D01*
X0070466Y0011839D01*
X0071204Y0012376D01*
X0071850Y0013022D01*
X0072386Y0013760D01*
X0072801Y0014574D01*
X0073083Y0015442D01*
X0073226Y0016344D01*
X0073226Y0016419D01*
X0067807Y0016419D01*
X0067807Y0011000D01*
X0069548Y0011391D02*
X0098047Y0011391D01*
X0097467Y0012990D02*
X0071818Y0012990D01*
X0072805Y0014588D02*
X0082419Y0014588D01*
X0080820Y0016187D02*
X0073201Y0016187D01*
X0073142Y0017785D02*
X0079222Y0017785D01*
X0077623Y0019384D02*
X0072619Y0019384D01*
X0071446Y0020982D02*
X0076475Y0020982D01*
X0079167Y0021800D02*
X0079167Y0031800D01*
X0094167Y0046800D01*
X0094167Y0049300D01*
X0101667Y0056800D01*
X0104468Y0059346D02*
X0141529Y0059346D01*
X0140567Y0060309D02*
X0142675Y0058200D01*
X0145567Y0058200D01*
X0145567Y0057581D01*
X0142600Y0057581D01*
X0140386Y0055366D01*
X0140386Y0054600D01*
X0131714Y0054600D01*
X0130733Y0055581D01*
X0127600Y0055581D01*
X0125386Y0053366D01*
X0125386Y0050234D01*
X0127600Y0048019D01*
X0130733Y0048019D01*
X0131714Y0049000D01*
X0142724Y0049000D01*
X0143753Y0049426D01*
X0144345Y0050019D01*
X0145733Y0050019D01*
X0147360Y0051646D01*
X0147581Y0051426D01*
X0151567Y0047440D01*
X0151567Y0046309D01*
X0153675Y0044200D01*
X0156658Y0044200D01*
X0158767Y0046309D01*
X0158767Y0049291D01*
X0156658Y0051400D01*
X0155526Y0051400D01*
X0151967Y0054960D01*
X0151967Y0055509D01*
X0152767Y0056309D01*
X0152767Y0058200D01*
X0155658Y0058200D01*
X0157767Y0060309D01*
X0157767Y0063291D01*
X0155658Y0065400D01*
X0152675Y0065400D01*
X0151575Y0064300D01*
X0146758Y0064300D01*
X0145658Y0065400D01*
X0142675Y0065400D01*
X0140567Y0063291D01*
X0140567Y0060309D01*
X0140567Y0060945D02*
X0097271Y0060945D01*
X0098866Y0059346D02*
X0095673Y0059346D01*
X0094074Y0057748D02*
X0097886Y0057748D01*
X0097056Y0056149D02*
X0092476Y0056149D01*
X0090877Y0054551D02*
X0095458Y0054551D01*
X0093859Y0052952D02*
X0088974Y0052952D01*
X0091960Y0051354D02*
X0092261Y0051354D01*
X0089167Y0048800D02*
X0085667Y0052300D01*
X0074667Y0052300D01*
X0069167Y0046800D01*
X0044167Y0046800D01*
X0040667Y0050300D01*
X0040667Y0082300D01*
X0037942Y0084923D02*
X0026967Y0084923D01*
X0026967Y0086521D02*
X0041367Y0086521D01*
X0041367Y0088120D02*
X0026967Y0088120D01*
X0026967Y0089718D02*
X0041367Y0089718D01*
X0040690Y0091317D02*
X0026967Y0091317D01*
X0026967Y0092915D02*
X0039092Y0092915D01*
X0037493Y0094514D02*
X0026967Y0094514D01*
X0026967Y0096112D02*
X0035895Y0096112D01*
X0034296Y0097711D02*
X0026967Y0097711D01*
X0026967Y0099309D02*
X0031566Y0099309D01*
X0030567Y0100908D02*
X0026967Y0100908D01*
X0026967Y0102506D02*
X0030567Y0102506D01*
X0031380Y0104105D02*
X0026967Y0104105D01*
X0026967Y0105703D02*
X0036367Y0105703D01*
X0036367Y0107302D02*
X0026967Y0107302D01*
X0026967Y0108900D02*
X0037307Y0108900D01*
X0038906Y0110499D02*
X0026967Y0110499D01*
X0026967Y0112097D02*
X0040504Y0112097D01*
X0042103Y0113696D02*
X0026967Y0113696D01*
X0026967Y0115294D02*
X0043701Y0115294D01*
X0045300Y0116893D02*
X0026967Y0116893D01*
X0026967Y0118491D02*
X0046367Y0118491D01*
X0046367Y0120090D02*
X0026967Y0120090D01*
X0026967Y0121688D02*
X0046367Y0121688D01*
X0046367Y0123287D02*
X0026967Y0123287D01*
X0026967Y0124885D02*
X0046367Y0124885D01*
X0046367Y0126484D02*
X0026967Y0126484D01*
X0026967Y0128082D02*
X0046367Y0128082D01*
X0046195Y0129681D02*
X0026967Y0129681D01*
X0026967Y0131279D02*
X0038509Y0131279D01*
X0040824Y0131279D02*
X0045567Y0131279D01*
X0045567Y0132878D02*
X0043584Y0132878D01*
X0044704Y0134476D02*
X0046752Y0134476D01*
X0046436Y0136075D02*
X0045210Y0136075D01*
X0045210Y0137673D02*
X0046498Y0137673D01*
X0047679Y0139272D02*
X0044643Y0139272D01*
X0043436Y0140870D02*
X0049277Y0140870D01*
X0050876Y0142469D02*
X0044295Y0142469D01*
X0044667Y0146800D02*
X0039667Y0141800D01*
X0039667Y0136800D01*
X0035898Y0140870D02*
X0026967Y0140870D01*
X0026967Y0139272D02*
X0034691Y0139272D01*
X0034123Y0137673D02*
X0026967Y0137673D01*
X0026967Y0136075D02*
X0034123Y0136075D01*
X0034629Y0134476D02*
X0026967Y0134476D01*
X0026967Y0132878D02*
X0035749Y0132878D01*
X0036913Y0142469D02*
X0026967Y0142469D01*
X0026967Y0144068D02*
X0028447Y0144068D01*
X0029167Y0146800D02*
X0029167Y0161300D01*
X0027667Y0162800D01*
X0027667Y0164300D01*
X0023667Y0162300D02*
X0023667Y0147300D01*
X0024167Y0146800D01*
X0024167Y0076800D01*
X0019167Y0071800D01*
X0021395Y0068937D02*
X0031682Y0068937D01*
X0030386Y0070536D02*
X0022767Y0070536D01*
X0023461Y0072134D02*
X0030386Y0072134D01*
X0030752Y0073733D02*
X0025059Y0073733D01*
X0026589Y0075332D02*
X0032351Y0075332D01*
X0026967Y0076930D02*
X0037867Y0076930D01*
X0037867Y0075332D02*
X0035982Y0075332D01*
X0037581Y0073733D02*
X0037867Y0073733D01*
X0037867Y0068937D02*
X0036651Y0068937D01*
X0037867Y0067339D02*
X0018017Y0067339D01*
X0017682Y0066400D02*
X0010652Y0066400D01*
X0008961Y0065700D01*
X0007667Y0064406D01*
X0006967Y0062715D01*
X0006967Y0060885D01*
X0007667Y0059194D01*
X0008961Y0057900D01*
X0010652Y0057200D01*
X0017682Y0057200D01*
X0019372Y0057900D01*
X0020666Y0059194D01*
X0021367Y0060885D01*
X0021367Y0062715D01*
X0020666Y0064406D01*
X0019372Y0065700D01*
X0017682Y0066400D01*
X0019274Y0065740D02*
X0037867Y0065740D01*
X0037867Y0064142D02*
X0020776Y0064142D01*
X0021367Y0062543D02*
X0037867Y0062543D01*
X0037867Y0060945D02*
X0021367Y0060945D01*
X0020729Y0059346D02*
X0037867Y0059346D01*
X0037867Y0057748D02*
X0019004Y0057748D01*
X0018456Y0055878D02*
X0017797Y0056092D01*
X0017113Y0056200D01*
X0014167Y0056200D01*
X0014167Y0051800D01*
X0021167Y0051800D01*
X0021167Y0052146D01*
X0021058Y0052830D01*
X0020844Y0053489D01*
X0020530Y0054106D01*
X0020123Y0054666D01*
X0019633Y0055156D01*
X0019073Y0055563D01*
X0018456Y0055878D01*
X0017432Y0056149D02*
X0037867Y0056149D01*
X0037867Y0054551D02*
X0020207Y0054551D01*
X0021019Y0052952D02*
X0037867Y0052952D01*
X0037867Y0051354D02*
X0021151Y0051354D01*
X0021167Y0051454D02*
X0021167Y0051800D01*
X0014167Y0051800D01*
X0014167Y0051800D01*
X0014167Y0051800D01*
X0014167Y0047400D01*
X0017113Y0047400D01*
X0017797Y0047508D01*
X0018456Y0047722D01*
X0019073Y0048037D01*
X0019633Y0048444D01*
X0020123Y0048934D01*
X0020530Y0049494D01*
X0020844Y0050111D01*
X0021058Y0050770D01*
X0021167Y0051454D01*
X0020663Y0049755D02*
X0037867Y0049755D01*
X0038850Y0048157D02*
X0019238Y0048157D01*
X0014167Y0048157D02*
X0014167Y0048157D01*
X0014167Y0047400D02*
X0014167Y0051800D01*
X0014167Y0051800D01*
X0014167Y0056200D01*
X0011220Y0056200D01*
X0010536Y0056092D01*
X0009878Y0055878D01*
X0009261Y0055563D01*
X0008700Y0055156D01*
X0008211Y0054666D01*
X0007803Y0054106D01*
X0007489Y0053489D01*
X0007275Y0052830D01*
X0007167Y0052146D01*
X0007167Y0051800D01*
X0007167Y0051454D01*
X0007275Y0050770D01*
X0007489Y0050111D01*
X0007803Y0049494D01*
X0008211Y0048934D01*
X0008700Y0048444D01*
X0009261Y0048037D01*
X0009878Y0047722D01*
X0010536Y0047508D01*
X0011220Y0047400D01*
X0014167Y0047400D01*
X0014167Y0049755D02*
X0014167Y0049755D01*
X0014167Y0051354D02*
X0014167Y0051354D01*
X0014167Y0051800D02*
X0007167Y0051800D01*
X0014167Y0051800D01*
X0014167Y0051800D01*
X0014167Y0052952D02*
X0014167Y0052952D01*
X0014167Y0054551D02*
X0014167Y0054551D01*
X0014167Y0056149D02*
X0014167Y0056149D01*
X0010901Y0056149D02*
X0006167Y0056149D01*
X0006167Y0054551D02*
X0008127Y0054551D01*
X0007315Y0052952D02*
X0006167Y0052952D01*
X0006167Y0051354D02*
X0007182Y0051354D01*
X0007670Y0049755D02*
X0006167Y0049755D01*
X0006167Y0048157D02*
X0009095Y0048157D01*
X0006167Y0046558D02*
X0040449Y0046558D01*
X0039081Y0047926D02*
X0039081Y0047926D01*
X0042047Y0044960D02*
X0006167Y0044960D01*
X0006167Y0043361D02*
X0086768Y0043361D01*
X0085170Y0041763D02*
X0006167Y0041763D01*
X0006167Y0057748D02*
X0009329Y0057748D01*
X0007604Y0059346D02*
X0006167Y0059346D01*
X0006167Y0060945D02*
X0006967Y0060945D01*
X0006967Y0062543D02*
X0006167Y0062543D01*
X0006167Y0064142D02*
X0007558Y0064142D01*
X0006167Y0065740D02*
X0009059Y0065740D01*
X0010316Y0067339D02*
X0006167Y0067339D01*
X0006167Y0068937D02*
X0007924Y0068937D01*
X0007111Y0070536D02*
X0006167Y0070536D01*
X0006167Y0072134D02*
X0006967Y0072134D01*
X0007388Y0073733D02*
X0006167Y0073733D01*
X0006167Y0075332D02*
X0008593Y0075332D01*
X0008961Y0077900D02*
X0007667Y0079194D01*
X0006967Y0080885D01*
X0006967Y0082715D01*
X0007667Y0084406D01*
X0008961Y0085700D01*
X0010652Y0086400D01*
X0017682Y0086400D01*
X0019372Y0085700D01*
X0020666Y0084406D01*
X0021367Y0082715D01*
X0021367Y0080885D01*
X0020666Y0079194D01*
X0019372Y0077900D01*
X0017682Y0077200D01*
X0010652Y0077200D01*
X0008961Y0077900D01*
X0008333Y0078529D02*
X0006167Y0078529D01*
X0006167Y0080127D02*
X0007281Y0080127D01*
X0006967Y0081726D02*
X0006167Y0081726D01*
X0006167Y0083324D02*
X0007219Y0083324D01*
X0008184Y0084923D02*
X0006167Y0084923D01*
X0006167Y0086521D02*
X0021367Y0086521D01*
X0021367Y0084923D02*
X0020149Y0084923D01*
X0021114Y0083324D02*
X0021367Y0083324D01*
X0021367Y0081726D02*
X0021367Y0081726D01*
X0021367Y0080127D02*
X0021053Y0080127D01*
X0021367Y0078529D02*
X0020001Y0078529D01*
X0020337Y0076930D02*
X0006167Y0076930D01*
X0006167Y0088120D02*
X0008742Y0088120D01*
X0008961Y0087900D02*
X0007667Y0089194D01*
X0006967Y0090885D01*
X0006967Y0092715D01*
X0007667Y0094406D01*
X0008961Y0095700D01*
X0010652Y0096400D01*
X0017682Y0096400D01*
X0019372Y0095700D01*
X0020666Y0094406D01*
X0021367Y0092715D01*
X0021367Y0090885D01*
X0020666Y0089194D01*
X0019372Y0087900D01*
X0017682Y0087200D01*
X0010652Y0087200D01*
X0008961Y0087900D01*
X0007450Y0089718D02*
X0006167Y0089718D01*
X0006167Y0091317D02*
X0006967Y0091317D01*
X0007050Y0092915D02*
X0006167Y0092915D01*
X0006167Y0094514D02*
X0007775Y0094514D01*
X0006167Y0096112D02*
X0009957Y0096112D01*
X0010652Y0097200D02*
X0008961Y0097900D01*
X0007667Y0099194D01*
X0006967Y0100885D01*
X0006967Y0102715D01*
X0007667Y0104406D01*
X0008961Y0105700D01*
X0010652Y0106400D01*
X0017682Y0106400D01*
X0019372Y0105700D01*
X0020666Y0104406D01*
X0021367Y0102715D01*
X0021367Y0100885D01*
X0020666Y0099194D01*
X0019372Y0097900D01*
X0017682Y0097200D01*
X0010652Y0097200D01*
X0009419Y0097711D02*
X0006167Y0097711D01*
X0006167Y0099309D02*
X0007619Y0099309D01*
X0006967Y0100908D02*
X0006167Y0100908D01*
X0006167Y0102506D02*
X0006967Y0102506D01*
X0007542Y0104105D02*
X0006167Y0104105D01*
X0006167Y0105703D02*
X0008970Y0105703D01*
X0010406Y0107302D02*
X0006167Y0107302D01*
X0006167Y0108900D02*
X0007961Y0108900D01*
X0007667Y0109194D02*
X0008961Y0107900D01*
X0010652Y0107200D01*
X0017682Y0107200D01*
X0019372Y0107900D01*
X0020666Y0109194D01*
X0021367Y0110885D01*
X0021367Y0112715D01*
X0020666Y0114406D01*
X0019372Y0115700D01*
X0017682Y0116400D01*
X0010652Y0116400D01*
X0008961Y0115700D01*
X0007667Y0114406D01*
X0006967Y0112715D01*
X0006967Y0110885D01*
X0007667Y0109194D01*
X0007127Y0110499D02*
X0006167Y0110499D01*
X0006167Y0112097D02*
X0006967Y0112097D01*
X0007373Y0113696D02*
X0006167Y0113696D01*
X0006167Y0115294D02*
X0008556Y0115294D01*
X0008961Y0117900D02*
X0007667Y0119194D01*
X0006967Y0120885D01*
X0006967Y0122715D01*
X0007667Y0124406D01*
X0008961Y0125700D01*
X0010652Y0126400D01*
X0017682Y0126400D01*
X0019372Y0125700D01*
X0020666Y0124406D01*
X0021367Y0122715D01*
X0021367Y0120885D01*
X0020666Y0119194D01*
X0019372Y0117900D01*
X0017682Y0117200D01*
X0010652Y0117200D01*
X0008961Y0117900D01*
X0008370Y0118491D02*
X0006167Y0118491D01*
X0006167Y0116893D02*
X0021367Y0116893D01*
X0021367Y0118491D02*
X0019963Y0118491D01*
X0021037Y0120090D02*
X0021367Y0120090D01*
X0021367Y0121688D02*
X0021367Y0121688D01*
X0021367Y0123287D02*
X0021130Y0123287D01*
X0021367Y0124885D02*
X0020187Y0124885D01*
X0021367Y0126484D02*
X0006167Y0126484D01*
X0006167Y0128082D02*
X0008779Y0128082D01*
X0008961Y0127900D02*
X0007667Y0129194D01*
X0006967Y0130885D01*
X0006967Y0132715D01*
X0007667Y0134406D01*
X0008961Y0135700D01*
X0010652Y0136400D01*
X0017682Y0136400D01*
X0019372Y0135700D01*
X0020666Y0134406D01*
X0021367Y0132715D01*
X0021367Y0130885D01*
X0020666Y0129194D01*
X0019372Y0127900D01*
X0017682Y0127200D01*
X0010652Y0127200D01*
X0008961Y0127900D01*
X0007465Y0129681D02*
X0006167Y0129681D01*
X0006167Y0131279D02*
X0006967Y0131279D01*
X0007034Y0132878D02*
X0006167Y0132878D01*
X0006167Y0134476D02*
X0007738Y0134476D01*
X0006167Y0136075D02*
X0009867Y0136075D01*
X0010652Y0137200D02*
X0008961Y0137900D01*
X0007667Y0139194D01*
X0006967Y0140885D01*
X0006967Y0142715D01*
X0007667Y0144406D01*
X0008961Y0145700D01*
X0010652Y0146400D01*
X0017682Y0146400D01*
X0019372Y0145700D01*
X0020666Y0144406D01*
X0021367Y0142715D01*
X0021367Y0140885D01*
X0020666Y0139194D01*
X0019372Y0137900D01*
X0017682Y0137200D01*
X0010652Y0137200D01*
X0009509Y0137673D02*
X0006167Y0137673D01*
X0006167Y0139272D02*
X0007635Y0139272D01*
X0006973Y0140870D02*
X0006167Y0140870D01*
X0006167Y0142469D02*
X0006967Y0142469D01*
X0007527Y0144068D02*
X0006167Y0144068D01*
X0006167Y0145666D02*
X0008927Y0145666D01*
X0010496Y0147265D02*
X0006167Y0147265D01*
X0006167Y0148863D02*
X0007998Y0148863D01*
X0007142Y0150462D02*
X0006167Y0150462D01*
X0006167Y0152060D02*
X0006967Y0152060D01*
X0007358Y0153659D02*
X0006167Y0153659D01*
X0006167Y0155257D02*
X0008518Y0155257D01*
X0006167Y0156856D02*
X0020867Y0156856D01*
X0020867Y0158454D02*
X0019926Y0158454D01*
X0019815Y0155257D02*
X0020867Y0155257D01*
X0020867Y0148863D02*
X0020335Y0148863D01*
X0020386Y0147265D02*
X0017837Y0147265D01*
X0019406Y0145666D02*
X0020386Y0145666D01*
X0020806Y0144068D02*
X0021367Y0144068D01*
X0021367Y0142469D02*
X0021367Y0142469D01*
X0021361Y0140870D02*
X0021367Y0140870D01*
X0021367Y0139272D02*
X0020698Y0139272D01*
X0021367Y0137673D02*
X0018825Y0137673D01*
X0018466Y0136075D02*
X0021367Y0136075D01*
X0021367Y0134476D02*
X0020596Y0134476D01*
X0021299Y0132878D02*
X0021367Y0132878D01*
X0021367Y0131279D02*
X0021367Y0131279D01*
X0021367Y0129681D02*
X0020868Y0129681D01*
X0021367Y0128082D02*
X0019554Y0128082D01*
X0008147Y0124885D02*
X0006167Y0124885D01*
X0006167Y0123287D02*
X0007204Y0123287D01*
X0006967Y0121688D02*
X0006167Y0121688D01*
X0006167Y0120090D02*
X0007296Y0120090D01*
X0019778Y0115294D02*
X0021367Y0115294D01*
X0021367Y0113696D02*
X0020960Y0113696D01*
X0021367Y0112097D02*
X0021367Y0112097D01*
X0021367Y0110499D02*
X0021207Y0110499D01*
X0021367Y0108900D02*
X0020372Y0108900D01*
X0021367Y0107302D02*
X0017927Y0107302D01*
X0019364Y0105703D02*
X0021367Y0105703D01*
X0021367Y0104105D02*
X0020791Y0104105D01*
X0021367Y0102506D02*
X0021367Y0102506D01*
X0021367Y0100908D02*
X0021367Y0100908D01*
X0021367Y0099309D02*
X0020714Y0099309D01*
X0021367Y0097711D02*
X0018915Y0097711D01*
X0018377Y0096112D02*
X0021367Y0096112D01*
X0021367Y0094514D02*
X0020558Y0094514D01*
X0021284Y0092915D02*
X0021367Y0092915D01*
X0021367Y0091317D02*
X0021367Y0091317D01*
X0021367Y0089718D02*
X0020883Y0089718D01*
X0021367Y0088120D02*
X0019592Y0088120D01*
X0026967Y0083324D02*
X0036886Y0083324D01*
X0036886Y0081726D02*
X0026967Y0081726D01*
X0026967Y0080127D02*
X0037492Y0080127D01*
X0037867Y0078529D02*
X0026967Y0078529D01*
X0043467Y0074200D02*
X0045658Y0074200D01*
X0047767Y0076309D01*
X0047767Y0079291D01*
X0046967Y0080091D01*
X0046967Y0089640D01*
X0047040Y0089714D01*
X0047114Y0089893D01*
X0052293Y0084714D01*
X0052293Y0084714D01*
X0053081Y0083926D01*
X0054110Y0083500D01*
X0055224Y0083500D01*
X0056253Y0083926D01*
X0056826Y0084500D01*
X0061876Y0084500D01*
X0062391Y0083984D01*
X0061793Y0083386D01*
X0061367Y0082357D01*
X0061367Y0076243D01*
X0061793Y0075214D01*
X0062581Y0074426D01*
X0065067Y0071940D01*
X0065067Y0069309D01*
X0067175Y0067200D01*
X0070158Y0067200D01*
X0072267Y0069309D01*
X0072267Y0072291D01*
X0071801Y0072757D01*
X0071540Y0073386D01*
X0071367Y0073559D01*
X0072253Y0073926D01*
X0073040Y0074714D01*
X0092326Y0094000D01*
X0094724Y0094000D01*
X0095753Y0094426D01*
X0096540Y0095214D01*
X0105326Y0104000D01*
X0106019Y0104000D01*
X0105386Y0103366D01*
X0105386Y0101979D01*
X0102581Y0099174D01*
X0101793Y0098386D01*
X0101367Y0097357D01*
X0101367Y0087960D01*
X0097581Y0084174D01*
X0096793Y0083386D01*
X0096367Y0082357D01*
X0096367Y0069600D01*
X0096110Y0069600D01*
X0095081Y0069174D01*
X0094293Y0068386D01*
X0093867Y0067357D01*
X0093867Y0065460D01*
X0088007Y0059600D01*
X0064467Y0059600D01*
X0064467Y0059857D01*
X0064040Y0060886D01*
X0060948Y0063979D01*
X0060948Y0065366D01*
X0058733Y0067581D01*
X0055600Y0067581D01*
X0053386Y0065366D01*
X0053386Y0062234D01*
X0055600Y0060019D01*
X0056988Y0060019D01*
X0058867Y0058140D01*
X0058867Y0056243D01*
X0059293Y0055214D01*
X0060081Y0054426D01*
X0061110Y0054000D01*
X0072407Y0054000D01*
X0072293Y0053886D01*
X0068007Y0049600D01*
X0045326Y0049600D01*
X0043467Y0051460D01*
X0043467Y0074200D01*
X0043467Y0073733D02*
X0063274Y0073733D01*
X0062581Y0074426D02*
X0062581Y0074426D01*
X0061744Y0075332D02*
X0046789Y0075332D01*
X0047767Y0076930D02*
X0061367Y0076930D01*
X0061367Y0078529D02*
X0047767Y0078529D01*
X0046967Y0080127D02*
X0061367Y0080127D01*
X0061367Y0081726D02*
X0046967Y0081726D01*
X0046967Y0083324D02*
X0061767Y0083324D01*
X0064167Y0081800D02*
X0064167Y0076800D01*
X0069167Y0071800D01*
X0068667Y0071300D01*
X0068667Y0070800D01*
X0072267Y0070536D02*
X0096367Y0070536D01*
X0096367Y0072134D02*
X0072267Y0072134D01*
X0071786Y0073733D02*
X0096367Y0073733D01*
X0096367Y0075332D02*
X0073658Y0075332D01*
X0075256Y0076930D02*
X0096367Y0076930D01*
X0096367Y0078529D02*
X0076855Y0078529D01*
X0078454Y0080127D02*
X0096367Y0080127D01*
X0096367Y0081726D02*
X0080052Y0081726D01*
X0081651Y0083324D02*
X0096767Y0083324D01*
X0098329Y0084923D02*
X0083249Y0084923D01*
X0084848Y0086521D02*
X0099928Y0086521D01*
X0101367Y0088120D02*
X0086446Y0088120D01*
X0088045Y0089718D02*
X0101367Y0089718D01*
X0101367Y0091317D02*
X0089643Y0091317D01*
X0091242Y0092915D02*
X0101367Y0092915D01*
X0101367Y0094514D02*
X0095840Y0094514D01*
X0096540Y0095214D02*
X0096540Y0095214D01*
X0097439Y0096112D02*
X0101367Y0096112D01*
X0101513Y0097711D02*
X0099037Y0097711D01*
X0100636Y0099309D02*
X0102716Y0099309D01*
X0102234Y0100908D02*
X0104315Y0100908D01*
X0103833Y0102506D02*
X0105386Y0102506D01*
X0109167Y0101800D02*
X0104167Y0096800D01*
X0104167Y0086800D01*
X0099167Y0081800D01*
X0099167Y0066800D01*
X0096667Y0066800D01*
X0096667Y0064300D01*
X0089167Y0056800D01*
X0061667Y0056800D01*
X0061667Y0059300D01*
X0057167Y0063800D01*
X0054674Y0060945D02*
X0043467Y0060945D01*
X0043467Y0062543D02*
X0053386Y0062543D01*
X0053386Y0064142D02*
X0043467Y0064142D01*
X0043467Y0065740D02*
X0053760Y0065740D01*
X0055358Y0067339D02*
X0043467Y0067339D01*
X0043467Y0068937D02*
X0065438Y0068937D01*
X0065067Y0070536D02*
X0043467Y0070536D01*
X0043467Y0072134D02*
X0064872Y0072134D01*
X0067037Y0067339D02*
X0058975Y0067339D01*
X0060573Y0065740D02*
X0093867Y0065740D01*
X0093867Y0067339D02*
X0070297Y0067339D01*
X0071895Y0068937D02*
X0094844Y0068937D01*
X0092549Y0064142D02*
X0060948Y0064142D01*
X0062383Y0062543D02*
X0090950Y0062543D01*
X0089352Y0060945D02*
X0063982Y0060945D01*
X0058867Y0057748D02*
X0043467Y0057748D01*
X0043467Y0059346D02*
X0057660Y0059346D01*
X0058905Y0056149D02*
X0043467Y0056149D01*
X0043467Y0054551D02*
X0059956Y0054551D01*
X0068162Y0049755D02*
X0045171Y0049755D01*
X0043573Y0051354D02*
X0069761Y0051354D01*
X0071359Y0052952D02*
X0043467Y0052952D01*
X0044167Y0077800D02*
X0044167Y0090800D01*
X0044667Y0091300D01*
X0034167Y0101800D01*
X0039167Y0101800D02*
X0039167Y0106800D01*
X0049167Y0116800D01*
X0049167Y0131800D01*
X0049167Y0136800D02*
X0054167Y0131800D01*
X0054167Y0116800D01*
X0057948Y0116893D02*
X0065300Y0116893D01*
X0066898Y0118491D02*
X0057823Y0118491D01*
X0056967Y0120090D02*
X0078497Y0120090D01*
X0080095Y0121688D02*
X0056967Y0121688D01*
X0056967Y0123287D02*
X0081367Y0123287D01*
X0081367Y0124885D02*
X0056967Y0124885D01*
X0056967Y0126484D02*
X0081367Y0126484D01*
X0081667Y0128082D02*
X0056967Y0128082D01*
X0056967Y0129681D02*
X0083088Y0129681D01*
X0084686Y0131279D02*
X0059824Y0131279D01*
X0057509Y0131279D02*
X0056967Y0131279D01*
X0062584Y0132878D02*
X0086018Y0132878D01*
X0084419Y0134476D02*
X0063704Y0134476D01*
X0064210Y0136075D02*
X0084167Y0136075D01*
X0084167Y0137673D02*
X0064210Y0137673D01*
X0063643Y0139272D02*
X0084568Y0139272D01*
X0086166Y0140870D02*
X0062436Y0140870D01*
X0058795Y0142469D02*
X0140038Y0142469D01*
X0138967Y0141600D02*
X0137178Y0141600D01*
X0134367Y0138788D01*
X0134367Y0137000D01*
X0138967Y0137000D01*
X0138967Y0141600D01*
X0138967Y0140870D02*
X0139367Y0140870D01*
X0139367Y0139272D02*
X0138967Y0139272D01*
X0138967Y0137673D02*
X0139367Y0137673D01*
X0139367Y0137000D02*
X0138967Y0137000D01*
X0138967Y0136600D01*
X0139367Y0136600D01*
X0139367Y0137000D01*
X0139367Y0136600D02*
X0143967Y0136600D01*
X0143967Y0134812D01*
X0141155Y0132000D01*
X0139367Y0132000D01*
X0139367Y0136600D01*
X0138967Y0136600D02*
X0138967Y0132000D01*
X0137178Y0132000D01*
X0134367Y0134812D01*
X0134367Y0136600D01*
X0138967Y0136600D01*
X0138967Y0136075D02*
X0139367Y0136075D01*
X0139367Y0134476D02*
X0138967Y0134476D01*
X0138967Y0132878D02*
X0139367Y0132878D01*
X0142033Y0132878D02*
X0147867Y0132878D01*
X0147867Y0134476D02*
X0143631Y0134476D01*
X0143967Y0136075D02*
X0145301Y0136075D01*
X0147867Y0131279D02*
X0127535Y0131279D01*
X0127948Y0129681D02*
X0147867Y0129681D01*
X0147867Y0128082D02*
X0127948Y0128082D01*
X0126886Y0126484D02*
X0126698Y0126484D01*
X0124167Y0129300D02*
X0086667Y0129300D01*
X0084167Y0126800D01*
X0084167Y0121800D01*
X0079167Y0116800D01*
X0069167Y0116800D01*
X0064167Y0111800D01*
X0054167Y0111800D01*
X0049167Y0106800D01*
X0049167Y0096800D01*
X0051971Y0094514D02*
X0078921Y0094514D01*
X0080519Y0096112D02*
X0052767Y0096112D01*
X0052767Y0095309D02*
X0052767Y0098200D01*
X0055658Y0098200D01*
X0056458Y0099000D01*
X0083407Y0099000D01*
X0077307Y0092900D01*
X0076175Y0092900D01*
X0074067Y0090791D01*
X0074067Y0087809D01*
X0076141Y0085734D01*
X0070982Y0080575D01*
X0070658Y0080900D01*
X0067675Y0080900D01*
X0066967Y0080191D01*
X0066967Y0080640D01*
X0070026Y0083700D01*
X0071158Y0083700D01*
X0073267Y0085809D01*
X0073267Y0088791D01*
X0071158Y0090900D01*
X0068175Y0090900D01*
X0066917Y0089641D01*
X0065658Y0090900D01*
X0062675Y0090900D01*
X0061876Y0090100D01*
X0055110Y0090100D01*
X0054909Y0090017D01*
X0051192Y0093734D01*
X0052767Y0095309D01*
X0052767Y0097711D02*
X0082118Y0097711D01*
X0077322Y0092915D02*
X0052011Y0092915D01*
X0053610Y0091317D02*
X0074592Y0091317D01*
X0074067Y0089718D02*
X0072340Y0089718D01*
X0073267Y0088120D02*
X0074067Y0088120D01*
X0073267Y0086521D02*
X0075354Y0086521D01*
X0075329Y0084923D02*
X0072380Y0084923D01*
X0073731Y0083324D02*
X0069651Y0083324D01*
X0068052Y0081726D02*
X0072132Y0081726D01*
X0069167Y0077300D02*
X0070167Y0076300D01*
X0070667Y0076300D01*
X0091167Y0096800D01*
X0094167Y0096800D01*
X0104167Y0106800D01*
X0114167Y0106800D01*
X0119167Y0101800D01*
X0124167Y0101800D01*
X0129167Y0106800D01*
X0129167Y0111800D01*
X0134167Y0106800D02*
X0134167Y0116800D01*
X0124167Y0116800D01*
X0119167Y0121800D01*
X0109167Y0116800D02*
X0104167Y0111800D01*
X0076667Y0111800D01*
X0076167Y0112300D01*
X0063701Y0115294D02*
X0057948Y0115294D01*
X0054167Y0101800D02*
X0089167Y0101800D01*
X0089167Y0100800D01*
X0077667Y0089300D01*
X0069667Y0087300D02*
X0064167Y0081800D01*
X0064167Y0087300D02*
X0055667Y0087300D01*
X0054667Y0086300D01*
X0039167Y0101800D01*
X0047042Y0089718D02*
X0047289Y0089718D01*
X0046967Y0088120D02*
X0048887Y0088120D01*
X0050486Y0086521D02*
X0046967Y0086521D01*
X0046967Y0084923D02*
X0052084Y0084923D01*
X0066840Y0089718D02*
X0066994Y0089718D01*
X0100066Y0064142D02*
X0141417Y0064142D01*
X0140567Y0062543D02*
X0098870Y0062543D01*
X0101758Y0065740D02*
X0186266Y0065740D01*
X0187581Y0064426D02*
X0188610Y0064000D01*
X0189724Y0064000D01*
X0208007Y0064000D01*
X0231793Y0040214D01*
X0232581Y0039426D01*
X0233610Y0039000D01*
X0248007Y0039000D01*
X0250567Y0036440D01*
X0250567Y0036084D01*
X0251115Y0034761D01*
X0252127Y0033748D01*
X0253451Y0033200D01*
X0254883Y0033200D01*
X0256206Y0033748D01*
X0257219Y0034761D01*
X0257767Y0036084D01*
X0257767Y0037516D01*
X0257219Y0038839D01*
X0256206Y0039852D01*
X0254883Y0040400D01*
X0254526Y0040400D01*
X0251540Y0043386D01*
X0250753Y0044174D01*
X0249724Y0044600D01*
X0235326Y0044600D01*
X0231320Y0048606D01*
X0232948Y0050234D01*
X0232948Y0053366D01*
X0230733Y0055581D01*
X0227600Y0055581D01*
X0225973Y0053954D01*
X0210753Y0069174D01*
X0209724Y0069600D01*
X0190326Y0069600D01*
X0176540Y0083386D01*
X0175753Y0084174D01*
X0174724Y0084600D01*
X0163610Y0084600D01*
X0162581Y0084174D01*
X0158007Y0079600D01*
X0126458Y0079600D01*
X0125658Y0080400D01*
X0122675Y0080400D01*
X0120567Y0078291D01*
X0120567Y0075309D01*
X0122675Y0073200D01*
X0125658Y0073200D01*
X0126458Y0074000D01*
X0159724Y0074000D01*
X0160753Y0074426D01*
X0161540Y0075214D01*
X0165326Y0079000D01*
X0173007Y0079000D01*
X0187581Y0064426D01*
X0188267Y0064142D02*
X0156916Y0064142D01*
X0157767Y0062543D02*
X0209463Y0062543D01*
X0211062Y0060945D02*
X0157767Y0060945D01*
X0156804Y0059346D02*
X0212660Y0059346D01*
X0214259Y0057748D02*
X0152767Y0057748D01*
X0152607Y0056149D02*
X0215857Y0056149D01*
X0217456Y0054551D02*
X0152376Y0054551D01*
X0153974Y0052952D02*
X0219054Y0052952D01*
X0220653Y0051354D02*
X0156704Y0051354D01*
X0158302Y0049755D02*
X0222252Y0049755D01*
X0223850Y0048157D02*
X0158767Y0048157D01*
X0158767Y0046558D02*
X0225449Y0046558D01*
X0227047Y0044960D02*
X0157418Y0044960D01*
X0155167Y0047800D02*
X0149167Y0053800D01*
X0149167Y0057800D01*
X0145567Y0057748D02*
X0105448Y0057748D01*
X0105448Y0056149D02*
X0141169Y0056149D01*
X0144167Y0053800D02*
X0142167Y0051800D01*
X0129167Y0051800D01*
X0126570Y0054551D02*
X0104765Y0054551D01*
X0101779Y0052952D02*
X0125386Y0052952D01*
X0125386Y0051354D02*
X0100180Y0051354D01*
X0098582Y0049755D02*
X0125864Y0049755D01*
X0127463Y0048157D02*
X0096983Y0048157D01*
X0096967Y0046558D02*
X0143386Y0046558D01*
X0143386Y0047366D02*
X0143386Y0044234D01*
X0145600Y0042019D01*
X0146988Y0042019D01*
X0153793Y0035214D01*
X0154581Y0034426D01*
X0155610Y0034000D01*
X0188007Y0034000D01*
X0194626Y0027381D01*
X0194626Y0022135D01*
X0194027Y0021887D01*
X0192339Y0020199D01*
X0191426Y0017993D01*
X0191426Y0015607D01*
X0192339Y0013401D01*
X0194027Y0011713D01*
X0196232Y0010800D01*
X0198619Y0010800D01*
X0200824Y0011713D01*
X0202512Y0013401D01*
X0203426Y0015607D01*
X0203426Y0017993D01*
X0202512Y0020199D01*
X0200824Y0021887D01*
X0200226Y0022135D01*
X0200226Y0029098D01*
X0199799Y0030127D01*
X0199012Y0030915D01*
X0190753Y0039174D01*
X0189724Y0039600D01*
X0157326Y0039600D01*
X0150948Y0045979D01*
X0150948Y0047366D01*
X0148733Y0049581D01*
X0145600Y0049581D01*
X0143386Y0047366D01*
X0144176Y0048157D02*
X0130871Y0048157D01*
X0127733Y0039581D02*
X0124600Y0039581D01*
X0122386Y0037366D01*
X0122386Y0034234D01*
X0123789Y0032831D01*
X0123793Y0032820D01*
X0124581Y0032033D01*
X0124591Y0032028D01*
X0124600Y0032019D01*
X0124614Y0032019D01*
X0125610Y0031606D01*
X0126724Y0031606D01*
X0127720Y0032019D01*
X0127733Y0032019D01*
X0127742Y0032028D01*
X0127753Y0032033D01*
X0128540Y0032820D01*
X0128545Y0032831D01*
X0129948Y0034234D01*
X0129948Y0037366D01*
X0127733Y0039581D01*
X0128748Y0038566D02*
X0150441Y0038566D01*
X0148843Y0040164D02*
X0091491Y0040164D01*
X0093089Y0041763D02*
X0147244Y0041763D01*
X0144258Y0043361D02*
X0094688Y0043361D01*
X0096286Y0044960D02*
X0143386Y0044960D01*
X0147167Y0045800D02*
X0156167Y0036800D01*
X0189167Y0036800D01*
X0197426Y0028541D01*
X0197426Y0016800D01*
X0193123Y0020982D02*
X0187249Y0020982D01*
X0188033Y0020199D02*
X0186345Y0021887D01*
X0184140Y0022800D01*
X0181753Y0022800D01*
X0179547Y0021887D01*
X0177860Y0020199D01*
X0176946Y0017993D01*
X0176946Y0015607D01*
X0177860Y0013401D01*
X0179547Y0011713D01*
X0181753Y0010800D01*
X0184140Y0010800D01*
X0186345Y0011713D01*
X0188033Y0013401D01*
X0188946Y0015607D01*
X0188946Y0017993D01*
X0188033Y0020199D01*
X0188370Y0019384D02*
X0192002Y0019384D01*
X0191426Y0017785D02*
X0188946Y0017785D01*
X0188946Y0016187D02*
X0191426Y0016187D01*
X0191848Y0014588D02*
X0188524Y0014588D01*
X0187621Y0012990D02*
X0192751Y0012990D01*
X0194805Y0011391D02*
X0185567Y0011391D01*
X0180326Y0011391D02*
X0173603Y0011391D01*
X0173572Y0011360D02*
X0173907Y0011695D01*
X0174144Y0012105D01*
X0174267Y0012563D01*
X0174267Y0016419D01*
X0168848Y0016419D01*
X0168848Y0017181D01*
X0174267Y0017181D01*
X0174267Y0021037D01*
X0174144Y0021495D01*
X0173907Y0021905D01*
X0173572Y0022240D01*
X0173161Y0022477D01*
X0172704Y0022600D01*
X0168848Y0022600D01*
X0168848Y0017181D01*
X0168086Y0017181D01*
X0168086Y0022600D01*
X0164230Y0022600D01*
X0163772Y0022477D01*
X0163361Y0022240D01*
X0163026Y0021905D01*
X0162789Y0021495D01*
X0162667Y0021037D01*
X0162667Y0017181D01*
X0168085Y0017181D01*
X0168085Y0016419D01*
X0162667Y0016419D01*
X0162667Y0012563D01*
X0162789Y0012105D01*
X0163026Y0011695D01*
X0163361Y0011360D01*
X0163772Y0011123D01*
X0164230Y0011000D01*
X0168086Y0011000D01*
X0168086Y0016419D01*
X0168848Y0016419D01*
X0168848Y0011000D01*
X0172704Y0011000D01*
X0173161Y0011123D01*
X0173572Y0011360D01*
X0174267Y0012990D02*
X0178271Y0012990D01*
X0177368Y0014588D02*
X0174267Y0014588D01*
X0174267Y0016187D02*
X0176946Y0016187D01*
X0176946Y0017785D02*
X0174267Y0017785D01*
X0174267Y0019384D02*
X0177522Y0019384D01*
X0178643Y0020982D02*
X0174267Y0020982D01*
X0172776Y0022581D02*
X0181223Y0022581D01*
X0184669Y0022581D02*
X0194626Y0022581D01*
X0194626Y0024179D02*
X0081967Y0024179D01*
X0081967Y0025778D02*
X0194626Y0025778D01*
X0194626Y0027376D02*
X0081967Y0027376D01*
X0081967Y0028975D02*
X0193032Y0028975D01*
X0191434Y0030573D02*
X0081967Y0030573D01*
X0083498Y0032172D02*
X0124441Y0032172D01*
X0122849Y0033770D02*
X0085097Y0033770D01*
X0086695Y0035369D02*
X0122386Y0035369D01*
X0122386Y0036967D02*
X0088294Y0036967D01*
X0089892Y0038566D02*
X0123585Y0038566D01*
X0126167Y0035800D02*
X0126167Y0034406D01*
X0127892Y0032172D02*
X0189835Y0032172D01*
X0188237Y0033770D02*
X0129484Y0033770D01*
X0129948Y0035369D02*
X0153638Y0035369D01*
X0152040Y0036967D02*
X0129948Y0036967D01*
X0131969Y0022600D02*
X0131068Y0022457D01*
X0130199Y0022175D01*
X0129386Y0021761D01*
X0128647Y0021224D01*
X0128002Y0020578D01*
X0127465Y0019840D01*
X0127051Y0019026D01*
X0126769Y0018158D01*
X0126626Y0017256D01*
X0126626Y0017181D01*
X0132045Y0017181D01*
X0132045Y0022600D01*
X0131969Y0022600D01*
X0132045Y0022581D02*
X0132807Y0022581D01*
X0132807Y0022600D02*
X0132882Y0022600D01*
X0133784Y0022457D01*
X0134652Y0022175D01*
X0135466Y0021761D01*
X0136204Y0021224D01*
X0136850Y0020578D01*
X0137386Y0019840D01*
X0137801Y0019026D01*
X0138083Y0018158D01*
X0138226Y0017256D01*
X0138226Y0017181D01*
X0132807Y0017181D01*
X0132807Y0016419D01*
X0138226Y0016419D01*
X0138226Y0016344D01*
X0138083Y0015442D01*
X0137801Y0014574D01*
X0137386Y0013760D01*
X0136850Y0013022D01*
X0136204Y0012376D01*
X0135466Y0011839D01*
X0134652Y0011425D01*
X0133784Y0011143D01*
X0132882Y0011000D01*
X0132807Y0011000D01*
X0132807Y0016419D01*
X0132045Y0016419D01*
X0132045Y0011000D01*
X0131969Y0011000D01*
X0131068Y0011143D01*
X0130199Y0011425D01*
X0129386Y0011839D01*
X0128647Y0012376D01*
X0128002Y0013022D01*
X0127465Y0013760D01*
X0127051Y0014574D01*
X0126769Y0015442D01*
X0126626Y0016344D01*
X0126626Y0016419D01*
X0132045Y0016419D01*
X0132045Y0017181D01*
X0132807Y0017181D01*
X0132807Y0022600D01*
X0133004Y0022581D02*
X0164157Y0022581D01*
X0162667Y0020982D02*
X0136446Y0020982D01*
X0137619Y0019384D02*
X0162667Y0019384D01*
X0162667Y0017785D02*
X0138142Y0017785D01*
X0138201Y0016187D02*
X0162667Y0016187D01*
X0162667Y0014588D02*
X0137805Y0014588D01*
X0136818Y0012990D02*
X0162667Y0012990D01*
X0163330Y0011391D02*
X0134548Y0011391D01*
X0132807Y0011391D02*
X0132045Y0011391D01*
X0132045Y0012990D02*
X0132807Y0012990D01*
X0132807Y0014588D02*
X0132045Y0014588D01*
X0132045Y0016187D02*
X0132807Y0016187D01*
X0132807Y0017785D02*
X0132045Y0017785D01*
X0132045Y0019384D02*
X0132807Y0019384D01*
X0132807Y0020982D02*
X0132045Y0020982D01*
X0131847Y0022581D02*
X0119669Y0022581D01*
X0119140Y0022800D02*
X0116753Y0022800D01*
X0114547Y0021887D01*
X0112860Y0020199D01*
X0111946Y0017993D01*
X0111946Y0015607D01*
X0112860Y0013401D01*
X0114547Y0011713D01*
X0116753Y0010800D01*
X0119140Y0010800D01*
X0121345Y0011713D01*
X0123033Y0013401D01*
X0123946Y0015607D01*
X0123946Y0017993D01*
X0123033Y0020199D01*
X0121345Y0021887D01*
X0119140Y0022800D01*
X0116223Y0022581D02*
X0108514Y0022581D01*
X0109467Y0020982D02*
X0113643Y0020982D01*
X0112522Y0019384D02*
X0109467Y0019384D01*
X0109467Y0017785D02*
X0111946Y0017785D01*
X0111946Y0016187D02*
X0109467Y0016187D01*
X0109467Y0014588D02*
X0112368Y0014588D01*
X0113271Y0012990D02*
X0109467Y0012990D01*
X0108886Y0011391D02*
X0115326Y0011391D01*
X0120567Y0011391D02*
X0130303Y0011391D01*
X0128034Y0012990D02*
X0122621Y0012990D01*
X0123524Y0014588D02*
X0127046Y0014588D01*
X0126651Y0016187D02*
X0123946Y0016187D01*
X0123946Y0017785D02*
X0126709Y0017785D01*
X0127233Y0019384D02*
X0123370Y0019384D01*
X0122249Y0020982D02*
X0128405Y0020982D01*
X0153565Y0043361D02*
X0228646Y0043361D01*
X0230244Y0041763D02*
X0155164Y0041763D01*
X0156762Y0040164D02*
X0231843Y0040164D01*
X0234167Y0041800D02*
X0249167Y0041800D01*
X0254167Y0036800D01*
X0257470Y0035369D02*
X0292088Y0035369D01*
X0292088Y0036967D02*
X0257767Y0036967D01*
X0257332Y0038566D02*
X0292088Y0038566D01*
X0292088Y0040164D02*
X0255452Y0040164D01*
X0253164Y0041763D02*
X0292088Y0041763D01*
X0292088Y0043361D02*
X0251565Y0043361D01*
X0248441Y0038566D02*
X0191361Y0038566D01*
X0192959Y0036967D02*
X0250040Y0036967D01*
X0250863Y0035369D02*
X0194558Y0035369D01*
X0196156Y0033770D02*
X0252105Y0033770D01*
X0256228Y0033770D02*
X0292088Y0033770D01*
X0292088Y0032172D02*
X0197755Y0032172D01*
X0199353Y0030573D02*
X0292088Y0030573D01*
X0292088Y0028975D02*
X0200226Y0028975D01*
X0200226Y0027376D02*
X0292088Y0027376D01*
X0292088Y0025778D02*
X0200226Y0025778D01*
X0200226Y0024179D02*
X0292088Y0024179D01*
X0292088Y0022581D02*
X0264149Y0022581D01*
X0263619Y0022800D02*
X0261232Y0022800D01*
X0259027Y0021887D01*
X0257339Y0020199D01*
X0256426Y0017993D01*
X0256426Y0015607D01*
X0257339Y0013401D01*
X0259027Y0011713D01*
X0261232Y0010800D01*
X0263619Y0010800D01*
X0265824Y0011713D01*
X0267512Y0013401D01*
X0268426Y0015607D01*
X0268426Y0017993D01*
X0267512Y0020199D01*
X0265824Y0021887D01*
X0263619Y0022800D01*
X0260703Y0022581D02*
X0249669Y0022581D01*
X0249140Y0022800D02*
X0246753Y0022800D01*
X0244547Y0021887D01*
X0242860Y0020199D01*
X0241946Y0017993D01*
X0241946Y0015607D01*
X0242860Y0013401D01*
X0244547Y0011713D01*
X0246753Y0010800D01*
X0249140Y0010800D01*
X0251345Y0011713D01*
X0253033Y0013401D01*
X0253946Y0015607D01*
X0253946Y0017993D01*
X0253033Y0020199D01*
X0251345Y0021887D01*
X0249140Y0022800D01*
X0246223Y0022581D02*
X0237776Y0022581D01*
X0237704Y0022600D02*
X0233848Y0022600D01*
X0233848Y0017181D01*
X0239267Y0017181D01*
X0239267Y0021037D01*
X0239144Y0021495D01*
X0238907Y0021905D01*
X0238572Y0022240D01*
X0238161Y0022477D01*
X0237704Y0022600D01*
X0239267Y0020982D02*
X0243643Y0020982D01*
X0242522Y0019384D02*
X0239267Y0019384D01*
X0239267Y0017785D02*
X0241946Y0017785D01*
X0241946Y0016187D02*
X0239267Y0016187D01*
X0239267Y0016419D02*
X0233848Y0016419D01*
X0233848Y0017181D01*
X0233086Y0017181D01*
X0233086Y0022600D01*
X0229230Y0022600D01*
X0228772Y0022477D01*
X0228361Y0022240D01*
X0228026Y0021905D01*
X0227789Y0021495D01*
X0227667Y0021037D01*
X0227667Y0017181D01*
X0233085Y0017181D01*
X0233085Y0016419D01*
X0227667Y0016419D01*
X0227667Y0012563D01*
X0227789Y0012105D01*
X0228026Y0011695D01*
X0228361Y0011360D01*
X0228772Y0011123D01*
X0229230Y0011000D01*
X0233086Y0011000D01*
X0233086Y0016419D01*
X0233848Y0016419D01*
X0233848Y0011000D01*
X0237704Y0011000D01*
X0238161Y0011123D01*
X0238572Y0011360D01*
X0238907Y0011695D01*
X0239144Y0012105D01*
X0239267Y0012563D01*
X0239267Y0016419D01*
X0239267Y0014588D02*
X0242368Y0014588D01*
X0243271Y0012990D02*
X0239267Y0012990D01*
X0238603Y0011391D02*
X0245326Y0011391D01*
X0250567Y0011391D02*
X0259805Y0011391D01*
X0257751Y0012990D02*
X0252621Y0012990D01*
X0253524Y0014588D02*
X0256848Y0014588D01*
X0256426Y0016187D02*
X0253946Y0016187D01*
X0253946Y0017785D02*
X0256426Y0017785D01*
X0257002Y0019384D02*
X0253370Y0019384D01*
X0252249Y0020982D02*
X0258123Y0020982D01*
X0266729Y0020982D02*
X0292088Y0020982D01*
X0292088Y0019384D02*
X0267850Y0019384D01*
X0268426Y0017785D02*
X0292088Y0017785D01*
X0292088Y0016187D02*
X0268426Y0016187D01*
X0268004Y0014588D02*
X0292088Y0014588D01*
X0292088Y0012990D02*
X0267101Y0012990D01*
X0265046Y0011391D02*
X0292088Y0011391D01*
X0292088Y0044960D02*
X0234967Y0044960D01*
X0233368Y0046558D02*
X0292088Y0046558D01*
X0292088Y0048157D02*
X0231770Y0048157D01*
X0232469Y0049755D02*
X0292088Y0049755D01*
X0292088Y0051354D02*
X0232948Y0051354D01*
X0232948Y0052952D02*
X0292088Y0052952D01*
X0292088Y0054551D02*
X0258265Y0054551D01*
X0258948Y0055234D02*
X0258948Y0058366D01*
X0256733Y0060581D01*
X0254921Y0060581D01*
X0248202Y0067300D01*
X0256286Y0075384D01*
X0256667Y0076303D01*
X0256667Y0080764D01*
X0260202Y0084300D01*
X0268131Y0084300D01*
X0271667Y0080764D01*
X0271667Y0079391D01*
X0270567Y0078291D01*
X0270567Y0075309D01*
X0272675Y0073200D01*
X0275658Y0073200D01*
X0277767Y0075309D01*
X0277767Y0078291D01*
X0276667Y0079391D01*
X0276667Y0082297D01*
X0276286Y0083216D01*
X0271286Y0088216D01*
X0270583Y0088919D01*
X0269664Y0089300D01*
X0258669Y0089300D01*
X0257751Y0088919D01*
X0257047Y0088216D01*
X0252751Y0083919D01*
X0252751Y0083919D01*
X0252047Y0083216D01*
X0251667Y0082297D01*
X0251667Y0077836D01*
X0244667Y0070836D01*
X0241583Y0073919D01*
X0240664Y0074300D01*
X0215202Y0074300D01*
X0207948Y0081554D01*
X0207948Y0083366D01*
X0205733Y0085581D01*
X0202600Y0085581D01*
X0200386Y0083366D01*
X0200386Y0080234D01*
X0202600Y0078019D01*
X0204412Y0078019D01*
X0212047Y0070384D01*
X0212751Y0069681D01*
X0213669Y0069300D01*
X0239131Y0069300D01*
X0242547Y0065884D01*
X0251386Y0057046D01*
X0251386Y0055234D01*
X0253600Y0053019D01*
X0256733Y0053019D01*
X0258948Y0055234D01*
X0258948Y0056149D02*
X0292088Y0056149D01*
X0292088Y0057748D02*
X0258948Y0057748D01*
X0257968Y0059346D02*
X0292088Y0059346D01*
X0292088Y0060945D02*
X0254557Y0060945D01*
X0252959Y0062543D02*
X0292088Y0062543D01*
X0292088Y0064142D02*
X0251360Y0064142D01*
X0249762Y0065740D02*
X0292088Y0065740D01*
X0292088Y0067339D02*
X0248241Y0067339D01*
X0249840Y0068937D02*
X0292088Y0068937D01*
X0292088Y0070536D02*
X0251438Y0070536D01*
X0253037Y0072134D02*
X0292088Y0072134D01*
X0292088Y0073733D02*
X0276191Y0073733D01*
X0277767Y0075332D02*
X0292088Y0075332D01*
X0292088Y0076930D02*
X0277767Y0076930D01*
X0277529Y0078529D02*
X0292088Y0078529D01*
X0292088Y0080127D02*
X0276667Y0080127D01*
X0276667Y0081726D02*
X0292088Y0081726D01*
X0292088Y0083324D02*
X0276178Y0083324D01*
X0274580Y0084923D02*
X0292088Y0084923D01*
X0292088Y0086521D02*
X0272981Y0086521D01*
X0271383Y0088120D02*
X0292088Y0088120D01*
X0292088Y0089718D02*
X0247329Y0089718D01*
X0247668Y0090058D02*
X0248567Y0092226D01*
X0248567Y0102374D01*
X0247668Y0104542D01*
X0246009Y0106202D01*
X0243840Y0107100D01*
X0241493Y0107100D01*
X0239325Y0106202D01*
X0237665Y0104542D01*
X0236767Y0102374D01*
X0236767Y0092226D01*
X0237665Y0090058D01*
X0239325Y0088398D01*
X0241493Y0087500D01*
X0243840Y0087500D01*
X0246009Y0088398D01*
X0247668Y0090058D01*
X0248190Y0091317D02*
X0292088Y0091317D01*
X0292088Y0092915D02*
X0248567Y0092915D01*
X0248567Y0094514D02*
X0292088Y0094514D01*
X0292088Y0096112D02*
X0248567Y0096112D01*
X0248567Y0097711D02*
X0292088Y0097711D01*
X0292088Y0099309D02*
X0248567Y0099309D01*
X0248567Y0100908D02*
X0292088Y0100908D01*
X0292088Y0102506D02*
X0248512Y0102506D01*
X0247850Y0104105D02*
X0292088Y0104105D01*
X0292088Y0105703D02*
X0280398Y0105703D01*
X0280917Y0106222D02*
X0279745Y0105050D01*
X0268588Y0105050D01*
X0267417Y0106222D01*
X0267417Y0117378D01*
X0268588Y0118550D01*
X0279745Y0118550D01*
X0280917Y0117378D01*
X0280917Y0106222D01*
X0280917Y0107302D02*
X0292088Y0107302D01*
X0292088Y0108900D02*
X0280917Y0108900D01*
X0280917Y0110499D02*
X0292088Y0110499D01*
X0292088Y0112097D02*
X0280917Y0112097D01*
X0280917Y0113696D02*
X0292088Y0113696D01*
X0292088Y0115294D02*
X0280917Y0115294D01*
X0280917Y0116893D02*
X0292088Y0116893D01*
X0292088Y0118491D02*
X0279804Y0118491D01*
X0277990Y0125763D02*
X0275509Y0124735D01*
X0272824Y0124735D01*
X0270343Y0125763D01*
X0268444Y0127661D01*
X0267417Y0130142D01*
X0267417Y0132828D01*
X0268444Y0135309D01*
X0270343Y0137207D01*
X0272824Y0138235D01*
X0275509Y0138235D01*
X0277990Y0137207D01*
X0279889Y0135309D01*
X0280917Y0132828D01*
X0280917Y0130142D01*
X0279889Y0127661D01*
X0277990Y0125763D01*
X0278711Y0126484D02*
X0292088Y0126484D01*
X0292088Y0128082D02*
X0280063Y0128082D01*
X0280725Y0129681D02*
X0292088Y0129681D01*
X0292088Y0131279D02*
X0280917Y0131279D01*
X0280896Y0132878D02*
X0292088Y0132878D01*
X0292088Y0134476D02*
X0280234Y0134476D01*
X0279123Y0136075D02*
X0292088Y0136075D01*
X0292088Y0137673D02*
X0276865Y0137673D01*
X0271468Y0137673D02*
X0247284Y0137673D01*
X0247668Y0138058D02*
X0248567Y0140226D01*
X0248567Y0150374D01*
X0247668Y0152542D01*
X0246009Y0154202D01*
X0243840Y0155100D01*
X0241493Y0155100D01*
X0239325Y0154202D01*
X0237665Y0152542D01*
X0236767Y0150374D01*
X0236767Y0140226D01*
X0237665Y0138058D01*
X0239325Y0136398D01*
X0241493Y0135500D01*
X0243840Y0135500D01*
X0246009Y0136398D01*
X0247668Y0138058D01*
X0248171Y0139272D02*
X0292088Y0139272D01*
X0292088Y0140870D02*
X0248567Y0140870D01*
X0248567Y0142469D02*
X0292088Y0142469D01*
X0292088Y0144068D02*
X0248567Y0144068D01*
X0248567Y0145666D02*
X0270125Y0145666D01*
X0270343Y0145448D02*
X0272824Y0144420D01*
X0275509Y0144420D01*
X0277990Y0145448D01*
X0279889Y0147347D01*
X0280917Y0149827D01*
X0280917Y0152513D01*
X0279889Y0154994D01*
X0277990Y0156892D01*
X0275509Y0157920D01*
X0272824Y0157920D01*
X0270343Y0156892D01*
X0268444Y0154994D01*
X0267417Y0152513D01*
X0267417Y0149827D01*
X0268444Y0147347D01*
X0270343Y0145448D01*
X0268526Y0147265D02*
X0248567Y0147265D01*
X0248567Y0148863D02*
X0267816Y0148863D01*
X0267417Y0150462D02*
X0248530Y0150462D01*
X0247868Y0152060D02*
X0267417Y0152060D01*
X0267891Y0153659D02*
X0246552Y0153659D01*
X0238781Y0153659D02*
X0199552Y0153659D01*
X0199009Y0154202D02*
X0196840Y0155100D01*
X0194493Y0155100D01*
X0192325Y0154202D01*
X0190665Y0152542D01*
X0189767Y0150374D01*
X0189767Y0140226D01*
X0190665Y0138058D01*
X0192325Y0136398D01*
X0194493Y0135500D01*
X0196840Y0135500D01*
X0199009Y0136398D01*
X0200668Y0138058D01*
X0201567Y0140226D01*
X0201567Y0150374D01*
X0200668Y0152542D01*
X0199009Y0154202D01*
X0200868Y0152060D02*
X0237465Y0152060D01*
X0236803Y0150462D02*
X0201530Y0150462D01*
X0201567Y0148863D02*
X0236767Y0148863D01*
X0236767Y0147265D02*
X0201567Y0147265D01*
X0201567Y0145666D02*
X0236767Y0145666D01*
X0236767Y0144068D02*
X0201567Y0144068D01*
X0201567Y0142469D02*
X0236767Y0142469D01*
X0236767Y0140870D02*
X0201567Y0140870D01*
X0201171Y0139272D02*
X0237162Y0139272D01*
X0238049Y0137673D02*
X0200284Y0137673D01*
X0198228Y0136075D02*
X0240105Y0136075D01*
X0245228Y0136075D02*
X0269211Y0136075D01*
X0268100Y0134476D02*
X0186967Y0134476D01*
X0186967Y0132878D02*
X0267437Y0132878D01*
X0267417Y0131279D02*
X0186967Y0131279D01*
X0186967Y0129681D02*
X0267608Y0129681D01*
X0268270Y0128082D02*
X0186967Y0128082D01*
X0186967Y0126484D02*
X0269622Y0126484D01*
X0272461Y0124885D02*
X0186967Y0124885D01*
X0186967Y0123287D02*
X0292088Y0123287D01*
X0292088Y0124885D02*
X0275872Y0124885D01*
X0268530Y0118491D02*
X0186967Y0118491D01*
X0186967Y0116893D02*
X0267417Y0116893D01*
X0267417Y0115294D02*
X0186967Y0115294D01*
X0187618Y0113696D02*
X0267417Y0113696D01*
X0267417Y0112097D02*
X0187948Y0112097D01*
X0187948Y0110499D02*
X0267417Y0110499D01*
X0267417Y0108900D02*
X0186614Y0108900D01*
X0184167Y0111800D02*
X0184167Y0191800D01*
X0194167Y0191800D01*
X0199167Y0196800D01*
X0202948Y0196818D02*
X0210650Y0196818D01*
X0212248Y0198417D02*
X0202897Y0198417D01*
X0202948Y0198366D02*
X0202014Y0199300D01*
X0202948Y0200234D01*
X0202948Y0202800D01*
X0214164Y0202800D01*
X0215083Y0203181D01*
X0221286Y0209384D01*
X0221667Y0210303D01*
X0221667Y0210764D01*
X0223616Y0212713D01*
X0225269Y0212713D01*
X0227307Y0213557D01*
X0228866Y0215117D01*
X0229167Y0215842D01*
X0229467Y0215117D01*
X0230930Y0213654D01*
X0230567Y0213291D01*
X0230567Y0210309D01*
X0232675Y0208200D01*
X0234231Y0208200D01*
X0240567Y0201864D01*
X0240567Y0200309D01*
X0241576Y0199300D01*
X0213669Y0199300D01*
X0212751Y0198919D01*
X0208131Y0194300D01*
X0202014Y0194300D01*
X0202948Y0195234D01*
X0202948Y0198366D01*
X0202729Y0200015D02*
X0240860Y0200015D01*
X0240567Y0201614D02*
X0202948Y0201614D01*
X0199167Y0201800D02*
X0119167Y0201800D01*
X0113167Y0201800D01*
X0108167Y0196800D01*
X0109167Y0195800D01*
X0109167Y0186800D01*
X0099167Y0176800D01*
X0098167Y0176800D01*
X0097167Y0175800D01*
X0097167Y0166800D01*
X0117167Y0146800D01*
X0119781Y0144068D02*
X0133447Y0144068D01*
X0131341Y0145666D02*
X0120948Y0145666D01*
X0120948Y0147265D02*
X0129742Y0147265D01*
X0128144Y0148863D02*
X0120451Y0148863D01*
X0119167Y0151800D02*
X0129167Y0151800D01*
X0134167Y0146800D01*
X0139667Y0146800D01*
X0147167Y0139300D01*
X0150667Y0142300D02*
X0136167Y0156800D01*
X0119167Y0156800D01*
X0104167Y0171800D01*
X0106875Y0174439D02*
X0181367Y0174439D01*
X0181367Y0172841D02*
X0107948Y0172841D01*
X0108684Y0171242D02*
X0181367Y0171242D01*
X0181367Y0169644D02*
X0110283Y0169644D01*
X0111881Y0168045D02*
X0181367Y0168045D01*
X0181367Y0166447D02*
X0113480Y0166447D01*
X0115078Y0164848D02*
X0181367Y0164848D01*
X0181367Y0163250D02*
X0116677Y0163250D01*
X0118275Y0161651D02*
X0181367Y0161651D01*
X0181367Y0160053D02*
X0119874Y0160053D01*
X0119167Y0151800D02*
X0104167Y0166800D01*
X0100976Y0169644D02*
X0099967Y0169644D01*
X0099967Y0171242D02*
X0100386Y0171242D01*
X0100386Y0172841D02*
X0099967Y0172841D01*
X0101153Y0174439D02*
X0101459Y0174439D01*
X0102364Y0176038D02*
X0181367Y0176038D01*
X0181367Y0177636D02*
X0103963Y0177636D01*
X0105561Y0179235D02*
X0181367Y0179235D01*
X0181367Y0180833D02*
X0107160Y0180833D01*
X0108758Y0182432D02*
X0181367Y0182432D01*
X0181367Y0184030D02*
X0110357Y0184030D01*
X0110753Y0184426D02*
X0110753Y0184426D01*
X0111712Y0185629D02*
X0181367Y0185629D01*
X0181367Y0187227D02*
X0111967Y0187227D01*
X0111967Y0188826D02*
X0181367Y0188826D01*
X0181367Y0190424D02*
X0111967Y0190424D01*
X0111967Y0192023D02*
X0181367Y0192023D01*
X0182028Y0193621D02*
X0111967Y0193621D01*
X0111967Y0195220D02*
X0193627Y0195220D01*
X0195225Y0196818D02*
X0112145Y0196818D01*
X0113743Y0198417D02*
X0117459Y0198417D01*
X0120875Y0198417D02*
X0195436Y0198417D01*
X0202934Y0195220D02*
X0209051Y0195220D01*
X0212925Y0192023D02*
X0245567Y0192023D01*
X0245897Y0193621D02*
X0214524Y0193621D01*
X0211327Y0190424D02*
X0244255Y0190424D01*
X0248130Y0187227D02*
X0268927Y0187227D01*
X0269543Y0187482D02*
X0267512Y0186641D01*
X0265958Y0185087D01*
X0265117Y0183056D01*
X0265117Y0180858D01*
X0265958Y0178828D01*
X0267512Y0177274D01*
X0269543Y0176432D01*
X0278791Y0176432D01*
X0280821Y0177274D01*
X0282376Y0178828D01*
X0283217Y0180858D01*
X0283217Y0183056D01*
X0282376Y0185087D01*
X0280821Y0186641D01*
X0278791Y0187482D01*
X0269543Y0187482D01*
X0266499Y0185629D02*
X0246531Y0185629D01*
X0251284Y0188826D02*
X0292088Y0188826D01*
X0292088Y0190424D02*
X0252767Y0190424D01*
X0252767Y0192023D02*
X0292088Y0192023D01*
X0292088Y0193621D02*
X0252436Y0193621D01*
X0256122Y0195220D02*
X0292088Y0195220D01*
X0292088Y0196818D02*
X0280483Y0196818D01*
X0282280Y0198417D02*
X0292088Y0198417D01*
X0292088Y0200015D02*
X0282998Y0200015D01*
X0283217Y0201614D02*
X0292088Y0201614D01*
X0292088Y0203212D02*
X0283022Y0203212D01*
X0282337Y0204811D02*
X0292088Y0204811D01*
X0292088Y0206409D02*
X0280621Y0206409D01*
X0278791Y0216432D02*
X0269543Y0216432D01*
X0267512Y0217274D01*
X0265958Y0218828D01*
X0265117Y0220858D01*
X0265117Y0223056D01*
X0265958Y0225087D01*
X0267512Y0226641D01*
X0269543Y0227482D01*
X0278791Y0227482D01*
X0280821Y0226641D01*
X0282376Y0225087D01*
X0283217Y0223056D01*
X0283217Y0220858D01*
X0282376Y0218828D01*
X0280821Y0217274D01*
X0278791Y0216432D01*
X0281147Y0217599D02*
X0292088Y0217599D01*
X0292088Y0216001D02*
X0259403Y0216001D01*
X0261001Y0217599D02*
X0267187Y0217599D01*
X0265805Y0219198D02*
X0261667Y0219198D01*
X0261667Y0220796D02*
X0265143Y0220796D01*
X0265117Y0222395D02*
X0261667Y0222395D01*
X0261667Y0223993D02*
X0265505Y0223993D01*
X0266462Y0225592D02*
X0261667Y0225592D01*
X0261667Y0227190D02*
X0268837Y0227190D01*
X0261667Y0228789D02*
X0292088Y0228789D01*
X0292088Y0230387D02*
X0261667Y0230387D01*
X0262888Y0231986D02*
X0292088Y0231986D01*
X0292088Y0233584D02*
X0264486Y0233584D01*
X0266085Y0235183D02*
X0292088Y0235183D01*
X0292088Y0236781D02*
X0280393Y0236781D01*
X0282242Y0238380D02*
X0292088Y0238380D01*
X0292088Y0239978D02*
X0282982Y0239978D01*
X0283217Y0241577D02*
X0292088Y0241577D01*
X0292088Y0243175D02*
X0283037Y0243175D01*
X0282374Y0244774D02*
X0292088Y0244774D01*
X0292088Y0246372D02*
X0280711Y0246372D01*
X0292088Y0247971D02*
X0253087Y0247971D01*
X0253267Y0246372D02*
X0267623Y0246372D01*
X0265959Y0244774D02*
X0253232Y0244774D01*
X0251633Y0243175D02*
X0265296Y0243175D01*
X0265117Y0241577D02*
X0244710Y0241577D01*
X0244710Y0243175D02*
X0247700Y0243175D01*
X0246102Y0244774D02*
X0244710Y0244774D01*
X0244710Y0246372D02*
X0246059Y0246372D01*
X0244460Y0247971D02*
X0244078Y0247971D01*
X0248334Y0251168D02*
X0292088Y0251168D01*
X0292088Y0252766D02*
X0246736Y0252766D01*
X0251489Y0249569D02*
X0292088Y0249569D01*
X0292088Y0254365D02*
X0204823Y0254365D01*
X0205767Y0255963D02*
X0292088Y0255963D01*
X0292088Y0257562D02*
X0205767Y0257562D01*
X0204897Y0259160D02*
X0292088Y0259160D01*
X0292088Y0260759D02*
X0149973Y0260759D01*
X0151448Y0262357D02*
X0292088Y0262357D01*
X0292088Y0263956D02*
X0176670Y0263956D01*
X0175733Y0263019D02*
X0177948Y0265234D01*
X0177948Y0268366D01*
X0175733Y0270581D01*
X0172600Y0270581D01*
X0170386Y0268366D01*
X0170386Y0265234D01*
X0172600Y0263019D01*
X0175733Y0263019D01*
X0177948Y0265554D02*
X0292088Y0265554D01*
X0292088Y0267153D02*
X0177948Y0267153D01*
X0177563Y0268751D02*
X0292088Y0268751D01*
X0292088Y0270350D02*
X0175964Y0270350D01*
X0172369Y0270350D02*
X0166964Y0270350D01*
X0167948Y0268751D02*
X0170771Y0268751D01*
X0170386Y0267153D02*
X0167948Y0267153D01*
X0167268Y0265554D02*
X0170386Y0265554D01*
X0171664Y0263956D02*
X0151448Y0263956D01*
X0147667Y0263800D02*
X0145667Y0261800D01*
X0109167Y0261800D01*
X0104167Y0256800D01*
X0104167Y0221800D01*
X0106911Y0219198D02*
X0107638Y0219198D01*
X0107948Y0220796D02*
X0131579Y0220796D01*
X0130567Y0222395D02*
X0107948Y0222395D01*
X0107321Y0223993D02*
X0130567Y0223993D01*
X0131367Y0225592D02*
X0106967Y0225592D01*
X0106967Y0227190D02*
X0134521Y0227190D01*
X0136120Y0228789D02*
X0106967Y0228789D01*
X0106967Y0230387D02*
X0139218Y0230387D01*
X0140817Y0231986D02*
X0106967Y0231986D01*
X0106967Y0233584D02*
X0141667Y0233584D01*
X0141667Y0235183D02*
X0106967Y0235183D01*
X0106967Y0236781D02*
X0141667Y0236781D01*
X0141667Y0238380D02*
X0106967Y0238380D01*
X0106967Y0239978D02*
X0141667Y0239978D01*
X0141667Y0241577D02*
X0106967Y0241577D01*
X0106967Y0243175D02*
X0142030Y0243175D01*
X0143605Y0244774D02*
X0106967Y0244774D01*
X0106967Y0246372D02*
X0145203Y0246372D01*
X0146802Y0247971D02*
X0106967Y0247971D01*
X0106967Y0249569D02*
X0151845Y0249569D01*
X0156489Y0249569D02*
X0166667Y0249569D01*
X0166667Y0251168D02*
X0106967Y0251168D01*
X0106967Y0252766D02*
X0166861Y0252766D01*
X0172196Y0254365D02*
X0106967Y0254365D01*
X0107290Y0255963D02*
X0173794Y0255963D01*
X0175393Y0257562D02*
X0108888Y0257562D01*
X0104166Y0260759D02*
X0061967Y0260759D01*
X0061967Y0262064D02*
X0064902Y0265000D01*
X0143886Y0265000D01*
X0143886Y0264600D01*
X0108610Y0264600D01*
X0107581Y0264174D01*
X0106793Y0263386D01*
X0101793Y0258386D01*
X0101367Y0257357D01*
X0101367Y0240581D01*
X0096557Y0240581D01*
X0095386Y0239410D01*
X0095386Y0234190D01*
X0096367Y0233209D01*
X0096367Y0214347D01*
X0095386Y0213366D01*
X0095386Y0210234D01*
X0097600Y0208019D01*
X0100733Y0208019D01*
X0101367Y0208653D01*
X0101367Y0199947D01*
X0100733Y0200581D01*
X0097600Y0200581D01*
X0096619Y0199600D01*
X0086714Y0199600D01*
X0085733Y0200581D01*
X0082600Y0200581D01*
X0080386Y0198366D01*
X0080386Y0195234D01*
X0082600Y0193019D01*
X0085733Y0193019D01*
X0086714Y0194000D01*
X0096619Y0194000D01*
X0097600Y0193019D01*
X0100733Y0193019D01*
X0101367Y0193653D01*
X0101367Y0192960D01*
X0091793Y0183386D01*
X0091367Y0182357D01*
X0091367Y0161243D01*
X0091793Y0160214D01*
X0096367Y0155640D01*
X0096367Y0152960D01*
X0095948Y0152541D01*
X0095948Y0153366D01*
X0093733Y0155581D01*
X0092345Y0155581D01*
X0089967Y0157960D01*
X0089967Y0179253D01*
X0090948Y0180234D01*
X0090948Y0183366D01*
X0088733Y0185581D01*
X0085600Y0185581D01*
X0083386Y0183366D01*
X0083386Y0180234D01*
X0084367Y0179253D01*
X0084367Y0156243D01*
X0084793Y0155214D01*
X0088386Y0151621D01*
X0088386Y0150234D01*
X0089019Y0149600D01*
X0060926Y0149600D01*
X0071540Y0160214D01*
X0071967Y0161243D01*
X0071967Y0162357D01*
X0071967Y0172357D01*
X0071540Y0173386D01*
X0070753Y0174174D01*
X0065753Y0179174D01*
X0064724Y0179600D01*
X0058610Y0179600D01*
X0057581Y0179174D01*
X0056110Y0177704D01*
X0055614Y0178200D01*
X0055658Y0178200D01*
X0057767Y0180309D01*
X0057767Y0183291D01*
X0057058Y0184000D01*
X0059724Y0184000D01*
X0060753Y0184426D01*
X0065753Y0189426D01*
X0066540Y0190214D01*
X0066967Y0191243D01*
X0066967Y0230640D01*
X0080326Y0244000D01*
X0091619Y0244000D01*
X0092600Y0243019D01*
X0095733Y0243019D01*
X0097948Y0245234D01*
X0097948Y0248366D01*
X0095733Y0250581D01*
X0092600Y0250581D01*
X0091619Y0249600D01*
X0078610Y0249600D01*
X0077581Y0249174D01*
X0076793Y0248386D01*
X0062581Y0234174D01*
X0062581Y0234174D01*
X0061967Y0233560D01*
X0061967Y0262064D01*
X0062260Y0262357D02*
X0105764Y0262357D01*
X0107363Y0263956D02*
X0063858Y0263956D01*
X0059984Y0267153D02*
X0057349Y0267153D01*
X0055751Y0268751D02*
X0061530Y0268751D01*
X0063006Y0270350D02*
X0037628Y0270350D01*
X0036705Y0271948D02*
X0292088Y0271948D01*
X0263809Y0239978D02*
X0261080Y0239978D01*
X0257254Y0239978D02*
X0251080Y0239978D01*
X0247254Y0239978D02*
X0244710Y0239978D01*
X0243090Y0234341D02*
X0249667Y0227764D01*
X0249667Y0226550D01*
X0248866Y0228483D01*
X0247307Y0230043D01*
X0245269Y0230887D01*
X0243064Y0230887D01*
X0241027Y0230043D01*
X0239467Y0228483D01*
X0239167Y0227758D01*
X0238866Y0228483D01*
X0237307Y0230043D01*
X0235269Y0230887D01*
X0233064Y0230887D01*
X0231027Y0230043D01*
X0229467Y0228483D01*
X0229167Y0227758D01*
X0228866Y0228483D01*
X0227307Y0230043D01*
X0225269Y0230887D01*
X0223064Y0230887D01*
X0221027Y0230043D01*
X0219467Y0228483D01*
X0219167Y0227758D01*
X0218866Y0228483D01*
X0217307Y0230043D01*
X0215269Y0230887D01*
X0213064Y0230887D01*
X0211027Y0230043D01*
X0209467Y0228483D01*
X0209167Y0227758D01*
X0208866Y0228483D01*
X0207307Y0230043D01*
X0205269Y0230887D01*
X0203064Y0230887D01*
X0201027Y0230043D01*
X0199467Y0228483D01*
X0199167Y0227758D01*
X0198866Y0228483D01*
X0197307Y0230043D01*
X0195269Y0230887D01*
X0193064Y0230887D01*
X0191667Y0230308D01*
X0191667Y0233292D01*
X0192307Y0233557D01*
X0193866Y0235117D01*
X0194167Y0235842D01*
X0194467Y0235117D01*
X0196027Y0233557D01*
X0198064Y0232713D01*
X0200269Y0232713D01*
X0202307Y0233557D01*
X0203866Y0235117D01*
X0204271Y0236095D01*
X0204597Y0235456D01*
X0205091Y0234776D01*
X0205686Y0234181D01*
X0206366Y0233687D01*
X0207116Y0233305D01*
X0207915Y0233045D01*
X0208746Y0232913D01*
X0208786Y0232913D01*
X0208786Y0241419D01*
X0209548Y0241419D01*
X0209548Y0232913D01*
X0209587Y0232913D01*
X0210418Y0233045D01*
X0211218Y0233305D01*
X0211967Y0233687D01*
X0212648Y0234181D01*
X0213242Y0234776D01*
X0213737Y0235456D01*
X0214062Y0236095D01*
X0214467Y0235117D01*
X0216027Y0233557D01*
X0218064Y0232713D01*
X0220269Y0232713D01*
X0222307Y0233557D01*
X0223866Y0235117D01*
X0224167Y0235842D01*
X0224467Y0235117D01*
X0226027Y0233557D01*
X0228064Y0232713D01*
X0230269Y0232713D01*
X0232307Y0233557D01*
X0233866Y0235117D01*
X0234167Y0235842D01*
X0234467Y0235117D01*
X0236027Y0233557D01*
X0238064Y0232713D01*
X0240269Y0232713D01*
X0242307Y0233557D01*
X0243090Y0234341D01*
X0242334Y0233584D02*
X0243847Y0233584D01*
X0245445Y0231986D02*
X0191667Y0231986D01*
X0191667Y0230387D02*
X0191858Y0230387D01*
X0192334Y0233584D02*
X0196000Y0233584D01*
X0194440Y0235183D02*
X0193893Y0235183D01*
X0196475Y0230387D02*
X0201858Y0230387D01*
X0199773Y0228789D02*
X0198561Y0228789D01*
X0202334Y0233584D02*
X0206567Y0233584D01*
X0208786Y0233584D02*
X0209548Y0233584D01*
X0209548Y0235183D02*
X0208786Y0235183D01*
X0208786Y0236781D02*
X0209548Y0236781D01*
X0209548Y0238380D02*
X0208786Y0238380D01*
X0208786Y0239978D02*
X0209548Y0239978D01*
X0213538Y0235183D02*
X0214440Y0235183D01*
X0216000Y0233584D02*
X0211766Y0233584D01*
X0211858Y0230387D02*
X0206475Y0230387D01*
X0208561Y0228789D02*
X0209773Y0228789D01*
X0204795Y0235183D02*
X0203893Y0235183D01*
X0216475Y0230387D02*
X0221858Y0230387D01*
X0219773Y0228789D02*
X0218561Y0228789D01*
X0222334Y0233584D02*
X0226000Y0233584D01*
X0224440Y0235183D02*
X0223893Y0235183D01*
X0226475Y0230387D02*
X0231858Y0230387D01*
X0229773Y0228789D02*
X0228561Y0228789D01*
X0232334Y0233584D02*
X0236000Y0233584D01*
X0234440Y0235183D02*
X0233893Y0235183D01*
X0236475Y0230387D02*
X0241858Y0230387D01*
X0239773Y0228789D02*
X0238561Y0228789D01*
X0246475Y0230387D02*
X0247044Y0230387D01*
X0248561Y0228789D02*
X0248643Y0228789D01*
X0249402Y0227190D02*
X0249667Y0227190D01*
X0257804Y0214402D02*
X0292088Y0214402D01*
X0292088Y0212803D02*
X0256206Y0212803D01*
X0255767Y0211205D02*
X0292088Y0211205D01*
X0292088Y0209606D02*
X0256451Y0209606D01*
X0257767Y0208008D02*
X0292088Y0208008D01*
X0292088Y0219198D02*
X0282529Y0219198D01*
X0283191Y0220796D02*
X0292088Y0220796D01*
X0292088Y0222395D02*
X0283217Y0222395D01*
X0282829Y0223993D02*
X0292088Y0223993D01*
X0292088Y0225592D02*
X0281871Y0225592D01*
X0279497Y0227190D02*
X0292088Y0227190D01*
X0267940Y0236781D02*
X0267683Y0236781D01*
X0267713Y0206409D02*
X0257767Y0206409D01*
X0257269Y0204811D02*
X0265997Y0204811D01*
X0266054Y0198417D02*
X0259319Y0198417D01*
X0257721Y0196818D02*
X0267851Y0196818D01*
X0257044Y0203212D02*
X0255670Y0203212D01*
X0255445Y0201614D02*
X0252767Y0201614D01*
X0252473Y0200015D02*
X0253847Y0200015D01*
X0239219Y0203212D02*
X0215115Y0203212D01*
X0216713Y0204811D02*
X0237620Y0204811D01*
X0236022Y0206409D02*
X0218312Y0206409D01*
X0219910Y0208008D02*
X0234423Y0208008D01*
X0231269Y0209606D02*
X0221378Y0209606D01*
X0222107Y0211205D02*
X0230567Y0211205D01*
X0230567Y0212803D02*
X0225487Y0212803D01*
X0228151Y0214402D02*
X0230182Y0214402D01*
X0219167Y0191800D02*
X0219167Y0186800D01*
X0209167Y0176800D01*
X0201284Y0188826D02*
X0226101Y0188826D01*
X0225567Y0187227D02*
X0186967Y0187227D01*
X0186967Y0185629D02*
X0225567Y0185629D01*
X0226845Y0184030D02*
X0186967Y0184030D01*
X0186967Y0182432D02*
X0265117Y0182432D01*
X0265127Y0180833D02*
X0186967Y0180833D01*
X0186967Y0179235D02*
X0265789Y0179235D01*
X0267149Y0177636D02*
X0186967Y0177636D01*
X0186967Y0176038D02*
X0292088Y0176038D01*
X0292088Y0177636D02*
X0281184Y0177636D01*
X0282544Y0179235D02*
X0292088Y0179235D01*
X0292088Y0180833D02*
X0283206Y0180833D01*
X0283217Y0182432D02*
X0292088Y0182432D01*
X0292088Y0184030D02*
X0282813Y0184030D01*
X0281834Y0185629D02*
X0292088Y0185629D01*
X0292088Y0187227D02*
X0279407Y0187227D01*
X0265520Y0184030D02*
X0231488Y0184030D01*
X0197050Y0188826D02*
X0186967Y0188826D01*
X0186967Y0174439D02*
X0292088Y0174439D01*
X0292088Y0172841D02*
X0186967Y0172841D01*
X0186967Y0171242D02*
X0292088Y0171242D01*
X0292088Y0169644D02*
X0186967Y0169644D01*
X0186967Y0168045D02*
X0292088Y0168045D01*
X0292088Y0166447D02*
X0186967Y0166447D01*
X0186967Y0164848D02*
X0292088Y0164848D01*
X0292088Y0163250D02*
X0186967Y0163250D01*
X0186967Y0161651D02*
X0292088Y0161651D01*
X0292088Y0160053D02*
X0186967Y0160053D01*
X0186967Y0158454D02*
X0292088Y0158454D01*
X0292088Y0156856D02*
X0278027Y0156856D01*
X0279626Y0155257D02*
X0292088Y0155257D01*
X0292088Y0153659D02*
X0280442Y0153659D01*
X0280917Y0152060D02*
X0292088Y0152060D01*
X0292088Y0150462D02*
X0280917Y0150462D01*
X0280517Y0148863D02*
X0292088Y0148863D01*
X0292088Y0147265D02*
X0279807Y0147265D01*
X0278209Y0145666D02*
X0292088Y0145666D01*
X0270306Y0156856D02*
X0186967Y0156856D01*
X0186967Y0155257D02*
X0268708Y0155257D01*
X0292088Y0121688D02*
X0186967Y0121688D01*
X0186967Y0120090D02*
X0292088Y0120090D01*
X0267417Y0107302D02*
X0142625Y0107302D01*
X0143594Y0108900D02*
X0181719Y0108900D01*
X0180386Y0110499D02*
X0144256Y0110499D01*
X0144367Y0112097D02*
X0180386Y0112097D01*
X0180715Y0113696D02*
X0152910Y0113696D01*
X0154448Y0115294D02*
X0181367Y0115294D01*
X0181367Y0116893D02*
X0154448Y0116893D01*
X0154323Y0118491D02*
X0181367Y0118491D01*
X0181367Y0120090D02*
X0153467Y0120090D01*
X0153467Y0121688D02*
X0181367Y0121688D01*
X0181367Y0123287D02*
X0153467Y0123287D01*
X0153467Y0124885D02*
X0181367Y0124885D01*
X0181367Y0126484D02*
X0153467Y0126484D01*
X0153467Y0128082D02*
X0181367Y0128082D01*
X0181367Y0129681D02*
X0153467Y0129681D01*
X0153467Y0131279D02*
X0181367Y0131279D01*
X0181367Y0132878D02*
X0153467Y0132878D01*
X0153467Y0134476D02*
X0181367Y0134476D01*
X0181367Y0136075D02*
X0153467Y0136075D01*
X0153467Y0137673D02*
X0181367Y0137673D01*
X0181367Y0139272D02*
X0153467Y0139272D01*
X0153467Y0140870D02*
X0181367Y0140870D01*
X0181367Y0142469D02*
X0153467Y0142469D01*
X0152859Y0144068D02*
X0181367Y0144068D01*
X0181367Y0145666D02*
X0151260Y0145666D01*
X0149662Y0147265D02*
X0181367Y0147265D01*
X0181367Y0148863D02*
X0148063Y0148863D01*
X0146465Y0150462D02*
X0181367Y0150462D01*
X0181367Y0152060D02*
X0144866Y0152060D01*
X0143268Y0153659D02*
X0181367Y0153659D01*
X0181367Y0155257D02*
X0141669Y0155257D01*
X0140071Y0156856D02*
X0181367Y0156856D01*
X0181367Y0158454D02*
X0138472Y0158454D01*
X0150667Y0142300D02*
X0150667Y0116800D01*
X0146886Y0116893D02*
X0140460Y0116893D01*
X0142929Y0118491D02*
X0147011Y0118491D01*
X0147867Y0120090D02*
X0143868Y0120090D01*
X0144167Y0121688D02*
X0147867Y0121688D01*
X0147867Y0123287D02*
X0143941Y0123287D01*
X0143105Y0124885D02*
X0147867Y0124885D01*
X0147867Y0126484D02*
X0140931Y0126484D01*
X0139252Y0126484D02*
X0139081Y0126484D01*
X0139081Y0124885D02*
X0139252Y0124885D01*
X0139252Y0123287D02*
X0139081Y0123287D01*
X0137402Y0126484D02*
X0131447Y0126484D01*
X0133435Y0124885D02*
X0135228Y0124885D01*
X0134392Y0123287D02*
X0134179Y0123287D01*
X0132316Y0132878D02*
X0136301Y0132878D01*
X0134702Y0134476D02*
X0133914Y0134476D01*
X0134167Y0136075D02*
X0134367Y0136075D01*
X0134367Y0137673D02*
X0134167Y0137673D01*
X0133766Y0139272D02*
X0134850Y0139272D01*
X0136449Y0140870D02*
X0132167Y0140870D01*
X0126166Y0140870D02*
X0122167Y0140870D01*
X0123766Y0139272D02*
X0124568Y0139272D01*
X0124167Y0137673D02*
X0124167Y0137673D01*
X0124167Y0136075D02*
X0124167Y0136075D01*
X0123914Y0134476D02*
X0124419Y0134476D01*
X0125936Y0132878D02*
X0126018Y0132878D01*
X0122397Y0132878D02*
X0122316Y0132878D01*
X0116018Y0132878D02*
X0112316Y0132878D01*
X0113914Y0134476D02*
X0114419Y0134476D01*
X0114167Y0136075D02*
X0114167Y0136075D01*
X0114167Y0137673D02*
X0114167Y0137673D01*
X0113766Y0139272D02*
X0114568Y0139272D01*
X0116166Y0140870D02*
X0112167Y0140870D01*
X0114552Y0144068D02*
X0094887Y0144068D01*
X0096992Y0145666D02*
X0113386Y0145666D01*
X0112742Y0147265D02*
X0098591Y0147265D01*
X0100189Y0148863D02*
X0111144Y0148863D01*
X0109545Y0150462D02*
X0101643Y0150462D01*
X0101967Y0152060D02*
X0107947Y0152060D01*
X0106348Y0153659D02*
X0101967Y0153659D01*
X0101967Y0155257D02*
X0104750Y0155257D01*
X0103151Y0156856D02*
X0101967Y0156856D01*
X0101553Y0158454D02*
X0101472Y0158454D01*
X0099954Y0160053D02*
X0099874Y0160053D01*
X0098356Y0161651D02*
X0098275Y0161651D01*
X0094167Y0161800D02*
X0099167Y0156800D01*
X0099167Y0151800D01*
X0094167Y0146800D01*
X0064167Y0146800D01*
X0059167Y0146800D01*
X0049167Y0136800D01*
X0044667Y0146800D02*
X0054167Y0146800D01*
X0069167Y0161800D01*
X0069167Y0171800D01*
X0064167Y0176800D01*
X0059167Y0176800D01*
X0057167Y0174800D01*
X0053667Y0174800D01*
X0049167Y0176800D02*
X0039167Y0176800D01*
X0034167Y0181800D02*
X0044167Y0181800D01*
X0049167Y0176800D02*
X0054167Y0181800D01*
X0056693Y0179235D02*
X0057728Y0179235D01*
X0057767Y0180833D02*
X0083386Y0180833D01*
X0083386Y0182432D02*
X0057767Y0182432D01*
X0059797Y0184030D02*
X0084050Y0184030D01*
X0087167Y0181800D02*
X0087167Y0156800D01*
X0092167Y0151800D01*
X0094057Y0155257D02*
X0096367Y0155257D01*
X0096367Y0153659D02*
X0095655Y0153659D01*
X0095151Y0156856D02*
X0091071Y0156856D01*
X0089967Y0158454D02*
X0093553Y0158454D01*
X0091954Y0160053D02*
X0089967Y0160053D01*
X0089967Y0161651D02*
X0091367Y0161651D01*
X0091367Y0163250D02*
X0089967Y0163250D01*
X0089967Y0164848D02*
X0091367Y0164848D01*
X0091367Y0166447D02*
X0089967Y0166447D01*
X0089967Y0168045D02*
X0091367Y0168045D01*
X0091367Y0169644D02*
X0089967Y0169644D01*
X0089967Y0171242D02*
X0091367Y0171242D01*
X0091367Y0172841D02*
X0089967Y0172841D01*
X0089967Y0174439D02*
X0091367Y0174439D01*
X0091367Y0176038D02*
X0089967Y0176038D01*
X0089967Y0177636D02*
X0091367Y0177636D01*
X0091367Y0179235D02*
X0089967Y0179235D01*
X0090948Y0180833D02*
X0091367Y0180833D01*
X0091398Y0182432D02*
X0090948Y0182432D01*
X0090284Y0184030D02*
X0092437Y0184030D01*
X0094036Y0185629D02*
X0061955Y0185629D01*
X0063554Y0187227D02*
X0095634Y0187227D01*
X0097233Y0188826D02*
X0065152Y0188826D01*
X0066628Y0190424D02*
X0098831Y0190424D01*
X0100430Y0192023D02*
X0066967Y0192023D01*
X0066967Y0193621D02*
X0081998Y0193621D01*
X0080399Y0195220D02*
X0066967Y0195220D01*
X0066967Y0196818D02*
X0080386Y0196818D01*
X0080436Y0198417D02*
X0066967Y0198417D01*
X0066967Y0200015D02*
X0082035Y0200015D01*
X0084167Y0196800D02*
X0099167Y0196800D01*
X0101335Y0193621D02*
X0101367Y0193621D01*
X0104167Y0191800D02*
X0094167Y0181800D01*
X0094167Y0161800D01*
X0099967Y0168045D02*
X0100567Y0168045D01*
X0084367Y0168045D02*
X0071967Y0168045D01*
X0071967Y0166447D02*
X0084367Y0166447D01*
X0084367Y0164848D02*
X0071967Y0164848D01*
X0071967Y0163250D02*
X0084367Y0163250D01*
X0084367Y0161651D02*
X0071967Y0161651D01*
X0071379Y0160053D02*
X0084367Y0160053D01*
X0084367Y0158454D02*
X0069781Y0158454D01*
X0068182Y0156856D02*
X0084367Y0156856D01*
X0084775Y0155257D02*
X0066584Y0155257D01*
X0064985Y0153659D02*
X0086348Y0153659D01*
X0087947Y0152060D02*
X0063387Y0152060D01*
X0061788Y0150462D02*
X0088386Y0150462D01*
X0092167Y0140870D02*
X0096166Y0140870D01*
X0094568Y0139272D02*
X0093766Y0139272D01*
X0094167Y0137673D02*
X0094167Y0137673D01*
X0094167Y0136075D02*
X0094167Y0136075D01*
X0093914Y0134476D02*
X0094419Y0134476D01*
X0096018Y0132878D02*
X0092316Y0132878D01*
X0102316Y0132878D02*
X0106018Y0132878D01*
X0104419Y0134476D02*
X0103914Y0134476D01*
X0104167Y0136075D02*
X0104167Y0136075D01*
X0104167Y0137673D02*
X0104167Y0137673D01*
X0103766Y0139272D02*
X0104568Y0139272D01*
X0106166Y0140870D02*
X0102167Y0140870D01*
X0104167Y0121800D02*
X0094167Y0121800D01*
X0112948Y0102506D02*
X0114501Y0102506D01*
X0112948Y0100908D02*
X0116099Y0100908D01*
X0117863Y0099309D02*
X0112023Y0099309D01*
X0109037Y0097711D02*
X0144296Y0097711D01*
X0145567Y0096112D02*
X0107439Y0096112D01*
X0106967Y0094514D02*
X0146362Y0094514D01*
X0149167Y0096800D02*
X0139167Y0106800D01*
X0134167Y0106800D01*
X0133357Y0104105D02*
X0130431Y0104105D01*
X0128833Y0102506D02*
X0139501Y0102506D01*
X0141099Y0100908D02*
X0127234Y0100908D01*
X0125470Y0099309D02*
X0142698Y0099309D01*
X0147420Y0102506D02*
X0189822Y0102506D01*
X0189767Y0102374D02*
X0190665Y0104542D01*
X0192325Y0106202D01*
X0194493Y0107100D01*
X0196840Y0107100D01*
X0199009Y0106202D01*
X0200668Y0104542D01*
X0201567Y0102374D01*
X0201567Y0092226D01*
X0200668Y0090058D01*
X0199009Y0088398D01*
X0196840Y0087500D01*
X0194493Y0087500D01*
X0192325Y0088398D01*
X0190665Y0090058D01*
X0189767Y0092226D01*
X0189767Y0102374D01*
X0189767Y0100908D02*
X0149019Y0100908D01*
X0151749Y0099309D02*
X0189767Y0099309D01*
X0189767Y0097711D02*
X0152767Y0097711D01*
X0152767Y0096112D02*
X0189767Y0096112D01*
X0189767Y0094514D02*
X0151971Y0094514D01*
X0145822Y0104105D02*
X0190484Y0104105D01*
X0191826Y0105703D02*
X0144223Y0105703D01*
X0144010Y0113696D02*
X0148424Y0113696D01*
X0146886Y0115294D02*
X0143026Y0115294D01*
X0161731Y0083324D02*
X0104651Y0083324D01*
X0106249Y0084923D02*
X0201942Y0084923D01*
X0200386Y0083324D02*
X0176602Y0083324D01*
X0178201Y0081726D02*
X0200386Y0081726D01*
X0200492Y0080127D02*
X0179799Y0080127D01*
X0181398Y0078529D02*
X0202091Y0078529D01*
X0205501Y0076930D02*
X0182996Y0076930D01*
X0184595Y0075332D02*
X0207100Y0075332D01*
X0208698Y0073733D02*
X0186193Y0073733D01*
X0187792Y0072134D02*
X0210297Y0072134D01*
X0211895Y0070536D02*
X0189390Y0070536D01*
X0184668Y0067339D02*
X0101967Y0067339D01*
X0101967Y0068937D02*
X0183069Y0068937D01*
X0181471Y0070536D02*
X0101967Y0070536D01*
X0101967Y0072134D02*
X0179872Y0072134D01*
X0178274Y0073733D02*
X0126191Y0073733D01*
X0124167Y0076800D02*
X0159167Y0076800D01*
X0164167Y0081800D01*
X0174167Y0081800D01*
X0189167Y0066800D01*
X0209167Y0066800D01*
X0234167Y0041800D01*
X0231763Y0054551D02*
X0252068Y0054551D01*
X0251386Y0056149D02*
X0223777Y0056149D01*
X0225376Y0054551D02*
X0226570Y0054551D01*
X0222179Y0057748D02*
X0250683Y0057748D01*
X0249085Y0059346D02*
X0220580Y0059346D01*
X0218982Y0060945D02*
X0247486Y0060945D01*
X0245888Y0062543D02*
X0217383Y0062543D01*
X0215784Y0064142D02*
X0244289Y0064142D01*
X0242691Y0065740D02*
X0214186Y0065740D01*
X0212587Y0067339D02*
X0241092Y0067339D01*
X0239494Y0068937D02*
X0210989Y0068937D01*
X0214171Y0075332D02*
X0249163Y0075332D01*
X0250761Y0076930D02*
X0212572Y0076930D01*
X0210974Y0078529D02*
X0251667Y0078529D01*
X0251667Y0080127D02*
X0221854Y0080127D01*
X0222509Y0080398D02*
X0220340Y0079500D01*
X0217993Y0079500D01*
X0215825Y0080398D01*
X0214165Y0082058D01*
X0213267Y0084226D01*
X0213267Y0094374D01*
X0214165Y0096542D01*
X0215825Y0098202D01*
X0217993Y0099100D01*
X0220340Y0099100D01*
X0222509Y0098202D01*
X0224168Y0096542D01*
X0225067Y0094374D01*
X0225067Y0084226D01*
X0224168Y0082058D01*
X0222509Y0080398D01*
X0223836Y0081726D02*
X0251667Y0081726D01*
X0252155Y0083324D02*
X0224693Y0083324D01*
X0225067Y0084923D02*
X0253754Y0084923D01*
X0255352Y0086521D02*
X0225067Y0086521D01*
X0225067Y0088120D02*
X0239997Y0088120D01*
X0238005Y0089718D02*
X0225067Y0089718D01*
X0225067Y0091317D02*
X0237143Y0091317D01*
X0236767Y0092915D02*
X0225067Y0092915D01*
X0225009Y0094514D02*
X0236767Y0094514D01*
X0236767Y0096112D02*
X0224347Y0096112D01*
X0223000Y0097711D02*
X0236767Y0097711D01*
X0236767Y0099309D02*
X0201567Y0099309D01*
X0201567Y0097711D02*
X0215333Y0097711D01*
X0213987Y0096112D02*
X0201567Y0096112D01*
X0201567Y0094514D02*
X0213325Y0094514D01*
X0213267Y0092915D02*
X0201567Y0092915D01*
X0201190Y0091317D02*
X0213267Y0091317D01*
X0213267Y0089718D02*
X0200329Y0089718D01*
X0198336Y0088120D02*
X0213267Y0088120D01*
X0213267Y0086521D02*
X0106967Y0086521D01*
X0106967Y0088120D02*
X0192997Y0088120D01*
X0191005Y0089718D02*
X0106967Y0089718D01*
X0106967Y0091317D02*
X0190143Y0091317D01*
X0189767Y0092915D02*
X0106967Y0092915D01*
X0103052Y0081726D02*
X0160132Y0081726D01*
X0158534Y0080127D02*
X0125931Y0080127D01*
X0122403Y0080127D02*
X0101967Y0080127D01*
X0101967Y0078529D02*
X0120804Y0078529D01*
X0120567Y0076930D02*
X0101967Y0076930D01*
X0101967Y0075332D02*
X0120567Y0075332D01*
X0122142Y0073733D02*
X0101967Y0073733D01*
X0085386Y0048157D02*
X0074483Y0048157D01*
X0072885Y0046558D02*
X0086061Y0046558D01*
X0088367Y0044960D02*
X0071286Y0044960D01*
X0076367Y0030573D02*
X0056200Y0030573D01*
X0054601Y0028975D02*
X0076367Y0028975D01*
X0076367Y0027376D02*
X0053003Y0027376D01*
X0051404Y0025778D02*
X0076367Y0025778D01*
X0079167Y0021800D02*
X0084167Y0016800D01*
X0103467Y0016800D01*
X0097467Y0020982D02*
X0083944Y0020982D01*
X0082346Y0022581D02*
X0098419Y0022581D01*
X0067807Y0020982D02*
X0067045Y0020982D01*
X0067045Y0019384D02*
X0067807Y0019384D01*
X0067807Y0017785D02*
X0067045Y0017785D01*
X0067045Y0016187D02*
X0067807Y0016187D01*
X0067807Y0014588D02*
X0067045Y0014588D01*
X0067045Y0012990D02*
X0067807Y0012990D01*
X0144082Y0049755D02*
X0149252Y0049755D01*
X0150157Y0048157D02*
X0150850Y0048157D01*
X0150948Y0046558D02*
X0151567Y0046558D01*
X0151967Y0044960D02*
X0152916Y0044960D01*
X0147653Y0051354D02*
X0147068Y0051354D01*
X0161658Y0075332D02*
X0176675Y0075332D01*
X0175077Y0076930D02*
X0163256Y0076930D01*
X0164855Y0078529D02*
X0173478Y0078529D01*
X0200850Y0104105D02*
X0237484Y0104105D01*
X0236822Y0102506D02*
X0201512Y0102506D01*
X0201567Y0100908D02*
X0236767Y0100908D01*
X0238826Y0105703D02*
X0199507Y0105703D01*
X0206391Y0084923D02*
X0213267Y0084923D01*
X0213640Y0083324D02*
X0207948Y0083324D01*
X0207948Y0081726D02*
X0214497Y0081726D01*
X0216479Y0080127D02*
X0209375Y0080127D01*
X0241769Y0073733D02*
X0247564Y0073733D01*
X0245966Y0072134D02*
X0243368Y0072134D01*
X0254635Y0073733D02*
X0272142Y0073733D01*
X0270567Y0075332D02*
X0256234Y0075332D01*
X0256667Y0076930D02*
X0270567Y0076930D01*
X0270804Y0078529D02*
X0256667Y0078529D01*
X0256667Y0080127D02*
X0271667Y0080127D01*
X0270706Y0081726D02*
X0257628Y0081726D01*
X0259226Y0083324D02*
X0269107Y0083324D01*
X0257047Y0088216D02*
X0257047Y0088216D01*
X0256951Y0088120D02*
X0245336Y0088120D01*
X0246507Y0105703D02*
X0267935Y0105703D01*
X0193105Y0136075D02*
X0186967Y0136075D01*
X0186967Y0137673D02*
X0191049Y0137673D01*
X0190162Y0139272D02*
X0186967Y0139272D01*
X0186967Y0140870D02*
X0189767Y0140870D01*
X0189767Y0142469D02*
X0186967Y0142469D01*
X0186967Y0144068D02*
X0189767Y0144068D01*
X0189767Y0145666D02*
X0186967Y0145666D01*
X0186967Y0147265D02*
X0189767Y0147265D01*
X0189767Y0148863D02*
X0186967Y0148863D01*
X0186967Y0150462D02*
X0189803Y0150462D01*
X0190465Y0152060D02*
X0186967Y0152060D01*
X0186967Y0153659D02*
X0191781Y0153659D01*
X0159167Y0216800D02*
X0109167Y0216800D01*
X0104167Y0211800D01*
X0104167Y0191800D01*
X0096998Y0193621D02*
X0086335Y0193621D01*
X0086299Y0200015D02*
X0097035Y0200015D01*
X0101299Y0200015D02*
X0101367Y0200015D01*
X0101367Y0201614D02*
X0066967Y0201614D01*
X0066967Y0203212D02*
X0101367Y0203212D01*
X0101367Y0204811D02*
X0066967Y0204811D01*
X0066967Y0206409D02*
X0101367Y0206409D01*
X0101367Y0208008D02*
X0066967Y0208008D01*
X0066967Y0209606D02*
X0096013Y0209606D01*
X0095386Y0211205D02*
X0066967Y0211205D01*
X0066967Y0212803D02*
X0095386Y0212803D01*
X0096367Y0214402D02*
X0066967Y0214402D01*
X0066967Y0216001D02*
X0096367Y0216001D01*
X0096367Y0217599D02*
X0066967Y0217599D01*
X0066967Y0219198D02*
X0096367Y0219198D01*
X0096367Y0220796D02*
X0066967Y0220796D01*
X0066967Y0222395D02*
X0096367Y0222395D01*
X0096367Y0223993D02*
X0066967Y0223993D01*
X0066967Y0225592D02*
X0096367Y0225592D01*
X0096367Y0227190D02*
X0066967Y0227190D01*
X0066967Y0228789D02*
X0096367Y0228789D01*
X0096367Y0230387D02*
X0066967Y0230387D01*
X0068312Y0231986D02*
X0096367Y0231986D01*
X0095992Y0233584D02*
X0069911Y0233584D01*
X0071509Y0235183D02*
X0095386Y0235183D01*
X0095386Y0236781D02*
X0073108Y0236781D01*
X0074706Y0238380D02*
X0095386Y0238380D01*
X0095954Y0239978D02*
X0076305Y0239978D01*
X0077903Y0241577D02*
X0101367Y0241577D01*
X0101367Y0243175D02*
X0095889Y0243175D01*
X0097488Y0244774D02*
X0101367Y0244774D01*
X0101367Y0246372D02*
X0097948Y0246372D01*
X0097948Y0247971D02*
X0101367Y0247971D01*
X0101367Y0249569D02*
X0096745Y0249569D01*
X0094167Y0246800D02*
X0079167Y0246800D01*
X0064167Y0231800D01*
X0064167Y0191800D01*
X0059167Y0186800D01*
X0029167Y0186800D01*
X0024167Y0181800D01*
X0024167Y0171800D01*
X0019167Y0166800D01*
X0023667Y0162300D01*
X0026167Y0168800D02*
X0030167Y0168800D01*
X0033667Y0165300D01*
X0033667Y0153300D01*
X0032167Y0151800D01*
X0054167Y0151800D01*
X0054167Y0166800D01*
X0060167Y0172800D01*
X0065605Y0179235D02*
X0084367Y0179235D01*
X0084367Y0177636D02*
X0067290Y0177636D01*
X0068889Y0176038D02*
X0084367Y0176038D01*
X0084367Y0174439D02*
X0070487Y0174439D01*
X0071766Y0172841D02*
X0084367Y0172841D01*
X0084367Y0171242D02*
X0071967Y0171242D01*
X0071967Y0169644D02*
X0084367Y0169644D01*
X0060430Y0192023D02*
X0042767Y0192023D01*
X0042767Y0190424D02*
X0058831Y0190424D01*
X0056998Y0193621D02*
X0042436Y0193621D01*
X0040838Y0195220D02*
X0055399Y0195220D01*
X0055386Y0196818D02*
X0006167Y0196818D01*
X0006167Y0195220D02*
X0008481Y0195220D01*
X0008961Y0195700D02*
X0007667Y0194406D01*
X0006967Y0192715D01*
X0006967Y0190885D01*
X0007667Y0189194D01*
X0008961Y0187900D01*
X0010652Y0187200D01*
X0017682Y0187200D01*
X0019372Y0187900D01*
X0020666Y0189194D01*
X0021367Y0190885D01*
X0021367Y0192715D01*
X0020666Y0194406D01*
X0019372Y0195700D01*
X0017682Y0196400D01*
X0010652Y0196400D01*
X0008961Y0195700D01*
X0009878Y0197722D02*
X0010536Y0197508D01*
X0011220Y0197400D01*
X0014167Y0197400D01*
X0017113Y0197400D01*
X0017797Y0197508D01*
X0018456Y0197722D01*
X0019073Y0198037D01*
X0019633Y0198444D01*
X0020123Y0198934D01*
X0020530Y0199494D01*
X0020844Y0200111D01*
X0021058Y0200770D01*
X0021167Y0201454D01*
X0021167Y0201800D01*
X0021167Y0202146D01*
X0021058Y0202830D01*
X0020844Y0203489D01*
X0020530Y0204106D01*
X0020123Y0204666D01*
X0019633Y0205156D01*
X0019073Y0205563D01*
X0018456Y0205878D01*
X0017797Y0206092D01*
X0017113Y0206200D01*
X0014167Y0206200D01*
X0014167Y0201800D01*
X0021167Y0201800D01*
X0014167Y0201800D01*
X0014167Y0201800D01*
X0014167Y0201800D01*
X0014167Y0197400D01*
X0014167Y0201800D01*
X0014167Y0201800D01*
X0014167Y0206200D01*
X0011220Y0206200D01*
X0010536Y0206092D01*
X0009878Y0205878D01*
X0009261Y0205563D01*
X0008700Y0205156D01*
X0008211Y0204666D01*
X0007803Y0204106D01*
X0007489Y0203489D01*
X0007275Y0202830D01*
X0007167Y0202146D01*
X0007167Y0201800D01*
X0007167Y0201454D01*
X0007275Y0200770D01*
X0007489Y0200111D01*
X0007803Y0199494D01*
X0008211Y0198934D01*
X0008700Y0198444D01*
X0009261Y0198037D01*
X0009878Y0197722D01*
X0008737Y0198417D02*
X0006167Y0198417D01*
X0006167Y0200015D02*
X0007538Y0200015D01*
X0007167Y0201614D02*
X0006167Y0201614D01*
X0007167Y0201800D02*
X0014167Y0201800D01*
X0014167Y0201800D01*
X0007167Y0201800D01*
X0007399Y0203212D02*
X0006167Y0203212D01*
X0006167Y0204811D02*
X0008355Y0204811D01*
X0006167Y0206409D02*
X0056367Y0206409D01*
X0056367Y0204811D02*
X0019978Y0204811D01*
X0020934Y0203212D02*
X0056367Y0203212D01*
X0056367Y0201614D02*
X0021167Y0201614D01*
X0020796Y0200015D02*
X0056367Y0200015D01*
X0055436Y0198417D02*
X0019596Y0198417D01*
X0019852Y0195220D02*
X0037495Y0195220D01*
X0035897Y0193621D02*
X0020991Y0193621D01*
X0021367Y0192023D02*
X0035567Y0192023D01*
X0035567Y0190424D02*
X0021176Y0190424D01*
X0020298Y0188826D02*
X0027233Y0188826D01*
X0025634Y0187227D02*
X0017748Y0187227D01*
X0017797Y0186092D02*
X0017113Y0186200D01*
X0014167Y0186200D01*
X0014167Y0181800D01*
X0021167Y0181800D01*
X0021167Y0182146D01*
X0021058Y0182830D01*
X0020844Y0183489D01*
X0020530Y0184106D01*
X0020123Y0184666D01*
X0019633Y0185156D01*
X0019073Y0185563D01*
X0018456Y0185878D01*
X0017797Y0186092D01*
X0018944Y0185629D02*
X0024036Y0185629D01*
X0022437Y0184030D02*
X0020568Y0184030D01*
X0021121Y0182432D02*
X0021398Y0182432D01*
X0021167Y0181800D02*
X0014167Y0181800D01*
X0014167Y0181800D01*
X0014167Y0181800D01*
X0014167Y0177400D01*
X0017113Y0177400D01*
X0017797Y0177508D01*
X0018456Y0177722D01*
X0019073Y0178037D01*
X0019633Y0178444D01*
X0020123Y0178934D01*
X0020530Y0179494D01*
X0020844Y0180111D01*
X0021058Y0180770D01*
X0021167Y0181454D01*
X0021167Y0181800D01*
X0021068Y0180833D02*
X0021367Y0180833D01*
X0021367Y0179235D02*
X0020342Y0179235D01*
X0021367Y0177636D02*
X0018191Y0177636D01*
X0018556Y0176038D02*
X0021367Y0176038D01*
X0021367Y0174439D02*
X0020633Y0174439D01*
X0014167Y0177400D02*
X0014167Y0181800D01*
X0014167Y0181800D01*
X0014167Y0186200D01*
X0011220Y0186200D01*
X0010536Y0186092D01*
X0009878Y0185878D01*
X0009261Y0185563D01*
X0008700Y0185156D01*
X0008211Y0184666D01*
X0007803Y0184106D01*
X0007489Y0183489D01*
X0007275Y0182830D01*
X0007167Y0182146D01*
X0007167Y0181800D01*
X0007167Y0181454D01*
X0007275Y0180770D01*
X0007489Y0180111D01*
X0007803Y0179494D01*
X0008211Y0178934D01*
X0008700Y0178444D01*
X0009261Y0178037D01*
X0009878Y0177722D01*
X0010536Y0177508D01*
X0011220Y0177400D01*
X0014167Y0177400D01*
X0014167Y0177636D02*
X0014167Y0177636D01*
X0014167Y0179235D02*
X0014167Y0179235D01*
X0014167Y0180833D02*
X0014167Y0180833D01*
X0014167Y0181800D02*
X0007167Y0181800D01*
X0014167Y0181800D01*
X0014167Y0181800D01*
X0014167Y0182432D02*
X0014167Y0182432D01*
X0014167Y0184030D02*
X0014167Y0184030D01*
X0014167Y0185629D02*
X0014167Y0185629D01*
X0010586Y0187227D02*
X0006167Y0187227D01*
X0006167Y0185629D02*
X0009389Y0185629D01*
X0007765Y0184030D02*
X0006167Y0184030D01*
X0006167Y0182432D02*
X0007212Y0182432D01*
X0007265Y0180833D02*
X0006167Y0180833D01*
X0006167Y0179235D02*
X0007992Y0179235D01*
X0006167Y0177636D02*
X0010143Y0177636D01*
X0009777Y0176038D02*
X0006167Y0176038D01*
X0006167Y0174439D02*
X0007701Y0174439D01*
X0007019Y0172841D02*
X0006167Y0172841D01*
X0006167Y0171242D02*
X0006967Y0171242D01*
X0007481Y0169644D02*
X0006167Y0169644D01*
X0006167Y0168045D02*
X0008816Y0168045D01*
X0006167Y0166447D02*
X0016367Y0166447D01*
X0008109Y0164848D02*
X0006167Y0164848D01*
X0006167Y0163250D02*
X0007188Y0163250D01*
X0006967Y0161651D02*
X0006167Y0161651D01*
X0006167Y0160053D02*
X0007311Y0160053D01*
X0008407Y0158454D02*
X0006167Y0158454D01*
X0029167Y0146800D02*
X0039167Y0146800D01*
X0008035Y0188826D02*
X0006167Y0188826D01*
X0006167Y0190424D02*
X0007157Y0190424D01*
X0006967Y0192023D02*
X0006167Y0192023D01*
X0006167Y0193621D02*
X0007342Y0193621D01*
X0014167Y0198417D02*
X0014167Y0198417D01*
X0014167Y0200015D02*
X0014167Y0200015D01*
X0014167Y0201614D02*
X0014167Y0201614D01*
X0014167Y0203212D02*
X0014167Y0203212D01*
X0014167Y0204811D02*
X0014167Y0204811D01*
X0006167Y0208008D02*
X0056367Y0208008D01*
X0056367Y0209606D02*
X0006167Y0209606D01*
X0006167Y0211205D02*
X0056367Y0211205D01*
X0056367Y0212803D02*
X0006167Y0212803D01*
X0006167Y0214402D02*
X0056367Y0214402D01*
X0056367Y0216001D02*
X0006167Y0216001D01*
X0006167Y0217599D02*
X0056367Y0217599D01*
X0056367Y0219198D02*
X0006167Y0219198D01*
X0006167Y0220796D02*
X0056367Y0220796D01*
X0056367Y0222395D02*
X0006167Y0222395D01*
X0006167Y0223993D02*
X0056367Y0223993D01*
X0056367Y0225592D02*
X0006167Y0225592D01*
X0006167Y0227190D02*
X0056367Y0227190D01*
X0056367Y0228789D02*
X0006167Y0228789D01*
X0006167Y0230387D02*
X0056367Y0230387D01*
X0056367Y0231986D02*
X0030075Y0231986D01*
X0029895Y0231944D02*
X0031023Y0232202D01*
X0032115Y0232584D01*
X0033157Y0233086D01*
X0034136Y0233701D01*
X0035041Y0234423D01*
X0035859Y0235241D01*
X0036580Y0236145D01*
X0037196Y0237125D01*
X0037698Y0238167D01*
X0038080Y0239259D01*
X0038337Y0240387D01*
X0038442Y0241315D01*
X0028967Y0241315D01*
X0028967Y0242915D01*
X0038442Y0242915D01*
X0038337Y0243843D01*
X0038080Y0244971D01*
X0037698Y0246063D01*
X0037196Y0247105D01*
X0036580Y0248085D01*
X0035859Y0248989D01*
X0035041Y0249807D01*
X0034136Y0250528D01*
X0033157Y0251144D01*
X0032115Y0251646D01*
X0031023Y0252028D01*
X0029895Y0252285D01*
X0028967Y0252390D01*
X0028967Y0242915D01*
X0027367Y0242915D01*
X0027367Y0252390D01*
X0026439Y0252285D01*
X0025311Y0252028D01*
X0024219Y0251646D01*
X0023177Y0251144D01*
X0022197Y0250528D01*
X0021292Y0249807D01*
X0020474Y0248989D01*
X0019753Y0248085D01*
X0019138Y0247105D01*
X0018636Y0246063D01*
X0018254Y0244971D01*
X0017996Y0243843D01*
X0017892Y0242915D01*
X0027367Y0242915D01*
X0027367Y0241315D01*
X0028967Y0241315D01*
X0028967Y0231840D01*
X0029895Y0231944D01*
X0028967Y0231986D02*
X0027367Y0231986D01*
X0027367Y0231840D02*
X0027367Y0241315D01*
X0017892Y0241315D01*
X0017996Y0240387D01*
X0018254Y0239259D01*
X0018636Y0238167D01*
X0019138Y0237125D01*
X0019753Y0236145D01*
X0020474Y0235241D01*
X0021292Y0234423D01*
X0022197Y0233701D01*
X0023177Y0233086D01*
X0024219Y0232584D01*
X0025311Y0232202D01*
X0026439Y0231944D01*
X0027367Y0231840D01*
X0026258Y0231986D02*
X0006167Y0231986D01*
X0006167Y0233584D02*
X0022384Y0233584D01*
X0020533Y0235183D02*
X0006167Y0235183D01*
X0006167Y0236781D02*
X0019354Y0236781D01*
X0018561Y0238380D02*
X0006167Y0238380D01*
X0006167Y0239978D02*
X0018089Y0239978D01*
X0017921Y0243175D02*
X0006167Y0243175D01*
X0006167Y0241577D02*
X0027367Y0241577D01*
X0027367Y0243175D02*
X0028967Y0243175D01*
X0028967Y0241577D02*
X0056367Y0241577D01*
X0056367Y0243175D02*
X0038412Y0243175D01*
X0038125Y0244774D02*
X0041936Y0244774D01*
X0041680Y0244897D02*
X0042723Y0244395D01*
X0043815Y0244013D01*
X0044943Y0243756D01*
X0045871Y0243651D01*
X0045871Y0253126D01*
X0036396Y0253126D01*
X0036500Y0252198D01*
X0036758Y0251070D01*
X0037140Y0249978D01*
X0037642Y0248936D01*
X0038257Y0247956D01*
X0038978Y0247052D01*
X0039796Y0246234D01*
X0040701Y0245512D01*
X0041680Y0244897D01*
X0039658Y0246372D02*
X0037549Y0246372D01*
X0038248Y0247971D02*
X0036652Y0247971D01*
X0037337Y0249569D02*
X0035279Y0249569D01*
X0036735Y0251168D02*
X0033107Y0251168D01*
X0036436Y0252766D02*
X0006167Y0252766D01*
X0006167Y0251168D02*
X0023226Y0251168D01*
X0021055Y0249569D02*
X0006167Y0249569D01*
X0006167Y0247971D02*
X0019682Y0247971D01*
X0018785Y0246372D02*
X0006167Y0246372D01*
X0006167Y0244774D02*
X0018209Y0244774D01*
X0027367Y0244774D02*
X0028967Y0244774D01*
X0028967Y0246372D02*
X0027367Y0246372D01*
X0027367Y0247971D02*
X0028967Y0247971D01*
X0028967Y0249569D02*
X0027367Y0249569D01*
X0027367Y0251168D02*
X0028967Y0251168D01*
X0032238Y0255963D02*
X0036571Y0255963D01*
X0037030Y0257562D02*
X0034841Y0257562D01*
X0036439Y0259160D02*
X0037795Y0259160D01*
X0037417Y0260759D02*
X0038945Y0260759D01*
X0038131Y0262357D02*
X0040729Y0262357D01*
X0038560Y0263956D02*
X0044327Y0263956D01*
X0045871Y0263956D02*
X0047471Y0263956D01*
X0049015Y0263956D02*
X0053475Y0263956D01*
X0052612Y0262357D02*
X0055074Y0262357D01*
X0054396Y0260759D02*
X0056367Y0260759D01*
X0056367Y0259160D02*
X0055546Y0259160D01*
X0056311Y0257562D02*
X0056367Y0257562D01*
X0059167Y0261800D02*
X0059167Y0262800D01*
X0059167Y0261800D02*
X0059167Y0196800D01*
X0061335Y0193621D02*
X0061367Y0193621D01*
X0099167Y0211800D02*
X0099167Y0236800D01*
X0092444Y0243175D02*
X0079502Y0243175D01*
X0074779Y0246372D02*
X0061967Y0246372D01*
X0061967Y0244774D02*
X0073181Y0244774D01*
X0071582Y0243175D02*
X0061967Y0243175D01*
X0061967Y0241577D02*
X0069984Y0241577D01*
X0068385Y0239978D02*
X0061967Y0239978D01*
X0061967Y0238380D02*
X0066787Y0238380D01*
X0065188Y0236781D02*
X0061967Y0236781D01*
X0061967Y0235183D02*
X0063590Y0235183D01*
X0061991Y0233584D02*
X0061967Y0233584D01*
X0056367Y0233584D02*
X0033950Y0233584D01*
X0035801Y0235183D02*
X0056367Y0235183D01*
X0056367Y0236781D02*
X0036980Y0236781D01*
X0037772Y0238380D02*
X0056367Y0238380D01*
X0056367Y0239978D02*
X0038244Y0239978D01*
X0045871Y0244774D02*
X0047471Y0244774D01*
X0047471Y0246372D02*
X0045871Y0246372D01*
X0045871Y0247971D02*
X0047471Y0247971D01*
X0047471Y0249569D02*
X0045871Y0249569D01*
X0045871Y0251168D02*
X0047471Y0251168D01*
X0047471Y0252766D02*
X0045871Y0252766D01*
X0045871Y0254365D02*
X0006167Y0254365D01*
X0006167Y0255963D02*
X0024095Y0255963D01*
X0021493Y0257562D02*
X0006167Y0257562D01*
X0006167Y0259160D02*
X0019894Y0259160D01*
X0018916Y0260759D02*
X0006167Y0260759D01*
X0006167Y0262357D02*
X0018202Y0262357D01*
X0017774Y0263956D02*
X0006167Y0263956D01*
X0006167Y0265554D02*
X0017667Y0265554D01*
X0017676Y0267153D02*
X0006167Y0267153D01*
X0006167Y0268751D02*
X0018104Y0268751D01*
X0018706Y0270350D02*
X0006167Y0270350D01*
X0006167Y0271948D02*
X0019628Y0271948D01*
X0045871Y0262357D02*
X0047471Y0262357D01*
X0047471Y0260759D02*
X0045871Y0260759D01*
X0045871Y0259160D02*
X0047471Y0259160D01*
X0047471Y0257562D02*
X0045871Y0257562D01*
X0045871Y0255963D02*
X0047471Y0255963D01*
X0056005Y0249569D02*
X0056367Y0249569D01*
X0056367Y0247971D02*
X0055093Y0247971D01*
X0056367Y0246372D02*
X0053683Y0246372D01*
X0051405Y0244774D02*
X0056367Y0244774D01*
X0061967Y0247971D02*
X0076378Y0247971D01*
X0076793Y0248386D02*
X0076793Y0248386D01*
X0078536Y0249569D02*
X0061967Y0249569D01*
X0061967Y0251168D02*
X0101367Y0251168D01*
X0101367Y0252766D02*
X0061967Y0252766D01*
X0061967Y0254365D02*
X0101367Y0254365D01*
X0101367Y0255963D02*
X0061967Y0255963D01*
X0061967Y0257562D02*
X0101452Y0257562D01*
X0102567Y0259160D02*
X0061967Y0259160D01*
X0064167Y0267800D02*
X0164167Y0267800D01*
X0177332Y0259160D02*
X0146611Y0259160D01*
X0149077Y0243175D02*
X0155195Y0243175D01*
X0154886Y0241577D02*
X0147479Y0241577D01*
X0146667Y0239978D02*
X0154886Y0239978D01*
X0156123Y0238380D02*
X0156240Y0238380D01*
X0157721Y0236781D02*
X0160226Y0236781D01*
X0160875Y0235183D02*
X0161367Y0235183D01*
X0164167Y0236800D02*
X0164167Y0221800D01*
X0159167Y0216800D01*
X0150567Y0220796D02*
X0136754Y0220796D01*
X0137767Y0222395D02*
X0150037Y0222395D01*
X0148438Y0223993D02*
X0138395Y0223993D01*
X0141286Y0225384D02*
X0141286Y0225384D01*
X0141494Y0225592D02*
X0146961Y0225592D01*
X0146667Y0227190D02*
X0143092Y0227190D01*
X0144691Y0228789D02*
X0146667Y0228789D01*
X0146667Y0230387D02*
X0146287Y0230387D01*
X0146667Y0231986D02*
X0146667Y0231986D01*
X0146667Y0233584D02*
X0146667Y0233584D01*
X0146667Y0235183D02*
X0146667Y0235183D01*
X0146667Y0236781D02*
X0146667Y0236781D01*
X0146667Y0238380D02*
X0147211Y0238380D01*
X0158667Y0241300D02*
X0159667Y0241300D01*
X0164167Y0236800D01*
X0106006Y0217599D02*
X0101967Y0217599D01*
X0101967Y0216001D02*
X0104407Y0216001D01*
X0102809Y0214402D02*
X0101967Y0214402D01*
X0028967Y0233584D02*
X0027367Y0233584D01*
X0027367Y0235183D02*
X0028967Y0235183D01*
X0028967Y0236781D02*
X0027367Y0236781D01*
X0027367Y0238380D02*
X0028967Y0238380D01*
X0028967Y0239978D02*
X0027367Y0239978D01*
X0168086Y0022581D02*
X0168848Y0022581D01*
X0168848Y0020982D02*
X0168086Y0020982D01*
X0168086Y0019384D02*
X0168848Y0019384D01*
X0168848Y0017785D02*
X0168086Y0017785D01*
X0168086Y0016187D02*
X0168848Y0016187D01*
X0168848Y0014588D02*
X0168086Y0014588D01*
X0168086Y0012990D02*
X0168848Y0012990D01*
X0168848Y0011391D02*
X0168086Y0011391D01*
X0200046Y0011391D02*
X0228330Y0011391D01*
X0227667Y0012990D02*
X0202101Y0012990D01*
X0203004Y0014588D02*
X0227667Y0014588D01*
X0227667Y0016187D02*
X0203426Y0016187D01*
X0203426Y0017785D02*
X0227667Y0017785D01*
X0227667Y0019384D02*
X0202850Y0019384D01*
X0201729Y0020982D02*
X0227667Y0020982D01*
X0229157Y0022581D02*
X0200226Y0022581D01*
X0233086Y0022581D02*
X0233848Y0022581D01*
X0233848Y0020982D02*
X0233086Y0020982D01*
X0233086Y0019384D02*
X0233848Y0019384D01*
X0233848Y0017785D02*
X0233086Y0017785D01*
X0233086Y0016187D02*
X0233848Y0016187D01*
X0233848Y0014588D02*
X0233086Y0014588D01*
X0233086Y0012990D02*
X0233848Y0012990D01*
X0233848Y0011391D02*
X0233086Y0011391D01*
D24*
X0289167Y0066800D03*
X0274167Y0076800D03*
X0229167Y0186800D03*
X0219167Y0191800D03*
X0199167Y0191800D03*
X0204667Y0209800D03*
X0234167Y0211800D03*
X0244167Y0201800D03*
X0249167Y0201800D03*
X0254167Y0206800D03*
X0252167Y0212300D03*
X0249167Y0191800D03*
X0249167Y0236800D03*
X0259167Y0236800D03*
X0249667Y0246300D03*
X0202167Y0256800D03*
X0169167Y0231800D03*
X0159167Y0231800D03*
X0154167Y0221800D03*
X0166167Y0205300D03*
X0134167Y0223300D03*
X0119167Y0201800D03*
X0119167Y0171800D03*
X0104167Y0166800D03*
X0074167Y0156800D03*
X0054167Y0181800D03*
X0039167Y0176800D03*
X0034167Y0181800D03*
X0039167Y0191800D03*
X0027667Y0164300D03*
X0039167Y0146800D03*
X0049167Y0131800D03*
X0054167Y0101800D03*
X0049167Y0096800D03*
X0034167Y0101800D03*
X0044167Y0077800D03*
X0064167Y0087300D03*
X0069667Y0087300D03*
X0073667Y0090800D03*
X0077667Y0089300D03*
X0080167Y0080800D03*
X0069167Y0077300D03*
X0068667Y0070800D03*
X0074167Y0070800D03*
X0124167Y0076800D03*
X0144167Y0061800D03*
X0149167Y0057800D03*
X0154167Y0061800D03*
X0155167Y0047800D03*
X0149167Y0096800D03*
X0147167Y0139300D03*
X0154167Y0246800D03*
X0019167Y0071800D03*
D25*
X0144167Y0061800D02*
X0154167Y0061800D01*
X0204167Y0081800D02*
X0214167Y0071800D01*
X0240167Y0071800D01*
X0244667Y0067300D01*
X0254167Y0076800D01*
X0254167Y0081800D01*
X0259167Y0086800D01*
X0269167Y0086800D01*
X0274167Y0081800D01*
X0274167Y0076800D01*
X0255167Y0056800D02*
X0244667Y0067300D01*
X0244167Y0186800D02*
X0229167Y0186800D01*
X0244167Y0186800D02*
X0249167Y0191800D01*
X0254167Y0196800D02*
X0214167Y0196800D01*
X0209167Y0191800D01*
X0199167Y0191800D01*
X0213667Y0205300D02*
X0219167Y0210800D01*
X0219167Y0211800D01*
X0224167Y0216800D01*
X0224167Y0221800D01*
X0234167Y0221800D02*
X0234167Y0216800D01*
X0249167Y0201800D01*
X0249167Y0206800D02*
X0249167Y0216800D01*
X0244167Y0221800D01*
X0252167Y0228800D02*
X0252167Y0212300D01*
X0259167Y0219300D01*
X0259167Y0231800D01*
X0269009Y0241643D01*
X0274167Y0241643D01*
X0259167Y0236800D02*
X0249167Y0236800D01*
X0252167Y0228800D02*
X0239167Y0241800D01*
X0244167Y0251800D02*
X0249667Y0246300D01*
X0244167Y0251800D02*
X0184167Y0251800D01*
X0179167Y0246800D01*
X0179167Y0241800D01*
X0179167Y0236800D01*
X0174167Y0231800D01*
X0169167Y0231800D01*
X0159167Y0231800D02*
X0154167Y0236800D01*
X0149167Y0236800D01*
X0149167Y0226800D01*
X0154167Y0221800D01*
X0144167Y0231800D02*
X0139167Y0226800D01*
X0137667Y0226800D01*
X0134167Y0223300D01*
X0144167Y0231800D02*
X0144167Y0241800D01*
X0149167Y0246800D01*
X0154167Y0246800D01*
X0168167Y0246800D01*
X0169167Y0247800D01*
X0169167Y0251800D01*
X0173167Y0251800D01*
X0178167Y0256800D01*
X0202167Y0256800D01*
X0189167Y0241800D02*
X0189167Y0211300D01*
X0190667Y0209800D01*
X0204667Y0209800D01*
X0213667Y0205300D02*
X0166167Y0205300D01*
X0234167Y0211800D02*
X0244167Y0201800D01*
X0249167Y0206800D02*
X0254167Y0206800D01*
X0259167Y0201800D02*
X0254167Y0196800D01*
X0259167Y0201800D02*
X0274009Y0201800D01*
X0274167Y0201643D01*
X0064167Y0267800D02*
X0059167Y0262800D01*
X0059167Y0261800D02*
X0054167Y0266800D01*
X0035230Y0266800D01*
X0034167Y0265737D01*
X0028167Y0265737D01*
D26*
X0099167Y0236800D03*
D27*
X0074167Y0036800D03*
X0254167Y0036800D03*
M02*
