G75*
%MOIN*%
%OFA0B0*%
%FSLAX25Y25*%
%IPPOS*%
%LPD*%
%AMOC8*
5,1,8,0,0,1.08239X$1,22.5*
%
%ADD10C,0.00100*%
%ADD11C,0.01000*%
%ADD12C,0.00300*%
%ADD13C,0.00500*%
%ADD14C,0.00600*%
%ADD15C,0.00400*%
%ADD16R,0.74606X0.06594*%
%ADD17C,0.00800*%
%ADD18C,0.02174*%
%ADD19R,0.02800X0.01600*%
%ADD20C,0.01600*%
%ADD21R,0.01181X0.00591*%
%ADD22R,0.01181X0.01181*%
%ADD23R,0.03400X0.03000*%
D10*
X0119217Y0102429D02*
X0119717Y0102429D01*
X0119467Y0102429D02*
X0119467Y0103930D01*
X0119217Y0103930D02*
X0119717Y0103930D01*
X0120199Y0103680D02*
X0120199Y0102679D01*
X0120449Y0102429D01*
X0120949Y0102429D01*
X0121200Y0102679D01*
X0121672Y0102679D02*
X0121922Y0102429D01*
X0122423Y0102429D01*
X0122673Y0102679D01*
X0122673Y0102929D01*
X0122423Y0103179D01*
X0121922Y0103179D01*
X0121672Y0103430D01*
X0121672Y0103680D01*
X0121922Y0103930D01*
X0122423Y0103930D01*
X0122673Y0103680D01*
X0123145Y0103930D02*
X0123896Y0103930D01*
X0124146Y0103680D01*
X0124146Y0103179D01*
X0123896Y0102929D01*
X0123145Y0102929D01*
X0123145Y0102429D02*
X0123145Y0103930D01*
X0121200Y0103680D02*
X0120949Y0103930D01*
X0120449Y0103930D01*
X0120199Y0103680D01*
X0099137Y0147429D02*
X0098636Y0147429D01*
X0098887Y0147429D02*
X0098887Y0148930D01*
X0099137Y0148930D02*
X0098636Y0148930D01*
X0098164Y0148680D02*
X0097914Y0148930D01*
X0097163Y0148930D01*
X0097163Y0147429D01*
X0097914Y0147429D01*
X0098164Y0147679D01*
X0098164Y0148680D01*
X0096691Y0148930D02*
X0095690Y0148930D01*
X0095218Y0148930D02*
X0094217Y0148930D01*
X0094217Y0147429D01*
X0094217Y0148179D02*
X0094717Y0148179D01*
X0096190Y0147429D02*
X0096190Y0148930D01*
X0184716Y0100233D02*
X0184966Y0100483D01*
X0185216Y0100483D01*
X0185216Y0099482D01*
X0184966Y0099482D02*
X0184716Y0099732D01*
X0184716Y0100233D01*
X0184966Y0099482D02*
X0185466Y0099482D01*
X0185717Y0099732D01*
X0185717Y0100233D01*
X0185717Y0099010D02*
X0185717Y0098259D01*
X0185466Y0098009D01*
X0184966Y0098009D01*
X0184716Y0098259D01*
X0184716Y0099010D01*
X0185967Y0099010D01*
X0186217Y0098760D01*
X0186217Y0098509D01*
X0185717Y0097537D02*
X0185717Y0096786D01*
X0185466Y0096536D01*
X0185216Y0096786D01*
X0185216Y0097537D01*
X0184966Y0097537D02*
X0185717Y0097537D01*
X0184966Y0097537D02*
X0184716Y0097286D01*
X0184716Y0096786D01*
X0184716Y0096054D02*
X0184716Y0095553D01*
X0184466Y0095804D02*
X0185466Y0095804D01*
X0185717Y0096054D01*
X0185717Y0095072D02*
X0185717Y0094571D01*
X0185717Y0094822D02*
X0184215Y0094822D01*
X0184215Y0094571D01*
X0184716Y0093849D02*
X0184716Y0093348D01*
X0184966Y0093098D01*
X0185466Y0093098D01*
X0185717Y0093348D01*
X0185717Y0093849D01*
X0185466Y0094099D01*
X0184966Y0094099D01*
X0184716Y0093849D01*
X0185216Y0092626D02*
X0184215Y0092626D01*
X0184215Y0091625D02*
X0185216Y0091625D01*
X0185717Y0092125D01*
X0185216Y0092626D01*
X0184966Y0089679D02*
X0185717Y0089679D01*
X0184966Y0089679D02*
X0184716Y0089429D01*
X0184716Y0088929D01*
X0184966Y0088678D01*
X0184716Y0088206D02*
X0184716Y0087455D01*
X0184966Y0087205D01*
X0185466Y0087205D01*
X0185717Y0087455D01*
X0185717Y0088206D01*
X0185967Y0088206D02*
X0184716Y0088206D01*
X0184215Y0088678D02*
X0185717Y0088678D01*
X0185967Y0088206D02*
X0186217Y0087956D01*
X0186217Y0087705D01*
X0185717Y0086723D02*
X0185717Y0086223D01*
X0185717Y0086473D02*
X0184716Y0086473D01*
X0184716Y0086223D01*
X0184966Y0085750D02*
X0184966Y0084750D01*
X0185717Y0084750D02*
X0184215Y0084750D01*
X0184215Y0085750D02*
X0185717Y0085750D01*
X0184215Y0086473D02*
X0183965Y0086473D01*
X0209217Y0083930D02*
X0209217Y0082429D01*
X0209217Y0083179D02*
X0210218Y0083179D01*
X0210690Y0083430D02*
X0210940Y0083430D01*
X0210940Y0082429D01*
X0210690Y0082429D02*
X0211190Y0082429D01*
X0211672Y0082679D02*
X0211922Y0082429D01*
X0212673Y0082429D01*
X0212673Y0082179D02*
X0212673Y0083430D01*
X0211922Y0083430D01*
X0211672Y0083179D01*
X0211672Y0082679D01*
X0212173Y0081928D02*
X0212423Y0081928D01*
X0212673Y0082179D01*
X0213145Y0082429D02*
X0213145Y0083930D01*
X0213396Y0083430D02*
X0213896Y0083430D01*
X0214146Y0083179D01*
X0214146Y0082429D01*
X0213145Y0083179D02*
X0213396Y0083430D01*
X0210940Y0083930D02*
X0210940Y0084180D01*
X0210218Y0083930D02*
X0210218Y0082429D01*
X0216092Y0082929D02*
X0216592Y0082429D01*
X0217093Y0082929D01*
X0217093Y0083930D01*
X0217815Y0083430D02*
X0217565Y0083179D01*
X0217565Y0082679D01*
X0217815Y0082429D01*
X0218316Y0082429D01*
X0218566Y0082679D01*
X0218566Y0083179D01*
X0218316Y0083430D01*
X0217815Y0083430D01*
X0219038Y0083930D02*
X0219289Y0083930D01*
X0219289Y0082429D01*
X0219539Y0082429D02*
X0219038Y0082429D01*
X0220271Y0082679D02*
X0220521Y0082429D01*
X0220271Y0082679D02*
X0220271Y0083680D01*
X0220021Y0083430D02*
X0220521Y0083430D01*
X0221253Y0083430D02*
X0221753Y0083430D01*
X0222004Y0083179D01*
X0222004Y0082429D01*
X0221253Y0082429D01*
X0221003Y0082679D01*
X0221253Y0082929D01*
X0222004Y0082929D01*
X0222476Y0082679D02*
X0222726Y0082429D01*
X0223477Y0082429D01*
X0223477Y0082179D02*
X0223477Y0083430D01*
X0222726Y0083430D01*
X0222476Y0083179D01*
X0222476Y0082679D01*
X0222976Y0081928D02*
X0223227Y0081928D01*
X0223477Y0082179D01*
X0223949Y0082679D02*
X0223949Y0083179D01*
X0224199Y0083430D01*
X0224700Y0083430D01*
X0224950Y0083179D01*
X0224950Y0082929D01*
X0223949Y0082929D01*
X0223949Y0082679D02*
X0224199Y0082429D01*
X0224700Y0082429D01*
X0216092Y0082929D02*
X0216092Y0083930D01*
D11*
X0216667Y0109879D02*
X0216667Y0114879D01*
X0216667Y0119879D01*
X0221667Y0119879D01*
X0221667Y0114879D01*
X0221667Y0109879D01*
X0219167Y0148379D02*
X0216667Y0150879D01*
X0215467Y0152179D01*
X0159167Y0192379D02*
X0159167Y0197379D01*
X0154167Y0197379D01*
X0154167Y0207379D01*
X0159167Y0207379D01*
X0159167Y0212379D01*
X0129167Y0212379D01*
X0129167Y0192379D01*
X0159167Y0192379D01*
D12*
X0146607Y0203146D02*
X0146607Y0204380D01*
X0145990Y0204998D01*
X0144756Y0204998D01*
X0144138Y0204380D01*
X0144138Y0203146D01*
X0144756Y0202529D01*
X0145990Y0202529D01*
X0146607Y0203146D01*
X0142917Y0202529D02*
X0142300Y0203146D01*
X0142300Y0205615D01*
X0141683Y0204998D02*
X0142917Y0204998D01*
X0140469Y0204380D02*
X0140469Y0203146D01*
X0139851Y0202529D01*
X0138000Y0202529D01*
X0138000Y0201294D02*
X0138000Y0204998D01*
X0139851Y0204998D01*
X0140469Y0204380D01*
X0136785Y0204380D02*
X0136168Y0204998D01*
X0134934Y0204998D01*
X0134317Y0204380D01*
X0134317Y0203146D01*
X0134934Y0202529D01*
X0136168Y0202529D01*
X0136785Y0203146D01*
X0136785Y0204380D01*
X0128000Y0256294D02*
X0128000Y0259998D01*
X0129851Y0259998D01*
X0130469Y0259380D01*
X0130469Y0258146D01*
X0129851Y0257529D01*
X0128000Y0257529D01*
X0126785Y0258146D02*
X0126785Y0259380D01*
X0126168Y0259998D01*
X0124934Y0259998D01*
X0124317Y0259380D01*
X0124317Y0258146D01*
X0124934Y0257529D01*
X0126168Y0257529D01*
X0126785Y0258146D01*
X0131683Y0259998D02*
X0132917Y0259998D01*
X0132300Y0260615D02*
X0132300Y0258146D01*
X0132917Y0257529D01*
X0134138Y0258146D02*
X0134756Y0257529D01*
X0135990Y0257529D01*
X0136607Y0258146D01*
X0136607Y0259380D01*
X0135990Y0259998D01*
X0134756Y0259998D01*
X0134138Y0259380D01*
X0134138Y0258146D01*
X0062399Y0260080D02*
X0059931Y0260080D01*
X0061165Y0258846D02*
X0061165Y0261314D01*
X0061165Y0251314D02*
X0061165Y0248846D01*
X0059931Y0250080D02*
X0062399Y0250080D01*
X0115017Y0112998D02*
X0115017Y0110529D01*
X0115017Y0111763D02*
X0111313Y0111763D01*
X0112548Y0110529D01*
X0270931Y0093763D02*
X0273399Y0093763D01*
X0272165Y0092529D02*
X0272165Y0094998D01*
D13*
X0267513Y0089938D02*
X0267513Y0084820D01*
X0260820Y0084820D01*
X0260820Y0089938D01*
X0267513Y0089938D01*
X0262986Y0089741D02*
X0262986Y0085017D01*
X0262592Y0085017D02*
X0262592Y0089741D01*
X0262986Y0089741D01*
X0261726Y0080725D02*
X0256608Y0080725D01*
X0256608Y0074032D01*
X0261726Y0074032D01*
X0261726Y0080725D01*
X0261529Y0076198D02*
X0256804Y0076198D01*
X0256804Y0075804D01*
X0261529Y0075804D01*
X0263414Y0179786D02*
X0261913Y0181287D01*
X0266417Y0181287D01*
X0266417Y0179786D02*
X0266417Y0182789D01*
X0266417Y0199286D02*
X0263414Y0202289D01*
X0262663Y0202289D01*
X0261913Y0201538D01*
X0261913Y0200037D01*
X0262663Y0199286D01*
X0266417Y0199286D02*
X0266417Y0202289D01*
X0266417Y0219786D02*
X0266417Y0222789D01*
X0266417Y0221287D02*
X0261913Y0221287D01*
X0263414Y0219786D01*
X0262663Y0239286D02*
X0261913Y0240037D01*
X0261913Y0241538D01*
X0262663Y0242289D01*
X0263414Y0242289D01*
X0266417Y0239286D01*
X0266417Y0242289D01*
X0234119Y0209284D02*
X0234119Y0197473D01*
X0228214Y0197473D01*
X0228214Y0209284D01*
X0234119Y0209284D01*
X0232917Y0204129D02*
X0229417Y0204129D01*
X0231167Y0202629D01*
X0232917Y0204129D01*
X0232917Y0202629D02*
X0229417Y0202629D01*
X0226714Y0189784D02*
X0226714Y0177973D01*
X0232619Y0177973D01*
X0232619Y0189784D01*
X0226714Y0189784D01*
X0224119Y0189784D02*
X0224119Y0177973D01*
X0218214Y0177973D01*
X0218214Y0189784D01*
X0224119Y0189784D01*
X0222917Y0184629D02*
X0219417Y0184629D01*
X0219417Y0183129D02*
X0221167Y0184629D01*
X0222917Y0183129D01*
X0219417Y0183129D01*
X0216119Y0177973D02*
X0210214Y0177973D01*
X0210214Y0189784D01*
X0216119Y0189784D01*
X0216119Y0177973D01*
X0214917Y0183129D02*
X0213167Y0184629D01*
X0211417Y0183129D01*
X0214917Y0183129D01*
X0214917Y0184629D02*
X0211417Y0184629D01*
X0208119Y0188473D02*
X0202214Y0188473D01*
X0202214Y0200284D01*
X0208119Y0200284D01*
X0208119Y0188473D01*
X0210214Y0192473D02*
X0210214Y0204284D01*
X0216119Y0204284D01*
X0216119Y0192473D01*
X0210214Y0192473D01*
X0206917Y0193629D02*
X0205167Y0195129D01*
X0203417Y0193629D01*
X0206917Y0193629D01*
X0206917Y0195129D02*
X0203417Y0195129D01*
X0211417Y0197629D02*
X0213167Y0199129D01*
X0214917Y0197629D01*
X0211417Y0197629D01*
X0211417Y0199129D02*
X0214917Y0199129D01*
X0227917Y0184629D02*
X0231417Y0184629D01*
X0231417Y0183129D02*
X0227917Y0183129D01*
X0229667Y0184629D01*
X0231417Y0183129D01*
X0167119Y0241473D02*
X0161214Y0241473D01*
X0161214Y0253284D01*
X0167119Y0253284D01*
X0167119Y0241473D01*
X0165917Y0246629D02*
X0162417Y0246629D01*
X0164167Y0248129D01*
X0165917Y0246629D01*
X0165917Y0248129D02*
X0162417Y0248129D01*
X0161214Y0256473D02*
X0161214Y0268284D01*
X0167119Y0268284D01*
X0167119Y0256473D01*
X0161214Y0256473D01*
X0162417Y0261629D02*
X0164167Y0263129D01*
X0165917Y0261629D01*
X0162417Y0261629D01*
X0162417Y0263129D02*
X0165917Y0263129D01*
X0083017Y0222379D02*
X0083017Y0216679D01*
X0079167Y0216679D01*
X0059417Y0232379D02*
X0059417Y0240329D01*
X0059415Y0240329D01*
X0059417Y0240329D02*
X0065517Y0240329D01*
X0007917Y0209985D02*
X0007917Y0208483D01*
X0007166Y0207733D01*
X0004163Y0210735D01*
X0007166Y0210735D01*
X0007917Y0209985D01*
X0007166Y0207733D02*
X0004163Y0207733D01*
X0003413Y0208483D01*
X0003413Y0209985D01*
X0004163Y0210735D01*
X0004163Y0206131D02*
X0003413Y0205381D01*
X0003413Y0203879D01*
X0004163Y0203129D01*
X0004163Y0206131D02*
X0004914Y0206131D01*
X0007917Y0203129D01*
X0007917Y0206131D01*
X0114167Y0129379D02*
X0114167Y0115379D01*
X0117167Y0112379D01*
X0122167Y0112379D01*
X0124167Y0114379D01*
X0126167Y0112379D01*
X0132167Y0112379D01*
X0134167Y0114379D01*
X0136167Y0112379D01*
X0141167Y0112379D01*
X0144167Y0115379D01*
X0144167Y0129379D01*
X0141167Y0132379D01*
X0136167Y0132379D01*
X0134167Y0130379D01*
X0132167Y0132379D01*
X0126167Y0132379D01*
X0124167Y0130379D01*
X0122167Y0132379D01*
X0117167Y0132379D01*
X0114167Y0129379D01*
X0007917Y0018631D02*
X0007917Y0015629D01*
X0007917Y0017130D02*
X0003413Y0017130D01*
X0004914Y0015629D01*
D14*
X0009167Y0012379D02*
X0009167Y0021379D01*
X0010167Y0022379D01*
X0009167Y0023379D01*
X0009167Y0031379D01*
X0010167Y0032379D01*
X0009167Y0033379D01*
X0009167Y0041379D01*
X0010167Y0042379D01*
X0009167Y0043379D01*
X0009167Y0051379D01*
X0010167Y0052379D01*
X0009167Y0053379D01*
X0009167Y0061379D01*
X0010167Y0062379D01*
X0009167Y0063379D01*
X0009167Y0071379D01*
X0010167Y0072379D01*
X0009167Y0073379D01*
X0009167Y0081379D01*
X0010167Y0082379D01*
X0009167Y0083379D01*
X0009167Y0091379D01*
X0010167Y0092379D01*
X0009167Y0093379D01*
X0009167Y0101379D01*
X0010167Y0102379D01*
X0009167Y0103379D01*
X0009167Y0111379D01*
X0010167Y0112379D01*
X0009167Y0113379D01*
X0009167Y0121379D01*
X0010167Y0122379D01*
X0009167Y0123379D01*
X0009167Y0131379D01*
X0010167Y0132379D01*
X0009167Y0133379D01*
X0009167Y0141379D01*
X0010167Y0142379D01*
X0009167Y0143379D01*
X0009167Y0151379D01*
X0010167Y0152379D01*
X0009167Y0153379D01*
X0009167Y0161379D01*
X0010167Y0162379D01*
X0009167Y0163379D01*
X0009167Y0171379D01*
X0010167Y0172379D01*
X0009167Y0173379D01*
X0009167Y0181379D01*
X0010167Y0182379D01*
X0009167Y0183379D01*
X0009167Y0191379D01*
X0010167Y0192379D01*
X0009167Y0193379D01*
X0009167Y0201379D01*
X0010167Y0202379D01*
X0009167Y0203379D01*
X0009167Y0212379D01*
X0019167Y0212379D01*
X0019167Y0203379D01*
X0018167Y0202379D01*
X0019167Y0201379D01*
X0019167Y0193379D01*
X0018167Y0192379D01*
X0019167Y0191379D01*
X0019167Y0183379D01*
X0018167Y0182379D01*
X0019167Y0181379D01*
X0019167Y0173379D01*
X0018167Y0172379D01*
X0019167Y0171379D01*
X0019167Y0163379D01*
X0018167Y0162379D01*
X0019167Y0161379D01*
X0019167Y0153379D01*
X0018167Y0152379D01*
X0019167Y0151379D01*
X0019167Y0143379D01*
X0018167Y0142379D01*
X0019167Y0141379D01*
X0019167Y0133379D01*
X0018167Y0132379D01*
X0019167Y0131379D01*
X0019167Y0123379D01*
X0018167Y0122379D01*
X0019167Y0121379D01*
X0019167Y0113379D01*
X0018167Y0112379D01*
X0019167Y0111379D01*
X0019167Y0103379D01*
X0018167Y0102379D01*
X0019167Y0101379D01*
X0019167Y0093379D01*
X0018167Y0092379D01*
X0019167Y0091379D01*
X0019167Y0083379D01*
X0018167Y0082379D01*
X0019167Y0081379D01*
X0019167Y0073379D01*
X0018167Y0072379D01*
X0019167Y0071379D01*
X0019167Y0063379D01*
X0018167Y0062379D01*
X0019167Y0061379D01*
X0019167Y0053379D01*
X0018167Y0052379D01*
X0019167Y0051379D01*
X0019167Y0043379D01*
X0018167Y0042379D01*
X0019167Y0041379D01*
X0019167Y0033379D01*
X0018167Y0032379D01*
X0019167Y0031379D01*
X0019167Y0023379D01*
X0018167Y0022379D01*
X0019167Y0021379D01*
X0019167Y0012379D01*
X0009167Y0012379D01*
X0024682Y0010800D02*
X0024682Y0020202D01*
X0024682Y0046202D01*
X0024682Y0047001D01*
X0083682Y0047001D01*
X0083682Y0046202D01*
X0083682Y0020202D01*
X0083682Y0010800D01*
X0024682Y0010800D01*
X0024682Y0020202D02*
X0030982Y0020202D01*
X0037982Y0020202D02*
X0050682Y0020202D01*
X0057682Y0020202D02*
X0070383Y0020202D01*
X0077383Y0020202D02*
X0083682Y0020202D01*
X0089682Y0020202D02*
X0089682Y0046202D01*
X0089682Y0047001D01*
X0148682Y0047001D01*
X0148682Y0046202D01*
X0148682Y0020202D01*
X0148682Y0010800D01*
X0089682Y0010800D01*
X0089682Y0020202D01*
X0095982Y0020202D01*
X0102982Y0020202D02*
X0115682Y0020202D01*
X0122682Y0020202D02*
X0135383Y0020202D01*
X0142383Y0020202D02*
X0148682Y0020202D01*
X0154682Y0020202D02*
X0154682Y0046202D01*
X0154682Y0047001D01*
X0213682Y0047001D01*
X0213682Y0046202D01*
X0213682Y0020202D01*
X0213682Y0010800D01*
X0154682Y0010800D01*
X0154682Y0020202D01*
X0160982Y0020202D01*
X0167982Y0020202D02*
X0180682Y0020202D01*
X0187682Y0020202D02*
X0200383Y0020202D01*
X0207383Y0020202D02*
X0213682Y0020202D01*
X0219682Y0020202D02*
X0219682Y0046202D01*
X0219682Y0047001D01*
X0278682Y0047001D01*
X0278682Y0046202D01*
X0278682Y0020202D01*
X0278682Y0010800D01*
X0219682Y0010800D01*
X0219682Y0020202D01*
X0225982Y0020202D01*
X0232982Y0020202D02*
X0245682Y0020202D01*
X0252682Y0020202D02*
X0265383Y0020202D01*
X0272383Y0020202D02*
X0278682Y0020202D01*
X0266882Y0041000D02*
X0266884Y0041089D01*
X0266890Y0041178D01*
X0266900Y0041267D01*
X0266914Y0041355D01*
X0266931Y0041442D01*
X0266953Y0041528D01*
X0266979Y0041614D01*
X0267008Y0041698D01*
X0267041Y0041781D01*
X0267077Y0041862D01*
X0267118Y0041942D01*
X0267161Y0042019D01*
X0267208Y0042095D01*
X0267259Y0042168D01*
X0267312Y0042239D01*
X0267369Y0042308D01*
X0267429Y0042374D01*
X0267492Y0042438D01*
X0267557Y0042498D01*
X0267625Y0042556D01*
X0267696Y0042610D01*
X0267769Y0042661D01*
X0267844Y0042709D01*
X0267921Y0042754D01*
X0268000Y0042795D01*
X0268081Y0042832D01*
X0268163Y0042866D01*
X0268247Y0042897D01*
X0268332Y0042923D01*
X0268418Y0042946D01*
X0268505Y0042964D01*
X0268593Y0042979D01*
X0268682Y0042990D01*
X0268771Y0042997D01*
X0268860Y0043000D01*
X0268949Y0042999D01*
X0269038Y0042994D01*
X0269126Y0042985D01*
X0269215Y0042972D01*
X0269302Y0042955D01*
X0269389Y0042935D01*
X0269475Y0042910D01*
X0269559Y0042882D01*
X0269642Y0042850D01*
X0269724Y0042814D01*
X0269804Y0042775D01*
X0269882Y0042732D01*
X0269958Y0042686D01*
X0270032Y0042636D01*
X0270104Y0042583D01*
X0270173Y0042527D01*
X0270240Y0042468D01*
X0270304Y0042406D01*
X0270365Y0042342D01*
X0270424Y0042274D01*
X0270479Y0042204D01*
X0270531Y0042132D01*
X0270580Y0042057D01*
X0270625Y0041981D01*
X0270667Y0041902D01*
X0270705Y0041822D01*
X0270740Y0041740D01*
X0270771Y0041656D01*
X0270799Y0041571D01*
X0270822Y0041485D01*
X0270842Y0041398D01*
X0270858Y0041311D01*
X0270870Y0041222D01*
X0270878Y0041134D01*
X0270882Y0041045D01*
X0270882Y0040955D01*
X0270878Y0040866D01*
X0270870Y0040778D01*
X0270858Y0040689D01*
X0270842Y0040602D01*
X0270822Y0040515D01*
X0270799Y0040429D01*
X0270771Y0040344D01*
X0270740Y0040260D01*
X0270705Y0040178D01*
X0270667Y0040098D01*
X0270625Y0040019D01*
X0270580Y0039943D01*
X0270531Y0039868D01*
X0270479Y0039796D01*
X0270424Y0039726D01*
X0270365Y0039658D01*
X0270304Y0039594D01*
X0270240Y0039532D01*
X0270173Y0039473D01*
X0270104Y0039417D01*
X0270032Y0039364D01*
X0269958Y0039314D01*
X0269882Y0039268D01*
X0269804Y0039225D01*
X0269724Y0039186D01*
X0269642Y0039150D01*
X0269559Y0039118D01*
X0269475Y0039090D01*
X0269389Y0039065D01*
X0269302Y0039045D01*
X0269215Y0039028D01*
X0269126Y0039015D01*
X0269038Y0039006D01*
X0268949Y0039001D01*
X0268860Y0039000D01*
X0268771Y0039003D01*
X0268682Y0039010D01*
X0268593Y0039021D01*
X0268505Y0039036D01*
X0268418Y0039054D01*
X0268332Y0039077D01*
X0268247Y0039103D01*
X0268163Y0039134D01*
X0268081Y0039168D01*
X0268000Y0039205D01*
X0267921Y0039246D01*
X0267844Y0039291D01*
X0267769Y0039339D01*
X0267696Y0039390D01*
X0267625Y0039444D01*
X0267557Y0039502D01*
X0267492Y0039562D01*
X0267429Y0039626D01*
X0267369Y0039692D01*
X0267312Y0039761D01*
X0267259Y0039832D01*
X0267208Y0039905D01*
X0267161Y0039981D01*
X0267118Y0040058D01*
X0267077Y0040138D01*
X0267041Y0040219D01*
X0267008Y0040302D01*
X0266979Y0040386D01*
X0266953Y0040472D01*
X0266931Y0040558D01*
X0266914Y0040645D01*
X0266900Y0040733D01*
X0266890Y0040822D01*
X0266884Y0040911D01*
X0266882Y0041000D01*
X0278682Y0046202D02*
X0219682Y0046202D01*
X0213682Y0046202D02*
X0154682Y0046202D01*
X0148682Y0046202D02*
X0089682Y0046202D01*
X0083682Y0046202D02*
X0024682Y0046202D01*
X0032482Y0041000D02*
X0032484Y0041089D01*
X0032490Y0041178D01*
X0032500Y0041267D01*
X0032514Y0041355D01*
X0032531Y0041442D01*
X0032553Y0041528D01*
X0032579Y0041614D01*
X0032608Y0041698D01*
X0032641Y0041781D01*
X0032677Y0041862D01*
X0032718Y0041942D01*
X0032761Y0042019D01*
X0032808Y0042095D01*
X0032859Y0042168D01*
X0032912Y0042239D01*
X0032969Y0042308D01*
X0033029Y0042374D01*
X0033092Y0042438D01*
X0033157Y0042498D01*
X0033225Y0042556D01*
X0033296Y0042610D01*
X0033369Y0042661D01*
X0033444Y0042709D01*
X0033521Y0042754D01*
X0033600Y0042795D01*
X0033681Y0042832D01*
X0033763Y0042866D01*
X0033847Y0042897D01*
X0033932Y0042923D01*
X0034018Y0042946D01*
X0034105Y0042964D01*
X0034193Y0042979D01*
X0034282Y0042990D01*
X0034371Y0042997D01*
X0034460Y0043000D01*
X0034549Y0042999D01*
X0034638Y0042994D01*
X0034726Y0042985D01*
X0034815Y0042972D01*
X0034902Y0042955D01*
X0034989Y0042935D01*
X0035075Y0042910D01*
X0035159Y0042882D01*
X0035242Y0042850D01*
X0035324Y0042814D01*
X0035404Y0042775D01*
X0035482Y0042732D01*
X0035558Y0042686D01*
X0035632Y0042636D01*
X0035704Y0042583D01*
X0035773Y0042527D01*
X0035840Y0042468D01*
X0035904Y0042406D01*
X0035965Y0042342D01*
X0036024Y0042274D01*
X0036079Y0042204D01*
X0036131Y0042132D01*
X0036180Y0042057D01*
X0036225Y0041981D01*
X0036267Y0041902D01*
X0036305Y0041822D01*
X0036340Y0041740D01*
X0036371Y0041656D01*
X0036399Y0041571D01*
X0036422Y0041485D01*
X0036442Y0041398D01*
X0036458Y0041311D01*
X0036470Y0041222D01*
X0036478Y0041134D01*
X0036482Y0041045D01*
X0036482Y0040955D01*
X0036478Y0040866D01*
X0036470Y0040778D01*
X0036458Y0040689D01*
X0036442Y0040602D01*
X0036422Y0040515D01*
X0036399Y0040429D01*
X0036371Y0040344D01*
X0036340Y0040260D01*
X0036305Y0040178D01*
X0036267Y0040098D01*
X0036225Y0040019D01*
X0036180Y0039943D01*
X0036131Y0039868D01*
X0036079Y0039796D01*
X0036024Y0039726D01*
X0035965Y0039658D01*
X0035904Y0039594D01*
X0035840Y0039532D01*
X0035773Y0039473D01*
X0035704Y0039417D01*
X0035632Y0039364D01*
X0035558Y0039314D01*
X0035482Y0039268D01*
X0035404Y0039225D01*
X0035324Y0039186D01*
X0035242Y0039150D01*
X0035159Y0039118D01*
X0035075Y0039090D01*
X0034989Y0039065D01*
X0034902Y0039045D01*
X0034815Y0039028D01*
X0034726Y0039015D01*
X0034638Y0039006D01*
X0034549Y0039001D01*
X0034460Y0039000D01*
X0034371Y0039003D01*
X0034282Y0039010D01*
X0034193Y0039021D01*
X0034105Y0039036D01*
X0034018Y0039054D01*
X0033932Y0039077D01*
X0033847Y0039103D01*
X0033763Y0039134D01*
X0033681Y0039168D01*
X0033600Y0039205D01*
X0033521Y0039246D01*
X0033444Y0039291D01*
X0033369Y0039339D01*
X0033296Y0039390D01*
X0033225Y0039444D01*
X0033157Y0039502D01*
X0033092Y0039562D01*
X0033029Y0039626D01*
X0032969Y0039692D01*
X0032912Y0039761D01*
X0032859Y0039832D01*
X0032808Y0039905D01*
X0032761Y0039981D01*
X0032718Y0040058D01*
X0032677Y0040138D01*
X0032641Y0040219D01*
X0032608Y0040302D01*
X0032579Y0040386D01*
X0032553Y0040472D01*
X0032531Y0040558D01*
X0032514Y0040645D01*
X0032500Y0040733D01*
X0032490Y0040822D01*
X0032484Y0040911D01*
X0032482Y0041000D01*
X0052182Y0041000D02*
X0052184Y0041089D01*
X0052190Y0041178D01*
X0052200Y0041267D01*
X0052214Y0041355D01*
X0052231Y0041442D01*
X0052253Y0041528D01*
X0052279Y0041614D01*
X0052308Y0041698D01*
X0052341Y0041781D01*
X0052377Y0041862D01*
X0052418Y0041942D01*
X0052461Y0042019D01*
X0052508Y0042095D01*
X0052559Y0042168D01*
X0052612Y0042239D01*
X0052669Y0042308D01*
X0052729Y0042374D01*
X0052792Y0042438D01*
X0052857Y0042498D01*
X0052925Y0042556D01*
X0052996Y0042610D01*
X0053069Y0042661D01*
X0053144Y0042709D01*
X0053221Y0042754D01*
X0053300Y0042795D01*
X0053381Y0042832D01*
X0053463Y0042866D01*
X0053547Y0042897D01*
X0053632Y0042923D01*
X0053718Y0042946D01*
X0053805Y0042964D01*
X0053893Y0042979D01*
X0053982Y0042990D01*
X0054071Y0042997D01*
X0054160Y0043000D01*
X0054249Y0042999D01*
X0054338Y0042994D01*
X0054426Y0042985D01*
X0054515Y0042972D01*
X0054602Y0042955D01*
X0054689Y0042935D01*
X0054775Y0042910D01*
X0054859Y0042882D01*
X0054942Y0042850D01*
X0055024Y0042814D01*
X0055104Y0042775D01*
X0055182Y0042732D01*
X0055258Y0042686D01*
X0055332Y0042636D01*
X0055404Y0042583D01*
X0055473Y0042527D01*
X0055540Y0042468D01*
X0055604Y0042406D01*
X0055665Y0042342D01*
X0055724Y0042274D01*
X0055779Y0042204D01*
X0055831Y0042132D01*
X0055880Y0042057D01*
X0055925Y0041981D01*
X0055967Y0041902D01*
X0056005Y0041822D01*
X0056040Y0041740D01*
X0056071Y0041656D01*
X0056099Y0041571D01*
X0056122Y0041485D01*
X0056142Y0041398D01*
X0056158Y0041311D01*
X0056170Y0041222D01*
X0056178Y0041134D01*
X0056182Y0041045D01*
X0056182Y0040955D01*
X0056178Y0040866D01*
X0056170Y0040778D01*
X0056158Y0040689D01*
X0056142Y0040602D01*
X0056122Y0040515D01*
X0056099Y0040429D01*
X0056071Y0040344D01*
X0056040Y0040260D01*
X0056005Y0040178D01*
X0055967Y0040098D01*
X0055925Y0040019D01*
X0055880Y0039943D01*
X0055831Y0039868D01*
X0055779Y0039796D01*
X0055724Y0039726D01*
X0055665Y0039658D01*
X0055604Y0039594D01*
X0055540Y0039532D01*
X0055473Y0039473D01*
X0055404Y0039417D01*
X0055332Y0039364D01*
X0055258Y0039314D01*
X0055182Y0039268D01*
X0055104Y0039225D01*
X0055024Y0039186D01*
X0054942Y0039150D01*
X0054859Y0039118D01*
X0054775Y0039090D01*
X0054689Y0039065D01*
X0054602Y0039045D01*
X0054515Y0039028D01*
X0054426Y0039015D01*
X0054338Y0039006D01*
X0054249Y0039001D01*
X0054160Y0039000D01*
X0054071Y0039003D01*
X0053982Y0039010D01*
X0053893Y0039021D01*
X0053805Y0039036D01*
X0053718Y0039054D01*
X0053632Y0039077D01*
X0053547Y0039103D01*
X0053463Y0039134D01*
X0053381Y0039168D01*
X0053300Y0039205D01*
X0053221Y0039246D01*
X0053144Y0039291D01*
X0053069Y0039339D01*
X0052996Y0039390D01*
X0052925Y0039444D01*
X0052857Y0039502D01*
X0052792Y0039562D01*
X0052729Y0039626D01*
X0052669Y0039692D01*
X0052612Y0039761D01*
X0052559Y0039832D01*
X0052508Y0039905D01*
X0052461Y0039981D01*
X0052418Y0040058D01*
X0052377Y0040138D01*
X0052341Y0040219D01*
X0052308Y0040302D01*
X0052279Y0040386D01*
X0052253Y0040472D01*
X0052231Y0040558D01*
X0052214Y0040645D01*
X0052200Y0040733D01*
X0052190Y0040822D01*
X0052184Y0040911D01*
X0052182Y0041000D01*
X0071882Y0041000D02*
X0071884Y0041089D01*
X0071890Y0041178D01*
X0071900Y0041267D01*
X0071914Y0041355D01*
X0071931Y0041442D01*
X0071953Y0041528D01*
X0071979Y0041614D01*
X0072008Y0041698D01*
X0072041Y0041781D01*
X0072077Y0041862D01*
X0072118Y0041942D01*
X0072161Y0042019D01*
X0072208Y0042095D01*
X0072259Y0042168D01*
X0072312Y0042239D01*
X0072369Y0042308D01*
X0072429Y0042374D01*
X0072492Y0042438D01*
X0072557Y0042498D01*
X0072625Y0042556D01*
X0072696Y0042610D01*
X0072769Y0042661D01*
X0072844Y0042709D01*
X0072921Y0042754D01*
X0073000Y0042795D01*
X0073081Y0042832D01*
X0073163Y0042866D01*
X0073247Y0042897D01*
X0073332Y0042923D01*
X0073418Y0042946D01*
X0073505Y0042964D01*
X0073593Y0042979D01*
X0073682Y0042990D01*
X0073771Y0042997D01*
X0073860Y0043000D01*
X0073949Y0042999D01*
X0074038Y0042994D01*
X0074126Y0042985D01*
X0074215Y0042972D01*
X0074302Y0042955D01*
X0074389Y0042935D01*
X0074475Y0042910D01*
X0074559Y0042882D01*
X0074642Y0042850D01*
X0074724Y0042814D01*
X0074804Y0042775D01*
X0074882Y0042732D01*
X0074958Y0042686D01*
X0075032Y0042636D01*
X0075104Y0042583D01*
X0075173Y0042527D01*
X0075240Y0042468D01*
X0075304Y0042406D01*
X0075365Y0042342D01*
X0075424Y0042274D01*
X0075479Y0042204D01*
X0075531Y0042132D01*
X0075580Y0042057D01*
X0075625Y0041981D01*
X0075667Y0041902D01*
X0075705Y0041822D01*
X0075740Y0041740D01*
X0075771Y0041656D01*
X0075799Y0041571D01*
X0075822Y0041485D01*
X0075842Y0041398D01*
X0075858Y0041311D01*
X0075870Y0041222D01*
X0075878Y0041134D01*
X0075882Y0041045D01*
X0075882Y0040955D01*
X0075878Y0040866D01*
X0075870Y0040778D01*
X0075858Y0040689D01*
X0075842Y0040602D01*
X0075822Y0040515D01*
X0075799Y0040429D01*
X0075771Y0040344D01*
X0075740Y0040260D01*
X0075705Y0040178D01*
X0075667Y0040098D01*
X0075625Y0040019D01*
X0075580Y0039943D01*
X0075531Y0039868D01*
X0075479Y0039796D01*
X0075424Y0039726D01*
X0075365Y0039658D01*
X0075304Y0039594D01*
X0075240Y0039532D01*
X0075173Y0039473D01*
X0075104Y0039417D01*
X0075032Y0039364D01*
X0074958Y0039314D01*
X0074882Y0039268D01*
X0074804Y0039225D01*
X0074724Y0039186D01*
X0074642Y0039150D01*
X0074559Y0039118D01*
X0074475Y0039090D01*
X0074389Y0039065D01*
X0074302Y0039045D01*
X0074215Y0039028D01*
X0074126Y0039015D01*
X0074038Y0039006D01*
X0073949Y0039001D01*
X0073860Y0039000D01*
X0073771Y0039003D01*
X0073682Y0039010D01*
X0073593Y0039021D01*
X0073505Y0039036D01*
X0073418Y0039054D01*
X0073332Y0039077D01*
X0073247Y0039103D01*
X0073163Y0039134D01*
X0073081Y0039168D01*
X0073000Y0039205D01*
X0072921Y0039246D01*
X0072844Y0039291D01*
X0072769Y0039339D01*
X0072696Y0039390D01*
X0072625Y0039444D01*
X0072557Y0039502D01*
X0072492Y0039562D01*
X0072429Y0039626D01*
X0072369Y0039692D01*
X0072312Y0039761D01*
X0072259Y0039832D01*
X0072208Y0039905D01*
X0072161Y0039981D01*
X0072118Y0040058D01*
X0072077Y0040138D01*
X0072041Y0040219D01*
X0072008Y0040302D01*
X0071979Y0040386D01*
X0071953Y0040472D01*
X0071931Y0040558D01*
X0071914Y0040645D01*
X0071900Y0040733D01*
X0071890Y0040822D01*
X0071884Y0040911D01*
X0071882Y0041000D01*
X0097482Y0041000D02*
X0097484Y0041089D01*
X0097490Y0041178D01*
X0097500Y0041267D01*
X0097514Y0041355D01*
X0097531Y0041442D01*
X0097553Y0041528D01*
X0097579Y0041614D01*
X0097608Y0041698D01*
X0097641Y0041781D01*
X0097677Y0041862D01*
X0097718Y0041942D01*
X0097761Y0042019D01*
X0097808Y0042095D01*
X0097859Y0042168D01*
X0097912Y0042239D01*
X0097969Y0042308D01*
X0098029Y0042374D01*
X0098092Y0042438D01*
X0098157Y0042498D01*
X0098225Y0042556D01*
X0098296Y0042610D01*
X0098369Y0042661D01*
X0098444Y0042709D01*
X0098521Y0042754D01*
X0098600Y0042795D01*
X0098681Y0042832D01*
X0098763Y0042866D01*
X0098847Y0042897D01*
X0098932Y0042923D01*
X0099018Y0042946D01*
X0099105Y0042964D01*
X0099193Y0042979D01*
X0099282Y0042990D01*
X0099371Y0042997D01*
X0099460Y0043000D01*
X0099549Y0042999D01*
X0099638Y0042994D01*
X0099726Y0042985D01*
X0099815Y0042972D01*
X0099902Y0042955D01*
X0099989Y0042935D01*
X0100075Y0042910D01*
X0100159Y0042882D01*
X0100242Y0042850D01*
X0100324Y0042814D01*
X0100404Y0042775D01*
X0100482Y0042732D01*
X0100558Y0042686D01*
X0100632Y0042636D01*
X0100704Y0042583D01*
X0100773Y0042527D01*
X0100840Y0042468D01*
X0100904Y0042406D01*
X0100965Y0042342D01*
X0101024Y0042274D01*
X0101079Y0042204D01*
X0101131Y0042132D01*
X0101180Y0042057D01*
X0101225Y0041981D01*
X0101267Y0041902D01*
X0101305Y0041822D01*
X0101340Y0041740D01*
X0101371Y0041656D01*
X0101399Y0041571D01*
X0101422Y0041485D01*
X0101442Y0041398D01*
X0101458Y0041311D01*
X0101470Y0041222D01*
X0101478Y0041134D01*
X0101482Y0041045D01*
X0101482Y0040955D01*
X0101478Y0040866D01*
X0101470Y0040778D01*
X0101458Y0040689D01*
X0101442Y0040602D01*
X0101422Y0040515D01*
X0101399Y0040429D01*
X0101371Y0040344D01*
X0101340Y0040260D01*
X0101305Y0040178D01*
X0101267Y0040098D01*
X0101225Y0040019D01*
X0101180Y0039943D01*
X0101131Y0039868D01*
X0101079Y0039796D01*
X0101024Y0039726D01*
X0100965Y0039658D01*
X0100904Y0039594D01*
X0100840Y0039532D01*
X0100773Y0039473D01*
X0100704Y0039417D01*
X0100632Y0039364D01*
X0100558Y0039314D01*
X0100482Y0039268D01*
X0100404Y0039225D01*
X0100324Y0039186D01*
X0100242Y0039150D01*
X0100159Y0039118D01*
X0100075Y0039090D01*
X0099989Y0039065D01*
X0099902Y0039045D01*
X0099815Y0039028D01*
X0099726Y0039015D01*
X0099638Y0039006D01*
X0099549Y0039001D01*
X0099460Y0039000D01*
X0099371Y0039003D01*
X0099282Y0039010D01*
X0099193Y0039021D01*
X0099105Y0039036D01*
X0099018Y0039054D01*
X0098932Y0039077D01*
X0098847Y0039103D01*
X0098763Y0039134D01*
X0098681Y0039168D01*
X0098600Y0039205D01*
X0098521Y0039246D01*
X0098444Y0039291D01*
X0098369Y0039339D01*
X0098296Y0039390D01*
X0098225Y0039444D01*
X0098157Y0039502D01*
X0098092Y0039562D01*
X0098029Y0039626D01*
X0097969Y0039692D01*
X0097912Y0039761D01*
X0097859Y0039832D01*
X0097808Y0039905D01*
X0097761Y0039981D01*
X0097718Y0040058D01*
X0097677Y0040138D01*
X0097641Y0040219D01*
X0097608Y0040302D01*
X0097579Y0040386D01*
X0097553Y0040472D01*
X0097531Y0040558D01*
X0097514Y0040645D01*
X0097500Y0040733D01*
X0097490Y0040822D01*
X0097484Y0040911D01*
X0097482Y0041000D01*
X0117182Y0041000D02*
X0117184Y0041089D01*
X0117190Y0041178D01*
X0117200Y0041267D01*
X0117214Y0041355D01*
X0117231Y0041442D01*
X0117253Y0041528D01*
X0117279Y0041614D01*
X0117308Y0041698D01*
X0117341Y0041781D01*
X0117377Y0041862D01*
X0117418Y0041942D01*
X0117461Y0042019D01*
X0117508Y0042095D01*
X0117559Y0042168D01*
X0117612Y0042239D01*
X0117669Y0042308D01*
X0117729Y0042374D01*
X0117792Y0042438D01*
X0117857Y0042498D01*
X0117925Y0042556D01*
X0117996Y0042610D01*
X0118069Y0042661D01*
X0118144Y0042709D01*
X0118221Y0042754D01*
X0118300Y0042795D01*
X0118381Y0042832D01*
X0118463Y0042866D01*
X0118547Y0042897D01*
X0118632Y0042923D01*
X0118718Y0042946D01*
X0118805Y0042964D01*
X0118893Y0042979D01*
X0118982Y0042990D01*
X0119071Y0042997D01*
X0119160Y0043000D01*
X0119249Y0042999D01*
X0119338Y0042994D01*
X0119426Y0042985D01*
X0119515Y0042972D01*
X0119602Y0042955D01*
X0119689Y0042935D01*
X0119775Y0042910D01*
X0119859Y0042882D01*
X0119942Y0042850D01*
X0120024Y0042814D01*
X0120104Y0042775D01*
X0120182Y0042732D01*
X0120258Y0042686D01*
X0120332Y0042636D01*
X0120404Y0042583D01*
X0120473Y0042527D01*
X0120540Y0042468D01*
X0120604Y0042406D01*
X0120665Y0042342D01*
X0120724Y0042274D01*
X0120779Y0042204D01*
X0120831Y0042132D01*
X0120880Y0042057D01*
X0120925Y0041981D01*
X0120967Y0041902D01*
X0121005Y0041822D01*
X0121040Y0041740D01*
X0121071Y0041656D01*
X0121099Y0041571D01*
X0121122Y0041485D01*
X0121142Y0041398D01*
X0121158Y0041311D01*
X0121170Y0041222D01*
X0121178Y0041134D01*
X0121182Y0041045D01*
X0121182Y0040955D01*
X0121178Y0040866D01*
X0121170Y0040778D01*
X0121158Y0040689D01*
X0121142Y0040602D01*
X0121122Y0040515D01*
X0121099Y0040429D01*
X0121071Y0040344D01*
X0121040Y0040260D01*
X0121005Y0040178D01*
X0120967Y0040098D01*
X0120925Y0040019D01*
X0120880Y0039943D01*
X0120831Y0039868D01*
X0120779Y0039796D01*
X0120724Y0039726D01*
X0120665Y0039658D01*
X0120604Y0039594D01*
X0120540Y0039532D01*
X0120473Y0039473D01*
X0120404Y0039417D01*
X0120332Y0039364D01*
X0120258Y0039314D01*
X0120182Y0039268D01*
X0120104Y0039225D01*
X0120024Y0039186D01*
X0119942Y0039150D01*
X0119859Y0039118D01*
X0119775Y0039090D01*
X0119689Y0039065D01*
X0119602Y0039045D01*
X0119515Y0039028D01*
X0119426Y0039015D01*
X0119338Y0039006D01*
X0119249Y0039001D01*
X0119160Y0039000D01*
X0119071Y0039003D01*
X0118982Y0039010D01*
X0118893Y0039021D01*
X0118805Y0039036D01*
X0118718Y0039054D01*
X0118632Y0039077D01*
X0118547Y0039103D01*
X0118463Y0039134D01*
X0118381Y0039168D01*
X0118300Y0039205D01*
X0118221Y0039246D01*
X0118144Y0039291D01*
X0118069Y0039339D01*
X0117996Y0039390D01*
X0117925Y0039444D01*
X0117857Y0039502D01*
X0117792Y0039562D01*
X0117729Y0039626D01*
X0117669Y0039692D01*
X0117612Y0039761D01*
X0117559Y0039832D01*
X0117508Y0039905D01*
X0117461Y0039981D01*
X0117418Y0040058D01*
X0117377Y0040138D01*
X0117341Y0040219D01*
X0117308Y0040302D01*
X0117279Y0040386D01*
X0117253Y0040472D01*
X0117231Y0040558D01*
X0117214Y0040645D01*
X0117200Y0040733D01*
X0117190Y0040822D01*
X0117184Y0040911D01*
X0117182Y0041000D01*
X0136882Y0041000D02*
X0136884Y0041089D01*
X0136890Y0041178D01*
X0136900Y0041267D01*
X0136914Y0041355D01*
X0136931Y0041442D01*
X0136953Y0041528D01*
X0136979Y0041614D01*
X0137008Y0041698D01*
X0137041Y0041781D01*
X0137077Y0041862D01*
X0137118Y0041942D01*
X0137161Y0042019D01*
X0137208Y0042095D01*
X0137259Y0042168D01*
X0137312Y0042239D01*
X0137369Y0042308D01*
X0137429Y0042374D01*
X0137492Y0042438D01*
X0137557Y0042498D01*
X0137625Y0042556D01*
X0137696Y0042610D01*
X0137769Y0042661D01*
X0137844Y0042709D01*
X0137921Y0042754D01*
X0138000Y0042795D01*
X0138081Y0042832D01*
X0138163Y0042866D01*
X0138247Y0042897D01*
X0138332Y0042923D01*
X0138418Y0042946D01*
X0138505Y0042964D01*
X0138593Y0042979D01*
X0138682Y0042990D01*
X0138771Y0042997D01*
X0138860Y0043000D01*
X0138949Y0042999D01*
X0139038Y0042994D01*
X0139126Y0042985D01*
X0139215Y0042972D01*
X0139302Y0042955D01*
X0139389Y0042935D01*
X0139475Y0042910D01*
X0139559Y0042882D01*
X0139642Y0042850D01*
X0139724Y0042814D01*
X0139804Y0042775D01*
X0139882Y0042732D01*
X0139958Y0042686D01*
X0140032Y0042636D01*
X0140104Y0042583D01*
X0140173Y0042527D01*
X0140240Y0042468D01*
X0140304Y0042406D01*
X0140365Y0042342D01*
X0140424Y0042274D01*
X0140479Y0042204D01*
X0140531Y0042132D01*
X0140580Y0042057D01*
X0140625Y0041981D01*
X0140667Y0041902D01*
X0140705Y0041822D01*
X0140740Y0041740D01*
X0140771Y0041656D01*
X0140799Y0041571D01*
X0140822Y0041485D01*
X0140842Y0041398D01*
X0140858Y0041311D01*
X0140870Y0041222D01*
X0140878Y0041134D01*
X0140882Y0041045D01*
X0140882Y0040955D01*
X0140878Y0040866D01*
X0140870Y0040778D01*
X0140858Y0040689D01*
X0140842Y0040602D01*
X0140822Y0040515D01*
X0140799Y0040429D01*
X0140771Y0040344D01*
X0140740Y0040260D01*
X0140705Y0040178D01*
X0140667Y0040098D01*
X0140625Y0040019D01*
X0140580Y0039943D01*
X0140531Y0039868D01*
X0140479Y0039796D01*
X0140424Y0039726D01*
X0140365Y0039658D01*
X0140304Y0039594D01*
X0140240Y0039532D01*
X0140173Y0039473D01*
X0140104Y0039417D01*
X0140032Y0039364D01*
X0139958Y0039314D01*
X0139882Y0039268D01*
X0139804Y0039225D01*
X0139724Y0039186D01*
X0139642Y0039150D01*
X0139559Y0039118D01*
X0139475Y0039090D01*
X0139389Y0039065D01*
X0139302Y0039045D01*
X0139215Y0039028D01*
X0139126Y0039015D01*
X0139038Y0039006D01*
X0138949Y0039001D01*
X0138860Y0039000D01*
X0138771Y0039003D01*
X0138682Y0039010D01*
X0138593Y0039021D01*
X0138505Y0039036D01*
X0138418Y0039054D01*
X0138332Y0039077D01*
X0138247Y0039103D01*
X0138163Y0039134D01*
X0138081Y0039168D01*
X0138000Y0039205D01*
X0137921Y0039246D01*
X0137844Y0039291D01*
X0137769Y0039339D01*
X0137696Y0039390D01*
X0137625Y0039444D01*
X0137557Y0039502D01*
X0137492Y0039562D01*
X0137429Y0039626D01*
X0137369Y0039692D01*
X0137312Y0039761D01*
X0137259Y0039832D01*
X0137208Y0039905D01*
X0137161Y0039981D01*
X0137118Y0040058D01*
X0137077Y0040138D01*
X0137041Y0040219D01*
X0137008Y0040302D01*
X0136979Y0040386D01*
X0136953Y0040472D01*
X0136931Y0040558D01*
X0136914Y0040645D01*
X0136900Y0040733D01*
X0136890Y0040822D01*
X0136884Y0040911D01*
X0136882Y0041000D01*
X0162482Y0041000D02*
X0162484Y0041089D01*
X0162490Y0041178D01*
X0162500Y0041267D01*
X0162514Y0041355D01*
X0162531Y0041442D01*
X0162553Y0041528D01*
X0162579Y0041614D01*
X0162608Y0041698D01*
X0162641Y0041781D01*
X0162677Y0041862D01*
X0162718Y0041942D01*
X0162761Y0042019D01*
X0162808Y0042095D01*
X0162859Y0042168D01*
X0162912Y0042239D01*
X0162969Y0042308D01*
X0163029Y0042374D01*
X0163092Y0042438D01*
X0163157Y0042498D01*
X0163225Y0042556D01*
X0163296Y0042610D01*
X0163369Y0042661D01*
X0163444Y0042709D01*
X0163521Y0042754D01*
X0163600Y0042795D01*
X0163681Y0042832D01*
X0163763Y0042866D01*
X0163847Y0042897D01*
X0163932Y0042923D01*
X0164018Y0042946D01*
X0164105Y0042964D01*
X0164193Y0042979D01*
X0164282Y0042990D01*
X0164371Y0042997D01*
X0164460Y0043000D01*
X0164549Y0042999D01*
X0164638Y0042994D01*
X0164726Y0042985D01*
X0164815Y0042972D01*
X0164902Y0042955D01*
X0164989Y0042935D01*
X0165075Y0042910D01*
X0165159Y0042882D01*
X0165242Y0042850D01*
X0165324Y0042814D01*
X0165404Y0042775D01*
X0165482Y0042732D01*
X0165558Y0042686D01*
X0165632Y0042636D01*
X0165704Y0042583D01*
X0165773Y0042527D01*
X0165840Y0042468D01*
X0165904Y0042406D01*
X0165965Y0042342D01*
X0166024Y0042274D01*
X0166079Y0042204D01*
X0166131Y0042132D01*
X0166180Y0042057D01*
X0166225Y0041981D01*
X0166267Y0041902D01*
X0166305Y0041822D01*
X0166340Y0041740D01*
X0166371Y0041656D01*
X0166399Y0041571D01*
X0166422Y0041485D01*
X0166442Y0041398D01*
X0166458Y0041311D01*
X0166470Y0041222D01*
X0166478Y0041134D01*
X0166482Y0041045D01*
X0166482Y0040955D01*
X0166478Y0040866D01*
X0166470Y0040778D01*
X0166458Y0040689D01*
X0166442Y0040602D01*
X0166422Y0040515D01*
X0166399Y0040429D01*
X0166371Y0040344D01*
X0166340Y0040260D01*
X0166305Y0040178D01*
X0166267Y0040098D01*
X0166225Y0040019D01*
X0166180Y0039943D01*
X0166131Y0039868D01*
X0166079Y0039796D01*
X0166024Y0039726D01*
X0165965Y0039658D01*
X0165904Y0039594D01*
X0165840Y0039532D01*
X0165773Y0039473D01*
X0165704Y0039417D01*
X0165632Y0039364D01*
X0165558Y0039314D01*
X0165482Y0039268D01*
X0165404Y0039225D01*
X0165324Y0039186D01*
X0165242Y0039150D01*
X0165159Y0039118D01*
X0165075Y0039090D01*
X0164989Y0039065D01*
X0164902Y0039045D01*
X0164815Y0039028D01*
X0164726Y0039015D01*
X0164638Y0039006D01*
X0164549Y0039001D01*
X0164460Y0039000D01*
X0164371Y0039003D01*
X0164282Y0039010D01*
X0164193Y0039021D01*
X0164105Y0039036D01*
X0164018Y0039054D01*
X0163932Y0039077D01*
X0163847Y0039103D01*
X0163763Y0039134D01*
X0163681Y0039168D01*
X0163600Y0039205D01*
X0163521Y0039246D01*
X0163444Y0039291D01*
X0163369Y0039339D01*
X0163296Y0039390D01*
X0163225Y0039444D01*
X0163157Y0039502D01*
X0163092Y0039562D01*
X0163029Y0039626D01*
X0162969Y0039692D01*
X0162912Y0039761D01*
X0162859Y0039832D01*
X0162808Y0039905D01*
X0162761Y0039981D01*
X0162718Y0040058D01*
X0162677Y0040138D01*
X0162641Y0040219D01*
X0162608Y0040302D01*
X0162579Y0040386D01*
X0162553Y0040472D01*
X0162531Y0040558D01*
X0162514Y0040645D01*
X0162500Y0040733D01*
X0162490Y0040822D01*
X0162484Y0040911D01*
X0162482Y0041000D01*
X0182182Y0041000D02*
X0182184Y0041089D01*
X0182190Y0041178D01*
X0182200Y0041267D01*
X0182214Y0041355D01*
X0182231Y0041442D01*
X0182253Y0041528D01*
X0182279Y0041614D01*
X0182308Y0041698D01*
X0182341Y0041781D01*
X0182377Y0041862D01*
X0182418Y0041942D01*
X0182461Y0042019D01*
X0182508Y0042095D01*
X0182559Y0042168D01*
X0182612Y0042239D01*
X0182669Y0042308D01*
X0182729Y0042374D01*
X0182792Y0042438D01*
X0182857Y0042498D01*
X0182925Y0042556D01*
X0182996Y0042610D01*
X0183069Y0042661D01*
X0183144Y0042709D01*
X0183221Y0042754D01*
X0183300Y0042795D01*
X0183381Y0042832D01*
X0183463Y0042866D01*
X0183547Y0042897D01*
X0183632Y0042923D01*
X0183718Y0042946D01*
X0183805Y0042964D01*
X0183893Y0042979D01*
X0183982Y0042990D01*
X0184071Y0042997D01*
X0184160Y0043000D01*
X0184249Y0042999D01*
X0184338Y0042994D01*
X0184426Y0042985D01*
X0184515Y0042972D01*
X0184602Y0042955D01*
X0184689Y0042935D01*
X0184775Y0042910D01*
X0184859Y0042882D01*
X0184942Y0042850D01*
X0185024Y0042814D01*
X0185104Y0042775D01*
X0185182Y0042732D01*
X0185258Y0042686D01*
X0185332Y0042636D01*
X0185404Y0042583D01*
X0185473Y0042527D01*
X0185540Y0042468D01*
X0185604Y0042406D01*
X0185665Y0042342D01*
X0185724Y0042274D01*
X0185779Y0042204D01*
X0185831Y0042132D01*
X0185880Y0042057D01*
X0185925Y0041981D01*
X0185967Y0041902D01*
X0186005Y0041822D01*
X0186040Y0041740D01*
X0186071Y0041656D01*
X0186099Y0041571D01*
X0186122Y0041485D01*
X0186142Y0041398D01*
X0186158Y0041311D01*
X0186170Y0041222D01*
X0186178Y0041134D01*
X0186182Y0041045D01*
X0186182Y0040955D01*
X0186178Y0040866D01*
X0186170Y0040778D01*
X0186158Y0040689D01*
X0186142Y0040602D01*
X0186122Y0040515D01*
X0186099Y0040429D01*
X0186071Y0040344D01*
X0186040Y0040260D01*
X0186005Y0040178D01*
X0185967Y0040098D01*
X0185925Y0040019D01*
X0185880Y0039943D01*
X0185831Y0039868D01*
X0185779Y0039796D01*
X0185724Y0039726D01*
X0185665Y0039658D01*
X0185604Y0039594D01*
X0185540Y0039532D01*
X0185473Y0039473D01*
X0185404Y0039417D01*
X0185332Y0039364D01*
X0185258Y0039314D01*
X0185182Y0039268D01*
X0185104Y0039225D01*
X0185024Y0039186D01*
X0184942Y0039150D01*
X0184859Y0039118D01*
X0184775Y0039090D01*
X0184689Y0039065D01*
X0184602Y0039045D01*
X0184515Y0039028D01*
X0184426Y0039015D01*
X0184338Y0039006D01*
X0184249Y0039001D01*
X0184160Y0039000D01*
X0184071Y0039003D01*
X0183982Y0039010D01*
X0183893Y0039021D01*
X0183805Y0039036D01*
X0183718Y0039054D01*
X0183632Y0039077D01*
X0183547Y0039103D01*
X0183463Y0039134D01*
X0183381Y0039168D01*
X0183300Y0039205D01*
X0183221Y0039246D01*
X0183144Y0039291D01*
X0183069Y0039339D01*
X0182996Y0039390D01*
X0182925Y0039444D01*
X0182857Y0039502D01*
X0182792Y0039562D01*
X0182729Y0039626D01*
X0182669Y0039692D01*
X0182612Y0039761D01*
X0182559Y0039832D01*
X0182508Y0039905D01*
X0182461Y0039981D01*
X0182418Y0040058D01*
X0182377Y0040138D01*
X0182341Y0040219D01*
X0182308Y0040302D01*
X0182279Y0040386D01*
X0182253Y0040472D01*
X0182231Y0040558D01*
X0182214Y0040645D01*
X0182200Y0040733D01*
X0182190Y0040822D01*
X0182184Y0040911D01*
X0182182Y0041000D01*
X0201882Y0041000D02*
X0201884Y0041089D01*
X0201890Y0041178D01*
X0201900Y0041267D01*
X0201914Y0041355D01*
X0201931Y0041442D01*
X0201953Y0041528D01*
X0201979Y0041614D01*
X0202008Y0041698D01*
X0202041Y0041781D01*
X0202077Y0041862D01*
X0202118Y0041942D01*
X0202161Y0042019D01*
X0202208Y0042095D01*
X0202259Y0042168D01*
X0202312Y0042239D01*
X0202369Y0042308D01*
X0202429Y0042374D01*
X0202492Y0042438D01*
X0202557Y0042498D01*
X0202625Y0042556D01*
X0202696Y0042610D01*
X0202769Y0042661D01*
X0202844Y0042709D01*
X0202921Y0042754D01*
X0203000Y0042795D01*
X0203081Y0042832D01*
X0203163Y0042866D01*
X0203247Y0042897D01*
X0203332Y0042923D01*
X0203418Y0042946D01*
X0203505Y0042964D01*
X0203593Y0042979D01*
X0203682Y0042990D01*
X0203771Y0042997D01*
X0203860Y0043000D01*
X0203949Y0042999D01*
X0204038Y0042994D01*
X0204126Y0042985D01*
X0204215Y0042972D01*
X0204302Y0042955D01*
X0204389Y0042935D01*
X0204475Y0042910D01*
X0204559Y0042882D01*
X0204642Y0042850D01*
X0204724Y0042814D01*
X0204804Y0042775D01*
X0204882Y0042732D01*
X0204958Y0042686D01*
X0205032Y0042636D01*
X0205104Y0042583D01*
X0205173Y0042527D01*
X0205240Y0042468D01*
X0205304Y0042406D01*
X0205365Y0042342D01*
X0205424Y0042274D01*
X0205479Y0042204D01*
X0205531Y0042132D01*
X0205580Y0042057D01*
X0205625Y0041981D01*
X0205667Y0041902D01*
X0205705Y0041822D01*
X0205740Y0041740D01*
X0205771Y0041656D01*
X0205799Y0041571D01*
X0205822Y0041485D01*
X0205842Y0041398D01*
X0205858Y0041311D01*
X0205870Y0041222D01*
X0205878Y0041134D01*
X0205882Y0041045D01*
X0205882Y0040955D01*
X0205878Y0040866D01*
X0205870Y0040778D01*
X0205858Y0040689D01*
X0205842Y0040602D01*
X0205822Y0040515D01*
X0205799Y0040429D01*
X0205771Y0040344D01*
X0205740Y0040260D01*
X0205705Y0040178D01*
X0205667Y0040098D01*
X0205625Y0040019D01*
X0205580Y0039943D01*
X0205531Y0039868D01*
X0205479Y0039796D01*
X0205424Y0039726D01*
X0205365Y0039658D01*
X0205304Y0039594D01*
X0205240Y0039532D01*
X0205173Y0039473D01*
X0205104Y0039417D01*
X0205032Y0039364D01*
X0204958Y0039314D01*
X0204882Y0039268D01*
X0204804Y0039225D01*
X0204724Y0039186D01*
X0204642Y0039150D01*
X0204559Y0039118D01*
X0204475Y0039090D01*
X0204389Y0039065D01*
X0204302Y0039045D01*
X0204215Y0039028D01*
X0204126Y0039015D01*
X0204038Y0039006D01*
X0203949Y0039001D01*
X0203860Y0039000D01*
X0203771Y0039003D01*
X0203682Y0039010D01*
X0203593Y0039021D01*
X0203505Y0039036D01*
X0203418Y0039054D01*
X0203332Y0039077D01*
X0203247Y0039103D01*
X0203163Y0039134D01*
X0203081Y0039168D01*
X0203000Y0039205D01*
X0202921Y0039246D01*
X0202844Y0039291D01*
X0202769Y0039339D01*
X0202696Y0039390D01*
X0202625Y0039444D01*
X0202557Y0039502D01*
X0202492Y0039562D01*
X0202429Y0039626D01*
X0202369Y0039692D01*
X0202312Y0039761D01*
X0202259Y0039832D01*
X0202208Y0039905D01*
X0202161Y0039981D01*
X0202118Y0040058D01*
X0202077Y0040138D01*
X0202041Y0040219D01*
X0202008Y0040302D01*
X0201979Y0040386D01*
X0201953Y0040472D01*
X0201931Y0040558D01*
X0201914Y0040645D01*
X0201900Y0040733D01*
X0201890Y0040822D01*
X0201884Y0040911D01*
X0201882Y0041000D01*
X0227482Y0041000D02*
X0227484Y0041089D01*
X0227490Y0041178D01*
X0227500Y0041267D01*
X0227514Y0041355D01*
X0227531Y0041442D01*
X0227553Y0041528D01*
X0227579Y0041614D01*
X0227608Y0041698D01*
X0227641Y0041781D01*
X0227677Y0041862D01*
X0227718Y0041942D01*
X0227761Y0042019D01*
X0227808Y0042095D01*
X0227859Y0042168D01*
X0227912Y0042239D01*
X0227969Y0042308D01*
X0228029Y0042374D01*
X0228092Y0042438D01*
X0228157Y0042498D01*
X0228225Y0042556D01*
X0228296Y0042610D01*
X0228369Y0042661D01*
X0228444Y0042709D01*
X0228521Y0042754D01*
X0228600Y0042795D01*
X0228681Y0042832D01*
X0228763Y0042866D01*
X0228847Y0042897D01*
X0228932Y0042923D01*
X0229018Y0042946D01*
X0229105Y0042964D01*
X0229193Y0042979D01*
X0229282Y0042990D01*
X0229371Y0042997D01*
X0229460Y0043000D01*
X0229549Y0042999D01*
X0229638Y0042994D01*
X0229726Y0042985D01*
X0229815Y0042972D01*
X0229902Y0042955D01*
X0229989Y0042935D01*
X0230075Y0042910D01*
X0230159Y0042882D01*
X0230242Y0042850D01*
X0230324Y0042814D01*
X0230404Y0042775D01*
X0230482Y0042732D01*
X0230558Y0042686D01*
X0230632Y0042636D01*
X0230704Y0042583D01*
X0230773Y0042527D01*
X0230840Y0042468D01*
X0230904Y0042406D01*
X0230965Y0042342D01*
X0231024Y0042274D01*
X0231079Y0042204D01*
X0231131Y0042132D01*
X0231180Y0042057D01*
X0231225Y0041981D01*
X0231267Y0041902D01*
X0231305Y0041822D01*
X0231340Y0041740D01*
X0231371Y0041656D01*
X0231399Y0041571D01*
X0231422Y0041485D01*
X0231442Y0041398D01*
X0231458Y0041311D01*
X0231470Y0041222D01*
X0231478Y0041134D01*
X0231482Y0041045D01*
X0231482Y0040955D01*
X0231478Y0040866D01*
X0231470Y0040778D01*
X0231458Y0040689D01*
X0231442Y0040602D01*
X0231422Y0040515D01*
X0231399Y0040429D01*
X0231371Y0040344D01*
X0231340Y0040260D01*
X0231305Y0040178D01*
X0231267Y0040098D01*
X0231225Y0040019D01*
X0231180Y0039943D01*
X0231131Y0039868D01*
X0231079Y0039796D01*
X0231024Y0039726D01*
X0230965Y0039658D01*
X0230904Y0039594D01*
X0230840Y0039532D01*
X0230773Y0039473D01*
X0230704Y0039417D01*
X0230632Y0039364D01*
X0230558Y0039314D01*
X0230482Y0039268D01*
X0230404Y0039225D01*
X0230324Y0039186D01*
X0230242Y0039150D01*
X0230159Y0039118D01*
X0230075Y0039090D01*
X0229989Y0039065D01*
X0229902Y0039045D01*
X0229815Y0039028D01*
X0229726Y0039015D01*
X0229638Y0039006D01*
X0229549Y0039001D01*
X0229460Y0039000D01*
X0229371Y0039003D01*
X0229282Y0039010D01*
X0229193Y0039021D01*
X0229105Y0039036D01*
X0229018Y0039054D01*
X0228932Y0039077D01*
X0228847Y0039103D01*
X0228763Y0039134D01*
X0228681Y0039168D01*
X0228600Y0039205D01*
X0228521Y0039246D01*
X0228444Y0039291D01*
X0228369Y0039339D01*
X0228296Y0039390D01*
X0228225Y0039444D01*
X0228157Y0039502D01*
X0228092Y0039562D01*
X0228029Y0039626D01*
X0227969Y0039692D01*
X0227912Y0039761D01*
X0227859Y0039832D01*
X0227808Y0039905D01*
X0227761Y0039981D01*
X0227718Y0040058D01*
X0227677Y0040138D01*
X0227641Y0040219D01*
X0227608Y0040302D01*
X0227579Y0040386D01*
X0227553Y0040472D01*
X0227531Y0040558D01*
X0227514Y0040645D01*
X0227500Y0040733D01*
X0227490Y0040822D01*
X0227484Y0040911D01*
X0227482Y0041000D01*
X0247182Y0041000D02*
X0247184Y0041089D01*
X0247190Y0041178D01*
X0247200Y0041267D01*
X0247214Y0041355D01*
X0247231Y0041442D01*
X0247253Y0041528D01*
X0247279Y0041614D01*
X0247308Y0041698D01*
X0247341Y0041781D01*
X0247377Y0041862D01*
X0247418Y0041942D01*
X0247461Y0042019D01*
X0247508Y0042095D01*
X0247559Y0042168D01*
X0247612Y0042239D01*
X0247669Y0042308D01*
X0247729Y0042374D01*
X0247792Y0042438D01*
X0247857Y0042498D01*
X0247925Y0042556D01*
X0247996Y0042610D01*
X0248069Y0042661D01*
X0248144Y0042709D01*
X0248221Y0042754D01*
X0248300Y0042795D01*
X0248381Y0042832D01*
X0248463Y0042866D01*
X0248547Y0042897D01*
X0248632Y0042923D01*
X0248718Y0042946D01*
X0248805Y0042964D01*
X0248893Y0042979D01*
X0248982Y0042990D01*
X0249071Y0042997D01*
X0249160Y0043000D01*
X0249249Y0042999D01*
X0249338Y0042994D01*
X0249426Y0042985D01*
X0249515Y0042972D01*
X0249602Y0042955D01*
X0249689Y0042935D01*
X0249775Y0042910D01*
X0249859Y0042882D01*
X0249942Y0042850D01*
X0250024Y0042814D01*
X0250104Y0042775D01*
X0250182Y0042732D01*
X0250258Y0042686D01*
X0250332Y0042636D01*
X0250404Y0042583D01*
X0250473Y0042527D01*
X0250540Y0042468D01*
X0250604Y0042406D01*
X0250665Y0042342D01*
X0250724Y0042274D01*
X0250779Y0042204D01*
X0250831Y0042132D01*
X0250880Y0042057D01*
X0250925Y0041981D01*
X0250967Y0041902D01*
X0251005Y0041822D01*
X0251040Y0041740D01*
X0251071Y0041656D01*
X0251099Y0041571D01*
X0251122Y0041485D01*
X0251142Y0041398D01*
X0251158Y0041311D01*
X0251170Y0041222D01*
X0251178Y0041134D01*
X0251182Y0041045D01*
X0251182Y0040955D01*
X0251178Y0040866D01*
X0251170Y0040778D01*
X0251158Y0040689D01*
X0251142Y0040602D01*
X0251122Y0040515D01*
X0251099Y0040429D01*
X0251071Y0040344D01*
X0251040Y0040260D01*
X0251005Y0040178D01*
X0250967Y0040098D01*
X0250925Y0040019D01*
X0250880Y0039943D01*
X0250831Y0039868D01*
X0250779Y0039796D01*
X0250724Y0039726D01*
X0250665Y0039658D01*
X0250604Y0039594D01*
X0250540Y0039532D01*
X0250473Y0039473D01*
X0250404Y0039417D01*
X0250332Y0039364D01*
X0250258Y0039314D01*
X0250182Y0039268D01*
X0250104Y0039225D01*
X0250024Y0039186D01*
X0249942Y0039150D01*
X0249859Y0039118D01*
X0249775Y0039090D01*
X0249689Y0039065D01*
X0249602Y0039045D01*
X0249515Y0039028D01*
X0249426Y0039015D01*
X0249338Y0039006D01*
X0249249Y0039001D01*
X0249160Y0039000D01*
X0249071Y0039003D01*
X0248982Y0039010D01*
X0248893Y0039021D01*
X0248805Y0039036D01*
X0248718Y0039054D01*
X0248632Y0039077D01*
X0248547Y0039103D01*
X0248463Y0039134D01*
X0248381Y0039168D01*
X0248300Y0039205D01*
X0248221Y0039246D01*
X0248144Y0039291D01*
X0248069Y0039339D01*
X0247996Y0039390D01*
X0247925Y0039444D01*
X0247857Y0039502D01*
X0247792Y0039562D01*
X0247729Y0039626D01*
X0247669Y0039692D01*
X0247612Y0039761D01*
X0247559Y0039832D01*
X0247508Y0039905D01*
X0247461Y0039981D01*
X0247418Y0040058D01*
X0247377Y0040138D01*
X0247341Y0040219D01*
X0247308Y0040302D01*
X0247279Y0040386D01*
X0247253Y0040472D01*
X0247231Y0040558D01*
X0247214Y0040645D01*
X0247200Y0040733D01*
X0247190Y0040822D01*
X0247184Y0040911D01*
X0247182Y0041000D01*
X0251667Y0084879D02*
X0186667Y0084879D01*
X0186667Y0173879D01*
X0251667Y0173879D01*
X0251667Y0084879D01*
X0242667Y0112379D02*
X0242667Y0114879D01*
X0221667Y0114879D01*
X0216667Y0114879D02*
X0195667Y0114879D01*
X0195667Y0112379D01*
X0216667Y0109879D02*
X0221667Y0109879D01*
X0216667Y0119879D01*
X0219167Y0122379D02*
X0219167Y0148379D01*
X0221667Y0150879D02*
X0233967Y0150879D01*
X0216667Y0150879D02*
X0204467Y0150879D01*
X0219167Y0107379D02*
X0219167Y0103379D01*
X0144167Y0139879D02*
X0144167Y0144879D01*
X0141667Y0147379D01*
X0136667Y0147379D01*
X0134167Y0144879D01*
X0131667Y0147379D01*
X0126667Y0147379D01*
X0124167Y0144879D01*
X0121667Y0147379D01*
X0116667Y0147379D01*
X0114167Y0144879D01*
X0111667Y0147379D01*
X0106667Y0147379D01*
X0104167Y0144879D01*
X0101667Y0147379D01*
X0096667Y0147379D01*
X0094167Y0144879D01*
X0091667Y0147379D01*
X0086667Y0147379D01*
X0084167Y0144879D01*
X0084167Y0139879D01*
X0086667Y0137379D01*
X0091667Y0137379D01*
X0094167Y0139879D01*
X0096667Y0137379D01*
X0101667Y0137379D01*
X0104167Y0139879D01*
X0106667Y0137379D01*
X0111667Y0137379D01*
X0114167Y0139879D01*
X0116667Y0137379D01*
X0121667Y0137379D01*
X0124167Y0139879D01*
X0126667Y0137379D01*
X0131667Y0137379D01*
X0134167Y0139879D01*
X0136667Y0137379D01*
X0141667Y0137379D01*
X0144167Y0139879D01*
X0127001Y0189859D02*
X0161430Y0189859D01*
X0161430Y0214898D01*
X0127001Y0214898D01*
X0127001Y0212867D01*
X0161037Y0212867D01*
X0146430Y0239859D02*
X0146430Y0264898D01*
X0112001Y0264898D01*
X0112001Y0262867D01*
X0146037Y0262867D01*
X0146430Y0239859D02*
X0112001Y0239859D01*
X0112001Y0262867D01*
X0127001Y0212867D02*
X0127001Y0189859D01*
X0172167Y0244379D02*
X0172167Y0258379D01*
X0172167Y0244379D02*
X0173167Y0244379D01*
X0245167Y0244379D02*
X0246167Y0244379D01*
X0246167Y0258379D01*
X0254466Y0257036D02*
X0254466Y0217737D01*
X0255265Y0217737D01*
X0255265Y0257036D01*
X0281265Y0257036D01*
X0290667Y0257036D01*
X0290667Y0217737D01*
X0281265Y0217737D01*
X0255265Y0217737D01*
X0255265Y0217036D02*
X0254466Y0217036D01*
X0254466Y0177737D01*
X0255265Y0177737D01*
X0255265Y0217036D01*
X0281265Y0217036D01*
X0290667Y0217036D01*
X0290667Y0177737D01*
X0281265Y0177737D01*
X0255265Y0177737D01*
X0258467Y0187536D02*
X0258469Y0187625D01*
X0258475Y0187714D01*
X0258485Y0187803D01*
X0258499Y0187891D01*
X0258516Y0187978D01*
X0258538Y0188064D01*
X0258564Y0188150D01*
X0258593Y0188234D01*
X0258626Y0188317D01*
X0258662Y0188398D01*
X0258703Y0188478D01*
X0258746Y0188555D01*
X0258793Y0188631D01*
X0258844Y0188704D01*
X0258897Y0188775D01*
X0258954Y0188844D01*
X0259014Y0188910D01*
X0259077Y0188974D01*
X0259142Y0189034D01*
X0259210Y0189092D01*
X0259281Y0189146D01*
X0259354Y0189197D01*
X0259429Y0189245D01*
X0259506Y0189290D01*
X0259585Y0189331D01*
X0259666Y0189368D01*
X0259748Y0189402D01*
X0259832Y0189433D01*
X0259917Y0189459D01*
X0260003Y0189482D01*
X0260090Y0189500D01*
X0260178Y0189515D01*
X0260267Y0189526D01*
X0260356Y0189533D01*
X0260445Y0189536D01*
X0260534Y0189535D01*
X0260623Y0189530D01*
X0260711Y0189521D01*
X0260800Y0189508D01*
X0260887Y0189491D01*
X0260974Y0189471D01*
X0261060Y0189446D01*
X0261144Y0189418D01*
X0261227Y0189386D01*
X0261309Y0189350D01*
X0261389Y0189311D01*
X0261467Y0189268D01*
X0261543Y0189222D01*
X0261617Y0189172D01*
X0261689Y0189119D01*
X0261758Y0189063D01*
X0261825Y0189004D01*
X0261889Y0188942D01*
X0261950Y0188878D01*
X0262009Y0188810D01*
X0262064Y0188740D01*
X0262116Y0188668D01*
X0262165Y0188593D01*
X0262210Y0188517D01*
X0262252Y0188438D01*
X0262290Y0188358D01*
X0262325Y0188276D01*
X0262356Y0188192D01*
X0262384Y0188107D01*
X0262407Y0188021D01*
X0262427Y0187934D01*
X0262443Y0187847D01*
X0262455Y0187758D01*
X0262463Y0187670D01*
X0262467Y0187581D01*
X0262467Y0187491D01*
X0262463Y0187402D01*
X0262455Y0187314D01*
X0262443Y0187225D01*
X0262427Y0187138D01*
X0262407Y0187051D01*
X0262384Y0186965D01*
X0262356Y0186880D01*
X0262325Y0186796D01*
X0262290Y0186714D01*
X0262252Y0186634D01*
X0262210Y0186555D01*
X0262165Y0186479D01*
X0262116Y0186404D01*
X0262064Y0186332D01*
X0262009Y0186262D01*
X0261950Y0186194D01*
X0261889Y0186130D01*
X0261825Y0186068D01*
X0261758Y0186009D01*
X0261689Y0185953D01*
X0261617Y0185900D01*
X0261543Y0185850D01*
X0261467Y0185804D01*
X0261389Y0185761D01*
X0261309Y0185722D01*
X0261227Y0185686D01*
X0261144Y0185654D01*
X0261060Y0185626D01*
X0260974Y0185601D01*
X0260887Y0185581D01*
X0260800Y0185564D01*
X0260711Y0185551D01*
X0260623Y0185542D01*
X0260534Y0185537D01*
X0260445Y0185536D01*
X0260356Y0185539D01*
X0260267Y0185546D01*
X0260178Y0185557D01*
X0260090Y0185572D01*
X0260003Y0185590D01*
X0259917Y0185613D01*
X0259832Y0185639D01*
X0259748Y0185670D01*
X0259666Y0185704D01*
X0259585Y0185741D01*
X0259506Y0185782D01*
X0259429Y0185827D01*
X0259354Y0185875D01*
X0259281Y0185926D01*
X0259210Y0185980D01*
X0259142Y0186038D01*
X0259077Y0186098D01*
X0259014Y0186162D01*
X0258954Y0186228D01*
X0258897Y0186297D01*
X0258844Y0186368D01*
X0258793Y0186441D01*
X0258746Y0186517D01*
X0258703Y0186594D01*
X0258662Y0186674D01*
X0258626Y0186755D01*
X0258593Y0186838D01*
X0258564Y0186922D01*
X0258538Y0187008D01*
X0258516Y0187094D01*
X0258499Y0187181D01*
X0258485Y0187269D01*
X0258475Y0187358D01*
X0258469Y0187447D01*
X0258467Y0187536D01*
X0258467Y0207236D02*
X0258469Y0207325D01*
X0258475Y0207414D01*
X0258485Y0207503D01*
X0258499Y0207591D01*
X0258516Y0207678D01*
X0258538Y0207764D01*
X0258564Y0207850D01*
X0258593Y0207934D01*
X0258626Y0208017D01*
X0258662Y0208098D01*
X0258703Y0208178D01*
X0258746Y0208255D01*
X0258793Y0208331D01*
X0258844Y0208404D01*
X0258897Y0208475D01*
X0258954Y0208544D01*
X0259014Y0208610D01*
X0259077Y0208674D01*
X0259142Y0208734D01*
X0259210Y0208792D01*
X0259281Y0208846D01*
X0259354Y0208897D01*
X0259429Y0208945D01*
X0259506Y0208990D01*
X0259585Y0209031D01*
X0259666Y0209068D01*
X0259748Y0209102D01*
X0259832Y0209133D01*
X0259917Y0209159D01*
X0260003Y0209182D01*
X0260090Y0209200D01*
X0260178Y0209215D01*
X0260267Y0209226D01*
X0260356Y0209233D01*
X0260445Y0209236D01*
X0260534Y0209235D01*
X0260623Y0209230D01*
X0260711Y0209221D01*
X0260800Y0209208D01*
X0260887Y0209191D01*
X0260974Y0209171D01*
X0261060Y0209146D01*
X0261144Y0209118D01*
X0261227Y0209086D01*
X0261309Y0209050D01*
X0261389Y0209011D01*
X0261467Y0208968D01*
X0261543Y0208922D01*
X0261617Y0208872D01*
X0261689Y0208819D01*
X0261758Y0208763D01*
X0261825Y0208704D01*
X0261889Y0208642D01*
X0261950Y0208578D01*
X0262009Y0208510D01*
X0262064Y0208440D01*
X0262116Y0208368D01*
X0262165Y0208293D01*
X0262210Y0208217D01*
X0262252Y0208138D01*
X0262290Y0208058D01*
X0262325Y0207976D01*
X0262356Y0207892D01*
X0262384Y0207807D01*
X0262407Y0207721D01*
X0262427Y0207634D01*
X0262443Y0207547D01*
X0262455Y0207458D01*
X0262463Y0207370D01*
X0262467Y0207281D01*
X0262467Y0207191D01*
X0262463Y0207102D01*
X0262455Y0207014D01*
X0262443Y0206925D01*
X0262427Y0206838D01*
X0262407Y0206751D01*
X0262384Y0206665D01*
X0262356Y0206580D01*
X0262325Y0206496D01*
X0262290Y0206414D01*
X0262252Y0206334D01*
X0262210Y0206255D01*
X0262165Y0206179D01*
X0262116Y0206104D01*
X0262064Y0206032D01*
X0262009Y0205962D01*
X0261950Y0205894D01*
X0261889Y0205830D01*
X0261825Y0205768D01*
X0261758Y0205709D01*
X0261689Y0205653D01*
X0261617Y0205600D01*
X0261543Y0205550D01*
X0261467Y0205504D01*
X0261389Y0205461D01*
X0261309Y0205422D01*
X0261227Y0205386D01*
X0261144Y0205354D01*
X0261060Y0205326D01*
X0260974Y0205301D01*
X0260887Y0205281D01*
X0260800Y0205264D01*
X0260711Y0205251D01*
X0260623Y0205242D01*
X0260534Y0205237D01*
X0260445Y0205236D01*
X0260356Y0205239D01*
X0260267Y0205246D01*
X0260178Y0205257D01*
X0260090Y0205272D01*
X0260003Y0205290D01*
X0259917Y0205313D01*
X0259832Y0205339D01*
X0259748Y0205370D01*
X0259666Y0205404D01*
X0259585Y0205441D01*
X0259506Y0205482D01*
X0259429Y0205527D01*
X0259354Y0205575D01*
X0259281Y0205626D01*
X0259210Y0205680D01*
X0259142Y0205738D01*
X0259077Y0205798D01*
X0259014Y0205862D01*
X0258954Y0205928D01*
X0258897Y0205997D01*
X0258844Y0206068D01*
X0258793Y0206141D01*
X0258746Y0206217D01*
X0258703Y0206294D01*
X0258662Y0206374D01*
X0258626Y0206455D01*
X0258593Y0206538D01*
X0258564Y0206622D01*
X0258538Y0206708D01*
X0258516Y0206794D01*
X0258499Y0206881D01*
X0258485Y0206969D01*
X0258475Y0207058D01*
X0258469Y0207147D01*
X0258467Y0207236D01*
X0258467Y0227536D02*
X0258469Y0227625D01*
X0258475Y0227714D01*
X0258485Y0227803D01*
X0258499Y0227891D01*
X0258516Y0227978D01*
X0258538Y0228064D01*
X0258564Y0228150D01*
X0258593Y0228234D01*
X0258626Y0228317D01*
X0258662Y0228398D01*
X0258703Y0228478D01*
X0258746Y0228555D01*
X0258793Y0228631D01*
X0258844Y0228704D01*
X0258897Y0228775D01*
X0258954Y0228844D01*
X0259014Y0228910D01*
X0259077Y0228974D01*
X0259142Y0229034D01*
X0259210Y0229092D01*
X0259281Y0229146D01*
X0259354Y0229197D01*
X0259429Y0229245D01*
X0259506Y0229290D01*
X0259585Y0229331D01*
X0259666Y0229368D01*
X0259748Y0229402D01*
X0259832Y0229433D01*
X0259917Y0229459D01*
X0260003Y0229482D01*
X0260090Y0229500D01*
X0260178Y0229515D01*
X0260267Y0229526D01*
X0260356Y0229533D01*
X0260445Y0229536D01*
X0260534Y0229535D01*
X0260623Y0229530D01*
X0260711Y0229521D01*
X0260800Y0229508D01*
X0260887Y0229491D01*
X0260974Y0229471D01*
X0261060Y0229446D01*
X0261144Y0229418D01*
X0261227Y0229386D01*
X0261309Y0229350D01*
X0261389Y0229311D01*
X0261467Y0229268D01*
X0261543Y0229222D01*
X0261617Y0229172D01*
X0261689Y0229119D01*
X0261758Y0229063D01*
X0261825Y0229004D01*
X0261889Y0228942D01*
X0261950Y0228878D01*
X0262009Y0228810D01*
X0262064Y0228740D01*
X0262116Y0228668D01*
X0262165Y0228593D01*
X0262210Y0228517D01*
X0262252Y0228438D01*
X0262290Y0228358D01*
X0262325Y0228276D01*
X0262356Y0228192D01*
X0262384Y0228107D01*
X0262407Y0228021D01*
X0262427Y0227934D01*
X0262443Y0227847D01*
X0262455Y0227758D01*
X0262463Y0227670D01*
X0262467Y0227581D01*
X0262467Y0227491D01*
X0262463Y0227402D01*
X0262455Y0227314D01*
X0262443Y0227225D01*
X0262427Y0227138D01*
X0262407Y0227051D01*
X0262384Y0226965D01*
X0262356Y0226880D01*
X0262325Y0226796D01*
X0262290Y0226714D01*
X0262252Y0226634D01*
X0262210Y0226555D01*
X0262165Y0226479D01*
X0262116Y0226404D01*
X0262064Y0226332D01*
X0262009Y0226262D01*
X0261950Y0226194D01*
X0261889Y0226130D01*
X0261825Y0226068D01*
X0261758Y0226009D01*
X0261689Y0225953D01*
X0261617Y0225900D01*
X0261543Y0225850D01*
X0261467Y0225804D01*
X0261389Y0225761D01*
X0261309Y0225722D01*
X0261227Y0225686D01*
X0261144Y0225654D01*
X0261060Y0225626D01*
X0260974Y0225601D01*
X0260887Y0225581D01*
X0260800Y0225564D01*
X0260711Y0225551D01*
X0260623Y0225542D01*
X0260534Y0225537D01*
X0260445Y0225536D01*
X0260356Y0225539D01*
X0260267Y0225546D01*
X0260178Y0225557D01*
X0260090Y0225572D01*
X0260003Y0225590D01*
X0259917Y0225613D01*
X0259832Y0225639D01*
X0259748Y0225670D01*
X0259666Y0225704D01*
X0259585Y0225741D01*
X0259506Y0225782D01*
X0259429Y0225827D01*
X0259354Y0225875D01*
X0259281Y0225926D01*
X0259210Y0225980D01*
X0259142Y0226038D01*
X0259077Y0226098D01*
X0259014Y0226162D01*
X0258954Y0226228D01*
X0258897Y0226297D01*
X0258844Y0226368D01*
X0258793Y0226441D01*
X0258746Y0226517D01*
X0258703Y0226594D01*
X0258662Y0226674D01*
X0258626Y0226755D01*
X0258593Y0226838D01*
X0258564Y0226922D01*
X0258538Y0227008D01*
X0258516Y0227094D01*
X0258499Y0227181D01*
X0258485Y0227269D01*
X0258475Y0227358D01*
X0258469Y0227447D01*
X0258467Y0227536D01*
X0258467Y0247236D02*
X0258469Y0247325D01*
X0258475Y0247414D01*
X0258485Y0247503D01*
X0258499Y0247591D01*
X0258516Y0247678D01*
X0258538Y0247764D01*
X0258564Y0247850D01*
X0258593Y0247934D01*
X0258626Y0248017D01*
X0258662Y0248098D01*
X0258703Y0248178D01*
X0258746Y0248255D01*
X0258793Y0248331D01*
X0258844Y0248404D01*
X0258897Y0248475D01*
X0258954Y0248544D01*
X0259014Y0248610D01*
X0259077Y0248674D01*
X0259142Y0248734D01*
X0259210Y0248792D01*
X0259281Y0248846D01*
X0259354Y0248897D01*
X0259429Y0248945D01*
X0259506Y0248990D01*
X0259585Y0249031D01*
X0259666Y0249068D01*
X0259748Y0249102D01*
X0259832Y0249133D01*
X0259917Y0249159D01*
X0260003Y0249182D01*
X0260090Y0249200D01*
X0260178Y0249215D01*
X0260267Y0249226D01*
X0260356Y0249233D01*
X0260445Y0249236D01*
X0260534Y0249235D01*
X0260623Y0249230D01*
X0260711Y0249221D01*
X0260800Y0249208D01*
X0260887Y0249191D01*
X0260974Y0249171D01*
X0261060Y0249146D01*
X0261144Y0249118D01*
X0261227Y0249086D01*
X0261309Y0249050D01*
X0261389Y0249011D01*
X0261467Y0248968D01*
X0261543Y0248922D01*
X0261617Y0248872D01*
X0261689Y0248819D01*
X0261758Y0248763D01*
X0261825Y0248704D01*
X0261889Y0248642D01*
X0261950Y0248578D01*
X0262009Y0248510D01*
X0262064Y0248440D01*
X0262116Y0248368D01*
X0262165Y0248293D01*
X0262210Y0248217D01*
X0262252Y0248138D01*
X0262290Y0248058D01*
X0262325Y0247976D01*
X0262356Y0247892D01*
X0262384Y0247807D01*
X0262407Y0247721D01*
X0262427Y0247634D01*
X0262443Y0247547D01*
X0262455Y0247458D01*
X0262463Y0247370D01*
X0262467Y0247281D01*
X0262467Y0247191D01*
X0262463Y0247102D01*
X0262455Y0247014D01*
X0262443Y0246925D01*
X0262427Y0246838D01*
X0262407Y0246751D01*
X0262384Y0246665D01*
X0262356Y0246580D01*
X0262325Y0246496D01*
X0262290Y0246414D01*
X0262252Y0246334D01*
X0262210Y0246255D01*
X0262165Y0246179D01*
X0262116Y0246104D01*
X0262064Y0246032D01*
X0262009Y0245962D01*
X0261950Y0245894D01*
X0261889Y0245830D01*
X0261825Y0245768D01*
X0261758Y0245709D01*
X0261689Y0245653D01*
X0261617Y0245600D01*
X0261543Y0245550D01*
X0261467Y0245504D01*
X0261389Y0245461D01*
X0261309Y0245422D01*
X0261227Y0245386D01*
X0261144Y0245354D01*
X0261060Y0245326D01*
X0260974Y0245301D01*
X0260887Y0245281D01*
X0260800Y0245264D01*
X0260711Y0245251D01*
X0260623Y0245242D01*
X0260534Y0245237D01*
X0260445Y0245236D01*
X0260356Y0245239D01*
X0260267Y0245246D01*
X0260178Y0245257D01*
X0260090Y0245272D01*
X0260003Y0245290D01*
X0259917Y0245313D01*
X0259832Y0245339D01*
X0259748Y0245370D01*
X0259666Y0245404D01*
X0259585Y0245441D01*
X0259506Y0245482D01*
X0259429Y0245527D01*
X0259354Y0245575D01*
X0259281Y0245626D01*
X0259210Y0245680D01*
X0259142Y0245738D01*
X0259077Y0245798D01*
X0259014Y0245862D01*
X0258954Y0245928D01*
X0258897Y0245997D01*
X0258844Y0246068D01*
X0258793Y0246141D01*
X0258746Y0246217D01*
X0258703Y0246294D01*
X0258662Y0246374D01*
X0258626Y0246455D01*
X0258593Y0246538D01*
X0258564Y0246622D01*
X0258538Y0246708D01*
X0258516Y0246794D01*
X0258499Y0246881D01*
X0258485Y0246969D01*
X0258475Y0247058D01*
X0258469Y0247147D01*
X0258467Y0247236D01*
X0255265Y0257036D02*
X0254466Y0257036D01*
X0281265Y0257036D02*
X0281265Y0250737D01*
X0281265Y0243737D02*
X0281265Y0231036D01*
X0281265Y0224036D02*
X0281265Y0217737D01*
X0281265Y0217036D02*
X0281265Y0210737D01*
X0281265Y0203737D02*
X0281265Y0191036D01*
X0281265Y0184036D02*
X0281265Y0177737D01*
X0087966Y0099780D02*
X0087966Y0073580D01*
X0060367Y0073580D01*
X0060367Y0101178D01*
X0086568Y0101178D01*
X0087966Y0099780D01*
X0083553Y0098179D02*
X0083555Y0098254D01*
X0083561Y0098328D01*
X0083571Y0098402D01*
X0083584Y0098475D01*
X0083602Y0098548D01*
X0083623Y0098619D01*
X0083648Y0098690D01*
X0083677Y0098759D01*
X0083710Y0098826D01*
X0083746Y0098891D01*
X0083785Y0098955D01*
X0083827Y0099016D01*
X0083873Y0099075D01*
X0083922Y0099132D01*
X0083974Y0099185D01*
X0084028Y0099236D01*
X0084085Y0099285D01*
X0084145Y0099329D01*
X0084207Y0099371D01*
X0084271Y0099410D01*
X0084337Y0099445D01*
X0084404Y0099476D01*
X0084474Y0099504D01*
X0084544Y0099528D01*
X0084616Y0099549D01*
X0084689Y0099565D01*
X0084762Y0099578D01*
X0084837Y0099587D01*
X0084911Y0099592D01*
X0084986Y0099593D01*
X0085060Y0099590D01*
X0085135Y0099583D01*
X0085208Y0099572D01*
X0085282Y0099558D01*
X0085354Y0099539D01*
X0085425Y0099517D01*
X0085495Y0099491D01*
X0085564Y0099461D01*
X0085630Y0099428D01*
X0085695Y0099391D01*
X0085758Y0099351D01*
X0085819Y0099307D01*
X0085877Y0099261D01*
X0085933Y0099211D01*
X0085986Y0099159D01*
X0086037Y0099104D01*
X0086084Y0099046D01*
X0086128Y0098986D01*
X0086169Y0098923D01*
X0086207Y0098859D01*
X0086241Y0098793D01*
X0086272Y0098724D01*
X0086299Y0098655D01*
X0086322Y0098584D01*
X0086341Y0098512D01*
X0086357Y0098439D01*
X0086369Y0098365D01*
X0086377Y0098291D01*
X0086381Y0098216D01*
X0086381Y0098142D01*
X0086377Y0098067D01*
X0086369Y0097993D01*
X0086357Y0097919D01*
X0086341Y0097846D01*
X0086322Y0097774D01*
X0086299Y0097703D01*
X0086272Y0097634D01*
X0086241Y0097565D01*
X0086207Y0097499D01*
X0086169Y0097435D01*
X0086128Y0097372D01*
X0086084Y0097312D01*
X0086037Y0097254D01*
X0085986Y0097199D01*
X0085933Y0097147D01*
X0085877Y0097097D01*
X0085819Y0097051D01*
X0085758Y0097007D01*
X0085695Y0096967D01*
X0085630Y0096930D01*
X0085564Y0096897D01*
X0085495Y0096867D01*
X0085425Y0096841D01*
X0085354Y0096819D01*
X0085282Y0096800D01*
X0085208Y0096786D01*
X0085135Y0096775D01*
X0085060Y0096768D01*
X0084986Y0096765D01*
X0084911Y0096766D01*
X0084837Y0096771D01*
X0084762Y0096780D01*
X0084689Y0096793D01*
X0084616Y0096809D01*
X0084544Y0096830D01*
X0084474Y0096854D01*
X0084404Y0096882D01*
X0084337Y0096913D01*
X0084271Y0096948D01*
X0084207Y0096987D01*
X0084145Y0097029D01*
X0084085Y0097073D01*
X0084028Y0097122D01*
X0083974Y0097173D01*
X0083922Y0097226D01*
X0083873Y0097283D01*
X0083827Y0097342D01*
X0083785Y0097403D01*
X0083746Y0097467D01*
X0083710Y0097532D01*
X0083677Y0097599D01*
X0083648Y0097668D01*
X0083623Y0097739D01*
X0083602Y0097810D01*
X0083584Y0097883D01*
X0083571Y0097956D01*
X0083561Y0098030D01*
X0083555Y0098104D01*
X0083553Y0098179D01*
X0061167Y0135879D02*
X0037167Y0135879D01*
X0037007Y0135881D01*
X0036848Y0135887D01*
X0036689Y0135897D01*
X0036530Y0135910D01*
X0036371Y0135928D01*
X0036213Y0135949D01*
X0036056Y0135975D01*
X0035899Y0136004D01*
X0035743Y0136037D01*
X0035588Y0136074D01*
X0035433Y0136114D01*
X0035280Y0136159D01*
X0035128Y0136207D01*
X0034977Y0136259D01*
X0034828Y0136315D01*
X0034680Y0136374D01*
X0034533Y0136437D01*
X0034388Y0136503D01*
X0034245Y0136573D01*
X0034103Y0136647D01*
X0033963Y0136723D01*
X0033825Y0136804D01*
X0033690Y0136887D01*
X0033556Y0136974D01*
X0033424Y0137065D01*
X0033295Y0137158D01*
X0033168Y0137255D01*
X0033043Y0137354D01*
X0032921Y0137457D01*
X0032802Y0137563D01*
X0032685Y0137671D01*
X0032571Y0137783D01*
X0032459Y0137897D01*
X0032351Y0138014D01*
X0032245Y0138133D01*
X0032142Y0138255D01*
X0032043Y0138380D01*
X0031946Y0138507D01*
X0031853Y0138636D01*
X0031762Y0138768D01*
X0031675Y0138902D01*
X0031592Y0139037D01*
X0031511Y0139175D01*
X0031435Y0139315D01*
X0031361Y0139457D01*
X0031291Y0139600D01*
X0031225Y0139745D01*
X0031162Y0139892D01*
X0031103Y0140040D01*
X0031047Y0140189D01*
X0030995Y0140340D01*
X0030947Y0140492D01*
X0030902Y0140645D01*
X0030862Y0140800D01*
X0030825Y0140955D01*
X0030792Y0141111D01*
X0030763Y0141268D01*
X0030737Y0141425D01*
X0030716Y0141583D01*
X0030698Y0141742D01*
X0030685Y0141901D01*
X0030675Y0142060D01*
X0030669Y0142219D01*
X0030667Y0142379D01*
X0030669Y0142539D01*
X0030675Y0142698D01*
X0030685Y0142857D01*
X0030698Y0143016D01*
X0030716Y0143175D01*
X0030737Y0143333D01*
X0030763Y0143490D01*
X0030792Y0143647D01*
X0030825Y0143803D01*
X0030862Y0143958D01*
X0030902Y0144113D01*
X0030947Y0144266D01*
X0030995Y0144418D01*
X0031047Y0144569D01*
X0031103Y0144718D01*
X0031162Y0144866D01*
X0031225Y0145013D01*
X0031291Y0145158D01*
X0031361Y0145301D01*
X0031435Y0145443D01*
X0031511Y0145583D01*
X0031592Y0145721D01*
X0031675Y0145856D01*
X0031762Y0145990D01*
X0031853Y0146122D01*
X0031946Y0146251D01*
X0032043Y0146378D01*
X0032142Y0146503D01*
X0032245Y0146625D01*
X0032351Y0146744D01*
X0032459Y0146861D01*
X0032571Y0146975D01*
X0032685Y0147087D01*
X0032802Y0147195D01*
X0032921Y0147301D01*
X0033043Y0147404D01*
X0033168Y0147503D01*
X0033295Y0147600D01*
X0033424Y0147693D01*
X0033556Y0147784D01*
X0033690Y0147871D01*
X0033825Y0147954D01*
X0033963Y0148035D01*
X0034103Y0148111D01*
X0034245Y0148185D01*
X0034388Y0148255D01*
X0034533Y0148321D01*
X0034680Y0148384D01*
X0034828Y0148443D01*
X0034977Y0148499D01*
X0035128Y0148551D01*
X0035280Y0148599D01*
X0035433Y0148644D01*
X0035588Y0148684D01*
X0035743Y0148721D01*
X0035899Y0148754D01*
X0036056Y0148783D01*
X0036213Y0148809D01*
X0036371Y0148830D01*
X0036530Y0148848D01*
X0036689Y0148861D01*
X0036848Y0148871D01*
X0037007Y0148877D01*
X0037167Y0148879D01*
X0061167Y0148879D01*
X0061327Y0148877D01*
X0061486Y0148871D01*
X0061645Y0148861D01*
X0061804Y0148848D01*
X0061963Y0148830D01*
X0062121Y0148809D01*
X0062278Y0148783D01*
X0062435Y0148754D01*
X0062591Y0148721D01*
X0062746Y0148684D01*
X0062901Y0148644D01*
X0063054Y0148599D01*
X0063206Y0148551D01*
X0063357Y0148499D01*
X0063506Y0148443D01*
X0063654Y0148384D01*
X0063801Y0148321D01*
X0063946Y0148255D01*
X0064089Y0148185D01*
X0064231Y0148111D01*
X0064371Y0148035D01*
X0064509Y0147954D01*
X0064644Y0147871D01*
X0064778Y0147784D01*
X0064910Y0147693D01*
X0065039Y0147600D01*
X0065166Y0147503D01*
X0065291Y0147404D01*
X0065413Y0147301D01*
X0065532Y0147195D01*
X0065649Y0147087D01*
X0065763Y0146975D01*
X0065875Y0146861D01*
X0065983Y0146744D01*
X0066089Y0146625D01*
X0066192Y0146503D01*
X0066291Y0146378D01*
X0066388Y0146251D01*
X0066481Y0146122D01*
X0066572Y0145990D01*
X0066659Y0145856D01*
X0066742Y0145721D01*
X0066823Y0145583D01*
X0066899Y0145443D01*
X0066973Y0145301D01*
X0067043Y0145158D01*
X0067109Y0145013D01*
X0067172Y0144866D01*
X0067231Y0144718D01*
X0067287Y0144569D01*
X0067339Y0144418D01*
X0067387Y0144266D01*
X0067432Y0144113D01*
X0067472Y0143958D01*
X0067509Y0143803D01*
X0067542Y0143647D01*
X0067571Y0143490D01*
X0067597Y0143333D01*
X0067618Y0143175D01*
X0067636Y0143016D01*
X0067649Y0142857D01*
X0067659Y0142698D01*
X0067665Y0142539D01*
X0067667Y0142379D01*
X0067665Y0142219D01*
X0067659Y0142060D01*
X0067649Y0141901D01*
X0067636Y0141742D01*
X0067618Y0141583D01*
X0067597Y0141425D01*
X0067571Y0141268D01*
X0067542Y0141111D01*
X0067509Y0140955D01*
X0067472Y0140800D01*
X0067432Y0140645D01*
X0067387Y0140492D01*
X0067339Y0140340D01*
X0067287Y0140189D01*
X0067231Y0140040D01*
X0067172Y0139892D01*
X0067109Y0139745D01*
X0067043Y0139600D01*
X0066973Y0139457D01*
X0066899Y0139315D01*
X0066823Y0139175D01*
X0066742Y0139037D01*
X0066659Y0138902D01*
X0066572Y0138768D01*
X0066481Y0138636D01*
X0066388Y0138507D01*
X0066291Y0138380D01*
X0066192Y0138255D01*
X0066089Y0138133D01*
X0065983Y0138014D01*
X0065875Y0137897D01*
X0065763Y0137783D01*
X0065649Y0137671D01*
X0065532Y0137563D01*
X0065413Y0137457D01*
X0065291Y0137354D01*
X0065166Y0137255D01*
X0065039Y0137158D01*
X0064910Y0137065D01*
X0064778Y0136974D01*
X0064644Y0136887D01*
X0064509Y0136804D01*
X0064371Y0136723D01*
X0064231Y0136647D01*
X0064089Y0136573D01*
X0063946Y0136503D01*
X0063801Y0136437D01*
X0063654Y0136374D01*
X0063506Y0136315D01*
X0063357Y0136259D01*
X0063206Y0136207D01*
X0063054Y0136159D01*
X0062901Y0136114D01*
X0062746Y0136074D01*
X0062591Y0136037D01*
X0062435Y0136004D01*
X0062278Y0135975D01*
X0062121Y0135949D01*
X0061963Y0135928D01*
X0061804Y0135910D01*
X0061645Y0135897D01*
X0061486Y0135887D01*
X0061327Y0135881D01*
X0061167Y0135879D01*
D15*
X0068822Y0227579D02*
X0068055Y0228346D01*
X0068822Y0227579D02*
X0070357Y0227579D01*
X0071124Y0228346D01*
X0071124Y0229113D01*
X0070357Y0229881D01*
X0068822Y0229881D01*
X0068055Y0230648D01*
X0068055Y0231415D01*
X0068822Y0232183D01*
X0070357Y0232183D01*
X0071124Y0231415D01*
X0072659Y0232183D02*
X0072659Y0227579D01*
X0074193Y0229113D01*
X0075728Y0227579D01*
X0075728Y0232183D01*
X0077263Y0231415D02*
X0078030Y0232183D01*
X0079565Y0232183D01*
X0080332Y0231415D01*
X0080332Y0230648D01*
X0077263Y0227579D01*
X0080332Y0227579D01*
X0172645Y0219946D02*
X0174179Y0221481D01*
X0174179Y0216877D01*
X0172645Y0216877D02*
X0175714Y0216877D01*
X0177176Y0252579D02*
X0180245Y0255648D01*
X0180245Y0256415D01*
X0179478Y0257183D01*
X0177943Y0257183D01*
X0177176Y0256415D01*
X0177176Y0252579D02*
X0180245Y0252579D01*
X0235621Y0252579D02*
X0238690Y0252579D01*
X0237155Y0252579D02*
X0237155Y0257183D01*
X0235621Y0255648D01*
X0240225Y0254881D02*
X0243294Y0254881D01*
X0242526Y0252579D02*
X0242526Y0257183D01*
X0240225Y0254881D01*
X0242624Y0221714D02*
X0242624Y0217110D01*
X0241089Y0217110D02*
X0244159Y0217110D01*
X0245693Y0217877D02*
X0246461Y0217110D01*
X0247995Y0217110D01*
X0248763Y0217877D01*
X0248763Y0219412D01*
X0247995Y0220179D01*
X0247228Y0220179D01*
X0245693Y0219412D01*
X0245693Y0221714D01*
X0248763Y0221714D01*
X0242624Y0221714D02*
X0241089Y0220179D01*
D16*
X0209167Y0261365D03*
D17*
X0257631Y0168954D02*
X0283222Y0168954D01*
X0283222Y0105174D01*
X0257631Y0105174D01*
X0257631Y0168954D01*
X0283222Y0168954D02*
X0287159Y0168954D01*
X0287159Y0105174D01*
X0283222Y0105174D01*
X0272316Y0081316D02*
X0266017Y0081316D01*
X0265958Y0081302D01*
X0265900Y0081285D01*
X0265843Y0081264D01*
X0265787Y0081240D01*
X0265733Y0081212D01*
X0265681Y0081182D01*
X0265630Y0081148D01*
X0265582Y0081111D01*
X0265536Y0081072D01*
X0265493Y0081029D01*
X0265452Y0080985D01*
X0265414Y0080937D01*
X0265379Y0080888D01*
X0265347Y0080836D01*
X0265318Y0080783D01*
X0265292Y0080728D01*
X0265270Y0080672D01*
X0265251Y0080614D01*
X0265235Y0080555D01*
X0265224Y0080496D01*
X0265215Y0080436D01*
X0265211Y0080375D01*
X0265210Y0080315D01*
X0265213Y0080254D01*
X0265219Y0080194D01*
X0265229Y0080134D01*
X0265229Y0074623D02*
X0265219Y0074563D01*
X0265213Y0074503D01*
X0265210Y0074442D01*
X0265211Y0074382D01*
X0265215Y0074321D01*
X0265224Y0074261D01*
X0265235Y0074202D01*
X0265251Y0074143D01*
X0265270Y0074085D01*
X0265292Y0074029D01*
X0265318Y0073974D01*
X0265347Y0073921D01*
X0265379Y0073869D01*
X0265414Y0073820D01*
X0265452Y0073772D01*
X0265493Y0073728D01*
X0265536Y0073685D01*
X0265582Y0073646D01*
X0265630Y0073609D01*
X0265681Y0073575D01*
X0265733Y0073545D01*
X0265787Y0073517D01*
X0265843Y0073493D01*
X0265900Y0073472D01*
X0265958Y0073455D01*
X0266017Y0073441D01*
X0266017Y0073442D02*
X0272316Y0073442D01*
X0272316Y0073441D02*
X0272375Y0073455D01*
X0272433Y0073472D01*
X0272490Y0073493D01*
X0272546Y0073517D01*
X0272600Y0073545D01*
X0272652Y0073575D01*
X0272703Y0073609D01*
X0272751Y0073646D01*
X0272797Y0073685D01*
X0272840Y0073728D01*
X0272881Y0073772D01*
X0272919Y0073820D01*
X0272954Y0073869D01*
X0272986Y0073921D01*
X0273015Y0073974D01*
X0273041Y0074029D01*
X0273063Y0074085D01*
X0273082Y0074143D01*
X0273098Y0074202D01*
X0273109Y0074261D01*
X0273118Y0074321D01*
X0273122Y0074382D01*
X0273123Y0074442D01*
X0273120Y0074503D01*
X0273114Y0074563D01*
X0273104Y0074623D01*
X0276411Y0072891D02*
X0279560Y0072891D01*
X0276411Y0072891D02*
X0276411Y0070528D01*
X0276411Y0064229D02*
X0276411Y0061867D01*
X0279560Y0061867D01*
X0273104Y0080134D02*
X0273114Y0080194D01*
X0273120Y0080254D01*
X0273123Y0080315D01*
X0273122Y0080375D01*
X0273118Y0080436D01*
X0273109Y0080496D01*
X0273098Y0080555D01*
X0273082Y0080614D01*
X0273063Y0080672D01*
X0273041Y0080728D01*
X0273015Y0080783D01*
X0272986Y0080836D01*
X0272954Y0080888D01*
X0272919Y0080937D01*
X0272881Y0080985D01*
X0272840Y0081029D01*
X0272797Y0081072D01*
X0272751Y0081111D01*
X0272703Y0081148D01*
X0272652Y0081182D01*
X0272600Y0081212D01*
X0272546Y0081240D01*
X0272490Y0081264D01*
X0272433Y0081285D01*
X0272375Y0081302D01*
X0272316Y0081316D01*
X0182067Y0072279D02*
X0182068Y0095879D01*
X0156265Y0095879D01*
X0156267Y0072279D01*
X0045883Y0229190D02*
X0010450Y0229190D01*
X0010450Y0271316D01*
X0018718Y0271316D01*
X0037615Y0271316D02*
X0045883Y0271316D01*
X0045883Y0268560D01*
X0045883Y0250056D02*
X0045883Y0229190D01*
D18*
X0142946Y0260253D03*
X0157946Y0210253D03*
D19*
X0074167Y0177379D03*
X0065167Y0174379D03*
D20*
X0061167Y0150879D02*
X0037167Y0150879D01*
X0036960Y0150876D01*
X0036753Y0150869D01*
X0036547Y0150856D01*
X0036340Y0150839D01*
X0036135Y0150816D01*
X0035929Y0150788D01*
X0035725Y0150756D01*
X0035521Y0150718D01*
X0035319Y0150676D01*
X0035117Y0150628D01*
X0034917Y0150576D01*
X0034718Y0150519D01*
X0034521Y0150457D01*
X0034325Y0150390D01*
X0034131Y0150318D01*
X0033938Y0150242D01*
X0033748Y0150161D01*
X0033559Y0150075D01*
X0033373Y0149985D01*
X0033189Y0149891D01*
X0033007Y0149791D01*
X0032828Y0149688D01*
X0032651Y0149580D01*
X0032477Y0149468D01*
X0032306Y0149352D01*
X0032137Y0149231D01*
X0031972Y0149107D01*
X0031810Y0148978D01*
X0031651Y0148846D01*
X0031495Y0148710D01*
X0031342Y0148570D01*
X0031193Y0148426D01*
X0031048Y0148279D01*
X0030906Y0148128D01*
X0030768Y0147974D01*
X0030633Y0147816D01*
X0030503Y0147656D01*
X0030377Y0147492D01*
X0030254Y0147325D01*
X0030136Y0147155D01*
X0030021Y0146982D01*
X0029911Y0146807D01*
X0029806Y0146629D01*
X0029704Y0146448D01*
X0029608Y0146266D01*
X0029515Y0146080D01*
X0029427Y0145893D01*
X0029344Y0145703D01*
X0029265Y0145512D01*
X0029191Y0145319D01*
X0029122Y0145123D01*
X0029058Y0144927D01*
X0028998Y0144729D01*
X0028943Y0144529D01*
X0028893Y0144328D01*
X0028848Y0144126D01*
X0028808Y0143923D01*
X0028773Y0143719D01*
X0028743Y0143514D01*
X0028718Y0143309D01*
X0028698Y0143103D01*
X0028683Y0142896D01*
X0028673Y0142689D01*
X0028668Y0142482D01*
X0028668Y0142276D01*
X0028673Y0142069D01*
X0028683Y0141862D01*
X0028698Y0141655D01*
X0028718Y0141449D01*
X0028743Y0141244D01*
X0028773Y0141039D01*
X0028808Y0140835D01*
X0028848Y0140632D01*
X0028893Y0140430D01*
X0028943Y0140229D01*
X0028998Y0140029D01*
X0029058Y0139831D01*
X0029122Y0139635D01*
X0029191Y0139439D01*
X0029265Y0139246D01*
X0029344Y0139055D01*
X0029427Y0138865D01*
X0029515Y0138678D01*
X0029608Y0138492D01*
X0029704Y0138310D01*
X0029806Y0138129D01*
X0029911Y0137951D01*
X0030021Y0137776D01*
X0030136Y0137603D01*
X0030254Y0137433D01*
X0030377Y0137266D01*
X0030503Y0137102D01*
X0030633Y0136942D01*
X0030768Y0136784D01*
X0030906Y0136630D01*
X0031048Y0136479D01*
X0031193Y0136332D01*
X0031342Y0136188D01*
X0031495Y0136048D01*
X0031651Y0135912D01*
X0031810Y0135780D01*
X0031972Y0135651D01*
X0032137Y0135527D01*
X0032306Y0135406D01*
X0032477Y0135290D01*
X0032651Y0135178D01*
X0032828Y0135070D01*
X0033007Y0134967D01*
X0033189Y0134867D01*
X0033373Y0134773D01*
X0033559Y0134683D01*
X0033748Y0134597D01*
X0033938Y0134516D01*
X0034131Y0134440D01*
X0034325Y0134368D01*
X0034521Y0134301D01*
X0034718Y0134239D01*
X0034917Y0134182D01*
X0035117Y0134130D01*
X0035319Y0134082D01*
X0035521Y0134040D01*
X0035725Y0134002D01*
X0035929Y0133970D01*
X0036135Y0133942D01*
X0036340Y0133919D01*
X0036547Y0133902D01*
X0036753Y0133889D01*
X0036960Y0133882D01*
X0037167Y0133879D01*
X0061167Y0133879D01*
X0061374Y0133882D01*
X0061581Y0133889D01*
X0061787Y0133902D01*
X0061994Y0133919D01*
X0062199Y0133942D01*
X0062405Y0133970D01*
X0062609Y0134002D01*
X0062813Y0134040D01*
X0063015Y0134082D01*
X0063217Y0134130D01*
X0063417Y0134182D01*
X0063616Y0134239D01*
X0063813Y0134301D01*
X0064009Y0134368D01*
X0064203Y0134440D01*
X0064396Y0134516D01*
X0064586Y0134597D01*
X0064775Y0134683D01*
X0064961Y0134773D01*
X0065145Y0134867D01*
X0065327Y0134967D01*
X0065506Y0135070D01*
X0065683Y0135178D01*
X0065857Y0135290D01*
X0066028Y0135406D01*
X0066197Y0135527D01*
X0066362Y0135651D01*
X0066524Y0135780D01*
X0066683Y0135912D01*
X0066839Y0136048D01*
X0066992Y0136188D01*
X0067141Y0136332D01*
X0067286Y0136479D01*
X0067428Y0136630D01*
X0067566Y0136784D01*
X0067701Y0136942D01*
X0067831Y0137102D01*
X0067957Y0137266D01*
X0068080Y0137433D01*
X0068198Y0137603D01*
X0068313Y0137776D01*
X0068423Y0137951D01*
X0068528Y0138129D01*
X0068630Y0138310D01*
X0068726Y0138492D01*
X0068819Y0138678D01*
X0068907Y0138865D01*
X0068990Y0139055D01*
X0069069Y0139246D01*
X0069143Y0139439D01*
X0069212Y0139635D01*
X0069276Y0139831D01*
X0069336Y0140029D01*
X0069391Y0140229D01*
X0069441Y0140430D01*
X0069486Y0140632D01*
X0069526Y0140835D01*
X0069561Y0141039D01*
X0069591Y0141244D01*
X0069616Y0141449D01*
X0069636Y0141655D01*
X0069651Y0141862D01*
X0069661Y0142069D01*
X0069666Y0142276D01*
X0069666Y0142482D01*
X0069661Y0142689D01*
X0069651Y0142896D01*
X0069636Y0143103D01*
X0069616Y0143309D01*
X0069591Y0143514D01*
X0069561Y0143719D01*
X0069526Y0143923D01*
X0069486Y0144126D01*
X0069441Y0144328D01*
X0069391Y0144529D01*
X0069336Y0144729D01*
X0069276Y0144927D01*
X0069212Y0145123D01*
X0069143Y0145319D01*
X0069069Y0145512D01*
X0068990Y0145703D01*
X0068907Y0145893D01*
X0068819Y0146080D01*
X0068726Y0146266D01*
X0068630Y0146448D01*
X0068528Y0146629D01*
X0068423Y0146807D01*
X0068313Y0146982D01*
X0068198Y0147155D01*
X0068080Y0147325D01*
X0067957Y0147492D01*
X0067831Y0147656D01*
X0067701Y0147816D01*
X0067566Y0147974D01*
X0067428Y0148128D01*
X0067286Y0148279D01*
X0067141Y0148426D01*
X0066992Y0148570D01*
X0066839Y0148710D01*
X0066683Y0148846D01*
X0066524Y0148978D01*
X0066362Y0149107D01*
X0066197Y0149231D01*
X0066028Y0149352D01*
X0065857Y0149468D01*
X0065683Y0149580D01*
X0065506Y0149688D01*
X0065327Y0149791D01*
X0065145Y0149891D01*
X0064961Y0149985D01*
X0064775Y0150075D01*
X0064586Y0150161D01*
X0064396Y0150242D01*
X0064203Y0150318D01*
X0064009Y0150390D01*
X0063813Y0150457D01*
X0063616Y0150519D01*
X0063417Y0150576D01*
X0063217Y0150628D01*
X0063015Y0150676D01*
X0062813Y0150718D01*
X0062609Y0150756D01*
X0062405Y0150788D01*
X0062199Y0150816D01*
X0061994Y0150839D01*
X0061787Y0150856D01*
X0061581Y0150869D01*
X0061374Y0150876D01*
X0061167Y0150879D01*
D21*
X0069757Y0245017D03*
X0069757Y0249741D03*
X0069757Y0255017D03*
X0069757Y0259741D03*
X0263576Y0099741D03*
X0263576Y0095017D03*
D22*
X0263576Y0097379D03*
X0069757Y0247379D03*
X0069757Y0257379D03*
D23*
X0169167Y0097779D03*
M02*
