%
M48
M72
T01C0.0200
T02C0.0236
T03C0.0320
T04C0.0354
T05C0.0400
T06C0.0470
T07C0.0472
T08C0.0512
T09C0.0520
T10C0.1180
%
T01
X1917Y7180
X4417Y7780
X4917Y9680
X5417Y10180
X6417Y8730
X6967Y8730
X7367Y9080
X7767Y8930
X8017Y8080
X6917Y7730
X6867Y7080
X7417Y7080
X7417Y3680
X12417Y7680
X14417Y6180
X14917Y5780
X15417Y6180
X15517Y4780
X14917Y9680
X14717Y13930
X11917Y17180
X10417Y16680
X7417Y15680
X5417Y18180
X3917Y17680
X3417Y18180
X3917Y19180
X2767Y16430
X3917Y14680
X4917Y13180
X3417Y10180
X11917Y20180
X13417Y22330
X15417Y22180
X15917Y23180
X16917Y23180
X15417Y24680
X16617Y20530
X19917Y19180
X20467Y20980
X21917Y19180
X22917Y18680
X24417Y20180
X24917Y20180
X25417Y20680
X25217Y21230
X23417Y21180
X24917Y19180
X24917Y23680
X25917Y23680
X24967Y24630
X20217Y25680
X27417Y7680
X28917Y6680
X25417Y3680
T02
X25517Y5680
X22917Y5180
X20417Y8180
X18417Y11180
X15067Y11680
X12417Y12930
X10917Y11680
X10417Y12180
X9417Y12180
X7617Y11230
X5417Y11680
X2417Y14680
X2617Y16880
X5367Y17480
X6017Y17280
X5917Y19680
X8417Y19680
X9917Y19680
X10817Y19680
X9917Y21180
X10417Y22180
X9917Y23680
X9417Y24680
X14767Y26380
X16417Y26780
X17417Y26680
X15867Y24130
X19917Y20180
X19917Y19680
X21267Y20180
X11717Y14680
X9217Y15180
X10417Y17180
X9817Y17680
X8717Y18180
X10917Y10180
X10167Y5680
X8917Y4880
X5717Y6380
X4067Y8230
X3417Y7180
X12617Y3580
X12917Y5180
X14417Y5380
X14717Y4580
T03
X5867Y13680
X3967Y13680
X1417Y13180
X1417Y14180
X1417Y15180
X1417Y16180
X1417Y17180
X1417Y18180
X1417Y19180
X1417Y20180
X1417Y12180
X1417Y11180
X1417Y10180
X1417Y9180
X1417Y8180
X1417Y7180
X1417Y6180
X1417Y5180
T04
X11917Y11180
X12917Y11180
X12917Y12180
X11917Y12180
X13917Y12180
X13917Y11180
T05
X13917Y13680
X12917Y13680
X11917Y13680
X10917Y13680
X9917Y13680
X8917Y13680
T06
X27417Y18196
X27417Y20164
X27417Y22196
X27417Y24164
T07
X3847Y1680
X5295Y1680
X6743Y1680
X10347Y1680
X11795Y1680
X13243Y1680
X16847Y1680
X18295Y1680
X19743Y1680
X23347Y1680
X24795Y1680
X26243Y1680
X24417Y22180
X23417Y22180
X22417Y22180
X21417Y22180
X20417Y22180
X19417Y22180
X18417Y22180
X17417Y22180
X17917Y24180
X18917Y24180
X19917Y24180
X20917Y24180
X21917Y24180
X22917Y24180
X23917Y24180
T08
X27417Y15117
X27417Y13149
X27417Y11180
T09
X24267Y9730
X21917Y8930
X19567Y9730
X19567Y14530
X24267Y14530
T10
X4667Y25393
X2817Y26574
X2817Y24211
M30
