G75*
%MOIN*%
%OFA0B0*%
%FSLAX25Y25*%
%IPPOS*%
%LPD*%
%AMOC8*
5,1,8,0,0,1.08239X$1,22.5*
%
%ADD10R,0.06306X0.05518*%
%ADD11R,0.05518X0.06306*%
%ADD12R,0.03550X0.02762*%
%ADD13R,0.04337X0.03550*%
%ADD14OC8,0.06400*%
%ADD15R,0.02600X0.05400*%
%ADD16R,0.05400X0.02600*%
%ADD17C,0.06800*%
%ADD18C,0.17400*%
%ADD19R,0.09900X0.09900*%
%ADD20C,0.09900*%
%ADD21R,0.07408X0.06384*%
%ADD22R,0.03943X0.03550*%
%ADD23R,0.05518X0.06699*%
%ADD24R,0.06699X0.05518*%
%ADD25R,0.03943X0.03746*%
%ADD26C,0.07450*%
%ADD27R,0.08000X0.21400*%
%ADD28R,0.08700X0.05900*%
%ADD29C,0.08200*%
%ADD30R,0.05124X0.05124*%
%ADD31R,0.21660X0.24809*%
%ADD32R,0.04337X0.06699*%
%ADD33R,0.08400X0.08400*%
%ADD34C,0.08400*%
%ADD35C,0.05600*%
%ADD36C,0.07880*%
%ADD37C,0.12200*%
D10*
X0079018Y0136362D03*
X0079018Y0143842D03*
X0089018Y0156362D03*
X0089018Y0163842D03*
X0094018Y0186756D03*
X0094018Y0193449D03*
X0183018Y0148449D03*
X0183018Y0141756D03*
X0253518Y0178256D03*
X0253518Y0184949D03*
X0235018Y0207256D03*
X0235018Y0213949D03*
D11*
X0192364Y0115102D03*
X0185671Y0115102D03*
D12*
X0228018Y0178452D03*
X0228018Y0184752D03*
X0236018Y0184752D03*
X0236018Y0178452D03*
X0244518Y0178452D03*
X0244518Y0184752D03*
X0246018Y0197952D03*
X0246018Y0204252D03*
X0228018Y0199252D03*
X0228018Y0192952D03*
X0220018Y0195252D03*
X0220018Y0188952D03*
X0179018Y0241952D03*
X0179018Y0248252D03*
X0179018Y0256952D03*
X0179018Y0263252D03*
D13*
X0280081Y0055102D03*
X0272955Y0050102D03*
X0265081Y0050102D03*
X0287955Y0055102D03*
D14*
X0154018Y0140102D03*
X0144018Y0140102D03*
X0134018Y0140102D03*
X0124018Y0140102D03*
X0114018Y0140102D03*
X0104018Y0140102D03*
D15*
X0100041Y0102002D03*
X0096892Y0102002D03*
X0093742Y0102002D03*
X0090593Y0102002D03*
X0087443Y0102002D03*
X0084293Y0102002D03*
X0081144Y0102002D03*
X0077994Y0102002D03*
X0077994Y0068202D03*
X0081144Y0068202D03*
X0084293Y0068202D03*
X0087443Y0068202D03*
X0090593Y0068202D03*
X0093742Y0068202D03*
X0096892Y0068202D03*
X0100041Y0068202D03*
D16*
X0105918Y0074078D03*
X0105918Y0077228D03*
X0105918Y0080378D03*
X0105918Y0083527D03*
X0105918Y0086677D03*
X0105918Y0089826D03*
X0105918Y0092976D03*
X0105918Y0096126D03*
X0072118Y0096126D03*
X0072118Y0092976D03*
X0072118Y0089826D03*
X0072118Y0086677D03*
X0072118Y0083527D03*
X0072118Y0080378D03*
X0072118Y0077228D03*
X0072118Y0074078D03*
D17*
X0134018Y0115102D03*
X0144018Y0115102D03*
X0154018Y0115102D03*
X0154018Y0125102D03*
X0144018Y0125102D03*
X0134018Y0125102D03*
D18*
X0047518Y0224665D03*
X0029014Y0236476D03*
X0047518Y0248287D03*
D19*
X0289018Y0075102D03*
D20*
X0289018Y0094787D03*
X0289018Y0114472D03*
D21*
X0169018Y0181815D03*
X0159018Y0181815D03*
X0149018Y0181815D03*
X0149018Y0218389D03*
X0159018Y0218389D03*
X0169018Y0218389D03*
X0154018Y0231815D03*
X0144018Y0231815D03*
X0134018Y0231815D03*
X0134018Y0268389D03*
X0144018Y0268389D03*
X0154018Y0268389D03*
D22*
X0255081Y0043842D03*
X0255081Y0036362D03*
X0263349Y0040102D03*
D23*
X0275278Y0040102D03*
X0282758Y0040102D03*
X0242758Y0045102D03*
X0235278Y0045102D03*
X0147758Y0170102D03*
X0140278Y0170102D03*
X0102758Y0245102D03*
X0095278Y0245102D03*
X0095278Y0255102D03*
X0102758Y0255102D03*
D24*
X0120199Y0243055D03*
X0120199Y0235575D03*
X0136518Y0218342D03*
X0136518Y0210862D03*
X0136018Y0190342D03*
X0136018Y0182862D03*
X0085518Y0188362D03*
X0085518Y0195842D03*
X0166518Y0236862D03*
X0166518Y0244342D03*
X0169018Y0261362D03*
X0169018Y0268842D03*
X0195518Y0210842D03*
X0195518Y0203362D03*
X0262018Y0185342D03*
X0262018Y0177862D03*
X0174018Y0133842D03*
X0174018Y0126362D03*
D25*
X0185018Y0059386D03*
X0185018Y0054819D03*
D26*
X0286493Y0142260D02*
X0293543Y0142260D01*
X0293543Y0161945D02*
X0286493Y0161945D01*
X0286493Y0182260D02*
X0293543Y0182260D01*
X0293543Y0201945D02*
X0286493Y0201945D01*
D27*
X0059018Y0159102D03*
X0059018Y0121102D03*
D28*
X0070618Y0217402D03*
X0070618Y0235102D03*
X0106518Y0235102D03*
X0106518Y0217402D03*
D29*
X0210518Y0132502D02*
X0210518Y0124702D01*
X0210518Y0084502D02*
X0210518Y0076702D01*
X0234018Y0076502D02*
X0234018Y0068702D01*
X0257518Y0076702D02*
X0257518Y0084502D01*
X0257518Y0124702D02*
X0257518Y0132502D01*
D30*
X0301518Y0048736D03*
X0301518Y0040468D03*
X0088152Y0245102D03*
X0079884Y0245102D03*
X0079884Y0255102D03*
X0088152Y0255102D03*
D31*
X0184018Y0075260D03*
D32*
X0192994Y0104000D03*
X0175041Y0104000D03*
D33*
X0028018Y0020102D03*
X0072818Y0020102D03*
X0118318Y0020102D03*
X0163318Y0020102D03*
X0208318Y0020102D03*
X0253318Y0020102D03*
D34*
X0267797Y0020102D03*
X0282277Y0020102D03*
X0237277Y0020102D03*
X0222797Y0020102D03*
X0192277Y0020102D03*
X0177797Y0020102D03*
X0147277Y0020102D03*
X0132797Y0020102D03*
X0101777Y0020102D03*
X0087297Y0020102D03*
X0056977Y0020102D03*
X0042497Y0020102D03*
D35*
X0031618Y0055102D02*
X0026418Y0055102D01*
X0026418Y0065102D02*
X0031618Y0065102D01*
X0031618Y0075102D02*
X0026418Y0075102D01*
X0026418Y0085102D02*
X0031618Y0085102D01*
X0031618Y0095102D02*
X0026418Y0095102D01*
X0026418Y0105102D02*
X0031618Y0105102D01*
X0031618Y0115102D02*
X0026418Y0115102D01*
X0026418Y0125102D02*
X0031618Y0125102D01*
X0031618Y0135102D02*
X0026418Y0135102D01*
X0026418Y0145102D02*
X0031618Y0145102D01*
X0031618Y0155102D02*
X0026418Y0155102D01*
X0026418Y0165102D02*
X0031618Y0165102D01*
X0031618Y0175102D02*
X0026418Y0175102D01*
X0026418Y0185102D02*
X0031618Y0185102D01*
X0031618Y0195102D02*
X0026418Y0195102D01*
X0026418Y0205102D02*
X0031618Y0205102D01*
D36*
X0213782Y0230693D03*
X0223782Y0230693D03*
X0233782Y0230693D03*
X0243782Y0230693D03*
X0253782Y0230693D03*
X0263782Y0230693D03*
X0273782Y0230693D03*
X0283782Y0230693D03*
X0278782Y0250693D03*
X0268782Y0250693D03*
X0258782Y0250693D03*
X0248782Y0250693D03*
X0238782Y0250693D03*
X0228782Y0250693D03*
X0218782Y0250693D03*
D37*
X0199018Y0273602D03*
X0299018Y0273602D03*
M02*
