G75*
%MOIN*%
%OFA0B0*%
%FSLAX25Y25*%
%IPPOS*%
%LPD*%
%AMOC8*
5,1,8,0,0,1.08239X$1,22.5*
%
%ADD10R,0.05906X0.05118*%
%ADD11R,0.05118X0.05906*%
%ADD12R,0.03150X0.02362*%
%ADD13R,0.03937X0.03150*%
%ADD14R,0.02200X0.05000*%
%ADD15R,0.05000X0.02200*%
%ADD16R,0.07008X0.05984*%
%ADD17R,0.03543X0.03150*%
%ADD18R,0.05118X0.06299*%
%ADD19R,0.06299X0.05118*%
%ADD20R,0.03543X0.03346*%
%ADD21R,0.07600X0.21000*%
%ADD22R,0.08300X0.05500*%
%ADD23R,0.04724X0.04724*%
%ADD24R,0.21260X0.24409*%
%ADD25R,0.03937X0.06299*%
D10*
X0079018Y0136362D03*
X0079018Y0143842D03*
X0089018Y0156362D03*
X0089018Y0163842D03*
X0094018Y0186756D03*
X0094018Y0193449D03*
X0183018Y0148449D03*
X0183018Y0141756D03*
X0253518Y0178256D03*
X0253518Y0184949D03*
X0235018Y0207256D03*
X0235018Y0213949D03*
D11*
X0192364Y0115102D03*
X0185671Y0115102D03*
D12*
X0228018Y0178452D03*
X0228018Y0184752D03*
X0236018Y0184752D03*
X0236018Y0178452D03*
X0244518Y0178452D03*
X0244518Y0184752D03*
X0246018Y0197952D03*
X0246018Y0204252D03*
X0228018Y0199252D03*
X0228018Y0192952D03*
X0220018Y0195252D03*
X0220018Y0188952D03*
X0179018Y0241952D03*
X0179018Y0248252D03*
X0179018Y0256952D03*
X0179018Y0263252D03*
D13*
X0280081Y0055102D03*
X0272955Y0050102D03*
X0265081Y0050102D03*
X0287955Y0055102D03*
D14*
X0077994Y0068202D03*
X0081144Y0068202D03*
X0084293Y0068202D03*
X0087443Y0068202D03*
X0090593Y0068202D03*
X0093742Y0068202D03*
X0096892Y0068202D03*
X0100041Y0068202D03*
X0100041Y0102002D03*
X0096892Y0102002D03*
X0093742Y0102002D03*
X0090593Y0102002D03*
X0087443Y0102002D03*
X0084293Y0102002D03*
X0081144Y0102002D03*
X0077994Y0102002D03*
D15*
X0072118Y0096126D03*
X0072118Y0092976D03*
X0072118Y0089826D03*
X0072118Y0086677D03*
X0072118Y0083527D03*
X0072118Y0080378D03*
X0072118Y0077228D03*
X0072118Y0074078D03*
X0105918Y0074078D03*
X0105918Y0077228D03*
X0105918Y0080378D03*
X0105918Y0083527D03*
X0105918Y0086677D03*
X0105918Y0089826D03*
X0105918Y0092976D03*
X0105918Y0096126D03*
D16*
X0149018Y0181815D03*
X0159018Y0181815D03*
X0169018Y0181815D03*
X0169018Y0218389D03*
X0159018Y0218389D03*
X0149018Y0218389D03*
X0154018Y0231815D03*
X0144018Y0231815D03*
X0134018Y0231815D03*
X0134018Y0268389D03*
X0144018Y0268389D03*
X0154018Y0268389D03*
D17*
X0255081Y0043842D03*
X0255081Y0036362D03*
X0263349Y0040102D03*
D18*
X0275278Y0040102D03*
X0282758Y0040102D03*
X0242758Y0045102D03*
X0235278Y0045102D03*
X0147758Y0170102D03*
X0140278Y0170102D03*
X0102758Y0245102D03*
X0095278Y0245102D03*
X0095278Y0255102D03*
X0102758Y0255102D03*
D19*
X0120199Y0243055D03*
X0120199Y0235575D03*
X0136518Y0218342D03*
X0136518Y0210862D03*
X0136018Y0190342D03*
X0136018Y0182862D03*
X0085518Y0188362D03*
X0085518Y0195842D03*
X0166518Y0236862D03*
X0166518Y0244342D03*
X0169018Y0261362D03*
X0169018Y0268842D03*
X0195518Y0210842D03*
X0195518Y0203362D03*
X0262018Y0185342D03*
X0262018Y0177862D03*
X0174018Y0133842D03*
X0174018Y0126362D03*
D20*
X0185018Y0059386D03*
X0185018Y0054819D03*
D21*
X0059018Y0121102D03*
X0059018Y0159102D03*
D22*
X0070618Y0217402D03*
X0070618Y0235102D03*
X0106518Y0235102D03*
X0106518Y0217402D03*
D23*
X0088152Y0245102D03*
X0079884Y0245102D03*
X0079884Y0255102D03*
X0088152Y0255102D03*
X0301518Y0048736D03*
X0301518Y0040468D03*
D24*
X0184018Y0075260D03*
D25*
X0192994Y0104000D03*
X0175041Y0104000D03*
M02*
