G75*
%MOIN*%
%OFA0B0*%
%FSLAX25Y25*%
%IPPOS*%
%LPD*%
%AMOC8*
5,1,8,0,0,1.08239X$1,22.5*
%
%ADD10C,0.00900*%
D10*
X0144041Y0149052D02*
X0146092Y0149052D01*
X0146776Y0149736D01*
X0146776Y0151104D01*
X0146092Y0151788D01*
X0144041Y0151788D01*
X0144041Y0153156D02*
X0144041Y0149052D01*
X0148645Y0150420D02*
X0148645Y0151104D01*
X0149328Y0151788D01*
X0150696Y0151788D01*
X0151380Y0151104D01*
X0151380Y0149736D01*
X0150696Y0149052D01*
X0149328Y0149052D01*
X0148645Y0150420D02*
X0151380Y0150420D01*
X0153165Y0151788D02*
X0153849Y0151788D01*
X0155217Y0150420D01*
X0155217Y0149052D02*
X0155217Y0151788D01*
X0157002Y0151788D02*
X0157686Y0151788D01*
X0159053Y0150420D01*
X0159053Y0149052D02*
X0159053Y0151788D01*
X0160922Y0151104D02*
X0160922Y0149052D01*
X0162973Y0149052D01*
X0163657Y0149736D01*
X0162973Y0150420D01*
X0160922Y0150420D01*
X0160922Y0151104D02*
X0161606Y0151788D01*
X0162973Y0151788D01*
X0165359Y0151788D02*
X0165359Y0148368D01*
X0166043Y0147684D01*
X0166727Y0147684D01*
X0171331Y0149052D02*
X0168595Y0153156D01*
X0165359Y0153156D02*
X0165359Y0153839D01*
X0165192Y0156552D02*
X0165192Y0160656D01*
X0163140Y0160656D01*
X0162456Y0159972D01*
X0162456Y0158604D01*
X0163140Y0157920D01*
X0165192Y0157920D01*
X0160588Y0157920D02*
X0159220Y0159288D01*
X0158536Y0159288D01*
X0156751Y0158604D02*
X0156751Y0157236D01*
X0156068Y0156552D01*
X0154700Y0156552D01*
X0154016Y0157236D01*
X0154016Y0158604D01*
X0154700Y0159288D01*
X0156068Y0159288D01*
X0156751Y0158604D01*
X0160588Y0159288D02*
X0160588Y0156552D01*
X0152148Y0155184D02*
X0151464Y0155184D01*
X0150780Y0155868D01*
X0150780Y0159288D01*
X0150780Y0160656D02*
X0150780Y0161339D01*
X0148394Y0159288D02*
X0147026Y0159288D01*
X0146343Y0158604D01*
X0146343Y0157920D01*
X0149078Y0157920D01*
X0149078Y0158604D02*
X0148394Y0159288D01*
X0149078Y0158604D02*
X0149078Y0157236D01*
X0148394Y0156552D01*
X0147026Y0156552D01*
X0144474Y0157236D02*
X0143790Y0156552D01*
X0141739Y0156552D01*
X0139186Y0157236D02*
X0138503Y0156552D01*
X0139186Y0157236D02*
X0139186Y0159972D01*
X0138503Y0159288D02*
X0139870Y0159288D01*
X0141739Y0159288D02*
X0143790Y0159288D01*
X0144474Y0158604D01*
X0144474Y0157236D01*
X0171664Y0157920D02*
X0174400Y0157920D01*
X0174400Y0158604D02*
X0173716Y0159288D01*
X0172348Y0159288D01*
X0171664Y0158604D01*
X0171664Y0157920D01*
X0172348Y0156552D02*
X0173716Y0156552D01*
X0174400Y0157236D01*
X0174400Y0158604D01*
X0176268Y0159288D02*
X0178320Y0159288D01*
X0179004Y0158604D01*
X0178320Y0157920D01*
X0176952Y0157920D01*
X0176268Y0157236D01*
X0176952Y0156552D01*
X0179004Y0156552D01*
X0180872Y0156552D02*
X0180872Y0159288D01*
X0183608Y0159288D02*
X0183608Y0157236D01*
X0182924Y0156552D01*
X0180872Y0156552D01*
X0180538Y0151788D02*
X0179171Y0149052D01*
X0177803Y0151788D01*
X0175934Y0151104D02*
X0175251Y0151788D01*
X0173883Y0151788D01*
X0173199Y0151104D01*
X0173199Y0150420D01*
X0175934Y0150420D01*
X0175934Y0149736D02*
X0175934Y0151104D01*
X0175934Y0149736D02*
X0175251Y0149052D01*
X0173883Y0149052D01*
X0182407Y0149052D02*
X0184458Y0149052D01*
X0185142Y0149736D01*
X0184458Y0150420D01*
X0182407Y0150420D01*
X0182407Y0151104D02*
X0182407Y0149052D01*
X0182407Y0151104D02*
X0183091Y0151788D01*
X0184458Y0151788D01*
X0187011Y0151788D02*
X0189062Y0151788D01*
X0189746Y0151104D01*
X0189746Y0149736D01*
X0189062Y0149052D01*
X0187011Y0149052D01*
X0187011Y0153156D01*
X0187528Y0156552D02*
X0188212Y0157236D01*
X0188212Y0158604D01*
X0187528Y0159288D01*
X0186160Y0159288D01*
X0185476Y0158604D01*
X0185476Y0157236D01*
X0186160Y0156552D01*
X0187528Y0156552D01*
X0190080Y0156552D02*
X0190080Y0158604D01*
X0190764Y0159288D01*
X0192132Y0159288D01*
X0192816Y0158604D01*
X0194684Y0158604D02*
X0194684Y0156552D01*
X0192816Y0156552D02*
X0192816Y0160656D01*
X0194684Y0158604D02*
X0195368Y0159288D01*
X0197419Y0159288D01*
X0197419Y0156552D01*
X0199288Y0157920D02*
X0202023Y0157920D01*
X0202023Y0158604D02*
X0201339Y0159288D01*
X0199972Y0159288D01*
X0199288Y0158604D01*
X0199288Y0157920D01*
X0199972Y0156552D02*
X0201339Y0156552D01*
X0202023Y0157236D01*
X0202023Y0158604D01*
X0203892Y0158604D02*
X0203892Y0157920D01*
X0206627Y0157920D01*
X0206627Y0158604D02*
X0205943Y0159288D01*
X0204576Y0159288D01*
X0203892Y0158604D01*
X0204576Y0156552D02*
X0205943Y0156552D01*
X0206627Y0157236D01*
X0206627Y0158604D01*
X0208412Y0159288D02*
X0209096Y0159288D01*
X0210464Y0157920D01*
X0210464Y0156552D02*
X0210464Y0159288D01*
X0212332Y0159972D02*
X0213016Y0160656D01*
X0214384Y0160656D01*
X0215068Y0159972D01*
X0215068Y0157236D01*
X0214384Y0156552D01*
X0213016Y0156552D01*
X0212332Y0157236D01*
X0212332Y0158604D01*
X0213700Y0158604D01*
X0215068Y0153156D02*
X0215068Y0149052D01*
X0213016Y0149052D01*
X0212332Y0149736D01*
X0212332Y0151104D01*
X0213016Y0151788D01*
X0215068Y0151788D01*
X0210464Y0151788D02*
X0210464Y0149052D01*
X0210464Y0150420D02*
X0209096Y0151788D01*
X0208412Y0151788D01*
X0206627Y0151104D02*
X0206627Y0149736D01*
X0205943Y0149052D01*
X0204576Y0149052D01*
X0203892Y0150420D02*
X0206627Y0150420D01*
X0206627Y0151104D02*
X0205943Y0151788D01*
X0204576Y0151788D01*
X0203892Y0151104D01*
X0203892Y0150420D01*
X0202023Y0149052D02*
X0202023Y0151788D01*
X0199972Y0151788D01*
X0199288Y0151104D01*
X0199288Y0149052D01*
X0196736Y0149736D02*
X0196736Y0152472D01*
X0197419Y0151788D02*
X0196052Y0151788D01*
X0196736Y0149736D02*
X0196052Y0149052D01*
X0194350Y0149052D02*
X0191614Y0153156D01*
M02*
