%
M48
M72
T01C0.0150
T02C0.0200
T03C0.0236
T04C0.0320
T05C0.0354
T06C0.0400
T07C0.0433
T08C0.0470
T09C0.0472
T10C0.0512
T11C0.0520
T12C0.1180
%
T01
X10027Y8885
X5214Y6323
T02
X8102Y5410
X9052Y6360
X8902Y7410
X8352Y7410
X8302Y8060
X8452Y9060
X7902Y9010
X6402Y10010
X6902Y10510
X8902Y12510
X9402Y13510
X8528Y14384
X6402Y15010
X4402Y13510
X9452Y9610
X9502Y8410
X13902Y8010
X15902Y6510
X16402Y6110
X16902Y6510
X19402Y5510
X20402Y5010
X24902Y6510
X19402Y12510
X16402Y10010
X18152Y15310
X20402Y18660
X21402Y19510
X23402Y19510
X24402Y19010
X26402Y19510
X26402Y20510
X25902Y20510
X24902Y21510
X24402Y21010
X24402Y22410
X24402Y24010
X26902Y22010
X27402Y21510
X27502Y20710
X28402Y19010
X22336Y21395
X20902Y21510
X18402Y23510
X17402Y23510
X16902Y22510
X17952Y20860
X14902Y22660
X13402Y20510
X13402Y17510
X16902Y25010
X15002Y4110
X8902Y4010
T03
X5902Y4010
X4902Y4510
X7202Y6710
X5902Y8010
X5552Y8560
X5002Y9210
X4402Y10510
X6402Y9510
X4902Y7510
X7902Y4010
X10402Y5210
X11652Y6010
X12902Y4010
X14102Y3910
X14402Y5510
X15902Y5710
X16202Y4910
X12402Y9510
X10902Y10010
X9102Y11560
X10902Y12510
X11902Y12510
X12402Y12010
X13902Y13260
X13202Y15010
X10702Y15510
X11902Y17510
X11302Y18010
X10202Y18510
X9902Y20010
X11402Y20010
X12302Y20010
X11402Y21510
X11902Y22510
X11402Y24010
X11402Y25010
X10902Y25010
X16252Y26560
X17902Y27110
X19902Y24510
X17352Y24460
X21402Y20510
X21402Y20010
X20902Y20110
X19552Y19860
X18902Y19010
X20402Y15510
X22902Y20510
X26402Y24010
X29402Y23010
X30402Y21510
X26402Y16510
X14902Y10010
X6902Y12010
X25502Y5510
T04
X2902Y20510
X2902Y19510
X2902Y18510
X2902Y17510
X2902Y16510
X2902Y15510
X2902Y14510
X2902Y13510
X2902Y12510
X2902Y11510
X2902Y10510
X2902Y9510
X2902Y8510
X2902Y7510
X2902Y6510
X2902Y5510
T05
X13402Y12510
X14402Y12510
X15402Y12510
X15402Y11510
X14402Y11510
X13402Y11510
T06
X10402Y14010
X11402Y14010
X12402Y14010
X13402Y14010
X14402Y14010
X15402Y14010
T07
X21878Y25069
X22878Y25069
X23878Y25069
X24878Y25069
X25878Y25069
X26878Y25069
X27878Y25069
X27378Y23069
X26378Y23069
X25378Y23069
X24378Y23069
X23378Y23069
X22378Y23069
X21378Y23069
X28378Y23069
T08
X29002Y20194
X29002Y18226
X29002Y16194
X29002Y14226
T09
X28228Y2010
X26780Y2010
X25332Y2010
X23728Y2010
X22280Y2010
X20832Y2010
X19228Y2010
X17780Y2010
X16332Y2010
X14728Y2010
X13280Y2010
X11832Y2010
X10178Y2010
X8730Y2010
X7282Y2010
X5698Y2010
X4250Y2010
X2802Y2010
T10
X28902Y7510
X28902Y9479
X28902Y11447
T11
X25752Y12860
X21052Y12860
X21052Y8060
X23402Y7260
X25752Y8060
T12
X4752Y22467
X2901Y23648
X4752Y24829
X19902Y27360
X29902Y27360
M30
