%
M48
M72
T01C0.0200
T02C0.0236
T03C0.0320
T04C0.0354
T05C0.0400
T06C0.0470
T07C0.0472
T08C0.0512
T09C0.0520
T10C0.1180
%
T01
X12417Y8238
X14417Y6738
X14917Y6338
X15417Y6738
X15517Y5338
X14717Y14488
X10417Y17238
X5417Y18738
X3917Y18238
X3917Y19738
X10917Y25238
X13417Y22888
X13917Y24238
X15417Y25238
X15917Y23738
X16917Y23738
X15417Y22738
X16617Y21088
X19917Y19738
X20467Y21538
X22917Y19238
X24417Y20738
X24917Y20738
X25417Y21238
X25217Y21788
X23417Y21738
X24917Y19738
X24917Y24238
X25917Y24238
X24967Y25188
X20217Y26238
T02
X20917Y23638
X21267Y20738
X19917Y20738
X19917Y20238
X15867Y24688
X14767Y26938
X16417Y27338
X17417Y27238
X10917Y21238
X9917Y21738
X10417Y22738
X9917Y24238
X9417Y25238
X9917Y20238
X8417Y20238
X8717Y18738
X9817Y18238
X10417Y17738
X8717Y15738
X6917Y15738
X6017Y17838
X5367Y18038
X5917Y20238
X2417Y17238
X3017Y16838
X3217Y16038
X2417Y15238
X2417Y14238
X5417Y12238
X5417Y10738
X7067Y11738
X7617Y11838
X7617Y11288
X9417Y12738
X10417Y12738
X10917Y12238
X10917Y10738
X11417Y9738
X10167Y6238
X8917Y5438
X9417Y4238
X10917Y3088
X12617Y4138
X12917Y5738
X14417Y5938
X14717Y5138
X20417Y8738
X22917Y5738
X25517Y6238
X18417Y11738
X15067Y12238
X12417Y13488
X11717Y15238
X4917Y8238
X4167Y8738
X3417Y8738
X3417Y7738
X2917Y6238
X3567Y5538
X2417Y3738
X5717Y6938
X6317Y5838
X7617Y5038
X3417Y9738
T03
X1417Y1738
X1417Y2738
X1417Y3738
X1417Y4738
X1417Y5738
X1417Y6738
X1417Y7738
X1417Y8738
X1417Y9738
X1417Y10738
X1417Y11738
X1417Y12738
X1417Y13738
X1417Y14738
X1417Y15738
X1417Y16738
X1417Y17738
X1417Y18738
X1417Y19738
X1417Y20738
X3967Y14238
X5867Y14238
T04
X11917Y12738
X12917Y12738
X13917Y12738
X13917Y11738
X12917Y11738
X11917Y11738
T05
X11917Y14238
X12917Y14238
X13917Y14238
X10917Y14238
X9917Y14238
X8917Y14238
T06
X9948Y2730
X11917Y2730
X13885Y2730
X16448Y2730
X18417Y2730
X20385Y2730
X22948Y2730
X24917Y2730
X26885Y2730
X27417Y18754
X27417Y20722
X27417Y22754
X27417Y24722
X7385Y2730
X5417Y2730
X3448Y2730
T07
X17417Y22738
X18417Y22738
X19417Y22738
X20417Y22738
X21417Y22738
X22417Y22738
X23417Y22738
X24417Y22738
X23917Y24738
X22917Y24738
X21917Y24738
X20917Y24738
X19917Y24738
X18917Y24738
X17917Y24738
T08
X27417Y15675
X27417Y13706
X27417Y11738
T09
X24267Y10288
X21917Y9488
X19567Y10288
X19567Y15088
X24267Y15088
T10
X4667Y25950
X2817Y24769
X2817Y27132
M30
