G75*
%MOIN*%
%OFA0B0*%
%FSLAX25Y25*%
%IPPOS*%
%LPD*%
%AMOC8*
5,1,8,0,0,1.08239X$1,22.5*
%
%ADD10OC8,0.06000*%
%ADD11C,0.07087*%
%ADD12C,0.06400*%
%ADD13C,0.17000*%
%ADD14R,0.09500X0.09500*%
%ADD15C,0.09500*%
%ADD16C,0.05200*%
%ADD17C,0.07050*%
%ADD18C,0.07087*%
%ADD19C,0.07800*%
%ADD20OC8,0.03562*%
%ADD21C,0.01600*%
%ADD22OC8,0.03200*%
%ADD23C,0.01000*%
%ADD24R,0.03562X0.03562*%
D10*
X0089167Y0142379D03*
X0099167Y0142379D03*
X0109167Y0142379D03*
X0119167Y0142379D03*
X0129167Y0142379D03*
X0139167Y0142379D03*
D11*
X0174167Y0223835D02*
X0174167Y0230922D01*
X0184167Y0230922D02*
X0184167Y0223835D01*
X0194167Y0223835D02*
X0194167Y0230922D01*
X0204167Y0230922D02*
X0204167Y0223835D01*
X0214167Y0223835D02*
X0214167Y0230922D01*
X0224167Y0230922D02*
X0224167Y0223835D01*
X0234167Y0223835D02*
X0234167Y0230922D01*
X0244167Y0230922D02*
X0244167Y0223835D01*
X0239167Y0243835D02*
X0239167Y0250922D01*
X0229167Y0250922D02*
X0229167Y0243835D01*
X0219167Y0243835D02*
X0219167Y0250922D01*
X0209167Y0250922D02*
X0209167Y0243835D01*
X0199167Y0243835D02*
X0199167Y0250922D01*
X0189167Y0250922D02*
X0189167Y0243835D01*
X0179167Y0243835D02*
X0179167Y0250922D01*
D12*
X0139167Y0127379D03*
X0139167Y0117379D03*
X0129167Y0117379D03*
X0119167Y0117379D03*
X0119167Y0127379D03*
X0129167Y0127379D03*
D13*
X0028167Y0247694D03*
X0046671Y0259505D03*
X0028167Y0271316D03*
D14*
X0274167Y0117379D03*
D15*
X0274167Y0137064D03*
X0274167Y0156749D03*
D16*
X0016767Y0017379D02*
X0011567Y0017379D01*
X0011567Y0027379D02*
X0016767Y0027379D01*
X0016767Y0037379D02*
X0011567Y0037379D01*
X0011567Y0047379D02*
X0016767Y0047379D01*
X0016767Y0057379D02*
X0011567Y0057379D01*
X0011567Y0067379D02*
X0016767Y0067379D01*
X0016767Y0077379D02*
X0011567Y0077379D01*
X0011567Y0087379D02*
X0016767Y0087379D01*
X0016767Y0097379D02*
X0011567Y0097379D01*
X0011567Y0107379D02*
X0016767Y0107379D01*
X0016767Y0117379D02*
X0011567Y0117379D01*
X0011567Y0127379D02*
X0016767Y0127379D01*
X0016767Y0137379D02*
X0011567Y0137379D01*
X0011567Y0147379D02*
X0016767Y0147379D01*
X0016767Y0157379D02*
X0011567Y0157379D01*
X0011567Y0167379D02*
X0016767Y0167379D01*
X0016767Y0177379D02*
X0011567Y0177379D01*
X0011567Y0187379D02*
X0016767Y0187379D01*
X0016767Y0197379D02*
X0011567Y0197379D01*
X0011567Y0207379D02*
X0016767Y0207379D01*
D17*
X0034482Y0030825D02*
X0034482Y0023775D01*
X0054167Y0023775D02*
X0054167Y0030825D01*
X0073852Y0030825D02*
X0073852Y0023775D01*
X0099482Y0023775D02*
X0099482Y0030825D01*
X0119167Y0030825D02*
X0119167Y0023775D01*
X0138852Y0023775D02*
X0138852Y0030825D01*
X0164482Y0030825D02*
X0164482Y0023775D01*
X0184167Y0023775D02*
X0184167Y0030825D01*
X0203852Y0030825D02*
X0203852Y0023775D01*
X0229482Y0023775D02*
X0229482Y0030825D01*
X0249167Y0030825D02*
X0249167Y0023775D01*
X0268852Y0023775D02*
X0268852Y0030825D01*
X0270642Y0187536D02*
X0277692Y0187536D01*
X0277692Y0207221D02*
X0270642Y0207221D01*
X0270642Y0227536D02*
X0277692Y0227536D01*
X0277692Y0247221D02*
X0270642Y0247221D01*
D18*
X0058667Y0142379D03*
X0039667Y0142379D03*
D19*
X0195667Y0146979D02*
X0195667Y0154779D01*
X0242667Y0154779D02*
X0242667Y0146979D01*
X0242667Y0106779D02*
X0242667Y0098979D01*
X0219167Y0098779D02*
X0219167Y0090979D01*
X0195667Y0098979D02*
X0195667Y0106779D01*
D20*
X0184167Y0117379D03*
X0204167Y0087379D03*
X0229167Y0057379D03*
X0255167Y0062379D03*
X0150667Y0122379D03*
X0124167Y0134879D03*
X0109167Y0122379D03*
X0104167Y0127379D03*
X0094167Y0127379D03*
X0076167Y0118379D03*
X0076167Y0112879D03*
X0070667Y0117379D03*
X0054167Y0122379D03*
X0054167Y0107379D03*
X0034167Y0097379D03*
X0034167Y0087379D03*
X0041667Y0087379D03*
X0049167Y0082379D03*
X0057167Y0069379D03*
X0063167Y0058379D03*
X0076167Y0050379D03*
X0089167Y0054379D03*
X0094167Y0042379D03*
X0109167Y0030879D03*
X0126167Y0041379D03*
X0129167Y0057379D03*
X0144167Y0059379D03*
X0147167Y0051379D03*
X0101667Y0062379D03*
X0114167Y0097379D03*
X0109167Y0107379D03*
X0117167Y0152379D03*
X0104167Y0177379D03*
X0098167Y0182379D03*
X0087167Y0187379D03*
X0084167Y0202379D03*
X0099167Y0202379D03*
X0109167Y0212379D03*
X0099167Y0217379D03*
X0104167Y0227379D03*
X0094167Y0252379D03*
X0147667Y0269379D03*
X0164167Y0273379D03*
X0174167Y0272379D03*
X0158667Y0246879D03*
X0199167Y0207379D03*
X0199167Y0202379D03*
X0212667Y0207379D03*
X0209167Y0236379D03*
X0087167Y0157379D03*
X0069167Y0157379D03*
X0060167Y0178379D03*
X0053667Y0180379D03*
X0059167Y0202379D03*
X0024167Y0172379D03*
X0030167Y0168379D03*
X0032167Y0160379D03*
X0024167Y0152379D03*
X0024167Y0142379D03*
X0034167Y0077379D03*
X0029167Y0062379D03*
X0035667Y0055379D03*
X0024167Y0037379D03*
D21*
X0024167Y0022379D01*
X0019167Y0022379D01*
X0014167Y0017379D01*
X0044167Y0052379D02*
X0069167Y0052379D01*
X0074667Y0057879D01*
X0085667Y0057879D01*
X0089167Y0054379D01*
X0094167Y0054879D02*
X0094167Y0052379D01*
X0079167Y0037379D01*
X0079167Y0032615D01*
X0073852Y0027300D01*
X0094167Y0042379D02*
X0099167Y0042379D01*
X0099167Y0040879D01*
X0109167Y0030879D01*
X0126167Y0039985D02*
X0126167Y0041379D01*
X0126167Y0039985D02*
X0138852Y0027300D01*
X0159167Y0032615D02*
X0159285Y0032497D01*
X0159285Y0039261D01*
X0147167Y0051379D01*
X0142167Y0057379D02*
X0129167Y0057379D01*
X0142167Y0057379D02*
X0144167Y0059379D01*
X0149167Y0059379D02*
X0149167Y0063379D01*
X0149167Y0059379D02*
X0155167Y0053379D01*
X0159285Y0032497D02*
X0164482Y0027300D01*
X0189167Y0072379D02*
X0209167Y0072379D01*
X0224167Y0057379D01*
X0224167Y0047379D01*
X0229167Y0042379D01*
X0229167Y0027615D01*
X0229482Y0027300D01*
X0189167Y0072379D02*
X0179167Y0082379D01*
X0124167Y0082379D01*
X0114167Y0092379D02*
X0104167Y0082379D01*
X0104167Y0067379D01*
X0099667Y0067379D01*
X0093167Y0060879D01*
X0065667Y0060879D01*
X0063167Y0058379D01*
X0061667Y0064879D02*
X0057167Y0069379D01*
X0061667Y0064879D02*
X0089167Y0064879D01*
X0096667Y0072379D01*
X0099167Y0072379D01*
X0099167Y0087379D01*
X0104167Y0092379D01*
X0104167Y0102379D01*
X0109167Y0107379D01*
X0099667Y0112879D02*
X0076167Y0112879D01*
X0070667Y0117379D02*
X0065667Y0112379D01*
X0059167Y0112379D01*
X0054167Y0107379D01*
X0049167Y0112379D02*
X0049167Y0082379D01*
X0041667Y0087379D02*
X0041667Y0054879D01*
X0044167Y0052379D01*
X0035667Y0055379D02*
X0035667Y0065879D01*
X0034167Y0067379D01*
X0031167Y0067379D01*
X0029167Y0069379D01*
X0029167Y0092379D01*
X0034167Y0097379D01*
X0034167Y0087379D02*
X0034167Y0077379D01*
X0024167Y0067379D02*
X0029167Y0062379D01*
X0024167Y0067379D02*
X0024167Y0142379D01*
X0024167Y0152379D02*
X0022167Y0154379D01*
X0022167Y0169379D01*
X0019167Y0172379D01*
X0024167Y0177379D01*
X0024167Y0187379D01*
X0029167Y0192379D01*
X0059167Y0192379D01*
X0064167Y0197379D01*
X0064167Y0237379D01*
X0079167Y0252379D01*
X0094167Y0252379D01*
X0099167Y0242379D02*
X0099167Y0217379D01*
X0104167Y0217379D02*
X0104167Y0197379D01*
X0094167Y0187379D01*
X0094167Y0157379D01*
X0089167Y0152379D01*
X0059167Y0152379D01*
X0049167Y0142379D01*
X0054167Y0137379D01*
X0054167Y0122379D01*
X0054167Y0117379D02*
X0049167Y0112379D01*
X0054167Y0117379D02*
X0064167Y0117379D01*
X0069167Y0122379D01*
X0079167Y0122379D01*
X0084167Y0127379D01*
X0084167Y0132379D01*
X0086667Y0134879D01*
X0124167Y0134879D01*
X0109167Y0122379D02*
X0099667Y0112879D01*
X0104167Y0127379D02*
X0094167Y0127379D01*
X0117167Y0152379D02*
X0097167Y0172379D01*
X0097167Y0181379D01*
X0098167Y0182379D01*
X0099167Y0182379D01*
X0109167Y0192379D01*
X0109167Y0202379D01*
X0114167Y0207379D01*
X0109167Y0212379D01*
X0114167Y0207379D02*
X0199167Y0207379D01*
X0199167Y0202379D02*
X0194167Y0197379D01*
X0184167Y0197379D01*
X0184167Y0117379D01*
X0150667Y0122379D02*
X0150667Y0147879D01*
X0136167Y0162379D01*
X0119167Y0162379D01*
X0104167Y0177379D01*
X0104167Y0172379D02*
X0119167Y0157379D01*
X0129167Y0157379D01*
X0134167Y0152379D01*
X0139667Y0152379D01*
X0147167Y0144879D01*
X0114167Y0097379D02*
X0114167Y0092379D01*
X0101667Y0062379D02*
X0094167Y0054879D01*
X0062407Y0136119D02*
X0062407Y0138639D01*
X0058667Y0142379D01*
X0054167Y0152379D02*
X0044667Y0152379D01*
X0039667Y0147379D01*
X0039667Y0142379D01*
X0030167Y0156379D02*
X0026167Y0160379D01*
X0026167Y0170379D01*
X0024167Y0172379D01*
X0030167Y0168379D02*
X0032167Y0166379D01*
X0032167Y0160379D01*
X0030167Y0156379D02*
X0054167Y0156379D01*
X0054167Y0172379D01*
X0060167Y0178379D01*
X0057167Y0180379D02*
X0059167Y0182379D01*
X0064167Y0182379D01*
X0069167Y0177379D01*
X0069167Y0167379D01*
X0054167Y0152379D01*
X0053667Y0180379D02*
X0057167Y0180379D01*
X0054167Y0187379D02*
X0049167Y0182379D01*
X0039167Y0182379D01*
X0059167Y0202379D02*
X0059167Y0267379D01*
X0059167Y0268379D01*
X0064167Y0273379D02*
X0164167Y0273379D01*
X0147667Y0269379D02*
X0145667Y0267379D01*
X0109167Y0267379D01*
X0104167Y0262379D01*
X0104167Y0227379D01*
X0109167Y0222379D02*
X0104167Y0217379D01*
X0109167Y0222379D02*
X0159167Y0222379D01*
X0164167Y0227379D01*
X0164167Y0242379D01*
X0159667Y0246879D01*
X0158667Y0246879D01*
X0099167Y0202379D02*
X0084167Y0202379D01*
X0219167Y0101749D02*
X0219167Y0094879D01*
X0219167Y0101749D02*
X0274167Y0156749D01*
D22*
X0249167Y0197379D03*
X0249167Y0207379D03*
X0244167Y0207379D03*
X0254167Y0212379D03*
X0252167Y0217879D03*
X0234167Y0217379D03*
X0249167Y0242379D03*
X0259167Y0242379D03*
X0249667Y0251879D03*
X0204667Y0215379D03*
X0199167Y0197379D03*
X0229167Y0192379D03*
X0169167Y0237379D03*
X0159167Y0237379D03*
X0154167Y0227379D03*
X0139167Y0242379D03*
X0134167Y0228879D03*
X0154167Y0252379D03*
X0166167Y0210879D03*
X0202167Y0262379D03*
X0109167Y0252379D03*
X0054167Y0187379D03*
X0039167Y0182379D03*
X0039167Y0197379D03*
X0104167Y0172379D03*
X0147167Y0144879D03*
X0124167Y0082379D03*
X0144167Y0067379D03*
X0149167Y0063379D03*
X0154167Y0067379D03*
X0155167Y0053379D03*
D23*
X0154167Y0067379D02*
X0144167Y0067379D01*
X0204167Y0087379D02*
X0214167Y0077379D01*
X0240167Y0077379D01*
X0255167Y0062379D01*
X0244167Y0192379D02*
X0229167Y0192379D01*
X0244167Y0192379D02*
X0249167Y0197379D01*
X0254167Y0202379D02*
X0214167Y0202379D01*
X0209167Y0197379D01*
X0199167Y0197379D01*
X0213667Y0210879D02*
X0219167Y0216379D01*
X0219167Y0217379D01*
X0224167Y0222379D01*
X0224167Y0227379D01*
X0234167Y0227379D02*
X0234167Y0222379D01*
X0249167Y0207379D01*
X0249167Y0212379D02*
X0249167Y0222379D01*
X0244167Y0227379D01*
X0252167Y0234379D02*
X0252167Y0217879D01*
X0259167Y0224879D01*
X0259167Y0237379D01*
X0269009Y0247221D01*
X0274167Y0247221D01*
X0259167Y0242379D02*
X0249167Y0242379D01*
X0252167Y0234379D02*
X0239167Y0247379D01*
X0244167Y0257379D02*
X0249667Y0251879D01*
X0244167Y0257379D02*
X0184167Y0257379D01*
X0179167Y0252379D01*
X0179167Y0247379D01*
X0179167Y0242379D01*
X0174167Y0237379D01*
X0169167Y0237379D01*
X0159167Y0237379D02*
X0154167Y0242379D01*
X0149167Y0242379D01*
X0149167Y0232379D01*
X0154167Y0227379D01*
X0144167Y0237379D02*
X0139167Y0232379D01*
X0137667Y0232379D01*
X0134167Y0228879D01*
X0144167Y0237379D02*
X0144167Y0247379D01*
X0149167Y0252379D01*
X0154167Y0252379D01*
X0168167Y0252379D01*
X0169167Y0253379D01*
X0169167Y0257379D01*
X0173167Y0257379D01*
X0178167Y0262379D01*
X0202167Y0262379D01*
X0189167Y0247379D02*
X0189167Y0216879D01*
X0190667Y0215379D01*
X0204667Y0215379D01*
X0213667Y0210879D02*
X0166167Y0210879D01*
X0139167Y0242379D02*
X0129167Y0252379D01*
X0109167Y0252379D01*
X0064167Y0273379D02*
X0059167Y0268379D01*
X0059167Y0267379D02*
X0054167Y0272379D01*
X0035230Y0272379D01*
X0034167Y0271316D01*
X0028167Y0271316D01*
X0087167Y0187379D02*
X0087167Y0157379D01*
X0234167Y0217379D02*
X0244167Y0207379D01*
X0249167Y0212379D02*
X0254167Y0212379D01*
X0259167Y0207379D02*
X0254167Y0202379D01*
X0259167Y0207379D02*
X0274009Y0207379D01*
X0274167Y0207221D01*
D24*
X0099167Y0242379D03*
M02*
