G75*
%MOIN*%
%OFA0B0*%
%FSLAX25Y25*%
%IPPOS*%
%LPD*%
%AMOC8*
5,1,8,0,0,1.08239X$1,22.5*
%
%ADD10C,0.00100*%
%ADD11C,0.01000*%
%ADD12C,0.00300*%
%ADD13C,0.00500*%
%ADD14C,0.00600*%
%ADD15C,0.00400*%
%ADD16R,0.74606X0.06594*%
%ADD17C,0.00800*%
%ADD18C,0.02174*%
%ADD19R,0.02800X0.01600*%
%ADD20C,0.01600*%
%ADD21R,0.01181X0.00591*%
%ADD22R,0.01181X0.01181*%
%ADD23R,0.03400X0.03000*%
D10*
X0119217Y0096850D02*
X0119717Y0096850D01*
X0119467Y0096850D02*
X0119467Y0098351D01*
X0119217Y0098351D02*
X0119717Y0098351D01*
X0120199Y0098101D02*
X0120199Y0097100D01*
X0120449Y0096850D01*
X0120949Y0096850D01*
X0121200Y0097100D01*
X0121672Y0097100D02*
X0121922Y0096850D01*
X0122423Y0096850D01*
X0122673Y0097100D01*
X0122673Y0097350D01*
X0122423Y0097601D01*
X0121922Y0097601D01*
X0121672Y0097851D01*
X0121672Y0098101D01*
X0121922Y0098351D01*
X0122423Y0098351D01*
X0122673Y0098101D01*
X0123145Y0098351D02*
X0123896Y0098351D01*
X0124146Y0098101D01*
X0124146Y0097601D01*
X0123896Y0097350D01*
X0123145Y0097350D01*
X0123145Y0096850D02*
X0123145Y0098351D01*
X0121200Y0098101D02*
X0120949Y0098351D01*
X0120449Y0098351D01*
X0120199Y0098101D01*
X0099137Y0141850D02*
X0098636Y0141850D01*
X0098887Y0141850D02*
X0098887Y0143351D01*
X0099137Y0143351D02*
X0098636Y0143351D01*
X0098164Y0143101D02*
X0097914Y0143351D01*
X0097163Y0143351D01*
X0097163Y0141850D01*
X0097914Y0141850D01*
X0098164Y0142100D01*
X0098164Y0143101D01*
X0096691Y0143351D02*
X0095690Y0143351D01*
X0095218Y0143351D02*
X0094217Y0143351D01*
X0094217Y0141850D01*
X0094217Y0142601D02*
X0094717Y0142601D01*
X0096190Y0143351D02*
X0096190Y0141850D01*
X0184716Y0094654D02*
X0184966Y0094904D01*
X0185216Y0094904D01*
X0185216Y0093903D01*
X0184966Y0093903D02*
X0184716Y0094154D01*
X0184716Y0094654D01*
X0184966Y0093903D02*
X0185466Y0093903D01*
X0185717Y0094154D01*
X0185717Y0094654D01*
X0185717Y0093431D02*
X0185717Y0092680D01*
X0185466Y0092430D01*
X0184966Y0092430D01*
X0184716Y0092680D01*
X0184716Y0093431D01*
X0185967Y0093431D01*
X0186217Y0093181D01*
X0186217Y0092931D01*
X0185717Y0091958D02*
X0185717Y0091207D01*
X0185466Y0090957D01*
X0185216Y0091207D01*
X0185216Y0091958D01*
X0184966Y0091958D02*
X0185717Y0091958D01*
X0184966Y0091958D02*
X0184716Y0091708D01*
X0184716Y0091207D01*
X0184716Y0090475D02*
X0184716Y0089975D01*
X0184466Y0090225D02*
X0185466Y0090225D01*
X0185717Y0090475D01*
X0185717Y0089493D02*
X0185717Y0088993D01*
X0185717Y0089243D02*
X0184215Y0089243D01*
X0184215Y0088993D01*
X0184716Y0088270D02*
X0184716Y0087770D01*
X0184966Y0087519D01*
X0185466Y0087519D01*
X0185717Y0087770D01*
X0185717Y0088270D01*
X0185466Y0088520D01*
X0184966Y0088520D01*
X0184716Y0088270D01*
X0185216Y0087047D02*
X0184215Y0087047D01*
X0184215Y0086046D02*
X0185216Y0086046D01*
X0185717Y0086546D01*
X0185216Y0087047D01*
X0184966Y0084100D02*
X0185717Y0084100D01*
X0184966Y0084100D02*
X0184716Y0083850D01*
X0184716Y0083350D01*
X0184966Y0083100D01*
X0184716Y0082627D02*
X0184716Y0081877D01*
X0184966Y0081626D01*
X0185466Y0081626D01*
X0185717Y0081877D01*
X0185717Y0082627D01*
X0185967Y0082627D02*
X0184716Y0082627D01*
X0184215Y0083100D02*
X0185717Y0083100D01*
X0185967Y0082627D02*
X0186217Y0082377D01*
X0186217Y0082127D01*
X0185717Y0081145D02*
X0185717Y0080644D01*
X0185717Y0080894D02*
X0184716Y0080894D01*
X0184716Y0080644D01*
X0184966Y0080172D02*
X0184966Y0079171D01*
X0185717Y0079171D02*
X0184215Y0079171D01*
X0184215Y0080172D02*
X0185717Y0080172D01*
X0184215Y0080894D02*
X0183965Y0080894D01*
X0209217Y0078351D02*
X0209217Y0076850D01*
X0209217Y0077601D02*
X0210218Y0077601D01*
X0210690Y0077851D02*
X0210940Y0077851D01*
X0210940Y0076850D01*
X0210690Y0076850D02*
X0211190Y0076850D01*
X0211672Y0077100D02*
X0211922Y0076850D01*
X0212673Y0076850D01*
X0212673Y0076600D02*
X0212673Y0077851D01*
X0211922Y0077851D01*
X0211672Y0077601D01*
X0211672Y0077100D01*
X0212173Y0076350D02*
X0212423Y0076350D01*
X0212673Y0076600D01*
X0213145Y0076850D02*
X0213145Y0078351D01*
X0213396Y0077851D02*
X0213896Y0077851D01*
X0214146Y0077601D01*
X0214146Y0076850D01*
X0213396Y0077851D02*
X0213145Y0077601D01*
X0210940Y0078351D02*
X0210940Y0078601D01*
X0210218Y0078351D02*
X0210218Y0076850D01*
X0216092Y0077350D02*
X0216592Y0076850D01*
X0217093Y0077350D01*
X0217093Y0078351D01*
X0217815Y0077851D02*
X0217565Y0077601D01*
X0217565Y0077100D01*
X0217815Y0076850D01*
X0218316Y0076850D01*
X0218566Y0077100D01*
X0218566Y0077601D01*
X0218316Y0077851D01*
X0217815Y0077851D01*
X0219038Y0078351D02*
X0219289Y0078351D01*
X0219289Y0076850D01*
X0219539Y0076850D02*
X0219038Y0076850D01*
X0220271Y0077100D02*
X0220521Y0076850D01*
X0220271Y0077100D02*
X0220271Y0078101D01*
X0220021Y0077851D02*
X0220521Y0077851D01*
X0221253Y0077851D02*
X0221753Y0077851D01*
X0222004Y0077601D01*
X0222004Y0076850D01*
X0221253Y0076850D01*
X0221003Y0077100D01*
X0221253Y0077350D01*
X0222004Y0077350D01*
X0222476Y0077100D02*
X0222726Y0076850D01*
X0223477Y0076850D01*
X0223477Y0076600D02*
X0223477Y0077851D01*
X0222726Y0077851D01*
X0222476Y0077601D01*
X0222476Y0077100D01*
X0222976Y0076350D02*
X0223227Y0076350D01*
X0223477Y0076600D01*
X0223949Y0077100D02*
X0223949Y0077601D01*
X0224199Y0077851D01*
X0224700Y0077851D01*
X0224950Y0077601D01*
X0224950Y0077350D01*
X0223949Y0077350D01*
X0223949Y0077100D02*
X0224199Y0076850D01*
X0224700Y0076850D01*
X0216092Y0077350D02*
X0216092Y0078351D01*
D11*
X0216667Y0104300D02*
X0216667Y0109300D01*
X0216667Y0114300D01*
X0221667Y0114300D01*
X0221667Y0109300D01*
X0221667Y0104300D01*
X0219167Y0142800D02*
X0216667Y0145300D01*
X0215467Y0146600D01*
X0159167Y0186800D02*
X0159167Y0191800D01*
X0154167Y0191800D01*
X0154167Y0201800D01*
X0159167Y0201800D01*
X0159167Y0206800D01*
X0129167Y0206800D01*
X0129167Y0186800D01*
X0159167Y0186800D01*
D12*
X0146607Y0197567D02*
X0146607Y0198802D01*
X0145990Y0199419D01*
X0144756Y0199419D01*
X0144138Y0198802D01*
X0144138Y0197567D01*
X0144756Y0196950D01*
X0145990Y0196950D01*
X0146607Y0197567D01*
X0142917Y0196950D02*
X0142300Y0197567D01*
X0142300Y0200036D01*
X0141683Y0199419D02*
X0142917Y0199419D01*
X0140469Y0198802D02*
X0140469Y0197567D01*
X0139851Y0196950D01*
X0138000Y0196950D01*
X0138000Y0195716D02*
X0138000Y0199419D01*
X0139851Y0199419D01*
X0140469Y0198802D01*
X0136785Y0198802D02*
X0136785Y0197567D01*
X0136168Y0196950D01*
X0134934Y0196950D01*
X0134317Y0197567D01*
X0134317Y0198802D01*
X0134934Y0199419D01*
X0136168Y0199419D01*
X0136785Y0198802D01*
X0128000Y0250716D02*
X0128000Y0254419D01*
X0129851Y0254419D01*
X0130469Y0253802D01*
X0130469Y0252567D01*
X0129851Y0251950D01*
X0128000Y0251950D01*
X0126785Y0252567D02*
X0126785Y0253802D01*
X0126168Y0254419D01*
X0124934Y0254419D01*
X0124317Y0253802D01*
X0124317Y0252567D01*
X0124934Y0251950D01*
X0126168Y0251950D01*
X0126785Y0252567D01*
X0131683Y0254419D02*
X0132917Y0254419D01*
X0132300Y0255036D02*
X0132300Y0252567D01*
X0132917Y0251950D01*
X0134138Y0252567D02*
X0134138Y0253802D01*
X0134756Y0254419D01*
X0135990Y0254419D01*
X0136607Y0253802D01*
X0136607Y0252567D01*
X0135990Y0251950D01*
X0134756Y0251950D01*
X0134138Y0252567D01*
X0062399Y0254501D02*
X0059931Y0254501D01*
X0061165Y0253267D02*
X0061165Y0255736D01*
X0061165Y0245736D02*
X0061165Y0243267D01*
X0059931Y0244501D02*
X0062399Y0244501D01*
X0111313Y0106184D02*
X0115017Y0106184D01*
X0115017Y0104950D02*
X0115017Y0107419D01*
X0112548Y0104950D02*
X0111313Y0106184D01*
X0270931Y0088184D02*
X0273399Y0088184D01*
X0272165Y0086950D02*
X0272165Y0089419D01*
D13*
X0267513Y0084359D02*
X0267513Y0079241D01*
X0260820Y0079241D01*
X0260820Y0084359D01*
X0267513Y0084359D01*
X0262986Y0084162D02*
X0262986Y0079438D01*
X0262592Y0079438D02*
X0262592Y0084162D01*
X0262986Y0084162D01*
X0261726Y0075146D02*
X0256608Y0075146D01*
X0256608Y0068454D01*
X0261726Y0068454D01*
X0261726Y0075146D01*
X0261529Y0070619D02*
X0256804Y0070619D01*
X0256804Y0070225D01*
X0261529Y0070225D01*
X0232619Y0172394D02*
X0226714Y0172394D01*
X0226714Y0184206D01*
X0232619Y0184206D01*
X0232619Y0172394D01*
X0231417Y0177550D02*
X0227917Y0177550D01*
X0229667Y0179050D01*
X0231417Y0177550D01*
X0231417Y0179050D02*
X0227917Y0179050D01*
X0222917Y0179050D02*
X0219417Y0179050D01*
X0219417Y0177550D02*
X0221167Y0179050D01*
X0222917Y0177550D01*
X0219417Y0177550D01*
X0214917Y0177550D02*
X0213167Y0179050D01*
X0211417Y0177550D01*
X0214917Y0177550D01*
X0214917Y0179050D02*
X0211417Y0179050D01*
X0208119Y0182894D02*
X0202214Y0182894D01*
X0202214Y0194706D01*
X0208119Y0194706D01*
X0208119Y0182894D01*
X0210214Y0184206D02*
X0210214Y0172394D01*
X0216119Y0172394D01*
X0216119Y0184206D01*
X0210214Y0184206D01*
X0210214Y0186894D02*
X0210214Y0198706D01*
X0216119Y0198706D01*
X0216119Y0186894D01*
X0210214Y0186894D01*
X0211417Y0192050D02*
X0213167Y0193550D01*
X0214917Y0192050D01*
X0211417Y0192050D01*
X0211417Y0193550D02*
X0214917Y0193550D01*
X0206917Y0189550D02*
X0203417Y0189550D01*
X0203417Y0188050D02*
X0205167Y0189550D01*
X0206917Y0188050D01*
X0203417Y0188050D01*
X0218214Y0184206D02*
X0218214Y0172394D01*
X0224119Y0172394D01*
X0224119Y0184206D01*
X0218214Y0184206D01*
X0228214Y0191894D02*
X0228214Y0203706D01*
X0234119Y0203706D01*
X0234119Y0191894D01*
X0228214Y0191894D01*
X0229417Y0197050D02*
X0232917Y0197050D01*
X0232917Y0198550D02*
X0231167Y0197050D01*
X0229417Y0198550D01*
X0232917Y0198550D01*
X0261913Y0195959D02*
X0261913Y0194458D01*
X0262663Y0193707D01*
X0261913Y0195959D02*
X0262663Y0196710D01*
X0263414Y0196710D01*
X0266417Y0193707D01*
X0266417Y0196710D01*
X0266417Y0214207D02*
X0266417Y0217210D01*
X0266417Y0215709D02*
X0261913Y0215709D01*
X0263414Y0214207D01*
X0262663Y0233707D02*
X0261913Y0234458D01*
X0261913Y0235959D01*
X0262663Y0236710D01*
X0263414Y0236710D01*
X0266417Y0233707D01*
X0266417Y0236710D01*
X0266417Y0177210D02*
X0266417Y0174207D01*
X0266417Y0175709D02*
X0261913Y0175709D01*
X0263414Y0174207D01*
X0167119Y0235894D02*
X0161214Y0235894D01*
X0161214Y0247706D01*
X0167119Y0247706D01*
X0167119Y0235894D01*
X0165917Y0241050D02*
X0162417Y0241050D01*
X0164167Y0242550D01*
X0165917Y0241050D01*
X0165917Y0242550D02*
X0162417Y0242550D01*
X0161214Y0250894D02*
X0161214Y0262706D01*
X0167119Y0262706D01*
X0167119Y0250894D01*
X0161214Y0250894D01*
X0162417Y0256050D02*
X0164167Y0257550D01*
X0165917Y0256050D01*
X0162417Y0256050D01*
X0162417Y0257550D02*
X0165917Y0257550D01*
X0083017Y0216800D02*
X0083017Y0211100D01*
X0079167Y0211100D01*
X0059417Y0226800D02*
X0059417Y0234750D01*
X0059415Y0234750D01*
X0059417Y0234750D02*
X0065517Y0234750D01*
X0007917Y0202302D02*
X0007917Y0200801D01*
X0007166Y0200050D01*
X0006415Y0200050D01*
X0005665Y0200801D01*
X0005665Y0202302D01*
X0006415Y0203053D01*
X0007166Y0203053D01*
X0007917Y0202302D01*
X0005665Y0202302D02*
X0004914Y0203053D01*
X0004163Y0203053D01*
X0003413Y0202302D01*
X0003413Y0200801D01*
X0004163Y0200050D01*
X0004914Y0200050D01*
X0005665Y0200801D01*
X0007917Y0133053D02*
X0007917Y0130050D01*
X0007917Y0131551D02*
X0003413Y0131551D01*
X0004914Y0130050D01*
X0004914Y0123053D02*
X0005665Y0122302D01*
X0005665Y0120801D01*
X0004914Y0120050D01*
X0004163Y0120050D01*
X0003413Y0120801D01*
X0003413Y0122302D01*
X0004163Y0123053D01*
X0004914Y0123053D01*
X0005665Y0122302D02*
X0006415Y0123053D01*
X0007166Y0123053D01*
X0007917Y0122302D01*
X0007917Y0120801D01*
X0007166Y0120050D01*
X0006415Y0120050D01*
X0005665Y0120801D01*
X0007917Y0053053D02*
X0007917Y0050050D01*
X0007917Y0051551D02*
X0003413Y0051551D01*
X0004914Y0050050D01*
X0114167Y0109800D02*
X0114167Y0123800D01*
X0117167Y0126800D01*
X0122167Y0126800D01*
X0124167Y0124800D01*
X0126167Y0126800D01*
X0132167Y0126800D01*
X0134167Y0124800D01*
X0136167Y0126800D01*
X0141167Y0126800D01*
X0144167Y0123800D01*
X0144167Y0109800D01*
X0141167Y0106800D01*
X0136167Y0106800D01*
X0134167Y0108800D01*
X0132167Y0106800D01*
X0126167Y0106800D01*
X0124167Y0108800D01*
X0122167Y0106800D01*
X0117167Y0106800D01*
X0114167Y0109800D01*
D14*
X0116667Y0131800D02*
X0114167Y0134300D01*
X0111667Y0131800D01*
X0106667Y0131800D01*
X0104167Y0134300D01*
X0101667Y0131800D01*
X0096667Y0131800D01*
X0094167Y0134300D01*
X0091667Y0131800D01*
X0086667Y0131800D01*
X0084167Y0134300D01*
X0084167Y0139300D01*
X0086667Y0141800D01*
X0091667Y0141800D01*
X0094167Y0139300D01*
X0096667Y0141800D01*
X0101667Y0141800D01*
X0104167Y0139300D01*
X0106667Y0141800D01*
X0111667Y0141800D01*
X0114167Y0139300D01*
X0116667Y0141800D01*
X0121667Y0141800D01*
X0124167Y0139300D01*
X0126667Y0141800D01*
X0131667Y0141800D01*
X0134167Y0139300D01*
X0136667Y0141800D01*
X0141667Y0141800D01*
X0144167Y0139300D01*
X0144167Y0134300D01*
X0141667Y0131800D01*
X0136667Y0131800D01*
X0134167Y0134300D01*
X0131667Y0131800D01*
X0126667Y0131800D01*
X0124167Y0134300D01*
X0121667Y0131800D01*
X0116667Y0131800D01*
X0086568Y0095599D02*
X0087966Y0094202D01*
X0087966Y0068001D01*
X0060367Y0068001D01*
X0060367Y0095599D01*
X0086568Y0095599D01*
X0083553Y0092600D02*
X0083555Y0092675D01*
X0083561Y0092749D01*
X0083571Y0092823D01*
X0083584Y0092896D01*
X0083602Y0092969D01*
X0083623Y0093040D01*
X0083648Y0093111D01*
X0083677Y0093180D01*
X0083710Y0093247D01*
X0083746Y0093312D01*
X0083785Y0093376D01*
X0083827Y0093437D01*
X0083873Y0093496D01*
X0083922Y0093553D01*
X0083974Y0093606D01*
X0084028Y0093657D01*
X0084085Y0093706D01*
X0084145Y0093750D01*
X0084207Y0093792D01*
X0084271Y0093831D01*
X0084337Y0093866D01*
X0084404Y0093897D01*
X0084474Y0093925D01*
X0084544Y0093949D01*
X0084616Y0093970D01*
X0084689Y0093986D01*
X0084762Y0093999D01*
X0084837Y0094008D01*
X0084911Y0094013D01*
X0084986Y0094014D01*
X0085060Y0094011D01*
X0085135Y0094004D01*
X0085208Y0093993D01*
X0085282Y0093979D01*
X0085354Y0093960D01*
X0085425Y0093938D01*
X0085495Y0093912D01*
X0085564Y0093882D01*
X0085630Y0093849D01*
X0085695Y0093812D01*
X0085758Y0093772D01*
X0085819Y0093728D01*
X0085877Y0093682D01*
X0085933Y0093632D01*
X0085986Y0093580D01*
X0086037Y0093525D01*
X0086084Y0093467D01*
X0086128Y0093407D01*
X0086169Y0093344D01*
X0086207Y0093280D01*
X0086241Y0093214D01*
X0086272Y0093145D01*
X0086299Y0093076D01*
X0086322Y0093005D01*
X0086341Y0092933D01*
X0086357Y0092860D01*
X0086369Y0092786D01*
X0086377Y0092712D01*
X0086381Y0092637D01*
X0086381Y0092563D01*
X0086377Y0092488D01*
X0086369Y0092414D01*
X0086357Y0092340D01*
X0086341Y0092267D01*
X0086322Y0092195D01*
X0086299Y0092124D01*
X0086272Y0092055D01*
X0086241Y0091986D01*
X0086207Y0091920D01*
X0086169Y0091856D01*
X0086128Y0091793D01*
X0086084Y0091733D01*
X0086037Y0091675D01*
X0085986Y0091620D01*
X0085933Y0091568D01*
X0085877Y0091518D01*
X0085819Y0091472D01*
X0085758Y0091428D01*
X0085695Y0091388D01*
X0085630Y0091351D01*
X0085564Y0091318D01*
X0085495Y0091288D01*
X0085425Y0091262D01*
X0085354Y0091240D01*
X0085282Y0091221D01*
X0085208Y0091207D01*
X0085135Y0091196D01*
X0085060Y0091189D01*
X0084986Y0091186D01*
X0084911Y0091187D01*
X0084837Y0091192D01*
X0084762Y0091201D01*
X0084689Y0091214D01*
X0084616Y0091230D01*
X0084544Y0091251D01*
X0084474Y0091275D01*
X0084404Y0091303D01*
X0084337Y0091334D01*
X0084271Y0091369D01*
X0084207Y0091408D01*
X0084145Y0091450D01*
X0084085Y0091494D01*
X0084028Y0091543D01*
X0083974Y0091594D01*
X0083922Y0091647D01*
X0083873Y0091704D01*
X0083827Y0091763D01*
X0083785Y0091824D01*
X0083746Y0091888D01*
X0083710Y0091953D01*
X0083677Y0092020D01*
X0083648Y0092089D01*
X0083623Y0092160D01*
X0083602Y0092231D01*
X0083584Y0092304D01*
X0083571Y0092377D01*
X0083561Y0092451D01*
X0083555Y0092525D01*
X0083553Y0092600D01*
X0061167Y0130300D02*
X0037167Y0130300D01*
X0037007Y0130302D01*
X0036848Y0130308D01*
X0036689Y0130318D01*
X0036530Y0130331D01*
X0036371Y0130349D01*
X0036213Y0130370D01*
X0036056Y0130396D01*
X0035899Y0130425D01*
X0035743Y0130458D01*
X0035588Y0130495D01*
X0035433Y0130535D01*
X0035280Y0130580D01*
X0035128Y0130628D01*
X0034977Y0130680D01*
X0034828Y0130736D01*
X0034680Y0130795D01*
X0034533Y0130858D01*
X0034388Y0130924D01*
X0034245Y0130994D01*
X0034103Y0131068D01*
X0033963Y0131144D01*
X0033825Y0131225D01*
X0033690Y0131308D01*
X0033556Y0131395D01*
X0033424Y0131486D01*
X0033295Y0131579D01*
X0033168Y0131676D01*
X0033043Y0131775D01*
X0032921Y0131878D01*
X0032802Y0131984D01*
X0032685Y0132092D01*
X0032571Y0132204D01*
X0032459Y0132318D01*
X0032351Y0132435D01*
X0032245Y0132554D01*
X0032142Y0132676D01*
X0032043Y0132801D01*
X0031946Y0132928D01*
X0031853Y0133057D01*
X0031762Y0133189D01*
X0031675Y0133323D01*
X0031592Y0133458D01*
X0031511Y0133596D01*
X0031435Y0133736D01*
X0031361Y0133878D01*
X0031291Y0134021D01*
X0031225Y0134166D01*
X0031162Y0134313D01*
X0031103Y0134461D01*
X0031047Y0134610D01*
X0030995Y0134761D01*
X0030947Y0134913D01*
X0030902Y0135066D01*
X0030862Y0135221D01*
X0030825Y0135376D01*
X0030792Y0135532D01*
X0030763Y0135689D01*
X0030737Y0135846D01*
X0030716Y0136004D01*
X0030698Y0136163D01*
X0030685Y0136322D01*
X0030675Y0136481D01*
X0030669Y0136640D01*
X0030667Y0136800D01*
X0030669Y0136960D01*
X0030675Y0137119D01*
X0030685Y0137278D01*
X0030698Y0137437D01*
X0030716Y0137596D01*
X0030737Y0137754D01*
X0030763Y0137911D01*
X0030792Y0138068D01*
X0030825Y0138224D01*
X0030862Y0138379D01*
X0030902Y0138534D01*
X0030947Y0138687D01*
X0030995Y0138839D01*
X0031047Y0138990D01*
X0031103Y0139139D01*
X0031162Y0139287D01*
X0031225Y0139434D01*
X0031291Y0139579D01*
X0031361Y0139722D01*
X0031435Y0139864D01*
X0031511Y0140004D01*
X0031592Y0140142D01*
X0031675Y0140277D01*
X0031762Y0140411D01*
X0031853Y0140543D01*
X0031946Y0140672D01*
X0032043Y0140799D01*
X0032142Y0140924D01*
X0032245Y0141046D01*
X0032351Y0141165D01*
X0032459Y0141282D01*
X0032571Y0141396D01*
X0032685Y0141508D01*
X0032802Y0141616D01*
X0032921Y0141722D01*
X0033043Y0141825D01*
X0033168Y0141924D01*
X0033295Y0142021D01*
X0033424Y0142114D01*
X0033556Y0142205D01*
X0033690Y0142292D01*
X0033825Y0142375D01*
X0033963Y0142456D01*
X0034103Y0142532D01*
X0034245Y0142606D01*
X0034388Y0142676D01*
X0034533Y0142742D01*
X0034680Y0142805D01*
X0034828Y0142864D01*
X0034977Y0142920D01*
X0035128Y0142972D01*
X0035280Y0143020D01*
X0035433Y0143065D01*
X0035588Y0143105D01*
X0035743Y0143142D01*
X0035899Y0143175D01*
X0036056Y0143204D01*
X0036213Y0143230D01*
X0036371Y0143251D01*
X0036530Y0143269D01*
X0036689Y0143282D01*
X0036848Y0143292D01*
X0037007Y0143298D01*
X0037167Y0143300D01*
X0061167Y0143300D01*
X0061327Y0143298D01*
X0061486Y0143292D01*
X0061645Y0143282D01*
X0061804Y0143269D01*
X0061963Y0143251D01*
X0062121Y0143230D01*
X0062278Y0143204D01*
X0062435Y0143175D01*
X0062591Y0143142D01*
X0062746Y0143105D01*
X0062901Y0143065D01*
X0063054Y0143020D01*
X0063206Y0142972D01*
X0063357Y0142920D01*
X0063506Y0142864D01*
X0063654Y0142805D01*
X0063801Y0142742D01*
X0063946Y0142676D01*
X0064089Y0142606D01*
X0064231Y0142532D01*
X0064371Y0142456D01*
X0064509Y0142375D01*
X0064644Y0142292D01*
X0064778Y0142205D01*
X0064910Y0142114D01*
X0065039Y0142021D01*
X0065166Y0141924D01*
X0065291Y0141825D01*
X0065413Y0141722D01*
X0065532Y0141616D01*
X0065649Y0141508D01*
X0065763Y0141396D01*
X0065875Y0141282D01*
X0065983Y0141165D01*
X0066089Y0141046D01*
X0066192Y0140924D01*
X0066291Y0140799D01*
X0066388Y0140672D01*
X0066481Y0140543D01*
X0066572Y0140411D01*
X0066659Y0140277D01*
X0066742Y0140142D01*
X0066823Y0140004D01*
X0066899Y0139864D01*
X0066973Y0139722D01*
X0067043Y0139579D01*
X0067109Y0139434D01*
X0067172Y0139287D01*
X0067231Y0139139D01*
X0067287Y0138990D01*
X0067339Y0138839D01*
X0067387Y0138687D01*
X0067432Y0138534D01*
X0067472Y0138379D01*
X0067509Y0138224D01*
X0067542Y0138068D01*
X0067571Y0137911D01*
X0067597Y0137754D01*
X0067618Y0137596D01*
X0067636Y0137437D01*
X0067649Y0137278D01*
X0067659Y0137119D01*
X0067665Y0136960D01*
X0067667Y0136800D01*
X0067665Y0136640D01*
X0067659Y0136481D01*
X0067649Y0136322D01*
X0067636Y0136163D01*
X0067618Y0136004D01*
X0067597Y0135846D01*
X0067571Y0135689D01*
X0067542Y0135532D01*
X0067509Y0135376D01*
X0067472Y0135221D01*
X0067432Y0135066D01*
X0067387Y0134913D01*
X0067339Y0134761D01*
X0067287Y0134610D01*
X0067231Y0134461D01*
X0067172Y0134313D01*
X0067109Y0134166D01*
X0067043Y0134021D01*
X0066973Y0133878D01*
X0066899Y0133736D01*
X0066823Y0133596D01*
X0066742Y0133458D01*
X0066659Y0133323D01*
X0066572Y0133189D01*
X0066481Y0133057D01*
X0066388Y0132928D01*
X0066291Y0132801D01*
X0066192Y0132676D01*
X0066089Y0132554D01*
X0065983Y0132435D01*
X0065875Y0132318D01*
X0065763Y0132204D01*
X0065649Y0132092D01*
X0065532Y0131984D01*
X0065413Y0131878D01*
X0065291Y0131775D01*
X0065166Y0131676D01*
X0065039Y0131579D01*
X0064910Y0131486D01*
X0064778Y0131395D01*
X0064644Y0131308D01*
X0064509Y0131225D01*
X0064371Y0131144D01*
X0064231Y0131068D01*
X0064089Y0130994D01*
X0063946Y0130924D01*
X0063801Y0130858D01*
X0063654Y0130795D01*
X0063506Y0130736D01*
X0063357Y0130680D01*
X0063206Y0130628D01*
X0063054Y0130580D01*
X0062901Y0130535D01*
X0062746Y0130495D01*
X0062591Y0130458D01*
X0062435Y0130425D01*
X0062278Y0130396D01*
X0062121Y0130370D01*
X0061963Y0130349D01*
X0061804Y0130331D01*
X0061645Y0130318D01*
X0061486Y0130308D01*
X0061327Y0130302D01*
X0061167Y0130300D01*
X0019167Y0126800D02*
X0019167Y0117800D01*
X0018167Y0116800D01*
X0019167Y0115800D01*
X0019167Y0107800D01*
X0018167Y0106800D01*
X0019167Y0105800D01*
X0019167Y0097800D01*
X0018167Y0096800D01*
X0019167Y0095800D01*
X0019167Y0087800D01*
X0018167Y0086800D01*
X0019167Y0085800D01*
X0019167Y0077800D01*
X0018167Y0076800D01*
X0019167Y0075800D01*
X0019167Y0067800D01*
X0018167Y0066800D01*
X0019167Y0065800D01*
X0019167Y0057800D01*
X0018167Y0056800D01*
X0019167Y0055800D01*
X0019167Y0046800D01*
X0009167Y0046800D01*
X0009167Y0055800D01*
X0010167Y0056800D01*
X0009167Y0057800D01*
X0009167Y0065800D01*
X0010167Y0066800D01*
X0009167Y0067800D01*
X0009167Y0075800D01*
X0010167Y0076800D01*
X0009167Y0077800D01*
X0009167Y0085800D01*
X0010167Y0086800D01*
X0009167Y0087800D01*
X0009167Y0095800D01*
X0010167Y0096800D01*
X0009167Y0097800D01*
X0009167Y0105800D01*
X0010167Y0106800D01*
X0009167Y0107800D01*
X0009167Y0115800D01*
X0010167Y0116800D01*
X0009167Y0117800D01*
X0009167Y0126800D01*
X0019167Y0126800D01*
X0019167Y0135800D01*
X0018167Y0136800D01*
X0019167Y0137800D01*
X0019167Y0145800D01*
X0018167Y0146800D01*
X0019167Y0147800D01*
X0019167Y0155800D01*
X0018167Y0156800D01*
X0019167Y0157800D01*
X0019167Y0165800D01*
X0018167Y0166800D01*
X0019167Y0167800D01*
X0019167Y0175800D01*
X0018167Y0176800D01*
X0019167Y0177800D01*
X0019167Y0185800D01*
X0018167Y0186800D01*
X0019167Y0187800D01*
X0019167Y0195800D01*
X0018167Y0196800D01*
X0019167Y0197800D01*
X0019167Y0206800D01*
X0009167Y0206800D01*
X0009167Y0197800D01*
X0010167Y0196800D01*
X0009167Y0195800D01*
X0009167Y0187800D01*
X0010167Y0186800D01*
X0009167Y0185800D01*
X0009167Y0177800D01*
X0010167Y0176800D01*
X0009167Y0175800D01*
X0009167Y0167800D01*
X0010167Y0166800D01*
X0009167Y0165800D01*
X0009167Y0157800D01*
X0010167Y0156800D01*
X0009167Y0155800D01*
X0009167Y0147800D01*
X0010167Y0146800D01*
X0009167Y0145800D01*
X0009167Y0137800D01*
X0010167Y0136800D01*
X0009167Y0135800D01*
X0009167Y0126800D01*
X0019167Y0126800D01*
X0127001Y0184280D02*
X0161430Y0184280D01*
X0161430Y0209320D01*
X0127001Y0209320D01*
X0127001Y0207288D01*
X0161037Y0207288D01*
X0146430Y0234280D02*
X0146430Y0259320D01*
X0112001Y0259320D01*
X0112001Y0257288D01*
X0146037Y0257288D01*
X0146430Y0234280D02*
X0112001Y0234280D01*
X0112001Y0257288D01*
X0127001Y0207288D02*
X0127001Y0184280D01*
X0172167Y0238800D02*
X0172167Y0252800D01*
X0172167Y0238800D02*
X0173167Y0238800D01*
X0245167Y0238800D02*
X0246167Y0238800D01*
X0246167Y0252800D01*
X0254466Y0251457D02*
X0254466Y0212158D01*
X0255265Y0212158D01*
X0255265Y0251457D01*
X0281265Y0251457D01*
X0290667Y0251457D01*
X0290667Y0212158D01*
X0281265Y0212158D01*
X0255265Y0212158D01*
X0255265Y0211457D02*
X0254466Y0211457D01*
X0254466Y0172158D01*
X0255265Y0172158D01*
X0255265Y0211457D01*
X0281265Y0211457D01*
X0290667Y0211457D01*
X0290667Y0172158D01*
X0281265Y0172158D01*
X0255265Y0172158D01*
X0251667Y0168300D02*
X0251667Y0079300D01*
X0186667Y0079300D01*
X0186667Y0168300D01*
X0251667Y0168300D01*
X0258467Y0181957D02*
X0258469Y0182046D01*
X0258475Y0182135D01*
X0258485Y0182224D01*
X0258499Y0182312D01*
X0258516Y0182399D01*
X0258538Y0182485D01*
X0258564Y0182571D01*
X0258593Y0182655D01*
X0258626Y0182738D01*
X0258662Y0182819D01*
X0258703Y0182899D01*
X0258746Y0182976D01*
X0258793Y0183052D01*
X0258844Y0183125D01*
X0258897Y0183196D01*
X0258954Y0183265D01*
X0259014Y0183331D01*
X0259077Y0183395D01*
X0259142Y0183455D01*
X0259210Y0183513D01*
X0259281Y0183567D01*
X0259354Y0183618D01*
X0259429Y0183666D01*
X0259506Y0183711D01*
X0259585Y0183752D01*
X0259666Y0183789D01*
X0259748Y0183823D01*
X0259832Y0183854D01*
X0259917Y0183880D01*
X0260003Y0183903D01*
X0260090Y0183921D01*
X0260178Y0183936D01*
X0260267Y0183947D01*
X0260356Y0183954D01*
X0260445Y0183957D01*
X0260534Y0183956D01*
X0260623Y0183951D01*
X0260711Y0183942D01*
X0260800Y0183929D01*
X0260887Y0183912D01*
X0260974Y0183892D01*
X0261060Y0183867D01*
X0261144Y0183839D01*
X0261227Y0183807D01*
X0261309Y0183771D01*
X0261389Y0183732D01*
X0261467Y0183689D01*
X0261543Y0183643D01*
X0261617Y0183593D01*
X0261689Y0183540D01*
X0261758Y0183484D01*
X0261825Y0183425D01*
X0261889Y0183363D01*
X0261950Y0183299D01*
X0262009Y0183231D01*
X0262064Y0183161D01*
X0262116Y0183089D01*
X0262165Y0183014D01*
X0262210Y0182938D01*
X0262252Y0182859D01*
X0262290Y0182779D01*
X0262325Y0182697D01*
X0262356Y0182613D01*
X0262384Y0182528D01*
X0262407Y0182442D01*
X0262427Y0182355D01*
X0262443Y0182268D01*
X0262455Y0182179D01*
X0262463Y0182091D01*
X0262467Y0182002D01*
X0262467Y0181912D01*
X0262463Y0181823D01*
X0262455Y0181735D01*
X0262443Y0181646D01*
X0262427Y0181559D01*
X0262407Y0181472D01*
X0262384Y0181386D01*
X0262356Y0181301D01*
X0262325Y0181217D01*
X0262290Y0181135D01*
X0262252Y0181055D01*
X0262210Y0180976D01*
X0262165Y0180900D01*
X0262116Y0180825D01*
X0262064Y0180753D01*
X0262009Y0180683D01*
X0261950Y0180615D01*
X0261889Y0180551D01*
X0261825Y0180489D01*
X0261758Y0180430D01*
X0261689Y0180374D01*
X0261617Y0180321D01*
X0261543Y0180271D01*
X0261467Y0180225D01*
X0261389Y0180182D01*
X0261309Y0180143D01*
X0261227Y0180107D01*
X0261144Y0180075D01*
X0261060Y0180047D01*
X0260974Y0180022D01*
X0260887Y0180002D01*
X0260800Y0179985D01*
X0260711Y0179972D01*
X0260623Y0179963D01*
X0260534Y0179958D01*
X0260445Y0179957D01*
X0260356Y0179960D01*
X0260267Y0179967D01*
X0260178Y0179978D01*
X0260090Y0179993D01*
X0260003Y0180011D01*
X0259917Y0180034D01*
X0259832Y0180060D01*
X0259748Y0180091D01*
X0259666Y0180125D01*
X0259585Y0180162D01*
X0259506Y0180203D01*
X0259429Y0180248D01*
X0259354Y0180296D01*
X0259281Y0180347D01*
X0259210Y0180401D01*
X0259142Y0180459D01*
X0259077Y0180519D01*
X0259014Y0180583D01*
X0258954Y0180649D01*
X0258897Y0180718D01*
X0258844Y0180789D01*
X0258793Y0180862D01*
X0258746Y0180938D01*
X0258703Y0181015D01*
X0258662Y0181095D01*
X0258626Y0181176D01*
X0258593Y0181259D01*
X0258564Y0181343D01*
X0258538Y0181429D01*
X0258516Y0181515D01*
X0258499Y0181602D01*
X0258485Y0181690D01*
X0258475Y0181779D01*
X0258469Y0181868D01*
X0258467Y0181957D01*
X0258467Y0201657D02*
X0258469Y0201746D01*
X0258475Y0201835D01*
X0258485Y0201924D01*
X0258499Y0202012D01*
X0258516Y0202099D01*
X0258538Y0202185D01*
X0258564Y0202271D01*
X0258593Y0202355D01*
X0258626Y0202438D01*
X0258662Y0202519D01*
X0258703Y0202599D01*
X0258746Y0202676D01*
X0258793Y0202752D01*
X0258844Y0202825D01*
X0258897Y0202896D01*
X0258954Y0202965D01*
X0259014Y0203031D01*
X0259077Y0203095D01*
X0259142Y0203155D01*
X0259210Y0203213D01*
X0259281Y0203267D01*
X0259354Y0203318D01*
X0259429Y0203366D01*
X0259506Y0203411D01*
X0259585Y0203452D01*
X0259666Y0203489D01*
X0259748Y0203523D01*
X0259832Y0203554D01*
X0259917Y0203580D01*
X0260003Y0203603D01*
X0260090Y0203621D01*
X0260178Y0203636D01*
X0260267Y0203647D01*
X0260356Y0203654D01*
X0260445Y0203657D01*
X0260534Y0203656D01*
X0260623Y0203651D01*
X0260711Y0203642D01*
X0260800Y0203629D01*
X0260887Y0203612D01*
X0260974Y0203592D01*
X0261060Y0203567D01*
X0261144Y0203539D01*
X0261227Y0203507D01*
X0261309Y0203471D01*
X0261389Y0203432D01*
X0261467Y0203389D01*
X0261543Y0203343D01*
X0261617Y0203293D01*
X0261689Y0203240D01*
X0261758Y0203184D01*
X0261825Y0203125D01*
X0261889Y0203063D01*
X0261950Y0202999D01*
X0262009Y0202931D01*
X0262064Y0202861D01*
X0262116Y0202789D01*
X0262165Y0202714D01*
X0262210Y0202638D01*
X0262252Y0202559D01*
X0262290Y0202479D01*
X0262325Y0202397D01*
X0262356Y0202313D01*
X0262384Y0202228D01*
X0262407Y0202142D01*
X0262427Y0202055D01*
X0262443Y0201968D01*
X0262455Y0201879D01*
X0262463Y0201791D01*
X0262467Y0201702D01*
X0262467Y0201612D01*
X0262463Y0201523D01*
X0262455Y0201435D01*
X0262443Y0201346D01*
X0262427Y0201259D01*
X0262407Y0201172D01*
X0262384Y0201086D01*
X0262356Y0201001D01*
X0262325Y0200917D01*
X0262290Y0200835D01*
X0262252Y0200755D01*
X0262210Y0200676D01*
X0262165Y0200600D01*
X0262116Y0200525D01*
X0262064Y0200453D01*
X0262009Y0200383D01*
X0261950Y0200315D01*
X0261889Y0200251D01*
X0261825Y0200189D01*
X0261758Y0200130D01*
X0261689Y0200074D01*
X0261617Y0200021D01*
X0261543Y0199971D01*
X0261467Y0199925D01*
X0261389Y0199882D01*
X0261309Y0199843D01*
X0261227Y0199807D01*
X0261144Y0199775D01*
X0261060Y0199747D01*
X0260974Y0199722D01*
X0260887Y0199702D01*
X0260800Y0199685D01*
X0260711Y0199672D01*
X0260623Y0199663D01*
X0260534Y0199658D01*
X0260445Y0199657D01*
X0260356Y0199660D01*
X0260267Y0199667D01*
X0260178Y0199678D01*
X0260090Y0199693D01*
X0260003Y0199711D01*
X0259917Y0199734D01*
X0259832Y0199760D01*
X0259748Y0199791D01*
X0259666Y0199825D01*
X0259585Y0199862D01*
X0259506Y0199903D01*
X0259429Y0199948D01*
X0259354Y0199996D01*
X0259281Y0200047D01*
X0259210Y0200101D01*
X0259142Y0200159D01*
X0259077Y0200219D01*
X0259014Y0200283D01*
X0258954Y0200349D01*
X0258897Y0200418D01*
X0258844Y0200489D01*
X0258793Y0200562D01*
X0258746Y0200638D01*
X0258703Y0200715D01*
X0258662Y0200795D01*
X0258626Y0200876D01*
X0258593Y0200959D01*
X0258564Y0201043D01*
X0258538Y0201129D01*
X0258516Y0201215D01*
X0258499Y0201302D01*
X0258485Y0201390D01*
X0258475Y0201479D01*
X0258469Y0201568D01*
X0258467Y0201657D01*
X0258467Y0221957D02*
X0258469Y0222046D01*
X0258475Y0222135D01*
X0258485Y0222224D01*
X0258499Y0222312D01*
X0258516Y0222399D01*
X0258538Y0222485D01*
X0258564Y0222571D01*
X0258593Y0222655D01*
X0258626Y0222738D01*
X0258662Y0222819D01*
X0258703Y0222899D01*
X0258746Y0222976D01*
X0258793Y0223052D01*
X0258844Y0223125D01*
X0258897Y0223196D01*
X0258954Y0223265D01*
X0259014Y0223331D01*
X0259077Y0223395D01*
X0259142Y0223455D01*
X0259210Y0223513D01*
X0259281Y0223567D01*
X0259354Y0223618D01*
X0259429Y0223666D01*
X0259506Y0223711D01*
X0259585Y0223752D01*
X0259666Y0223789D01*
X0259748Y0223823D01*
X0259832Y0223854D01*
X0259917Y0223880D01*
X0260003Y0223903D01*
X0260090Y0223921D01*
X0260178Y0223936D01*
X0260267Y0223947D01*
X0260356Y0223954D01*
X0260445Y0223957D01*
X0260534Y0223956D01*
X0260623Y0223951D01*
X0260711Y0223942D01*
X0260800Y0223929D01*
X0260887Y0223912D01*
X0260974Y0223892D01*
X0261060Y0223867D01*
X0261144Y0223839D01*
X0261227Y0223807D01*
X0261309Y0223771D01*
X0261389Y0223732D01*
X0261467Y0223689D01*
X0261543Y0223643D01*
X0261617Y0223593D01*
X0261689Y0223540D01*
X0261758Y0223484D01*
X0261825Y0223425D01*
X0261889Y0223363D01*
X0261950Y0223299D01*
X0262009Y0223231D01*
X0262064Y0223161D01*
X0262116Y0223089D01*
X0262165Y0223014D01*
X0262210Y0222938D01*
X0262252Y0222859D01*
X0262290Y0222779D01*
X0262325Y0222697D01*
X0262356Y0222613D01*
X0262384Y0222528D01*
X0262407Y0222442D01*
X0262427Y0222355D01*
X0262443Y0222268D01*
X0262455Y0222179D01*
X0262463Y0222091D01*
X0262467Y0222002D01*
X0262467Y0221912D01*
X0262463Y0221823D01*
X0262455Y0221735D01*
X0262443Y0221646D01*
X0262427Y0221559D01*
X0262407Y0221472D01*
X0262384Y0221386D01*
X0262356Y0221301D01*
X0262325Y0221217D01*
X0262290Y0221135D01*
X0262252Y0221055D01*
X0262210Y0220976D01*
X0262165Y0220900D01*
X0262116Y0220825D01*
X0262064Y0220753D01*
X0262009Y0220683D01*
X0261950Y0220615D01*
X0261889Y0220551D01*
X0261825Y0220489D01*
X0261758Y0220430D01*
X0261689Y0220374D01*
X0261617Y0220321D01*
X0261543Y0220271D01*
X0261467Y0220225D01*
X0261389Y0220182D01*
X0261309Y0220143D01*
X0261227Y0220107D01*
X0261144Y0220075D01*
X0261060Y0220047D01*
X0260974Y0220022D01*
X0260887Y0220002D01*
X0260800Y0219985D01*
X0260711Y0219972D01*
X0260623Y0219963D01*
X0260534Y0219958D01*
X0260445Y0219957D01*
X0260356Y0219960D01*
X0260267Y0219967D01*
X0260178Y0219978D01*
X0260090Y0219993D01*
X0260003Y0220011D01*
X0259917Y0220034D01*
X0259832Y0220060D01*
X0259748Y0220091D01*
X0259666Y0220125D01*
X0259585Y0220162D01*
X0259506Y0220203D01*
X0259429Y0220248D01*
X0259354Y0220296D01*
X0259281Y0220347D01*
X0259210Y0220401D01*
X0259142Y0220459D01*
X0259077Y0220519D01*
X0259014Y0220583D01*
X0258954Y0220649D01*
X0258897Y0220718D01*
X0258844Y0220789D01*
X0258793Y0220862D01*
X0258746Y0220938D01*
X0258703Y0221015D01*
X0258662Y0221095D01*
X0258626Y0221176D01*
X0258593Y0221259D01*
X0258564Y0221343D01*
X0258538Y0221429D01*
X0258516Y0221515D01*
X0258499Y0221602D01*
X0258485Y0221690D01*
X0258475Y0221779D01*
X0258469Y0221868D01*
X0258467Y0221957D01*
X0258467Y0241657D02*
X0258469Y0241746D01*
X0258475Y0241835D01*
X0258485Y0241924D01*
X0258499Y0242012D01*
X0258516Y0242099D01*
X0258538Y0242185D01*
X0258564Y0242271D01*
X0258593Y0242355D01*
X0258626Y0242438D01*
X0258662Y0242519D01*
X0258703Y0242599D01*
X0258746Y0242676D01*
X0258793Y0242752D01*
X0258844Y0242825D01*
X0258897Y0242896D01*
X0258954Y0242965D01*
X0259014Y0243031D01*
X0259077Y0243095D01*
X0259142Y0243155D01*
X0259210Y0243213D01*
X0259281Y0243267D01*
X0259354Y0243318D01*
X0259429Y0243366D01*
X0259506Y0243411D01*
X0259585Y0243452D01*
X0259666Y0243489D01*
X0259748Y0243523D01*
X0259832Y0243554D01*
X0259917Y0243580D01*
X0260003Y0243603D01*
X0260090Y0243621D01*
X0260178Y0243636D01*
X0260267Y0243647D01*
X0260356Y0243654D01*
X0260445Y0243657D01*
X0260534Y0243656D01*
X0260623Y0243651D01*
X0260711Y0243642D01*
X0260800Y0243629D01*
X0260887Y0243612D01*
X0260974Y0243592D01*
X0261060Y0243567D01*
X0261144Y0243539D01*
X0261227Y0243507D01*
X0261309Y0243471D01*
X0261389Y0243432D01*
X0261467Y0243389D01*
X0261543Y0243343D01*
X0261617Y0243293D01*
X0261689Y0243240D01*
X0261758Y0243184D01*
X0261825Y0243125D01*
X0261889Y0243063D01*
X0261950Y0242999D01*
X0262009Y0242931D01*
X0262064Y0242861D01*
X0262116Y0242789D01*
X0262165Y0242714D01*
X0262210Y0242638D01*
X0262252Y0242559D01*
X0262290Y0242479D01*
X0262325Y0242397D01*
X0262356Y0242313D01*
X0262384Y0242228D01*
X0262407Y0242142D01*
X0262427Y0242055D01*
X0262443Y0241968D01*
X0262455Y0241879D01*
X0262463Y0241791D01*
X0262467Y0241702D01*
X0262467Y0241612D01*
X0262463Y0241523D01*
X0262455Y0241435D01*
X0262443Y0241346D01*
X0262427Y0241259D01*
X0262407Y0241172D01*
X0262384Y0241086D01*
X0262356Y0241001D01*
X0262325Y0240917D01*
X0262290Y0240835D01*
X0262252Y0240755D01*
X0262210Y0240676D01*
X0262165Y0240600D01*
X0262116Y0240525D01*
X0262064Y0240453D01*
X0262009Y0240383D01*
X0261950Y0240315D01*
X0261889Y0240251D01*
X0261825Y0240189D01*
X0261758Y0240130D01*
X0261689Y0240074D01*
X0261617Y0240021D01*
X0261543Y0239971D01*
X0261467Y0239925D01*
X0261389Y0239882D01*
X0261309Y0239843D01*
X0261227Y0239807D01*
X0261144Y0239775D01*
X0261060Y0239747D01*
X0260974Y0239722D01*
X0260887Y0239702D01*
X0260800Y0239685D01*
X0260711Y0239672D01*
X0260623Y0239663D01*
X0260534Y0239658D01*
X0260445Y0239657D01*
X0260356Y0239660D01*
X0260267Y0239667D01*
X0260178Y0239678D01*
X0260090Y0239693D01*
X0260003Y0239711D01*
X0259917Y0239734D01*
X0259832Y0239760D01*
X0259748Y0239791D01*
X0259666Y0239825D01*
X0259585Y0239862D01*
X0259506Y0239903D01*
X0259429Y0239948D01*
X0259354Y0239996D01*
X0259281Y0240047D01*
X0259210Y0240101D01*
X0259142Y0240159D01*
X0259077Y0240219D01*
X0259014Y0240283D01*
X0258954Y0240349D01*
X0258897Y0240418D01*
X0258844Y0240489D01*
X0258793Y0240562D01*
X0258746Y0240638D01*
X0258703Y0240715D01*
X0258662Y0240795D01*
X0258626Y0240876D01*
X0258593Y0240959D01*
X0258564Y0241043D01*
X0258538Y0241129D01*
X0258516Y0241215D01*
X0258499Y0241302D01*
X0258485Y0241390D01*
X0258475Y0241479D01*
X0258469Y0241568D01*
X0258467Y0241657D01*
X0255265Y0251457D02*
X0254466Y0251457D01*
X0281265Y0251457D02*
X0281265Y0245158D01*
X0281265Y0238158D02*
X0281265Y0225457D01*
X0281265Y0218457D02*
X0281265Y0212158D01*
X0281265Y0211457D02*
X0281265Y0205158D01*
X0281265Y0198158D02*
X0281265Y0185457D01*
X0281265Y0178457D02*
X0281265Y0172158D01*
X0233967Y0145300D02*
X0221667Y0145300D01*
X0219167Y0142800D02*
X0219167Y0116800D01*
X0216667Y0114300D02*
X0221667Y0104300D01*
X0216667Y0104300D01*
X0219167Y0101800D02*
X0219167Y0097800D01*
X0221667Y0109300D02*
X0242667Y0109300D01*
X0242667Y0106800D01*
X0216667Y0109300D02*
X0195667Y0109300D01*
X0195667Y0106800D01*
X0204467Y0145300D02*
X0216667Y0145300D01*
D15*
X0241089Y0211531D02*
X0244159Y0211531D01*
X0242624Y0211531D02*
X0242624Y0216135D01*
X0241089Y0214600D01*
X0245693Y0213833D02*
X0247228Y0214600D01*
X0247995Y0214600D01*
X0248763Y0213833D01*
X0248763Y0212298D01*
X0247995Y0211531D01*
X0246461Y0211531D01*
X0245693Y0212298D01*
X0245693Y0213833D02*
X0245693Y0216135D01*
X0248763Y0216135D01*
X0242526Y0247000D02*
X0242526Y0251604D01*
X0240225Y0249302D01*
X0243294Y0249302D01*
X0238690Y0247000D02*
X0235621Y0247000D01*
X0237155Y0247000D02*
X0237155Y0251604D01*
X0235621Y0250069D01*
X0180245Y0250069D02*
X0180245Y0250837D01*
X0179478Y0251604D01*
X0177943Y0251604D01*
X0177176Y0250837D01*
X0180245Y0250069D02*
X0177176Y0247000D01*
X0180245Y0247000D01*
X0174179Y0215902D02*
X0174179Y0211298D01*
X0172645Y0211298D02*
X0175714Y0211298D01*
X0172645Y0214367D02*
X0174179Y0215902D01*
X0080332Y0222000D02*
X0077263Y0222000D01*
X0080332Y0225069D01*
X0080332Y0225837D01*
X0079565Y0226604D01*
X0078030Y0226604D01*
X0077263Y0225837D01*
X0075728Y0226604D02*
X0075728Y0222000D01*
X0074193Y0223535D01*
X0072659Y0222000D01*
X0072659Y0226604D01*
X0071124Y0225837D02*
X0070357Y0226604D01*
X0068822Y0226604D01*
X0068055Y0225837D01*
X0068055Y0225069D01*
X0068822Y0224302D01*
X0070357Y0224302D01*
X0071124Y0223535D01*
X0071124Y0222767D01*
X0070357Y0222000D01*
X0068822Y0222000D01*
X0068055Y0222767D01*
D16*
X0209167Y0255786D03*
D17*
X0032277Y0005776D02*
X0032277Y0002627D01*
X0073615Y0002627D01*
X0073615Y0005776D01*
X0032277Y0005776D01*
X0032277Y0030186D01*
X0073615Y0030186D01*
X0073615Y0005776D01*
X0097277Y0005776D02*
X0097277Y0002627D01*
X0138615Y0002627D01*
X0138615Y0005776D01*
X0097277Y0005776D01*
X0097277Y0030186D01*
X0138615Y0030186D01*
X0138615Y0005776D01*
X0162277Y0005776D02*
X0162277Y0002627D01*
X0203615Y0002627D01*
X0203615Y0005776D01*
X0162277Y0005776D01*
X0162277Y0030186D01*
X0203615Y0030186D01*
X0203615Y0005776D01*
X0227277Y0005776D02*
X0227277Y0002627D01*
X0268615Y0002627D01*
X0268615Y0005776D01*
X0227277Y0005776D01*
X0227277Y0030186D01*
X0268615Y0030186D01*
X0268615Y0005776D01*
X0276411Y0056288D02*
X0279560Y0056288D01*
X0276411Y0056288D02*
X0276411Y0058650D01*
X0276411Y0064950D02*
X0276411Y0067312D01*
X0279560Y0067312D01*
X0272316Y0067863D02*
X0266017Y0067863D01*
X0266017Y0067862D02*
X0265958Y0067876D01*
X0265900Y0067893D01*
X0265843Y0067914D01*
X0265787Y0067938D01*
X0265733Y0067966D01*
X0265681Y0067996D01*
X0265630Y0068030D01*
X0265582Y0068067D01*
X0265536Y0068106D01*
X0265493Y0068149D01*
X0265452Y0068193D01*
X0265414Y0068241D01*
X0265379Y0068290D01*
X0265347Y0068342D01*
X0265318Y0068395D01*
X0265292Y0068450D01*
X0265270Y0068506D01*
X0265251Y0068564D01*
X0265235Y0068623D01*
X0265224Y0068682D01*
X0265215Y0068742D01*
X0265211Y0068803D01*
X0265210Y0068863D01*
X0265213Y0068924D01*
X0265219Y0068984D01*
X0265229Y0069044D01*
X0265229Y0074556D02*
X0265219Y0074616D01*
X0265213Y0074676D01*
X0265210Y0074737D01*
X0265211Y0074797D01*
X0265215Y0074858D01*
X0265224Y0074918D01*
X0265235Y0074977D01*
X0265251Y0075036D01*
X0265270Y0075094D01*
X0265292Y0075150D01*
X0265318Y0075205D01*
X0265347Y0075258D01*
X0265379Y0075310D01*
X0265414Y0075359D01*
X0265452Y0075407D01*
X0265493Y0075451D01*
X0265536Y0075494D01*
X0265582Y0075533D01*
X0265630Y0075570D01*
X0265681Y0075604D01*
X0265733Y0075634D01*
X0265787Y0075662D01*
X0265843Y0075686D01*
X0265900Y0075707D01*
X0265958Y0075724D01*
X0266017Y0075738D01*
X0266017Y0075737D02*
X0272316Y0075737D01*
X0272316Y0075738D02*
X0272375Y0075724D01*
X0272433Y0075707D01*
X0272490Y0075686D01*
X0272546Y0075662D01*
X0272600Y0075634D01*
X0272652Y0075604D01*
X0272703Y0075570D01*
X0272751Y0075533D01*
X0272797Y0075494D01*
X0272840Y0075451D01*
X0272881Y0075407D01*
X0272919Y0075359D01*
X0272954Y0075310D01*
X0272986Y0075258D01*
X0273015Y0075205D01*
X0273041Y0075150D01*
X0273063Y0075094D01*
X0273082Y0075036D01*
X0273098Y0074977D01*
X0273109Y0074918D01*
X0273118Y0074858D01*
X0273122Y0074797D01*
X0273123Y0074737D01*
X0273120Y0074676D01*
X0273114Y0074616D01*
X0273104Y0074556D01*
X0273104Y0069044D02*
X0273114Y0068984D01*
X0273120Y0068924D01*
X0273123Y0068863D01*
X0273122Y0068803D01*
X0273118Y0068742D01*
X0273109Y0068682D01*
X0273098Y0068623D01*
X0273082Y0068564D01*
X0273063Y0068506D01*
X0273041Y0068450D01*
X0273015Y0068395D01*
X0272986Y0068342D01*
X0272954Y0068290D01*
X0272919Y0068241D01*
X0272881Y0068193D01*
X0272840Y0068149D01*
X0272797Y0068106D01*
X0272751Y0068067D01*
X0272703Y0068030D01*
X0272652Y0067996D01*
X0272600Y0067966D01*
X0272546Y0067938D01*
X0272490Y0067914D01*
X0272433Y0067893D01*
X0272375Y0067876D01*
X0272316Y0067862D01*
X0283222Y0099595D02*
X0257631Y0099595D01*
X0257631Y0163375D01*
X0283222Y0163375D01*
X0283222Y0099595D01*
X0287159Y0099595D01*
X0287159Y0163375D01*
X0283222Y0163375D01*
X0182068Y0090300D02*
X0182067Y0066700D01*
X0182068Y0090300D02*
X0156265Y0090300D01*
X0156267Y0066700D01*
X0045883Y0223611D02*
X0010450Y0223611D01*
X0010450Y0265737D01*
X0018718Y0265737D01*
X0037615Y0265737D02*
X0045883Y0265737D01*
X0045883Y0262981D01*
X0045883Y0244477D02*
X0045883Y0223611D01*
D18*
X0142946Y0254674D03*
X0157946Y0204674D03*
D19*
X0065167Y0168800D03*
D20*
X0061167Y0145300D02*
X0037167Y0145300D01*
X0036960Y0145297D01*
X0036753Y0145290D01*
X0036547Y0145277D01*
X0036340Y0145260D01*
X0036135Y0145237D01*
X0035929Y0145209D01*
X0035725Y0145177D01*
X0035521Y0145139D01*
X0035319Y0145097D01*
X0035117Y0145049D01*
X0034917Y0144997D01*
X0034718Y0144940D01*
X0034521Y0144878D01*
X0034325Y0144811D01*
X0034131Y0144739D01*
X0033938Y0144663D01*
X0033748Y0144582D01*
X0033559Y0144496D01*
X0033373Y0144406D01*
X0033189Y0144312D01*
X0033007Y0144212D01*
X0032828Y0144109D01*
X0032651Y0144001D01*
X0032477Y0143889D01*
X0032306Y0143773D01*
X0032137Y0143652D01*
X0031972Y0143528D01*
X0031810Y0143399D01*
X0031651Y0143267D01*
X0031495Y0143131D01*
X0031342Y0142991D01*
X0031193Y0142847D01*
X0031048Y0142700D01*
X0030906Y0142549D01*
X0030768Y0142395D01*
X0030633Y0142237D01*
X0030503Y0142077D01*
X0030377Y0141913D01*
X0030254Y0141746D01*
X0030136Y0141576D01*
X0030021Y0141403D01*
X0029911Y0141228D01*
X0029806Y0141050D01*
X0029704Y0140869D01*
X0029608Y0140687D01*
X0029515Y0140501D01*
X0029427Y0140314D01*
X0029344Y0140124D01*
X0029265Y0139933D01*
X0029191Y0139740D01*
X0029122Y0139544D01*
X0029058Y0139348D01*
X0028998Y0139150D01*
X0028943Y0138950D01*
X0028893Y0138749D01*
X0028848Y0138547D01*
X0028808Y0138344D01*
X0028773Y0138140D01*
X0028743Y0137935D01*
X0028718Y0137730D01*
X0028698Y0137524D01*
X0028683Y0137317D01*
X0028673Y0137110D01*
X0028668Y0136903D01*
X0028668Y0136697D01*
X0028673Y0136490D01*
X0028683Y0136283D01*
X0028698Y0136076D01*
X0028718Y0135870D01*
X0028743Y0135665D01*
X0028773Y0135460D01*
X0028808Y0135256D01*
X0028848Y0135053D01*
X0028893Y0134851D01*
X0028943Y0134650D01*
X0028998Y0134450D01*
X0029058Y0134252D01*
X0029122Y0134056D01*
X0029191Y0133860D01*
X0029265Y0133667D01*
X0029344Y0133476D01*
X0029427Y0133286D01*
X0029515Y0133099D01*
X0029608Y0132913D01*
X0029704Y0132731D01*
X0029806Y0132550D01*
X0029911Y0132372D01*
X0030021Y0132197D01*
X0030136Y0132024D01*
X0030254Y0131854D01*
X0030377Y0131687D01*
X0030503Y0131523D01*
X0030633Y0131363D01*
X0030768Y0131205D01*
X0030906Y0131051D01*
X0031048Y0130900D01*
X0031193Y0130753D01*
X0031342Y0130609D01*
X0031495Y0130469D01*
X0031651Y0130333D01*
X0031810Y0130201D01*
X0031972Y0130072D01*
X0032137Y0129948D01*
X0032306Y0129827D01*
X0032477Y0129711D01*
X0032651Y0129599D01*
X0032828Y0129491D01*
X0033007Y0129388D01*
X0033189Y0129288D01*
X0033373Y0129194D01*
X0033559Y0129104D01*
X0033748Y0129018D01*
X0033938Y0128937D01*
X0034131Y0128861D01*
X0034325Y0128789D01*
X0034521Y0128722D01*
X0034718Y0128660D01*
X0034917Y0128603D01*
X0035117Y0128551D01*
X0035319Y0128503D01*
X0035521Y0128461D01*
X0035725Y0128423D01*
X0035929Y0128391D01*
X0036135Y0128363D01*
X0036340Y0128340D01*
X0036547Y0128323D01*
X0036753Y0128310D01*
X0036960Y0128303D01*
X0037167Y0128300D01*
X0061167Y0128300D01*
X0061374Y0128303D01*
X0061581Y0128310D01*
X0061787Y0128323D01*
X0061994Y0128340D01*
X0062199Y0128363D01*
X0062405Y0128391D01*
X0062609Y0128423D01*
X0062813Y0128461D01*
X0063015Y0128503D01*
X0063217Y0128551D01*
X0063417Y0128603D01*
X0063616Y0128660D01*
X0063813Y0128722D01*
X0064009Y0128789D01*
X0064203Y0128861D01*
X0064396Y0128937D01*
X0064586Y0129018D01*
X0064775Y0129104D01*
X0064961Y0129194D01*
X0065145Y0129288D01*
X0065327Y0129388D01*
X0065506Y0129491D01*
X0065683Y0129599D01*
X0065857Y0129711D01*
X0066028Y0129827D01*
X0066197Y0129948D01*
X0066362Y0130072D01*
X0066524Y0130201D01*
X0066683Y0130333D01*
X0066839Y0130469D01*
X0066992Y0130609D01*
X0067141Y0130753D01*
X0067286Y0130900D01*
X0067428Y0131051D01*
X0067566Y0131205D01*
X0067701Y0131363D01*
X0067831Y0131523D01*
X0067957Y0131687D01*
X0068080Y0131854D01*
X0068198Y0132024D01*
X0068313Y0132197D01*
X0068423Y0132372D01*
X0068528Y0132550D01*
X0068630Y0132731D01*
X0068726Y0132913D01*
X0068819Y0133099D01*
X0068907Y0133286D01*
X0068990Y0133476D01*
X0069069Y0133667D01*
X0069143Y0133860D01*
X0069212Y0134056D01*
X0069276Y0134252D01*
X0069336Y0134450D01*
X0069391Y0134650D01*
X0069441Y0134851D01*
X0069486Y0135053D01*
X0069526Y0135256D01*
X0069561Y0135460D01*
X0069591Y0135665D01*
X0069616Y0135870D01*
X0069636Y0136076D01*
X0069651Y0136283D01*
X0069661Y0136490D01*
X0069666Y0136697D01*
X0069666Y0136903D01*
X0069661Y0137110D01*
X0069651Y0137317D01*
X0069636Y0137524D01*
X0069616Y0137730D01*
X0069591Y0137935D01*
X0069561Y0138140D01*
X0069526Y0138344D01*
X0069486Y0138547D01*
X0069441Y0138749D01*
X0069391Y0138950D01*
X0069336Y0139150D01*
X0069276Y0139348D01*
X0069212Y0139544D01*
X0069143Y0139740D01*
X0069069Y0139933D01*
X0068990Y0140124D01*
X0068907Y0140314D01*
X0068819Y0140501D01*
X0068726Y0140687D01*
X0068630Y0140869D01*
X0068528Y0141050D01*
X0068423Y0141228D01*
X0068313Y0141403D01*
X0068198Y0141576D01*
X0068080Y0141746D01*
X0067957Y0141913D01*
X0067831Y0142077D01*
X0067701Y0142237D01*
X0067566Y0142395D01*
X0067428Y0142549D01*
X0067286Y0142700D01*
X0067141Y0142847D01*
X0066992Y0142991D01*
X0066839Y0143131D01*
X0066683Y0143267D01*
X0066524Y0143399D01*
X0066362Y0143528D01*
X0066197Y0143652D01*
X0066028Y0143773D01*
X0065857Y0143889D01*
X0065683Y0144001D01*
X0065506Y0144109D01*
X0065327Y0144212D01*
X0065145Y0144312D01*
X0064961Y0144406D01*
X0064775Y0144496D01*
X0064586Y0144582D01*
X0064396Y0144663D01*
X0064203Y0144739D01*
X0064009Y0144811D01*
X0063813Y0144878D01*
X0063616Y0144940D01*
X0063417Y0144997D01*
X0063217Y0145049D01*
X0063015Y0145097D01*
X0062813Y0145139D01*
X0062609Y0145177D01*
X0062405Y0145209D01*
X0062199Y0145237D01*
X0061994Y0145260D01*
X0061787Y0145277D01*
X0061581Y0145290D01*
X0061374Y0145297D01*
X0061167Y0145300D01*
D21*
X0069757Y0239438D03*
X0069757Y0244162D03*
X0069757Y0249438D03*
X0069757Y0254162D03*
X0263576Y0094162D03*
X0263576Y0089438D03*
D22*
X0263576Y0091800D03*
X0069757Y0241800D03*
X0069757Y0251800D03*
D23*
X0169167Y0092200D03*
M02*
