G75*
%MOIN*%
%OFA0B0*%
%FSLAX25Y25*%
%IPPOS*%
%LPD*%
%AMOC8*
5,1,8,0,0,1.08239X$1,22.5*
%
%ADD10C,0.01000*%
%ADD11C,0.00900*%
%ADD12C,0.00500*%
%ADD13C,0.00600*%
%ADD14C,0.00300*%
%ADD15C,0.00800*%
%ADD16C,0.02174*%
%ADD17R,0.02800X0.01600*%
%ADD18C,0.00200*%
%ADD19R,0.01181X0.00591*%
%ADD20R,0.01181X0.01181*%
%ADD21R,0.00591X0.01181*%
%ADD22R,0.03400X0.03000*%
D10*
X0144018Y0190102D02*
X0144018Y0210102D01*
X0174018Y0210102D01*
X0174018Y0205102D01*
X0169018Y0205102D01*
X0169018Y0195102D01*
X0174018Y0195102D01*
X0174018Y0190102D01*
X0144018Y0190102D01*
X0230318Y0129902D02*
X0231518Y0128602D01*
X0234018Y0126102D01*
X0236518Y0097602D02*
X0231518Y0097602D01*
X0231518Y0092602D01*
X0231518Y0087602D01*
X0236518Y0087602D02*
X0236518Y0092602D01*
X0236518Y0097602D01*
D11*
X0243059Y0137884D02*
X0243743Y0137884D01*
X0244427Y0138568D01*
X0244427Y0141988D01*
X0241692Y0141988D02*
X0241692Y0139936D01*
X0242375Y0139252D01*
X0244427Y0139252D01*
X0239823Y0139252D02*
X0239823Y0141304D01*
X0239139Y0141988D01*
X0237772Y0141988D01*
X0237772Y0140620D02*
X0239823Y0140620D01*
X0239823Y0139252D02*
X0237772Y0139252D01*
X0237088Y0139936D01*
X0237772Y0140620D01*
X0235386Y0139252D02*
X0234018Y0139252D01*
X0234702Y0139252D02*
X0234702Y0143356D01*
X0234018Y0143356D01*
X0232150Y0141304D02*
X0232150Y0140620D01*
X0229414Y0140620D01*
X0229414Y0141304D02*
X0230098Y0141988D01*
X0231466Y0141988D01*
X0232150Y0141304D01*
X0231466Y0139252D02*
X0230098Y0139252D01*
X0229414Y0139936D01*
X0229414Y0141304D01*
X0227630Y0141988D02*
X0226946Y0141988D01*
X0225578Y0140620D01*
X0225578Y0139252D02*
X0225578Y0141988D01*
X0164481Y0201236D02*
X0164481Y0202604D01*
X0163797Y0203288D01*
X0162429Y0203288D01*
X0161745Y0202604D01*
X0161745Y0201236D01*
X0162429Y0200552D01*
X0163797Y0200552D01*
X0164481Y0201236D01*
X0160043Y0200552D02*
X0159360Y0201236D01*
X0159360Y0203972D01*
X0160043Y0203288D02*
X0158676Y0203288D01*
X0156807Y0202604D02*
X0156807Y0201236D01*
X0156123Y0200552D01*
X0154072Y0200552D01*
X0154072Y0199184D02*
X0154072Y0203288D01*
X0156123Y0203288D01*
X0156807Y0202604D01*
X0152203Y0202604D02*
X0152203Y0201236D01*
X0151520Y0200552D01*
X0150152Y0200552D01*
X0149468Y0201236D01*
X0149468Y0202604D01*
X0150152Y0203288D01*
X0151520Y0203288D01*
X0152203Y0202604D01*
X0095766Y0210052D02*
X0095082Y0210736D01*
X0095082Y0213472D01*
X0094398Y0212788D02*
X0095766Y0212788D01*
X0092530Y0212788D02*
X0090478Y0212788D01*
X0089795Y0212104D01*
X0090478Y0211420D01*
X0091846Y0211420D01*
X0092530Y0210736D01*
X0091846Y0210052D01*
X0089795Y0210052D01*
X0088010Y0212788D02*
X0087326Y0212788D01*
X0085958Y0211420D01*
X0085958Y0210052D02*
X0085958Y0212788D01*
X0084708Y0223552D02*
X0083340Y0223552D01*
X0082656Y0224236D01*
X0083340Y0225604D02*
X0082656Y0226288D01*
X0082656Y0226972D01*
X0083340Y0227656D01*
X0084708Y0227656D01*
X0085392Y0226972D01*
X0084708Y0225604D02*
X0085392Y0224920D01*
X0085392Y0224236D01*
X0084708Y0223552D01*
X0084708Y0225604D02*
X0083340Y0225604D01*
X0087260Y0227656D02*
X0087260Y0223552D01*
X0088628Y0224920D01*
X0089996Y0223552D01*
X0089996Y0227656D01*
X0091864Y0226972D02*
X0092548Y0227656D01*
X0093916Y0227656D01*
X0094600Y0226972D01*
X0094600Y0226288D01*
X0091864Y0223552D01*
X0094600Y0223552D01*
X0097923Y0261052D02*
X0099975Y0261052D01*
X0100659Y0261736D01*
X0099975Y0262420D01*
X0098607Y0262420D01*
X0097923Y0263104D01*
X0098607Y0263788D01*
X0100659Y0263788D01*
X0101384Y0265052D02*
X0101384Y0267788D01*
X0102751Y0267788D02*
X0101384Y0266420D01*
X0099515Y0266420D02*
X0096780Y0266420D01*
X0096780Y0267104D02*
X0097463Y0267788D01*
X0098831Y0267788D01*
X0099515Y0267104D01*
X0099515Y0266420D01*
X0098831Y0265052D02*
X0097463Y0265052D01*
X0096780Y0265736D01*
X0096780Y0267104D01*
X0094911Y0267788D02*
X0094911Y0265736D01*
X0094227Y0265052D01*
X0093543Y0265736D01*
X0092860Y0265052D01*
X0092176Y0265736D01*
X0092176Y0267788D01*
X0090307Y0267104D02*
X0089623Y0267788D01*
X0088256Y0267788D01*
X0087572Y0267104D01*
X0087572Y0265736D01*
X0088256Y0265052D01*
X0089623Y0265052D01*
X0090307Y0265736D01*
X0090307Y0267104D01*
X0085703Y0267104D02*
X0085703Y0265736D01*
X0085020Y0265052D01*
X0082968Y0265052D01*
X0082968Y0263684D02*
X0082968Y0267788D01*
X0085020Y0267788D01*
X0085703Y0267104D01*
X0102751Y0267788D02*
X0103435Y0267788D01*
X0107131Y0265156D02*
X0107131Y0261052D01*
X0107131Y0262420D02*
X0109183Y0263788D01*
X0107131Y0262420D02*
X0109183Y0261052D01*
X0105263Y0261052D02*
X0103211Y0261052D01*
X0102527Y0261736D01*
X0102527Y0263104D01*
X0103211Y0263788D01*
X0105263Y0263788D01*
X0139468Y0257604D02*
X0139468Y0256236D01*
X0140152Y0255552D01*
X0141520Y0255552D01*
X0142203Y0256236D01*
X0142203Y0257604D01*
X0141520Y0258288D01*
X0140152Y0258288D01*
X0139468Y0257604D01*
X0144072Y0258288D02*
X0144072Y0254184D01*
X0144072Y0255552D02*
X0146123Y0255552D01*
X0146807Y0256236D01*
X0146807Y0257604D01*
X0146123Y0258288D01*
X0144072Y0258288D01*
X0148676Y0258288D02*
X0150043Y0258288D01*
X0149360Y0258972D02*
X0149360Y0256236D01*
X0150043Y0255552D01*
X0151745Y0256236D02*
X0152429Y0255552D01*
X0153797Y0255552D01*
X0154481Y0256236D01*
X0154481Y0257604D01*
X0153797Y0258288D01*
X0152429Y0258288D01*
X0151745Y0257604D01*
X0151745Y0256236D01*
X0035317Y0215136D02*
X0035317Y0211032D01*
X0033265Y0211032D01*
X0032581Y0211716D01*
X0032581Y0213084D01*
X0033265Y0213768D01*
X0035317Y0213768D01*
X0030713Y0213768D02*
X0028661Y0213768D01*
X0027977Y0213084D01*
X0027977Y0211716D01*
X0028661Y0211032D01*
X0030713Y0211032D01*
X0026276Y0211032D02*
X0024908Y0211032D01*
X0025592Y0211032D02*
X0025592Y0215136D01*
X0024908Y0215136D01*
X0028272Y0234450D02*
X0028272Y0236501D01*
X0028956Y0237185D01*
X0030324Y0237185D01*
X0031008Y0236501D01*
X0031008Y0234450D01*
X0032376Y0234450D02*
X0028272Y0234450D01*
X0028956Y0239054D02*
X0030324Y0239054D01*
X0031008Y0239738D01*
X0031008Y0241105D01*
X0030324Y0241789D01*
X0028956Y0241789D01*
X0028272Y0241105D01*
X0028272Y0239738D01*
X0028956Y0239054D01*
X0028272Y0243658D02*
X0030324Y0243658D01*
X0031008Y0244341D01*
X0030324Y0245025D01*
X0031008Y0245709D01*
X0030324Y0246393D01*
X0028272Y0246393D01*
X0028956Y0248261D02*
X0028272Y0248945D01*
X0028272Y0250313D01*
X0028956Y0250997D01*
X0029640Y0250997D01*
X0029640Y0248261D01*
X0030324Y0248261D02*
X0028956Y0248261D01*
X0030324Y0248261D02*
X0031008Y0248945D01*
X0031008Y0250313D01*
X0031008Y0252865D02*
X0028272Y0252865D01*
X0029640Y0252865D02*
X0028272Y0254233D01*
X0028272Y0254917D01*
X0302934Y0095358D02*
X0307038Y0095358D01*
X0307038Y0097410D01*
X0306354Y0098094D01*
X0304986Y0098094D01*
X0304302Y0097410D01*
X0304302Y0095358D01*
X0302934Y0092973D02*
X0307038Y0092973D01*
X0307038Y0092289D02*
X0307038Y0093657D01*
X0307038Y0090421D02*
X0304302Y0090421D01*
X0302934Y0092289D02*
X0302934Y0092973D01*
X0307038Y0090421D02*
X0307038Y0088369D01*
X0306354Y0087685D01*
X0304302Y0087685D01*
X0304986Y0085817D02*
X0304302Y0085133D01*
X0304302Y0083081D01*
X0302934Y0083081D02*
X0307038Y0083081D01*
X0307038Y0085133D01*
X0306354Y0085817D01*
X0304986Y0085817D01*
D12*
X0287364Y0057661D02*
X0280671Y0057661D01*
X0280671Y0052543D01*
X0287364Y0052543D01*
X0287364Y0057661D01*
X0282837Y0057464D02*
X0282837Y0052740D01*
X0282443Y0052740D02*
X0282443Y0057464D01*
X0282837Y0057464D01*
X0272364Y0052661D02*
X0272364Y0047543D01*
X0265671Y0047543D01*
X0265671Y0052661D01*
X0272364Y0052661D01*
X0267837Y0052464D02*
X0267837Y0047740D01*
X0267443Y0047740D02*
X0267443Y0052464D01*
X0267837Y0052464D01*
X0279265Y0134510D02*
X0277764Y0136011D01*
X0282268Y0136011D01*
X0282268Y0134510D02*
X0282268Y0137512D01*
X0282268Y0154010D02*
X0279265Y0157012D01*
X0278515Y0157012D01*
X0277764Y0156261D01*
X0277764Y0154760D01*
X0278515Y0154010D01*
X0282268Y0154010D02*
X0282268Y0157012D01*
X0282268Y0174510D02*
X0282268Y0177512D01*
X0282268Y0176011D02*
X0277764Y0176011D01*
X0279265Y0174510D01*
X0278515Y0194010D02*
X0277764Y0194760D01*
X0277764Y0196261D01*
X0278515Y0197012D01*
X0279265Y0197012D01*
X0282268Y0194010D01*
X0282268Y0197012D01*
X0248971Y0195197D02*
X0248971Y0207008D01*
X0243065Y0207008D01*
X0243065Y0195197D01*
X0248971Y0195197D01*
X0247768Y0200352D02*
X0244268Y0200352D01*
X0244268Y0201852D02*
X0246018Y0200352D01*
X0247768Y0201852D01*
X0244268Y0201852D01*
X0230971Y0202008D02*
X0230971Y0190197D01*
X0225065Y0190197D01*
X0225065Y0202008D01*
X0230971Y0202008D01*
X0229768Y0196852D02*
X0226268Y0196852D01*
X0226268Y0195352D02*
X0228018Y0196852D01*
X0229768Y0195352D01*
X0226268Y0195352D01*
X0222971Y0198008D02*
X0222971Y0186197D01*
X0217065Y0186197D01*
X0217065Y0198008D01*
X0222971Y0198008D01*
X0221768Y0192852D02*
X0218268Y0192852D01*
X0218268Y0191352D02*
X0220018Y0192852D01*
X0221768Y0191352D01*
X0218268Y0191352D01*
X0225065Y0187508D02*
X0225065Y0175697D01*
X0230971Y0175697D01*
X0230971Y0187508D01*
X0225065Y0187508D01*
X0226268Y0182352D02*
X0229768Y0182352D01*
X0229768Y0180852D02*
X0228018Y0182352D01*
X0226268Y0180852D01*
X0229768Y0180852D01*
X0234268Y0180852D02*
X0236018Y0182352D01*
X0237768Y0180852D01*
X0234268Y0180852D01*
X0234268Y0182352D02*
X0237768Y0182352D01*
X0238971Y0187508D02*
X0233065Y0187508D01*
X0233065Y0175697D01*
X0238971Y0175697D01*
X0238971Y0187508D01*
X0241565Y0187508D02*
X0241565Y0175697D01*
X0247471Y0175697D01*
X0247471Y0187508D01*
X0241565Y0187508D01*
X0242768Y0182352D02*
X0246268Y0182352D01*
X0246268Y0180852D02*
X0242768Y0180852D01*
X0244518Y0182352D01*
X0246268Y0180852D01*
X0181971Y0239197D02*
X0176065Y0239197D01*
X0176065Y0251008D01*
X0181971Y0251008D01*
X0181971Y0239197D01*
X0180768Y0244352D02*
X0177268Y0244352D01*
X0179018Y0245852D01*
X0180768Y0244352D01*
X0180768Y0245852D02*
X0177268Y0245852D01*
X0176065Y0254197D02*
X0176065Y0266008D01*
X0181971Y0266008D01*
X0181971Y0254197D01*
X0176065Y0254197D01*
X0177268Y0259352D02*
X0179018Y0260852D01*
X0180768Y0259352D01*
X0177268Y0259352D01*
X0177268Y0260852D02*
X0180768Y0260852D01*
X0100368Y0220102D02*
X0100368Y0214402D01*
X0096518Y0214402D01*
X0076768Y0230102D02*
X0076768Y0238052D01*
X0076767Y0238052D01*
X0076768Y0238052D02*
X0082868Y0238052D01*
X0132018Y0130102D02*
X0137018Y0130102D01*
X0139018Y0128102D01*
X0141018Y0130102D01*
X0147018Y0130102D01*
X0149018Y0128102D01*
X0151018Y0130102D01*
X0156018Y0130102D01*
X0159018Y0127102D01*
X0159018Y0113102D01*
X0156018Y0110102D01*
X0151018Y0110102D01*
X0149018Y0112102D01*
X0147018Y0110102D01*
X0141018Y0110102D01*
X0139018Y0112102D01*
X0137018Y0110102D01*
X0132018Y0110102D01*
X0129018Y0113102D01*
X0129018Y0127102D01*
X0132018Y0130102D01*
D13*
X0131518Y0135102D02*
X0129018Y0137602D01*
X0126518Y0135102D01*
X0121518Y0135102D01*
X0119018Y0137602D01*
X0116518Y0135102D01*
X0111518Y0135102D01*
X0109018Y0137602D01*
X0106518Y0135102D01*
X0101518Y0135102D01*
X0099018Y0137602D01*
X0099018Y0142602D01*
X0101518Y0145102D01*
X0106518Y0145102D01*
X0109018Y0142602D01*
X0111518Y0145102D01*
X0116518Y0145102D01*
X0119018Y0142602D01*
X0121518Y0145102D01*
X0126518Y0145102D01*
X0129018Y0142602D01*
X0131518Y0145102D01*
X0136518Y0145102D01*
X0139018Y0142602D01*
X0141518Y0145102D01*
X0146518Y0145102D01*
X0149018Y0142602D01*
X0151518Y0145102D01*
X0156518Y0145102D01*
X0159018Y0142602D01*
X0159018Y0137602D01*
X0156518Y0135102D01*
X0151518Y0135102D01*
X0149018Y0137602D01*
X0146518Y0135102D01*
X0141518Y0135102D01*
X0139018Y0137602D01*
X0136518Y0135102D01*
X0131518Y0135102D01*
X0101419Y0098901D02*
X0102817Y0097504D01*
X0102817Y0071303D01*
X0075219Y0071303D01*
X0075219Y0098901D01*
X0101419Y0098901D01*
X0098404Y0095902D02*
X0098406Y0095977D01*
X0098412Y0096051D01*
X0098422Y0096125D01*
X0098435Y0096198D01*
X0098453Y0096271D01*
X0098474Y0096342D01*
X0098499Y0096413D01*
X0098528Y0096482D01*
X0098561Y0096549D01*
X0098597Y0096614D01*
X0098636Y0096678D01*
X0098678Y0096739D01*
X0098724Y0096798D01*
X0098773Y0096855D01*
X0098825Y0096908D01*
X0098879Y0096959D01*
X0098936Y0097008D01*
X0098996Y0097052D01*
X0099058Y0097094D01*
X0099122Y0097133D01*
X0099188Y0097168D01*
X0099255Y0097199D01*
X0099325Y0097227D01*
X0099395Y0097251D01*
X0099467Y0097272D01*
X0099540Y0097288D01*
X0099613Y0097301D01*
X0099688Y0097310D01*
X0099762Y0097315D01*
X0099837Y0097316D01*
X0099911Y0097313D01*
X0099986Y0097306D01*
X0100059Y0097295D01*
X0100133Y0097281D01*
X0100205Y0097262D01*
X0100276Y0097240D01*
X0100346Y0097214D01*
X0100415Y0097184D01*
X0100481Y0097151D01*
X0100546Y0097114D01*
X0100609Y0097074D01*
X0100670Y0097030D01*
X0100728Y0096984D01*
X0100784Y0096934D01*
X0100837Y0096882D01*
X0100888Y0096827D01*
X0100935Y0096769D01*
X0100979Y0096709D01*
X0101020Y0096646D01*
X0101058Y0096582D01*
X0101092Y0096516D01*
X0101123Y0096447D01*
X0101150Y0096378D01*
X0101173Y0096307D01*
X0101192Y0096235D01*
X0101208Y0096162D01*
X0101220Y0096088D01*
X0101228Y0096014D01*
X0101232Y0095939D01*
X0101232Y0095865D01*
X0101228Y0095790D01*
X0101220Y0095716D01*
X0101208Y0095642D01*
X0101192Y0095569D01*
X0101173Y0095497D01*
X0101150Y0095426D01*
X0101123Y0095357D01*
X0101092Y0095288D01*
X0101058Y0095222D01*
X0101020Y0095158D01*
X0100979Y0095095D01*
X0100935Y0095035D01*
X0100888Y0094977D01*
X0100837Y0094922D01*
X0100784Y0094870D01*
X0100728Y0094820D01*
X0100670Y0094774D01*
X0100609Y0094730D01*
X0100546Y0094690D01*
X0100481Y0094653D01*
X0100415Y0094620D01*
X0100346Y0094590D01*
X0100276Y0094564D01*
X0100205Y0094542D01*
X0100133Y0094523D01*
X0100059Y0094509D01*
X0099986Y0094498D01*
X0099911Y0094491D01*
X0099837Y0094488D01*
X0099762Y0094489D01*
X0099688Y0094494D01*
X0099613Y0094503D01*
X0099540Y0094516D01*
X0099467Y0094532D01*
X0099395Y0094553D01*
X0099325Y0094577D01*
X0099255Y0094605D01*
X0099188Y0094636D01*
X0099122Y0094671D01*
X0099058Y0094710D01*
X0098996Y0094752D01*
X0098936Y0094796D01*
X0098879Y0094845D01*
X0098825Y0094896D01*
X0098773Y0094949D01*
X0098724Y0095006D01*
X0098678Y0095065D01*
X0098636Y0095126D01*
X0098597Y0095190D01*
X0098561Y0095255D01*
X0098528Y0095322D01*
X0098499Y0095391D01*
X0098474Y0095462D01*
X0098453Y0095533D01*
X0098435Y0095606D01*
X0098422Y0095679D01*
X0098412Y0095753D01*
X0098406Y0095827D01*
X0098404Y0095902D01*
X0068518Y0118602D02*
X0068518Y0161602D01*
X0068516Y0161662D01*
X0068511Y0161723D01*
X0068502Y0161782D01*
X0068489Y0161841D01*
X0068473Y0161900D01*
X0068453Y0161957D01*
X0068430Y0162012D01*
X0068403Y0162067D01*
X0068374Y0162119D01*
X0068341Y0162170D01*
X0068305Y0162219D01*
X0068267Y0162265D01*
X0068225Y0162309D01*
X0068181Y0162351D01*
X0068135Y0162389D01*
X0068086Y0162425D01*
X0068035Y0162458D01*
X0067983Y0162487D01*
X0067928Y0162514D01*
X0067873Y0162537D01*
X0067816Y0162557D01*
X0067757Y0162573D01*
X0067698Y0162586D01*
X0067639Y0162595D01*
X0067578Y0162600D01*
X0067518Y0162602D01*
X0063518Y0162602D01*
X0054518Y0162602D02*
X0050518Y0162602D01*
X0050458Y0162600D01*
X0050397Y0162595D01*
X0050338Y0162586D01*
X0050279Y0162573D01*
X0050220Y0162557D01*
X0050163Y0162537D01*
X0050108Y0162514D01*
X0050053Y0162487D01*
X0050001Y0162458D01*
X0049950Y0162425D01*
X0049901Y0162389D01*
X0049855Y0162351D01*
X0049811Y0162309D01*
X0049769Y0162265D01*
X0049731Y0162219D01*
X0049695Y0162170D01*
X0049662Y0162119D01*
X0049633Y0162067D01*
X0049606Y0162012D01*
X0049583Y0161957D01*
X0049563Y0161900D01*
X0049547Y0161841D01*
X0049534Y0161782D01*
X0049525Y0161723D01*
X0049520Y0161662D01*
X0049518Y0161602D01*
X0049518Y0118602D01*
X0049520Y0118542D01*
X0049525Y0118481D01*
X0049534Y0118422D01*
X0049547Y0118363D01*
X0049563Y0118304D01*
X0049583Y0118247D01*
X0049606Y0118192D01*
X0049633Y0118137D01*
X0049662Y0118085D01*
X0049695Y0118034D01*
X0049731Y0117985D01*
X0049769Y0117939D01*
X0049811Y0117895D01*
X0049855Y0117853D01*
X0049901Y0117815D01*
X0049950Y0117779D01*
X0050001Y0117746D01*
X0050053Y0117717D01*
X0050108Y0117690D01*
X0050163Y0117667D01*
X0050220Y0117647D01*
X0050279Y0117631D01*
X0050338Y0117618D01*
X0050397Y0117609D01*
X0050458Y0117604D01*
X0050518Y0117602D01*
X0054518Y0117602D01*
X0063518Y0117602D02*
X0067518Y0117602D01*
X0067578Y0117604D01*
X0067639Y0117609D01*
X0067698Y0117618D01*
X0067757Y0117631D01*
X0067816Y0117647D01*
X0067873Y0117667D01*
X0067928Y0117690D01*
X0067983Y0117717D01*
X0068035Y0117746D01*
X0068086Y0117779D01*
X0068135Y0117815D01*
X0068181Y0117853D01*
X0068225Y0117895D01*
X0068267Y0117939D01*
X0068305Y0117985D01*
X0068341Y0118034D01*
X0068374Y0118085D01*
X0068403Y0118137D01*
X0068430Y0118192D01*
X0068453Y0118247D01*
X0068473Y0118304D01*
X0068489Y0118363D01*
X0068502Y0118422D01*
X0068511Y0118481D01*
X0068516Y0118542D01*
X0068518Y0118602D01*
X0061518Y0137602D02*
X0059018Y0137602D01*
X0056518Y0137602D01*
X0056518Y0139102D02*
X0056518Y0141102D01*
X0061518Y0141102D01*
X0061518Y0139102D01*
X0056518Y0139102D01*
X0056518Y0142602D02*
X0059018Y0142602D01*
X0061518Y0142602D01*
X0034018Y0141102D02*
X0034018Y0149102D01*
X0033018Y0150102D01*
X0034018Y0151102D01*
X0034018Y0159102D01*
X0033018Y0160102D01*
X0034018Y0161102D01*
X0034018Y0169102D01*
X0033018Y0170102D01*
X0034018Y0171102D01*
X0034018Y0179102D01*
X0033018Y0180102D01*
X0034018Y0181102D01*
X0034018Y0189102D01*
X0033018Y0190102D01*
X0034018Y0191102D01*
X0034018Y0199102D01*
X0033018Y0200102D01*
X0034018Y0201102D01*
X0034018Y0210102D01*
X0024018Y0210102D01*
X0024018Y0201102D01*
X0025018Y0200102D01*
X0024018Y0199102D01*
X0024018Y0191102D01*
X0025018Y0190102D01*
X0024018Y0189102D01*
X0024018Y0181102D01*
X0025018Y0180102D01*
X0024018Y0179102D01*
X0024018Y0171102D01*
X0025018Y0170102D01*
X0024018Y0169102D01*
X0024018Y0161102D01*
X0025018Y0160102D01*
X0024018Y0159102D01*
X0024018Y0151102D01*
X0025018Y0150102D01*
X0024018Y0149102D01*
X0024018Y0141102D01*
X0025018Y0140102D01*
X0024018Y0139102D01*
X0024018Y0130102D01*
X0034018Y0130102D01*
X0034018Y0121102D01*
X0033018Y0120102D01*
X0034018Y0119102D01*
X0034018Y0111102D01*
X0033018Y0110102D01*
X0034018Y0109102D01*
X0034018Y0101102D01*
X0033018Y0100102D01*
X0034018Y0099102D01*
X0034018Y0091102D01*
X0033018Y0090102D01*
X0034018Y0089102D01*
X0034018Y0081102D01*
X0033018Y0080102D01*
X0034018Y0079102D01*
X0034018Y0071102D01*
X0033018Y0070102D01*
X0034018Y0069102D01*
X0034018Y0061102D01*
X0033018Y0060102D01*
X0034018Y0059102D01*
X0034018Y0050102D01*
X0024018Y0050102D01*
X0024018Y0059102D01*
X0025018Y0060102D01*
X0024018Y0061102D01*
X0024018Y0069102D01*
X0025018Y0070102D01*
X0024018Y0071102D01*
X0024018Y0079102D01*
X0025018Y0080102D01*
X0024018Y0081102D01*
X0024018Y0089102D01*
X0025018Y0090102D01*
X0024018Y0091102D01*
X0024018Y0099102D01*
X0025018Y0100102D01*
X0024018Y0101102D01*
X0024018Y0109102D01*
X0025018Y0110102D01*
X0024018Y0111102D01*
X0024018Y0119102D01*
X0025018Y0120102D01*
X0024018Y0121102D01*
X0024018Y0130102D01*
X0034018Y0130102D01*
X0034018Y0139102D01*
X0033018Y0140102D01*
X0034018Y0141102D01*
X0141852Y0187582D02*
X0176282Y0187582D01*
X0176282Y0212622D01*
X0141852Y0212622D01*
X0141852Y0210590D01*
X0175888Y0210590D01*
X0161282Y0237582D02*
X0161282Y0262622D01*
X0126852Y0262622D01*
X0126852Y0260590D01*
X0160888Y0260590D01*
X0161282Y0237582D02*
X0126852Y0237582D01*
X0126852Y0260590D01*
X0141852Y0210590D02*
X0141852Y0187582D01*
X0201518Y0151602D02*
X0266518Y0151602D01*
X0266518Y0062602D01*
X0201518Y0062602D01*
X0201518Y0151602D01*
X0219318Y0128602D02*
X0231518Y0128602D01*
X0234018Y0126102D02*
X0234018Y0100102D01*
X0231518Y0097602D02*
X0236518Y0087602D01*
X0231518Y0087602D01*
X0234018Y0085102D02*
X0234018Y0081102D01*
X0236518Y0092602D02*
X0257518Y0092602D01*
X0257518Y0090102D01*
X0231518Y0092602D02*
X0210518Y0092602D01*
X0210518Y0090102D01*
X0236518Y0128602D02*
X0248818Y0128602D01*
X0270317Y0132460D02*
X0271116Y0132460D01*
X0271116Y0171760D01*
X0297116Y0171760D01*
X0306518Y0171760D01*
X0306518Y0132460D01*
X0297116Y0132460D01*
X0271116Y0132460D01*
X0270317Y0132460D02*
X0270317Y0171760D01*
X0271116Y0171760D01*
X0271116Y0172460D02*
X0270317Y0172460D01*
X0270317Y0211760D01*
X0271116Y0211760D01*
X0297116Y0211760D01*
X0306518Y0211760D01*
X0306518Y0172460D01*
X0297116Y0172460D01*
X0271116Y0172460D01*
X0271116Y0211760D01*
X0274318Y0201960D02*
X0274320Y0202049D01*
X0274326Y0202138D01*
X0274336Y0202227D01*
X0274350Y0202315D01*
X0274367Y0202402D01*
X0274389Y0202488D01*
X0274415Y0202574D01*
X0274444Y0202658D01*
X0274477Y0202741D01*
X0274513Y0202822D01*
X0274554Y0202902D01*
X0274597Y0202979D01*
X0274644Y0203055D01*
X0274695Y0203128D01*
X0274748Y0203199D01*
X0274805Y0203268D01*
X0274865Y0203334D01*
X0274928Y0203398D01*
X0274993Y0203458D01*
X0275061Y0203516D01*
X0275132Y0203570D01*
X0275205Y0203621D01*
X0275280Y0203669D01*
X0275357Y0203714D01*
X0275436Y0203755D01*
X0275517Y0203792D01*
X0275599Y0203826D01*
X0275683Y0203857D01*
X0275768Y0203883D01*
X0275854Y0203906D01*
X0275941Y0203924D01*
X0276029Y0203939D01*
X0276118Y0203950D01*
X0276207Y0203957D01*
X0276296Y0203960D01*
X0276385Y0203959D01*
X0276474Y0203954D01*
X0276562Y0203945D01*
X0276651Y0203932D01*
X0276738Y0203915D01*
X0276825Y0203895D01*
X0276911Y0203870D01*
X0276995Y0203842D01*
X0277078Y0203810D01*
X0277160Y0203774D01*
X0277240Y0203735D01*
X0277318Y0203692D01*
X0277394Y0203646D01*
X0277468Y0203596D01*
X0277540Y0203543D01*
X0277609Y0203487D01*
X0277676Y0203428D01*
X0277740Y0203366D01*
X0277801Y0203302D01*
X0277860Y0203234D01*
X0277915Y0203164D01*
X0277967Y0203092D01*
X0278016Y0203017D01*
X0278061Y0202941D01*
X0278103Y0202862D01*
X0278141Y0202782D01*
X0278176Y0202700D01*
X0278207Y0202616D01*
X0278235Y0202531D01*
X0278258Y0202445D01*
X0278278Y0202358D01*
X0278294Y0202271D01*
X0278306Y0202182D01*
X0278314Y0202094D01*
X0278318Y0202005D01*
X0278318Y0201915D01*
X0278314Y0201826D01*
X0278306Y0201738D01*
X0278294Y0201649D01*
X0278278Y0201562D01*
X0278258Y0201475D01*
X0278235Y0201389D01*
X0278207Y0201304D01*
X0278176Y0201220D01*
X0278141Y0201138D01*
X0278103Y0201058D01*
X0278061Y0200979D01*
X0278016Y0200903D01*
X0277967Y0200828D01*
X0277915Y0200756D01*
X0277860Y0200686D01*
X0277801Y0200618D01*
X0277740Y0200554D01*
X0277676Y0200492D01*
X0277609Y0200433D01*
X0277540Y0200377D01*
X0277468Y0200324D01*
X0277394Y0200274D01*
X0277318Y0200228D01*
X0277240Y0200185D01*
X0277160Y0200146D01*
X0277078Y0200110D01*
X0276995Y0200078D01*
X0276911Y0200050D01*
X0276825Y0200025D01*
X0276738Y0200005D01*
X0276651Y0199988D01*
X0276562Y0199975D01*
X0276474Y0199966D01*
X0276385Y0199961D01*
X0276296Y0199960D01*
X0276207Y0199963D01*
X0276118Y0199970D01*
X0276029Y0199981D01*
X0275941Y0199996D01*
X0275854Y0200014D01*
X0275768Y0200037D01*
X0275683Y0200063D01*
X0275599Y0200094D01*
X0275517Y0200128D01*
X0275436Y0200165D01*
X0275357Y0200206D01*
X0275280Y0200251D01*
X0275205Y0200299D01*
X0275132Y0200350D01*
X0275061Y0200404D01*
X0274993Y0200462D01*
X0274928Y0200522D01*
X0274865Y0200586D01*
X0274805Y0200652D01*
X0274748Y0200721D01*
X0274695Y0200792D01*
X0274644Y0200865D01*
X0274597Y0200941D01*
X0274554Y0201018D01*
X0274513Y0201098D01*
X0274477Y0201179D01*
X0274444Y0201262D01*
X0274415Y0201346D01*
X0274389Y0201432D01*
X0274367Y0201518D01*
X0274350Y0201605D01*
X0274336Y0201693D01*
X0274326Y0201782D01*
X0274320Y0201871D01*
X0274318Y0201960D01*
X0274318Y0182260D02*
X0274320Y0182349D01*
X0274326Y0182438D01*
X0274336Y0182527D01*
X0274350Y0182615D01*
X0274367Y0182702D01*
X0274389Y0182788D01*
X0274415Y0182874D01*
X0274444Y0182958D01*
X0274477Y0183041D01*
X0274513Y0183122D01*
X0274554Y0183202D01*
X0274597Y0183279D01*
X0274644Y0183355D01*
X0274695Y0183428D01*
X0274748Y0183499D01*
X0274805Y0183568D01*
X0274865Y0183634D01*
X0274928Y0183698D01*
X0274993Y0183758D01*
X0275061Y0183816D01*
X0275132Y0183870D01*
X0275205Y0183921D01*
X0275280Y0183969D01*
X0275357Y0184014D01*
X0275436Y0184055D01*
X0275517Y0184092D01*
X0275599Y0184126D01*
X0275683Y0184157D01*
X0275768Y0184183D01*
X0275854Y0184206D01*
X0275941Y0184224D01*
X0276029Y0184239D01*
X0276118Y0184250D01*
X0276207Y0184257D01*
X0276296Y0184260D01*
X0276385Y0184259D01*
X0276474Y0184254D01*
X0276562Y0184245D01*
X0276651Y0184232D01*
X0276738Y0184215D01*
X0276825Y0184195D01*
X0276911Y0184170D01*
X0276995Y0184142D01*
X0277078Y0184110D01*
X0277160Y0184074D01*
X0277240Y0184035D01*
X0277318Y0183992D01*
X0277394Y0183946D01*
X0277468Y0183896D01*
X0277540Y0183843D01*
X0277609Y0183787D01*
X0277676Y0183728D01*
X0277740Y0183666D01*
X0277801Y0183602D01*
X0277860Y0183534D01*
X0277915Y0183464D01*
X0277967Y0183392D01*
X0278016Y0183317D01*
X0278061Y0183241D01*
X0278103Y0183162D01*
X0278141Y0183082D01*
X0278176Y0183000D01*
X0278207Y0182916D01*
X0278235Y0182831D01*
X0278258Y0182745D01*
X0278278Y0182658D01*
X0278294Y0182571D01*
X0278306Y0182482D01*
X0278314Y0182394D01*
X0278318Y0182305D01*
X0278318Y0182215D01*
X0278314Y0182126D01*
X0278306Y0182038D01*
X0278294Y0181949D01*
X0278278Y0181862D01*
X0278258Y0181775D01*
X0278235Y0181689D01*
X0278207Y0181604D01*
X0278176Y0181520D01*
X0278141Y0181438D01*
X0278103Y0181358D01*
X0278061Y0181279D01*
X0278016Y0181203D01*
X0277967Y0181128D01*
X0277915Y0181056D01*
X0277860Y0180986D01*
X0277801Y0180918D01*
X0277740Y0180854D01*
X0277676Y0180792D01*
X0277609Y0180733D01*
X0277540Y0180677D01*
X0277468Y0180624D01*
X0277394Y0180574D01*
X0277318Y0180528D01*
X0277240Y0180485D01*
X0277160Y0180446D01*
X0277078Y0180410D01*
X0276995Y0180378D01*
X0276911Y0180350D01*
X0276825Y0180325D01*
X0276738Y0180305D01*
X0276651Y0180288D01*
X0276562Y0180275D01*
X0276474Y0180266D01*
X0276385Y0180261D01*
X0276296Y0180260D01*
X0276207Y0180263D01*
X0276118Y0180270D01*
X0276029Y0180281D01*
X0275941Y0180296D01*
X0275854Y0180314D01*
X0275768Y0180337D01*
X0275683Y0180363D01*
X0275599Y0180394D01*
X0275517Y0180428D01*
X0275436Y0180465D01*
X0275357Y0180506D01*
X0275280Y0180551D01*
X0275205Y0180599D01*
X0275132Y0180650D01*
X0275061Y0180704D01*
X0274993Y0180762D01*
X0274928Y0180822D01*
X0274865Y0180886D01*
X0274805Y0180952D01*
X0274748Y0181021D01*
X0274695Y0181092D01*
X0274644Y0181165D01*
X0274597Y0181241D01*
X0274554Y0181318D01*
X0274513Y0181398D01*
X0274477Y0181479D01*
X0274444Y0181562D01*
X0274415Y0181646D01*
X0274389Y0181732D01*
X0274367Y0181818D01*
X0274350Y0181905D01*
X0274336Y0181993D01*
X0274326Y0182082D01*
X0274320Y0182171D01*
X0274318Y0182260D01*
X0274318Y0161960D02*
X0274320Y0162049D01*
X0274326Y0162138D01*
X0274336Y0162227D01*
X0274350Y0162315D01*
X0274367Y0162402D01*
X0274389Y0162488D01*
X0274415Y0162574D01*
X0274444Y0162658D01*
X0274477Y0162741D01*
X0274513Y0162822D01*
X0274554Y0162902D01*
X0274597Y0162979D01*
X0274644Y0163055D01*
X0274695Y0163128D01*
X0274748Y0163199D01*
X0274805Y0163268D01*
X0274865Y0163334D01*
X0274928Y0163398D01*
X0274993Y0163458D01*
X0275061Y0163516D01*
X0275132Y0163570D01*
X0275205Y0163621D01*
X0275280Y0163669D01*
X0275357Y0163714D01*
X0275436Y0163755D01*
X0275517Y0163792D01*
X0275599Y0163826D01*
X0275683Y0163857D01*
X0275768Y0163883D01*
X0275854Y0163906D01*
X0275941Y0163924D01*
X0276029Y0163939D01*
X0276118Y0163950D01*
X0276207Y0163957D01*
X0276296Y0163960D01*
X0276385Y0163959D01*
X0276474Y0163954D01*
X0276562Y0163945D01*
X0276651Y0163932D01*
X0276738Y0163915D01*
X0276825Y0163895D01*
X0276911Y0163870D01*
X0276995Y0163842D01*
X0277078Y0163810D01*
X0277160Y0163774D01*
X0277240Y0163735D01*
X0277318Y0163692D01*
X0277394Y0163646D01*
X0277468Y0163596D01*
X0277540Y0163543D01*
X0277609Y0163487D01*
X0277676Y0163428D01*
X0277740Y0163366D01*
X0277801Y0163302D01*
X0277860Y0163234D01*
X0277915Y0163164D01*
X0277967Y0163092D01*
X0278016Y0163017D01*
X0278061Y0162941D01*
X0278103Y0162862D01*
X0278141Y0162782D01*
X0278176Y0162700D01*
X0278207Y0162616D01*
X0278235Y0162531D01*
X0278258Y0162445D01*
X0278278Y0162358D01*
X0278294Y0162271D01*
X0278306Y0162182D01*
X0278314Y0162094D01*
X0278318Y0162005D01*
X0278318Y0161915D01*
X0278314Y0161826D01*
X0278306Y0161738D01*
X0278294Y0161649D01*
X0278278Y0161562D01*
X0278258Y0161475D01*
X0278235Y0161389D01*
X0278207Y0161304D01*
X0278176Y0161220D01*
X0278141Y0161138D01*
X0278103Y0161058D01*
X0278061Y0160979D01*
X0278016Y0160903D01*
X0277967Y0160828D01*
X0277915Y0160756D01*
X0277860Y0160686D01*
X0277801Y0160618D01*
X0277740Y0160554D01*
X0277676Y0160492D01*
X0277609Y0160433D01*
X0277540Y0160377D01*
X0277468Y0160324D01*
X0277394Y0160274D01*
X0277318Y0160228D01*
X0277240Y0160185D01*
X0277160Y0160146D01*
X0277078Y0160110D01*
X0276995Y0160078D01*
X0276911Y0160050D01*
X0276825Y0160025D01*
X0276738Y0160005D01*
X0276651Y0159988D01*
X0276562Y0159975D01*
X0276474Y0159966D01*
X0276385Y0159961D01*
X0276296Y0159960D01*
X0276207Y0159963D01*
X0276118Y0159970D01*
X0276029Y0159981D01*
X0275941Y0159996D01*
X0275854Y0160014D01*
X0275768Y0160037D01*
X0275683Y0160063D01*
X0275599Y0160094D01*
X0275517Y0160128D01*
X0275436Y0160165D01*
X0275357Y0160206D01*
X0275280Y0160251D01*
X0275205Y0160299D01*
X0275132Y0160350D01*
X0275061Y0160404D01*
X0274993Y0160462D01*
X0274928Y0160522D01*
X0274865Y0160586D01*
X0274805Y0160652D01*
X0274748Y0160721D01*
X0274695Y0160792D01*
X0274644Y0160865D01*
X0274597Y0160941D01*
X0274554Y0161018D01*
X0274513Y0161098D01*
X0274477Y0161179D01*
X0274444Y0161262D01*
X0274415Y0161346D01*
X0274389Y0161432D01*
X0274367Y0161518D01*
X0274350Y0161605D01*
X0274336Y0161693D01*
X0274326Y0161782D01*
X0274320Y0161871D01*
X0274318Y0161960D01*
X0274318Y0142260D02*
X0274320Y0142349D01*
X0274326Y0142438D01*
X0274336Y0142527D01*
X0274350Y0142615D01*
X0274367Y0142702D01*
X0274389Y0142788D01*
X0274415Y0142874D01*
X0274444Y0142958D01*
X0274477Y0143041D01*
X0274513Y0143122D01*
X0274554Y0143202D01*
X0274597Y0143279D01*
X0274644Y0143355D01*
X0274695Y0143428D01*
X0274748Y0143499D01*
X0274805Y0143568D01*
X0274865Y0143634D01*
X0274928Y0143698D01*
X0274993Y0143758D01*
X0275061Y0143816D01*
X0275132Y0143870D01*
X0275205Y0143921D01*
X0275280Y0143969D01*
X0275357Y0144014D01*
X0275436Y0144055D01*
X0275517Y0144092D01*
X0275599Y0144126D01*
X0275683Y0144157D01*
X0275768Y0144183D01*
X0275854Y0144206D01*
X0275941Y0144224D01*
X0276029Y0144239D01*
X0276118Y0144250D01*
X0276207Y0144257D01*
X0276296Y0144260D01*
X0276385Y0144259D01*
X0276474Y0144254D01*
X0276562Y0144245D01*
X0276651Y0144232D01*
X0276738Y0144215D01*
X0276825Y0144195D01*
X0276911Y0144170D01*
X0276995Y0144142D01*
X0277078Y0144110D01*
X0277160Y0144074D01*
X0277240Y0144035D01*
X0277318Y0143992D01*
X0277394Y0143946D01*
X0277468Y0143896D01*
X0277540Y0143843D01*
X0277609Y0143787D01*
X0277676Y0143728D01*
X0277740Y0143666D01*
X0277801Y0143602D01*
X0277860Y0143534D01*
X0277915Y0143464D01*
X0277967Y0143392D01*
X0278016Y0143317D01*
X0278061Y0143241D01*
X0278103Y0143162D01*
X0278141Y0143082D01*
X0278176Y0143000D01*
X0278207Y0142916D01*
X0278235Y0142831D01*
X0278258Y0142745D01*
X0278278Y0142658D01*
X0278294Y0142571D01*
X0278306Y0142482D01*
X0278314Y0142394D01*
X0278318Y0142305D01*
X0278318Y0142215D01*
X0278314Y0142126D01*
X0278306Y0142038D01*
X0278294Y0141949D01*
X0278278Y0141862D01*
X0278258Y0141775D01*
X0278235Y0141689D01*
X0278207Y0141604D01*
X0278176Y0141520D01*
X0278141Y0141438D01*
X0278103Y0141358D01*
X0278061Y0141279D01*
X0278016Y0141203D01*
X0277967Y0141128D01*
X0277915Y0141056D01*
X0277860Y0140986D01*
X0277801Y0140918D01*
X0277740Y0140854D01*
X0277676Y0140792D01*
X0277609Y0140733D01*
X0277540Y0140677D01*
X0277468Y0140624D01*
X0277394Y0140574D01*
X0277318Y0140528D01*
X0277240Y0140485D01*
X0277160Y0140446D01*
X0277078Y0140410D01*
X0276995Y0140378D01*
X0276911Y0140350D01*
X0276825Y0140325D01*
X0276738Y0140305D01*
X0276651Y0140288D01*
X0276562Y0140275D01*
X0276474Y0140266D01*
X0276385Y0140261D01*
X0276296Y0140260D01*
X0276207Y0140263D01*
X0276118Y0140270D01*
X0276029Y0140281D01*
X0275941Y0140296D01*
X0275854Y0140314D01*
X0275768Y0140337D01*
X0275683Y0140363D01*
X0275599Y0140394D01*
X0275517Y0140428D01*
X0275436Y0140465D01*
X0275357Y0140506D01*
X0275280Y0140551D01*
X0275205Y0140599D01*
X0275132Y0140650D01*
X0275061Y0140704D01*
X0274993Y0140762D01*
X0274928Y0140822D01*
X0274865Y0140886D01*
X0274805Y0140952D01*
X0274748Y0141021D01*
X0274695Y0141092D01*
X0274644Y0141165D01*
X0274597Y0141241D01*
X0274554Y0141318D01*
X0274513Y0141398D01*
X0274477Y0141479D01*
X0274444Y0141562D01*
X0274415Y0141646D01*
X0274389Y0141732D01*
X0274367Y0141818D01*
X0274350Y0141905D01*
X0274336Y0141993D01*
X0274326Y0142082D01*
X0274320Y0142171D01*
X0274318Y0142260D01*
X0297116Y0145760D02*
X0297116Y0158460D01*
X0297116Y0165460D02*
X0297116Y0171760D01*
X0297116Y0172460D02*
X0297116Y0178760D01*
X0297116Y0185760D02*
X0297116Y0198460D01*
X0297116Y0205460D02*
X0297116Y0211760D01*
X0297116Y0138760D02*
X0297116Y0132460D01*
D14*
X0297902Y0037838D02*
X0297902Y0035369D01*
X0296668Y0036604D02*
X0299137Y0036604D01*
X0129868Y0108252D02*
X0129868Y0110721D01*
X0129868Y0109486D02*
X0126165Y0109486D01*
X0127399Y0108252D01*
X0076016Y0246569D02*
X0076016Y0249038D01*
X0074782Y0247803D02*
X0077251Y0247803D01*
X0076016Y0256569D02*
X0076016Y0259038D01*
X0074782Y0257803D02*
X0077251Y0257803D01*
D15*
X0021828Y0009078D02*
X0021828Y0005929D01*
X0063167Y0005929D01*
X0063167Y0009078D01*
X0021828Y0009078D01*
X0021828Y0033488D01*
X0063167Y0033488D01*
X0063167Y0009078D01*
X0066628Y0009078D02*
X0066628Y0005929D01*
X0107967Y0005929D01*
X0107967Y0009078D01*
X0066628Y0009078D01*
X0066628Y0033488D01*
X0107967Y0033488D01*
X0107967Y0009078D01*
X0112128Y0009078D02*
X0112128Y0005929D01*
X0153467Y0005929D01*
X0153467Y0009078D01*
X0112128Y0009078D01*
X0112128Y0033488D01*
X0153467Y0033488D01*
X0153467Y0009078D01*
X0157128Y0009078D02*
X0157128Y0005929D01*
X0198467Y0005929D01*
X0198467Y0009078D01*
X0157128Y0009078D01*
X0157128Y0033488D01*
X0198467Y0033488D01*
X0198467Y0009078D01*
X0202128Y0009078D02*
X0202128Y0005929D01*
X0243467Y0005929D01*
X0243467Y0009078D01*
X0202128Y0009078D01*
X0202128Y0033488D01*
X0243467Y0033488D01*
X0243467Y0009078D01*
X0247128Y0009078D02*
X0247128Y0005929D01*
X0288467Y0005929D01*
X0288467Y0009078D01*
X0247128Y0009078D01*
X0247128Y0033488D01*
X0288467Y0033488D01*
X0288467Y0009078D01*
X0261774Y0034590D02*
X0258624Y0034590D01*
X0261774Y0034590D02*
X0261774Y0036952D01*
X0261774Y0043252D02*
X0261774Y0045614D01*
X0258624Y0045614D01*
X0272482Y0062897D02*
X0298073Y0062897D01*
X0298073Y0126677D01*
X0302010Y0126677D01*
X0302010Y0062897D01*
X0298073Y0062897D01*
X0272482Y0062897D02*
X0272482Y0126677D01*
X0298073Y0126677D01*
X0196919Y0093602D02*
X0196918Y0070002D01*
X0196919Y0093602D02*
X0171116Y0093602D01*
X0171118Y0070002D01*
X0065234Y0224665D02*
X0056967Y0224665D01*
X0065234Y0224665D02*
X0065234Y0266791D01*
X0029801Y0266791D01*
X0029801Y0245925D01*
X0029801Y0227421D02*
X0029801Y0224665D01*
X0038069Y0224665D01*
X0209018Y0250102D02*
X0209018Y0263488D01*
X0288545Y0263488D01*
X0288545Y0250102D01*
X0288585Y0250141D02*
X0283467Y0250141D01*
X0274215Y0250141D02*
X0273427Y0250141D01*
X0264175Y0250141D02*
X0263388Y0250141D01*
X0254136Y0250141D02*
X0253349Y0250141D01*
X0244097Y0250141D02*
X0243309Y0250141D01*
X0234254Y0250141D02*
X0233467Y0250141D01*
X0224215Y0250141D02*
X0223427Y0250141D01*
X0214175Y0250141D02*
X0209057Y0250141D01*
X0209018Y0263488D02*
X0209018Y0269787D01*
X0288545Y0269787D01*
X0288545Y0263488D01*
D16*
X0172797Y0207976D03*
X0157797Y0257976D03*
D17*
X0185018Y0057102D03*
D18*
X0067018Y0126602D02*
X0067018Y0153602D01*
X0064018Y0153602D02*
X0064018Y0126602D01*
X0064016Y0126469D01*
X0064011Y0126337D01*
X0064002Y0126205D01*
X0063990Y0126072D01*
X0063974Y0125941D01*
X0063955Y0125809D01*
X0063932Y0125679D01*
X0063906Y0125549D01*
X0063876Y0125419D01*
X0063843Y0125291D01*
X0063807Y0125163D01*
X0063767Y0125037D01*
X0063724Y0124911D01*
X0063677Y0124787D01*
X0063627Y0124664D01*
X0063574Y0124543D01*
X0063518Y0124423D01*
X0067018Y0126602D02*
X0067016Y0126408D01*
X0067009Y0126213D01*
X0066997Y0126019D01*
X0066980Y0125825D01*
X0066959Y0125631D01*
X0066933Y0125438D01*
X0066902Y0125246D01*
X0066867Y0125055D01*
X0066827Y0124864D01*
X0066782Y0124675D01*
X0066733Y0124486D01*
X0066679Y0124299D01*
X0066621Y0124113D01*
X0066558Y0123929D01*
X0066491Y0123746D01*
X0066419Y0123565D01*
X0066343Y0123386D01*
X0066263Y0123209D01*
X0066178Y0123034D01*
X0066089Y0122860D01*
X0065996Y0122689D01*
X0065899Y0122521D01*
X0065797Y0122355D01*
X0065692Y0122191D01*
X0065583Y0122030D01*
X0065469Y0121871D01*
X0065352Y0121716D01*
X0065232Y0121563D01*
X0065107Y0121413D01*
X0064979Y0121267D01*
X0064848Y0121123D01*
X0064713Y0120983D01*
X0064574Y0120846D01*
X0064432Y0120713D01*
X0064288Y0120583D01*
X0064140Y0120456D01*
X0063988Y0120333D01*
X0063834Y0120214D01*
X0063678Y0120099D01*
X0063518Y0119988D01*
X0054518Y0124423D02*
X0054462Y0124543D01*
X0054409Y0124664D01*
X0054359Y0124787D01*
X0054312Y0124911D01*
X0054269Y0125037D01*
X0054229Y0125163D01*
X0054193Y0125291D01*
X0054160Y0125419D01*
X0054130Y0125549D01*
X0054104Y0125679D01*
X0054081Y0125809D01*
X0054062Y0125941D01*
X0054046Y0126072D01*
X0054034Y0126205D01*
X0054025Y0126337D01*
X0054020Y0126469D01*
X0054018Y0126602D01*
X0054018Y0153602D01*
X0051018Y0153602D02*
X0051018Y0126602D01*
X0051020Y0126407D01*
X0051027Y0126213D01*
X0051039Y0126018D01*
X0051056Y0125824D01*
X0051077Y0125631D01*
X0051103Y0125438D01*
X0051134Y0125246D01*
X0051169Y0125054D01*
X0051209Y0124864D01*
X0051254Y0124674D01*
X0051303Y0124486D01*
X0051357Y0124299D01*
X0051415Y0124113D01*
X0051478Y0123929D01*
X0051545Y0123746D01*
X0051617Y0123565D01*
X0051693Y0123386D01*
X0051773Y0123209D01*
X0051858Y0123033D01*
X0051947Y0122860D01*
X0052040Y0122689D01*
X0052137Y0122521D01*
X0052239Y0122354D01*
X0052344Y0122191D01*
X0052454Y0122030D01*
X0052567Y0121871D01*
X0052684Y0121716D01*
X0052805Y0121563D01*
X0052929Y0121413D01*
X0053057Y0121267D01*
X0053189Y0121123D01*
X0053324Y0120983D01*
X0053462Y0120846D01*
X0053604Y0120713D01*
X0053749Y0120583D01*
X0053897Y0120456D01*
X0054048Y0120333D01*
X0054202Y0120214D01*
X0054359Y0120099D01*
X0054518Y0119987D01*
X0059018Y0136102D02*
X0059018Y0137602D01*
X0059018Y0142602D02*
X0059018Y0144102D01*
X0067018Y0153602D02*
X0067016Y0153797D01*
X0067009Y0153992D01*
X0066997Y0154186D01*
X0066980Y0154380D01*
X0066959Y0154573D01*
X0066933Y0154766D01*
X0066902Y0154959D01*
X0066867Y0155150D01*
X0066827Y0155341D01*
X0066782Y0155530D01*
X0066733Y0155718D01*
X0066679Y0155906D01*
X0066621Y0156091D01*
X0066558Y0156276D01*
X0066491Y0156458D01*
X0066419Y0156639D01*
X0066343Y0156818D01*
X0066263Y0156996D01*
X0066178Y0157171D01*
X0066089Y0157344D01*
X0065996Y0157515D01*
X0065898Y0157684D01*
X0065797Y0157850D01*
X0065692Y0158014D01*
X0065582Y0158175D01*
X0065469Y0158333D01*
X0065352Y0158489D01*
X0065231Y0158641D01*
X0065107Y0158791D01*
X0064979Y0158938D01*
X0064847Y0159081D01*
X0064712Y0159221D01*
X0064574Y0159358D01*
X0064432Y0159492D01*
X0064287Y0159622D01*
X0064139Y0159748D01*
X0063988Y0159871D01*
X0063834Y0159990D01*
X0063677Y0160105D01*
X0063518Y0160217D01*
X0054518Y0160216D02*
X0054358Y0160105D01*
X0054202Y0159990D01*
X0054048Y0159871D01*
X0053896Y0159748D01*
X0053748Y0159621D01*
X0053604Y0159491D01*
X0053462Y0159358D01*
X0053323Y0159221D01*
X0053188Y0159081D01*
X0053057Y0158937D01*
X0052929Y0158791D01*
X0052804Y0158641D01*
X0052684Y0158488D01*
X0052567Y0158333D01*
X0052453Y0158174D01*
X0052344Y0158013D01*
X0052239Y0157849D01*
X0052137Y0157683D01*
X0052040Y0157515D01*
X0051947Y0157344D01*
X0051858Y0157170D01*
X0051773Y0156995D01*
X0051693Y0156818D01*
X0051617Y0156639D01*
X0051545Y0156458D01*
X0051478Y0156275D01*
X0051415Y0156091D01*
X0051357Y0155905D01*
X0051303Y0155718D01*
X0051254Y0155529D01*
X0051209Y0155340D01*
X0051169Y0155149D01*
X0051134Y0154958D01*
X0051103Y0154766D01*
X0051077Y0154573D01*
X0051056Y0154379D01*
X0051039Y0154185D01*
X0051027Y0153991D01*
X0051020Y0153796D01*
X0051018Y0153602D01*
X0054018Y0153602D02*
X0054020Y0153735D01*
X0054025Y0153867D01*
X0054034Y0153999D01*
X0054046Y0154132D01*
X0054062Y0154263D01*
X0054081Y0154395D01*
X0054104Y0154525D01*
X0054130Y0154655D01*
X0054160Y0154785D01*
X0054193Y0154913D01*
X0054229Y0155041D01*
X0054269Y0155167D01*
X0054312Y0155293D01*
X0054359Y0155417D01*
X0054409Y0155540D01*
X0054462Y0155661D01*
X0054518Y0155781D01*
X0063518Y0155781D02*
X0063574Y0155661D01*
X0063627Y0155540D01*
X0063677Y0155417D01*
X0063724Y0155293D01*
X0063767Y0155167D01*
X0063807Y0155041D01*
X0063843Y0154913D01*
X0063876Y0154785D01*
X0063906Y0154655D01*
X0063932Y0154525D01*
X0063955Y0154395D01*
X0063974Y0154263D01*
X0063990Y0154132D01*
X0064002Y0153999D01*
X0064011Y0153867D01*
X0064016Y0153735D01*
X0064018Y0153602D01*
D19*
X0084608Y0242740D03*
X0084608Y0247464D03*
X0084608Y0252740D03*
X0084608Y0257464D03*
D20*
X0084608Y0255102D03*
X0084608Y0245102D03*
X0301518Y0045193D03*
D21*
X0303880Y0045193D03*
X0299156Y0045193D03*
D22*
X0184018Y0095502D03*
M02*
