G75*
%MOIN*%
%OFA0B0*%
%FSLAX25Y25*%
%IPPOS*%
%LPD*%
%AMOC8*
5,1,8,0,0,1.08239X$1,22.5*
%
%ADD10R,0.05906X0.05118*%
%ADD11R,0.05118X0.05906*%
%ADD12R,0.03150X0.02362*%
%ADD13R,0.03937X0.03150*%
%ADD14OC8,0.06000*%
%ADD15R,0.02200X0.05000*%
%ADD16R,0.05000X0.02200*%
%ADD17C,0.07087*%
%ADD18C,0.06400*%
%ADD19C,0.17000*%
%ADD20R,0.09500X0.09500*%
%ADD21C,0.09500*%
%ADD22R,0.07008X0.05984*%
%ADD23R,0.03543X0.03150*%
%ADD24R,0.05118X0.06299*%
%ADD25R,0.06299X0.05118*%
%ADD26R,0.03346X0.03543*%
%ADD27C,0.07050*%
%ADD28R,0.07600X0.21000*%
%ADD29R,0.08300X0.05500*%
%ADD30C,0.07800*%
%ADD31R,0.04724X0.04724*%
%ADD32R,0.21260X0.24409*%
%ADD33R,0.03937X0.06299*%
%ADD34R,0.08000X0.08000*%
%ADD35C,0.08000*%
%ADD36C,0.05200*%
%ADD37C,0.01600*%
%ADD38OC8,0.03562*%
%ADD39C,0.01000*%
%ADD40C,0.00800*%
%ADD41OC8,0.03200*%
%ADD42R,0.03562X0.03562*%
%ADD43C,0.03200*%
%ADD44C,0.02700*%
%ADD45C,0.05000*%
%ADD46C,0.03200*%
%ADD47C,0.03000*%
D10*
X0064167Y0133060D03*
X0064167Y0140540D03*
X0074167Y0153060D03*
X0074167Y0160540D03*
X0079167Y0183454D03*
X0079167Y0190146D03*
X0168167Y0145146D03*
X0168167Y0138454D03*
X0220167Y0198954D03*
X0220167Y0205646D03*
X0238667Y0181646D03*
X0238667Y0174954D03*
D11*
X0177513Y0111800D03*
X0170820Y0111800D03*
D12*
X0213167Y0175150D03*
X0213167Y0181450D03*
X0221167Y0181450D03*
X0221167Y0175150D03*
X0229667Y0175150D03*
X0229667Y0181450D03*
X0231167Y0194650D03*
X0231167Y0200950D03*
X0213167Y0195950D03*
X0213167Y0189650D03*
X0205167Y0191950D03*
X0205167Y0185650D03*
X0164167Y0238650D03*
X0164167Y0244950D03*
X0164167Y0253650D03*
X0164167Y0259950D03*
D13*
X0275230Y0071800D03*
X0268104Y0066800D03*
X0260230Y0066800D03*
X0283104Y0071800D03*
D14*
X0139167Y0136800D03*
X0129167Y0136800D03*
X0119167Y0136800D03*
X0109167Y0136800D03*
X0099167Y0136800D03*
X0089167Y0136800D03*
D15*
X0085190Y0098700D03*
X0082041Y0098700D03*
X0078891Y0098700D03*
X0075741Y0098700D03*
X0072592Y0098700D03*
X0069442Y0098700D03*
X0066293Y0098700D03*
X0063143Y0098700D03*
X0063143Y0064900D03*
X0066293Y0064900D03*
X0069442Y0064900D03*
X0072592Y0064900D03*
X0075741Y0064900D03*
X0078891Y0064900D03*
X0082041Y0064900D03*
X0085190Y0064900D03*
D16*
X0091067Y0070776D03*
X0091067Y0073926D03*
X0091067Y0077076D03*
X0091067Y0080225D03*
X0091067Y0083375D03*
X0091067Y0086524D03*
X0091067Y0089674D03*
X0091067Y0092824D03*
X0057267Y0092824D03*
X0057267Y0089674D03*
X0057267Y0086524D03*
X0057267Y0083375D03*
X0057267Y0080225D03*
X0057267Y0077076D03*
X0057267Y0073926D03*
X0057267Y0070776D03*
D17*
X0174167Y0218257D02*
X0174167Y0225343D01*
X0184167Y0225343D02*
X0184167Y0218257D01*
X0194167Y0218257D02*
X0194167Y0225343D01*
X0204167Y0225343D02*
X0204167Y0218257D01*
X0214167Y0218257D02*
X0214167Y0225343D01*
X0224167Y0225343D02*
X0224167Y0218257D01*
X0234167Y0218257D02*
X0234167Y0225343D01*
X0244167Y0225343D02*
X0244167Y0218257D01*
X0239167Y0238257D02*
X0239167Y0245343D01*
X0229167Y0245343D02*
X0229167Y0238257D01*
X0219167Y0238257D02*
X0219167Y0245343D01*
X0209167Y0245343D02*
X0209167Y0238257D01*
X0199167Y0238257D02*
X0199167Y0245343D01*
X0189167Y0245343D02*
X0189167Y0238257D01*
X0179167Y0238257D02*
X0179167Y0245343D01*
D18*
X0139167Y0121800D03*
X0139167Y0111800D03*
X0129167Y0111800D03*
X0119167Y0111800D03*
X0119167Y0121800D03*
X0129167Y0121800D03*
D19*
X0032667Y0221363D03*
X0014163Y0233174D03*
X0032667Y0244985D03*
D20*
X0274167Y0111800D03*
D21*
X0274167Y0131485D03*
X0274167Y0151170D03*
D22*
X0154167Y0178513D03*
X0144167Y0178513D03*
X0134167Y0178513D03*
X0134167Y0215087D03*
X0144167Y0215087D03*
X0154167Y0215087D03*
X0139167Y0228513D03*
X0129167Y0228513D03*
X0119167Y0228513D03*
X0119167Y0265087D03*
X0129167Y0265087D03*
X0139167Y0265087D03*
D23*
X0240230Y0055540D03*
X0240230Y0048060D03*
X0248497Y0051800D03*
D24*
X0260427Y0041800D03*
X0267907Y0041800D03*
X0227907Y0041800D03*
X0220427Y0041800D03*
X0132907Y0166800D03*
X0125427Y0166800D03*
X0087907Y0241800D03*
X0080427Y0241800D03*
X0080427Y0251800D03*
X0087907Y0251800D03*
D25*
X0105348Y0239753D03*
X0105348Y0232272D03*
X0121667Y0215040D03*
X0121667Y0207560D03*
X0121167Y0187040D03*
X0121167Y0179560D03*
X0070667Y0185060D03*
X0070667Y0192540D03*
X0151667Y0233560D03*
X0151667Y0241040D03*
X0154167Y0258060D03*
X0154167Y0265540D03*
X0180667Y0207540D03*
X0180667Y0200060D03*
X0247167Y0182540D03*
X0247167Y0175060D03*
X0159167Y0130540D03*
X0159167Y0123060D03*
D26*
X0194883Y0072800D03*
X0199450Y0072800D03*
D27*
X0270642Y0181957D02*
X0277692Y0181957D01*
X0277692Y0201643D02*
X0270642Y0201643D01*
X0270642Y0221957D02*
X0277692Y0221957D01*
X0277692Y0241643D02*
X0270642Y0241643D01*
D28*
X0044167Y0155800D03*
X0044167Y0117800D03*
D29*
X0055767Y0214100D03*
X0055767Y0231800D03*
X0091667Y0231800D03*
X0091667Y0214100D03*
D30*
X0195667Y0149200D02*
X0195667Y0141400D01*
X0195667Y0101200D02*
X0195667Y0093400D01*
X0219167Y0093200D02*
X0219167Y0085400D01*
X0242667Y0093400D02*
X0242667Y0101200D01*
X0242667Y0141400D02*
X0242667Y0149200D01*
D31*
X0270033Y0091800D03*
X0278301Y0091800D03*
X0073301Y0241800D03*
X0065033Y0241800D03*
X0065033Y0251800D03*
X0073301Y0251800D03*
D32*
X0169167Y0071957D03*
D33*
X0178143Y0100698D03*
X0160190Y0100698D03*
D34*
X0148467Y0016800D03*
X0193467Y0016800D03*
X0238467Y0016800D03*
X0103467Y0016800D03*
X0057967Y0016800D03*
X0013167Y0016800D03*
D35*
X0027646Y0016800D03*
X0042126Y0016800D03*
X0072446Y0016800D03*
X0086926Y0016800D03*
X0117946Y0016800D03*
X0132426Y0016800D03*
X0162946Y0016800D03*
X0177426Y0016800D03*
X0207946Y0016800D03*
X0222426Y0016800D03*
X0252946Y0016800D03*
X0267426Y0016800D03*
D36*
X0016767Y0051800D02*
X0011567Y0051800D01*
X0011567Y0061800D02*
X0016767Y0061800D01*
X0016767Y0071800D02*
X0011567Y0071800D01*
X0011567Y0081800D02*
X0016767Y0081800D01*
X0016767Y0091800D02*
X0011567Y0091800D01*
X0011567Y0101800D02*
X0016767Y0101800D01*
X0016767Y0111800D02*
X0011567Y0111800D01*
X0011567Y0121800D02*
X0016767Y0121800D01*
X0016767Y0131800D02*
X0011567Y0131800D01*
X0011567Y0141800D02*
X0016767Y0141800D01*
X0016767Y0151800D02*
X0011567Y0151800D01*
X0011567Y0161800D02*
X0016767Y0161800D01*
X0016767Y0171800D02*
X0011567Y0171800D01*
X0011567Y0181800D02*
X0016767Y0181800D01*
X0016767Y0191800D02*
X0011567Y0191800D01*
X0011567Y0201800D02*
X0016767Y0201800D01*
D37*
X0006167Y0226681D02*
X0006167Y0003800D01*
X0292088Y0003800D01*
X0292088Y0273501D01*
X0006167Y0273501D01*
X0006167Y0239667D01*
X0006470Y0240048D01*
X0007289Y0240866D01*
X0008193Y0241588D01*
X0009173Y0242203D01*
X0010215Y0242705D01*
X0011307Y0243087D01*
X0012435Y0243344D01*
X0013363Y0243449D01*
X0013363Y0233974D01*
X0014963Y0233974D01*
X0024438Y0233974D01*
X0024333Y0234902D01*
X0024076Y0236030D01*
X0023694Y0237122D01*
X0023192Y0238164D01*
X0022576Y0239144D01*
X0021855Y0240048D01*
X0021037Y0240866D01*
X0020132Y0241588D01*
X0019153Y0242203D01*
X0018111Y0242705D01*
X0017019Y0243087D01*
X0015891Y0243344D01*
X0014963Y0243449D01*
X0014963Y0233974D01*
X0014963Y0232374D01*
X0024438Y0232374D01*
X0024333Y0231446D01*
X0024076Y0230318D01*
X0023694Y0229226D01*
X0023192Y0228184D01*
X0022576Y0227204D01*
X0021855Y0226300D01*
X0021037Y0225482D01*
X0020132Y0224760D01*
X0019153Y0224145D01*
X0018111Y0223643D01*
X0017019Y0223261D01*
X0015891Y0223004D01*
X0014963Y0222899D01*
X0014963Y0232374D01*
X0013363Y0232374D01*
X0013363Y0222899D01*
X0012435Y0223004D01*
X0011307Y0223261D01*
X0010215Y0223643D01*
X0009173Y0224145D01*
X0008193Y0224760D01*
X0007289Y0225482D01*
X0006470Y0226300D01*
X0006167Y0226681D01*
X0006167Y0225592D02*
X0007179Y0225592D01*
X0006167Y0223993D02*
X0009488Y0223993D01*
X0006167Y0222395D02*
X0022167Y0222395D01*
X0022167Y0222745D02*
X0022167Y0219981D01*
X0022882Y0217310D01*
X0024265Y0214916D01*
X0026220Y0212961D01*
X0028614Y0211579D01*
X0031284Y0210863D01*
X0034049Y0210863D01*
X0036720Y0211579D01*
X0038112Y0212382D01*
X0046667Y0203827D01*
X0046667Y0198081D01*
X0046367Y0197357D01*
X0046367Y0196243D01*
X0046793Y0195214D01*
X0047581Y0194426D01*
X0048610Y0194000D01*
X0056619Y0194000D01*
X0057600Y0193019D01*
X0060733Y0193019D01*
X0062948Y0195234D01*
X0062948Y0198366D01*
X0060733Y0200581D01*
X0057600Y0200581D01*
X0056619Y0199600D01*
X0051667Y0199600D01*
X0051667Y0205360D01*
X0051286Y0206279D01*
X0041647Y0215918D01*
X0042451Y0217310D01*
X0043167Y0219981D01*
X0043167Y0222745D01*
X0042451Y0225416D01*
X0041069Y0227810D01*
X0039114Y0229765D01*
X0036720Y0231147D01*
X0034049Y0231863D01*
X0031284Y0231863D01*
X0028614Y0231147D01*
X0026220Y0229765D01*
X0024265Y0227810D01*
X0022882Y0225416D01*
X0022167Y0222745D01*
X0022501Y0223993D02*
X0018837Y0223993D01*
X0021147Y0225592D02*
X0022984Y0225592D01*
X0022565Y0227190D02*
X0023907Y0227190D01*
X0023483Y0228789D02*
X0025243Y0228789D01*
X0024091Y0230387D02*
X0027297Y0230387D01*
X0024394Y0231986D02*
X0055192Y0231986D01*
X0055192Y0232375D02*
X0055192Y0231225D01*
X0056342Y0231225D01*
X0056342Y0232375D01*
X0061717Y0232375D01*
X0061717Y0234787D01*
X0061594Y0235245D01*
X0061357Y0235655D01*
X0061022Y0235990D01*
X0060611Y0236227D01*
X0060154Y0236350D01*
X0056342Y0236350D01*
X0056342Y0232375D01*
X0055192Y0232375D01*
X0055192Y0236350D01*
X0051380Y0236350D01*
X0050922Y0236227D01*
X0050511Y0235990D01*
X0050176Y0235655D01*
X0049939Y0235245D01*
X0049817Y0234787D01*
X0049817Y0232375D01*
X0055192Y0232375D01*
X0055192Y0231225D02*
X0049817Y0231225D01*
X0049817Y0228813D01*
X0049939Y0228355D01*
X0050176Y0227945D01*
X0050511Y0227610D01*
X0050922Y0227373D01*
X0051380Y0227250D01*
X0055192Y0227250D01*
X0055192Y0231225D01*
X0055192Y0230387D02*
X0056342Y0230387D01*
X0056342Y0231225D02*
X0056342Y0227250D01*
X0060154Y0227250D01*
X0060611Y0227373D01*
X0061022Y0227610D01*
X0061357Y0227945D01*
X0061594Y0228355D01*
X0061717Y0228813D01*
X0061717Y0231225D01*
X0056342Y0231225D01*
X0056342Y0231986D02*
X0085517Y0231986D01*
X0085517Y0233584D02*
X0061717Y0233584D01*
X0061611Y0235183D02*
X0085517Y0235183D01*
X0085517Y0235378D02*
X0085517Y0228222D01*
X0086688Y0227050D01*
X0096645Y0227050D01*
X0097817Y0228222D01*
X0097817Y0233019D01*
X0100198Y0233019D01*
X0100198Y0228885D01*
X0101370Y0227713D01*
X0102244Y0227713D01*
X0102500Y0227096D01*
X0103203Y0226393D01*
X0104122Y0226013D01*
X0113663Y0226013D01*
X0113663Y0224692D01*
X0113755Y0224600D01*
X0106714Y0224600D01*
X0105733Y0225581D01*
X0102600Y0225581D01*
X0100386Y0223366D01*
X0100386Y0220234D01*
X0102600Y0218019D01*
X0105733Y0218019D01*
X0106714Y0219000D01*
X0111367Y0219000D01*
X0111367Y0198947D01*
X0110967Y0199347D01*
X0110967Y0208357D01*
X0110540Y0209386D01*
X0106540Y0213386D01*
X0105753Y0214174D01*
X0104724Y0214600D01*
X0101714Y0214600D01*
X0100733Y0215581D01*
X0097817Y0215581D01*
X0097817Y0217678D01*
X0096645Y0218850D01*
X0086688Y0218850D01*
X0085517Y0217678D01*
X0085517Y0210522D01*
X0086688Y0209350D01*
X0096269Y0209350D01*
X0097600Y0208019D01*
X0100733Y0208019D01*
X0101714Y0209000D01*
X0103007Y0209000D01*
X0105367Y0206640D01*
X0105367Y0199347D01*
X0104386Y0198366D01*
X0104386Y0195234D01*
X0106600Y0193019D01*
X0109733Y0193019D01*
X0111367Y0194653D01*
X0111367Y0182960D01*
X0107581Y0179174D01*
X0106793Y0178386D01*
X0106667Y0178081D01*
X0106540Y0178386D01*
X0105753Y0179174D01*
X0101967Y0182960D01*
X0101967Y0194253D01*
X0102948Y0195234D01*
X0102948Y0198366D01*
X0100733Y0200581D01*
X0097600Y0200581D01*
X0095386Y0198366D01*
X0095386Y0195234D01*
X0096367Y0194253D01*
X0096367Y0181243D01*
X0096641Y0180581D01*
X0096600Y0180581D01*
X0095619Y0179600D01*
X0090314Y0179600D01*
X0090948Y0180234D01*
X0090948Y0183366D01*
X0088733Y0185581D01*
X0086910Y0185581D01*
X0086010Y0185954D01*
X0084119Y0185954D01*
X0084119Y0192793D01*
X0084345Y0193019D01*
X0085733Y0193019D01*
X0087948Y0195234D01*
X0087948Y0198366D01*
X0085733Y0200581D01*
X0082600Y0200581D01*
X0080386Y0198366D01*
X0080386Y0196979D01*
X0078112Y0194705D01*
X0078078Y0194705D01*
X0077270Y0195040D01*
X0075816Y0195040D01*
X0075816Y0195928D01*
X0074645Y0197099D01*
X0073467Y0197099D01*
X0073467Y0200857D01*
X0073040Y0201886D01*
X0072253Y0202674D01*
X0072253Y0202674D01*
X0061917Y0213010D01*
X0061917Y0217678D01*
X0060745Y0218850D01*
X0050788Y0218850D01*
X0049617Y0217678D01*
X0049617Y0210522D01*
X0050788Y0209350D01*
X0054165Y0209350D01*
X0055010Y0209000D01*
X0058007Y0209000D01*
X0067867Y0199140D01*
X0067867Y0197099D01*
X0066689Y0197099D01*
X0065517Y0195928D01*
X0065517Y0189153D01*
X0065870Y0188800D01*
X0065517Y0188447D01*
X0065517Y0184271D01*
X0064724Y0184600D01*
X0056458Y0184600D01*
X0055658Y0185400D01*
X0052675Y0185400D01*
X0050567Y0183291D01*
X0050567Y0180309D01*
X0052675Y0178200D01*
X0055658Y0178200D01*
X0056458Y0179000D01*
X0063007Y0179000D01*
X0067581Y0174426D01*
X0068610Y0174000D01*
X0077407Y0174000D01*
X0076793Y0173386D01*
X0075723Y0172317D01*
X0067893Y0172317D01*
X0065036Y0175174D01*
X0064007Y0175600D01*
X0062893Y0175600D01*
X0062766Y0175547D01*
X0061733Y0176581D01*
X0058600Y0176581D01*
X0056386Y0174366D01*
X0056386Y0171234D01*
X0058600Y0169019D01*
X0061733Y0169019D01*
X0062502Y0169788D01*
X0064360Y0167930D01*
X0065148Y0167143D01*
X0066177Y0166717D01*
X0077440Y0166717D01*
X0078469Y0167143D01*
X0080326Y0169000D01*
X0098007Y0169000D01*
X0100567Y0166440D01*
X0100567Y0165309D01*
X0102675Y0163200D01*
X0105658Y0163200D01*
X0106367Y0163909D01*
X0106367Y0162960D01*
X0103007Y0159600D01*
X0088610Y0159600D01*
X0087581Y0159174D01*
X0082581Y0154174D01*
X0081793Y0153386D01*
X0081367Y0152357D01*
X0081367Y0149820D01*
X0080753Y0150434D01*
X0079119Y0152067D01*
X0079119Y0156447D01*
X0078608Y0156959D01*
X0078797Y0157286D01*
X0078919Y0157744D01*
X0078919Y0160061D01*
X0074646Y0160061D01*
X0074646Y0161020D01*
X0073687Y0161020D01*
X0073687Y0164899D01*
X0070977Y0164899D01*
X0070519Y0164777D01*
X0070109Y0164540D01*
X0069774Y0164204D01*
X0069537Y0163794D01*
X0069414Y0163336D01*
X0069414Y0161020D01*
X0073687Y0161020D01*
X0073687Y0160061D01*
X0069414Y0160061D01*
X0069414Y0157744D01*
X0069537Y0157286D01*
X0069726Y0156959D01*
X0069214Y0156447D01*
X0069214Y0151643D01*
X0066871Y0149300D01*
X0051758Y0149300D01*
X0050658Y0150400D01*
X0049967Y0150400D01*
X0049967Y0167128D01*
X0048795Y0168300D01*
X0039538Y0168300D01*
X0038367Y0167128D01*
X0038367Y0144499D01*
X0037581Y0144174D01*
X0033807Y0140400D01*
X0032675Y0140400D01*
X0031967Y0139691D01*
X0031967Y0145640D01*
X0035753Y0149426D01*
X0036540Y0150214D01*
X0036967Y0151243D01*
X0036967Y0152357D01*
X0036540Y0153386D01*
X0033967Y0155960D01*
X0033967Y0177640D01*
X0034526Y0178200D01*
X0035567Y0178200D01*
X0035567Y0175309D01*
X0037675Y0173200D01*
X0040658Y0173200D01*
X0042767Y0175309D01*
X0042767Y0176440D01*
X0046540Y0180214D01*
X0046967Y0181243D01*
X0046967Y0192357D01*
X0046540Y0193386D01*
X0045753Y0194174D01*
X0040753Y0199174D01*
X0039724Y0199600D01*
X0033610Y0199600D01*
X0032581Y0199174D01*
X0031793Y0198386D01*
X0028007Y0194600D01*
X0020472Y0194600D01*
X0019372Y0195700D01*
X0017682Y0196400D01*
X0010652Y0196400D01*
X0008961Y0195700D01*
X0007667Y0194406D01*
X0006967Y0192715D01*
X0006967Y0190885D01*
X0007667Y0189194D01*
X0008961Y0187900D01*
X0010652Y0187200D01*
X0017682Y0187200D01*
X0019372Y0187900D01*
X0020472Y0189000D01*
X0029724Y0189000D01*
X0030753Y0189426D01*
X0035326Y0194000D01*
X0036276Y0194000D01*
X0035567Y0193291D01*
X0035567Y0192160D01*
X0022581Y0179174D01*
X0021793Y0178386D01*
X0021367Y0177357D01*
X0021367Y0176243D01*
X0021793Y0175214D01*
X0023367Y0173640D01*
X0023367Y0171347D01*
X0022386Y0170366D01*
X0022386Y0167541D01*
X0021967Y0167960D01*
X0021967Y0168357D01*
X0021540Y0169386D01*
X0020978Y0169948D01*
X0021367Y0170885D01*
X0021367Y0172715D01*
X0020666Y0174406D01*
X0019372Y0175700D01*
X0017682Y0176400D01*
X0010652Y0176400D01*
X0008961Y0175700D01*
X0007667Y0174406D01*
X0006967Y0172715D01*
X0006967Y0170885D01*
X0007667Y0169194D01*
X0008961Y0167900D01*
X0010652Y0167200D01*
X0014807Y0167200D01*
X0015607Y0166400D01*
X0010652Y0166400D01*
X0008961Y0165700D01*
X0007667Y0164406D01*
X0006967Y0162715D01*
X0006967Y0160885D01*
X0007667Y0159194D01*
X0008961Y0157900D01*
X0010652Y0157200D01*
X0014807Y0157200D01*
X0015607Y0156400D01*
X0010652Y0156400D01*
X0008961Y0155700D01*
X0007667Y0154406D01*
X0006967Y0152715D01*
X0006967Y0150885D01*
X0007667Y0149194D01*
X0008961Y0147900D01*
X0010652Y0147200D01*
X0017682Y0147200D01*
X0019372Y0147900D01*
X0020666Y0149194D01*
X0021367Y0150885D01*
X0021367Y0152715D01*
X0020834Y0154000D01*
X0028467Y0154000D01*
X0028793Y0153214D01*
X0030207Y0151800D01*
X0027360Y0148954D01*
X0025733Y0150581D01*
X0022600Y0150581D01*
X0020386Y0148366D01*
X0020386Y0145234D01*
X0022600Y0143019D01*
X0025733Y0143019D01*
X0026367Y0143653D01*
X0026367Y0131243D01*
X0026667Y0130519D01*
X0026667Y0111303D01*
X0027047Y0110384D01*
X0032353Y0105078D01*
X0031875Y0104600D01*
X0020472Y0104600D01*
X0019372Y0105700D01*
X0017682Y0106400D01*
X0010652Y0106400D01*
X0008961Y0105700D01*
X0007667Y0104406D01*
X0006967Y0102715D01*
X0006967Y0100885D01*
X0007667Y0099194D01*
X0008961Y0097900D01*
X0010652Y0097200D01*
X0017682Y0097200D01*
X0019372Y0097900D01*
X0020472Y0099000D01*
X0031875Y0099000D01*
X0032675Y0098200D01*
X0035658Y0098200D01*
X0037444Y0099987D01*
X0037751Y0099681D01*
X0038669Y0099300D01*
X0046576Y0099300D01*
X0045567Y0098291D01*
X0045567Y0097160D01*
X0032581Y0084174D01*
X0031793Y0083386D01*
X0031367Y0082357D01*
X0031367Y0081243D01*
X0031793Y0080214D01*
X0032407Y0079600D01*
X0030326Y0079600D01*
X0026967Y0082960D01*
X0026967Y0087357D01*
X0026540Y0088386D01*
X0021540Y0093386D01*
X0020769Y0094157D01*
X0020666Y0094406D01*
X0019372Y0095700D01*
X0017682Y0096400D01*
X0010652Y0096400D01*
X0008961Y0095700D01*
X0007667Y0094406D01*
X0006967Y0092715D01*
X0006967Y0090885D01*
X0007667Y0089194D01*
X0008961Y0087900D01*
X0010652Y0087200D01*
X0017682Y0087200D01*
X0019184Y0087822D01*
X0021367Y0085640D01*
X0021367Y0083560D01*
X0020769Y0084157D01*
X0020666Y0084406D01*
X0019372Y0085700D01*
X0017682Y0086400D01*
X0010652Y0086400D01*
X0008961Y0085700D01*
X0007667Y0084406D01*
X0006967Y0082715D01*
X0006967Y0080885D01*
X0007667Y0079194D01*
X0008961Y0077900D01*
X0010652Y0077200D01*
X0017682Y0077200D01*
X0019184Y0077822D01*
X0026793Y0070214D01*
X0027581Y0069426D01*
X0028610Y0069000D01*
X0031619Y0069000D01*
X0032600Y0068019D01*
X0033988Y0068019D01*
X0037581Y0064426D01*
X0038610Y0064000D01*
X0039724Y0064000D01*
X0040448Y0064300D01*
X0049664Y0064300D01*
X0050583Y0064681D01*
X0053758Y0067856D01*
X0053938Y0067676D01*
X0054367Y0067676D01*
X0054367Y0066347D01*
X0053386Y0065366D01*
X0053386Y0062325D01*
X0039629Y0062325D01*
X0039189Y0062765D01*
X0037958Y0063275D01*
X0036625Y0063275D01*
X0035394Y0062765D01*
X0034452Y0061823D01*
X0033942Y0060591D01*
X0033942Y0059600D01*
X0030326Y0059600D01*
X0026967Y0062960D01*
X0026967Y0067357D01*
X0026540Y0068386D01*
X0022767Y0072160D01*
X0022767Y0073291D01*
X0020658Y0075400D01*
X0019672Y0075400D01*
X0019372Y0075700D01*
X0017682Y0076400D01*
X0010652Y0076400D01*
X0008961Y0075700D01*
X0007667Y0074406D01*
X0006967Y0072715D01*
X0006967Y0070885D01*
X0007667Y0069194D01*
X0008961Y0067900D01*
X0010652Y0067200D01*
X0017682Y0067200D01*
X0019184Y0067822D01*
X0021367Y0065640D01*
X0021367Y0061243D01*
X0021793Y0060214D01*
X0022581Y0059426D01*
X0027407Y0054600D01*
X0025326Y0054600D01*
X0020686Y0059241D01*
X0021367Y0060885D01*
X0021367Y0062715D01*
X0020666Y0064406D01*
X0019372Y0065700D01*
X0017682Y0066400D01*
X0010652Y0066400D01*
X0008961Y0065700D01*
X0007667Y0064406D01*
X0006967Y0062715D01*
X0006967Y0060885D01*
X0007667Y0059194D01*
X0008961Y0057900D01*
X0010652Y0057200D01*
X0014807Y0057200D01*
X0015807Y0056200D01*
X0014167Y0056200D01*
X0014167Y0051800D01*
X0014167Y0047400D01*
X0017113Y0047400D01*
X0017797Y0047508D01*
X0018456Y0047722D01*
X0019073Y0048037D01*
X0019633Y0048444D01*
X0020123Y0048934D01*
X0020530Y0049494D01*
X0020844Y0050111D01*
X0021058Y0050770D01*
X0021083Y0050924D01*
X0021793Y0050214D01*
X0022581Y0049426D01*
X0023610Y0049000D01*
X0024846Y0049000D01*
X0024846Y0022135D01*
X0024247Y0021887D01*
X0022560Y0020199D01*
X0021646Y0017993D01*
X0021646Y0015607D01*
X0022560Y0013401D01*
X0024247Y0011713D01*
X0026453Y0010800D01*
X0028840Y0010800D01*
X0031045Y0011713D01*
X0032733Y0013401D01*
X0033646Y0015607D01*
X0033646Y0017993D01*
X0032733Y0020199D01*
X0031045Y0021887D01*
X0030446Y0022135D01*
X0030446Y0049000D01*
X0058007Y0049000D01*
X0064367Y0042640D01*
X0064367Y0034743D01*
X0064793Y0033714D01*
X0077367Y0021140D01*
X0077367Y0020365D01*
X0075845Y0021887D01*
X0073640Y0022800D01*
X0071253Y0022800D01*
X0069047Y0021887D01*
X0067360Y0020199D01*
X0066446Y0017993D01*
X0066446Y0015607D01*
X0067360Y0013401D01*
X0069047Y0011713D01*
X0071253Y0010800D01*
X0073640Y0010800D01*
X0075845Y0011713D01*
X0076131Y0012000D01*
X0080224Y0012000D01*
X0081253Y0012426D01*
X0081753Y0012926D01*
X0082227Y0013400D01*
X0082502Y0013022D01*
X0083147Y0012376D01*
X0083886Y0011839D01*
X0084699Y0011425D01*
X0085568Y0011143D01*
X0086469Y0011000D01*
X0086545Y0011000D01*
X0086545Y0016419D01*
X0087307Y0016419D01*
X0087307Y0017181D01*
X0092726Y0017181D01*
X0092726Y0017256D01*
X0092583Y0018158D01*
X0092301Y0019026D01*
X0091886Y0019840D01*
X0091350Y0020578D01*
X0090704Y0021224D01*
X0089966Y0021761D01*
X0089152Y0022175D01*
X0088284Y0022457D01*
X0087382Y0022600D01*
X0087307Y0022600D01*
X0087307Y0017181D01*
X0086545Y0017181D01*
X0086545Y0022600D01*
X0086469Y0022600D01*
X0085568Y0022457D01*
X0084699Y0022175D01*
X0083886Y0021761D01*
X0083147Y0021224D01*
X0082967Y0021043D01*
X0082967Y0022857D01*
X0082540Y0023886D01*
X0081753Y0024674D01*
X0081753Y0024674D01*
X0073068Y0033359D01*
X0073451Y0033200D01*
X0074883Y0033200D01*
X0076206Y0033748D01*
X0076458Y0034000D01*
X0079724Y0034000D01*
X0080753Y0034426D01*
X0083753Y0037426D01*
X0084540Y0038214D01*
X0084967Y0039243D01*
X0084967Y0041000D01*
X0106007Y0041000D01*
X0107581Y0039426D01*
X0108610Y0039000D01*
X0118007Y0039000D01*
X0122386Y0034621D01*
X0122386Y0034234D01*
X0124600Y0032019D01*
X0127733Y0032019D01*
X0129948Y0034234D01*
X0129948Y0037366D01*
X0127733Y0039581D01*
X0125345Y0039581D01*
X0121540Y0043386D01*
X0120753Y0044174D01*
X0119724Y0044600D01*
X0110326Y0044600D01*
X0108926Y0046000D01*
X0126724Y0046000D01*
X0127753Y0046426D01*
X0129345Y0048019D01*
X0130733Y0048019D01*
X0132948Y0050234D01*
X0132948Y0053366D01*
X0130733Y0055581D01*
X0127600Y0055581D01*
X0125386Y0053366D01*
X0125386Y0051979D01*
X0125007Y0051600D01*
X0091714Y0051600D01*
X0090733Y0052581D01*
X0087600Y0052581D01*
X0085386Y0050366D01*
X0085386Y0047234D01*
X0086019Y0046600D01*
X0084967Y0046600D01*
X0084967Y0059087D01*
X0089628Y0054426D01*
X0090657Y0054000D01*
X0099119Y0054000D01*
X0100100Y0053019D01*
X0103233Y0053019D01*
X0105448Y0055234D01*
X0105448Y0058366D01*
X0103233Y0060581D01*
X0100100Y0060581D01*
X0099119Y0059600D01*
X0092374Y0059600D01*
X0088290Y0063683D01*
X0088290Y0067676D01*
X0094395Y0067676D01*
X0094695Y0067976D01*
X0119030Y0067976D01*
X0143581Y0043426D01*
X0144610Y0043000D01*
X0144619Y0043000D01*
X0145600Y0042019D01*
X0148367Y0042019D01*
X0148367Y0036243D01*
X0148793Y0035214D01*
X0160146Y0023861D01*
X0160146Y0022135D01*
X0159547Y0021887D01*
X0157860Y0020199D01*
X0156946Y0017993D01*
X0156946Y0015607D01*
X0157860Y0013401D01*
X0159547Y0011713D01*
X0161367Y0010960D01*
X0161367Y0009600D01*
X0129106Y0009600D01*
X0123698Y0015008D01*
X0123946Y0015607D01*
X0123946Y0017993D01*
X0123033Y0020199D01*
X0121345Y0021887D01*
X0119140Y0022800D01*
X0116753Y0022800D01*
X0114547Y0021887D01*
X0112860Y0020199D01*
X0111946Y0017993D01*
X0111946Y0015607D01*
X0112860Y0013401D01*
X0114547Y0011713D01*
X0116753Y0010800D01*
X0119140Y0010800D01*
X0119738Y0011048D01*
X0125572Y0005214D01*
X0126360Y0004426D01*
X0127389Y0004000D01*
X0199724Y0004000D01*
X0200753Y0004426D01*
X0207126Y0010800D01*
X0209140Y0010800D01*
X0209738Y0011048D01*
X0215572Y0005214D01*
X0216360Y0004426D01*
X0217389Y0004000D01*
X0249724Y0004000D01*
X0250753Y0004426D01*
X0254532Y0008206D01*
X0255320Y0008993D01*
X0255746Y0010023D01*
X0255746Y0011465D01*
X0256345Y0011713D01*
X0258033Y0013401D01*
X0258946Y0015607D01*
X0258946Y0017993D01*
X0258033Y0020199D01*
X0256345Y0021887D01*
X0254140Y0022800D01*
X0251753Y0022800D01*
X0249547Y0021887D01*
X0247860Y0020199D01*
X0246946Y0017993D01*
X0246946Y0015607D01*
X0247860Y0013401D01*
X0249547Y0011713D01*
X0249953Y0011546D01*
X0248007Y0009600D01*
X0219106Y0009600D01*
X0213698Y0015008D01*
X0213946Y0015607D01*
X0213946Y0017993D01*
X0213033Y0020199D01*
X0211345Y0021887D01*
X0209140Y0022800D01*
X0206753Y0022800D01*
X0204547Y0021887D01*
X0202860Y0020199D01*
X0201946Y0017993D01*
X0201946Y0015607D01*
X0202552Y0014145D01*
X0198007Y0009600D01*
X0166967Y0009600D01*
X0166967Y0012335D01*
X0168033Y0013401D01*
X0168946Y0015607D01*
X0168946Y0017993D01*
X0168033Y0020199D01*
X0166345Y0021887D01*
X0165746Y0022135D01*
X0165746Y0025577D01*
X0165320Y0026607D01*
X0164532Y0027394D01*
X0153967Y0037960D01*
X0153967Y0042640D01*
X0155526Y0044200D01*
X0156658Y0044200D01*
X0158767Y0046309D01*
X0158767Y0049291D01*
X0157058Y0051000D01*
X0211007Y0051000D01*
X0212581Y0049426D01*
X0213305Y0049126D01*
X0216260Y0046171D01*
X0215867Y0045778D01*
X0215867Y0037822D01*
X0217039Y0036650D01*
X0223814Y0036650D01*
X0224167Y0037003D01*
X0224519Y0036650D01*
X0231294Y0036650D01*
X0232466Y0037822D01*
X0232466Y0045778D01*
X0232073Y0046171D01*
X0235202Y0049300D01*
X0236658Y0049300D01*
X0236658Y0048060D01*
X0240230Y0048060D01*
X0243801Y0048060D01*
X0243801Y0049872D01*
X0243679Y0050329D01*
X0243442Y0050740D01*
X0243107Y0051075D01*
X0242696Y0051312D01*
X0242238Y0051435D01*
X0240230Y0051435D01*
X0240230Y0048060D01*
X0240230Y0048060D01*
X0240230Y0048060D01*
X0243801Y0048060D01*
X0243801Y0046248D01*
X0243679Y0045790D01*
X0243442Y0045380D01*
X0243107Y0045045D01*
X0242696Y0044808D01*
X0242238Y0044685D01*
X0240230Y0044685D01*
X0240230Y0048060D01*
X0240230Y0048060D01*
X0240230Y0051435D01*
X0239660Y0051435D01*
X0240190Y0051965D01*
X0242830Y0051965D01*
X0244001Y0053137D01*
X0244001Y0057943D01*
X0242830Y0059115D01*
X0237630Y0059115D01*
X0236458Y0057943D01*
X0236458Y0055304D01*
X0235454Y0054300D01*
X0233669Y0054300D01*
X0232751Y0053919D01*
X0226491Y0047660D01*
X0225787Y0046956D01*
X0225785Y0046950D01*
X0224519Y0046950D01*
X0224167Y0046597D01*
X0223814Y0046950D01*
X0222549Y0046950D01*
X0222546Y0046956D01*
X0221843Y0047660D01*
X0216840Y0052662D01*
X0216540Y0053386D01*
X0214540Y0055386D01*
X0213753Y0056174D01*
X0212724Y0056600D01*
X0152767Y0056600D01*
X0152767Y0058200D01*
X0155658Y0058200D01*
X0156537Y0059079D01*
X0156537Y0058924D01*
X0157708Y0057753D01*
X0180625Y0057753D01*
X0181797Y0058924D01*
X0181797Y0064000D01*
X0189440Y0064000D01*
X0190469Y0064426D01*
X0191257Y0065214D01*
X0195071Y0069028D01*
X0197385Y0069028D01*
X0197585Y0069228D01*
X0199413Y0069228D01*
X0199413Y0072763D01*
X0199487Y0072763D01*
X0199487Y0069228D01*
X0201360Y0069228D01*
X0201818Y0069351D01*
X0202229Y0069588D01*
X0202564Y0069923D01*
X0202801Y0070334D01*
X0202923Y0070791D01*
X0202923Y0072763D01*
X0199487Y0072763D01*
X0199487Y0072837D01*
X0199413Y0072837D01*
X0199413Y0076372D01*
X0197585Y0076372D01*
X0197385Y0076572D01*
X0192382Y0076572D01*
X0191210Y0075400D01*
X0191210Y0073087D01*
X0187723Y0069600D01*
X0181797Y0069600D01*
X0181797Y0084991D01*
X0180625Y0086162D01*
X0157708Y0086162D01*
X0156537Y0084991D01*
X0156537Y0064521D01*
X0155658Y0065400D01*
X0152675Y0065400D01*
X0151967Y0064691D01*
X0151967Y0094509D01*
X0152767Y0095309D01*
X0152767Y0096440D01*
X0154224Y0097898D01*
X0156222Y0097898D01*
X0156222Y0096720D01*
X0157393Y0095548D01*
X0162987Y0095548D01*
X0164159Y0096720D01*
X0164159Y0104676D01*
X0162987Y0105847D01*
X0161667Y0105847D01*
X0161667Y0118501D01*
X0163145Y0118501D01*
X0164316Y0119672D01*
X0164316Y0120560D01*
X0165924Y0120560D01*
X0166843Y0120940D01*
X0170583Y0124681D01*
X0171286Y0125384D01*
X0171667Y0126303D01*
X0171667Y0133894D01*
X0171948Y0133894D01*
X0173119Y0135066D01*
X0173119Y0141841D01*
X0172854Y0142106D01*
X0172919Y0142350D01*
X0172919Y0144667D01*
X0168646Y0144667D01*
X0168646Y0145626D01*
X0167687Y0145626D01*
X0167687Y0144667D01*
X0163414Y0144667D01*
X0163414Y0142350D01*
X0163479Y0142106D01*
X0163214Y0141841D01*
X0163214Y0135066D01*
X0164385Y0133894D01*
X0166667Y0133894D01*
X0166667Y0127836D01*
X0164391Y0125560D01*
X0164316Y0125560D01*
X0164316Y0126447D01*
X0163964Y0126800D01*
X0164316Y0127153D01*
X0164316Y0133928D01*
X0163145Y0135099D01*
X0160707Y0135099D01*
X0160707Y0137357D01*
X0160281Y0138386D01*
X0159493Y0139174D01*
X0158464Y0139600D01*
X0155326Y0139600D01*
X0154040Y0140886D01*
X0153253Y0141674D01*
X0152224Y0142100D01*
X0149458Y0142100D01*
X0148658Y0142900D01*
X0145675Y0142900D01*
X0143567Y0140791D01*
X0143567Y0139188D01*
X0141155Y0141600D01*
X0139367Y0141600D01*
X0139367Y0137000D01*
X0143967Y0137000D01*
X0143967Y0137409D01*
X0145675Y0135700D01*
X0148658Y0135700D01*
X0149458Y0136500D01*
X0150507Y0136500D01*
X0151367Y0135640D01*
X0151367Y0120581D01*
X0149100Y0120581D01*
X0146886Y0118366D01*
X0146886Y0116979D01*
X0144507Y0114600D01*
X0143635Y0114600D01*
X0143575Y0114746D01*
X0142112Y0116208D01*
X0140365Y0116932D01*
X0141086Y0117166D01*
X0141787Y0117524D01*
X0142424Y0117986D01*
X0142980Y0118543D01*
X0143443Y0119179D01*
X0143800Y0119881D01*
X0144044Y0120629D01*
X0144167Y0121406D01*
X0144167Y0121714D01*
X0139253Y0121714D01*
X0139253Y0121886D01*
X0144167Y0121886D01*
X0144167Y0122194D01*
X0144044Y0122971D01*
X0143800Y0123719D01*
X0143443Y0124421D01*
X0142980Y0125057D01*
X0142424Y0125614D01*
X0141787Y0126076D01*
X0141086Y0126434D01*
X0140337Y0126677D01*
X0139560Y0126800D01*
X0139252Y0126800D01*
X0139252Y0121886D01*
X0139081Y0121886D01*
X0139081Y0126800D01*
X0138773Y0126800D01*
X0137996Y0126677D01*
X0137247Y0126434D01*
X0136546Y0126076D01*
X0135909Y0125614D01*
X0135353Y0125057D01*
X0134890Y0124421D01*
X0134533Y0123719D01*
X0134299Y0122998D01*
X0133575Y0124746D01*
X0132112Y0126208D01*
X0130586Y0126841D01*
X0127948Y0129479D01*
X0127948Y0130866D01*
X0125733Y0133081D01*
X0122600Y0133081D01*
X0121667Y0132147D01*
X0121667Y0132229D01*
X0124167Y0134729D01*
X0127096Y0131800D01*
X0131238Y0131800D01*
X0134167Y0134729D01*
X0134167Y0138871D01*
X0131238Y0141800D01*
X0127096Y0141800D01*
X0124167Y0138871D01*
X0124167Y0134729D01*
X0124167Y0138871D01*
X0121967Y0141071D01*
X0121967Y0145357D01*
X0121540Y0146386D01*
X0121126Y0146800D01*
X0127800Y0153474D01*
X0128226Y0154503D01*
X0128226Y0161650D01*
X0128814Y0161650D01*
X0129167Y0162003D01*
X0129519Y0161650D01*
X0136294Y0161650D01*
X0137466Y0162822D01*
X0137466Y0167399D01*
X0143587Y0173520D01*
X0148499Y0173520D01*
X0149308Y0174330D01*
X0149557Y0174080D01*
X0149968Y0173843D01*
X0150426Y0173720D01*
X0153471Y0173720D01*
X0153471Y0177816D01*
X0154863Y0177816D01*
X0154863Y0173720D01*
X0157908Y0173720D01*
X0158365Y0173843D01*
X0158776Y0174080D01*
X0159111Y0174415D01*
X0159348Y0174826D01*
X0159471Y0175283D01*
X0159471Y0177817D01*
X0154863Y0177817D01*
X0154863Y0179209D01*
X0153471Y0179209D01*
X0153471Y0183305D01*
X0150426Y0183305D01*
X0149968Y0183182D01*
X0149557Y0182945D01*
X0149308Y0182696D01*
X0148499Y0183505D01*
X0146667Y0183505D01*
X0146667Y0185764D01*
X0163639Y0202737D01*
X0164675Y0201700D01*
X0167658Y0201700D01*
X0169767Y0203809D01*
X0169767Y0206791D01*
X0167658Y0208900D01*
X0164675Y0208900D01*
X0163575Y0207800D01*
X0162169Y0207800D01*
X0161251Y0207419D01*
X0142047Y0188216D01*
X0141667Y0187297D01*
X0141667Y0183505D01*
X0139834Y0183505D01*
X0139167Y0182837D01*
X0138499Y0183505D01*
X0132710Y0183505D01*
X0127055Y0189160D01*
X0126316Y0189466D01*
X0126316Y0190428D01*
X0125145Y0191599D01*
X0117189Y0191599D01*
X0116967Y0191377D01*
X0116967Y0198909D01*
X0117675Y0198200D01*
X0120658Y0198200D01*
X0122767Y0200309D01*
X0122767Y0201440D01*
X0124040Y0202714D01*
X0124159Y0203001D01*
X0125645Y0203001D01*
X0126816Y0204172D01*
X0126816Y0210947D01*
X0126464Y0211300D01*
X0126816Y0211653D01*
X0126816Y0218428D01*
X0126415Y0218829D01*
X0128086Y0220500D01*
X0131876Y0220500D01*
X0132296Y0220080D01*
X0129834Y0220080D01*
X0128663Y0218908D01*
X0128663Y0211267D01*
X0129834Y0210095D01*
X0138499Y0210095D01*
X0139308Y0210904D01*
X0139557Y0210655D01*
X0139968Y0210418D01*
X0140426Y0210295D01*
X0143471Y0210295D01*
X0143471Y0214391D01*
X0144863Y0214391D01*
X0144863Y0210295D01*
X0147908Y0210295D01*
X0148365Y0210418D01*
X0148776Y0210655D01*
X0149025Y0210904D01*
X0149834Y0210095D01*
X0158499Y0210095D01*
X0159671Y0211267D01*
X0159671Y0218908D01*
X0158499Y0220080D01*
X0157537Y0220080D01*
X0157767Y0220309D01*
X0157767Y0223291D01*
X0155658Y0225400D01*
X0152675Y0225400D01*
X0150567Y0223291D01*
X0150567Y0220309D01*
X0150796Y0220080D01*
X0149834Y0220080D01*
X0149025Y0219270D01*
X0148776Y0219520D01*
X0148365Y0219757D01*
X0147908Y0219880D01*
X0144863Y0219880D01*
X0144863Y0215784D01*
X0143471Y0215784D01*
X0143471Y0219880D01*
X0140426Y0219880D01*
X0139968Y0219757D01*
X0139557Y0219520D01*
X0139308Y0219270D01*
X0138499Y0220080D01*
X0136037Y0220080D01*
X0137767Y0221809D01*
X0137767Y0223720D01*
X0138471Y0223720D01*
X0138471Y0227816D01*
X0139863Y0227816D01*
X0139863Y0223720D01*
X0142908Y0223720D01*
X0143365Y0223843D01*
X0143776Y0224080D01*
X0144111Y0224415D01*
X0144348Y0224826D01*
X0144471Y0225283D01*
X0144471Y0227817D01*
X0139863Y0227817D01*
X0139863Y0229209D01*
X0138471Y0229209D01*
X0138471Y0233305D01*
X0135426Y0233305D01*
X0134968Y0233182D01*
X0134557Y0232945D01*
X0134308Y0232696D01*
X0133499Y0233505D01*
X0124834Y0233505D01*
X0124167Y0232837D01*
X0123499Y0233505D01*
X0114834Y0233505D01*
X0113663Y0232333D01*
X0113663Y0231013D01*
X0110497Y0231013D01*
X0110497Y0235660D01*
X0109986Y0236172D01*
X0110175Y0236499D01*
X0110297Y0236957D01*
X0110297Y0239273D01*
X0105827Y0239273D01*
X0105827Y0240232D01*
X0104868Y0240232D01*
X0104868Y0244112D01*
X0101961Y0244112D01*
X0101503Y0243989D01*
X0101093Y0243752D01*
X0100758Y0243417D01*
X0100521Y0243007D01*
X0100398Y0242549D01*
X0100398Y0240581D01*
X0099345Y0240581D01*
X0096320Y0243606D01*
X0097948Y0245234D01*
X0097948Y0248366D01*
X0095733Y0250581D01*
X0093086Y0250581D01*
X0092466Y0251201D01*
X0092466Y0255778D01*
X0091294Y0256950D01*
X0084519Y0256950D01*
X0084167Y0256597D01*
X0083814Y0256950D01*
X0077039Y0256950D01*
X0076252Y0256162D01*
X0070110Y0256162D01*
X0068974Y0255027D01*
X0068835Y0255267D01*
X0068500Y0255603D01*
X0068090Y0255840D01*
X0067632Y0255962D01*
X0065414Y0255962D01*
X0065414Y0252181D01*
X0064652Y0252181D01*
X0064652Y0255962D01*
X0062434Y0255962D01*
X0061976Y0255840D01*
X0061565Y0255603D01*
X0061230Y0255267D01*
X0060993Y0254857D01*
X0060871Y0254399D01*
X0060871Y0252181D01*
X0064652Y0252181D01*
X0064652Y0251419D01*
X0065414Y0251419D01*
X0065414Y0247638D01*
X0067632Y0247638D01*
X0068090Y0247760D01*
X0068500Y0247997D01*
X0068835Y0248333D01*
X0068974Y0248573D01*
X0070110Y0247438D01*
X0076252Y0247438D01*
X0076889Y0246800D01*
X0076252Y0246162D01*
X0070110Y0246162D01*
X0068974Y0245027D01*
X0068835Y0245267D01*
X0068500Y0245603D01*
X0068090Y0245840D01*
X0067632Y0245962D01*
X0065414Y0245962D01*
X0065414Y0242181D01*
X0064652Y0242181D01*
X0064652Y0245962D01*
X0062434Y0245962D01*
X0061976Y0245840D01*
X0061565Y0245603D01*
X0061230Y0245267D01*
X0060993Y0244857D01*
X0060871Y0244399D01*
X0060871Y0242181D01*
X0064652Y0242181D01*
X0064652Y0241419D01*
X0065414Y0241419D01*
X0065414Y0237638D01*
X0067632Y0237638D01*
X0068090Y0237760D01*
X0068500Y0237997D01*
X0068835Y0238333D01*
X0068974Y0238573D01*
X0070110Y0237438D01*
X0076252Y0237438D01*
X0077039Y0236650D01*
X0083814Y0236650D01*
X0084167Y0237003D01*
X0084519Y0236650D01*
X0091294Y0236650D01*
X0092466Y0237822D01*
X0092466Y0239000D01*
X0093007Y0239000D01*
X0095386Y0236621D01*
X0095386Y0236550D01*
X0086688Y0236550D01*
X0085517Y0235378D01*
X0084389Y0236781D02*
X0083945Y0236781D01*
X0087907Y0241800D02*
X0094167Y0241800D01*
X0099167Y0236800D01*
X0095226Y0236781D02*
X0091425Y0236781D01*
X0092466Y0238380D02*
X0093627Y0238380D01*
X0096751Y0243175D02*
X0100618Y0243175D01*
X0100398Y0241577D02*
X0098350Y0241577D01*
X0097488Y0244774D02*
X0146863Y0244774D01*
X0146517Y0244428D02*
X0146517Y0237653D01*
X0146870Y0237300D01*
X0146517Y0236947D01*
X0146517Y0230172D01*
X0147689Y0229001D01*
X0155645Y0229001D01*
X0156260Y0229616D01*
X0157675Y0228200D01*
X0160658Y0228200D01*
X0162767Y0230309D01*
X0162767Y0233291D01*
X0160658Y0235400D01*
X0159102Y0235400D01*
X0158823Y0235679D01*
X0157904Y0236060D01*
X0156816Y0236060D01*
X0156816Y0236947D01*
X0156464Y0237300D01*
X0156816Y0237653D01*
X0156816Y0237803D01*
X0157100Y0237519D01*
X0160233Y0237519D01*
X0160792Y0238078D01*
X0160792Y0237232D01*
X0160915Y0236775D01*
X0161151Y0236364D01*
X0161487Y0236029D01*
X0161897Y0235792D01*
X0162355Y0235669D01*
X0164167Y0235669D01*
X0165978Y0235669D01*
X0166436Y0235792D01*
X0166667Y0235925D01*
X0166667Y0234391D01*
X0165567Y0233291D01*
X0165567Y0230309D01*
X0167675Y0228200D01*
X0169350Y0228200D01*
X0168623Y0226446D01*
X0168623Y0217154D01*
X0169467Y0215117D01*
X0171027Y0213557D01*
X0171792Y0213240D01*
X0172047Y0212624D01*
X0172751Y0211921D01*
X0175517Y0209154D01*
X0175517Y0204153D01*
X0176029Y0203641D01*
X0175840Y0203314D01*
X0175717Y0202856D01*
X0175717Y0200539D01*
X0180187Y0200539D01*
X0180187Y0199580D01*
X0181146Y0199580D01*
X0181146Y0195701D01*
X0184053Y0195701D01*
X0184511Y0195823D01*
X0184921Y0196060D01*
X0185257Y0196396D01*
X0185494Y0196806D01*
X0185616Y0197264D01*
X0185616Y0199580D01*
X0181146Y0199580D01*
X0181146Y0200539D01*
X0185616Y0200539D01*
X0185616Y0202856D01*
X0185494Y0203314D01*
X0185305Y0203641D01*
X0185816Y0204153D01*
X0185816Y0205743D01*
X0186199Y0204817D01*
X0187184Y0203833D01*
X0190667Y0200350D01*
X0190667Y0198250D01*
X0189349Y0196932D01*
X0188816Y0195646D01*
X0188816Y0191104D01*
X0189349Y0189817D01*
X0189816Y0189350D01*
X0189816Y0188003D01*
X0190197Y0187085D01*
X0193751Y0183531D01*
X0194669Y0183150D01*
X0202082Y0183150D01*
X0202763Y0182469D01*
X0204812Y0182469D01*
X0207248Y0180033D01*
X0207951Y0179330D01*
X0208870Y0178950D01*
X0210082Y0178950D01*
X0210763Y0178269D01*
X0215570Y0178269D01*
X0216741Y0179440D01*
X0216741Y0182540D01*
X0217592Y0181690D01*
X0217592Y0179440D01*
X0218763Y0178269D01*
X0223570Y0178269D01*
X0224741Y0179440D01*
X0224741Y0183459D01*
X0223901Y0184300D01*
X0226575Y0184300D01*
X0226754Y0184121D01*
X0226092Y0183459D01*
X0226092Y0179440D01*
X0227263Y0178269D01*
X0232070Y0178269D01*
X0233241Y0179440D01*
X0233241Y0183106D01*
X0233714Y0183578D01*
X0233714Y0178259D01*
X0233979Y0177994D01*
X0233914Y0177750D01*
X0233914Y0175433D01*
X0238187Y0175433D01*
X0238187Y0174474D01*
X0233914Y0174474D01*
X0233914Y0172158D01*
X0234037Y0171700D01*
X0234274Y0171289D01*
X0234609Y0170954D01*
X0235019Y0170717D01*
X0235477Y0170594D01*
X0238187Y0170594D01*
X0238187Y0174474D01*
X0239146Y0174474D01*
X0239146Y0170594D01*
X0241856Y0170594D01*
X0242314Y0170717D01*
X0242725Y0170954D01*
X0242871Y0171101D01*
X0242912Y0171060D01*
X0243322Y0170823D01*
X0243780Y0170701D01*
X0246687Y0170701D01*
X0246687Y0174580D01*
X0247646Y0174580D01*
X0247646Y0170701D01*
X0250553Y0170701D01*
X0251011Y0170823D01*
X0251421Y0171060D01*
X0251757Y0171396D01*
X0251994Y0171806D01*
X0252116Y0172264D01*
X0252116Y0174580D01*
X0247646Y0174580D01*
X0247646Y0175539D01*
X0252116Y0175539D01*
X0252116Y0177856D01*
X0251994Y0178314D01*
X0251805Y0178641D01*
X0252316Y0179153D01*
X0252316Y0185928D01*
X0252073Y0186171D01*
X0256286Y0190384D01*
X0256667Y0191303D01*
X0256667Y0194366D01*
X0257127Y0193906D01*
X0265954Y0185079D01*
X0265117Y0183056D01*
X0265117Y0180858D01*
X0265958Y0178828D01*
X0267512Y0177274D01*
X0269543Y0176432D01*
X0278791Y0176432D01*
X0280821Y0177274D01*
X0282376Y0178828D01*
X0283217Y0180858D01*
X0283217Y0183056D01*
X0282376Y0185087D01*
X0280821Y0186641D01*
X0278791Y0187482D01*
X0273733Y0187482D01*
X0262767Y0198449D01*
X0262767Y0227516D01*
X0262219Y0228839D01*
X0257858Y0233200D01*
X0260658Y0233200D01*
X0260758Y0233300D01*
X0262717Y0233300D01*
X0265667Y0230350D01*
X0265667Y0226261D01*
X0266096Y0225225D01*
X0265958Y0225087D01*
X0265117Y0223056D01*
X0265117Y0220858D01*
X0265958Y0218828D01*
X0267512Y0217274D01*
X0269543Y0216432D01*
X0278791Y0216432D01*
X0280821Y0217274D01*
X0282376Y0218828D01*
X0283217Y0220858D01*
X0283217Y0223056D01*
X0282376Y0225087D01*
X0280821Y0226641D01*
X0278791Y0227482D01*
X0273591Y0227482D01*
X0272667Y0228407D01*
X0272667Y0232496D01*
X0272134Y0233783D01*
X0271149Y0234767D01*
X0269799Y0236118D01*
X0278791Y0236118D01*
X0280821Y0236959D01*
X0282376Y0238513D01*
X0283217Y0240544D01*
X0283217Y0242742D01*
X0282376Y0244772D01*
X0280821Y0246326D01*
X0278791Y0247168D01*
X0269543Y0247168D01*
X0267512Y0246326D01*
X0265958Y0244772D01*
X0265117Y0242742D01*
X0265117Y0240544D01*
X0265291Y0240123D01*
X0264863Y0240300D01*
X0260758Y0240300D01*
X0260658Y0240400D01*
X0257767Y0240400D01*
X0257767Y0242516D01*
X0257219Y0243839D01*
X0251706Y0249352D01*
X0251706Y0249352D01*
X0251158Y0249900D01*
X0248175Y0249900D01*
X0247627Y0249352D01*
X0246615Y0248339D01*
X0246067Y0247791D01*
X0246067Y0244809D01*
X0246615Y0244261D01*
X0250476Y0240400D01*
X0247675Y0240400D01*
X0245567Y0238291D01*
X0245567Y0236736D01*
X0243131Y0234300D01*
X0243049Y0234300D01*
X0243866Y0235117D01*
X0244710Y0237154D01*
X0244710Y0246446D01*
X0243866Y0248483D01*
X0242307Y0250043D01*
X0240269Y0250887D01*
X0238064Y0250887D01*
X0236027Y0250043D01*
X0234467Y0248483D01*
X0234167Y0247758D01*
X0233866Y0248483D01*
X0232307Y0250043D01*
X0230269Y0250887D01*
X0228064Y0250887D01*
X0226027Y0250043D01*
X0224467Y0248483D01*
X0224167Y0247758D01*
X0223866Y0248483D01*
X0222307Y0250043D01*
X0220269Y0250887D01*
X0218064Y0250887D01*
X0216027Y0250043D01*
X0214467Y0248483D01*
X0214062Y0247505D01*
X0213737Y0248144D01*
X0213242Y0248824D01*
X0212648Y0249419D01*
X0211967Y0249913D01*
X0211218Y0250295D01*
X0210418Y0250555D01*
X0209587Y0250687D01*
X0209548Y0250687D01*
X0209548Y0242181D01*
X0208786Y0242181D01*
X0208786Y0250687D01*
X0208746Y0250687D01*
X0207915Y0250555D01*
X0207116Y0250295D01*
X0206366Y0249913D01*
X0205686Y0249419D01*
X0205091Y0248824D01*
X0204667Y0248240D01*
X0204667Y0254209D01*
X0205767Y0255309D01*
X0205767Y0258291D01*
X0203658Y0260400D01*
X0200675Y0260400D01*
X0198567Y0258291D01*
X0198567Y0255309D01*
X0199667Y0254209D01*
X0199667Y0250887D01*
X0198064Y0250887D01*
X0196027Y0250043D01*
X0194467Y0248483D01*
X0194167Y0247758D01*
X0193866Y0248483D01*
X0192307Y0250043D01*
X0191667Y0250308D01*
X0191667Y0252297D01*
X0191286Y0253216D01*
X0185583Y0258919D01*
X0184664Y0259300D01*
X0177053Y0259300D01*
X0174284Y0262069D01*
X0173365Y0262450D01*
X0167251Y0262450D01*
X0166967Y0262734D01*
X0166967Y0265253D01*
X0167948Y0266234D01*
X0167948Y0269366D01*
X0165733Y0271581D01*
X0162600Y0271581D01*
X0160386Y0269366D01*
X0160386Y0266234D01*
X0161367Y0265253D01*
X0161367Y0262734D01*
X0160592Y0261959D01*
X0160592Y0257940D01*
X0161732Y0256800D01*
X0160592Y0255660D01*
X0160592Y0251641D01*
X0161667Y0250566D01*
X0161667Y0248034D01*
X0160592Y0246959D01*
X0160592Y0244722D01*
X0160233Y0245081D01*
X0157539Y0245081D01*
X0157767Y0245309D01*
X0157767Y0248291D01*
X0155658Y0250400D01*
X0152675Y0250400D01*
X0150567Y0248291D01*
X0150567Y0245599D01*
X0147689Y0245599D01*
X0146517Y0244428D01*
X0146517Y0243175D02*
X0110077Y0243175D01*
X0110175Y0243007D02*
X0109938Y0243417D01*
X0109603Y0243752D01*
X0109192Y0243989D01*
X0108734Y0244112D01*
X0105827Y0244112D01*
X0105827Y0240232D01*
X0110297Y0240232D01*
X0110297Y0242549D01*
X0110175Y0243007D01*
X0110297Y0241577D02*
X0146517Y0241577D01*
X0146517Y0239978D02*
X0105827Y0239978D01*
X0105827Y0241577D02*
X0104868Y0241577D01*
X0104868Y0243175D02*
X0105827Y0243175D01*
X0110297Y0238380D02*
X0146517Y0238380D01*
X0146517Y0236781D02*
X0110250Y0236781D01*
X0110497Y0235183D02*
X0146517Y0235183D01*
X0146517Y0233584D02*
X0110497Y0233584D01*
X0110497Y0231986D02*
X0113663Y0231986D01*
X0113663Y0225592D02*
X0042350Y0225592D01*
X0042832Y0223993D02*
X0101012Y0223993D01*
X0100386Y0222395D02*
X0043167Y0222395D01*
X0043167Y0220796D02*
X0100386Y0220796D01*
X0101422Y0219198D02*
X0042957Y0219198D01*
X0042528Y0217599D02*
X0049617Y0217599D01*
X0049617Y0216001D02*
X0041695Y0216001D01*
X0043163Y0214402D02*
X0049617Y0214402D01*
X0049617Y0212803D02*
X0044762Y0212803D01*
X0046360Y0211205D02*
X0049617Y0211205D01*
X0050532Y0209606D02*
X0047959Y0209606D01*
X0049557Y0208008D02*
X0058999Y0208008D01*
X0060597Y0206409D02*
X0051156Y0206409D01*
X0051667Y0204811D02*
X0062196Y0204811D01*
X0063794Y0203212D02*
X0051667Y0203212D01*
X0051667Y0201614D02*
X0065393Y0201614D01*
X0066991Y0200015D02*
X0061299Y0200015D01*
X0062897Y0198417D02*
X0067867Y0198417D01*
X0066408Y0196818D02*
X0062948Y0196818D01*
X0062934Y0195220D02*
X0065517Y0195220D01*
X0065517Y0193621D02*
X0061335Y0193621D01*
X0059167Y0196800D02*
X0049167Y0196800D01*
X0046367Y0196818D02*
X0043108Y0196818D01*
X0044707Y0195220D02*
X0046790Y0195220D01*
X0046305Y0193621D02*
X0056998Y0193621D01*
X0057035Y0200015D02*
X0051667Y0200015D01*
X0046667Y0200015D02*
X0020796Y0200015D01*
X0020844Y0200111D02*
X0021058Y0200770D01*
X0021167Y0201454D01*
X0021167Y0201800D01*
X0021167Y0202146D01*
X0021058Y0202830D01*
X0020844Y0203489D01*
X0020530Y0204106D01*
X0020123Y0204666D01*
X0019633Y0205156D01*
X0019073Y0205563D01*
X0018456Y0205878D01*
X0017797Y0206092D01*
X0017113Y0206200D01*
X0014167Y0206200D01*
X0014167Y0201800D01*
X0021167Y0201800D01*
X0014167Y0201800D01*
X0014167Y0201800D01*
X0014167Y0201800D01*
X0014167Y0197400D01*
X0017113Y0197400D01*
X0017797Y0197508D01*
X0018456Y0197722D01*
X0019073Y0198037D01*
X0019633Y0198444D01*
X0020123Y0198934D01*
X0020530Y0199494D01*
X0020844Y0200111D01*
X0021167Y0201614D02*
X0046667Y0201614D01*
X0046667Y0203212D02*
X0020934Y0203212D01*
X0019978Y0204811D02*
X0045683Y0204811D01*
X0044085Y0206409D02*
X0006167Y0206409D01*
X0006167Y0204811D02*
X0008355Y0204811D01*
X0008211Y0204666D02*
X0007803Y0204106D01*
X0007489Y0203489D01*
X0007275Y0202830D01*
X0007167Y0202146D01*
X0007167Y0201800D01*
X0007167Y0201454D01*
X0007275Y0200770D01*
X0007489Y0200111D01*
X0007803Y0199494D01*
X0008211Y0198934D01*
X0008700Y0198444D01*
X0009261Y0198037D01*
X0009878Y0197722D01*
X0010536Y0197508D01*
X0011220Y0197400D01*
X0014167Y0197400D01*
X0014167Y0201800D01*
X0014167Y0201800D01*
X0014167Y0206200D01*
X0011220Y0206200D01*
X0010536Y0206092D01*
X0009878Y0205878D01*
X0009261Y0205563D01*
X0008700Y0205156D01*
X0008211Y0204666D01*
X0007399Y0203212D02*
X0006167Y0203212D01*
X0006167Y0201614D02*
X0007167Y0201614D01*
X0007167Y0201800D02*
X0014167Y0201800D01*
X0014167Y0201800D01*
X0007167Y0201800D01*
X0007538Y0200015D02*
X0006167Y0200015D01*
X0006167Y0198417D02*
X0008737Y0198417D01*
X0006167Y0196818D02*
X0030225Y0196818D01*
X0028627Y0195220D02*
X0019852Y0195220D01*
X0019596Y0198417D02*
X0031824Y0198417D01*
X0034167Y0196800D02*
X0039167Y0196800D01*
X0044167Y0191800D01*
X0044167Y0181800D01*
X0039167Y0176800D01*
X0041897Y0174439D02*
X0056459Y0174439D01*
X0056386Y0172841D02*
X0033967Y0172841D01*
X0033967Y0174439D02*
X0036436Y0174439D01*
X0035567Y0176038D02*
X0033967Y0176038D01*
X0033967Y0177636D02*
X0035567Y0177636D01*
X0034167Y0181800D02*
X0031167Y0178800D01*
X0031167Y0156800D01*
X0031167Y0154800D01*
X0034167Y0151800D01*
X0029167Y0146800D01*
X0029167Y0131800D01*
X0026367Y0131279D02*
X0021367Y0131279D01*
X0021367Y0130885D02*
X0021367Y0132715D01*
X0020666Y0134406D01*
X0019372Y0135700D01*
X0017682Y0136400D01*
X0010652Y0136400D01*
X0008961Y0135700D01*
X0007667Y0134406D01*
X0006967Y0132715D01*
X0006967Y0130885D01*
X0007667Y0129194D01*
X0008961Y0127900D01*
X0010652Y0127200D01*
X0017682Y0127200D01*
X0019372Y0127900D01*
X0020666Y0129194D01*
X0021367Y0130885D01*
X0020868Y0129681D02*
X0026667Y0129681D01*
X0026667Y0128082D02*
X0019554Y0128082D01*
X0019372Y0125700D02*
X0017682Y0126400D01*
X0010652Y0126400D01*
X0008961Y0125700D01*
X0007667Y0124406D01*
X0006967Y0122715D01*
X0006967Y0120885D01*
X0007667Y0119194D01*
X0008961Y0117900D01*
X0010652Y0117200D01*
X0017682Y0117200D01*
X0019372Y0117900D01*
X0020666Y0119194D01*
X0021367Y0120885D01*
X0021367Y0122715D01*
X0020666Y0124406D01*
X0019372Y0125700D01*
X0020187Y0124885D02*
X0026667Y0124885D01*
X0026667Y0123287D02*
X0021130Y0123287D01*
X0021367Y0121688D02*
X0026667Y0121688D01*
X0026667Y0120090D02*
X0021037Y0120090D01*
X0019963Y0118491D02*
X0026667Y0118491D01*
X0026667Y0116893D02*
X0006167Y0116893D01*
X0006167Y0118491D02*
X0008370Y0118491D01*
X0007296Y0120090D02*
X0006167Y0120090D01*
X0006167Y0121688D02*
X0006967Y0121688D01*
X0007204Y0123287D02*
X0006167Y0123287D01*
X0006167Y0124885D02*
X0008147Y0124885D01*
X0006167Y0126484D02*
X0026667Y0126484D01*
X0026367Y0132878D02*
X0021299Y0132878D01*
X0020596Y0134476D02*
X0026367Y0134476D01*
X0026367Y0136075D02*
X0018466Y0136075D01*
X0017682Y0137200D02*
X0019372Y0137900D01*
X0020666Y0139194D01*
X0021367Y0140885D01*
X0021367Y0142715D01*
X0020666Y0144406D01*
X0019372Y0145700D01*
X0017682Y0146400D01*
X0010652Y0146400D01*
X0008961Y0145700D01*
X0007667Y0144406D01*
X0006967Y0142715D01*
X0006967Y0140885D01*
X0007667Y0139194D01*
X0008961Y0137900D01*
X0010652Y0137200D01*
X0017682Y0137200D01*
X0018825Y0137673D02*
X0026367Y0137673D01*
X0026367Y0139272D02*
X0020698Y0139272D01*
X0021361Y0140870D02*
X0026367Y0140870D01*
X0026367Y0142469D02*
X0021367Y0142469D01*
X0021552Y0144068D02*
X0020806Y0144068D01*
X0020386Y0145666D02*
X0019406Y0145666D01*
X0020386Y0147265D02*
X0017837Y0147265D01*
X0020335Y0148863D02*
X0020882Y0148863D01*
X0021191Y0150462D02*
X0022481Y0150462D01*
X0021367Y0152060D02*
X0029947Y0152060D01*
X0028868Y0150462D02*
X0025852Y0150462D01*
X0028609Y0153659D02*
X0020976Y0153659D01*
X0019167Y0156800D02*
X0031167Y0156800D01*
X0033967Y0156856D02*
X0038367Y0156856D01*
X0038367Y0158454D02*
X0033967Y0158454D01*
X0033967Y0160053D02*
X0038367Y0160053D01*
X0038367Y0161651D02*
X0033967Y0161651D01*
X0033967Y0163250D02*
X0038367Y0163250D01*
X0038367Y0164848D02*
X0033967Y0164848D01*
X0033967Y0166447D02*
X0038367Y0166447D01*
X0039283Y0168045D02*
X0033967Y0168045D01*
X0033967Y0169644D02*
X0057976Y0169644D01*
X0056386Y0171242D02*
X0033967Y0171242D01*
X0026167Y0168800D02*
X0026167Y0174800D01*
X0024167Y0176800D01*
X0039167Y0191800D01*
X0035897Y0193621D02*
X0034948Y0193621D01*
X0035430Y0192023D02*
X0033349Y0192023D01*
X0033831Y0190424D02*
X0031751Y0190424D01*
X0032233Y0188826D02*
X0020298Y0188826D01*
X0017748Y0187227D02*
X0030634Y0187227D01*
X0029036Y0185629D02*
X0018944Y0185629D01*
X0019073Y0185563D02*
X0018456Y0185878D01*
X0017797Y0186092D01*
X0017113Y0186200D01*
X0014167Y0186200D01*
X0014167Y0181800D01*
X0021167Y0181800D01*
X0021167Y0182146D01*
X0021058Y0182830D01*
X0020844Y0183489D01*
X0020530Y0184106D01*
X0020123Y0184666D01*
X0019633Y0185156D01*
X0019073Y0185563D01*
X0020568Y0184030D02*
X0027437Y0184030D01*
X0025839Y0182432D02*
X0021121Y0182432D01*
X0021167Y0181800D02*
X0014167Y0181800D01*
X0014167Y0181800D01*
X0014167Y0181800D01*
X0014167Y0177400D01*
X0017113Y0177400D01*
X0017797Y0177508D01*
X0018456Y0177722D01*
X0019073Y0178037D01*
X0019633Y0178444D01*
X0020123Y0178934D01*
X0020530Y0179494D01*
X0020844Y0180111D01*
X0021058Y0180770D01*
X0021167Y0181454D01*
X0021167Y0181800D01*
X0021068Y0180833D02*
X0024240Y0180833D01*
X0022642Y0179235D02*
X0020342Y0179235D01*
X0021482Y0177636D02*
X0018191Y0177636D01*
X0018556Y0176038D02*
X0021452Y0176038D01*
X0020633Y0174439D02*
X0022568Y0174439D01*
X0023367Y0172841D02*
X0021315Y0172841D01*
X0021367Y0171242D02*
X0023262Y0171242D01*
X0022386Y0169644D02*
X0021283Y0169644D01*
X0021967Y0168045D02*
X0022386Y0168045D01*
X0019167Y0167800D02*
X0018667Y0167300D01*
X0023167Y0162800D01*
X0024667Y0164300D01*
X0027667Y0164300D01*
X0018667Y0167300D02*
X0014167Y0171800D01*
X0009777Y0176038D02*
X0006167Y0176038D01*
X0006167Y0177636D02*
X0010143Y0177636D01*
X0009878Y0177722D02*
X0010536Y0177508D01*
X0011220Y0177400D01*
X0014167Y0177400D01*
X0014167Y0181800D01*
X0014167Y0181800D01*
X0014167Y0186200D01*
X0011220Y0186200D01*
X0010536Y0186092D01*
X0009878Y0185878D01*
X0009261Y0185563D01*
X0008700Y0185156D01*
X0008211Y0184666D01*
X0007803Y0184106D01*
X0007489Y0183489D01*
X0007275Y0182830D01*
X0007167Y0182146D01*
X0007167Y0181800D01*
X0007167Y0181454D01*
X0007275Y0180770D01*
X0007489Y0180111D01*
X0007803Y0179494D01*
X0008211Y0178934D01*
X0008700Y0178444D01*
X0009261Y0178037D01*
X0009878Y0177722D01*
X0007992Y0179235D02*
X0006167Y0179235D01*
X0006167Y0180833D02*
X0007265Y0180833D01*
X0007167Y0181800D02*
X0014167Y0181800D01*
X0014167Y0181800D01*
X0007167Y0181800D01*
X0007212Y0182432D02*
X0006167Y0182432D01*
X0006167Y0184030D02*
X0007765Y0184030D01*
X0006167Y0185629D02*
X0009389Y0185629D01*
X0010586Y0187227D02*
X0006167Y0187227D01*
X0006167Y0188826D02*
X0008035Y0188826D01*
X0007157Y0190424D02*
X0006167Y0190424D01*
X0006167Y0192023D02*
X0006967Y0192023D01*
X0007342Y0193621D02*
X0006167Y0193621D01*
X0006167Y0195220D02*
X0008481Y0195220D01*
X0014167Y0198417D02*
X0014167Y0198417D01*
X0014167Y0200015D02*
X0014167Y0200015D01*
X0014167Y0201614D02*
X0014167Y0201614D01*
X0014167Y0203212D02*
X0014167Y0203212D01*
X0014167Y0204811D02*
X0014167Y0204811D01*
X0006167Y0208008D02*
X0042486Y0208008D01*
X0040888Y0209606D02*
X0006167Y0209606D01*
X0006167Y0211205D02*
X0030008Y0211205D01*
X0035325Y0211205D02*
X0039289Y0211205D01*
X0026492Y0212803D02*
X0006167Y0212803D01*
X0006167Y0214402D02*
X0024778Y0214402D01*
X0023638Y0216001D02*
X0006167Y0216001D01*
X0006167Y0217599D02*
X0022805Y0217599D01*
X0022376Y0219198D02*
X0006167Y0219198D01*
X0006167Y0220796D02*
X0022167Y0220796D01*
X0014963Y0223993D02*
X0013363Y0223993D01*
X0013363Y0225592D02*
X0014963Y0225592D01*
X0014963Y0227190D02*
X0013363Y0227190D01*
X0013363Y0228789D02*
X0014963Y0228789D01*
X0014963Y0230387D02*
X0013363Y0230387D01*
X0013363Y0231986D02*
X0014963Y0231986D01*
X0014963Y0233584D02*
X0049817Y0233584D01*
X0049923Y0235183D02*
X0035839Y0235183D01*
X0035523Y0235072D02*
X0036615Y0235454D01*
X0037657Y0235956D01*
X0038636Y0236572D01*
X0039541Y0237293D01*
X0040359Y0238111D01*
X0041080Y0239015D01*
X0041696Y0239995D01*
X0042198Y0241037D01*
X0042580Y0242129D01*
X0042837Y0243257D01*
X0042942Y0244185D01*
X0033467Y0244185D01*
X0033467Y0245785D01*
X0042942Y0245785D01*
X0042837Y0246713D01*
X0042580Y0247841D01*
X0042198Y0248933D01*
X0041696Y0249975D01*
X0041080Y0250955D01*
X0040359Y0251859D01*
X0039541Y0252677D01*
X0038636Y0253399D01*
X0037657Y0254014D01*
X0036615Y0254516D01*
X0035523Y0254898D01*
X0034395Y0255155D01*
X0033467Y0255260D01*
X0033467Y0245785D01*
X0031867Y0245785D01*
X0031867Y0255260D01*
X0030939Y0255155D01*
X0029811Y0254898D01*
X0028719Y0254516D01*
X0027677Y0254014D01*
X0026697Y0253399D01*
X0025792Y0252677D01*
X0024974Y0251859D01*
X0024253Y0250955D01*
X0023638Y0249975D01*
X0023136Y0248933D01*
X0022754Y0247841D01*
X0022496Y0246713D01*
X0022392Y0245785D01*
X0031867Y0245785D01*
X0031867Y0244185D01*
X0033467Y0244185D01*
X0033467Y0234710D01*
X0034395Y0234815D01*
X0035523Y0235072D01*
X0033467Y0235183D02*
X0031867Y0235183D01*
X0031867Y0234710D02*
X0031867Y0244185D01*
X0022392Y0244185D01*
X0022496Y0243257D01*
X0022754Y0242129D01*
X0023136Y0241037D01*
X0023638Y0239995D01*
X0024253Y0239015D01*
X0024974Y0238111D01*
X0025792Y0237293D01*
X0026697Y0236572D01*
X0027677Y0235956D01*
X0028719Y0235454D01*
X0029811Y0235072D01*
X0030939Y0234815D01*
X0031867Y0234710D01*
X0031867Y0236781D02*
X0033467Y0236781D01*
X0033467Y0238380D02*
X0031867Y0238380D01*
X0031867Y0239978D02*
X0033467Y0239978D01*
X0033467Y0241577D02*
X0031867Y0241577D01*
X0031867Y0243175D02*
X0033467Y0243175D01*
X0033467Y0244774D02*
X0060971Y0244774D01*
X0060871Y0243175D02*
X0042818Y0243175D01*
X0042386Y0241577D02*
X0064652Y0241577D01*
X0064652Y0241419D02*
X0060871Y0241419D01*
X0060871Y0239201D01*
X0060993Y0238743D01*
X0061230Y0238333D01*
X0061565Y0237997D01*
X0061976Y0237760D01*
X0062434Y0237638D01*
X0064652Y0237638D01*
X0064652Y0241419D01*
X0064652Y0239978D02*
X0065414Y0239978D01*
X0065414Y0238380D02*
X0064652Y0238380D01*
X0061203Y0238380D02*
X0040573Y0238380D01*
X0041685Y0239978D02*
X0060871Y0239978D01*
X0064652Y0243175D02*
X0065414Y0243175D01*
X0065414Y0244774D02*
X0064652Y0244774D01*
X0064652Y0247638D02*
X0064652Y0251419D01*
X0060871Y0251419D01*
X0060871Y0249201D01*
X0060993Y0248743D01*
X0061230Y0248333D01*
X0061565Y0247997D01*
X0061976Y0247760D01*
X0062434Y0247638D01*
X0064652Y0247638D01*
X0064652Y0247971D02*
X0065414Y0247971D01*
X0065414Y0249569D02*
X0064652Y0249569D01*
X0064652Y0251168D02*
X0065414Y0251168D01*
X0065033Y0251800D02*
X0064167Y0252666D01*
X0064652Y0252766D02*
X0065414Y0252766D01*
X0065414Y0254365D02*
X0064652Y0254365D01*
X0060871Y0254365D02*
X0036928Y0254365D01*
X0039429Y0252766D02*
X0060871Y0252766D01*
X0060871Y0251168D02*
X0040910Y0251168D01*
X0041891Y0249569D02*
X0060871Y0249569D01*
X0061612Y0247971D02*
X0042534Y0247971D01*
X0042876Y0246372D02*
X0076462Y0246372D01*
X0069577Y0247971D02*
X0068454Y0247971D01*
X0069911Y0255963D02*
X0006167Y0255963D01*
X0006167Y0254365D02*
X0028405Y0254365D01*
X0025904Y0252766D02*
X0006167Y0252766D01*
X0006167Y0251168D02*
X0024423Y0251168D01*
X0023442Y0249569D02*
X0006167Y0249569D01*
X0006167Y0247971D02*
X0022799Y0247971D01*
X0022458Y0246372D02*
X0006167Y0246372D01*
X0006167Y0244774D02*
X0031867Y0244774D01*
X0031867Y0246372D02*
X0033467Y0246372D01*
X0033467Y0247971D02*
X0031867Y0247971D01*
X0031867Y0249569D02*
X0033467Y0249569D01*
X0033467Y0251168D02*
X0031867Y0251168D01*
X0031867Y0252766D02*
X0033467Y0252766D01*
X0033467Y0254365D02*
X0031867Y0254365D01*
X0022515Y0243175D02*
X0016632Y0243175D01*
X0014963Y0243175D02*
X0013363Y0243175D01*
X0013363Y0241577D02*
X0014963Y0241577D01*
X0014963Y0239978D02*
X0013363Y0239978D01*
X0013363Y0238380D02*
X0014963Y0238380D01*
X0014963Y0236781D02*
X0013363Y0236781D01*
X0013363Y0235183D02*
X0014963Y0235183D01*
X0021911Y0239978D02*
X0023648Y0239978D01*
X0023056Y0238380D02*
X0024760Y0238380D01*
X0023813Y0236781D02*
X0026434Y0236781D01*
X0024269Y0235183D02*
X0029495Y0235183D01*
X0022947Y0241577D02*
X0020146Y0241577D01*
X0011693Y0243175D02*
X0006167Y0243175D01*
X0006167Y0241577D02*
X0008179Y0241577D01*
X0006415Y0239978D02*
X0006167Y0239978D01*
X0006167Y0257562D02*
X0144869Y0257562D01*
X0143271Y0259160D02*
X0006167Y0259160D01*
X0006167Y0260759D02*
X0114171Y0260759D01*
X0113663Y0261267D02*
X0114834Y0260095D01*
X0123499Y0260095D01*
X0124308Y0260904D01*
X0124557Y0260655D01*
X0124968Y0260418D01*
X0125426Y0260295D01*
X0128471Y0260295D01*
X0128471Y0264391D01*
X0129863Y0264391D01*
X0129863Y0260295D01*
X0132908Y0260295D01*
X0133365Y0260418D01*
X0133776Y0260655D01*
X0134025Y0260904D01*
X0134834Y0260095D01*
X0142336Y0260095D01*
X0147751Y0254681D01*
X0148669Y0254300D01*
X0149389Y0254300D01*
X0150189Y0253501D01*
X0158145Y0253501D01*
X0159316Y0254672D01*
X0159316Y0261447D01*
X0158964Y0261800D01*
X0159316Y0262153D01*
X0159316Y0268928D01*
X0158145Y0270099D01*
X0150189Y0270099D01*
X0149017Y0268928D01*
X0149017Y0267581D01*
X0146100Y0267581D01*
X0144671Y0266151D01*
X0144671Y0268908D01*
X0143499Y0270080D01*
X0134834Y0270080D01*
X0134025Y0269270D01*
X0133776Y0269520D01*
X0133365Y0269757D01*
X0132908Y0269880D01*
X0129863Y0269880D01*
X0129863Y0265784D01*
X0128471Y0265784D01*
X0128471Y0269880D01*
X0125426Y0269880D01*
X0124968Y0269757D01*
X0124557Y0269520D01*
X0124308Y0269270D01*
X0123499Y0270080D01*
X0114834Y0270080D01*
X0113663Y0268908D01*
X0113663Y0261267D01*
X0113663Y0262357D02*
X0006167Y0262357D01*
X0006167Y0263956D02*
X0113663Y0263956D01*
X0113663Y0265554D02*
X0006167Y0265554D01*
X0006167Y0267153D02*
X0113663Y0267153D01*
X0113663Y0268751D02*
X0006167Y0268751D01*
X0006167Y0270350D02*
X0161369Y0270350D01*
X0160386Y0268751D02*
X0159316Y0268751D01*
X0159316Y0267153D02*
X0160386Y0267153D01*
X0161065Y0265554D02*
X0159316Y0265554D01*
X0159316Y0263956D02*
X0161367Y0263956D01*
X0160990Y0262357D02*
X0159316Y0262357D01*
X0159316Y0260759D02*
X0160592Y0260759D01*
X0160592Y0259160D02*
X0159316Y0259160D01*
X0159316Y0257562D02*
X0160970Y0257562D01*
X0160895Y0255963D02*
X0159316Y0255963D01*
X0159009Y0254365D02*
X0160592Y0254365D01*
X0160592Y0252766D02*
X0092466Y0252766D01*
X0092499Y0251168D02*
X0161065Y0251168D01*
X0161667Y0249569D02*
X0156489Y0249569D01*
X0157767Y0247971D02*
X0161603Y0247971D01*
X0160592Y0246372D02*
X0157767Y0246372D01*
X0160540Y0244774D02*
X0160592Y0244774D01*
X0162448Y0241769D02*
X0165663Y0241769D01*
X0165800Y0241631D01*
X0164167Y0241631D01*
X0164167Y0238651D01*
X0164167Y0238651D01*
X0164167Y0241631D01*
X0162448Y0241631D01*
X0162448Y0241769D01*
X0164167Y0241577D02*
X0164167Y0241577D01*
X0164167Y0239978D02*
X0164167Y0239978D01*
X0164167Y0238650D02*
X0164167Y0235669D01*
X0164167Y0238650D01*
X0164167Y0238650D01*
X0164167Y0238380D02*
X0164167Y0238380D01*
X0164167Y0236781D02*
X0164167Y0236781D01*
X0166667Y0235183D02*
X0160875Y0235183D01*
X0160913Y0236781D02*
X0156816Y0236781D01*
X0158407Y0241040D02*
X0151667Y0241040D01*
X0150567Y0246372D02*
X0097948Y0246372D01*
X0097948Y0247971D02*
X0150567Y0247971D01*
X0151845Y0249569D02*
X0096745Y0249569D01*
X0094167Y0246800D02*
X0092907Y0246800D01*
X0087907Y0251800D01*
X0092466Y0254365D02*
X0148513Y0254365D01*
X0146468Y0255963D02*
X0092281Y0255963D01*
X0076908Y0236781D02*
X0038899Y0236781D01*
X0038036Y0230387D02*
X0049817Y0230387D01*
X0049823Y0228789D02*
X0040090Y0228789D01*
X0041427Y0227190D02*
X0086548Y0227190D01*
X0085517Y0228789D02*
X0061710Y0228789D01*
X0061717Y0230387D02*
X0085517Y0230387D01*
X0096785Y0227190D02*
X0102461Y0227190D01*
X0100295Y0228789D02*
X0097817Y0228789D01*
X0097817Y0230387D02*
X0100198Y0230387D01*
X0100198Y0231986D02*
X0097817Y0231986D01*
X0104167Y0221800D02*
X0114167Y0221800D01*
X0114167Y0181800D01*
X0109167Y0176800D01*
X0109167Y0161800D01*
X0104167Y0156800D01*
X0089167Y0156800D01*
X0084167Y0151800D01*
X0084167Y0105300D01*
X0082041Y0103174D01*
X0082041Y0098700D01*
X0078891Y0098700D02*
X0078891Y0103000D01*
X0078541Y0103000D01*
X0078541Y0103932D01*
X0078467Y0104112D01*
X0078467Y0105640D01*
X0078540Y0105714D01*
X0078967Y0106743D01*
X0078967Y0109753D01*
X0079948Y0110734D01*
X0079948Y0113866D01*
X0077733Y0116081D01*
X0074600Y0116081D01*
X0072386Y0113866D01*
X0072386Y0110734D01*
X0073367Y0109753D01*
X0073367Y0108460D01*
X0073293Y0108386D01*
X0072867Y0107357D01*
X0072867Y0107100D01*
X0071110Y0107100D01*
X0070081Y0106674D01*
X0069293Y0105886D01*
X0069093Y0105686D01*
X0069093Y0122506D01*
X0075753Y0129166D01*
X0076540Y0129954D01*
X0076967Y0130983D01*
X0076967Y0135640D01*
X0081367Y0140040D01*
X0081367Y0106460D01*
X0080455Y0105548D01*
X0080455Y0105548D01*
X0079667Y0104760D01*
X0079241Y0103731D01*
X0079241Y0103000D01*
X0078891Y0103000D01*
X0078891Y0098700D01*
X0078891Y0098700D01*
X0078891Y0098700D01*
X0078891Y0094400D01*
X0077870Y0094400D01*
X0077670Y0094200D01*
X0073813Y0094200D01*
X0073613Y0094400D01*
X0072592Y0094400D01*
X0072592Y0098700D01*
X0072592Y0098700D01*
X0072592Y0094400D01*
X0072467Y0094400D01*
X0072467Y0089591D01*
X0073267Y0088791D01*
X0073267Y0085809D01*
X0071442Y0083984D01*
X0075551Y0079876D01*
X0082131Y0079876D01*
X0077581Y0084426D01*
X0077581Y0084426D01*
X0076793Y0085214D01*
X0076592Y0085700D01*
X0076175Y0085700D01*
X0074067Y0087809D01*
X0074067Y0090791D01*
X0076175Y0092900D01*
X0079158Y0092900D01*
X0081267Y0090791D01*
X0081267Y0089660D01*
X0081540Y0089386D01*
X0081967Y0088357D01*
X0081967Y0087960D01*
X0082548Y0087378D01*
X0082577Y0087448D01*
X0083017Y0087888D01*
X0083017Y0091027D01*
X0083382Y0091909D01*
X0084057Y0092585D01*
X0085673Y0094200D01*
X0080112Y0094200D01*
X0079912Y0094400D01*
X0078891Y0094400D01*
X0078891Y0098700D01*
X0078891Y0099309D02*
X0078891Y0099309D01*
X0078891Y0097711D02*
X0078891Y0097711D01*
X0078891Y0096112D02*
X0078891Y0096112D01*
X0078891Y0094514D02*
X0078891Y0094514D01*
X0080741Y0091317D02*
X0083136Y0091317D01*
X0083017Y0089718D02*
X0081267Y0089718D01*
X0081967Y0088120D02*
X0083017Y0088120D01*
X0079167Y0087800D02*
X0079167Y0086800D01*
X0085741Y0080225D01*
X0091067Y0080225D01*
X0091141Y0083300D02*
X0091067Y0083375D01*
X0091141Y0083300D02*
X0096667Y0083300D01*
X0098167Y0081800D01*
X0114167Y0081800D01*
X0129167Y0096800D01*
X0129167Y0101800D01*
X0139167Y0111800D01*
X0145667Y0111800D01*
X0150667Y0116800D01*
X0146800Y0116893D02*
X0140460Y0116893D01*
X0142929Y0118491D02*
X0147011Y0118491D01*
X0148609Y0120090D02*
X0143868Y0120090D01*
X0144167Y0121688D02*
X0151367Y0121688D01*
X0151367Y0123287D02*
X0143941Y0123287D01*
X0143105Y0124885D02*
X0151367Y0124885D01*
X0151367Y0126484D02*
X0140931Y0126484D01*
X0139252Y0126484D02*
X0139081Y0126484D01*
X0139081Y0124885D02*
X0139252Y0124885D01*
X0139252Y0123287D02*
X0139081Y0123287D01*
X0135228Y0124885D02*
X0133435Y0124885D01*
X0134179Y0123287D02*
X0134392Y0123287D01*
X0131447Y0126484D02*
X0137402Y0126484D01*
X0137178Y0132000D02*
X0138967Y0132000D01*
X0138967Y0136600D01*
X0139367Y0136600D01*
X0139367Y0137000D01*
X0138967Y0137000D01*
X0138967Y0141600D01*
X0137178Y0141600D01*
X0134367Y0138788D01*
X0134367Y0137000D01*
X0138967Y0137000D01*
X0138967Y0136600D01*
X0134367Y0136600D01*
X0134367Y0134812D01*
X0137178Y0132000D01*
X0136301Y0132878D02*
X0132316Y0132878D01*
X0133914Y0134476D02*
X0134702Y0134476D01*
X0134367Y0136075D02*
X0134167Y0136075D01*
X0134167Y0137673D02*
X0134367Y0137673D01*
X0134850Y0139272D02*
X0133766Y0139272D01*
X0132167Y0140870D02*
X0136449Y0140870D01*
X0138967Y0140870D02*
X0139367Y0140870D01*
X0139367Y0139272D02*
X0138967Y0139272D01*
X0138967Y0137673D02*
X0139367Y0137673D01*
X0139367Y0136600D02*
X0143967Y0136600D01*
X0143967Y0134812D01*
X0141155Y0132000D01*
X0139367Y0132000D01*
X0139367Y0136600D01*
X0139367Y0136075D02*
X0138967Y0136075D01*
X0138967Y0134476D02*
X0139367Y0134476D01*
X0139367Y0132878D02*
X0138967Y0132878D01*
X0142033Y0132878D02*
X0151367Y0132878D01*
X0151367Y0134476D02*
X0143631Y0134476D01*
X0143967Y0136075D02*
X0145301Y0136075D01*
X0143567Y0139272D02*
X0143483Y0139272D01*
X0143646Y0140870D02*
X0141884Y0140870D01*
X0145245Y0142469D02*
X0121967Y0142469D01*
X0121967Y0144068D02*
X0163414Y0144068D01*
X0163414Y0145626D02*
X0167687Y0145626D01*
X0167687Y0149505D01*
X0164977Y0149505D01*
X0164519Y0149383D01*
X0164109Y0149146D01*
X0163774Y0148811D01*
X0163537Y0148400D01*
X0163414Y0147942D01*
X0163414Y0145626D01*
X0163414Y0145666D02*
X0121839Y0145666D01*
X0121591Y0147265D02*
X0163414Y0147265D01*
X0163826Y0148863D02*
X0123189Y0148863D01*
X0124788Y0150462D02*
X0189803Y0150462D01*
X0189767Y0150374D02*
X0189767Y0140226D01*
X0190665Y0138058D01*
X0192325Y0136398D01*
X0194493Y0135500D01*
X0196840Y0135500D01*
X0199009Y0136398D01*
X0200668Y0138058D01*
X0201567Y0140226D01*
X0201567Y0144836D01*
X0209031Y0152300D01*
X0237565Y0152300D01*
X0236767Y0150374D01*
X0236767Y0140226D01*
X0237665Y0138058D01*
X0239325Y0136398D01*
X0241493Y0135500D01*
X0243840Y0135500D01*
X0245440Y0136163D01*
X0253933Y0127670D01*
X0255587Y0126985D01*
X0269121Y0126985D01*
X0270343Y0125763D01*
X0272824Y0124735D01*
X0275509Y0124735D01*
X0277990Y0125763D01*
X0279889Y0127661D01*
X0280917Y0130142D01*
X0280917Y0132828D01*
X0279889Y0135309D01*
X0277990Y0137207D01*
X0275509Y0138235D01*
X0272824Y0138235D01*
X0270343Y0137207D01*
X0269121Y0135985D01*
X0258346Y0135985D01*
X0248567Y0145764D01*
X0248567Y0150374D01*
X0247769Y0152300D01*
X0262303Y0152300D01*
X0265982Y0148621D01*
X0267248Y0147355D01*
X0268901Y0146670D01*
X0269121Y0146670D01*
X0270343Y0145448D01*
X0272824Y0144420D01*
X0275509Y0144420D01*
X0277990Y0145448D01*
X0279889Y0147347D01*
X0280917Y0149827D01*
X0280917Y0152513D01*
X0279889Y0154994D01*
X0277990Y0156892D01*
X0275509Y0157920D01*
X0272824Y0157920D01*
X0270410Y0156920D01*
X0266716Y0160615D01*
X0265062Y0161300D01*
X0206272Y0161300D01*
X0204618Y0160615D01*
X0203352Y0159349D01*
X0198440Y0154437D01*
X0196840Y0155100D01*
X0194493Y0155100D01*
X0192325Y0154202D01*
X0190665Y0152542D01*
X0189767Y0150374D01*
X0189767Y0148863D02*
X0172507Y0148863D01*
X0172560Y0148811D02*
X0172225Y0149146D01*
X0171814Y0149383D01*
X0171356Y0149505D01*
X0168646Y0149505D01*
X0168646Y0145626D01*
X0172919Y0145626D01*
X0172919Y0147942D01*
X0172797Y0148400D01*
X0172560Y0148811D01*
X0172919Y0147265D02*
X0189767Y0147265D01*
X0189767Y0145666D02*
X0172919Y0145666D01*
X0172919Y0144068D02*
X0189767Y0144068D01*
X0189767Y0142469D02*
X0172919Y0142469D01*
X0173119Y0140870D02*
X0189767Y0140870D01*
X0190162Y0139272D02*
X0173119Y0139272D01*
X0173119Y0137673D02*
X0191049Y0137673D01*
X0193105Y0136075D02*
X0173119Y0136075D01*
X0172530Y0134476D02*
X0247126Y0134476D01*
X0248725Y0132878D02*
X0171667Y0132878D01*
X0171667Y0131279D02*
X0250323Y0131279D01*
X0251922Y0129681D02*
X0171667Y0129681D01*
X0171667Y0128082D02*
X0253520Y0128082D01*
X0249044Y0123287D02*
X0292088Y0123287D01*
X0292088Y0124885D02*
X0275872Y0124885D01*
X0278711Y0126484D02*
X0292088Y0126484D01*
X0292088Y0128082D02*
X0280063Y0128082D01*
X0280725Y0129681D02*
X0292088Y0129681D01*
X0292088Y0131279D02*
X0280917Y0131279D01*
X0280896Y0132878D02*
X0292088Y0132878D01*
X0292088Y0134476D02*
X0280234Y0134476D01*
X0279123Y0136075D02*
X0292088Y0136075D01*
X0292088Y0137673D02*
X0276865Y0137673D01*
X0271468Y0137673D02*
X0256657Y0137673D01*
X0258256Y0136075D02*
X0269211Y0136075D01*
X0269622Y0126484D02*
X0171667Y0126484D01*
X0170788Y0124885D02*
X0177161Y0124885D01*
X0177675Y0125400D02*
X0175567Y0123291D01*
X0175567Y0122160D01*
X0175139Y0121733D01*
X0174713Y0120703D01*
X0174713Y0116753D01*
X0174126Y0116753D01*
X0173860Y0116487D01*
X0173616Y0116553D01*
X0171300Y0116553D01*
X0171300Y0112280D01*
X0170341Y0112280D01*
X0170341Y0116553D01*
X0168024Y0116553D01*
X0167566Y0116430D01*
X0167156Y0116193D01*
X0166821Y0115858D01*
X0166584Y0115448D01*
X0166461Y0114990D01*
X0166461Y0112280D01*
X0170341Y0112280D01*
X0170341Y0111320D01*
X0171300Y0111320D01*
X0171300Y0107047D01*
X0173616Y0107047D01*
X0173860Y0107113D01*
X0174126Y0106847D01*
X0175343Y0106847D01*
X0175343Y0105844D01*
X0174175Y0104676D01*
X0174175Y0096720D01*
X0175346Y0095548D01*
X0180940Y0095548D01*
X0182112Y0096720D01*
X0182112Y0104676D01*
X0180943Y0105844D01*
X0180943Y0106890D01*
X0182072Y0108019D01*
X0182072Y0115581D01*
X0180901Y0116753D01*
X0180313Y0116753D01*
X0180313Y0118200D01*
X0180658Y0118200D01*
X0182767Y0120309D01*
X0182767Y0123291D01*
X0180658Y0125400D01*
X0177675Y0125400D01*
X0175567Y0123287D02*
X0169189Y0123287D01*
X0167591Y0121688D02*
X0175121Y0121688D01*
X0174713Y0120090D02*
X0164316Y0120090D01*
X0161667Y0118491D02*
X0174713Y0118491D01*
X0174713Y0116893D02*
X0161667Y0116893D01*
X0161667Y0115294D02*
X0166543Y0115294D01*
X0166461Y0113696D02*
X0161667Y0113696D01*
X0161667Y0112097D02*
X0170341Y0112097D01*
X0170341Y0111320D02*
X0166461Y0111320D01*
X0166461Y0108610D01*
X0166584Y0108152D01*
X0166821Y0107742D01*
X0167156Y0107407D01*
X0167566Y0107170D01*
X0168024Y0107047D01*
X0170341Y0107047D01*
X0170341Y0111320D01*
X0170341Y0110499D02*
X0171300Y0110499D01*
X0171300Y0108900D02*
X0170341Y0108900D01*
X0170341Y0107302D02*
X0171300Y0107302D01*
X0167338Y0107302D02*
X0161667Y0107302D01*
X0161667Y0108900D02*
X0166461Y0108900D01*
X0166461Y0110499D02*
X0161667Y0110499D01*
X0163131Y0105703D02*
X0175202Y0105703D01*
X0174175Y0104105D02*
X0164159Y0104105D01*
X0164159Y0102506D02*
X0174175Y0102506D01*
X0174175Y0100908D02*
X0164159Y0100908D01*
X0164159Y0099309D02*
X0174175Y0099309D01*
X0174175Y0097711D02*
X0164159Y0097711D01*
X0163551Y0096112D02*
X0174782Y0096112D01*
X0178143Y0100698D02*
X0178143Y0111170D01*
X0177513Y0111800D01*
X0177513Y0120146D01*
X0179167Y0121800D01*
X0182767Y0121688D02*
X0224667Y0121688D01*
X0224667Y0122695D02*
X0224667Y0101164D01*
X0221940Y0098437D01*
X0220340Y0099100D01*
X0217993Y0099100D01*
X0215825Y0098202D01*
X0214165Y0096542D01*
X0213267Y0094374D01*
X0213267Y0084226D01*
X0214165Y0082058D01*
X0215825Y0080398D01*
X0217993Y0079500D01*
X0220340Y0079500D01*
X0222509Y0080398D01*
X0224168Y0082058D01*
X0225067Y0084226D01*
X0225067Y0088836D01*
X0231716Y0095485D01*
X0232982Y0096751D01*
X0233667Y0098405D01*
X0233667Y0117300D01*
X0242303Y0117300D01*
X0250352Y0109251D01*
X0251618Y0107985D01*
X0253272Y0107300D01*
X0267417Y0107300D01*
X0267417Y0106222D01*
X0268588Y0105050D01*
X0279745Y0105050D01*
X0280917Y0106222D01*
X0280917Y0117378D01*
X0279745Y0118550D01*
X0268588Y0118550D01*
X0267417Y0117378D01*
X0267417Y0116300D01*
X0256031Y0116300D01*
X0246716Y0125615D01*
X0245062Y0126300D01*
X0228272Y0126300D01*
X0226618Y0125615D01*
X0225352Y0124349D01*
X0224667Y0122695D01*
X0224912Y0123287D02*
X0182767Y0123287D01*
X0181172Y0124885D02*
X0225888Y0124885D01*
X0224667Y0120090D02*
X0182548Y0120090D01*
X0180949Y0118491D02*
X0224667Y0118491D01*
X0224667Y0116893D02*
X0180313Y0116893D01*
X0182072Y0115294D02*
X0224667Y0115294D01*
X0224667Y0113696D02*
X0182072Y0113696D01*
X0182072Y0112097D02*
X0224667Y0112097D01*
X0224667Y0110499D02*
X0182072Y0110499D01*
X0182072Y0108900D02*
X0224667Y0108900D01*
X0224667Y0107302D02*
X0181355Y0107302D01*
X0181084Y0105703D02*
X0191826Y0105703D01*
X0192325Y0106202D02*
X0190665Y0104542D01*
X0189767Y0102374D01*
X0189767Y0092226D01*
X0190665Y0090058D01*
X0192325Y0088398D01*
X0194493Y0087500D01*
X0196840Y0087500D01*
X0199009Y0088398D01*
X0200133Y0089522D01*
X0200669Y0089300D01*
X0201667Y0089300D01*
X0201667Y0084647D01*
X0200386Y0083366D01*
X0200386Y0080234D01*
X0202600Y0078019D01*
X0205733Y0078019D01*
X0207948Y0080234D01*
X0207948Y0083366D01*
X0206667Y0084647D01*
X0206667Y0092297D01*
X0206286Y0093216D01*
X0205583Y0093919D01*
X0204664Y0094300D01*
X0202202Y0094300D01*
X0201567Y0094936D01*
X0201567Y0102374D01*
X0200668Y0104542D01*
X0199009Y0106202D01*
X0196840Y0107100D01*
X0194493Y0107100D01*
X0192325Y0106202D01*
X0190484Y0104105D02*
X0182112Y0104105D01*
X0182112Y0102506D02*
X0189822Y0102506D01*
X0189767Y0100908D02*
X0182112Y0100908D01*
X0182112Y0099309D02*
X0189767Y0099309D01*
X0189767Y0097711D02*
X0182112Y0097711D01*
X0181504Y0096112D02*
X0189767Y0096112D01*
X0189767Y0094514D02*
X0151971Y0094514D01*
X0151967Y0092915D02*
X0189767Y0092915D01*
X0190143Y0091317D02*
X0151967Y0091317D01*
X0151967Y0089718D02*
X0191005Y0089718D01*
X0192997Y0088120D02*
X0151967Y0088120D01*
X0151967Y0086521D02*
X0201667Y0086521D01*
X0201667Y0084923D02*
X0181797Y0084923D01*
X0181797Y0083324D02*
X0200386Y0083324D01*
X0200386Y0081726D02*
X0181797Y0081726D01*
X0181797Y0080127D02*
X0200492Y0080127D01*
X0202091Y0078529D02*
X0181797Y0078529D01*
X0181797Y0076930D02*
X0266564Y0076930D01*
X0264966Y0078529D02*
X0206242Y0078529D01*
X0207841Y0080127D02*
X0216479Y0080127D01*
X0214497Y0081726D02*
X0207948Y0081726D01*
X0207948Y0083324D02*
X0213640Y0083324D01*
X0213267Y0084923D02*
X0206667Y0084923D01*
X0206667Y0086521D02*
X0213267Y0086521D01*
X0213267Y0088120D02*
X0206667Y0088120D01*
X0206667Y0089718D02*
X0213267Y0089718D01*
X0213267Y0091317D02*
X0206667Y0091317D01*
X0206411Y0092915D02*
X0213267Y0092915D01*
X0213325Y0094514D02*
X0201989Y0094514D01*
X0201567Y0096112D02*
X0213987Y0096112D01*
X0215333Y0097711D02*
X0201567Y0097711D01*
X0201567Y0099309D02*
X0222812Y0099309D01*
X0224410Y0100908D02*
X0201567Y0100908D01*
X0201512Y0102506D02*
X0224667Y0102506D01*
X0224667Y0104105D02*
X0200850Y0104105D01*
X0199507Y0105703D02*
X0224667Y0105703D01*
X0233667Y0105703D02*
X0238826Y0105703D01*
X0239325Y0106202D02*
X0237665Y0104542D01*
X0236767Y0102374D01*
X0236767Y0092226D01*
X0237665Y0090058D01*
X0239325Y0088398D01*
X0240167Y0088049D01*
X0240167Y0082803D01*
X0240547Y0081884D01*
X0241251Y0081181D01*
X0242751Y0079681D01*
X0243669Y0079300D01*
X0264194Y0079300D01*
X0271261Y0072233D01*
X0271261Y0070014D01*
X0270901Y0070375D01*
X0265307Y0070375D01*
X0264167Y0069235D01*
X0263027Y0070375D01*
X0257433Y0070375D01*
X0256261Y0069203D01*
X0256261Y0066367D01*
X0253751Y0063856D01*
X0253047Y0063153D01*
X0252667Y0062234D01*
X0252667Y0059647D01*
X0251386Y0058366D01*
X0251386Y0058224D01*
X0251378Y0058216D01*
X0248537Y0055375D01*
X0245897Y0055375D01*
X0244726Y0054203D01*
X0244726Y0049397D01*
X0245897Y0048225D01*
X0250466Y0048225D01*
X0255867Y0042824D01*
X0255867Y0037822D01*
X0257039Y0036650D01*
X0263814Y0036650D01*
X0264167Y0037003D01*
X0264519Y0036650D01*
X0271294Y0036650D01*
X0272466Y0037822D01*
X0272466Y0042824D01*
X0273942Y0044300D01*
X0284664Y0044300D01*
X0285583Y0044681D01*
X0290583Y0049681D01*
X0291286Y0050384D01*
X0291667Y0051303D01*
X0291667Y0082297D01*
X0291286Y0083216D01*
X0290583Y0083919D01*
X0289664Y0084300D01*
X0289336Y0084300D01*
X0282663Y0090973D01*
X0282663Y0094991D01*
X0281491Y0096162D01*
X0275110Y0096162D01*
X0274167Y0095219D01*
X0273223Y0096162D01*
X0266842Y0096162D01*
X0265671Y0094991D01*
X0265671Y0090973D01*
X0263997Y0089300D01*
X0258669Y0089300D01*
X0257751Y0088919D01*
X0253131Y0084300D01*
X0245202Y0084300D01*
X0245167Y0084336D01*
X0245167Y0088049D01*
X0246009Y0088398D01*
X0247668Y0090058D01*
X0248567Y0092226D01*
X0248567Y0102374D01*
X0247668Y0104542D01*
X0246009Y0106202D01*
X0243840Y0107100D01*
X0241493Y0107100D01*
X0239325Y0106202D01*
X0237484Y0104105D02*
X0233667Y0104105D01*
X0233667Y0102506D02*
X0236822Y0102506D01*
X0236767Y0100908D02*
X0233667Y0100908D01*
X0233667Y0099309D02*
X0236767Y0099309D01*
X0236767Y0097711D02*
X0233379Y0097711D01*
X0232343Y0096112D02*
X0236767Y0096112D01*
X0236767Y0094514D02*
X0230744Y0094514D01*
X0229146Y0092915D02*
X0236767Y0092915D01*
X0237143Y0091317D02*
X0227547Y0091317D01*
X0225949Y0089718D02*
X0238005Y0089718D01*
X0239997Y0088120D02*
X0225067Y0088120D01*
X0225067Y0086521D02*
X0240167Y0086521D01*
X0240167Y0084923D02*
X0225067Y0084923D01*
X0224693Y0083324D02*
X0240167Y0083324D01*
X0240706Y0081726D02*
X0223836Y0081726D01*
X0221854Y0080127D02*
X0242304Y0080127D01*
X0241251Y0081181D02*
X0241251Y0081181D01*
X0245167Y0084923D02*
X0253754Y0084923D01*
X0255352Y0086521D02*
X0245167Y0086521D01*
X0245336Y0088120D02*
X0256951Y0088120D01*
X0264415Y0089718D02*
X0247329Y0089718D01*
X0248190Y0091317D02*
X0265671Y0091317D01*
X0265671Y0092915D02*
X0248567Y0092915D01*
X0248567Y0094514D02*
X0265671Y0094514D01*
X0266792Y0096112D02*
X0248567Y0096112D01*
X0248567Y0097711D02*
X0292088Y0097711D01*
X0292088Y0099309D02*
X0248567Y0099309D01*
X0248567Y0100908D02*
X0292088Y0100908D01*
X0292088Y0102506D02*
X0248512Y0102506D01*
X0247850Y0104105D02*
X0292088Y0104105D01*
X0292088Y0105703D02*
X0280398Y0105703D01*
X0280917Y0107302D02*
X0292088Y0107302D01*
X0292088Y0108900D02*
X0280917Y0108900D01*
X0280917Y0110499D02*
X0292088Y0110499D01*
X0292088Y0112097D02*
X0280917Y0112097D01*
X0280917Y0113696D02*
X0292088Y0113696D01*
X0292088Y0115294D02*
X0280917Y0115294D01*
X0280917Y0116893D02*
X0292088Y0116893D01*
X0292088Y0118491D02*
X0279804Y0118491D01*
X0272461Y0124885D02*
X0247445Y0124885D01*
X0250642Y0121688D02*
X0292088Y0121688D01*
X0292088Y0120090D02*
X0252241Y0120090D01*
X0253839Y0118491D02*
X0268530Y0118491D01*
X0267417Y0116893D02*
X0255438Y0116893D01*
X0249104Y0110499D02*
X0233667Y0110499D01*
X0233667Y0112097D02*
X0247505Y0112097D01*
X0245907Y0113696D02*
X0233667Y0113696D01*
X0233667Y0115294D02*
X0244308Y0115294D01*
X0242710Y0116893D02*
X0233667Y0116893D01*
X0233667Y0108900D02*
X0250702Y0108900D01*
X0253267Y0107302D02*
X0233667Y0107302D01*
X0246507Y0105703D02*
X0267935Y0105703D01*
X0273273Y0096112D02*
X0275060Y0096112D01*
X0281541Y0096112D02*
X0292088Y0096112D01*
X0292088Y0094514D02*
X0282663Y0094514D01*
X0282663Y0092915D02*
X0292088Y0092915D01*
X0292088Y0091317D02*
X0282663Y0091317D01*
X0283918Y0089718D02*
X0292088Y0089718D01*
X0292088Y0088120D02*
X0285516Y0088120D01*
X0287115Y0086521D02*
X0292088Y0086521D01*
X0292088Y0084923D02*
X0288713Y0084923D01*
X0291178Y0083324D02*
X0292088Y0083324D01*
X0292088Y0081726D02*
X0291667Y0081726D01*
X0291667Y0080127D02*
X0292088Y0080127D01*
X0292088Y0078529D02*
X0291667Y0078529D01*
X0291667Y0076930D02*
X0292088Y0076930D01*
X0292088Y0075332D02*
X0291667Y0075332D01*
X0291667Y0073733D02*
X0292088Y0073733D01*
X0292088Y0072134D02*
X0291667Y0072134D01*
X0291667Y0070536D02*
X0292088Y0070536D01*
X0292088Y0068937D02*
X0291667Y0068937D01*
X0291667Y0067339D02*
X0292088Y0067339D01*
X0292088Y0065740D02*
X0291667Y0065740D01*
X0291667Y0064142D02*
X0292088Y0064142D01*
X0292088Y0062543D02*
X0291667Y0062543D01*
X0291667Y0060945D02*
X0292088Y0060945D01*
X0292088Y0059346D02*
X0291667Y0059346D01*
X0291667Y0057748D02*
X0292088Y0057748D01*
X0292088Y0056149D02*
X0291667Y0056149D01*
X0291667Y0054551D02*
X0292088Y0054551D01*
X0292088Y0052952D02*
X0291667Y0052952D01*
X0291667Y0051354D02*
X0292088Y0051354D01*
X0292088Y0049755D02*
X0290658Y0049755D01*
X0292088Y0048157D02*
X0289059Y0048157D01*
X0287461Y0046558D02*
X0292088Y0046558D01*
X0292088Y0044960D02*
X0285862Y0044960D01*
X0292088Y0043361D02*
X0273004Y0043361D01*
X0272466Y0041763D02*
X0292088Y0041763D01*
X0292088Y0040164D02*
X0272466Y0040164D01*
X0272466Y0038566D02*
X0292088Y0038566D01*
X0292088Y0036967D02*
X0271611Y0036967D01*
X0264202Y0036967D02*
X0264131Y0036967D01*
X0256722Y0036967D02*
X0231611Y0036967D01*
X0232466Y0038566D02*
X0255867Y0038566D01*
X0255867Y0040164D02*
X0232466Y0040164D01*
X0232466Y0041763D02*
X0255867Y0041763D01*
X0255330Y0043361D02*
X0232466Y0043361D01*
X0232466Y0044960D02*
X0237500Y0044960D01*
X0237353Y0045045D02*
X0237763Y0044808D01*
X0238221Y0044685D01*
X0240230Y0044685D01*
X0240230Y0048060D01*
X0240230Y0048060D01*
X0236658Y0048060D01*
X0236658Y0046248D01*
X0236781Y0045790D01*
X0237018Y0045380D01*
X0237353Y0045045D01*
X0236658Y0046558D02*
X0232461Y0046558D01*
X0234059Y0048157D02*
X0236658Y0048157D01*
X0231783Y0052952D02*
X0227948Y0052952D01*
X0227948Y0053366D02*
X0225733Y0055581D01*
X0222600Y0055581D01*
X0220386Y0053366D01*
X0220386Y0050234D01*
X0222600Y0048019D01*
X0225733Y0048019D01*
X0227948Y0050234D01*
X0227948Y0053366D01*
X0226763Y0054551D02*
X0235705Y0054551D01*
X0236458Y0056149D02*
X0213777Y0056149D01*
X0215376Y0054551D02*
X0221570Y0054551D01*
X0220386Y0052952D02*
X0216720Y0052952D01*
X0218148Y0051354D02*
X0220386Y0051354D01*
X0220864Y0049755D02*
X0219747Y0049755D01*
X0221345Y0048157D02*
X0222463Y0048157D01*
X0225871Y0048157D02*
X0226988Y0048157D01*
X0227469Y0049755D02*
X0228586Y0049755D01*
X0227948Y0051354D02*
X0230185Y0051354D01*
X0236458Y0057748D02*
X0152767Y0057748D01*
X0149167Y0057800D02*
X0149167Y0096800D01*
X0153064Y0100698D01*
X0160190Y0100698D01*
X0156222Y0097711D02*
X0154037Y0097711D01*
X0152767Y0096112D02*
X0156829Y0096112D01*
X0156537Y0084923D02*
X0151967Y0084923D01*
X0151967Y0083324D02*
X0156537Y0083324D01*
X0156537Y0081726D02*
X0151967Y0081726D01*
X0151967Y0080127D02*
X0156537Y0080127D01*
X0156537Y0078529D02*
X0151967Y0078529D01*
X0151967Y0076930D02*
X0156537Y0076930D01*
X0156537Y0075332D02*
X0151967Y0075332D01*
X0151967Y0073733D02*
X0156537Y0073733D01*
X0156537Y0072134D02*
X0151967Y0072134D01*
X0151967Y0070536D02*
X0156537Y0070536D01*
X0156537Y0068937D02*
X0151967Y0068937D01*
X0151967Y0067339D02*
X0156537Y0067339D01*
X0156537Y0065740D02*
X0151967Y0065740D01*
X0144167Y0061800D02*
X0139167Y0061800D01*
X0134167Y0066800D01*
X0134167Y0091800D01*
X0154167Y0111800D01*
X0154167Y0136800D01*
X0157907Y0136800D01*
X0157907Y0131800D01*
X0159167Y0130540D01*
X0164316Y0131279D02*
X0166667Y0131279D01*
X0166667Y0129681D02*
X0164316Y0129681D01*
X0164316Y0128082D02*
X0166667Y0128082D01*
X0165315Y0126484D02*
X0164280Y0126484D01*
X0164316Y0132878D02*
X0166667Y0132878D01*
X0163804Y0134476D02*
X0163767Y0134476D01*
X0163214Y0136075D02*
X0160707Y0136075D01*
X0160576Y0137673D02*
X0163214Y0137673D01*
X0163214Y0139272D02*
X0159256Y0139272D01*
X0163214Y0140870D02*
X0154056Y0140870D01*
X0151667Y0139300D02*
X0147167Y0139300D01*
X0149089Y0142469D02*
X0163414Y0142469D01*
X0167687Y0145666D02*
X0168646Y0145666D01*
X0168646Y0147265D02*
X0167687Y0147265D01*
X0167687Y0148863D02*
X0168646Y0148863D01*
X0154167Y0136800D02*
X0151667Y0139300D01*
X0150932Y0136075D02*
X0149033Y0136075D01*
X0151367Y0131279D02*
X0127535Y0131279D01*
X0127948Y0129681D02*
X0151367Y0129681D01*
X0151367Y0128082D02*
X0129344Y0128082D01*
X0129167Y0124300D02*
X0124167Y0129300D01*
X0125936Y0132878D02*
X0126018Y0132878D01*
X0124419Y0134476D02*
X0123914Y0134476D01*
X0124167Y0136075D02*
X0124167Y0136075D01*
X0124167Y0137673D02*
X0124167Y0137673D01*
X0123766Y0139272D02*
X0124568Y0139272D01*
X0126166Y0140870D02*
X0122167Y0140870D01*
X0119167Y0144800D02*
X0117167Y0146800D01*
X0125427Y0155060D01*
X0125427Y0166800D01*
X0120867Y0166447D02*
X0111967Y0166447D01*
X0111967Y0168045D02*
X0120867Y0168045D01*
X0120867Y0169644D02*
X0111967Y0169644D01*
X0111967Y0171242D02*
X0121332Y0171242D01*
X0120867Y0170778D02*
X0120867Y0162822D01*
X0122039Y0161650D01*
X0122627Y0161650D01*
X0122627Y0156220D01*
X0116988Y0150581D01*
X0115600Y0150581D01*
X0113386Y0148366D01*
X0113386Y0145234D01*
X0115600Y0143019D01*
X0116367Y0143019D01*
X0116367Y0141071D01*
X0114167Y0138871D01*
X0114167Y0134729D01*
X0116667Y0132229D01*
X0116667Y0126393D01*
X0116221Y0126208D01*
X0114758Y0124746D01*
X0114574Y0124300D01*
X0113669Y0124300D01*
X0112751Y0123919D01*
X0112047Y0123216D01*
X0109412Y0120581D01*
X0107948Y0120581D01*
X0107948Y0123366D01*
X0106967Y0124347D01*
X0106967Y0125640D01*
X0111540Y0130214D01*
X0111967Y0131243D01*
X0111967Y0132529D01*
X0114167Y0134729D01*
X0114167Y0138871D01*
X0111238Y0141800D01*
X0107096Y0141800D01*
X0104167Y0138871D01*
X0104167Y0134729D01*
X0106151Y0132744D01*
X0102581Y0129174D01*
X0101967Y0128560D01*
X0101967Y0132529D01*
X0104167Y0134729D01*
X0104167Y0138871D01*
X0101238Y0141800D01*
X0097096Y0141800D01*
X0094967Y0139671D01*
X0094967Y0149253D01*
X0095948Y0150234D01*
X0095948Y0153366D01*
X0095314Y0154000D01*
X0104724Y0154000D01*
X0105753Y0154426D01*
X0106540Y0155214D01*
X0111540Y0160214D01*
X0111967Y0161243D01*
X0111967Y0175640D01*
X0116366Y0180039D01*
X0120687Y0180039D01*
X0120687Y0179080D01*
X0121646Y0179080D01*
X0121646Y0175201D01*
X0124553Y0175201D01*
X0125011Y0175323D01*
X0125421Y0175560D01*
X0125757Y0175896D01*
X0125994Y0176306D01*
X0126116Y0176764D01*
X0126116Y0179080D01*
X0121646Y0179080D01*
X0121646Y0180039D01*
X0126116Y0180039D01*
X0126116Y0182356D01*
X0125994Y0182814D01*
X0125805Y0183141D01*
X0125904Y0183240D01*
X0128663Y0180481D01*
X0128663Y0174692D01*
X0129834Y0173520D01*
X0135668Y0173520D01*
X0134097Y0171950D01*
X0129519Y0171950D01*
X0129167Y0171597D01*
X0128814Y0171950D01*
X0122039Y0171950D01*
X0120867Y0170778D01*
X0120687Y0175201D02*
X0117780Y0175201D01*
X0117322Y0175323D01*
X0116912Y0175560D01*
X0116577Y0175896D01*
X0116340Y0176306D01*
X0116217Y0176764D01*
X0116217Y0179080D01*
X0120687Y0179080D01*
X0120687Y0175201D01*
X0120687Y0176038D02*
X0121646Y0176038D01*
X0121646Y0177636D02*
X0120687Y0177636D01*
X0120687Y0179235D02*
X0115561Y0179235D01*
X0116217Y0177636D02*
X0113963Y0177636D01*
X0112364Y0176038D02*
X0116495Y0176038D01*
X0111967Y0174439D02*
X0128916Y0174439D01*
X0128663Y0176038D02*
X0125839Y0176038D01*
X0126116Y0177636D02*
X0128663Y0177636D01*
X0128663Y0179235D02*
X0121646Y0179235D01*
X0126116Y0180833D02*
X0128310Y0180833D01*
X0126712Y0182432D02*
X0126096Y0182432D01*
X0128987Y0187227D02*
X0141667Y0187227D01*
X0141667Y0185629D02*
X0130586Y0185629D01*
X0132184Y0184030D02*
X0141667Y0184030D01*
X0142657Y0188826D02*
X0127389Y0188826D01*
X0126316Y0190424D02*
X0144255Y0190424D01*
X0145854Y0192023D02*
X0116967Y0192023D01*
X0116967Y0193621D02*
X0147452Y0193621D01*
X0149051Y0195220D02*
X0116967Y0195220D01*
X0116967Y0196818D02*
X0150650Y0196818D01*
X0152248Y0198417D02*
X0120875Y0198417D01*
X0122473Y0200015D02*
X0153847Y0200015D01*
X0155445Y0201614D02*
X0122940Y0201614D01*
X0121667Y0204300D02*
X0119167Y0201800D01*
X0121667Y0204300D02*
X0121667Y0207560D01*
X0126816Y0208008D02*
X0163783Y0208008D01*
X0160241Y0206409D02*
X0126816Y0206409D01*
X0126816Y0204811D02*
X0158642Y0204811D01*
X0157044Y0203212D02*
X0125856Y0203212D01*
X0126816Y0209606D02*
X0175065Y0209606D01*
X0175517Y0208008D02*
X0168550Y0208008D01*
X0169767Y0206409D02*
X0175517Y0206409D01*
X0175517Y0204811D02*
X0169767Y0204811D01*
X0169170Y0203212D02*
X0175813Y0203212D01*
X0175717Y0201614D02*
X0162516Y0201614D01*
X0160918Y0200015D02*
X0180187Y0200015D01*
X0180187Y0199580D02*
X0175717Y0199580D01*
X0175717Y0197264D01*
X0175840Y0196806D01*
X0176077Y0196396D01*
X0176412Y0196060D01*
X0176822Y0195823D01*
X0177280Y0195701D01*
X0180187Y0195701D01*
X0180187Y0199580D01*
X0181146Y0200015D02*
X0190667Y0200015D01*
X0190667Y0198417D02*
X0185616Y0198417D01*
X0185497Y0196818D02*
X0189302Y0196818D01*
X0188816Y0195220D02*
X0156122Y0195220D01*
X0157721Y0196818D02*
X0175836Y0196818D01*
X0175717Y0198417D02*
X0159319Y0198417D01*
X0154524Y0193621D02*
X0188816Y0193621D01*
X0188816Y0192023D02*
X0152925Y0192023D01*
X0151327Y0190424D02*
X0189098Y0190424D01*
X0189816Y0188826D02*
X0149728Y0188826D01*
X0148129Y0187227D02*
X0190138Y0187227D01*
X0191653Y0185629D02*
X0146667Y0185629D01*
X0146667Y0184030D02*
X0193251Y0184030D01*
X0204850Y0182432D02*
X0159214Y0182432D01*
X0159111Y0182610D02*
X0158776Y0182945D01*
X0158365Y0183182D01*
X0157908Y0183305D01*
X0154863Y0183305D01*
X0154863Y0179209D01*
X0159471Y0179209D01*
X0159471Y0181742D01*
X0159348Y0182199D01*
X0159111Y0182610D01*
X0159471Y0180833D02*
X0206448Y0180833D01*
X0208182Y0179235D02*
X0159471Y0179235D01*
X0159471Y0177636D02*
X0210351Y0177636D01*
X0210487Y0177772D02*
X0210151Y0177437D01*
X0209915Y0177026D01*
X0209792Y0176568D01*
X0209792Y0175150D01*
X0209792Y0173732D01*
X0209915Y0173275D01*
X0210151Y0172864D01*
X0210487Y0172529D01*
X0210897Y0172292D01*
X0211355Y0172169D01*
X0213167Y0172169D01*
X0214978Y0172169D01*
X0215436Y0172292D01*
X0215847Y0172529D01*
X0216182Y0172864D01*
X0216419Y0173275D01*
X0216541Y0173732D01*
X0216541Y0175150D01*
X0213167Y0175150D01*
X0213167Y0175150D01*
X0213167Y0172169D01*
X0213167Y0175150D01*
X0213167Y0175150D01*
X0216541Y0175150D01*
X0216541Y0176568D01*
X0216419Y0177026D01*
X0216182Y0177437D01*
X0215847Y0177772D01*
X0215436Y0178009D01*
X0214978Y0178131D01*
X0213167Y0178131D01*
X0213167Y0175151D01*
X0213167Y0175151D01*
X0213167Y0178131D01*
X0211355Y0178131D01*
X0210897Y0178009D01*
X0210487Y0177772D01*
X0209792Y0176038D02*
X0159471Y0176038D01*
X0159125Y0174439D02*
X0209792Y0174439D01*
X0209792Y0175150D02*
X0213167Y0175150D01*
X0213167Y0175150D01*
X0209792Y0175150D01*
X0210175Y0172841D02*
X0142907Y0172841D01*
X0141309Y0171242D02*
X0234321Y0171242D01*
X0233914Y0172841D02*
X0232658Y0172841D01*
X0232682Y0172864D02*
X0232919Y0173275D01*
X0233041Y0173732D01*
X0233041Y0175150D01*
X0229667Y0175150D01*
X0229667Y0175150D01*
X0229667Y0172169D01*
X0231478Y0172169D01*
X0231936Y0172292D01*
X0232347Y0172529D01*
X0232682Y0172864D01*
X0233041Y0174439D02*
X0233914Y0174439D01*
X0233041Y0175150D02*
X0233041Y0176568D01*
X0232919Y0177026D01*
X0232682Y0177437D01*
X0232347Y0177772D01*
X0231936Y0178009D01*
X0231478Y0178131D01*
X0229667Y0178131D01*
X0229667Y0175151D01*
X0229667Y0175151D01*
X0229667Y0175150D02*
X0233041Y0175150D01*
X0233041Y0176038D02*
X0233914Y0176038D01*
X0233914Y0177636D02*
X0232482Y0177636D01*
X0233036Y0179235D02*
X0233714Y0179235D01*
X0233714Y0180833D02*
X0233241Y0180833D01*
X0233241Y0182432D02*
X0233714Y0182432D01*
X0238667Y0181646D02*
X0239167Y0182146D01*
X0239167Y0186800D01*
X0244167Y0191800D01*
X0244167Y0201800D01*
X0236667Y0201614D02*
X0236125Y0201614D01*
X0236596Y0202085D02*
X0234741Y0200231D01*
X0234741Y0198940D01*
X0233601Y0197800D01*
X0234741Y0196660D01*
X0234741Y0192641D01*
X0233570Y0191469D01*
X0228763Y0191469D01*
X0227592Y0192641D01*
X0227592Y0194300D01*
X0224669Y0194300D01*
X0223751Y0194681D01*
X0223735Y0194696D01*
X0223356Y0194594D01*
X0220646Y0194594D01*
X0220646Y0198474D01*
X0219687Y0198474D01*
X0216227Y0198474D01*
X0215570Y0199131D01*
X0213521Y0199131D01*
X0209505Y0203146D01*
X0215214Y0203146D01*
X0215214Y0202259D01*
X0215479Y0201994D01*
X0215414Y0201750D01*
X0215414Y0199433D01*
X0219687Y0199433D01*
X0219687Y0198474D01*
X0219687Y0194594D01*
X0216977Y0194594D01*
X0216741Y0194658D01*
X0216741Y0193940D01*
X0215601Y0192800D01*
X0216741Y0191660D01*
X0216741Y0189611D01*
X0217053Y0189300D01*
X0226575Y0189300D01*
X0227675Y0190400D01*
X0230658Y0190400D01*
X0232132Y0188926D01*
X0232751Y0189544D01*
X0233669Y0189925D01*
X0233756Y0189925D01*
X0236667Y0192836D01*
X0236667Y0202014D01*
X0236596Y0202085D01*
X0236667Y0200015D02*
X0234741Y0200015D01*
X0234218Y0198417D02*
X0236667Y0198417D01*
X0236667Y0196818D02*
X0234583Y0196818D01*
X0234741Y0195220D02*
X0236667Y0195220D01*
X0236667Y0193621D02*
X0234741Y0193621D01*
X0234123Y0192023D02*
X0235854Y0192023D01*
X0234255Y0190424D02*
X0216741Y0190424D01*
X0216379Y0192023D02*
X0228210Y0192023D01*
X0227592Y0193621D02*
X0216423Y0193621D01*
X0219167Y0191800D02*
X0219167Y0196800D01*
X0219687Y0196818D02*
X0220646Y0196818D01*
X0220646Y0195220D02*
X0219687Y0195220D01*
X0219687Y0198417D02*
X0220646Y0198417D01*
X0220167Y0198954D02*
X0218820Y0200300D01*
X0215167Y0200300D01*
X0213667Y0201800D01*
X0212667Y0201800D01*
X0211038Y0201614D02*
X0215414Y0201614D01*
X0215414Y0200015D02*
X0212636Y0200015D01*
X0205167Y0191950D02*
X0200316Y0196800D01*
X0199167Y0196800D01*
X0199167Y0201800D02*
X0194167Y0206800D01*
X0194167Y0221800D01*
X0204167Y0221800D01*
X0209167Y0227758D02*
X0208866Y0228483D01*
X0207307Y0230043D01*
X0205269Y0230887D01*
X0203064Y0230887D01*
X0201027Y0230043D01*
X0199467Y0228483D01*
X0199167Y0227758D01*
X0198866Y0228483D01*
X0197307Y0230043D01*
X0195269Y0230887D01*
X0193064Y0230887D01*
X0191027Y0230043D01*
X0189467Y0228483D01*
X0189167Y0227758D01*
X0188866Y0228483D01*
X0187307Y0230043D01*
X0185269Y0230887D01*
X0183064Y0230887D01*
X0181027Y0230043D01*
X0179467Y0228483D01*
X0179167Y0227758D01*
X0178866Y0228483D01*
X0177307Y0230043D01*
X0175269Y0230887D01*
X0173064Y0230887D01*
X0172767Y0230763D01*
X0172767Y0233291D01*
X0171667Y0234391D01*
X0171667Y0242297D01*
X0171286Y0243216D01*
X0168136Y0246366D01*
X0167741Y0246761D01*
X0167741Y0246959D01*
X0166667Y0248034D01*
X0166667Y0250566D01*
X0167741Y0251641D01*
X0167741Y0255660D01*
X0166601Y0256800D01*
X0167251Y0257450D01*
X0171832Y0257450D01*
X0173898Y0255384D01*
X0174601Y0254681D01*
X0175520Y0254300D01*
X0183131Y0254300D01*
X0186667Y0250764D01*
X0186667Y0250308D01*
X0186027Y0250043D01*
X0184467Y0248483D01*
X0184167Y0247758D01*
X0183866Y0248483D01*
X0182307Y0250043D01*
X0180269Y0250887D01*
X0178064Y0250887D01*
X0176027Y0250043D01*
X0174467Y0248483D01*
X0173623Y0246446D01*
X0173623Y0237154D01*
X0174467Y0235117D01*
X0176027Y0233557D01*
X0178064Y0232713D01*
X0180269Y0232713D01*
X0182307Y0233557D01*
X0183866Y0235117D01*
X0184167Y0235842D01*
X0184467Y0235117D01*
X0186027Y0233557D01*
X0188064Y0232713D01*
X0190269Y0232713D01*
X0192307Y0233557D01*
X0193866Y0235117D01*
X0194167Y0235842D01*
X0194467Y0235117D01*
X0196027Y0233557D01*
X0198064Y0232713D01*
X0200269Y0232713D01*
X0202307Y0233557D01*
X0203866Y0235117D01*
X0204271Y0236095D01*
X0204597Y0235456D01*
X0205091Y0234776D01*
X0205686Y0234181D01*
X0206366Y0233687D01*
X0207116Y0233305D01*
X0207915Y0233045D01*
X0208746Y0232913D01*
X0208786Y0232913D01*
X0208786Y0241419D01*
X0209548Y0241419D01*
X0209548Y0232913D01*
X0209587Y0232913D01*
X0210418Y0233045D01*
X0211218Y0233305D01*
X0211367Y0233381D01*
X0211367Y0230184D01*
X0211027Y0230043D01*
X0209467Y0228483D01*
X0209167Y0227758D01*
X0208561Y0228789D02*
X0209773Y0228789D01*
X0211367Y0230387D02*
X0206475Y0230387D01*
X0206567Y0233584D02*
X0202334Y0233584D01*
X0203893Y0235183D02*
X0204795Y0235183D01*
X0208786Y0235183D02*
X0209548Y0235183D01*
X0209548Y0236781D02*
X0208786Y0236781D01*
X0208786Y0238380D02*
X0209548Y0238380D01*
X0209548Y0239978D02*
X0208786Y0239978D01*
X0208786Y0243175D02*
X0209548Y0243175D01*
X0209548Y0244774D02*
X0208786Y0244774D01*
X0208786Y0246372D02*
X0209548Y0246372D01*
X0209548Y0247971D02*
X0208786Y0247971D01*
X0208786Y0249569D02*
X0209548Y0249569D01*
X0212441Y0249569D02*
X0215553Y0249569D01*
X0214255Y0247971D02*
X0213825Y0247971D01*
X0219167Y0241800D02*
X0229167Y0241800D01*
X0234078Y0247971D02*
X0234255Y0247971D01*
X0235553Y0249569D02*
X0232780Y0249569D01*
X0225553Y0249569D02*
X0222780Y0249569D01*
X0224078Y0247971D02*
X0224255Y0247971D01*
X0219167Y0241800D02*
X0214167Y0236800D01*
X0214167Y0221800D01*
X0214167Y0216800D01*
X0219167Y0211800D01*
X0234167Y0211800D01*
X0256667Y0193621D02*
X0257412Y0193621D01*
X0256667Y0192023D02*
X0259010Y0192023D01*
X0260609Y0190424D02*
X0256303Y0190424D01*
X0254728Y0188826D02*
X0262207Y0188826D01*
X0263806Y0187227D02*
X0253130Y0187227D01*
X0252316Y0185629D02*
X0265404Y0185629D01*
X0265520Y0184030D02*
X0252316Y0184030D01*
X0252316Y0182432D02*
X0265117Y0182432D01*
X0265127Y0180833D02*
X0252316Y0180833D01*
X0252316Y0179235D02*
X0265789Y0179235D01*
X0267149Y0177636D02*
X0252116Y0177636D01*
X0252116Y0176038D02*
X0292088Y0176038D01*
X0292088Y0177636D02*
X0281184Y0177636D01*
X0282544Y0179235D02*
X0292088Y0179235D01*
X0292088Y0180833D02*
X0283206Y0180833D01*
X0283217Y0182432D02*
X0292088Y0182432D01*
X0292088Y0184030D02*
X0282813Y0184030D01*
X0281834Y0185629D02*
X0292088Y0185629D01*
X0292088Y0187227D02*
X0279407Y0187227D01*
X0272389Y0188826D02*
X0292088Y0188826D01*
X0292088Y0190424D02*
X0270791Y0190424D01*
X0269192Y0192023D02*
X0292088Y0192023D01*
X0292088Y0193621D02*
X0267594Y0193621D01*
X0265995Y0195220D02*
X0292088Y0195220D01*
X0292088Y0196818D02*
X0280483Y0196818D01*
X0280821Y0196959D02*
X0282376Y0198513D01*
X0283217Y0200544D01*
X0283217Y0202742D01*
X0282376Y0204772D01*
X0280821Y0206326D01*
X0278791Y0207168D01*
X0269543Y0207168D01*
X0267512Y0206326D01*
X0265958Y0204772D01*
X0265117Y0202742D01*
X0265117Y0200544D01*
X0265958Y0198513D01*
X0267512Y0196959D01*
X0269543Y0196118D01*
X0278791Y0196118D01*
X0280821Y0196959D01*
X0282280Y0198417D02*
X0292088Y0198417D01*
X0292088Y0200015D02*
X0282998Y0200015D01*
X0283217Y0201614D02*
X0292088Y0201614D01*
X0292088Y0203212D02*
X0283022Y0203212D01*
X0282337Y0204811D02*
X0292088Y0204811D01*
X0292088Y0206409D02*
X0280621Y0206409D01*
X0281147Y0217599D02*
X0292088Y0217599D01*
X0292088Y0216001D02*
X0262767Y0216001D01*
X0262767Y0217599D02*
X0267187Y0217599D01*
X0265805Y0219198D02*
X0262767Y0219198D01*
X0262767Y0220796D02*
X0265143Y0220796D01*
X0265117Y0222395D02*
X0262767Y0222395D01*
X0262767Y0223993D02*
X0265505Y0223993D01*
X0265944Y0225592D02*
X0262767Y0225592D01*
X0262767Y0227190D02*
X0265667Y0227190D01*
X0265667Y0228789D02*
X0262240Y0228789D01*
X0260671Y0230387D02*
X0265630Y0230387D01*
X0264031Y0231986D02*
X0259072Y0231986D01*
X0257767Y0241577D02*
X0265117Y0241577D01*
X0265296Y0243175D02*
X0257494Y0243175D01*
X0256284Y0244774D02*
X0265959Y0244774D01*
X0267623Y0246372D02*
X0254686Y0246372D01*
X0253087Y0247971D02*
X0292088Y0247971D01*
X0292088Y0249569D02*
X0251489Y0249569D01*
X0247845Y0249569D02*
X0242780Y0249569D01*
X0244078Y0247971D02*
X0246246Y0247971D01*
X0246615Y0248339D02*
X0246615Y0248339D01*
X0247627Y0249352D02*
X0247627Y0249352D01*
X0246067Y0246372D02*
X0244710Y0246372D01*
X0244710Y0244774D02*
X0246102Y0244774D01*
X0246615Y0244261D02*
X0246615Y0244261D01*
X0247700Y0243175D02*
X0244710Y0243175D01*
X0244710Y0241577D02*
X0249299Y0241577D01*
X0247254Y0239978D02*
X0244710Y0239978D01*
X0244710Y0238380D02*
X0245655Y0238380D01*
X0245567Y0236781D02*
X0244555Y0236781D01*
X0244014Y0235183D02*
X0243893Y0235183D01*
X0262767Y0214402D02*
X0292088Y0214402D01*
X0292088Y0212803D02*
X0262767Y0212803D01*
X0262767Y0211205D02*
X0292088Y0211205D01*
X0292088Y0209606D02*
X0262767Y0209606D01*
X0262767Y0208008D02*
X0292088Y0208008D01*
X0292088Y0219198D02*
X0282529Y0219198D01*
X0283191Y0220796D02*
X0292088Y0220796D01*
X0292088Y0222395D02*
X0283217Y0222395D01*
X0282829Y0223993D02*
X0292088Y0223993D01*
X0292088Y0225592D02*
X0281871Y0225592D01*
X0279497Y0227190D02*
X0292088Y0227190D01*
X0292088Y0228789D02*
X0272667Y0228789D01*
X0272667Y0230387D02*
X0292088Y0230387D01*
X0292088Y0231986D02*
X0272667Y0231986D01*
X0272216Y0233584D02*
X0292088Y0233584D01*
X0292088Y0235183D02*
X0270734Y0235183D01*
X0280393Y0236781D02*
X0292088Y0236781D01*
X0292088Y0238380D02*
X0282242Y0238380D01*
X0282982Y0239978D02*
X0292088Y0239978D01*
X0292088Y0241577D02*
X0283217Y0241577D01*
X0283037Y0243175D02*
X0292088Y0243175D01*
X0292088Y0244774D02*
X0282374Y0244774D01*
X0280711Y0246372D02*
X0292088Y0246372D01*
X0292088Y0251168D02*
X0204667Y0251168D01*
X0204667Y0252766D02*
X0292088Y0252766D01*
X0292088Y0254365D02*
X0204823Y0254365D01*
X0205767Y0255963D02*
X0292088Y0255963D01*
X0292088Y0257562D02*
X0205767Y0257562D01*
X0204897Y0259160D02*
X0292088Y0259160D01*
X0292088Y0260759D02*
X0175594Y0260759D01*
X0175733Y0263019D02*
X0177948Y0265234D01*
X0177948Y0268366D01*
X0175733Y0270581D01*
X0172600Y0270581D01*
X0170386Y0268366D01*
X0170386Y0265234D01*
X0172600Y0263019D01*
X0175733Y0263019D01*
X0176670Y0263956D02*
X0292088Y0263956D01*
X0292088Y0265554D02*
X0177948Y0265554D01*
X0177948Y0267153D02*
X0292088Y0267153D01*
X0292088Y0268751D02*
X0177563Y0268751D01*
X0175964Y0270350D02*
X0292088Y0270350D01*
X0292088Y0271948D02*
X0006167Y0271948D01*
X0055192Y0235183D02*
X0056342Y0235183D01*
X0056342Y0233584D02*
X0055192Y0233584D01*
X0055192Y0228789D02*
X0056342Y0228789D01*
X0061917Y0217599D02*
X0085517Y0217599D01*
X0085517Y0216001D02*
X0061917Y0216001D01*
X0061917Y0214402D02*
X0085517Y0214402D01*
X0085517Y0212803D02*
X0062123Y0212803D01*
X0063721Y0211205D02*
X0085517Y0211205D01*
X0086432Y0209606D02*
X0065320Y0209606D01*
X0066918Y0208008D02*
X0103999Y0208008D01*
X0105367Y0206409D02*
X0068517Y0206409D01*
X0070115Y0204811D02*
X0105367Y0204811D01*
X0105367Y0203212D02*
X0071714Y0203212D01*
X0073153Y0201614D02*
X0105367Y0201614D01*
X0105367Y0200015D02*
X0101299Y0200015D01*
X0102897Y0198417D02*
X0104436Y0198417D01*
X0104386Y0196818D02*
X0102948Y0196818D01*
X0102934Y0195220D02*
X0104399Y0195220D01*
X0105998Y0193621D02*
X0101967Y0193621D01*
X0101967Y0192023D02*
X0111367Y0192023D01*
X0111367Y0193621D02*
X0110335Y0193621D01*
X0108167Y0196800D02*
X0108167Y0207800D01*
X0104167Y0211800D01*
X0099167Y0211800D01*
X0097817Y0216001D02*
X0111367Y0216001D01*
X0111367Y0217599D02*
X0097817Y0217599D01*
X0105202Y0214402D02*
X0111367Y0214402D01*
X0111367Y0212803D02*
X0107123Y0212803D01*
X0106540Y0213386D02*
X0106540Y0213386D01*
X0108721Y0211205D02*
X0111367Y0211205D01*
X0111367Y0209606D02*
X0110320Y0209606D01*
X0110967Y0208008D02*
X0111367Y0208008D01*
X0111367Y0206409D02*
X0110967Y0206409D01*
X0110967Y0204811D02*
X0111367Y0204811D01*
X0111367Y0203212D02*
X0110967Y0203212D01*
X0110967Y0201614D02*
X0111367Y0201614D01*
X0111367Y0200015D02*
X0110967Y0200015D01*
X0116967Y0198417D02*
X0117459Y0198417D01*
X0111367Y0190424D02*
X0101967Y0190424D01*
X0101967Y0188826D02*
X0111367Y0188826D01*
X0111367Y0187227D02*
X0101967Y0187227D01*
X0101967Y0185629D02*
X0111367Y0185629D01*
X0111367Y0184030D02*
X0101967Y0184030D01*
X0102495Y0182432D02*
X0110839Y0182432D01*
X0109240Y0180833D02*
X0104093Y0180833D01*
X0105692Y0179235D02*
X0107642Y0179235D01*
X0104167Y0176800D02*
X0104167Y0171800D01*
X0099167Y0171800D02*
X0104167Y0166800D01*
X0101027Y0164848D02*
X0077547Y0164848D01*
X0077356Y0164899D02*
X0074646Y0164899D01*
X0074646Y0161020D01*
X0078919Y0161020D01*
X0078919Y0163336D01*
X0078797Y0163794D01*
X0078560Y0164204D01*
X0078225Y0164540D01*
X0077814Y0164777D01*
X0077356Y0164899D01*
X0078919Y0163250D02*
X0102626Y0163250D01*
X0105058Y0161651D02*
X0078919Y0161651D01*
X0078919Y0160053D02*
X0103459Y0160053D01*
X0105707Y0163250D02*
X0106367Y0163250D01*
X0111967Y0163250D02*
X0120867Y0163250D01*
X0120867Y0164848D02*
X0111967Y0164848D01*
X0111967Y0161651D02*
X0122038Y0161651D01*
X0122627Y0160053D02*
X0111379Y0160053D01*
X0109781Y0158454D02*
X0122627Y0158454D01*
X0122627Y0156856D02*
X0108182Y0156856D01*
X0106584Y0155257D02*
X0121664Y0155257D01*
X0120065Y0153659D02*
X0095655Y0153659D01*
X0095948Y0152060D02*
X0118467Y0152060D01*
X0115481Y0150462D02*
X0095948Y0150462D01*
X0094967Y0148863D02*
X0113882Y0148863D01*
X0113386Y0147265D02*
X0094967Y0147265D01*
X0094967Y0145666D02*
X0113386Y0145666D01*
X0114552Y0144068D02*
X0094967Y0144068D01*
X0094967Y0142469D02*
X0116367Y0142469D01*
X0116166Y0140870D02*
X0112167Y0140870D01*
X0113766Y0139272D02*
X0114568Y0139272D01*
X0114167Y0137673D02*
X0114167Y0137673D01*
X0114167Y0136075D02*
X0114167Y0136075D01*
X0113914Y0134476D02*
X0114419Y0134476D01*
X0116018Y0132878D02*
X0112316Y0132878D01*
X0111967Y0131279D02*
X0116667Y0131279D01*
X0116667Y0129681D02*
X0111007Y0129681D01*
X0109409Y0128082D02*
X0116667Y0128082D01*
X0116667Y0126484D02*
X0107810Y0126484D01*
X0106967Y0124885D02*
X0114898Y0124885D01*
X0112118Y0123287D02*
X0107948Y0123287D01*
X0107948Y0121688D02*
X0110519Y0121688D01*
X0104167Y0121800D02*
X0104167Y0126800D01*
X0109167Y0131800D01*
X0109167Y0136800D01*
X0106018Y0132878D02*
X0102316Y0132878D01*
X0101967Y0131279D02*
X0104686Y0131279D01*
X0103088Y0129681D02*
X0101967Y0129681D01*
X0103914Y0134476D02*
X0104419Y0134476D01*
X0104167Y0136075D02*
X0104167Y0136075D01*
X0104167Y0137673D02*
X0104167Y0137673D01*
X0103766Y0139272D02*
X0104568Y0139272D01*
X0106166Y0140870D02*
X0102167Y0140870D01*
X0099167Y0136800D02*
X0099167Y0116800D01*
X0101667Y0114300D01*
X0101667Y0089300D01*
X0099167Y0086800D01*
X0091342Y0086800D01*
X0091067Y0086524D01*
X0091441Y0089300D02*
X0091067Y0089674D01*
X0098041Y0089674D01*
X0099167Y0090800D01*
X0099167Y0095800D01*
X0094167Y0100800D01*
X0094167Y0121800D01*
X0081367Y0121688D02*
X0069093Y0121688D01*
X0069093Y0120090D02*
X0081367Y0120090D01*
X0081367Y0118491D02*
X0069093Y0118491D01*
X0069093Y0116893D02*
X0081367Y0116893D01*
X0081367Y0115294D02*
X0078520Y0115294D01*
X0079948Y0113696D02*
X0081367Y0113696D01*
X0081367Y0112097D02*
X0079948Y0112097D01*
X0079713Y0110499D02*
X0081367Y0110499D01*
X0081367Y0108900D02*
X0078967Y0108900D01*
X0078967Y0107302D02*
X0081367Y0107302D01*
X0080610Y0105703D02*
X0078530Y0105703D01*
X0078470Y0104105D02*
X0079395Y0104105D01*
X0078891Y0102506D02*
X0078891Y0102506D01*
X0078891Y0100908D02*
X0078891Y0100908D01*
X0075741Y0098700D02*
X0075741Y0103375D01*
X0075667Y0103300D02*
X0075667Y0106800D01*
X0076167Y0107300D01*
X0076167Y0112300D01*
X0072386Y0112097D02*
X0069093Y0112097D01*
X0069093Y0110499D02*
X0072621Y0110499D01*
X0073367Y0108900D02*
X0069093Y0108900D01*
X0069093Y0107302D02*
X0072867Y0107302D01*
X0071667Y0104300D02*
X0074667Y0104300D01*
X0075667Y0103300D01*
X0075667Y0098775D01*
X0075741Y0098700D01*
X0072592Y0097711D02*
X0072592Y0097711D01*
X0072592Y0096112D02*
X0072592Y0096112D01*
X0072592Y0094514D02*
X0072592Y0094514D01*
X0072467Y0092915D02*
X0084388Y0092915D01*
X0079167Y0087800D02*
X0077667Y0089300D01*
X0075354Y0086521D02*
X0073267Y0086521D01*
X0073267Y0088120D02*
X0074067Y0088120D01*
X0074067Y0089718D02*
X0072467Y0089718D01*
X0072467Y0091317D02*
X0074592Y0091317D01*
X0073667Y0090800D02*
X0074167Y0090300D01*
X0069667Y0087300D02*
X0069667Y0098476D01*
X0069442Y0098700D01*
X0069167Y0098424D01*
X0069442Y0098700D02*
X0069442Y0101524D01*
X0069167Y0101800D01*
X0071667Y0104300D01*
X0069110Y0105703D02*
X0069093Y0105703D01*
X0066293Y0098700D02*
X0066293Y0123666D01*
X0074167Y0131540D01*
X0074167Y0136800D01*
X0079167Y0141800D01*
X0079167Y0148060D01*
X0074167Y0153060D01*
X0079119Y0153659D02*
X0082065Y0153659D01*
X0081367Y0152060D02*
X0079126Y0152060D01*
X0080725Y0150462D02*
X0081367Y0150462D01*
X0079119Y0155257D02*
X0083664Y0155257D01*
X0085262Y0156856D02*
X0078711Y0156856D01*
X0078919Y0158454D02*
X0086861Y0158454D01*
X0092167Y0151800D02*
X0092167Y0139800D01*
X0089167Y0136800D01*
X0094967Y0140870D02*
X0096166Y0140870D01*
X0081367Y0139272D02*
X0080598Y0139272D01*
X0081367Y0137673D02*
X0079000Y0137673D01*
X0077401Y0136075D02*
X0081367Y0136075D01*
X0081367Y0134476D02*
X0076967Y0134476D01*
X0076967Y0132878D02*
X0081367Y0132878D01*
X0081367Y0131279D02*
X0076967Y0131279D01*
X0076267Y0129681D02*
X0081367Y0129681D01*
X0081367Y0128082D02*
X0074669Y0128082D01*
X0073070Y0126484D02*
X0081367Y0126484D01*
X0081367Y0124885D02*
X0071472Y0124885D01*
X0069873Y0123287D02*
X0081367Y0123287D01*
X0073814Y0115294D02*
X0069093Y0115294D01*
X0069093Y0113696D02*
X0072386Y0113696D01*
X0063143Y0122824D02*
X0059167Y0126800D01*
X0054792Y0126800D01*
X0052118Y0127662D02*
X0049967Y0125511D01*
X0049967Y0128200D01*
X0050658Y0128200D01*
X0052767Y0130309D01*
X0052767Y0133291D01*
X0051967Y0134091D01*
X0051967Y0142357D01*
X0051540Y0143386D01*
X0051192Y0143734D01*
X0051758Y0144300D01*
X0059869Y0144300D01*
X0059774Y0144204D01*
X0059537Y0143794D01*
X0059414Y0143336D01*
X0059414Y0141020D01*
X0063687Y0141020D01*
X0063687Y0140061D01*
X0059414Y0140061D01*
X0059414Y0137744D01*
X0059537Y0137286D01*
X0059726Y0136959D01*
X0059214Y0136447D01*
X0059214Y0131643D01*
X0057751Y0130179D01*
X0057171Y0129600D01*
X0054235Y0129600D01*
X0053206Y0129174D01*
X0052418Y0128386D01*
X0052118Y0127662D01*
X0052292Y0128082D02*
X0049967Y0128082D01*
X0049967Y0126484D02*
X0050940Y0126484D01*
X0052139Y0129681D02*
X0057252Y0129681D01*
X0058851Y0131279D02*
X0052767Y0131279D01*
X0052767Y0132878D02*
X0059214Y0132878D01*
X0059214Y0134476D02*
X0051967Y0134476D01*
X0051967Y0136075D02*
X0059214Y0136075D01*
X0059433Y0137673D02*
X0051967Y0137673D01*
X0051967Y0139272D02*
X0059414Y0139272D01*
X0059414Y0142469D02*
X0051920Y0142469D01*
X0051967Y0140870D02*
X0063687Y0140870D01*
X0064646Y0140870D02*
X0074277Y0140870D01*
X0072679Y0139272D02*
X0068919Y0139272D01*
X0068919Y0140061D02*
X0064646Y0140061D01*
X0064646Y0141020D01*
X0068919Y0141020D01*
X0068919Y0143336D01*
X0068797Y0143794D01*
X0068560Y0144204D01*
X0068447Y0144318D01*
X0069323Y0144681D01*
X0073143Y0148501D01*
X0074766Y0148501D01*
X0076367Y0146900D01*
X0076367Y0142960D01*
X0072581Y0139174D01*
X0071793Y0138386D01*
X0071367Y0137357D01*
X0071367Y0132700D01*
X0069119Y0130453D01*
X0069119Y0136447D01*
X0068608Y0136959D01*
X0068797Y0137286D01*
X0068919Y0137744D01*
X0068919Y0140061D01*
X0068900Y0137673D02*
X0071498Y0137673D01*
X0071367Y0136075D02*
X0069119Y0136075D01*
X0069119Y0134476D02*
X0071367Y0134476D01*
X0071367Y0132878D02*
X0069119Y0132878D01*
X0069119Y0131279D02*
X0069946Y0131279D01*
X0063143Y0122824D02*
X0063143Y0098700D01*
X0059167Y0099724D02*
X0059167Y0111800D01*
X0054167Y0116800D01*
X0045792Y0117800D02*
X0044167Y0117800D01*
X0030129Y0107302D02*
X0017927Y0107302D01*
X0017682Y0107200D02*
X0019372Y0107900D01*
X0020666Y0109194D01*
X0021367Y0110885D01*
X0021367Y0112715D01*
X0020666Y0114406D01*
X0019372Y0115700D01*
X0017682Y0116400D01*
X0010652Y0116400D01*
X0008961Y0115700D01*
X0007667Y0114406D01*
X0006967Y0112715D01*
X0006967Y0110885D01*
X0007667Y0109194D01*
X0008961Y0107900D01*
X0010652Y0107200D01*
X0017682Y0107200D01*
X0019364Y0105703D02*
X0031728Y0105703D01*
X0028531Y0108900D02*
X0020372Y0108900D01*
X0021207Y0110499D02*
X0027000Y0110499D01*
X0026667Y0112097D02*
X0021367Y0112097D01*
X0020960Y0113696D02*
X0026667Y0113696D01*
X0026667Y0115294D02*
X0019778Y0115294D01*
X0010406Y0107302D02*
X0006167Y0107302D01*
X0006167Y0108900D02*
X0007961Y0108900D01*
X0007127Y0110499D02*
X0006167Y0110499D01*
X0006167Y0112097D02*
X0006967Y0112097D01*
X0007373Y0113696D02*
X0006167Y0113696D01*
X0006167Y0115294D02*
X0008556Y0115294D01*
X0008970Y0105703D02*
X0006167Y0105703D01*
X0006167Y0104105D02*
X0007542Y0104105D01*
X0006967Y0102506D02*
X0006167Y0102506D01*
X0006167Y0100908D02*
X0006967Y0100908D01*
X0007619Y0099309D02*
X0006167Y0099309D01*
X0006167Y0097711D02*
X0009419Y0097711D01*
X0009957Y0096112D02*
X0006167Y0096112D01*
X0006167Y0094514D02*
X0007775Y0094514D01*
X0007050Y0092915D02*
X0006167Y0092915D01*
X0006167Y0091317D02*
X0006967Y0091317D01*
X0007450Y0089718D02*
X0006167Y0089718D01*
X0006167Y0088120D02*
X0008742Y0088120D01*
X0006167Y0086521D02*
X0020486Y0086521D01*
X0020149Y0084923D02*
X0021367Y0084923D01*
X0024167Y0086800D02*
X0024167Y0081800D01*
X0029167Y0076800D01*
X0039167Y0076800D01*
X0042041Y0073926D01*
X0051293Y0073926D01*
X0051167Y0073800D01*
X0051293Y0073926D02*
X0057267Y0073926D01*
X0057267Y0077076D02*
X0044442Y0077076D01*
X0044442Y0077524D01*
X0044167Y0077800D01*
X0039167Y0076800D02*
X0034167Y0081800D01*
X0049167Y0096800D01*
X0045567Y0097711D02*
X0018915Y0097711D01*
X0018377Y0096112D02*
X0044519Y0096112D01*
X0042921Y0094514D02*
X0020558Y0094514D01*
X0021540Y0093386D02*
X0021540Y0093386D01*
X0022011Y0092915D02*
X0041322Y0092915D01*
X0039723Y0091317D02*
X0023610Y0091317D01*
X0025208Y0089718D02*
X0038125Y0089718D01*
X0036526Y0088120D02*
X0026651Y0088120D01*
X0026967Y0086521D02*
X0034928Y0086521D01*
X0033329Y0084923D02*
X0026967Y0084923D01*
X0026967Y0083324D02*
X0031767Y0083324D01*
X0031367Y0081726D02*
X0028201Y0081726D01*
X0029799Y0080127D02*
X0031880Y0080127D01*
X0024167Y0086800D02*
X0019167Y0091800D01*
X0014167Y0091800D01*
X0008184Y0084923D02*
X0006167Y0084923D01*
X0006167Y0083324D02*
X0007219Y0083324D01*
X0006967Y0081726D02*
X0006167Y0081726D01*
X0006167Y0080127D02*
X0007281Y0080127D01*
X0008333Y0078529D02*
X0006167Y0078529D01*
X0006167Y0076930D02*
X0020077Y0076930D01*
X0020726Y0075332D02*
X0021675Y0075332D01*
X0022325Y0073733D02*
X0023274Y0073733D01*
X0022792Y0072134D02*
X0024872Y0072134D01*
X0024390Y0070536D02*
X0026471Y0070536D01*
X0025989Y0068937D02*
X0031682Y0068937D01*
X0034668Y0067339D02*
X0026967Y0067339D01*
X0026967Y0065740D02*
X0036266Y0065740D01*
X0038267Y0064142D02*
X0026967Y0064142D01*
X0027383Y0062543D02*
X0035172Y0062543D01*
X0034088Y0060945D02*
X0028982Y0060945D01*
X0029167Y0056800D02*
X0024167Y0061800D01*
X0024167Y0066800D01*
X0019167Y0071800D01*
X0014167Y0071800D01*
X0010316Y0067339D02*
X0006167Y0067339D01*
X0006167Y0068937D02*
X0007924Y0068937D01*
X0007111Y0070536D02*
X0006167Y0070536D01*
X0006167Y0072134D02*
X0006967Y0072134D01*
X0007388Y0073733D02*
X0006167Y0073733D01*
X0006167Y0075332D02*
X0008593Y0075332D01*
X0014167Y0081800D02*
X0019167Y0081800D01*
X0029167Y0071800D01*
X0034167Y0071800D01*
X0039167Y0066800D01*
X0040066Y0064142D02*
X0053386Y0064142D01*
X0053386Y0062543D02*
X0039411Y0062543D01*
X0029167Y0056800D02*
X0059167Y0056800D01*
X0063143Y0060776D01*
X0063143Y0064900D01*
X0063143Y0075776D01*
X0064167Y0076800D01*
X0066667Y0076800D01*
X0067167Y0077300D01*
X0069167Y0077300D01*
X0072232Y0075275D02*
X0070758Y0073800D01*
X0072267Y0072291D01*
X0072267Y0069400D01*
X0074520Y0069400D01*
X0074720Y0069200D01*
X0075741Y0069200D01*
X0075741Y0064900D01*
X0075742Y0064900D01*
X0075742Y0060600D01*
X0076763Y0060600D01*
X0076963Y0060400D01*
X0079241Y0060400D01*
X0079241Y0059117D01*
X0079367Y0058813D01*
X0079367Y0040960D01*
X0078007Y0039600D01*
X0076458Y0039600D01*
X0076206Y0039852D01*
X0074883Y0040400D01*
X0073451Y0040400D01*
X0072127Y0039852D01*
X0071115Y0038839D01*
X0070567Y0037516D01*
X0070567Y0036084D01*
X0070725Y0035701D01*
X0069967Y0036460D01*
X0069967Y0044357D01*
X0069540Y0045386D01*
X0068753Y0046174D01*
X0063126Y0051800D01*
X0067879Y0056552D01*
X0068666Y0057340D01*
X0069093Y0058369D01*
X0069093Y0060400D01*
X0074520Y0060400D01*
X0074720Y0060600D01*
X0075741Y0060600D01*
X0075741Y0064900D01*
X0075742Y0064900D01*
X0075742Y0069200D01*
X0076763Y0069200D01*
X0076963Y0069400D01*
X0086567Y0069400D01*
X0086567Y0071998D01*
X0086567Y0074276D01*
X0073834Y0074276D01*
X0072805Y0074702D01*
X0072232Y0075275D01*
X0070825Y0073733D02*
X0086567Y0073733D01*
X0086567Y0072134D02*
X0072267Y0072134D01*
X0072267Y0070536D02*
X0086567Y0070536D01*
X0088290Y0067339D02*
X0119668Y0067339D01*
X0121266Y0065740D02*
X0088290Y0065740D01*
X0088290Y0064142D02*
X0122865Y0064142D01*
X0124463Y0062543D02*
X0089430Y0062543D01*
X0091029Y0060945D02*
X0126062Y0060945D01*
X0127660Y0059346D02*
X0104468Y0059346D01*
X0105448Y0057748D02*
X0129259Y0057748D01*
X0130857Y0056149D02*
X0105448Y0056149D01*
X0104765Y0054551D02*
X0126570Y0054551D01*
X0125386Y0052952D02*
X0084967Y0052952D01*
X0084967Y0051354D02*
X0086373Y0051354D01*
X0085386Y0049755D02*
X0084967Y0049755D01*
X0084967Y0048157D02*
X0085386Y0048157D01*
X0089167Y0048800D02*
X0126167Y0048800D01*
X0129167Y0051800D01*
X0131763Y0054551D02*
X0132456Y0054551D01*
X0132948Y0052952D02*
X0134054Y0052952D01*
X0132948Y0051354D02*
X0135653Y0051354D01*
X0137252Y0049755D02*
X0132469Y0049755D01*
X0130871Y0048157D02*
X0138850Y0048157D01*
X0140449Y0046558D02*
X0127885Y0046558D01*
X0123164Y0041763D02*
X0148367Y0041763D01*
X0148367Y0040164D02*
X0124762Y0040164D01*
X0128748Y0038566D02*
X0148367Y0038566D01*
X0148367Y0036967D02*
X0129948Y0036967D01*
X0129948Y0035369D02*
X0148729Y0035369D01*
X0150237Y0033770D02*
X0129484Y0033770D01*
X0127886Y0032172D02*
X0151835Y0032172D01*
X0153434Y0030573D02*
X0075853Y0030573D01*
X0074255Y0032172D02*
X0124448Y0032172D01*
X0122849Y0033770D02*
X0076228Y0033770D01*
X0074167Y0036800D02*
X0079167Y0036800D01*
X0082167Y0039800D01*
X0082167Y0043800D01*
X0082167Y0059548D01*
X0082041Y0059674D01*
X0082041Y0064900D01*
X0085190Y0064900D02*
X0085190Y0062824D01*
X0091214Y0056800D01*
X0101667Y0056800D01*
X0089503Y0054551D02*
X0084967Y0054551D01*
X0084967Y0056149D02*
X0087905Y0056149D01*
X0086306Y0057748D02*
X0084967Y0057748D01*
X0079367Y0057748D02*
X0068835Y0057748D01*
X0069093Y0059346D02*
X0079241Y0059346D01*
X0079367Y0056149D02*
X0067476Y0056149D01*
X0065877Y0054551D02*
X0079367Y0054551D01*
X0079367Y0052952D02*
X0064279Y0052952D01*
X0063573Y0051354D02*
X0079367Y0051354D01*
X0079367Y0049755D02*
X0065171Y0049755D01*
X0066770Y0048157D02*
X0079367Y0048157D01*
X0079367Y0046558D02*
X0068368Y0046558D01*
X0069717Y0044960D02*
X0079367Y0044960D01*
X0079367Y0043361D02*
X0069967Y0043361D01*
X0069967Y0041763D02*
X0079367Y0041763D01*
X0078571Y0040164D02*
X0075452Y0040164D01*
X0072882Y0040164D02*
X0069967Y0040164D01*
X0069967Y0038566D02*
X0071001Y0038566D01*
X0070567Y0036967D02*
X0069967Y0036967D01*
X0067167Y0035300D02*
X0080167Y0022300D01*
X0080167Y0015300D01*
X0079667Y0014800D01*
X0074446Y0014800D01*
X0072446Y0016800D01*
X0069826Y0011391D02*
X0063386Y0011391D01*
X0063967Y0011972D02*
X0062795Y0010800D01*
X0053138Y0010800D01*
X0051967Y0011972D01*
X0051967Y0021628D01*
X0053138Y0022800D01*
X0062795Y0022800D01*
X0063967Y0021628D01*
X0063967Y0011972D01*
X0063967Y0012990D02*
X0067771Y0012990D01*
X0066868Y0014588D02*
X0063967Y0014588D01*
X0063967Y0016187D02*
X0066446Y0016187D01*
X0066446Y0017785D02*
X0063967Y0017785D01*
X0063967Y0019384D02*
X0067022Y0019384D01*
X0068143Y0020982D02*
X0063967Y0020982D01*
X0063014Y0022581D02*
X0070723Y0022581D01*
X0072729Y0025778D02*
X0030446Y0025778D01*
X0030446Y0027376D02*
X0071131Y0027376D01*
X0069532Y0028975D02*
X0030446Y0028975D01*
X0030446Y0030573D02*
X0067934Y0030573D01*
X0066335Y0032172D02*
X0030446Y0032172D01*
X0030446Y0033770D02*
X0064770Y0033770D01*
X0064367Y0035369D02*
X0030446Y0035369D01*
X0030446Y0036967D02*
X0064367Y0036967D01*
X0064367Y0038566D02*
X0030446Y0038566D01*
X0030446Y0040164D02*
X0064367Y0040164D01*
X0064367Y0041763D02*
X0030446Y0041763D01*
X0030446Y0043361D02*
X0063646Y0043361D01*
X0062047Y0044960D02*
X0030446Y0044960D01*
X0030446Y0046558D02*
X0060449Y0046558D01*
X0058850Y0048157D02*
X0030446Y0048157D01*
X0027646Y0050280D02*
X0029167Y0051800D01*
X0059167Y0051800D01*
X0067167Y0043800D01*
X0067167Y0035300D01*
X0077452Y0028975D02*
X0155032Y0028975D01*
X0156631Y0027376D02*
X0079050Y0027376D01*
X0080649Y0025778D02*
X0158229Y0025778D01*
X0159828Y0024179D02*
X0082247Y0024179D01*
X0082967Y0022581D02*
X0086347Y0022581D01*
X0086545Y0022581D02*
X0087307Y0022581D01*
X0087504Y0022581D02*
X0098419Y0022581D01*
X0098638Y0022800D02*
X0097467Y0021628D01*
X0097467Y0011972D01*
X0098638Y0010800D01*
X0108295Y0010800D01*
X0109467Y0011972D01*
X0109467Y0021628D01*
X0108295Y0022800D01*
X0098638Y0022800D01*
X0097467Y0020982D02*
X0090946Y0020982D01*
X0092119Y0019384D02*
X0097467Y0019384D01*
X0097467Y0017785D02*
X0092642Y0017785D01*
X0092726Y0016419D02*
X0087307Y0016419D01*
X0087307Y0011000D01*
X0087382Y0011000D01*
X0088284Y0011143D01*
X0089152Y0011425D01*
X0089966Y0011839D01*
X0090704Y0012376D01*
X0091350Y0013022D01*
X0091886Y0013760D01*
X0092301Y0014574D01*
X0092583Y0015442D01*
X0092726Y0016344D01*
X0092726Y0016419D01*
X0092701Y0016187D02*
X0097467Y0016187D01*
X0097467Y0014588D02*
X0092305Y0014588D01*
X0091318Y0012990D02*
X0097467Y0012990D01*
X0098047Y0011391D02*
X0089048Y0011391D01*
X0087307Y0011391D02*
X0086545Y0011391D01*
X0086545Y0012990D02*
X0087307Y0012990D01*
X0087307Y0014588D02*
X0086545Y0014588D01*
X0086545Y0016187D02*
X0087307Y0016187D01*
X0087307Y0017785D02*
X0086545Y0017785D01*
X0086545Y0019384D02*
X0087307Y0019384D01*
X0087307Y0020982D02*
X0086545Y0020982D01*
X0082534Y0012990D02*
X0081816Y0012990D01*
X0081753Y0012926D02*
X0081753Y0012926D01*
X0084803Y0011391D02*
X0075067Y0011391D01*
X0076749Y0020982D02*
X0077367Y0020982D01*
X0075926Y0022581D02*
X0074169Y0022581D01*
X0074328Y0024179D02*
X0030446Y0024179D01*
X0030446Y0022581D02*
X0040403Y0022581D01*
X0040932Y0022800D02*
X0038727Y0021887D01*
X0037039Y0020199D01*
X0036126Y0017993D01*
X0036126Y0015607D01*
X0037039Y0013401D01*
X0038727Y0011713D01*
X0040932Y0010800D01*
X0043319Y0010800D01*
X0045524Y0011713D01*
X0047212Y0013401D01*
X0048126Y0015607D01*
X0048126Y0017993D01*
X0047212Y0020199D01*
X0045524Y0021887D01*
X0043319Y0022800D01*
X0040932Y0022800D01*
X0043849Y0022581D02*
X0052919Y0022581D01*
X0051967Y0020982D02*
X0046429Y0020982D01*
X0047550Y0019384D02*
X0051967Y0019384D01*
X0051967Y0017785D02*
X0048126Y0017785D01*
X0048126Y0016187D02*
X0051967Y0016187D01*
X0051967Y0014588D02*
X0047704Y0014588D01*
X0046801Y0012990D02*
X0051967Y0012990D01*
X0052547Y0011391D02*
X0044746Y0011391D01*
X0039505Y0011391D02*
X0030267Y0011391D01*
X0032321Y0012990D02*
X0037451Y0012990D01*
X0036548Y0014588D02*
X0033224Y0014588D01*
X0033646Y0016187D02*
X0036126Y0016187D01*
X0036126Y0017785D02*
X0033646Y0017785D01*
X0033070Y0019384D02*
X0036702Y0019384D01*
X0037823Y0020982D02*
X0031949Y0020982D01*
X0027646Y0016800D02*
X0027646Y0050280D01*
X0029167Y0051800D02*
X0024167Y0051800D01*
X0014167Y0061800D01*
X0009059Y0065740D02*
X0006167Y0065740D01*
X0006167Y0064142D02*
X0007558Y0064142D01*
X0006967Y0062543D02*
X0006167Y0062543D01*
X0006167Y0060945D02*
X0006967Y0060945D01*
X0007604Y0059346D02*
X0006167Y0059346D01*
X0006167Y0057748D02*
X0009329Y0057748D01*
X0009878Y0055878D02*
X0010536Y0056092D01*
X0011220Y0056200D01*
X0014167Y0056200D01*
X0014167Y0051800D01*
X0014167Y0051800D01*
X0014167Y0051800D01*
X0013167Y0051800D01*
X0013167Y0016800D01*
X0013548Y0016419D02*
X0013548Y0017181D01*
X0018967Y0017181D01*
X0018967Y0021037D01*
X0018844Y0021495D01*
X0018607Y0021905D01*
X0018272Y0022240D01*
X0017861Y0022477D01*
X0017404Y0022600D01*
X0013548Y0022600D01*
X0013548Y0017181D01*
X0012786Y0017181D01*
X0012786Y0022600D01*
X0008930Y0022600D01*
X0008472Y0022477D01*
X0008061Y0022240D01*
X0007726Y0021905D01*
X0007489Y0021495D01*
X0007367Y0021037D01*
X0007367Y0017181D01*
X0012785Y0017181D01*
X0012785Y0016419D01*
X0007367Y0016419D01*
X0007367Y0012563D01*
X0007489Y0012105D01*
X0007726Y0011695D01*
X0008061Y0011360D01*
X0008472Y0011123D01*
X0008930Y0011000D01*
X0012786Y0011000D01*
X0012786Y0016419D01*
X0013548Y0016419D01*
X0018967Y0016419D01*
X0018967Y0012563D01*
X0018844Y0012105D01*
X0018607Y0011695D01*
X0018272Y0011360D01*
X0017861Y0011123D01*
X0017404Y0011000D01*
X0013548Y0011000D01*
X0013548Y0016419D01*
X0013548Y0016187D02*
X0012786Y0016187D01*
X0012786Y0017785D02*
X0013548Y0017785D01*
X0013548Y0019384D02*
X0012786Y0019384D01*
X0012786Y0020982D02*
X0013548Y0020982D01*
X0013548Y0022581D02*
X0012786Y0022581D01*
X0017476Y0022581D02*
X0024846Y0022581D01*
X0024846Y0024179D02*
X0006167Y0024179D01*
X0006167Y0022581D02*
X0008857Y0022581D01*
X0007367Y0020982D02*
X0006167Y0020982D01*
X0006167Y0019384D02*
X0007367Y0019384D01*
X0007367Y0017785D02*
X0006167Y0017785D01*
X0006167Y0016187D02*
X0007367Y0016187D01*
X0007367Y0014588D02*
X0006167Y0014588D01*
X0006167Y0012990D02*
X0007367Y0012990D01*
X0008030Y0011391D02*
X0006167Y0011391D01*
X0006167Y0009793D02*
X0120994Y0009793D01*
X0122592Y0008194D02*
X0006167Y0008194D01*
X0006167Y0006596D02*
X0124191Y0006596D01*
X0125789Y0004997D02*
X0006167Y0004997D01*
X0012786Y0011391D02*
X0013548Y0011391D01*
X0013548Y0012990D02*
X0012786Y0012990D01*
X0012786Y0014588D02*
X0013548Y0014588D01*
X0018967Y0014588D02*
X0022068Y0014588D01*
X0021646Y0016187D02*
X0018967Y0016187D01*
X0018967Y0017785D02*
X0021646Y0017785D01*
X0022222Y0019384D02*
X0018967Y0019384D01*
X0018967Y0020982D02*
X0023343Y0020982D01*
X0024846Y0025778D02*
X0006167Y0025778D01*
X0006167Y0027376D02*
X0024846Y0027376D01*
X0024846Y0028975D02*
X0006167Y0028975D01*
X0006167Y0030573D02*
X0024846Y0030573D01*
X0024846Y0032172D02*
X0006167Y0032172D01*
X0006167Y0033770D02*
X0024846Y0033770D01*
X0024846Y0035369D02*
X0006167Y0035369D01*
X0006167Y0036967D02*
X0024846Y0036967D01*
X0024846Y0038566D02*
X0006167Y0038566D01*
X0006167Y0040164D02*
X0024846Y0040164D01*
X0024846Y0041763D02*
X0006167Y0041763D01*
X0006167Y0043361D02*
X0024846Y0043361D01*
X0024846Y0044960D02*
X0006167Y0044960D01*
X0006167Y0046558D02*
X0024846Y0046558D01*
X0024846Y0048157D02*
X0019238Y0048157D01*
X0020663Y0049755D02*
X0022252Y0049755D01*
X0023777Y0056149D02*
X0025857Y0056149D01*
X0024259Y0057748D02*
X0022179Y0057748D01*
X0022660Y0059346D02*
X0020729Y0059346D01*
X0021367Y0060945D02*
X0021490Y0060945D01*
X0021367Y0062543D02*
X0021367Y0062543D01*
X0021367Y0064142D02*
X0020776Y0064142D01*
X0021266Y0065740D02*
X0019274Y0065740D01*
X0019668Y0067339D02*
X0018017Y0067339D01*
X0014167Y0056149D02*
X0014167Y0056149D01*
X0014167Y0054551D02*
X0014167Y0054551D01*
X0014167Y0052952D02*
X0014167Y0052952D01*
X0014167Y0051800D02*
X0014167Y0051800D01*
X0014167Y0047400D01*
X0011220Y0047400D01*
X0010536Y0047508D01*
X0009878Y0047722D01*
X0009261Y0048037D01*
X0008700Y0048444D01*
X0008211Y0048934D01*
X0007803Y0049494D01*
X0007489Y0050111D01*
X0007275Y0050770D01*
X0007167Y0051454D01*
X0007167Y0051800D01*
X0014167Y0051800D01*
X0007167Y0051800D01*
X0007167Y0052146D01*
X0007275Y0052830D01*
X0007489Y0053489D01*
X0007803Y0054106D01*
X0008211Y0054666D01*
X0008700Y0055156D01*
X0009261Y0055563D01*
X0009878Y0055878D01*
X0010901Y0056149D02*
X0006167Y0056149D01*
X0006167Y0054551D02*
X0008127Y0054551D01*
X0007315Y0052952D02*
X0006167Y0052952D01*
X0006167Y0051354D02*
X0007182Y0051354D01*
X0007670Y0049755D02*
X0006167Y0049755D01*
X0006167Y0048157D02*
X0009095Y0048157D01*
X0014167Y0048157D02*
X0014167Y0048157D01*
X0014167Y0049755D02*
X0014167Y0049755D01*
X0014167Y0051354D02*
X0014167Y0051354D01*
X0040667Y0082300D02*
X0041741Y0083375D01*
X0057267Y0083375D01*
X0064167Y0087300D02*
X0074391Y0077076D01*
X0091067Y0077076D01*
X0091067Y0073926D02*
X0121293Y0073926D01*
X0124167Y0076800D01*
X0120190Y0070776D02*
X0091067Y0070776D01*
X0081880Y0080127D02*
X0075299Y0080127D01*
X0075667Y0080300D02*
X0074167Y0081800D01*
X0073701Y0081726D02*
X0080281Y0081726D01*
X0078683Y0083324D02*
X0072102Y0083324D01*
X0072380Y0084923D02*
X0077084Y0084923D01*
X0074167Y0071800D02*
X0075741Y0070225D01*
X0075741Y0069225D01*
X0075741Y0064900D01*
X0075741Y0064142D02*
X0075742Y0064142D01*
X0075741Y0065740D02*
X0075742Y0065740D01*
X0075741Y0067339D02*
X0075742Y0067339D01*
X0075741Y0068937D02*
X0075742Y0068937D01*
X0075741Y0069225D02*
X0074167Y0070800D01*
X0068667Y0070800D02*
X0068167Y0070800D01*
X0066293Y0068926D01*
X0066293Y0064900D01*
X0066293Y0058926D01*
X0059167Y0051800D01*
X0057167Y0063800D02*
X0057167Y0070676D01*
X0057267Y0070776D01*
X0054367Y0067339D02*
X0053241Y0067339D01*
X0053760Y0065740D02*
X0051643Y0065740D01*
X0075741Y0062543D02*
X0075742Y0062543D01*
X0075741Y0060945D02*
X0075742Y0060945D01*
X0082167Y0043800D02*
X0107167Y0043800D01*
X0109167Y0041800D01*
X0119167Y0041800D01*
X0125167Y0035800D01*
X0126167Y0035800D01*
X0121638Y0035369D02*
X0081695Y0035369D01*
X0083294Y0036967D02*
X0120040Y0036967D01*
X0118441Y0038566D02*
X0084686Y0038566D01*
X0084967Y0040164D02*
X0106843Y0040164D01*
X0109967Y0044960D02*
X0142047Y0044960D01*
X0143737Y0043361D02*
X0121565Y0043361D01*
X0119669Y0022581D02*
X0131847Y0022581D01*
X0131969Y0022600D02*
X0131068Y0022457D01*
X0130199Y0022175D01*
X0129386Y0021761D01*
X0128647Y0021224D01*
X0128002Y0020578D01*
X0127465Y0019840D01*
X0127051Y0019026D01*
X0126769Y0018158D01*
X0126626Y0017256D01*
X0126626Y0017181D01*
X0132045Y0017181D01*
X0132045Y0022600D01*
X0131969Y0022600D01*
X0132045Y0022581D02*
X0132807Y0022581D01*
X0132807Y0022600D02*
X0132882Y0022600D01*
X0133784Y0022457D01*
X0134652Y0022175D01*
X0135466Y0021761D01*
X0136204Y0021224D01*
X0136850Y0020578D01*
X0137386Y0019840D01*
X0137801Y0019026D01*
X0138083Y0018158D01*
X0138226Y0017256D01*
X0138226Y0017181D01*
X0132807Y0017181D01*
X0132807Y0016419D01*
X0138226Y0016419D01*
X0138226Y0016344D01*
X0138083Y0015442D01*
X0137801Y0014574D01*
X0137386Y0013760D01*
X0136850Y0013022D01*
X0136204Y0012376D01*
X0135466Y0011839D01*
X0134652Y0011425D01*
X0133784Y0011143D01*
X0132882Y0011000D01*
X0132807Y0011000D01*
X0132807Y0016419D01*
X0132045Y0016419D01*
X0132045Y0011000D01*
X0131969Y0011000D01*
X0131068Y0011143D01*
X0130199Y0011425D01*
X0129386Y0011839D01*
X0128647Y0012376D01*
X0128002Y0013022D01*
X0127465Y0013760D01*
X0127051Y0014574D01*
X0126769Y0015442D01*
X0126626Y0016344D01*
X0126626Y0016419D01*
X0132045Y0016419D01*
X0132045Y0017181D01*
X0132807Y0017181D01*
X0132807Y0022600D01*
X0133004Y0022581D02*
X0144157Y0022581D01*
X0144230Y0022600D02*
X0143772Y0022477D01*
X0143361Y0022240D01*
X0143026Y0021905D01*
X0142789Y0021495D01*
X0142667Y0021037D01*
X0142667Y0017181D01*
X0148085Y0017181D01*
X0148085Y0016419D01*
X0142667Y0016419D01*
X0142667Y0012563D01*
X0142789Y0012105D01*
X0143026Y0011695D01*
X0143361Y0011360D01*
X0143772Y0011123D01*
X0144230Y0011000D01*
X0148086Y0011000D01*
X0148086Y0016419D01*
X0148848Y0016419D01*
X0148848Y0017181D01*
X0154267Y0017181D01*
X0154267Y0021037D01*
X0154144Y0021495D01*
X0153907Y0021905D01*
X0153572Y0022240D01*
X0153161Y0022477D01*
X0152704Y0022600D01*
X0148848Y0022600D01*
X0148848Y0017181D01*
X0148086Y0017181D01*
X0148086Y0022600D01*
X0144230Y0022600D01*
X0142667Y0020982D02*
X0136446Y0020982D01*
X0137619Y0019384D02*
X0142667Y0019384D01*
X0142667Y0017785D02*
X0138142Y0017785D01*
X0138201Y0016187D02*
X0142667Y0016187D01*
X0142667Y0014588D02*
X0137805Y0014588D01*
X0136818Y0012990D02*
X0142667Y0012990D01*
X0143330Y0011391D02*
X0134548Y0011391D01*
X0132807Y0011391D02*
X0132045Y0011391D01*
X0132045Y0012990D02*
X0132807Y0012990D01*
X0132807Y0014588D02*
X0132045Y0014588D01*
X0132045Y0016187D02*
X0132807Y0016187D01*
X0132426Y0016800D02*
X0134167Y0016800D01*
X0132807Y0017785D02*
X0132045Y0017785D01*
X0132045Y0019384D02*
X0132807Y0019384D01*
X0132807Y0020982D02*
X0132045Y0020982D01*
X0128405Y0020982D02*
X0122249Y0020982D01*
X0123370Y0019384D02*
X0127233Y0019384D01*
X0126709Y0017785D02*
X0123946Y0017785D01*
X0123946Y0016187D02*
X0126651Y0016187D01*
X0127046Y0014588D02*
X0124118Y0014588D01*
X0125716Y0012990D02*
X0128034Y0012990D01*
X0127315Y0011391D02*
X0130303Y0011391D01*
X0128913Y0009793D02*
X0161367Y0009793D01*
X0160326Y0011391D02*
X0153603Y0011391D01*
X0153572Y0011360D02*
X0153907Y0011695D01*
X0154144Y0012105D01*
X0154267Y0012563D01*
X0154267Y0016419D01*
X0148848Y0016419D01*
X0148848Y0011000D01*
X0152704Y0011000D01*
X0153161Y0011123D01*
X0153572Y0011360D01*
X0154267Y0012990D02*
X0158271Y0012990D01*
X0157368Y0014588D02*
X0154267Y0014588D01*
X0154267Y0016187D02*
X0156946Y0016187D01*
X0156946Y0017785D02*
X0154267Y0017785D01*
X0154267Y0019384D02*
X0157522Y0019384D01*
X0158643Y0020982D02*
X0154267Y0020982D01*
X0152776Y0022581D02*
X0160146Y0022581D01*
X0162946Y0025020D02*
X0162946Y0016800D01*
X0164167Y0015580D01*
X0164167Y0006800D01*
X0127946Y0006800D01*
X0117946Y0016800D01*
X0112522Y0019384D02*
X0109467Y0019384D01*
X0109467Y0020982D02*
X0113643Y0020982D01*
X0116223Y0022581D02*
X0108514Y0022581D01*
X0109467Y0017785D02*
X0111946Y0017785D01*
X0111946Y0016187D02*
X0109467Y0016187D01*
X0109467Y0014588D02*
X0112368Y0014588D01*
X0113271Y0012990D02*
X0109467Y0012990D01*
X0108886Y0011391D02*
X0115326Y0011391D01*
X0148086Y0011391D02*
X0148848Y0011391D01*
X0148848Y0012990D02*
X0148086Y0012990D01*
X0148086Y0014588D02*
X0148848Y0014588D01*
X0148848Y0016187D02*
X0148086Y0016187D01*
X0148086Y0017785D02*
X0148848Y0017785D01*
X0148848Y0019384D02*
X0148086Y0019384D01*
X0148086Y0020982D02*
X0148848Y0020982D01*
X0148848Y0022581D02*
X0148086Y0022581D01*
X0159755Y0032172D02*
X0292088Y0032172D01*
X0292088Y0033770D02*
X0158156Y0033770D01*
X0156558Y0035369D02*
X0292088Y0035369D01*
X0292088Y0030573D02*
X0161353Y0030573D01*
X0162952Y0028975D02*
X0292088Y0028975D01*
X0292088Y0027376D02*
X0164550Y0027376D01*
X0165663Y0025778D02*
X0292088Y0025778D01*
X0292088Y0024179D02*
X0165746Y0024179D01*
X0165746Y0022581D02*
X0175703Y0022581D01*
X0176232Y0022800D02*
X0174027Y0021887D01*
X0172339Y0020199D01*
X0171426Y0017993D01*
X0171426Y0015607D01*
X0172339Y0013401D01*
X0174027Y0011713D01*
X0176232Y0010800D01*
X0178619Y0010800D01*
X0180824Y0011713D01*
X0182512Y0013401D01*
X0183426Y0015607D01*
X0183426Y0017993D01*
X0182512Y0020199D01*
X0180824Y0021887D01*
X0178619Y0022800D01*
X0176232Y0022800D01*
X0179149Y0022581D02*
X0189157Y0022581D01*
X0189230Y0022600D02*
X0188772Y0022477D01*
X0188361Y0022240D01*
X0188026Y0021905D01*
X0187789Y0021495D01*
X0187667Y0021037D01*
X0187667Y0017181D01*
X0193085Y0017181D01*
X0193085Y0016419D01*
X0187667Y0016419D01*
X0187667Y0012563D01*
X0187789Y0012105D01*
X0188026Y0011695D01*
X0188361Y0011360D01*
X0188772Y0011123D01*
X0189230Y0011000D01*
X0193086Y0011000D01*
X0193086Y0016419D01*
X0193848Y0016419D01*
X0193848Y0017181D01*
X0199267Y0017181D01*
X0199267Y0021037D01*
X0199144Y0021495D01*
X0198907Y0021905D01*
X0198572Y0022240D01*
X0198161Y0022477D01*
X0197704Y0022600D01*
X0193848Y0022600D01*
X0193848Y0017181D01*
X0193086Y0017181D01*
X0193086Y0022600D01*
X0189230Y0022600D01*
X0187667Y0020982D02*
X0181729Y0020982D01*
X0182850Y0019384D02*
X0187667Y0019384D01*
X0187667Y0017785D02*
X0183426Y0017785D01*
X0183426Y0016187D02*
X0187667Y0016187D01*
X0187667Y0014588D02*
X0183004Y0014588D01*
X0182101Y0012990D02*
X0187667Y0012990D01*
X0188330Y0011391D02*
X0180046Y0011391D01*
X0174805Y0011391D02*
X0166967Y0011391D01*
X0166967Y0009793D02*
X0198199Y0009793D01*
X0197704Y0011000D02*
X0198161Y0011123D01*
X0198572Y0011360D01*
X0198907Y0011695D01*
X0199144Y0012105D01*
X0199267Y0012563D01*
X0199267Y0016419D01*
X0193848Y0016419D01*
X0193848Y0011000D01*
X0197704Y0011000D01*
X0198603Y0011391D02*
X0199798Y0011391D01*
X0199267Y0012990D02*
X0201396Y0012990D01*
X0202368Y0014588D02*
X0199267Y0014588D01*
X0199267Y0016187D02*
X0201946Y0016187D01*
X0201946Y0017785D02*
X0199267Y0017785D01*
X0199267Y0019384D02*
X0202522Y0019384D01*
X0203643Y0020982D02*
X0199267Y0020982D01*
X0197776Y0022581D02*
X0206223Y0022581D01*
X0209669Y0022581D02*
X0220703Y0022581D01*
X0221232Y0022800D02*
X0219027Y0021887D01*
X0217339Y0020199D01*
X0216426Y0017993D01*
X0216426Y0015607D01*
X0217339Y0013401D01*
X0219027Y0011713D01*
X0221232Y0010800D01*
X0223619Y0010800D01*
X0225824Y0011713D01*
X0227512Y0013401D01*
X0228426Y0015607D01*
X0228426Y0017993D01*
X0227512Y0020199D01*
X0225824Y0021887D01*
X0223619Y0022800D01*
X0221232Y0022800D01*
X0224149Y0022581D02*
X0233419Y0022581D01*
X0233638Y0022800D02*
X0232467Y0021628D01*
X0232467Y0011972D01*
X0233638Y0010800D01*
X0243295Y0010800D01*
X0244467Y0011972D01*
X0244467Y0021628D01*
X0243295Y0022800D01*
X0233638Y0022800D01*
X0232467Y0020982D02*
X0226729Y0020982D01*
X0227850Y0019384D02*
X0232467Y0019384D01*
X0232467Y0017785D02*
X0228426Y0017785D01*
X0228426Y0016187D02*
X0232467Y0016187D01*
X0232467Y0014588D02*
X0228004Y0014588D01*
X0227101Y0012990D02*
X0232467Y0012990D01*
X0233047Y0011391D02*
X0225046Y0011391D01*
X0219805Y0011391D02*
X0217315Y0011391D01*
X0217751Y0012990D02*
X0215716Y0012990D01*
X0216848Y0014588D02*
X0214118Y0014588D01*
X0213946Y0016187D02*
X0216426Y0016187D01*
X0216426Y0017785D02*
X0213946Y0017785D01*
X0213370Y0019384D02*
X0217002Y0019384D01*
X0218123Y0020982D02*
X0212249Y0020982D01*
X0207946Y0016800D02*
X0217946Y0006800D01*
X0249167Y0006800D01*
X0252946Y0010580D01*
X0252946Y0016800D01*
X0255746Y0011391D02*
X0265303Y0011391D01*
X0265199Y0011425D02*
X0266068Y0011143D01*
X0266969Y0011000D01*
X0267045Y0011000D01*
X0267045Y0016419D01*
X0267807Y0016419D01*
X0267807Y0017181D01*
X0273226Y0017181D01*
X0273226Y0017256D01*
X0273083Y0018158D01*
X0272801Y0019026D01*
X0272386Y0019840D01*
X0271850Y0020578D01*
X0271204Y0021224D01*
X0270466Y0021761D01*
X0269652Y0022175D01*
X0268784Y0022457D01*
X0267882Y0022600D01*
X0267807Y0022600D01*
X0267807Y0017181D01*
X0267045Y0017181D01*
X0267045Y0022600D01*
X0266969Y0022600D01*
X0266068Y0022457D01*
X0265199Y0022175D01*
X0264386Y0021761D01*
X0263647Y0021224D01*
X0263002Y0020578D01*
X0262465Y0019840D01*
X0262051Y0019026D01*
X0261769Y0018158D01*
X0261626Y0017256D01*
X0261626Y0017181D01*
X0267045Y0017181D01*
X0267045Y0016419D01*
X0261626Y0016419D01*
X0261626Y0016344D01*
X0261769Y0015442D01*
X0262051Y0014574D01*
X0262465Y0013760D01*
X0263002Y0013022D01*
X0263647Y0012376D01*
X0264386Y0011839D01*
X0265199Y0011425D01*
X0267045Y0011391D02*
X0267807Y0011391D01*
X0267807Y0011000D02*
X0267882Y0011000D01*
X0268784Y0011143D01*
X0269652Y0011425D01*
X0270466Y0011839D01*
X0271204Y0012376D01*
X0271850Y0013022D01*
X0272386Y0013760D01*
X0272801Y0014574D01*
X0273083Y0015442D01*
X0273226Y0016344D01*
X0273226Y0016419D01*
X0267807Y0016419D01*
X0267807Y0011000D01*
X0269548Y0011391D02*
X0292088Y0011391D01*
X0292088Y0009793D02*
X0255651Y0009793D01*
X0254520Y0008194D02*
X0292088Y0008194D01*
X0292088Y0006596D02*
X0252922Y0006596D01*
X0251323Y0004997D02*
X0292088Y0004997D01*
X0292088Y0012990D02*
X0271818Y0012990D01*
X0272805Y0014588D02*
X0292088Y0014588D01*
X0292088Y0016187D02*
X0273201Y0016187D01*
X0273142Y0017785D02*
X0292088Y0017785D01*
X0292088Y0019384D02*
X0272619Y0019384D01*
X0271446Y0020982D02*
X0292088Y0020982D01*
X0292088Y0022581D02*
X0268004Y0022581D01*
X0267807Y0022581D02*
X0267045Y0022581D01*
X0266847Y0022581D02*
X0254669Y0022581D01*
X0257249Y0020982D02*
X0263405Y0020982D01*
X0262233Y0019384D02*
X0258370Y0019384D01*
X0258946Y0017785D02*
X0261709Y0017785D01*
X0261651Y0016187D02*
X0258946Y0016187D01*
X0258524Y0014588D02*
X0262046Y0014588D01*
X0263034Y0012990D02*
X0257621Y0012990D01*
X0249798Y0011391D02*
X0243886Y0011391D01*
X0244467Y0012990D02*
X0248271Y0012990D01*
X0247368Y0014588D02*
X0244467Y0014588D01*
X0244467Y0016187D02*
X0246946Y0016187D01*
X0246946Y0017785D02*
X0244467Y0017785D01*
X0244467Y0019384D02*
X0247522Y0019384D01*
X0248643Y0020982D02*
X0244467Y0020982D01*
X0243514Y0022581D02*
X0251223Y0022581D01*
X0248199Y0009793D02*
X0218913Y0009793D01*
X0214191Y0006596D02*
X0202922Y0006596D01*
X0204520Y0008194D02*
X0212592Y0008194D01*
X0210994Y0009793D02*
X0206119Y0009793D01*
X0207946Y0015580D02*
X0207946Y0016800D01*
X0207946Y0015580D02*
X0199167Y0006800D01*
X0164167Y0006800D01*
X0167621Y0012990D02*
X0172751Y0012990D01*
X0171848Y0014588D02*
X0168524Y0014588D01*
X0168946Y0016187D02*
X0171426Y0016187D01*
X0171426Y0017785D02*
X0168946Y0017785D01*
X0168370Y0019384D02*
X0172002Y0019384D01*
X0173123Y0020982D02*
X0167249Y0020982D01*
X0162946Y0025020D02*
X0151167Y0036800D01*
X0151167Y0043800D01*
X0155167Y0047800D01*
X0158767Y0048157D02*
X0214274Y0048157D01*
X0215873Y0046558D02*
X0158767Y0046558D01*
X0157418Y0044960D02*
X0215867Y0044960D01*
X0215867Y0043361D02*
X0154688Y0043361D01*
X0153967Y0041763D02*
X0215867Y0041763D01*
X0215867Y0040164D02*
X0153967Y0040164D01*
X0153967Y0038566D02*
X0215867Y0038566D01*
X0216722Y0036967D02*
X0154959Y0036967D01*
X0147167Y0045800D02*
X0145167Y0045800D01*
X0120190Y0070776D01*
X0144167Y0053800D02*
X0212167Y0053800D01*
X0214167Y0051800D01*
X0212252Y0049755D02*
X0158302Y0049755D01*
X0169167Y0066800D02*
X0166588Y0069379D01*
X0169167Y0066800D02*
X0188883Y0066800D01*
X0194883Y0072800D01*
X0191210Y0073733D02*
X0181797Y0073733D01*
X0181797Y0072134D02*
X0190258Y0072134D01*
X0188659Y0070536D02*
X0181797Y0070536D01*
X0181797Y0075332D02*
X0191210Y0075332D01*
X0194980Y0068937D02*
X0256261Y0068937D01*
X0256261Y0067339D02*
X0193382Y0067339D01*
X0191783Y0065740D02*
X0255635Y0065740D01*
X0254036Y0064142D02*
X0189783Y0064142D01*
X0181797Y0062543D02*
X0252795Y0062543D01*
X0252667Y0060945D02*
X0181797Y0060945D01*
X0181797Y0059346D02*
X0252366Y0059346D01*
X0250910Y0057748D02*
X0244001Y0057748D01*
X0244001Y0056149D02*
X0249311Y0056149D01*
X0245073Y0054551D02*
X0244001Y0054551D01*
X0243817Y0052952D02*
X0244726Y0052952D01*
X0244726Y0051354D02*
X0242540Y0051354D01*
X0243801Y0049755D02*
X0244726Y0049755D01*
X0243801Y0048157D02*
X0250534Y0048157D01*
X0252133Y0046558D02*
X0243801Y0046558D01*
X0242960Y0044960D02*
X0253731Y0044960D01*
X0240230Y0044960D02*
X0240230Y0044960D01*
X0240230Y0046558D02*
X0240230Y0046558D01*
X0240230Y0048157D02*
X0240230Y0048157D01*
X0240230Y0049755D02*
X0240230Y0049755D01*
X0240230Y0051354D02*
X0240230Y0051354D01*
X0224202Y0036967D02*
X0224131Y0036967D01*
X0193848Y0022581D02*
X0193086Y0022581D01*
X0193086Y0020982D02*
X0193848Y0020982D01*
X0193848Y0019384D02*
X0193086Y0019384D01*
X0193086Y0017785D02*
X0193848Y0017785D01*
X0193848Y0016187D02*
X0193086Y0016187D01*
X0193086Y0014588D02*
X0193848Y0014588D01*
X0193848Y0012990D02*
X0193086Y0012990D01*
X0193086Y0011391D02*
X0193848Y0011391D01*
X0201323Y0004997D02*
X0215789Y0004997D01*
X0267045Y0012990D02*
X0267807Y0012990D01*
X0267807Y0014588D02*
X0267045Y0014588D01*
X0267045Y0016187D02*
X0267807Y0016187D01*
X0267807Y0017785D02*
X0267045Y0017785D01*
X0267045Y0019384D02*
X0267807Y0019384D01*
X0267807Y0020982D02*
X0267045Y0020982D01*
X0271261Y0070536D02*
X0202855Y0070536D01*
X0202923Y0072134D02*
X0271261Y0072134D01*
X0269761Y0073733D02*
X0202923Y0073733D01*
X0202923Y0072837D02*
X0202923Y0074809D01*
X0202801Y0075266D01*
X0202564Y0075677D01*
X0202229Y0076012D01*
X0201818Y0076249D01*
X0201360Y0076372D01*
X0199487Y0076372D01*
X0199487Y0072837D01*
X0202923Y0072837D01*
X0202763Y0075332D02*
X0268163Y0075332D01*
X0245528Y0136075D02*
X0245228Y0136075D01*
X0240105Y0136075D02*
X0198228Y0136075D01*
X0200284Y0137673D02*
X0238049Y0137673D01*
X0237162Y0139272D02*
X0201171Y0139272D01*
X0201567Y0140870D02*
X0236767Y0140870D01*
X0236767Y0142469D02*
X0201567Y0142469D01*
X0201567Y0144068D02*
X0236767Y0144068D01*
X0236767Y0145666D02*
X0202397Y0145666D01*
X0203995Y0147265D02*
X0236767Y0147265D01*
X0236767Y0148863D02*
X0205594Y0148863D01*
X0207192Y0150462D02*
X0236803Y0150462D01*
X0237465Y0152060D02*
X0208791Y0152060D01*
X0202457Y0158454D02*
X0128226Y0158454D01*
X0128226Y0156856D02*
X0200858Y0156856D01*
X0199260Y0155257D02*
X0128226Y0155257D01*
X0127877Y0153659D02*
X0191781Y0153659D01*
X0190465Y0152060D02*
X0126387Y0152060D01*
X0128226Y0160053D02*
X0204055Y0160053D01*
X0213167Y0172841D02*
X0213167Y0172841D01*
X0213167Y0174439D02*
X0213167Y0174439D01*
X0213167Y0176038D02*
X0213167Y0176038D01*
X0213167Y0177636D02*
X0213167Y0177636D01*
X0215982Y0177636D02*
X0218351Y0177636D01*
X0218487Y0177772D02*
X0218151Y0177437D01*
X0217915Y0177026D01*
X0217792Y0176568D01*
X0217792Y0175150D01*
X0217792Y0173732D01*
X0217915Y0173275D01*
X0218151Y0172864D01*
X0218487Y0172529D01*
X0218897Y0172292D01*
X0219355Y0172169D01*
X0221167Y0172169D01*
X0222978Y0172169D01*
X0223436Y0172292D01*
X0223847Y0172529D01*
X0224182Y0172864D01*
X0224419Y0173275D01*
X0224541Y0173732D01*
X0224541Y0175150D01*
X0221167Y0175150D01*
X0221167Y0175150D01*
X0221167Y0172169D01*
X0221167Y0175150D01*
X0221167Y0175150D01*
X0224541Y0175150D01*
X0224541Y0176568D01*
X0224419Y0177026D01*
X0224182Y0177437D01*
X0223847Y0177772D01*
X0223436Y0178009D01*
X0222978Y0178131D01*
X0221167Y0178131D01*
X0221167Y0175151D01*
X0221167Y0175151D01*
X0221167Y0178131D01*
X0219355Y0178131D01*
X0218897Y0178009D01*
X0218487Y0177772D01*
X0217797Y0179235D02*
X0216536Y0179235D01*
X0216741Y0180833D02*
X0217592Y0180833D01*
X0216850Y0182432D02*
X0216741Y0182432D01*
X0221167Y0177636D02*
X0221167Y0177636D01*
X0221167Y0176038D02*
X0221167Y0176038D01*
X0221167Y0175150D02*
X0221167Y0175150D01*
X0217792Y0175150D01*
X0221167Y0175150D01*
X0221167Y0174439D02*
X0221167Y0174439D01*
X0221167Y0172841D02*
X0221167Y0172841D01*
X0224158Y0172841D02*
X0226675Y0172841D01*
X0226651Y0172864D02*
X0226987Y0172529D01*
X0227397Y0172292D01*
X0227855Y0172169D01*
X0229667Y0172169D01*
X0229667Y0175150D01*
X0229667Y0175150D01*
X0226292Y0175150D01*
X0226292Y0173732D01*
X0226415Y0173275D01*
X0226651Y0172864D01*
X0226292Y0174439D02*
X0224541Y0174439D01*
X0224541Y0176038D02*
X0226292Y0176038D01*
X0226292Y0176568D02*
X0226292Y0175150D01*
X0229667Y0175150D01*
X0229667Y0175150D01*
X0229667Y0175151D02*
X0229667Y0178131D01*
X0227855Y0178131D01*
X0227397Y0178009D01*
X0226987Y0177772D01*
X0226651Y0177437D01*
X0226415Y0177026D01*
X0226292Y0176568D01*
X0226851Y0177636D02*
X0223982Y0177636D01*
X0224536Y0179235D02*
X0226297Y0179235D01*
X0226092Y0180833D02*
X0224741Y0180833D01*
X0224741Y0182432D02*
X0226092Y0182432D01*
X0226663Y0184030D02*
X0224170Y0184030D01*
X0229667Y0177636D02*
X0229667Y0177636D01*
X0229667Y0176038D02*
X0229667Y0176038D01*
X0229667Y0174439D02*
X0229667Y0174439D01*
X0229667Y0172841D02*
X0229667Y0172841D01*
X0238187Y0172841D02*
X0239146Y0172841D01*
X0239146Y0174439D02*
X0238187Y0174439D01*
X0239146Y0174474D02*
X0239146Y0175433D01*
X0243419Y0175433D01*
X0243419Y0175539D01*
X0246687Y0175539D01*
X0246687Y0174580D01*
X0242217Y0174580D01*
X0242217Y0174474D01*
X0239146Y0174474D01*
X0239146Y0171242D02*
X0238187Y0171242D01*
X0246687Y0171242D02*
X0247646Y0171242D01*
X0247646Y0172841D02*
X0246687Y0172841D01*
X0246687Y0174439D02*
X0247646Y0174439D01*
X0252116Y0174439D02*
X0292088Y0174439D01*
X0292088Y0172841D02*
X0252116Y0172841D01*
X0251603Y0171242D02*
X0292088Y0171242D01*
X0292088Y0169644D02*
X0139710Y0169644D01*
X0138112Y0168045D02*
X0292088Y0168045D01*
X0292088Y0166447D02*
X0137466Y0166447D01*
X0137466Y0164848D02*
X0292088Y0164848D01*
X0292088Y0163250D02*
X0137466Y0163250D01*
X0136295Y0161651D02*
X0292088Y0161651D01*
X0292088Y0160053D02*
X0267278Y0160053D01*
X0268877Y0158454D02*
X0292088Y0158454D01*
X0292088Y0156856D02*
X0278027Y0156856D01*
X0279626Y0155257D02*
X0292088Y0155257D01*
X0292088Y0153659D02*
X0280442Y0153659D01*
X0280917Y0152060D02*
X0292088Y0152060D01*
X0292088Y0150462D02*
X0280917Y0150462D01*
X0280517Y0148863D02*
X0292088Y0148863D01*
X0292088Y0147265D02*
X0279807Y0147265D01*
X0278209Y0145666D02*
X0292088Y0145666D01*
X0292088Y0144068D02*
X0250263Y0144068D01*
X0248665Y0145666D02*
X0270125Y0145666D01*
X0267466Y0147265D02*
X0248567Y0147265D01*
X0248567Y0148863D02*
X0265740Y0148863D01*
X0264141Y0150462D02*
X0248530Y0150462D01*
X0247868Y0152060D02*
X0262543Y0152060D01*
X0251862Y0142469D02*
X0292088Y0142469D01*
X0292088Y0140870D02*
X0253460Y0140870D01*
X0255059Y0139272D02*
X0292088Y0139272D01*
X0267851Y0196818D02*
X0264397Y0196818D01*
X0262798Y0198417D02*
X0266054Y0198417D01*
X0265335Y0200015D02*
X0262767Y0200015D01*
X0262767Y0201614D02*
X0265117Y0201614D01*
X0265312Y0203212D02*
X0262767Y0203212D01*
X0262767Y0204811D02*
X0265997Y0204811D01*
X0267713Y0206409D02*
X0262767Y0206409D01*
X0217792Y0176038D02*
X0216541Y0176038D01*
X0216541Y0174439D02*
X0217792Y0174439D01*
X0218175Y0172841D02*
X0216158Y0172841D01*
X0189403Y0201614D02*
X0185616Y0201614D01*
X0185521Y0203212D02*
X0187804Y0203212D01*
X0186206Y0204811D02*
X0185816Y0204811D01*
X0181146Y0198417D02*
X0180187Y0198417D01*
X0180187Y0196818D02*
X0181146Y0196818D01*
X0173466Y0211205D02*
X0159609Y0211205D01*
X0159671Y0212803D02*
X0171973Y0212803D01*
X0170182Y0214402D02*
X0159671Y0214402D01*
X0159671Y0216001D02*
X0169101Y0216001D01*
X0168623Y0217599D02*
X0159671Y0217599D01*
X0159381Y0219198D02*
X0168623Y0219198D01*
X0168623Y0220796D02*
X0157767Y0220796D01*
X0157767Y0222395D02*
X0168623Y0222395D01*
X0168623Y0223993D02*
X0157065Y0223993D01*
X0157087Y0228789D02*
X0139863Y0228789D01*
X0139863Y0229209D02*
X0144471Y0229209D01*
X0144471Y0231742D01*
X0144348Y0232199D01*
X0144111Y0232610D01*
X0143776Y0232945D01*
X0143365Y0233182D01*
X0142908Y0233305D01*
X0139863Y0233305D01*
X0139863Y0229209D01*
X0139863Y0230387D02*
X0138471Y0230387D01*
X0138471Y0231986D02*
X0139863Y0231986D01*
X0144405Y0231986D02*
X0146517Y0231986D01*
X0146517Y0230387D02*
X0144471Y0230387D01*
X0144471Y0227190D02*
X0168932Y0227190D01*
X0168623Y0225592D02*
X0144471Y0225592D01*
X0143625Y0223993D02*
X0151269Y0223993D01*
X0150567Y0222395D02*
X0137767Y0222395D01*
X0138471Y0223993D02*
X0139863Y0223993D01*
X0139863Y0225592D02*
X0138471Y0225592D01*
X0138471Y0227190D02*
X0139863Y0227190D01*
X0134167Y0223300D02*
X0126927Y0223300D01*
X0121667Y0218040D01*
X0121667Y0215040D01*
X0126816Y0214402D02*
X0128663Y0214402D01*
X0128663Y0212803D02*
X0126816Y0212803D01*
X0126559Y0211205D02*
X0128725Y0211205D01*
X0128663Y0216001D02*
X0126816Y0216001D01*
X0126816Y0217599D02*
X0128663Y0217599D01*
X0128952Y0219198D02*
X0126784Y0219198D01*
X0136754Y0220796D02*
X0150567Y0220796D01*
X0144863Y0219198D02*
X0143471Y0219198D01*
X0143471Y0217599D02*
X0144863Y0217599D01*
X0144863Y0216001D02*
X0143471Y0216001D01*
X0143471Y0212803D02*
X0144863Y0212803D01*
X0144863Y0211205D02*
X0143471Y0211205D01*
X0161246Y0228789D02*
X0167087Y0228789D01*
X0165567Y0230387D02*
X0162767Y0230387D01*
X0162767Y0231986D02*
X0165567Y0231986D01*
X0165860Y0233584D02*
X0162474Y0233584D01*
X0158407Y0241040D02*
X0158667Y0241300D01*
X0166730Y0247971D02*
X0174255Y0247971D01*
X0173623Y0246372D02*
X0168130Y0246372D01*
X0169728Y0244774D02*
X0173623Y0244774D01*
X0173623Y0243175D02*
X0171303Y0243175D01*
X0171667Y0241577D02*
X0173623Y0241577D01*
X0173623Y0239978D02*
X0171667Y0239978D01*
X0171667Y0238380D02*
X0173623Y0238380D01*
X0173778Y0236781D02*
X0171667Y0236781D01*
X0171667Y0235183D02*
X0174440Y0235183D01*
X0176000Y0233584D02*
X0172474Y0233584D01*
X0172767Y0231986D02*
X0211367Y0231986D01*
X0209548Y0233584D02*
X0208786Y0233584D01*
X0201858Y0230387D02*
X0196475Y0230387D01*
X0198561Y0228789D02*
X0199773Y0228789D01*
X0196000Y0233584D02*
X0192334Y0233584D01*
X0193893Y0235183D02*
X0194440Y0235183D01*
X0191858Y0230387D02*
X0186475Y0230387D01*
X0188561Y0228789D02*
X0189773Y0228789D01*
X0186000Y0233584D02*
X0182334Y0233584D01*
X0183893Y0235183D02*
X0184440Y0235183D01*
X0181858Y0230387D02*
X0176475Y0230387D01*
X0178561Y0228789D02*
X0179773Y0228789D01*
X0184167Y0221800D02*
X0189167Y0216800D01*
X0189167Y0213871D01*
X0154863Y0182432D02*
X0153471Y0182432D01*
X0153471Y0180833D02*
X0154863Y0180833D01*
X0154863Y0179235D02*
X0153471Y0179235D01*
X0153471Y0177636D02*
X0154863Y0177636D01*
X0154863Y0176038D02*
X0153471Y0176038D01*
X0153471Y0174439D02*
X0154863Y0174439D01*
X0144167Y0178060D02*
X0132907Y0166800D01*
X0129519Y0161651D02*
X0128815Y0161651D01*
X0134988Y0172841D02*
X0111967Y0172841D01*
X0104167Y0176800D02*
X0099167Y0181800D01*
X0099167Y0196800D01*
X0095386Y0196818D02*
X0087948Y0196818D01*
X0087934Y0195220D02*
X0095399Y0195220D01*
X0096367Y0193621D02*
X0086335Y0193621D01*
X0084119Y0192023D02*
X0096367Y0192023D01*
X0096367Y0190424D02*
X0084119Y0190424D01*
X0084119Y0188826D02*
X0096367Y0188826D01*
X0096367Y0187227D02*
X0084119Y0187227D01*
X0086794Y0185629D02*
X0096367Y0185629D01*
X0096367Y0184030D02*
X0090284Y0184030D01*
X0090948Y0182432D02*
X0096367Y0182432D01*
X0096536Y0180833D02*
X0090948Y0180833D01*
X0098167Y0176800D02*
X0074167Y0176800D01*
X0069167Y0176800D01*
X0064167Y0181800D01*
X0054167Y0181800D01*
X0051641Y0179235D02*
X0045561Y0179235D01*
X0046797Y0180833D02*
X0050567Y0180833D01*
X0050567Y0182432D02*
X0046967Y0182432D01*
X0046967Y0184030D02*
X0051306Y0184030D01*
X0046967Y0185629D02*
X0065517Y0185629D01*
X0065517Y0187227D02*
X0046967Y0187227D01*
X0046967Y0188826D02*
X0065844Y0188826D01*
X0065517Y0190424D02*
X0046967Y0190424D01*
X0046967Y0192023D02*
X0065517Y0192023D01*
X0070667Y0192540D02*
X0070667Y0200300D01*
X0059167Y0211800D01*
X0055567Y0211800D01*
X0046667Y0198417D02*
X0041510Y0198417D01*
X0034167Y0196800D02*
X0029167Y0191800D01*
X0014167Y0191800D01*
X0014167Y0185629D02*
X0014167Y0185629D01*
X0014167Y0184030D02*
X0014167Y0184030D01*
X0014167Y0182432D02*
X0014167Y0182432D01*
X0014167Y0180833D02*
X0014167Y0180833D01*
X0014167Y0179235D02*
X0014167Y0179235D01*
X0014167Y0177636D02*
X0014167Y0177636D01*
X0007701Y0174439D02*
X0006167Y0174439D01*
X0006167Y0172841D02*
X0007019Y0172841D01*
X0006967Y0171242D02*
X0006167Y0171242D01*
X0006167Y0169644D02*
X0007481Y0169644D01*
X0006167Y0168045D02*
X0008816Y0168045D01*
X0006167Y0166447D02*
X0015560Y0166447D01*
X0014167Y0161800D02*
X0019167Y0156800D01*
X0015151Y0156856D02*
X0006167Y0156856D01*
X0006167Y0158454D02*
X0008407Y0158454D01*
X0007311Y0160053D02*
X0006167Y0160053D01*
X0006167Y0161651D02*
X0006967Y0161651D01*
X0007188Y0163250D02*
X0006167Y0163250D01*
X0006167Y0164848D02*
X0008109Y0164848D01*
X0008518Y0155257D02*
X0006167Y0155257D01*
X0006167Y0153659D02*
X0007358Y0153659D01*
X0006967Y0152060D02*
X0006167Y0152060D01*
X0006167Y0150462D02*
X0007142Y0150462D01*
X0007998Y0148863D02*
X0006167Y0148863D01*
X0006167Y0147265D02*
X0010496Y0147265D01*
X0008927Y0145666D02*
X0006167Y0145666D01*
X0006167Y0144068D02*
X0007527Y0144068D01*
X0006967Y0142469D02*
X0006167Y0142469D01*
X0006167Y0140870D02*
X0006973Y0140870D01*
X0007635Y0139272D02*
X0006167Y0139272D01*
X0006167Y0137673D02*
X0009509Y0137673D01*
X0009867Y0136075D02*
X0006167Y0136075D01*
X0006167Y0134476D02*
X0007738Y0134476D01*
X0007034Y0132878D02*
X0006167Y0132878D01*
X0006167Y0131279D02*
X0006967Y0131279D01*
X0007465Y0129681D02*
X0006167Y0129681D01*
X0006167Y0128082D02*
X0008779Y0128082D01*
X0031967Y0140870D02*
X0034277Y0140870D01*
X0035876Y0142469D02*
X0031967Y0142469D01*
X0031967Y0144068D02*
X0037474Y0144068D01*
X0038367Y0145666D02*
X0031992Y0145666D01*
X0033591Y0147265D02*
X0038367Y0147265D01*
X0038367Y0148863D02*
X0035189Y0148863D01*
X0036643Y0150462D02*
X0038367Y0150462D01*
X0038367Y0152060D02*
X0036967Y0152060D01*
X0036268Y0153659D02*
X0038367Y0153659D01*
X0038367Y0155257D02*
X0034669Y0155257D01*
X0039167Y0141800D02*
X0034167Y0136800D01*
X0039167Y0141800D02*
X0049167Y0141800D01*
X0049167Y0131800D01*
X0051525Y0144068D02*
X0059694Y0144068D01*
X0068033Y0150462D02*
X0049967Y0150462D01*
X0049967Y0152060D02*
X0069214Y0152060D01*
X0069214Y0153659D02*
X0049967Y0153659D01*
X0049967Y0155257D02*
X0069214Y0155257D01*
X0069622Y0156856D02*
X0049967Y0156856D01*
X0049967Y0158454D02*
X0069414Y0158454D01*
X0069414Y0160053D02*
X0049967Y0160053D01*
X0049967Y0161651D02*
X0069414Y0161651D01*
X0069414Y0163250D02*
X0049967Y0163250D01*
X0049967Y0164848D02*
X0070786Y0164848D01*
X0073687Y0164848D02*
X0074646Y0164848D01*
X0074646Y0163250D02*
X0073687Y0163250D01*
X0073687Y0161651D02*
X0074646Y0161651D01*
X0079372Y0168045D02*
X0098962Y0168045D01*
X0100560Y0166447D02*
X0049967Y0166447D01*
X0049050Y0168045D02*
X0064245Y0168045D01*
X0062647Y0169644D02*
X0062358Y0169644D01*
X0063450Y0172800D02*
X0066734Y0169517D01*
X0076883Y0169517D01*
X0079167Y0171800D01*
X0099167Y0171800D01*
X0079167Y0190146D02*
X0079167Y0191800D01*
X0084167Y0196800D01*
X0086299Y0200015D02*
X0097035Y0200015D01*
X0095436Y0198417D02*
X0087897Y0198417D01*
X0082035Y0200015D02*
X0073467Y0200015D01*
X0073467Y0198417D02*
X0080436Y0198417D01*
X0080225Y0196818D02*
X0074926Y0196818D01*
X0075816Y0195220D02*
X0078627Y0195220D01*
X0078773Y0190540D02*
X0079167Y0190146D01*
X0070667Y0185060D02*
X0074167Y0181560D01*
X0074167Y0176800D01*
X0076248Y0172841D02*
X0067369Y0172841D01*
X0067568Y0174439D02*
X0065771Y0174439D01*
X0065969Y0176038D02*
X0062276Y0176038D01*
X0064371Y0177636D02*
X0043963Y0177636D01*
X0042767Y0176038D02*
X0058057Y0176038D01*
X0071907Y0147265D02*
X0076002Y0147265D01*
X0076367Y0145666D02*
X0070308Y0145666D01*
X0068639Y0144068D02*
X0076367Y0144068D01*
X0075876Y0142469D02*
X0068919Y0142469D01*
X0109167Y0106800D02*
X0109167Y0101800D01*
X0109167Y0106800D02*
X0114167Y0111800D01*
X0119167Y0111800D01*
X0129167Y0121800D02*
X0129167Y0124300D01*
X0122397Y0132878D02*
X0122316Y0132878D01*
X0119167Y0136800D02*
X0119167Y0144800D01*
X0143026Y0115294D02*
X0145201Y0115294D01*
X0170341Y0115294D02*
X0171300Y0115294D01*
X0171300Y0113696D02*
X0170341Y0113696D01*
X0198336Y0088120D02*
X0201667Y0088120D01*
X0199487Y0075332D02*
X0199413Y0075332D01*
X0199413Y0073733D02*
X0199487Y0073733D01*
X0199487Y0072134D02*
X0199413Y0072134D01*
X0199413Y0070536D02*
X0199487Y0070536D01*
X0144167Y0178060D02*
X0144167Y0178513D01*
X0184078Y0247971D02*
X0184255Y0247971D01*
X0185553Y0249569D02*
X0182780Y0249569D01*
X0184665Y0252766D02*
X0167741Y0252766D01*
X0167741Y0254365D02*
X0175363Y0254365D01*
X0173898Y0255384D02*
X0173898Y0255384D01*
X0173318Y0255963D02*
X0167438Y0255963D01*
X0164167Y0259950D02*
X0164167Y0267800D01*
X0166964Y0270350D02*
X0172369Y0270350D01*
X0170771Y0268751D02*
X0167948Y0268751D01*
X0167948Y0267153D02*
X0170386Y0267153D01*
X0170386Y0265554D02*
X0167268Y0265554D01*
X0166967Y0263956D02*
X0171664Y0263956D01*
X0173587Y0262357D02*
X0292088Y0262357D01*
X0205893Y0249569D02*
X0204667Y0249569D01*
X0199667Y0251168D02*
X0191667Y0251168D01*
X0191472Y0252766D02*
X0199667Y0252766D01*
X0199511Y0254365D02*
X0190137Y0254365D01*
X0188539Y0255963D02*
X0198567Y0255963D01*
X0198567Y0257562D02*
X0186940Y0257562D01*
X0185001Y0259160D02*
X0199436Y0259160D01*
X0195553Y0249569D02*
X0192780Y0249569D01*
X0194078Y0247971D02*
X0194255Y0247971D01*
X0186263Y0251168D02*
X0167268Y0251168D01*
X0166667Y0249569D02*
X0175553Y0249569D01*
X0154167Y0265540D02*
X0152427Y0263800D01*
X0147667Y0263800D01*
X0145672Y0267153D02*
X0144671Y0267153D01*
X0144671Y0268751D02*
X0149017Y0268751D01*
X0152907Y0266800D02*
X0154167Y0265540D01*
X0134171Y0260759D02*
X0133880Y0260759D01*
X0129863Y0260759D02*
X0128471Y0260759D01*
X0128471Y0262357D02*
X0129863Y0262357D01*
X0129863Y0263956D02*
X0128471Y0263956D01*
X0128471Y0267153D02*
X0129863Y0267153D01*
X0129863Y0268751D02*
X0128471Y0268751D01*
X0124454Y0260759D02*
X0124163Y0260759D01*
X0069168Y0238380D02*
X0068863Y0238380D01*
X0034167Y0101800D02*
X0014167Y0101800D01*
X0036767Y0099309D02*
X0038647Y0099309D01*
X0022971Y0012990D02*
X0018967Y0012990D01*
X0018303Y0011391D02*
X0025026Y0011391D01*
D38*
X0057167Y0063800D03*
X0040667Y0082300D03*
X0034167Y0071800D03*
X0076167Y0112300D03*
X0094167Y0121800D03*
X0104167Y0121800D03*
X0109167Y0116800D03*
X0109167Y0101800D03*
X0124167Y0129300D03*
X0117167Y0146800D03*
X0092167Y0151800D03*
X0104167Y0171800D03*
X0098167Y0176800D03*
X0087167Y0181800D03*
X0084167Y0196800D03*
X0099167Y0196800D03*
X0108167Y0196800D03*
X0099167Y0211800D03*
X0104167Y0221800D03*
X0094167Y0246800D03*
X0147667Y0263800D03*
X0164167Y0267800D03*
X0174167Y0266800D03*
X0158667Y0241300D03*
X0199167Y0201800D03*
X0199167Y0196800D03*
X0212667Y0201800D03*
X0150667Y0116800D03*
X0204167Y0081800D03*
X0224167Y0051800D03*
X0255167Y0056800D03*
X0147167Y0045800D03*
X0144167Y0053800D03*
X0129167Y0051800D03*
X0126167Y0035800D03*
X0101667Y0056800D03*
X0089167Y0048800D03*
X0054167Y0116800D03*
X0024167Y0146800D03*
X0026167Y0168800D03*
X0059167Y0196800D03*
X0060167Y0172800D03*
D39*
X0063450Y0172800D01*
X0079167Y0183454D02*
X0085513Y0183454D01*
X0087167Y0181800D01*
X0079167Y0190146D02*
X0076773Y0192540D01*
X0070667Y0192540D01*
X0049167Y0196800D02*
X0049167Y0204863D01*
X0032667Y0221363D01*
X0055567Y0213900D02*
X0055567Y0211800D01*
X0055567Y0213900D02*
X0055767Y0214100D01*
X0104619Y0228513D02*
X0104619Y0231544D01*
X0105348Y0232272D01*
X0104619Y0228513D02*
X0119167Y0228513D01*
X0129167Y0228513D02*
X0132454Y0228513D01*
X0134167Y0226800D01*
X0134167Y0223300D01*
X0144167Y0215087D02*
X0139619Y0210540D01*
X0154167Y0215087D02*
X0154167Y0221800D01*
X0159167Y0231800D02*
X0157407Y0233560D01*
X0151667Y0233560D01*
X0164167Y0244950D02*
X0166017Y0244950D01*
X0169167Y0241800D01*
X0169167Y0231800D01*
X0174167Y0221800D02*
X0174167Y0214040D01*
X0180667Y0207540D01*
X0166167Y0205300D02*
X0162667Y0205300D01*
X0144167Y0186800D01*
X0144167Y0178513D01*
X0134167Y0178513D02*
X0125639Y0187040D01*
X0121167Y0187040D01*
X0074167Y0153060D02*
X0067907Y0146800D01*
X0049167Y0146800D01*
X0044167Y0146800D01*
X0044167Y0155800D01*
X0064167Y0140540D02*
X0070427Y0140540D01*
X0064167Y0133060D02*
X0059167Y0128060D01*
X0059167Y0126800D01*
X0054792Y0126800D02*
X0045792Y0117800D01*
X0039167Y0101800D02*
X0054167Y0101800D01*
X0057090Y0099724D02*
X0059167Y0099724D01*
X0057090Y0099724D02*
X0054167Y0096800D01*
X0054167Y0095924D01*
X0057267Y0092824D01*
X0039167Y0101800D02*
X0029167Y0111800D01*
X0029167Y0131800D01*
X0053143Y0070776D02*
X0057267Y0070776D01*
X0053143Y0070776D02*
X0049167Y0066800D01*
X0039167Y0066800D01*
X0109167Y0116800D02*
X0114167Y0121800D01*
X0119167Y0121800D01*
X0119167Y0136800D01*
X0159167Y0123060D02*
X0159167Y0101721D01*
X0160190Y0100698D01*
X0159167Y0123060D02*
X0165427Y0123060D01*
X0169167Y0126800D01*
X0169167Y0137454D01*
X0168167Y0138454D01*
X0195667Y0097300D02*
X0201167Y0091800D01*
X0204167Y0091800D01*
X0204167Y0081800D01*
X0214167Y0051800D02*
X0220427Y0045540D01*
X0220427Y0041800D01*
X0227907Y0041800D02*
X0227907Y0045540D01*
X0234167Y0051800D01*
X0236489Y0051800D01*
X0240230Y0055540D01*
X0248497Y0051800D02*
X0250427Y0051800D01*
X0260427Y0041800D01*
X0267907Y0041800D02*
X0272907Y0046800D01*
X0284167Y0046800D01*
X0289167Y0051800D01*
X0289167Y0081800D01*
X0288301Y0081800D01*
X0278301Y0091800D01*
X0270033Y0091800D02*
X0265033Y0086800D01*
X0259167Y0086800D01*
X0254167Y0081800D01*
X0244167Y0081800D01*
X0242667Y0083300D01*
X0242667Y0097300D01*
X0254167Y0081800D02*
X0265230Y0081800D01*
X0275230Y0071800D01*
X0268104Y0066800D02*
X0273104Y0061800D01*
X0279167Y0061800D01*
X0283104Y0065737D01*
X0283104Y0071800D01*
X0284167Y0070737D01*
X0260230Y0066800D02*
X0255167Y0061737D01*
X0255167Y0056800D01*
X0253497Y0056800D01*
X0248497Y0051800D01*
X0169167Y0071957D02*
X0166588Y0069379D01*
X0159009Y0061800D01*
X0154167Y0061800D01*
X0238667Y0174954D02*
X0238470Y0175150D01*
X0247060Y0174954D02*
X0247167Y0175060D01*
X0247167Y0182540D02*
X0247167Y0184800D01*
X0254167Y0191800D01*
X0254167Y0206800D01*
X0249167Y0201800D02*
X0249167Y0191800D01*
X0239167Y0191800D02*
X0239167Y0203050D01*
X0239167Y0205550D01*
X0255417Y0221800D01*
X0244167Y0231800D02*
X0239167Y0231800D01*
X0234167Y0226800D01*
X0234167Y0221800D01*
X0244167Y0231800D02*
X0249167Y0236800D01*
X0236667Y0205550D02*
X0239167Y0203050D01*
X0231316Y0200800D02*
X0231167Y0200950D01*
X0229017Y0196800D02*
X0225167Y0196800D01*
X0225167Y0201800D01*
X0221320Y0205646D01*
X0220167Y0205646D01*
X0205820Y0205646D01*
X0204667Y0206800D01*
X0204667Y0204950D01*
X0204167Y0204450D01*
X0204667Y0204450D01*
X0213167Y0195950D01*
X0209167Y0195950D01*
X0205167Y0191950D01*
X0205167Y0185650D02*
X0195167Y0185650D01*
X0192316Y0188501D01*
X0192316Y0191800D01*
X0205167Y0185650D02*
X0209367Y0181450D01*
X0213167Y0181450D01*
X0216017Y0186800D02*
X0229167Y0186800D01*
X0229792Y0183050D02*
X0229667Y0182925D01*
X0229667Y0181450D01*
X0234167Y0187425D02*
X0234792Y0187425D01*
X0239167Y0191800D01*
X0231167Y0194650D02*
X0229017Y0196800D01*
X0216017Y0186800D02*
X0213167Y0189650D01*
X0221167Y0181650D01*
X0221167Y0181450D01*
X0204667Y0206800D02*
X0204667Y0209800D01*
X0204167Y0221800D02*
X0214167Y0221800D01*
X0199167Y0241800D02*
X0202167Y0244800D01*
X0202167Y0256800D01*
X0189167Y0251800D02*
X0189167Y0241800D01*
X0189167Y0251800D02*
X0184167Y0256800D01*
X0176017Y0256800D01*
X0172867Y0259950D01*
X0164167Y0259950D01*
X0164167Y0253650D02*
X0164167Y0244950D01*
X0152907Y0256800D02*
X0149167Y0256800D01*
X0140879Y0265087D01*
X0139167Y0265087D01*
X0129167Y0265087D02*
X0129167Y0256800D01*
X0124167Y0251800D01*
X0119167Y0251800D01*
X0110427Y0260540D01*
X0152907Y0256800D02*
X0154167Y0258060D01*
D40*
X0080427Y0251800D02*
X0073301Y0251800D01*
X0073301Y0241800D02*
X0080427Y0241800D01*
X0065033Y0241800D02*
X0063560Y0240327D01*
X0063518Y0240283D01*
X0063480Y0240237D01*
X0063444Y0240188D01*
X0063411Y0240137D01*
X0063382Y0240085D01*
X0063355Y0240030D01*
X0063332Y0239975D01*
X0063312Y0239918D01*
X0063296Y0239859D01*
X0063283Y0239800D01*
X0063274Y0239741D01*
X0063269Y0239680D01*
X0063267Y0239620D01*
X0087917Y0093050D02*
X0085417Y0090550D01*
X0085417Y0085550D01*
X0087917Y0093050D02*
X0091042Y0093050D01*
X0061042Y0078675D02*
X0061042Y0068675D01*
X0060417Y0068050D01*
X0060417Y0062425D01*
X0057917Y0059925D01*
X0037292Y0059925D01*
X0057292Y0079925D02*
X0059792Y0079925D01*
X0061042Y0078675D01*
X0229792Y0183050D02*
X0234167Y0187425D01*
X0231667Y0200550D02*
X0236667Y0205550D01*
D41*
X0234167Y0211800D03*
X0244167Y0201800D03*
X0249167Y0201800D03*
X0254167Y0206800D03*
X0249167Y0191800D03*
X0229167Y0186800D03*
X0219167Y0191800D03*
X0204667Y0209800D03*
X0199167Y0191800D03*
X0166167Y0205300D03*
X0154167Y0221800D03*
X0159167Y0231800D03*
X0169167Y0231800D03*
X0154167Y0246800D03*
X0134167Y0223300D03*
X0119167Y0201800D03*
X0119167Y0171800D03*
X0104167Y0166800D03*
X0070427Y0140540D03*
X0079167Y0131800D03*
X0074167Y0121800D03*
X0054167Y0101800D03*
X0049167Y0096800D03*
X0034167Y0101800D03*
X0044167Y0077800D03*
X0064167Y0087300D03*
X0069667Y0087300D03*
X0073667Y0090800D03*
X0077667Y0089300D03*
X0080167Y0080800D03*
X0074167Y0070800D03*
X0068667Y0070800D03*
X0069167Y0077300D03*
X0019167Y0071800D03*
X0049167Y0131800D03*
X0049167Y0146800D03*
X0034167Y0136800D03*
X0027667Y0164300D03*
X0039167Y0176800D03*
X0034167Y0181800D03*
X0039167Y0191800D03*
X0054167Y0181800D03*
X0147167Y0139300D03*
X0179167Y0121800D03*
X0149167Y0096800D03*
X0124167Y0076800D03*
X0144167Y0061800D03*
X0149167Y0057800D03*
X0154167Y0061800D03*
X0155167Y0047800D03*
X0219167Y0066800D03*
X0264167Y0076800D03*
X0259167Y0236800D03*
X0249167Y0236800D03*
X0249667Y0246300D03*
X0202167Y0256800D03*
D42*
X0099167Y0236800D03*
D43*
X0074167Y0036800D03*
D44*
X0037292Y0059925D03*
X0085417Y0085550D03*
X0255417Y0221800D03*
D45*
X0264167Y0156800D02*
X0207167Y0156800D01*
X0195667Y0145300D01*
X0229167Y0121800D02*
X0244167Y0121800D01*
X0254167Y0111800D01*
X0274167Y0111800D01*
X0274167Y0131485D02*
X0256482Y0131485D01*
X0242667Y0145300D01*
X0264167Y0156800D02*
X0269797Y0151170D01*
X0274167Y0151170D01*
X0229167Y0121800D02*
X0229167Y0099300D01*
X0219167Y0089300D01*
D46*
X0274167Y0181957D02*
X0259167Y0196957D01*
X0259167Y0226800D01*
X0254167Y0231800D01*
X0254167Y0241800D01*
X0249667Y0246300D01*
D47*
X0259167Y0236800D02*
X0264167Y0236800D01*
X0269167Y0231800D01*
X0269167Y0226957D01*
X0274167Y0221957D01*
X0199167Y0191800D02*
X0192316Y0191800D01*
X0192316Y0194950D01*
X0194167Y0196800D01*
X0194167Y0201800D01*
X0189167Y0206800D01*
X0189167Y0213871D01*
M02*
