G75*
%MOIN*%
%OFA0B0*%
%FSLAX25Y25*%
%IPPOS*%
%LPD*%
%AMOC8*
5,1,8,0,0,1.08239X$1,22.5*
%
%ADD10R,0.05906X0.05118*%
%ADD11R,0.03150X0.02362*%
%ADD12R,0.03150X0.03937*%
%ADD13R,0.03937X0.03150*%
%ADD14OC8,0.06000*%
%ADD15R,0.02200X0.05000*%
%ADD16R,0.05000X0.02200*%
%ADD17C,0.07087*%
%ADD18C,0.06400*%
%ADD19C,0.17000*%
%ADD20R,0.09500X0.09500*%
%ADD21C,0.09500*%
%ADD22R,0.02500X0.05000*%
%ADD23R,0.07008X0.05984*%
%ADD24R,0.03543X0.03150*%
%ADD25R,0.05118X0.06299*%
%ADD26R,0.06299X0.05118*%
%ADD27R,0.03543X0.03346*%
%ADD28C,0.05200*%
%ADD29C,0.07050*%
%ADD30C,0.07087*%
%ADD31R,0.08300X0.05500*%
%ADD32C,0.07800*%
%ADD33R,0.04724X0.04724*%
%ADD34R,0.21260X0.24409*%
%ADD35R,0.03937X0.06299*%
%ADD36C,0.01600*%
%ADD37OC8,0.03562*%
%ADD38C,0.01000*%
%ADD39OC8,0.03200*%
%ADD40C,0.00800*%
%ADD41R,0.03562X0.03562*%
D10*
X0074167Y0128639D03*
X0074167Y0136119D03*
X0059167Y0163639D03*
X0059167Y0171119D03*
X0049167Y0170725D03*
X0049167Y0164032D03*
X0039167Y0164032D03*
X0039167Y0170725D03*
X0079167Y0189032D03*
X0079167Y0195725D03*
X0220167Y0204532D03*
X0220167Y0211225D03*
X0238667Y0187225D03*
X0238667Y0180532D03*
D11*
X0229667Y0180729D03*
X0229667Y0187028D03*
X0221167Y0187028D03*
X0221167Y0180729D03*
X0213167Y0180729D03*
X0213167Y0187028D03*
X0213167Y0195229D03*
X0213167Y0201528D03*
X0205167Y0197528D03*
X0205167Y0191229D03*
X0231167Y0200229D03*
X0231167Y0206528D03*
X0164167Y0244229D03*
X0164167Y0250528D03*
X0164167Y0259229D03*
X0164167Y0265528D03*
D12*
X0259167Y0081316D03*
X0259167Y0073442D03*
D13*
X0260230Y0087379D03*
X0268104Y0087379D03*
D14*
X0139167Y0142379D03*
X0129167Y0142379D03*
X0119167Y0142379D03*
X0109167Y0142379D03*
X0099167Y0142379D03*
X0089167Y0142379D03*
D15*
X0085190Y0104279D03*
X0082041Y0104279D03*
X0078891Y0104279D03*
X0075741Y0104279D03*
X0072592Y0104279D03*
X0069442Y0104279D03*
X0066293Y0104279D03*
X0063143Y0104279D03*
X0063143Y0070479D03*
X0066293Y0070479D03*
X0069442Y0070479D03*
X0072592Y0070479D03*
X0075741Y0070479D03*
X0078891Y0070479D03*
X0082041Y0070479D03*
X0085190Y0070479D03*
D16*
X0091067Y0076355D03*
X0091067Y0079505D03*
X0091067Y0082654D03*
X0091067Y0085804D03*
X0091067Y0088954D03*
X0091067Y0092103D03*
X0091067Y0095253D03*
X0091067Y0098402D03*
X0057267Y0098402D03*
X0057267Y0095253D03*
X0057267Y0092103D03*
X0057267Y0088954D03*
X0057267Y0085804D03*
X0057267Y0082654D03*
X0057267Y0079505D03*
X0057267Y0076355D03*
D17*
X0174167Y0223835D02*
X0174167Y0230922D01*
X0184167Y0230922D02*
X0184167Y0223835D01*
X0194167Y0223835D02*
X0194167Y0230922D01*
X0204167Y0230922D02*
X0204167Y0223835D01*
X0214167Y0223835D02*
X0214167Y0230922D01*
X0224167Y0230922D02*
X0224167Y0223835D01*
X0234167Y0223835D02*
X0234167Y0230922D01*
X0244167Y0230922D02*
X0244167Y0223835D01*
X0239167Y0243835D02*
X0239167Y0250922D01*
X0229167Y0250922D02*
X0229167Y0243835D01*
X0219167Y0243835D02*
X0219167Y0250922D01*
X0209167Y0250922D02*
X0209167Y0243835D01*
X0199167Y0243835D02*
X0199167Y0250922D01*
X0189167Y0250922D02*
X0189167Y0243835D01*
X0179167Y0243835D02*
X0179167Y0250922D01*
D18*
X0139167Y0127379D03*
X0139167Y0117379D03*
X0129167Y0117379D03*
X0119167Y0117379D03*
X0119167Y0127379D03*
X0129167Y0127379D03*
D19*
X0028167Y0247694D03*
X0046671Y0259505D03*
X0028167Y0271316D03*
D20*
X0274167Y0117379D03*
D21*
X0274167Y0137064D03*
X0274167Y0156749D03*
D22*
X0270938Y0077379D03*
X0267395Y0077379D03*
D23*
X0154167Y0184091D03*
X0144167Y0184091D03*
X0134167Y0184091D03*
X0134167Y0220666D03*
X0144167Y0220666D03*
X0154167Y0220666D03*
X0139167Y0234091D03*
X0129167Y0234091D03*
X0119167Y0234091D03*
X0119167Y0270666D03*
X0129167Y0270666D03*
X0139167Y0270666D03*
D24*
X0283104Y0071119D03*
X0283104Y0063639D03*
X0274836Y0067379D03*
D25*
X0267907Y0067379D03*
X0260427Y0067379D03*
X0260427Y0057379D03*
X0267907Y0057379D03*
X0087907Y0247379D03*
X0080427Y0247379D03*
X0080427Y0257379D03*
X0087907Y0257379D03*
D26*
X0104167Y0258639D03*
X0104167Y0266119D03*
X0105348Y0245331D03*
X0105348Y0237851D03*
X0119167Y0216119D03*
X0119167Y0208639D03*
X0121167Y0192619D03*
X0121167Y0185139D03*
X0070667Y0190639D03*
X0070667Y0198119D03*
X0151667Y0239139D03*
X0151667Y0246619D03*
X0154167Y0263639D03*
X0154167Y0271119D03*
X0180667Y0213119D03*
X0180667Y0205639D03*
X0247167Y0188119D03*
X0247167Y0180639D03*
D27*
X0074167Y0179662D03*
X0074167Y0175095D03*
X0065167Y0176662D03*
X0065167Y0172095D03*
D28*
X0016767Y0167379D02*
X0011567Y0167379D01*
X0011567Y0177379D02*
X0016767Y0177379D01*
X0016767Y0187379D02*
X0011567Y0187379D01*
X0011567Y0197379D02*
X0016767Y0197379D01*
X0016767Y0207379D02*
X0011567Y0207379D01*
X0011567Y0157379D02*
X0016767Y0157379D01*
X0016767Y0147379D02*
X0011567Y0147379D01*
X0011567Y0137379D02*
X0016767Y0137379D01*
X0016767Y0127379D02*
X0011567Y0127379D01*
X0011567Y0117379D02*
X0016767Y0117379D01*
X0016767Y0107379D02*
X0011567Y0107379D01*
X0011567Y0097379D02*
X0016767Y0097379D01*
X0016767Y0087379D02*
X0011567Y0087379D01*
X0011567Y0077379D02*
X0016767Y0077379D01*
X0016767Y0067379D02*
X0011567Y0067379D01*
X0011567Y0057379D02*
X0016767Y0057379D01*
X0016767Y0047379D02*
X0011567Y0047379D01*
X0011567Y0037379D02*
X0016767Y0037379D01*
X0016767Y0027379D02*
X0011567Y0027379D01*
X0011567Y0017379D02*
X0016767Y0017379D01*
D29*
X0034482Y0023775D02*
X0034482Y0030825D01*
X0054167Y0030825D02*
X0054167Y0023775D01*
X0073852Y0023775D02*
X0073852Y0030825D01*
X0099482Y0030825D02*
X0099482Y0023775D01*
X0119167Y0023775D02*
X0119167Y0030825D01*
X0138852Y0030825D02*
X0138852Y0023775D01*
X0164482Y0023775D02*
X0164482Y0030825D01*
X0184167Y0030825D02*
X0184167Y0023775D01*
X0203852Y0023775D02*
X0203852Y0030825D01*
X0229482Y0030825D02*
X0229482Y0023775D01*
X0249167Y0023775D02*
X0249167Y0030825D01*
X0268852Y0030825D02*
X0268852Y0023775D01*
X0270642Y0187536D02*
X0277692Y0187536D01*
X0277692Y0207221D02*
X0270642Y0207221D01*
X0270642Y0227536D02*
X0277692Y0227536D01*
X0277692Y0247221D02*
X0270642Y0247221D01*
D30*
X0058667Y0142379D03*
X0039667Y0142379D03*
D31*
X0053267Y0219679D03*
X0053267Y0237379D03*
X0089167Y0237379D03*
X0089167Y0219679D03*
D32*
X0195667Y0154779D02*
X0195667Y0146979D01*
X0195667Y0106779D02*
X0195667Y0098979D01*
X0219167Y0098779D02*
X0219167Y0090979D01*
X0242667Y0098979D02*
X0242667Y0106779D01*
X0242667Y0146979D02*
X0242667Y0154779D01*
D33*
X0260033Y0097379D03*
X0268301Y0097379D03*
X0073301Y0247379D03*
X0065033Y0247379D03*
X0065033Y0257379D03*
X0073301Y0257379D03*
D34*
X0169167Y0077536D03*
D35*
X0178143Y0106276D03*
X0160190Y0106276D03*
D36*
X0005967Y0009179D02*
X0005967Y0269179D01*
X0014167Y0277379D01*
X0020005Y0277379D01*
X0018755Y0275214D01*
X0018067Y0272645D01*
X0018067Y0269986D01*
X0018755Y0267417D01*
X0020085Y0265114D01*
X0021965Y0263234D01*
X0024268Y0261904D01*
X0026837Y0261216D01*
X0029496Y0261216D01*
X0032065Y0261904D01*
X0034368Y0263234D01*
X0036249Y0265114D01*
X0037578Y0267417D01*
X0038267Y0269986D01*
X0038267Y0272645D01*
X0037578Y0275214D01*
X0036329Y0277379D01*
X0289167Y0277379D01*
X0292288Y0274257D01*
X0292288Y0009179D01*
X0005967Y0009179D01*
X0005967Y0010576D02*
X0292288Y0010576D01*
X0292288Y0012174D02*
X0005967Y0012174D01*
X0005967Y0013773D02*
X0009044Y0013773D01*
X0009261Y0013616D02*
X0009878Y0013301D01*
X0010536Y0013087D01*
X0011220Y0012979D01*
X0014167Y0012979D01*
X0017113Y0012979D01*
X0017797Y0013087D01*
X0018456Y0013301D01*
X0019073Y0013616D01*
X0019633Y0014023D01*
X0020123Y0014512D01*
X0020530Y0015073D01*
X0020844Y0015690D01*
X0021058Y0016348D01*
X0021167Y0017032D01*
X0021167Y0017379D01*
X0021167Y0017725D01*
X0021058Y0018409D01*
X0020844Y0019068D01*
X0020530Y0019685D01*
X0020123Y0020245D01*
X0019633Y0020735D01*
X0019073Y0021142D01*
X0018456Y0021456D01*
X0017797Y0021670D01*
X0017113Y0021779D01*
X0014167Y0021779D01*
X0014167Y0017379D01*
X0021167Y0017379D01*
X0014167Y0017379D01*
X0014167Y0017379D01*
X0014167Y0017379D01*
X0014167Y0021779D01*
X0011220Y0021779D01*
X0010536Y0021670D01*
X0009878Y0021456D01*
X0009261Y0021142D01*
X0008700Y0020735D01*
X0008211Y0020245D01*
X0007803Y0019685D01*
X0007489Y0019068D01*
X0007275Y0018409D01*
X0007167Y0017725D01*
X0007167Y0017379D01*
X0014167Y0017379D01*
X0024560Y0017379D01*
X0034482Y0027300D01*
X0049403Y0012379D01*
X0109167Y0012379D01*
X0099482Y0022064D01*
X0099482Y0027300D01*
X0099167Y0027379D02*
X0102667Y0030879D01*
X0109167Y0030879D01*
X0110196Y0032955D02*
X0104373Y0032955D01*
X0104416Y0032869D02*
X0104036Y0033616D01*
X0103543Y0034294D01*
X0102951Y0034887D01*
X0102824Y0034979D01*
X0108173Y0034979D01*
X0114042Y0029110D01*
X0114042Y0022756D01*
X0114822Y0020872D01*
X0116264Y0019430D01*
X0118147Y0018650D01*
X0120186Y0018650D01*
X0122070Y0019430D01*
X0123511Y0020872D01*
X0124292Y0022756D01*
X0124292Y0029031D01*
X0130240Y0034979D01*
X0135758Y0034979D01*
X0134507Y0033728D01*
X0133727Y0031844D01*
X0133727Y0022756D01*
X0134507Y0020872D01*
X0135949Y0019430D01*
X0137832Y0018650D01*
X0139871Y0018650D01*
X0141755Y0019430D01*
X0143196Y0020872D01*
X0143977Y0022756D01*
X0143977Y0031844D01*
X0143196Y0033728D01*
X0141946Y0034979D01*
X0161388Y0034979D01*
X0160137Y0033728D01*
X0159357Y0031844D01*
X0159357Y0022756D01*
X0160137Y0020872D01*
X0161579Y0019430D01*
X0163462Y0018650D01*
X0165501Y0018650D01*
X0167385Y0019430D01*
X0168826Y0020872D01*
X0169607Y0022756D01*
X0169607Y0031844D01*
X0168826Y0033728D01*
X0167576Y0034979D01*
X0173173Y0034979D01*
X0179042Y0029110D01*
X0179042Y0022756D01*
X0179822Y0020872D01*
X0181264Y0019430D01*
X0183147Y0018650D01*
X0185186Y0018650D01*
X0187070Y0019430D01*
X0188511Y0020872D01*
X0189292Y0022756D01*
X0189292Y0029031D01*
X0195240Y0034979D01*
X0200509Y0034979D01*
X0200383Y0034887D01*
X0199790Y0034294D01*
X0199297Y0033616D01*
X0198917Y0032869D01*
X0198658Y0032072D01*
X0198527Y0031244D01*
X0198527Y0027675D01*
X0203477Y0027675D01*
X0203477Y0026925D01*
X0204227Y0026925D01*
X0204227Y0027675D01*
X0209177Y0027675D01*
X0209177Y0031244D01*
X0209046Y0032072D01*
X0208787Y0032869D01*
X0208406Y0033616D01*
X0207913Y0034294D01*
X0207321Y0034887D01*
X0207194Y0034979D01*
X0226388Y0034979D01*
X0225137Y0033728D01*
X0224357Y0031844D01*
X0224357Y0022756D01*
X0225137Y0020872D01*
X0226579Y0019430D01*
X0228462Y0018650D01*
X0230501Y0018650D01*
X0232385Y0019430D01*
X0233826Y0020872D01*
X0234607Y0022756D01*
X0234607Y0031844D01*
X0233826Y0033728D01*
X0232576Y0034979D01*
X0238173Y0034979D01*
X0244042Y0029110D01*
X0244042Y0022756D01*
X0244822Y0020872D01*
X0246264Y0019430D01*
X0248147Y0018650D01*
X0250186Y0018650D01*
X0252070Y0019430D01*
X0253511Y0020872D01*
X0254292Y0022756D01*
X0254292Y0031844D01*
X0253511Y0033728D01*
X0252070Y0035170D01*
X0250186Y0035950D01*
X0248147Y0035950D01*
X0246264Y0035170D01*
X0245517Y0034423D01*
X0240526Y0039413D01*
X0239644Y0039779D01*
X0193768Y0039779D01*
X0192886Y0039413D01*
X0192211Y0038738D01*
X0187856Y0034383D01*
X0187070Y0035170D01*
X0185186Y0035950D01*
X0183147Y0035950D01*
X0181264Y0035170D01*
X0180517Y0034423D01*
X0175526Y0039413D01*
X0174644Y0039779D01*
X0153567Y0039779D01*
X0153567Y0048385D01*
X0155361Y0050179D01*
X0156492Y0050179D01*
X0158367Y0052053D01*
X0158367Y0054704D01*
X0156492Y0056579D01*
X0153841Y0056579D01*
X0151967Y0054704D01*
X0151967Y0053573D01*
X0150548Y0052154D01*
X0150548Y0052779D01*
X0148567Y0054760D01*
X0145766Y0054760D01*
X0145473Y0054467D01*
X0143942Y0055998D01*
X0145567Y0055998D01*
X0146548Y0056979D01*
X0211173Y0056979D01*
X0212807Y0055344D01*
X0213689Y0054979D01*
X0214644Y0054979D01*
X0215526Y0055344D01*
X0216201Y0056019D01*
X0216201Y0056019D01*
X0220161Y0059979D01*
X0226985Y0059979D01*
X0225786Y0058779D01*
X0225786Y0055978D01*
X0227766Y0053998D01*
X0230567Y0053998D01*
X0232548Y0055978D01*
X0232548Y0058779D01*
X0231348Y0059979D01*
X0243173Y0059979D01*
X0247132Y0056019D01*
X0247807Y0055344D01*
X0248689Y0054979D01*
X0256267Y0054979D01*
X0256267Y0053566D01*
X0257205Y0052629D01*
X0263648Y0052629D01*
X0264167Y0053148D01*
X0264685Y0052629D01*
X0271129Y0052629D01*
X0272066Y0053566D01*
X0272066Y0054979D01*
X0284644Y0054979D01*
X0285526Y0055344D01*
X0286201Y0056019D01*
X0286567Y0056901D01*
X0286567Y0064116D01*
X0286475Y0064336D01*
X0286475Y0065876D01*
X0285538Y0066813D01*
X0280669Y0066813D01*
X0279732Y0065876D01*
X0279732Y0061401D01*
X0280669Y0060464D01*
X0281767Y0060464D01*
X0281767Y0059779D01*
X0272066Y0059779D01*
X0272066Y0060279D01*
X0275037Y0060279D01*
X0275413Y0060655D01*
X0275597Y0060839D01*
X0276267Y0061509D01*
X0276464Y0061706D01*
X0276757Y0062413D01*
X0276936Y0062592D01*
X0276936Y0064204D01*
X0277270Y0064204D01*
X0278208Y0065141D01*
X0278208Y0069616D01*
X0277270Y0070554D01*
X0275311Y0070554D01*
X0276267Y0071509D01*
X0276267Y0076509D01*
X0280037Y0080279D01*
X0281267Y0081509D01*
X0281267Y0093249D01*
X0275329Y0099186D01*
X0274915Y0099186D01*
X0274622Y0099479D01*
X0272263Y0099479D01*
X0272263Y0100404D01*
X0271325Y0101341D01*
X0265276Y0101341D01*
X0264338Y0100404D01*
X0264338Y0094354D01*
X0265276Y0093417D01*
X0271325Y0093417D01*
X0272263Y0094354D01*
X0272263Y0095279D01*
X0273297Y0095279D01*
X0277067Y0091509D01*
X0277067Y0083249D01*
X0273788Y0079970D01*
X0273788Y0080541D01*
X0272851Y0081479D01*
X0269395Y0081479D01*
X0269395Y0084204D01*
X0270735Y0084204D01*
X0271672Y0085141D01*
X0271672Y0089616D01*
X0270735Y0090554D01*
X0265472Y0090554D01*
X0264535Y0089616D01*
X0264535Y0085141D01*
X0265395Y0084281D01*
X0265395Y0081391D01*
X0264545Y0080541D01*
X0264545Y0079379D01*
X0263932Y0079379D01*
X0263639Y0079672D01*
X0262341Y0080969D01*
X0262341Y0083947D01*
X0262084Y0084204D01*
X0262861Y0084204D01*
X0263798Y0085141D01*
X0263798Y0089616D01*
X0262861Y0090554D01*
X0262033Y0090554D01*
X0262033Y0093417D01*
X0263058Y0093417D01*
X0263995Y0094354D01*
X0263995Y0100404D01*
X0263058Y0101341D01*
X0257008Y0101341D01*
X0256071Y0100404D01*
X0256071Y0096386D01*
X0254163Y0094479D01*
X0245945Y0094479D01*
X0247329Y0095863D01*
X0248167Y0097885D01*
X0248167Y0107873D01*
X0247329Y0109894D01*
X0245782Y0111441D01*
X0243761Y0112279D01*
X0241573Y0112279D01*
X0239551Y0111441D01*
X0238004Y0109894D01*
X0237167Y0107873D01*
X0237167Y0097885D01*
X0238004Y0095863D01*
X0239551Y0094316D01*
X0240567Y0093895D01*
X0240567Y0093009D01*
X0241797Y0091779D01*
X0243297Y0090279D01*
X0255903Y0090279D01*
X0257133Y0091509D01*
X0258033Y0092409D01*
X0258033Y0090554D01*
X0257598Y0090554D01*
X0256661Y0089616D01*
X0256661Y0085141D01*
X0256924Y0084879D01*
X0255992Y0083947D01*
X0255992Y0078684D01*
X0256929Y0077747D01*
X0259907Y0077747D01*
X0260644Y0077010D01*
X0256929Y0077010D01*
X0255992Y0076073D01*
X0255992Y0070810D01*
X0256267Y0070535D01*
X0256267Y0065760D01*
X0253766Y0065760D01*
X0251786Y0063779D01*
X0251786Y0060978D01*
X0252985Y0059779D01*
X0250161Y0059779D01*
X0245526Y0064413D01*
X0244644Y0064779D01*
X0218689Y0064779D01*
X0217807Y0064413D01*
X0217132Y0063738D01*
X0214167Y0060773D01*
X0213526Y0061413D01*
X0212644Y0061779D01*
X0152092Y0061779D01*
X0152367Y0062053D01*
X0152367Y0064653D01*
X0152841Y0064179D01*
X0155492Y0064179D01*
X0156592Y0065279D01*
X0156937Y0065279D01*
X0156937Y0064669D01*
X0157874Y0063731D01*
X0180459Y0063731D01*
X0181397Y0064669D01*
X0181397Y0090404D01*
X0180459Y0091341D01*
X0157874Y0091341D01*
X0156937Y0090404D01*
X0156937Y0069479D01*
X0156592Y0069479D01*
X0155492Y0070579D01*
X0152841Y0070579D01*
X0151567Y0069304D01*
X0151567Y0101385D01*
X0154058Y0103876D01*
X0156622Y0103876D01*
X0156622Y0102464D01*
X0157559Y0101527D01*
X0162822Y0101527D01*
X0163759Y0102464D01*
X0163759Y0110089D01*
X0162822Y0111026D01*
X0157559Y0111026D01*
X0156622Y0110089D01*
X0156622Y0108676D01*
X0152587Y0108676D01*
X0151705Y0108311D01*
X0147132Y0103738D01*
X0146767Y0102856D01*
X0146767Y0069304D01*
X0145492Y0070579D01*
X0142841Y0070579D01*
X0142041Y0069779D01*
X0140161Y0069779D01*
X0136567Y0073373D01*
X0136567Y0096385D01*
X0156201Y0116019D01*
X0156567Y0116901D01*
X0156567Y0142856D01*
X0156201Y0143738D01*
X0153701Y0146238D01*
X0153026Y0146913D01*
X0152144Y0147279D01*
X0149292Y0147279D01*
X0148492Y0148079D01*
X0145841Y0148079D01*
X0143967Y0146204D01*
X0143967Y0143553D01*
X0145841Y0141679D01*
X0148492Y0141679D01*
X0149292Y0142479D01*
X0150673Y0142479D01*
X0151767Y0141385D01*
X0151767Y0125760D01*
X0149266Y0125760D01*
X0147286Y0123779D01*
X0147286Y0122392D01*
X0144673Y0119779D01*
X0143368Y0119779D01*
X0143236Y0120098D01*
X0141886Y0121448D01*
X0140121Y0122179D01*
X0138212Y0122179D01*
X0136448Y0121448D01*
X0135097Y0120098D01*
X0134367Y0118334D01*
X0134367Y0116424D01*
X0134499Y0116105D01*
X0133365Y0114971D01*
X0133967Y0116424D01*
X0133967Y0118334D01*
X0133236Y0120098D01*
X0131886Y0121448D01*
X0130121Y0122179D01*
X0128212Y0122179D01*
X0126448Y0121448D01*
X0125097Y0120098D01*
X0124367Y0118334D01*
X0124367Y0116424D01*
X0125097Y0114660D01*
X0126448Y0113309D01*
X0126628Y0113235D01*
X0114154Y0100760D01*
X0112766Y0100760D01*
X0110786Y0098779D01*
X0110786Y0095978D01*
X0112766Y0093998D01*
X0115567Y0093998D01*
X0117548Y0095978D01*
X0117548Y0097366D01*
X0126767Y0106585D01*
X0126767Y0103373D01*
X0113173Y0089779D01*
X0099161Y0089779D01*
X0098961Y0089979D01*
X0099644Y0089979D01*
X0100526Y0090344D01*
X0101201Y0091019D01*
X0105526Y0095344D01*
X0106201Y0096019D01*
X0106567Y0096901D01*
X0106567Y0105197D01*
X0107766Y0103998D01*
X0110567Y0103998D01*
X0112548Y0105978D01*
X0112548Y0108779D01*
X0111567Y0109760D01*
X0111567Y0111385D01*
X0115023Y0114841D01*
X0115097Y0114660D01*
X0116448Y0113309D01*
X0118212Y0112579D01*
X0120121Y0112579D01*
X0121886Y0113309D01*
X0123236Y0114660D01*
X0123967Y0116424D01*
X0123967Y0118334D01*
X0123236Y0120098D01*
X0121886Y0121448D01*
X0120121Y0122179D01*
X0118212Y0122179D01*
X0116448Y0121448D01*
X0115097Y0120098D01*
X0114965Y0119779D01*
X0113689Y0119779D01*
X0112807Y0119413D01*
X0107807Y0114413D01*
X0107132Y0113738D01*
X0106767Y0112856D01*
X0106767Y0109760D01*
X0106567Y0109560D01*
X0106567Y0117856D01*
X0106201Y0118738D01*
X0105526Y0119413D01*
X0101567Y0123373D01*
X0101567Y0125197D01*
X0102766Y0123998D01*
X0105567Y0123998D01*
X0107548Y0125978D01*
X0107548Y0128779D01*
X0106567Y0129760D01*
X0106567Y0131385D01*
X0111201Y0136019D01*
X0111567Y0136901D01*
X0111567Y0138273D01*
X0113767Y0140473D01*
X0113767Y0144284D01*
X0111072Y0146979D01*
X0107261Y0146979D01*
X0104567Y0144284D01*
X0104567Y0140473D01*
X0106717Y0138323D01*
X0102807Y0134413D01*
X0102132Y0133738D01*
X0101767Y0132856D01*
X0101767Y0129760D01*
X0101567Y0129560D01*
X0101567Y0138273D01*
X0103767Y0140473D01*
X0103767Y0144284D01*
X0101072Y0146979D01*
X0097261Y0146979D01*
X0094567Y0144284D01*
X0094567Y0140473D01*
X0096767Y0138273D01*
X0096767Y0129560D01*
X0095567Y0130760D01*
X0092766Y0130760D01*
X0090786Y0128779D01*
X0090786Y0125978D01*
X0091767Y0124997D01*
X0091767Y0101901D01*
X0092098Y0101102D01*
X0087904Y0101102D01*
X0086967Y0100165D01*
X0086967Y0074592D01*
X0087904Y0073655D01*
X0094229Y0073655D01*
X0094529Y0073955D01*
X0119196Y0073955D01*
X0143132Y0050019D01*
X0143807Y0049344D01*
X0144689Y0048979D01*
X0144785Y0048979D01*
X0145766Y0047998D01*
X0148567Y0047998D01*
X0148767Y0048197D01*
X0148767Y0039779D01*
X0129348Y0039779D01*
X0129548Y0039978D01*
X0129548Y0042779D01*
X0127567Y0044760D01*
X0125180Y0044760D01*
X0121201Y0048738D01*
X0120526Y0049413D01*
X0119644Y0049779D01*
X0110161Y0049779D01*
X0108526Y0051413D01*
X0107644Y0051779D01*
X0091348Y0051779D01*
X0091548Y0051979D01*
X0126644Y0051979D01*
X0127526Y0052344D01*
X0129180Y0053998D01*
X0130567Y0053998D01*
X0132548Y0055978D01*
X0132548Y0058779D01*
X0130567Y0060760D01*
X0127766Y0060760D01*
X0125786Y0058779D01*
X0125786Y0057392D01*
X0125173Y0056779D01*
X0091548Y0056779D01*
X0090567Y0057760D01*
X0087766Y0057760D01*
X0085786Y0055779D01*
X0085786Y0052978D01*
X0086985Y0051779D01*
X0084567Y0051779D01*
X0084567Y0065604D01*
X0084547Y0065652D01*
X0089854Y0060344D01*
X0090737Y0059979D01*
X0099285Y0059979D01*
X0100266Y0058998D01*
X0103067Y0058998D01*
X0105048Y0060978D01*
X0105048Y0063779D01*
X0103067Y0065760D01*
X0100266Y0065760D01*
X0099285Y0064779D01*
X0092208Y0064779D01*
X0087890Y0069096D01*
X0087890Y0073641D01*
X0086953Y0074579D01*
X0077670Y0074579D01*
X0077536Y0074656D01*
X0077078Y0074779D01*
X0075742Y0074779D01*
X0075742Y0070479D01*
X0075741Y0070479D01*
X0075741Y0074779D01*
X0074404Y0074779D01*
X0073947Y0074656D01*
X0073813Y0074579D01*
X0061380Y0074579D01*
X0060443Y0073641D01*
X0060443Y0070884D01*
X0059567Y0071760D01*
X0059567Y0073655D01*
X0060429Y0073655D01*
X0061367Y0074592D01*
X0061367Y0100165D01*
X0060429Y0101102D01*
X0059667Y0101102D01*
X0059667Y0102408D01*
X0060443Y0103185D01*
X0060443Y0101116D01*
X0061380Y0100179D01*
X0070663Y0100179D01*
X0070797Y0100101D01*
X0071255Y0099979D01*
X0072592Y0099979D01*
X0073929Y0099979D01*
X0074387Y0100101D01*
X0074521Y0100179D01*
X0076962Y0100179D01*
X0077096Y0100101D01*
X0077554Y0099979D01*
X0078891Y0099979D01*
X0078891Y0104279D01*
X0078891Y0108579D01*
X0078141Y0108579D01*
X0078141Y0109431D01*
X0078067Y0109612D01*
X0078067Y0109997D01*
X0079548Y0111478D01*
X0079548Y0114279D01*
X0077567Y0116260D01*
X0074766Y0116260D01*
X0073067Y0114560D01*
X0073067Y0114997D01*
X0074048Y0115978D01*
X0074048Y0118779D01*
X0072067Y0120760D01*
X0069266Y0120760D01*
X0068693Y0120186D01*
X0068693Y0133719D01*
X0069614Y0133719D01*
X0069614Y0132897D01*
X0069991Y0132520D01*
X0069774Y0132303D01*
X0069537Y0131892D01*
X0069414Y0131435D01*
X0069414Y0129118D01*
X0073687Y0129118D01*
X0073687Y0128159D01*
X0069414Y0128159D01*
X0069414Y0125843D01*
X0069537Y0125385D01*
X0069774Y0124974D01*
X0070109Y0124639D01*
X0070519Y0124402D01*
X0070977Y0124280D01*
X0073687Y0124280D01*
X0073687Y0128159D01*
X0074646Y0128159D01*
X0074646Y0124280D01*
X0077356Y0124280D01*
X0077814Y0124402D01*
X0078225Y0124639D01*
X0078560Y0124974D01*
X0078797Y0125385D01*
X0078919Y0125843D01*
X0078919Y0128159D01*
X0074646Y0128159D01*
X0074646Y0129118D01*
X0078919Y0129118D01*
X0078919Y0131435D01*
X0078797Y0131892D01*
X0078560Y0132303D01*
X0078342Y0132520D01*
X0078719Y0132897D01*
X0078719Y0134432D01*
X0081767Y0131385D01*
X0081767Y0111873D01*
X0080006Y0110112D01*
X0079641Y0109230D01*
X0079641Y0108579D01*
X0078891Y0108579D01*
X0078891Y0104279D01*
X0078891Y0104279D01*
X0078667Y0104503D01*
X0078667Y0109379D01*
X0080667Y0111379D01*
X0080667Y0115379D01*
X0077667Y0118379D01*
X0076167Y0118379D01*
X0074167Y0120379D01*
X0074167Y0128639D01*
X0074646Y0128866D02*
X0081767Y0128866D01*
X0081767Y0130464D02*
X0078919Y0130464D01*
X0078698Y0132063D02*
X0081089Y0132063D01*
X0079490Y0133661D02*
X0078719Y0133661D01*
X0079167Y0137379D02*
X0079167Y0157379D01*
X0084167Y0162379D01*
X0104167Y0162379D01*
X0109167Y0167379D01*
X0109167Y0182379D01*
X0114167Y0187379D01*
X0114167Y0227379D01*
X0104167Y0227379D01*
X0106548Y0229779D02*
X0105567Y0230760D01*
X0102766Y0230760D01*
X0100786Y0228779D01*
X0100786Y0225978D01*
X0102766Y0223998D01*
X0105567Y0223998D01*
X0106548Y0224979D01*
X0111767Y0224979D01*
X0111767Y0214560D01*
X0110567Y0215760D01*
X0109180Y0215760D01*
X0105526Y0219413D01*
X0104644Y0219779D01*
X0101548Y0219779D01*
X0100567Y0220760D01*
X0097766Y0220760D01*
X0095786Y0218779D01*
X0095786Y0215978D01*
X0097766Y0213998D01*
X0100567Y0213998D01*
X0101548Y0214979D01*
X0103173Y0214979D01*
X0105786Y0212366D01*
X0105786Y0210978D01*
X0107766Y0208998D01*
X0110567Y0208998D01*
X0111767Y0210197D01*
X0111767Y0188373D01*
X0107807Y0184413D01*
X0107132Y0183738D01*
X0106767Y0182856D01*
X0106767Y0179560D01*
X0106567Y0179760D01*
X0106567Y0182856D01*
X0106201Y0183738D01*
X0105526Y0184413D01*
X0101567Y0188373D01*
X0101567Y0199997D01*
X0102548Y0200978D01*
X0102548Y0203779D01*
X0100567Y0205760D01*
X0097766Y0205760D01*
X0095786Y0203779D01*
X0095786Y0200978D01*
X0096767Y0199997D01*
X0096767Y0186901D01*
X0097132Y0186019D01*
X0097391Y0185760D01*
X0096766Y0185760D01*
X0095785Y0184779D01*
X0089348Y0184779D01*
X0090548Y0185978D01*
X0090548Y0188779D01*
X0088567Y0190760D01*
X0086755Y0190760D01*
X0086383Y0191132D01*
X0083719Y0191132D01*
X0083719Y0192254D01*
X0083595Y0192379D01*
X0083719Y0192503D01*
X0083719Y0198537D01*
X0084180Y0198998D01*
X0085567Y0198998D01*
X0087548Y0200978D01*
X0087548Y0203779D01*
X0085567Y0205760D01*
X0082766Y0205760D01*
X0080786Y0203779D01*
X0080786Y0202392D01*
X0078278Y0199884D01*
X0077977Y0199884D01*
X0077643Y0200219D01*
X0075416Y0200219D01*
X0075416Y0201341D01*
X0074479Y0202278D01*
X0073067Y0202278D01*
X0073067Y0206356D01*
X0072701Y0207238D01*
X0060526Y0219413D01*
X0059644Y0219779D01*
X0059017Y0219779D01*
X0059017Y0223091D01*
X0058079Y0224029D01*
X0048454Y0224029D01*
X0047517Y0223091D01*
X0047517Y0216266D01*
X0048454Y0215329D01*
X0057823Y0215329D01*
X0068267Y0204885D01*
X0068267Y0202278D01*
X0066854Y0202278D01*
X0065917Y0201341D01*
X0065917Y0194897D01*
X0066435Y0194379D01*
X0065917Y0193860D01*
X0065917Y0189022D01*
X0065526Y0189413D01*
X0064644Y0189779D01*
X0056292Y0189779D01*
X0055492Y0190579D01*
X0052841Y0190579D01*
X0051567Y0189304D01*
X0051567Y0199979D01*
X0056785Y0199979D01*
X0057766Y0198998D01*
X0060567Y0198998D01*
X0062548Y0200978D01*
X0062548Y0203779D01*
X0060567Y0205760D01*
X0057766Y0205760D01*
X0056785Y0204779D01*
X0048689Y0204779D01*
X0047807Y0204413D01*
X0047132Y0203738D01*
X0046767Y0202856D01*
X0046767Y0174884D01*
X0045551Y0174884D01*
X0044614Y0173947D01*
X0044614Y0167503D01*
X0044644Y0167473D01*
X0044537Y0167286D01*
X0044414Y0166828D01*
X0044414Y0164512D01*
X0048687Y0164512D01*
X0048687Y0163553D01*
X0044414Y0163553D01*
X0044414Y0161236D01*
X0044537Y0160778D01*
X0044774Y0160368D01*
X0045109Y0160033D01*
X0045519Y0159796D01*
X0045977Y0159673D01*
X0048687Y0159673D01*
X0048687Y0163553D01*
X0049646Y0163553D01*
X0049646Y0164512D01*
X0053919Y0164512D01*
X0053919Y0166828D01*
X0053797Y0167286D01*
X0053689Y0167473D01*
X0053719Y0167503D01*
X0053719Y0173947D01*
X0052782Y0174884D01*
X0051567Y0174884D01*
X0051567Y0176677D01*
X0051632Y0176519D01*
X0052307Y0175844D01*
X0054614Y0173537D01*
X0054614Y0167897D01*
X0054991Y0167520D01*
X0054774Y0167303D01*
X0054537Y0166892D01*
X0054414Y0166435D01*
X0054414Y0164118D01*
X0058687Y0164118D01*
X0058687Y0163159D01*
X0054414Y0163159D01*
X0054414Y0160843D01*
X0054537Y0160385D01*
X0054774Y0159974D01*
X0055109Y0159639D01*
X0055519Y0159402D01*
X0055977Y0159280D01*
X0058687Y0159280D01*
X0058687Y0163159D01*
X0059646Y0163159D01*
X0059646Y0159280D01*
X0062356Y0159280D01*
X0062814Y0159402D01*
X0063225Y0159639D01*
X0063560Y0159974D01*
X0063797Y0160385D01*
X0063919Y0160843D01*
X0063919Y0163159D01*
X0059646Y0163159D01*
X0059646Y0164118D01*
X0063919Y0164118D01*
X0063919Y0166435D01*
X0063797Y0166892D01*
X0063560Y0167303D01*
X0063342Y0167520D01*
X0063719Y0167897D01*
X0063719Y0168622D01*
X0065130Y0168622D01*
X0065130Y0172059D01*
X0065203Y0172059D01*
X0065203Y0172132D01*
X0068738Y0172132D01*
X0068738Y0174005D01*
X0068616Y0174463D01*
X0068559Y0174562D01*
X0070795Y0174562D01*
X0070795Y0172759D01*
X0071732Y0171822D01*
X0076601Y0171822D01*
X0077538Y0172759D01*
X0077538Y0172769D01*
X0078243Y0173061D01*
X0080161Y0174979D01*
X0098173Y0174979D01*
X0100967Y0172185D01*
X0100967Y0171053D01*
X0102841Y0169179D01*
X0105492Y0169179D01*
X0106767Y0170453D01*
X0106767Y0168373D01*
X0103173Y0164779D01*
X0083689Y0164779D01*
X0082807Y0164413D01*
X0082132Y0163738D01*
X0077807Y0159413D01*
X0077132Y0158738D01*
X0076767Y0157856D01*
X0076767Y0140278D01*
X0070551Y0140278D01*
X0069614Y0139341D01*
X0069614Y0138519D01*
X0062081Y0138519D01*
X0063027Y0139465D01*
X0063810Y0141356D01*
X0063810Y0143402D01*
X0063027Y0145292D01*
X0061580Y0146739D01*
X0059690Y0147522D01*
X0057644Y0147522D01*
X0055753Y0146739D01*
X0054306Y0145292D01*
X0053523Y0143402D01*
X0053523Y0141356D01*
X0054306Y0139465D01*
X0055753Y0138018D01*
X0057644Y0137235D01*
X0059690Y0137235D01*
X0060440Y0137546D01*
X0060372Y0137478D01*
X0060007Y0136596D01*
X0060007Y0135641D01*
X0060372Y0134759D01*
X0061047Y0134084D01*
X0061929Y0133719D01*
X0063893Y0133719D01*
X0063893Y0131047D01*
X0061201Y0133738D01*
X0060526Y0134413D01*
X0059644Y0134779D01*
X0045661Y0134779D01*
X0042468Y0137972D01*
X0042580Y0138018D01*
X0044027Y0139465D01*
X0044810Y0141356D01*
X0044810Y0143402D01*
X0044027Y0145292D01*
X0042580Y0146739D01*
X0040690Y0147522D01*
X0038644Y0147522D01*
X0036753Y0146739D01*
X0035306Y0145292D01*
X0034523Y0143402D01*
X0034523Y0141356D01*
X0035306Y0139465D01*
X0036753Y0138018D01*
X0037267Y0137806D01*
X0037267Y0136901D01*
X0037632Y0136019D01*
X0042632Y0131019D01*
X0043307Y0130344D01*
X0044189Y0129979D01*
X0058173Y0129979D01*
X0060743Y0127408D01*
X0060743Y0119196D01*
X0060526Y0119413D01*
X0057548Y0122392D01*
X0057548Y0123779D01*
X0055567Y0125760D01*
X0052766Y0125760D01*
X0050786Y0123779D01*
X0050786Y0120978D01*
X0052766Y0118998D01*
X0054154Y0118998D01*
X0056767Y0116385D01*
X0056767Y0109560D01*
X0055567Y0110760D01*
X0052766Y0110760D01*
X0051785Y0109779D01*
X0043689Y0109779D01*
X0042807Y0109413D01*
X0034154Y0100760D01*
X0032766Y0100760D01*
X0031567Y0099560D01*
X0031567Y0127856D01*
X0031201Y0128738D01*
X0030526Y0129413D01*
X0020526Y0139413D01*
X0020458Y0139441D01*
X0020327Y0139758D01*
X0019146Y0140939D01*
X0017602Y0141579D01*
X0010731Y0141579D01*
X0009188Y0140939D01*
X0008006Y0139758D01*
X0007367Y0138214D01*
X0007367Y0136543D01*
X0008006Y0135000D01*
X0009188Y0133818D01*
X0010731Y0133179D01*
X0017602Y0133179D01*
X0019146Y0133818D01*
X0019239Y0133912D01*
X0026767Y0126385D01*
X0026767Y0091901D01*
X0027132Y0091019D01*
X0030786Y0087366D01*
X0030786Y0085978D01*
X0031985Y0084779D01*
X0030161Y0084779D01*
X0026567Y0088373D01*
X0026567Y0122856D01*
X0026201Y0123738D01*
X0025526Y0124413D01*
X0020526Y0129413D01*
X0020458Y0129441D01*
X0020327Y0129758D01*
X0019146Y0130939D01*
X0017602Y0131579D01*
X0010731Y0131579D01*
X0009188Y0130939D01*
X0008006Y0129758D01*
X0007367Y0128214D01*
X0007367Y0126543D01*
X0008006Y0125000D01*
X0009188Y0123818D01*
X0010731Y0123179D01*
X0017602Y0123179D01*
X0019146Y0123818D01*
X0019239Y0123912D01*
X0021767Y0121385D01*
X0021767Y0086901D01*
X0022132Y0086019D01*
X0027132Y0081019D01*
X0027807Y0080344D01*
X0028689Y0079979D01*
X0031985Y0079979D01*
X0030786Y0078779D01*
X0030786Y0075978D01*
X0032766Y0073998D01*
X0034154Y0073998D01*
X0037132Y0071019D01*
X0037807Y0070344D01*
X0038689Y0069979D01*
X0053768Y0069979D01*
X0053786Y0069986D01*
X0053786Y0067978D01*
X0055766Y0065998D01*
X0058567Y0065998D01*
X0060443Y0067874D01*
X0060443Y0067316D01*
X0060767Y0066992D01*
X0060767Y0064779D01*
X0031548Y0064779D01*
X0030567Y0065760D01*
X0027766Y0065760D01*
X0025786Y0063779D01*
X0025786Y0060978D01*
X0027766Y0058998D01*
X0030567Y0058998D01*
X0031548Y0059979D01*
X0059985Y0059979D01*
X0059786Y0059779D01*
X0059786Y0056978D01*
X0061766Y0054998D01*
X0064567Y0054998D01*
X0066548Y0056978D01*
X0066548Y0059779D01*
X0065567Y0060760D01*
X0065567Y0062585D01*
X0066767Y0061385D01*
X0066767Y0054873D01*
X0065173Y0053279D01*
X0039161Y0053279D01*
X0038754Y0053685D01*
X0039048Y0053978D01*
X0039048Y0056779D01*
X0037067Y0058760D01*
X0034266Y0058760D01*
X0032286Y0056779D01*
X0032286Y0053978D01*
X0033267Y0052997D01*
X0033267Y0052901D01*
X0033632Y0052019D01*
X0036132Y0049519D01*
X0036807Y0048844D01*
X0037689Y0048479D01*
X0049751Y0048479D01*
X0060851Y0037379D01*
X0057856Y0034383D01*
X0057070Y0035170D01*
X0055186Y0035950D01*
X0053989Y0035950D01*
X0050526Y0039413D01*
X0049644Y0039779D01*
X0031689Y0039779D01*
X0030807Y0039413D01*
X0030132Y0038738D01*
X0026173Y0034779D01*
X0020316Y0034779D01*
X0020530Y0035073D01*
X0020844Y0035690D01*
X0021058Y0036348D01*
X0021167Y0037032D01*
X0021167Y0037379D01*
X0021167Y0037725D01*
X0021058Y0038409D01*
X0020844Y0039068D01*
X0020530Y0039685D01*
X0020123Y0040245D01*
X0019633Y0040735D01*
X0019073Y0041142D01*
X0018456Y0041456D01*
X0017797Y0041670D01*
X0017113Y0041779D01*
X0014167Y0041779D01*
X0014167Y0037379D01*
X0021167Y0037379D01*
X0014167Y0037379D01*
X0014167Y0037379D01*
X0014167Y0037379D01*
X0014167Y0041779D01*
X0011220Y0041779D01*
X0010536Y0041670D01*
X0009878Y0041456D01*
X0009261Y0041142D01*
X0008700Y0040735D01*
X0008211Y0040245D01*
X0007803Y0039685D01*
X0007489Y0039068D01*
X0007275Y0038409D01*
X0007167Y0037725D01*
X0007167Y0037379D01*
X0014167Y0037379D01*
X0024167Y0037379D01*
X0021163Y0037750D02*
X0029144Y0037750D01*
X0027546Y0036152D02*
X0020994Y0036152D01*
X0020701Y0039349D02*
X0030743Y0039349D01*
X0032167Y0037379D02*
X0049167Y0037379D01*
X0054167Y0032379D01*
X0054167Y0027300D01*
X0064245Y0037379D01*
X0050745Y0050879D01*
X0066167Y0050879D01*
X0069167Y0053879D01*
X0069167Y0062379D01*
X0066167Y0065379D01*
X0066167Y0070353D01*
X0066293Y0070479D01*
X0063167Y0070455D02*
X0063143Y0070479D01*
X0063167Y0070455D02*
X0063167Y0062379D01*
X0029167Y0062379D01*
X0026634Y0060130D02*
X0019955Y0060130D01*
X0020327Y0059758D02*
X0019146Y0060939D01*
X0017602Y0061579D01*
X0010731Y0061579D01*
X0009188Y0060939D01*
X0008006Y0059758D01*
X0007367Y0058214D01*
X0007367Y0056543D01*
X0008006Y0055000D01*
X0009188Y0053818D01*
X0010731Y0053179D01*
X0017602Y0053179D01*
X0019146Y0053818D01*
X0020327Y0055000D01*
X0020967Y0056543D01*
X0020967Y0058214D01*
X0020327Y0059758D01*
X0020835Y0058531D02*
X0034037Y0058531D01*
X0032439Y0056933D02*
X0020967Y0056933D01*
X0020466Y0055334D02*
X0032286Y0055334D01*
X0032528Y0053736D02*
X0018946Y0053736D01*
X0017602Y0051579D02*
X0010731Y0051579D01*
X0009188Y0050939D01*
X0008006Y0049758D01*
X0007367Y0048214D01*
X0007367Y0046543D01*
X0008006Y0045000D01*
X0009188Y0043818D01*
X0010731Y0043179D01*
X0017602Y0043179D01*
X0019146Y0043818D01*
X0020327Y0045000D01*
X0020967Y0046543D01*
X0020967Y0048214D01*
X0020327Y0049758D01*
X0019146Y0050939D01*
X0017602Y0051579D01*
X0019547Y0050539D02*
X0035113Y0050539D01*
X0033583Y0052137D02*
X0005967Y0052137D01*
X0005967Y0050539D02*
X0008787Y0050539D01*
X0007667Y0048940D02*
X0005967Y0048940D01*
X0005967Y0047342D02*
X0007367Y0047342D01*
X0007698Y0045743D02*
X0005967Y0045743D01*
X0005967Y0044145D02*
X0008861Y0044145D01*
X0008993Y0040947D02*
X0005967Y0040947D01*
X0005967Y0039349D02*
X0007632Y0039349D01*
X0007171Y0037750D02*
X0005967Y0037750D01*
X0007167Y0037379D02*
X0007167Y0037032D01*
X0007275Y0036348D01*
X0007489Y0035690D01*
X0007803Y0035073D01*
X0008211Y0034512D01*
X0008700Y0034023D01*
X0009261Y0033616D01*
X0009878Y0033301D01*
X0010536Y0033087D01*
X0011220Y0032979D01*
X0014167Y0032979D01*
X0016373Y0032979D01*
X0014973Y0031579D01*
X0010731Y0031579D01*
X0009188Y0030939D01*
X0008006Y0029758D01*
X0005967Y0029758D01*
X0005967Y0031356D02*
X0010195Y0031356D01*
X0008006Y0029758D02*
X0007367Y0028214D01*
X0007367Y0026543D01*
X0008006Y0025000D01*
X0009188Y0023818D01*
X0010731Y0023179D01*
X0017602Y0023179D01*
X0019146Y0023818D01*
X0020327Y0025000D01*
X0020967Y0026543D01*
X0020967Y0028214D01*
X0020327Y0029758D01*
X0029157Y0029758D01*
X0028526Y0030344D02*
X0029157Y0030975D01*
X0029157Y0027675D01*
X0034107Y0027675D01*
X0034107Y0026925D01*
X0034857Y0026925D01*
X0034857Y0027675D01*
X0039807Y0027675D01*
X0039807Y0031244D01*
X0039675Y0032072D01*
X0039416Y0032869D01*
X0039036Y0033616D01*
X0038543Y0034294D01*
X0037951Y0034887D01*
X0037824Y0034979D01*
X0048173Y0034979D01*
X0049705Y0033446D01*
X0049042Y0031844D01*
X0049042Y0022756D01*
X0049822Y0020872D01*
X0051264Y0019430D01*
X0053147Y0018650D01*
X0055186Y0018650D01*
X0057070Y0019430D01*
X0058511Y0020872D01*
X0059292Y0022756D01*
X0059292Y0029031D01*
X0065240Y0034979D01*
X0070758Y0034979D01*
X0069507Y0033728D01*
X0068727Y0031844D01*
X0068727Y0022756D01*
X0069507Y0020872D01*
X0070949Y0019430D01*
X0072832Y0018650D01*
X0074871Y0018650D01*
X0076755Y0019430D01*
X0078196Y0020872D01*
X0078977Y0022756D01*
X0078977Y0031844D01*
X0078196Y0033728D01*
X0076946Y0034979D01*
X0096139Y0034979D01*
X0096013Y0034887D01*
X0095420Y0034294D01*
X0094927Y0033616D01*
X0094547Y0032869D01*
X0094288Y0032072D01*
X0094157Y0031244D01*
X0094157Y0027675D01*
X0099107Y0027675D01*
X0099107Y0026925D01*
X0099857Y0026925D01*
X0099857Y0027675D01*
X0104807Y0027675D01*
X0104807Y0031244D01*
X0104675Y0032072D01*
X0104416Y0032869D01*
X0104789Y0031356D02*
X0111795Y0031356D01*
X0113393Y0029758D02*
X0104807Y0029758D01*
X0104807Y0028159D02*
X0114042Y0028159D01*
X0114042Y0026561D02*
X0104807Y0026561D01*
X0104807Y0026925D02*
X0099857Y0026925D01*
X0099857Y0018450D01*
X0099901Y0018450D01*
X0100729Y0018581D01*
X0101526Y0018840D01*
X0102273Y0019221D01*
X0102951Y0019713D01*
X0103543Y0020306D01*
X0104036Y0020984D01*
X0104416Y0021731D01*
X0104675Y0022528D01*
X0104807Y0023356D01*
X0104807Y0026925D01*
X0104807Y0024962D02*
X0114042Y0024962D01*
X0114042Y0023364D02*
X0104807Y0023364D01*
X0104428Y0021765D02*
X0114452Y0021765D01*
X0115527Y0020167D02*
X0103404Y0020167D01*
X0100648Y0018568D02*
X0202686Y0018568D01*
X0202605Y0018581D02*
X0203433Y0018450D01*
X0203477Y0018450D01*
X0203477Y0026925D01*
X0198527Y0026925D01*
X0198527Y0023356D01*
X0198658Y0022528D01*
X0198917Y0021731D01*
X0199297Y0020984D01*
X0199790Y0020306D01*
X0200383Y0019713D01*
X0201061Y0019221D01*
X0201808Y0018840D01*
X0202605Y0018581D01*
X0203477Y0018568D02*
X0204227Y0018568D01*
X0204227Y0018450D02*
X0204271Y0018450D01*
X0205099Y0018581D01*
X0205896Y0018840D01*
X0206643Y0019221D01*
X0207321Y0019713D01*
X0207913Y0020306D01*
X0208406Y0020984D01*
X0208787Y0021731D01*
X0209046Y0022528D01*
X0209177Y0023356D01*
X0209177Y0026925D01*
X0204227Y0026925D01*
X0204227Y0018450D01*
X0205018Y0018568D02*
X0267686Y0018568D01*
X0267605Y0018581D02*
X0268433Y0018450D01*
X0268477Y0018450D01*
X0268477Y0026925D01*
X0269227Y0026925D01*
X0269227Y0027675D01*
X0274177Y0027675D01*
X0274177Y0031244D01*
X0274046Y0032072D01*
X0273787Y0032869D01*
X0273406Y0033616D01*
X0272913Y0034294D01*
X0272321Y0034887D01*
X0271643Y0035379D01*
X0270896Y0035760D01*
X0270099Y0036019D01*
X0269271Y0036150D01*
X0269227Y0036150D01*
X0269227Y0027675D01*
X0268477Y0027675D01*
X0268477Y0036150D01*
X0268433Y0036150D01*
X0267605Y0036019D01*
X0266808Y0035760D01*
X0266061Y0035379D01*
X0265383Y0034887D01*
X0264790Y0034294D01*
X0264297Y0033616D01*
X0263917Y0032869D01*
X0263658Y0032072D01*
X0263527Y0031244D01*
X0263527Y0027675D01*
X0268477Y0027675D01*
X0268477Y0026925D01*
X0263527Y0026925D01*
X0263527Y0023356D01*
X0263658Y0022528D01*
X0263917Y0021731D01*
X0264297Y0020984D01*
X0264790Y0020306D01*
X0265383Y0019713D01*
X0266061Y0019221D01*
X0266808Y0018840D01*
X0267605Y0018581D01*
X0268477Y0018568D02*
X0269227Y0018568D01*
X0269227Y0018450D02*
X0269271Y0018450D01*
X0270099Y0018581D01*
X0270896Y0018840D01*
X0271643Y0019221D01*
X0272321Y0019713D01*
X0272913Y0020306D01*
X0273406Y0020984D01*
X0273787Y0021731D01*
X0274046Y0022528D01*
X0274177Y0023356D01*
X0274177Y0026925D01*
X0269227Y0026925D01*
X0269227Y0018450D01*
X0270018Y0018568D02*
X0292288Y0018568D01*
X0292288Y0016970D02*
X0021157Y0016970D01*
X0021007Y0018568D02*
X0033315Y0018568D01*
X0033235Y0018581D02*
X0034063Y0018450D01*
X0034107Y0018450D01*
X0034107Y0026925D01*
X0029157Y0026925D01*
X0029157Y0023356D01*
X0029288Y0022528D01*
X0029547Y0021731D01*
X0029927Y0020984D01*
X0030420Y0020306D01*
X0031013Y0019713D01*
X0031691Y0019221D01*
X0032438Y0018840D01*
X0033235Y0018581D01*
X0034107Y0018568D02*
X0034857Y0018568D01*
X0034857Y0018450D02*
X0034901Y0018450D01*
X0035729Y0018581D01*
X0036526Y0018840D01*
X0037273Y0019221D01*
X0037951Y0019713D01*
X0038543Y0020306D01*
X0039036Y0020984D01*
X0039416Y0021731D01*
X0039675Y0022528D01*
X0039807Y0023356D01*
X0039807Y0026925D01*
X0034857Y0026925D01*
X0034857Y0018450D01*
X0035648Y0018568D02*
X0098315Y0018568D01*
X0098235Y0018581D02*
X0099063Y0018450D01*
X0099107Y0018450D01*
X0099107Y0026925D01*
X0094157Y0026925D01*
X0094157Y0023356D01*
X0094288Y0022528D01*
X0094547Y0021731D01*
X0094927Y0020984D01*
X0095420Y0020306D01*
X0096013Y0019713D01*
X0096691Y0019221D01*
X0097438Y0018840D01*
X0098235Y0018581D01*
X0099107Y0018568D02*
X0099857Y0018568D01*
X0099857Y0020167D02*
X0099107Y0020167D01*
X0099107Y0021765D02*
X0099857Y0021765D01*
X0099857Y0023364D02*
X0099107Y0023364D01*
X0099107Y0024962D02*
X0099857Y0024962D01*
X0099857Y0026561D02*
X0099107Y0026561D01*
X0094157Y0026561D02*
X0078977Y0026561D01*
X0078977Y0028159D02*
X0094157Y0028159D01*
X0094157Y0029758D02*
X0078977Y0029758D01*
X0078977Y0031356D02*
X0094174Y0031356D01*
X0094590Y0032955D02*
X0078517Y0032955D01*
X0077371Y0034553D02*
X0095679Y0034553D01*
X0103284Y0034553D02*
X0108598Y0034553D01*
X0109167Y0037379D02*
X0119167Y0027379D01*
X0119167Y0027300D01*
X0129245Y0037379D01*
X0151167Y0037379D01*
X0151167Y0049379D01*
X0155167Y0053379D01*
X0158367Y0053736D02*
X0256267Y0053736D01*
X0260427Y0057379D02*
X0249167Y0057379D01*
X0244167Y0062379D01*
X0219167Y0062379D01*
X0214167Y0057379D01*
X0212167Y0059379D01*
X0144167Y0059379D01*
X0146502Y0056933D02*
X0211219Y0056933D01*
X0212831Y0055334D02*
X0157737Y0055334D01*
X0158367Y0052137D02*
X0292288Y0052137D01*
X0292288Y0050539D02*
X0156852Y0050539D01*
X0154122Y0048940D02*
X0292288Y0048940D01*
X0292288Y0047342D02*
X0153567Y0047342D01*
X0153567Y0045743D02*
X0292288Y0045743D01*
X0292288Y0044145D02*
X0153567Y0044145D01*
X0153567Y0042546D02*
X0292288Y0042546D01*
X0292288Y0040947D02*
X0153567Y0040947D01*
X0151167Y0037379D02*
X0174167Y0037379D01*
X0184167Y0027379D01*
X0184167Y0027300D01*
X0194245Y0037379D01*
X0239167Y0037379D01*
X0249167Y0027379D01*
X0249167Y0027300D01*
X0254292Y0026561D02*
X0263527Y0026561D01*
X0263527Y0028159D02*
X0254292Y0028159D01*
X0254292Y0029758D02*
X0263527Y0029758D01*
X0263544Y0031356D02*
X0254292Y0031356D01*
X0253832Y0032955D02*
X0263961Y0032955D01*
X0265049Y0034553D02*
X0252686Y0034553D01*
X0245647Y0034553D02*
X0245386Y0034553D01*
X0243788Y0036152D02*
X0292288Y0036152D01*
X0292288Y0037750D02*
X0242189Y0037750D01*
X0240591Y0039349D02*
X0292288Y0039349D01*
X0292288Y0034553D02*
X0272654Y0034553D01*
X0273743Y0032955D02*
X0292288Y0032955D01*
X0292288Y0031356D02*
X0274159Y0031356D01*
X0273930Y0032379D02*
X0289167Y0032379D01*
X0289167Y0067379D01*
X0285427Y0071119D01*
X0283104Y0071119D01*
X0286675Y0071119D01*
X0286675Y0072931D01*
X0286553Y0073388D01*
X0286316Y0073799D01*
X0285981Y0074134D01*
X0285570Y0074371D01*
X0285112Y0074494D01*
X0283104Y0074494D01*
X0283104Y0071119D01*
X0283104Y0071119D01*
X0286675Y0071119D01*
X0286675Y0069307D01*
X0286553Y0068849D01*
X0286316Y0068439D01*
X0285981Y0068104D01*
X0285570Y0067867D01*
X0285112Y0067744D01*
X0283104Y0067744D01*
X0283104Y0071119D01*
X0283104Y0071119D01*
X0284049Y0072064D01*
X0283104Y0071319D02*
X0283104Y0071319D01*
X0283104Y0071119D02*
X0283104Y0074494D01*
X0281095Y0074494D01*
X0280637Y0074371D01*
X0280227Y0074134D01*
X0279892Y0073799D01*
X0279655Y0073388D01*
X0279532Y0072931D01*
X0279532Y0071119D01*
X0283104Y0071119D01*
X0283104Y0071119D01*
X0283104Y0067744D01*
X0281095Y0067744D01*
X0280637Y0067867D01*
X0280227Y0068104D01*
X0279892Y0068439D01*
X0279655Y0068849D01*
X0279532Y0069307D01*
X0279532Y0071119D01*
X0283104Y0071119D01*
X0283104Y0071119D01*
X0283104Y0069721D02*
X0283104Y0069721D01*
X0283104Y0068122D02*
X0283104Y0068122D01*
X0285999Y0068122D02*
X0292288Y0068122D01*
X0292288Y0066524D02*
X0285828Y0066524D01*
X0286475Y0064925D02*
X0292288Y0064925D01*
X0292288Y0063327D02*
X0286567Y0063327D01*
X0286567Y0061728D02*
X0292288Y0061728D01*
X0292288Y0060130D02*
X0286567Y0060130D01*
X0286567Y0058531D02*
X0292288Y0058531D01*
X0292288Y0056933D02*
X0286567Y0056933D01*
X0285502Y0055334D02*
X0292288Y0055334D01*
X0292288Y0053736D02*
X0272066Y0053736D01*
X0267907Y0057379D02*
X0284167Y0057379D01*
X0284167Y0063639D01*
X0283104Y0063639D01*
X0279732Y0063327D02*
X0276936Y0063327D01*
X0276473Y0061728D02*
X0279732Y0061728D01*
X0281767Y0060130D02*
X0272066Y0060130D01*
X0276267Y0061509D02*
X0276267Y0061509D01*
X0276464Y0061706D02*
X0276464Y0061706D01*
X0277992Y0064925D02*
X0279732Y0064925D01*
X0280380Y0066524D02*
X0278208Y0066524D01*
X0278208Y0068122D02*
X0280208Y0068122D01*
X0279532Y0069721D02*
X0278103Y0069721D01*
X0279532Y0071319D02*
X0276077Y0071319D01*
X0276267Y0072918D02*
X0279532Y0072918D01*
X0283104Y0072918D02*
X0283104Y0072918D01*
X0286675Y0072918D02*
X0292288Y0072918D01*
X0292288Y0074516D02*
X0276267Y0074516D01*
X0276267Y0076115D02*
X0292288Y0076115D01*
X0292288Y0077713D02*
X0277471Y0077713D01*
X0279070Y0079312D02*
X0292288Y0079312D01*
X0292288Y0080910D02*
X0280668Y0080910D01*
X0281267Y0082509D02*
X0292288Y0082509D01*
X0292288Y0084107D02*
X0281267Y0084107D01*
X0281267Y0085706D02*
X0292288Y0085706D01*
X0292288Y0087304D02*
X0281267Y0087304D01*
X0281267Y0088903D02*
X0292288Y0088903D01*
X0292288Y0090501D02*
X0281267Y0090501D01*
X0281267Y0092100D02*
X0292288Y0092100D01*
X0292288Y0093698D02*
X0280817Y0093698D01*
X0279218Y0095297D02*
X0292288Y0095297D01*
X0292288Y0096895D02*
X0277620Y0096895D01*
X0276021Y0098494D02*
X0292288Y0098494D01*
X0292288Y0100092D02*
X0272263Y0100092D01*
X0271607Y0093698D02*
X0274877Y0093698D01*
X0276476Y0092100D02*
X0262033Y0092100D01*
X0262913Y0090501D02*
X0265420Y0090501D01*
X0264535Y0088903D02*
X0263798Y0088903D01*
X0263798Y0087304D02*
X0264535Y0087304D01*
X0264535Y0085706D02*
X0263798Y0085706D01*
X0265395Y0084107D02*
X0262181Y0084107D01*
X0262341Y0082509D02*
X0265395Y0082509D01*
X0264914Y0080910D02*
X0262401Y0080910D01*
X0259941Y0077713D02*
X0181397Y0077713D01*
X0181397Y0076115D02*
X0256034Y0076115D01*
X0255992Y0074516D02*
X0181397Y0074516D01*
X0181397Y0072918D02*
X0255992Y0072918D01*
X0255992Y0071319D02*
X0181397Y0071319D01*
X0181397Y0069721D02*
X0256267Y0069721D01*
X0256267Y0068122D02*
X0181397Y0068122D01*
X0181397Y0066524D02*
X0256267Y0066524D01*
X0252931Y0064925D02*
X0181397Y0064925D01*
X0181397Y0079312D02*
X0255992Y0079312D01*
X0255992Y0080910D02*
X0181397Y0080910D01*
X0181397Y0082509D02*
X0255992Y0082509D01*
X0256152Y0084107D02*
X0205677Y0084107D01*
X0205567Y0083998D02*
X0207548Y0085978D01*
X0207548Y0088779D01*
X0206267Y0090060D01*
X0206267Y0098249D01*
X0205037Y0099479D01*
X0202037Y0099479D01*
X0201167Y0100349D01*
X0201167Y0107873D01*
X0200329Y0109894D01*
X0198782Y0111441D01*
X0196761Y0112279D01*
X0194573Y0112279D01*
X0192551Y0111441D01*
X0191004Y0109894D01*
X0190167Y0107873D01*
X0190167Y0097885D01*
X0191004Y0095863D01*
X0192551Y0094316D01*
X0194573Y0093479D01*
X0196761Y0093479D01*
X0198782Y0094316D01*
X0200021Y0095555D01*
X0200297Y0095279D01*
X0202067Y0095279D01*
X0202067Y0090060D01*
X0200786Y0088779D01*
X0200786Y0085978D01*
X0202766Y0083998D01*
X0205567Y0083998D01*
X0207275Y0085706D02*
X0217524Y0085706D01*
X0218073Y0085479D02*
X0220261Y0085479D01*
X0222282Y0086316D01*
X0223829Y0087863D01*
X0224667Y0089885D01*
X0224667Y0099873D01*
X0223829Y0101894D01*
X0222282Y0103441D01*
X0220261Y0104279D01*
X0218073Y0104279D01*
X0216051Y0103441D01*
X0214504Y0101894D01*
X0213667Y0099873D01*
X0213667Y0089885D01*
X0214504Y0087863D01*
X0216051Y0086316D01*
X0218073Y0085479D01*
X0220809Y0085706D02*
X0256661Y0085706D01*
X0256661Y0087304D02*
X0223270Y0087304D01*
X0224260Y0088903D02*
X0256661Y0088903D01*
X0256125Y0090501D02*
X0257546Y0090501D01*
X0257724Y0092100D02*
X0258033Y0092100D01*
X0254981Y0095297D02*
X0246763Y0095297D01*
X0247757Y0096895D02*
X0256071Y0096895D01*
X0256071Y0098494D02*
X0248167Y0098494D01*
X0248167Y0100092D02*
X0256071Y0100092D01*
X0263340Y0093698D02*
X0264994Y0093698D01*
X0264338Y0095297D02*
X0263995Y0095297D01*
X0263995Y0096895D02*
X0264338Y0096895D01*
X0264338Y0098494D02*
X0263995Y0098494D01*
X0263995Y0100092D02*
X0264338Y0100092D01*
X0270787Y0090501D02*
X0277067Y0090501D01*
X0277067Y0088903D02*
X0271672Y0088903D01*
X0271672Y0087304D02*
X0277067Y0087304D01*
X0277067Y0085706D02*
X0271672Y0085706D01*
X0269395Y0084107D02*
X0277067Y0084107D01*
X0276327Y0082509D02*
X0269395Y0082509D01*
X0273420Y0080910D02*
X0274728Y0080910D01*
X0286675Y0071319D02*
X0292288Y0071319D01*
X0292288Y0069721D02*
X0286675Y0069721D01*
X0252634Y0060130D02*
X0249810Y0060130D01*
X0248211Y0061728D02*
X0251786Y0061728D01*
X0251786Y0063327D02*
X0246613Y0063327D01*
X0244620Y0058531D02*
X0232548Y0058531D01*
X0232548Y0056933D02*
X0246219Y0056933D01*
X0247831Y0055334D02*
X0231904Y0055334D01*
X0226430Y0055334D02*
X0215502Y0055334D01*
X0217115Y0056933D02*
X0225786Y0056933D01*
X0225786Y0058531D02*
X0218713Y0058531D01*
X0215122Y0061728D02*
X0212766Y0061728D01*
X0216720Y0063327D02*
X0152367Y0063327D01*
X0149167Y0063379D02*
X0149167Y0102379D01*
X0153064Y0106276D01*
X0160190Y0106276D01*
X0163759Y0106486D02*
X0174575Y0106486D01*
X0174575Y0104888D02*
X0163759Y0104888D01*
X0163759Y0103289D02*
X0174575Y0103289D01*
X0174575Y0102464D02*
X0175512Y0101527D01*
X0180774Y0101527D01*
X0181712Y0102464D01*
X0181712Y0110089D01*
X0180991Y0110809D01*
X0184180Y0113998D01*
X0185567Y0113998D01*
X0187548Y0115978D01*
X0187548Y0118779D01*
X0185567Y0120760D01*
X0182766Y0120760D01*
X0180786Y0118779D01*
X0180786Y0117392D01*
X0176784Y0113390D01*
X0176108Y0112715D01*
X0175743Y0111833D01*
X0175743Y0111026D01*
X0175512Y0111026D01*
X0174575Y0110089D01*
X0174575Y0102464D01*
X0175348Y0101691D02*
X0162986Y0101691D01*
X0157395Y0101691D02*
X0151873Y0101691D01*
X0151567Y0100092D02*
X0190167Y0100092D01*
X0190167Y0098494D02*
X0151567Y0098494D01*
X0151567Y0096895D02*
X0190576Y0096895D01*
X0191570Y0095297D02*
X0151567Y0095297D01*
X0151567Y0093698D02*
X0194042Y0093698D01*
X0197291Y0093698D02*
X0202067Y0093698D01*
X0202067Y0092100D02*
X0151567Y0092100D01*
X0151567Y0090501D02*
X0157034Y0090501D01*
X0156937Y0088903D02*
X0151567Y0088903D01*
X0151567Y0087304D02*
X0156937Y0087304D01*
X0156937Y0085706D02*
X0151567Y0085706D01*
X0151567Y0084107D02*
X0156937Y0084107D01*
X0156937Y0082509D02*
X0151567Y0082509D01*
X0151567Y0080910D02*
X0156937Y0080910D01*
X0156937Y0079312D02*
X0151567Y0079312D01*
X0151567Y0077713D02*
X0156937Y0077713D01*
X0156937Y0076115D02*
X0151567Y0076115D01*
X0151567Y0074516D02*
X0156937Y0074516D01*
X0156937Y0072918D02*
X0151567Y0072918D01*
X0151567Y0071319D02*
X0156937Y0071319D01*
X0156937Y0069721D02*
X0156350Y0069721D01*
X0151983Y0069721D02*
X0151567Y0069721D01*
X0156239Y0064925D02*
X0156937Y0064925D01*
X0152597Y0055334D02*
X0144605Y0055334D01*
X0145167Y0051379D02*
X0120190Y0076355D01*
X0091067Y0076355D01*
X0091067Y0079505D02*
X0121293Y0079505D01*
X0124167Y0082379D01*
X0114167Y0087379D02*
X0098167Y0087379D01*
X0096667Y0088879D01*
X0091141Y0088879D01*
X0091067Y0088954D01*
X0091067Y0092103D02*
X0091342Y0092379D01*
X0099167Y0092379D01*
X0104167Y0097379D01*
X0104167Y0117379D01*
X0099167Y0122379D01*
X0099167Y0142379D01*
X0101750Y0138457D02*
X0106583Y0138457D01*
X0105252Y0136858D02*
X0101567Y0136858D01*
X0101567Y0135260D02*
X0103653Y0135260D01*
X0102100Y0133661D02*
X0101567Y0133661D01*
X0101567Y0132063D02*
X0101767Y0132063D01*
X0101767Y0130464D02*
X0101567Y0130464D01*
X0104167Y0132379D02*
X0104167Y0127379D01*
X0107548Y0127267D02*
X0114367Y0127267D01*
X0114367Y0126424D02*
X0114367Y0128334D01*
X0115097Y0130098D01*
X0116448Y0131448D01*
X0118212Y0132179D01*
X0120121Y0132179D01*
X0121886Y0131448D01*
X0123236Y0130098D01*
X0123967Y0128334D01*
X0123967Y0126424D01*
X0123236Y0124660D01*
X0121886Y0123309D01*
X0120121Y0122579D01*
X0118212Y0122579D01*
X0116448Y0123309D01*
X0115097Y0124660D01*
X0114367Y0126424D01*
X0114680Y0125669D02*
X0110658Y0125669D01*
X0110567Y0125760D02*
X0107766Y0125760D01*
X0105786Y0123779D01*
X0105786Y0120978D01*
X0107766Y0118998D01*
X0110567Y0118998D01*
X0112548Y0120978D01*
X0112548Y0123779D01*
X0110567Y0125760D01*
X0112257Y0124070D02*
X0115687Y0124070D01*
X0115873Y0120873D02*
X0112443Y0120873D01*
X0112548Y0122472D02*
X0138187Y0122472D01*
X0137996Y0122502D02*
X0138773Y0122379D01*
X0139081Y0122379D01*
X0139081Y0127293D01*
X0139252Y0127293D01*
X0139252Y0122379D01*
X0139560Y0122379D01*
X0140337Y0122502D01*
X0141086Y0122745D01*
X0141787Y0123102D01*
X0142424Y0123565D01*
X0142980Y0124121D01*
X0143443Y0124758D01*
X0143800Y0125459D01*
X0144044Y0126208D01*
X0144167Y0126985D01*
X0144167Y0127293D01*
X0139253Y0127293D01*
X0139253Y0127465D01*
X0144167Y0127465D01*
X0144167Y0127772D01*
X0144044Y0128550D01*
X0143800Y0129298D01*
X0143443Y0129999D01*
X0142980Y0130636D01*
X0142424Y0131193D01*
X0141787Y0131655D01*
X0141086Y0132012D01*
X0140337Y0132256D01*
X0139560Y0132379D01*
X0139252Y0132379D01*
X0139252Y0127465D01*
X0139081Y0127465D01*
X0139081Y0132379D01*
X0138773Y0132379D01*
X0137996Y0132256D01*
X0137247Y0132012D01*
X0136546Y0131655D01*
X0135909Y0131193D01*
X0135353Y0130636D01*
X0134890Y0129999D01*
X0134533Y0129298D01*
X0134290Y0128550D01*
X0134167Y0127772D01*
X0134167Y0127465D01*
X0139081Y0127465D01*
X0139081Y0127293D01*
X0134167Y0127293D01*
X0134167Y0126985D01*
X0134290Y0126208D01*
X0134533Y0125459D01*
X0134890Y0124758D01*
X0135353Y0124121D01*
X0135909Y0123565D01*
X0136546Y0123102D01*
X0137247Y0122745D01*
X0137996Y0122502D01*
X0139081Y0122472D02*
X0139252Y0122472D01*
X0140146Y0122472D02*
X0147286Y0122472D01*
X0147576Y0124070D02*
X0142929Y0124070D01*
X0143868Y0125669D02*
X0149175Y0125669D01*
X0151767Y0127267D02*
X0144167Y0127267D01*
X0143941Y0128866D02*
X0151767Y0128866D01*
X0151767Y0130464D02*
X0143105Y0130464D01*
X0140931Y0132063D02*
X0151767Y0132063D01*
X0151767Y0133661D02*
X0128778Y0133661D01*
X0127548Y0134892D02*
X0127548Y0136279D01*
X0125567Y0138260D01*
X0122766Y0138260D01*
X0120786Y0136279D01*
X0120786Y0133478D01*
X0122766Y0131498D01*
X0124154Y0131498D01*
X0125326Y0130326D01*
X0125097Y0130098D01*
X0124367Y0128334D01*
X0124367Y0126424D01*
X0125097Y0124660D01*
X0126448Y0123309D01*
X0128212Y0122579D01*
X0130121Y0122579D01*
X0131886Y0123309D01*
X0133236Y0124660D01*
X0133967Y0126424D01*
X0133967Y0128334D01*
X0133236Y0130098D01*
X0131886Y0131448D01*
X0130359Y0132080D01*
X0127548Y0134892D01*
X0127548Y0135260D02*
X0151767Y0135260D01*
X0151767Y0136858D02*
X0126969Y0136858D01*
X0127261Y0137779D02*
X0131072Y0137779D01*
X0133767Y0140473D01*
X0133767Y0144284D01*
X0131072Y0146979D01*
X0127261Y0146979D01*
X0124567Y0144284D01*
X0124567Y0140473D01*
X0127261Y0137779D01*
X0126583Y0138457D02*
X0121750Y0138457D01*
X0121072Y0137779D02*
X0123767Y0140473D01*
X0123767Y0144284D01*
X0121567Y0146484D01*
X0121567Y0150856D01*
X0121201Y0151738D01*
X0120548Y0152392D01*
X0120548Y0153779D01*
X0118567Y0155760D01*
X0115766Y0155760D01*
X0113786Y0153779D01*
X0113786Y0150978D01*
X0115766Y0148998D01*
X0116767Y0148998D01*
X0116767Y0146484D01*
X0114567Y0144284D01*
X0114567Y0140473D01*
X0117261Y0137779D01*
X0121072Y0137779D01*
X0121364Y0136858D02*
X0111549Y0136858D01*
X0111750Y0138457D02*
X0116583Y0138457D01*
X0114985Y0140055D02*
X0113348Y0140055D01*
X0113767Y0141654D02*
X0114567Y0141654D01*
X0114567Y0143252D02*
X0113767Y0143252D01*
X0113200Y0144851D02*
X0115133Y0144851D01*
X0116732Y0146449D02*
X0111602Y0146449D01*
X0109167Y0142379D02*
X0109167Y0137379D01*
X0104167Y0132379D01*
X0106567Y0130464D02*
X0115464Y0130464D01*
X0114587Y0128866D02*
X0107461Y0128866D01*
X0107245Y0132063D02*
X0117932Y0132063D01*
X0120402Y0132063D02*
X0122201Y0132063D01*
X0122869Y0130464D02*
X0125187Y0130464D01*
X0124587Y0128866D02*
X0123746Y0128866D01*
X0123967Y0127267D02*
X0124367Y0127267D01*
X0124680Y0125669D02*
X0123654Y0125669D01*
X0122646Y0124070D02*
X0125687Y0124070D01*
X0125873Y0120873D02*
X0122461Y0120873D01*
X0123577Y0119275D02*
X0124756Y0119275D01*
X0124367Y0117676D02*
X0123967Y0117676D01*
X0123823Y0116078D02*
X0124510Y0116078D01*
X0125278Y0114479D02*
X0123055Y0114479D01*
X0120850Y0112880D02*
X0126274Y0112880D01*
X0124676Y0111282D02*
X0111567Y0111282D01*
X0111644Y0109683D02*
X0123077Y0109683D01*
X0121479Y0108085D02*
X0112548Y0108085D01*
X0112548Y0106486D02*
X0119880Y0106486D01*
X0118282Y0104888D02*
X0111457Y0104888D01*
X0109167Y0107379D02*
X0109167Y0112379D01*
X0114167Y0117379D01*
X0119167Y0117379D01*
X0117483Y0112880D02*
X0113062Y0112880D01*
X0114661Y0114479D02*
X0115278Y0114479D01*
X0111070Y0117676D02*
X0106567Y0117676D01*
X0106567Y0116078D02*
X0109471Y0116078D01*
X0107873Y0114479D02*
X0106567Y0114479D01*
X0106567Y0112880D02*
X0106777Y0112880D01*
X0106767Y0111282D02*
X0106567Y0111282D01*
X0106567Y0109683D02*
X0106690Y0109683D01*
X0106567Y0104888D02*
X0106876Y0104888D01*
X0106567Y0103289D02*
X0116683Y0103289D01*
X0115085Y0101691D02*
X0106567Y0101691D01*
X0106567Y0100092D02*
X0112099Y0100092D01*
X0110786Y0098494D02*
X0106567Y0098494D01*
X0106564Y0096895D02*
X0110786Y0096895D01*
X0111467Y0095297D02*
X0105479Y0095297D01*
X0103880Y0093698D02*
X0117092Y0093698D01*
X0116866Y0095297D02*
X0118691Y0095297D01*
X0117548Y0096895D02*
X0120289Y0096895D01*
X0121888Y0098494D02*
X0118676Y0098494D01*
X0120274Y0100092D02*
X0123486Y0100092D01*
X0125085Y0101691D02*
X0121873Y0101691D01*
X0123471Y0103289D02*
X0126683Y0103289D01*
X0126767Y0104888D02*
X0125070Y0104888D01*
X0126668Y0106486D02*
X0126767Y0106486D01*
X0129167Y0107379D02*
X0129167Y0102379D01*
X0114167Y0087379D01*
X0113895Y0090501D02*
X0100683Y0090501D01*
X0102282Y0092100D02*
X0115494Y0092100D01*
X0114167Y0097379D02*
X0129167Y0112379D01*
X0129167Y0117379D01*
X0132461Y0120873D02*
X0135873Y0120873D01*
X0134756Y0119275D02*
X0133577Y0119275D01*
X0133967Y0117676D02*
X0134367Y0117676D01*
X0134471Y0116078D02*
X0133823Y0116078D01*
X0139167Y0117379D02*
X0129167Y0107379D01*
X0134167Y0097379D02*
X0134167Y0072379D01*
X0139167Y0067379D01*
X0144167Y0067379D01*
X0146350Y0069721D02*
X0146767Y0069721D01*
X0146767Y0071319D02*
X0138620Y0071319D01*
X0137022Y0072918D02*
X0146767Y0072918D01*
X0146767Y0074516D02*
X0136567Y0074516D01*
X0136567Y0076115D02*
X0146767Y0076115D01*
X0146767Y0077713D02*
X0136567Y0077713D01*
X0136567Y0079312D02*
X0146767Y0079312D01*
X0146767Y0080910D02*
X0136567Y0080910D01*
X0136567Y0082509D02*
X0146767Y0082509D01*
X0146767Y0084107D02*
X0136567Y0084107D01*
X0136567Y0085706D02*
X0146767Y0085706D01*
X0146767Y0087304D02*
X0136567Y0087304D01*
X0136567Y0088903D02*
X0146767Y0088903D01*
X0146767Y0090501D02*
X0136567Y0090501D01*
X0136567Y0092100D02*
X0146767Y0092100D01*
X0146767Y0093698D02*
X0136567Y0093698D01*
X0136567Y0095297D02*
X0146767Y0095297D01*
X0146767Y0096895D02*
X0137077Y0096895D01*
X0138676Y0098494D02*
X0146767Y0098494D01*
X0146767Y0100092D02*
X0140274Y0100092D01*
X0141873Y0101691D02*
X0146767Y0101691D01*
X0146946Y0103289D02*
X0143471Y0103289D01*
X0145070Y0104888D02*
X0148282Y0104888D01*
X0149880Y0106486D02*
X0146668Y0106486D01*
X0148267Y0108085D02*
X0151479Y0108085D01*
X0149865Y0109683D02*
X0156622Y0109683D01*
X0151464Y0111282D02*
X0175743Y0111282D01*
X0176274Y0112880D02*
X0153063Y0112880D01*
X0154661Y0114479D02*
X0177873Y0114479D01*
X0179471Y0116078D02*
X0156225Y0116078D01*
X0156567Y0117676D02*
X0180786Y0117676D01*
X0181281Y0119275D02*
X0156567Y0119275D01*
X0156567Y0120873D02*
X0267817Y0120873D01*
X0267817Y0122335D02*
X0267817Y0111966D01*
X0268754Y0111029D01*
X0279579Y0111029D01*
X0280517Y0111966D01*
X0280517Y0122791D01*
X0279579Y0123729D01*
X0273211Y0123729D01*
X0248167Y0148773D01*
X0248167Y0155873D01*
X0247329Y0157894D01*
X0245782Y0159441D01*
X0243761Y0160279D01*
X0241573Y0160279D01*
X0239551Y0159441D01*
X0238004Y0157894D01*
X0237167Y0155873D01*
X0237167Y0145885D01*
X0238004Y0143863D01*
X0239551Y0142316D01*
X0241573Y0141479D01*
X0243761Y0141479D01*
X0245782Y0142316D01*
X0246809Y0143343D01*
X0267817Y0122335D01*
X0267680Y0122472D02*
X0156567Y0122472D01*
X0156567Y0124070D02*
X0266081Y0124070D01*
X0264483Y0125669D02*
X0156567Y0125669D01*
X0156567Y0127267D02*
X0262884Y0127267D01*
X0261286Y0128866D02*
X0156567Y0128866D01*
X0156567Y0130464D02*
X0259687Y0130464D01*
X0258089Y0132063D02*
X0156567Y0132063D01*
X0156567Y0133661D02*
X0256490Y0133661D01*
X0254892Y0135260D02*
X0156567Y0135260D01*
X0156567Y0136858D02*
X0253293Y0136858D01*
X0251695Y0138457D02*
X0156567Y0138457D01*
X0156567Y0140055D02*
X0250096Y0140055D01*
X0248498Y0141654D02*
X0244183Y0141654D01*
X0246718Y0143252D02*
X0246899Y0143252D01*
X0250490Y0146449D02*
X0261387Y0146449D01*
X0262986Y0144851D02*
X0252089Y0144851D01*
X0253687Y0143252D02*
X0264584Y0143252D01*
X0266183Y0141654D02*
X0255286Y0141654D01*
X0256884Y0140055D02*
X0267781Y0140055D01*
X0268312Y0139524D02*
X0267817Y0138327D01*
X0267817Y0135801D01*
X0268783Y0133467D01*
X0270570Y0131681D01*
X0272904Y0130714D01*
X0275430Y0130714D01*
X0277764Y0131681D01*
X0279550Y0133467D01*
X0280517Y0135801D01*
X0280517Y0138327D01*
X0279550Y0140661D01*
X0277764Y0142447D01*
X0275430Y0143414D01*
X0272904Y0143414D01*
X0271707Y0142918D01*
X0245886Y0168738D01*
X0245211Y0169413D01*
X0244329Y0169779D01*
X0223689Y0169779D01*
X0222807Y0169413D01*
X0206673Y0153279D01*
X0201167Y0153279D01*
X0201167Y0155873D01*
X0200329Y0157894D01*
X0198782Y0159441D01*
X0196761Y0160279D01*
X0194573Y0160279D01*
X0192551Y0159441D01*
X0191004Y0157894D01*
X0190167Y0155873D01*
X0190167Y0145885D01*
X0191004Y0143863D01*
X0192551Y0142316D01*
X0194573Y0141479D01*
X0196761Y0141479D01*
X0198782Y0142316D01*
X0200329Y0143863D01*
X0201167Y0145885D01*
X0201167Y0148479D01*
X0208144Y0148479D01*
X0209026Y0148844D01*
X0209701Y0149519D01*
X0225161Y0164979D01*
X0242858Y0164979D01*
X0268312Y0139524D01*
X0267870Y0138457D02*
X0258483Y0138457D01*
X0260081Y0136858D02*
X0267817Y0136858D01*
X0268041Y0135260D02*
X0261680Y0135260D01*
X0263278Y0133661D02*
X0268703Y0133661D01*
X0270188Y0132063D02*
X0264877Y0132063D01*
X0266475Y0130464D02*
X0292288Y0130464D01*
X0292288Y0128866D02*
X0268074Y0128866D01*
X0269672Y0127267D02*
X0292288Y0127267D01*
X0292288Y0125669D02*
X0271271Y0125669D01*
X0272869Y0124070D02*
X0292288Y0124070D01*
X0292288Y0122472D02*
X0280517Y0122472D01*
X0280517Y0120873D02*
X0292288Y0120873D01*
X0292288Y0119275D02*
X0280517Y0119275D01*
X0280517Y0117676D02*
X0292288Y0117676D01*
X0292288Y0116078D02*
X0280517Y0116078D01*
X0280517Y0114479D02*
X0292288Y0114479D01*
X0292288Y0112880D02*
X0280517Y0112880D01*
X0279833Y0111282D02*
X0292288Y0111282D01*
X0292288Y0109683D02*
X0247417Y0109683D01*
X0248079Y0108085D02*
X0292288Y0108085D01*
X0292288Y0106486D02*
X0248167Y0106486D01*
X0248167Y0104888D02*
X0292288Y0104888D01*
X0292288Y0103289D02*
X0248167Y0103289D01*
X0248167Y0101691D02*
X0292288Y0101691D01*
X0274167Y0117379D02*
X0274167Y0119379D01*
X0242667Y0150879D01*
X0237167Y0151245D02*
X0211427Y0151245D01*
X0213025Y0152843D02*
X0237167Y0152843D01*
X0237167Y0154442D02*
X0214624Y0154442D01*
X0216222Y0156040D02*
X0237236Y0156040D01*
X0237898Y0157639D02*
X0217821Y0157639D01*
X0219419Y0159237D02*
X0239347Y0159237D01*
X0243803Y0164033D02*
X0224215Y0164033D01*
X0222616Y0162434D02*
X0245402Y0162434D01*
X0247000Y0160836D02*
X0221018Y0160836D01*
X0217427Y0164033D02*
X0109215Y0164033D01*
X0110813Y0165631D02*
X0219025Y0165631D01*
X0220624Y0167230D02*
X0111567Y0167230D01*
X0111567Y0166901D02*
X0111567Y0181385D01*
X0116201Y0186019D01*
X0116217Y0186057D01*
X0116217Y0185618D01*
X0120687Y0185618D01*
X0120687Y0184659D01*
X0116217Y0184659D01*
X0116217Y0182343D01*
X0116340Y0181885D01*
X0116577Y0181474D01*
X0116912Y0181139D01*
X0117322Y0180902D01*
X0117780Y0180780D01*
X0120687Y0180780D01*
X0120687Y0184659D01*
X0121646Y0184659D01*
X0121646Y0180780D01*
X0124553Y0180780D01*
X0125011Y0180902D01*
X0125421Y0181139D01*
X0125757Y0181474D01*
X0125994Y0181885D01*
X0126116Y0182343D01*
X0126116Y0184659D01*
X0121646Y0184659D01*
X0121646Y0185618D01*
X0126116Y0185618D01*
X0126116Y0186275D01*
X0129063Y0183329D01*
X0129063Y0180436D01*
X0130000Y0179499D01*
X0138333Y0179499D01*
X0139167Y0180333D01*
X0140000Y0179499D01*
X0148333Y0179499D01*
X0149078Y0180244D01*
X0149222Y0179994D01*
X0149557Y0179659D01*
X0149968Y0179422D01*
X0150426Y0179299D01*
X0153471Y0179299D01*
X0153471Y0183395D01*
X0154863Y0183395D01*
X0154863Y0184787D01*
X0159471Y0184787D01*
X0159471Y0187320D01*
X0159348Y0187778D01*
X0159111Y0188189D01*
X0158776Y0188524D01*
X0158365Y0188761D01*
X0157908Y0188883D01*
X0154863Y0188883D01*
X0154863Y0184787D01*
X0153471Y0184787D01*
X0153471Y0188883D01*
X0150426Y0188883D01*
X0149968Y0188761D01*
X0149557Y0188524D01*
X0149222Y0188189D01*
X0149078Y0187939D01*
X0148333Y0188683D01*
X0146267Y0188683D01*
X0146267Y0191509D01*
X0163537Y0208779D01*
X0163741Y0208779D01*
X0164841Y0207679D01*
X0167492Y0207679D01*
X0169367Y0209553D01*
X0169367Y0212204D01*
X0167492Y0214079D01*
X0164841Y0214079D01*
X0163741Y0212979D01*
X0161797Y0212979D01*
X0142067Y0193249D01*
X0142067Y0188683D01*
X0140000Y0188683D01*
X0139167Y0187850D01*
X0138333Y0188683D01*
X0130496Y0188683D01*
X0126567Y0192613D01*
X0126567Y0192856D01*
X0126201Y0193738D01*
X0125916Y0194023D01*
X0125916Y0195841D01*
X0124979Y0196778D01*
X0117354Y0196778D01*
X0116567Y0195990D01*
X0116567Y0204280D01*
X0118687Y0204280D01*
X0118687Y0208159D01*
X0119646Y0208159D01*
X0119646Y0204280D01*
X0122553Y0204280D01*
X0123011Y0204402D01*
X0123421Y0204639D01*
X0123757Y0204974D01*
X0123994Y0205385D01*
X0124116Y0205843D01*
X0124116Y0208159D01*
X0119646Y0208159D01*
X0119646Y0209118D01*
X0124116Y0209118D01*
X0124116Y0211435D01*
X0123994Y0211892D01*
X0123757Y0212303D01*
X0123539Y0212520D01*
X0123916Y0212897D01*
X0123916Y0214019D01*
X0140489Y0214019D01*
X0142544Y0216074D01*
X0148333Y0216074D01*
X0149167Y0216907D01*
X0150000Y0216074D01*
X0158333Y0216074D01*
X0159271Y0217011D01*
X0159271Y0224321D01*
X0158333Y0225258D01*
X0156572Y0225258D01*
X0157367Y0226053D01*
X0157367Y0228704D01*
X0155492Y0230579D01*
X0152841Y0230579D01*
X0150967Y0228704D01*
X0150967Y0226053D01*
X0151762Y0225258D01*
X0150000Y0225258D01*
X0149167Y0224425D01*
X0148333Y0225258D01*
X0140000Y0225258D01*
X0139167Y0224425D01*
X0138333Y0225258D01*
X0130000Y0225258D01*
X0129063Y0224321D01*
X0129063Y0218219D01*
X0123916Y0218219D01*
X0123916Y0219341D01*
X0122979Y0220278D01*
X0116567Y0220278D01*
X0116567Y0227856D01*
X0116201Y0228738D01*
X0115526Y0229413D01*
X0115319Y0229499D01*
X0123333Y0229499D01*
X0124167Y0230333D01*
X0125000Y0229499D01*
X0130967Y0229499D01*
X0130967Y0227553D01*
X0132841Y0225679D01*
X0135492Y0225679D01*
X0137367Y0227553D01*
X0137367Y0229299D01*
X0138471Y0229299D01*
X0138471Y0233395D01*
X0139863Y0233395D01*
X0139863Y0234787D01*
X0144471Y0234787D01*
X0144471Y0237320D01*
X0144348Y0237778D01*
X0144111Y0238189D01*
X0143776Y0238524D01*
X0143365Y0238761D01*
X0142908Y0238883D01*
X0139863Y0238883D01*
X0139863Y0234787D01*
X0138471Y0234787D01*
X0138471Y0238883D01*
X0135426Y0238883D01*
X0134968Y0238761D01*
X0134557Y0238524D01*
X0134222Y0238189D01*
X0134078Y0237939D01*
X0133333Y0238683D01*
X0125000Y0238683D01*
X0124167Y0237850D01*
X0123333Y0238683D01*
X0115000Y0238683D01*
X0114063Y0237746D01*
X0114063Y0236191D01*
X0110097Y0236191D01*
X0110097Y0241073D01*
X0109720Y0241450D01*
X0109938Y0241667D01*
X0110175Y0242078D01*
X0110297Y0242535D01*
X0110297Y0244852D01*
X0105827Y0244852D01*
X0105827Y0245811D01*
X0104868Y0245811D01*
X0104868Y0244852D01*
X0102518Y0244852D01*
X0101610Y0245760D01*
X0099180Y0245760D01*
X0095754Y0249185D01*
X0097548Y0250978D01*
X0097548Y0253779D01*
X0095567Y0255760D01*
X0092920Y0255760D01*
X0092066Y0256614D01*
X0092066Y0261191D01*
X0091129Y0262128D01*
X0084685Y0262128D01*
X0084167Y0261610D01*
X0083648Y0262128D01*
X0077205Y0262128D01*
X0076371Y0261295D01*
X0076325Y0261341D01*
X0070276Y0261341D01*
X0069338Y0260404D01*
X0069338Y0254354D01*
X0070276Y0253417D01*
X0076325Y0253417D01*
X0076371Y0253462D01*
X0077205Y0252629D01*
X0083648Y0252629D01*
X0084167Y0253148D01*
X0084685Y0252629D01*
X0089262Y0252629D01*
X0089763Y0252128D01*
X0084685Y0252128D01*
X0084167Y0251610D01*
X0083648Y0252128D01*
X0077205Y0252128D01*
X0076371Y0251295D01*
X0076325Y0251341D01*
X0070276Y0251341D01*
X0069338Y0250404D01*
X0069338Y0244354D01*
X0070276Y0243417D01*
X0076325Y0243417D01*
X0076371Y0243462D01*
X0077205Y0242629D01*
X0083648Y0242629D01*
X0084167Y0243148D01*
X0084685Y0242629D01*
X0091129Y0242629D01*
X0092066Y0243566D01*
X0092066Y0244979D01*
X0093173Y0244979D01*
X0095786Y0242366D01*
X0095786Y0239935D01*
X0096723Y0238998D01*
X0100598Y0238998D01*
X0100598Y0234629D01*
X0101535Y0233692D01*
X0102519Y0233692D01*
X0102519Y0233221D01*
X0103750Y0231991D01*
X0114063Y0231991D01*
X0114063Y0230436D01*
X0114775Y0229725D01*
X0114644Y0229779D01*
X0106548Y0229779D01*
X0102972Y0232769D02*
X0005967Y0232769D01*
X0005967Y0234367D02*
X0047323Y0234367D01*
X0047317Y0234392D02*
X0047439Y0233934D01*
X0047676Y0233524D01*
X0048011Y0233188D01*
X0048422Y0232951D01*
X0048880Y0232829D01*
X0052692Y0232829D01*
X0052692Y0236804D01*
X0047317Y0236804D01*
X0047317Y0234392D01*
X0047317Y0235966D02*
X0005967Y0235966D01*
X0005967Y0237564D02*
X0026258Y0237564D01*
X0026439Y0237523D02*
X0027367Y0237419D01*
X0027367Y0246894D01*
X0028967Y0246894D01*
X0028967Y0248494D01*
X0038442Y0248494D01*
X0038337Y0249422D01*
X0038080Y0250550D01*
X0037698Y0251642D01*
X0037196Y0252684D01*
X0036580Y0253663D01*
X0035859Y0254568D01*
X0035041Y0255386D01*
X0034136Y0256107D01*
X0033157Y0256723D01*
X0032115Y0257225D01*
X0031023Y0257607D01*
X0029895Y0257864D01*
X0028967Y0257969D01*
X0028967Y0248494D01*
X0027367Y0248494D01*
X0027367Y0257969D01*
X0026439Y0257864D01*
X0025311Y0257607D01*
X0024219Y0257225D01*
X0023177Y0256723D01*
X0022197Y0256107D01*
X0021292Y0255386D01*
X0020474Y0254568D01*
X0019753Y0253663D01*
X0019138Y0252684D01*
X0018636Y0251642D01*
X0018254Y0250550D01*
X0017996Y0249422D01*
X0017892Y0248494D01*
X0027367Y0248494D01*
X0027367Y0246894D01*
X0017892Y0246894D01*
X0017996Y0245966D01*
X0018254Y0244838D01*
X0018636Y0243746D01*
X0019138Y0242704D01*
X0019753Y0241724D01*
X0020474Y0240820D01*
X0021292Y0240001D01*
X0022197Y0239280D01*
X0023177Y0238665D01*
X0024219Y0238163D01*
X0025311Y0237781D01*
X0026439Y0237523D01*
X0027367Y0237564D02*
X0028967Y0237564D01*
X0028967Y0237419D02*
X0029895Y0237523D01*
X0031023Y0237781D01*
X0032115Y0238163D01*
X0033157Y0238665D01*
X0034136Y0239280D01*
X0035041Y0240001D01*
X0035859Y0240820D01*
X0036580Y0241724D01*
X0037196Y0242704D01*
X0037698Y0243746D01*
X0038080Y0244838D01*
X0038337Y0245966D01*
X0038442Y0246894D01*
X0028967Y0246894D01*
X0028967Y0237419D01*
X0030075Y0237564D02*
X0052692Y0237564D01*
X0052692Y0237954D02*
X0052692Y0236804D01*
X0053842Y0236804D01*
X0053842Y0237954D01*
X0059217Y0237954D01*
X0059217Y0240366D01*
X0059094Y0240824D01*
X0058857Y0241234D01*
X0058522Y0241569D01*
X0058111Y0241806D01*
X0057654Y0241929D01*
X0053842Y0241929D01*
X0053842Y0237954D01*
X0052692Y0237954D01*
X0052692Y0241929D01*
X0048880Y0241929D01*
X0048422Y0241806D01*
X0048011Y0241569D01*
X0047676Y0241234D01*
X0047439Y0240824D01*
X0047317Y0240366D01*
X0047317Y0237954D01*
X0052692Y0237954D01*
X0053267Y0237379D02*
X0053267Y0253279D01*
X0049167Y0257379D01*
X0047471Y0256747D02*
X0045871Y0256747D01*
X0045871Y0258345D02*
X0047471Y0258345D01*
X0047471Y0258705D02*
X0047471Y0249230D01*
X0048399Y0249334D01*
X0049526Y0249592D01*
X0050618Y0249974D01*
X0051661Y0250476D01*
X0052640Y0251091D01*
X0053545Y0251812D01*
X0054363Y0252631D01*
X0055084Y0253535D01*
X0055700Y0254515D01*
X0056202Y0255557D01*
X0056584Y0256649D01*
X0056841Y0257777D01*
X0056946Y0258705D01*
X0047471Y0258705D01*
X0047471Y0260305D01*
X0056946Y0260305D01*
X0056841Y0261233D01*
X0056584Y0262361D01*
X0056202Y0263453D01*
X0055700Y0264495D01*
X0055084Y0265474D01*
X0054363Y0266379D01*
X0053545Y0267197D01*
X0052640Y0267918D01*
X0051661Y0268534D01*
X0050618Y0269036D01*
X0049526Y0269418D01*
X0048399Y0269675D01*
X0047471Y0269780D01*
X0047471Y0260305D01*
X0045871Y0260305D01*
X0045871Y0269780D01*
X0044943Y0269675D01*
X0043815Y0269418D01*
X0042723Y0269036D01*
X0041680Y0268534D01*
X0040701Y0267918D01*
X0039796Y0267197D01*
X0038978Y0266379D01*
X0038257Y0265474D01*
X0037642Y0264495D01*
X0037140Y0263453D01*
X0036758Y0262361D01*
X0036500Y0261233D01*
X0036396Y0260305D01*
X0045871Y0260305D01*
X0045871Y0258705D01*
X0047471Y0258705D01*
X0047471Y0259944D02*
X0060871Y0259944D01*
X0060871Y0259978D02*
X0060871Y0257760D01*
X0064652Y0257760D01*
X0064652Y0261541D01*
X0062434Y0261541D01*
X0061976Y0261418D01*
X0061565Y0261181D01*
X0061230Y0260846D01*
X0060993Y0260436D01*
X0060871Y0259978D01*
X0060871Y0258345D02*
X0056905Y0258345D01*
X0056606Y0256747D02*
X0060871Y0256747D01*
X0060871Y0256998D02*
X0060871Y0254780D01*
X0060993Y0254322D01*
X0061230Y0253911D01*
X0061565Y0253576D01*
X0061976Y0253339D01*
X0062434Y0253217D01*
X0064652Y0253217D01*
X0064652Y0256998D01*
X0060871Y0256998D01*
X0060871Y0255148D02*
X0056005Y0255148D01*
X0055093Y0253549D02*
X0061612Y0253549D01*
X0061976Y0251418D02*
X0061565Y0251181D01*
X0061230Y0250846D01*
X0060993Y0250436D01*
X0060871Y0249978D01*
X0060871Y0247760D01*
X0064652Y0247760D01*
X0064652Y0251541D01*
X0062434Y0251541D01*
X0061976Y0251418D01*
X0060971Y0250352D02*
X0051405Y0250352D01*
X0053683Y0251951D02*
X0077027Y0251951D01*
X0083826Y0251951D02*
X0084508Y0251951D01*
X0087907Y0247379D02*
X0094167Y0247379D01*
X0099167Y0242379D01*
X0095786Y0242360D02*
X0036980Y0242360D01*
X0037772Y0243958D02*
X0061203Y0243958D01*
X0061230Y0243911D02*
X0061565Y0243576D01*
X0061976Y0243339D01*
X0062434Y0243217D01*
X0064652Y0243217D01*
X0064652Y0246998D01*
X0060871Y0246998D01*
X0060871Y0244780D01*
X0060993Y0244322D01*
X0061230Y0243911D01*
X0060871Y0245557D02*
X0038244Y0245557D01*
X0038412Y0248754D02*
X0060871Y0248754D01*
X0064652Y0248754D02*
X0065414Y0248754D01*
X0065414Y0247760D02*
X0064652Y0247760D01*
X0064652Y0246998D01*
X0065414Y0246998D01*
X0065414Y0247760D01*
X0065414Y0251541D01*
X0067632Y0251541D01*
X0068090Y0251418D01*
X0068500Y0251181D01*
X0068835Y0250846D01*
X0069072Y0250436D01*
X0069195Y0249978D01*
X0069195Y0247760D01*
X0065414Y0247760D01*
X0065033Y0247379D02*
X0065033Y0257379D01*
X0064167Y0258245D01*
X0064167Y0262379D01*
X0069167Y0267379D01*
X0089167Y0267379D01*
X0097907Y0258639D01*
X0104167Y0258639D01*
X0104646Y0258345D02*
X0115231Y0258345D01*
X0116829Y0256747D02*
X0109116Y0256747D01*
X0109116Y0255843D02*
X0109116Y0258159D01*
X0104646Y0258159D01*
X0104646Y0254280D01*
X0107553Y0254280D01*
X0108011Y0254402D01*
X0108421Y0254639D01*
X0108757Y0254974D01*
X0108994Y0255385D01*
X0109116Y0255843D01*
X0108857Y0255148D02*
X0152410Y0255148D01*
X0152841Y0255579D02*
X0150967Y0253704D01*
X0150967Y0251053D01*
X0151242Y0250778D01*
X0147854Y0250778D01*
X0146917Y0249841D01*
X0146917Y0243397D01*
X0147435Y0242879D01*
X0146917Y0242360D01*
X0110250Y0242360D01*
X0110297Y0243958D02*
X0146917Y0243958D01*
X0146917Y0242360D02*
X0146917Y0235917D01*
X0147854Y0234980D01*
X0155479Y0234980D01*
X0156260Y0235760D01*
X0157841Y0234179D01*
X0160492Y0234179D01*
X0162367Y0236053D01*
X0162367Y0238704D01*
X0160492Y0240579D01*
X0158937Y0240579D01*
X0158277Y0241239D01*
X0156416Y0241239D01*
X0156416Y0242360D01*
X0160913Y0242360D01*
X0160915Y0242353D02*
X0161151Y0241943D01*
X0161487Y0241608D01*
X0161897Y0241371D01*
X0162355Y0241248D01*
X0164167Y0241248D01*
X0165978Y0241248D01*
X0166436Y0241371D01*
X0166847Y0241608D01*
X0167067Y0241828D01*
X0167067Y0239804D01*
X0165967Y0238704D01*
X0165967Y0236053D01*
X0167841Y0234179D01*
X0170150Y0234179D01*
X0169806Y0233835D01*
X0169023Y0231945D01*
X0169023Y0222812D01*
X0169806Y0220922D01*
X0171253Y0219475D01*
X0172067Y0219138D01*
X0172067Y0218749D01*
X0173297Y0217519D01*
X0175917Y0214899D01*
X0175917Y0209897D01*
X0176294Y0209520D01*
X0176077Y0209303D01*
X0175840Y0208892D01*
X0175717Y0208435D01*
X0175717Y0206118D01*
X0180187Y0206118D01*
X0180187Y0205159D01*
X0175717Y0205159D01*
X0175717Y0202843D01*
X0175840Y0202385D01*
X0176077Y0201974D01*
X0176412Y0201639D01*
X0176822Y0201402D01*
X0177280Y0201280D01*
X0180187Y0201280D01*
X0180187Y0205159D01*
X0181146Y0205159D01*
X0181146Y0201280D01*
X0184053Y0201280D01*
X0184511Y0201402D01*
X0184921Y0201639D01*
X0185257Y0201974D01*
X0185494Y0202385D01*
X0185616Y0202843D01*
X0185616Y0205159D01*
X0181146Y0205159D01*
X0181146Y0206118D01*
X0185616Y0206118D01*
X0185616Y0208435D01*
X0185494Y0208892D01*
X0185257Y0209303D01*
X0185039Y0209520D01*
X0185416Y0209897D01*
X0185416Y0213159D01*
X0192067Y0206509D01*
X0192067Y0203249D01*
X0190216Y0201398D01*
X0190216Y0193210D01*
X0194297Y0189129D01*
X0202248Y0189129D01*
X0202929Y0188448D01*
X0204978Y0188448D01*
X0207267Y0186158D01*
X0208498Y0184928D01*
X0210248Y0184928D01*
X0210929Y0184247D01*
X0215404Y0184247D01*
X0216341Y0185184D01*
X0216341Y0188872D01*
X0215404Y0189809D01*
X0210929Y0189809D01*
X0210248Y0189128D01*
X0210237Y0189128D01*
X0208341Y0191024D01*
X0208341Y0193073D01*
X0207404Y0194010D01*
X0202929Y0194010D01*
X0202248Y0193329D01*
X0196037Y0193329D01*
X0194416Y0194949D01*
X0194416Y0195279D01*
X0196741Y0195279D01*
X0197841Y0194179D01*
X0200492Y0194179D01*
X0201995Y0195681D01*
X0202929Y0194747D01*
X0207404Y0194747D01*
X0208341Y0195684D01*
X0208341Y0197733D01*
X0210037Y0199428D01*
X0210248Y0199428D01*
X0210929Y0198747D01*
X0215404Y0198747D01*
X0216341Y0199684D01*
X0216341Y0200398D01*
X0216519Y0200296D01*
X0216977Y0200173D01*
X0219687Y0200173D01*
X0219687Y0204053D01*
X0215661Y0204053D01*
X0215404Y0204309D01*
X0213355Y0204309D01*
X0208540Y0209125D01*
X0215614Y0209125D01*
X0215614Y0208003D01*
X0215644Y0207973D01*
X0215537Y0207786D01*
X0215414Y0207328D01*
X0215414Y0205012D01*
X0219687Y0205012D01*
X0219687Y0204053D01*
X0220646Y0204053D01*
X0220646Y0200173D01*
X0223356Y0200173D01*
X0223814Y0200296D01*
X0224109Y0200466D01*
X0224297Y0200279D01*
X0227992Y0200279D01*
X0227992Y0198385D01*
X0228929Y0197448D01*
X0233404Y0197448D01*
X0233567Y0197611D01*
X0233567Y0193898D01*
X0232367Y0192698D01*
X0232367Y0193704D01*
X0230492Y0195579D01*
X0227841Y0195579D01*
X0226741Y0194479D01*
X0216887Y0194479D01*
X0216341Y0195024D01*
X0216341Y0197073D01*
X0215404Y0198010D01*
X0210929Y0198010D01*
X0209992Y0197073D01*
X0209992Y0193385D01*
X0210929Y0192448D01*
X0212978Y0192448D01*
X0213917Y0191509D01*
X0215147Y0190279D01*
X0217992Y0187434D01*
X0217992Y0185184D01*
X0218929Y0184247D01*
X0223404Y0184247D01*
X0224341Y0185184D01*
X0224341Y0188872D01*
X0223404Y0189809D01*
X0221556Y0189809D01*
X0221087Y0190279D01*
X0226741Y0190279D01*
X0227320Y0189700D01*
X0226492Y0188872D01*
X0226492Y0185184D01*
X0227429Y0184247D01*
X0231904Y0184247D01*
X0232841Y0185184D01*
X0232841Y0187233D01*
X0234114Y0188506D01*
X0234114Y0184003D01*
X0234144Y0183973D01*
X0234037Y0183786D01*
X0233914Y0183328D01*
X0233914Y0181012D01*
X0238187Y0181012D01*
X0238187Y0180053D01*
X0233914Y0180053D01*
X0233914Y0177736D01*
X0234037Y0177278D01*
X0234274Y0176868D01*
X0234609Y0176533D01*
X0235019Y0176296D01*
X0235477Y0176173D01*
X0238187Y0176173D01*
X0238187Y0180053D01*
X0239146Y0180053D01*
X0239146Y0176173D01*
X0241856Y0176173D01*
X0242314Y0176296D01*
X0242725Y0176533D01*
X0242871Y0176680D01*
X0242912Y0176639D01*
X0243322Y0176402D01*
X0243780Y0176280D01*
X0246687Y0176280D01*
X0246687Y0180159D01*
X0242217Y0180159D01*
X0242217Y0180053D01*
X0239146Y0180053D01*
X0239146Y0181012D01*
X0243419Y0181012D01*
X0243419Y0181118D01*
X0246687Y0181118D01*
X0246687Y0180159D01*
X0247646Y0180159D01*
X0247646Y0176280D01*
X0250553Y0176280D01*
X0251011Y0176402D01*
X0251421Y0176639D01*
X0251757Y0176974D01*
X0251994Y0177385D01*
X0252116Y0177843D01*
X0252116Y0180159D01*
X0247646Y0180159D01*
X0247646Y0181118D01*
X0252116Y0181118D01*
X0252116Y0183435D01*
X0251994Y0183892D01*
X0251757Y0184303D01*
X0251539Y0184520D01*
X0251916Y0184897D01*
X0251916Y0191341D01*
X0251507Y0191750D01*
X0256267Y0196509D01*
X0256267Y0209953D01*
X0257067Y0210753D01*
X0257067Y0206509D01*
X0262224Y0201351D01*
X0262224Y0196509D01*
X0267295Y0191438D01*
X0266297Y0190439D01*
X0265517Y0188556D01*
X0265517Y0186517D01*
X0266297Y0184633D01*
X0267739Y0183191D01*
X0269622Y0182411D01*
X0278711Y0182411D01*
X0280595Y0183191D01*
X0282036Y0184633D01*
X0282817Y0186517D01*
X0282817Y0188556D01*
X0282036Y0190439D01*
X0280595Y0191881D01*
X0278711Y0192661D01*
X0272012Y0192661D01*
X0266424Y0198249D01*
X0266424Y0203091D01*
X0265194Y0204321D01*
X0261267Y0208249D01*
X0261267Y0223249D01*
X0260037Y0224479D01*
X0260036Y0224479D01*
X0256267Y0228249D01*
X0256267Y0240753D01*
X0257841Y0239179D01*
X0260492Y0239179D01*
X0261592Y0240279D01*
X0263297Y0240279D01*
X0267067Y0236509D01*
X0267067Y0231509D01*
X0267217Y0231359D01*
X0266297Y0230439D01*
X0265517Y0228556D01*
X0265517Y0226517D01*
X0266297Y0224633D01*
X0267739Y0223191D01*
X0269622Y0222411D01*
X0278711Y0222411D01*
X0280595Y0223191D01*
X0282036Y0224633D01*
X0282817Y0226517D01*
X0282817Y0228556D01*
X0282036Y0230439D01*
X0280595Y0231881D01*
X0278711Y0232661D01*
X0272011Y0232661D01*
X0271424Y0233249D01*
X0271267Y0233406D01*
X0271267Y0238249D01*
X0266267Y0243249D01*
X0265037Y0244479D01*
X0261592Y0244479D01*
X0260492Y0245579D01*
X0257841Y0245579D01*
X0256267Y0244004D01*
X0256267Y0248249D01*
X0252867Y0251649D01*
X0252867Y0253204D01*
X0250992Y0255079D01*
X0248341Y0255079D01*
X0246467Y0253204D01*
X0246467Y0250553D01*
X0248341Y0248679D01*
X0249897Y0248679D01*
X0252067Y0246509D01*
X0252067Y0244004D01*
X0250492Y0245579D01*
X0247841Y0245579D01*
X0246741Y0244479D01*
X0244310Y0244479D01*
X0244310Y0251945D01*
X0243527Y0253835D01*
X0242080Y0255282D01*
X0240190Y0256065D01*
X0238144Y0256065D01*
X0236253Y0255282D01*
X0234806Y0253835D01*
X0234167Y0252291D01*
X0233527Y0253835D01*
X0232080Y0255282D01*
X0230190Y0256065D01*
X0228144Y0256065D01*
X0226253Y0255282D01*
X0224806Y0253835D01*
X0224167Y0252291D01*
X0223527Y0253835D01*
X0222080Y0255282D01*
X0220190Y0256065D01*
X0218144Y0256065D01*
X0216253Y0255282D01*
X0214806Y0253835D01*
X0214264Y0252526D01*
X0214118Y0252973D01*
X0213737Y0253723D01*
X0213242Y0254403D01*
X0212648Y0254998D01*
X0211967Y0255492D01*
X0211218Y0255874D01*
X0210418Y0256134D01*
X0209587Y0256265D01*
X0209548Y0256265D01*
X0209548Y0247760D01*
X0208786Y0247760D01*
X0208786Y0256265D01*
X0208746Y0256265D01*
X0207915Y0256134D01*
X0207116Y0255874D01*
X0206366Y0255492D01*
X0205686Y0254998D01*
X0205091Y0254403D01*
X0204597Y0253723D01*
X0204267Y0253075D01*
X0204267Y0259953D01*
X0205367Y0261053D01*
X0205367Y0263704D01*
X0203492Y0265579D01*
X0200841Y0265579D01*
X0198967Y0263704D01*
X0198967Y0261053D01*
X0200067Y0259953D01*
X0200067Y0256065D01*
X0198144Y0256065D01*
X0196253Y0255282D01*
X0194806Y0253835D01*
X0194167Y0252291D01*
X0193527Y0253835D01*
X0192080Y0255282D01*
X0191267Y0255619D01*
X0191267Y0258249D01*
X0185037Y0264479D01*
X0176887Y0264479D01*
X0173737Y0267628D01*
X0167085Y0267628D01*
X0166567Y0268147D01*
X0166567Y0270997D01*
X0167548Y0271978D01*
X0167548Y0274779D01*
X0165567Y0276760D01*
X0162766Y0276760D01*
X0160786Y0274779D01*
X0160786Y0271978D01*
X0161767Y0270997D01*
X0161767Y0268147D01*
X0160992Y0267372D01*
X0160992Y0263684D01*
X0161929Y0262747D01*
X0166404Y0262747D01*
X0167085Y0263428D01*
X0171998Y0263428D01*
X0175147Y0260279D01*
X0183297Y0260279D01*
X0187067Y0256509D01*
X0187067Y0255619D01*
X0186253Y0255282D01*
X0184806Y0253835D01*
X0184167Y0252291D01*
X0183527Y0253835D01*
X0182080Y0255282D01*
X0180190Y0256065D01*
X0178144Y0256065D01*
X0176253Y0255282D01*
X0174806Y0253835D01*
X0174023Y0251945D01*
X0174023Y0242812D01*
X0174806Y0240922D01*
X0176253Y0239475D01*
X0178144Y0238692D01*
X0180190Y0238692D01*
X0182080Y0239475D01*
X0183527Y0240922D01*
X0184167Y0242466D01*
X0184806Y0240922D01*
X0186253Y0239475D01*
X0188144Y0238692D01*
X0190190Y0238692D01*
X0192080Y0239475D01*
X0193527Y0240922D01*
X0194167Y0242466D01*
X0194806Y0240922D01*
X0196253Y0239475D01*
X0198144Y0238692D01*
X0200190Y0238692D01*
X0202080Y0239475D01*
X0203527Y0240922D01*
X0204069Y0242232D01*
X0204215Y0241784D01*
X0204597Y0241035D01*
X0205091Y0240355D01*
X0205686Y0239760D01*
X0206366Y0239265D01*
X0207116Y0238884D01*
X0207915Y0238624D01*
X0208746Y0238492D01*
X0208786Y0238492D01*
X0208786Y0246998D01*
X0209548Y0246998D01*
X0209548Y0238492D01*
X0209587Y0238492D01*
X0210418Y0238624D01*
X0211218Y0238884D01*
X0211767Y0239163D01*
X0211766Y0239163D01*
X0211767Y0239163D02*
X0211767Y0235495D01*
X0211253Y0235282D01*
X0209806Y0233835D01*
X0209167Y0232291D01*
X0208527Y0233835D01*
X0207080Y0235282D01*
X0205190Y0236065D01*
X0203144Y0236065D01*
X0201253Y0235282D01*
X0199806Y0233835D01*
X0199167Y0232291D01*
X0198527Y0233835D01*
X0197080Y0235282D01*
X0195190Y0236065D01*
X0193144Y0236065D01*
X0191253Y0235282D01*
X0189806Y0233835D01*
X0189167Y0232291D01*
X0188527Y0233835D01*
X0187080Y0235282D01*
X0185190Y0236065D01*
X0183144Y0236065D01*
X0181253Y0235282D01*
X0179806Y0233835D01*
X0179167Y0232291D01*
X0178527Y0233835D01*
X0177080Y0235282D01*
X0175190Y0236065D01*
X0173144Y0236065D01*
X0171838Y0235524D01*
X0172367Y0236053D01*
X0172367Y0238704D01*
X0171267Y0239804D01*
X0171267Y0248249D01*
X0168117Y0251398D01*
X0167341Y0252174D01*
X0167341Y0252372D01*
X0166404Y0253309D01*
X0166267Y0253309D01*
X0166267Y0256448D01*
X0166404Y0256448D01*
X0167341Y0257385D01*
X0167341Y0261073D01*
X0166404Y0262010D01*
X0161929Y0262010D01*
X0160992Y0261073D01*
X0160992Y0257385D01*
X0161929Y0256448D01*
X0162067Y0256448D01*
X0162067Y0253309D01*
X0161929Y0253309D01*
X0160992Y0252372D01*
X0160992Y0249335D01*
X0160067Y0250260D01*
X0157266Y0250260D01*
X0156416Y0249410D01*
X0156416Y0249841D01*
X0156285Y0249972D01*
X0157367Y0251053D01*
X0157367Y0253704D01*
X0155492Y0255579D01*
X0152841Y0255579D01*
X0150967Y0253549D02*
X0097548Y0253549D01*
X0097548Y0251951D02*
X0150967Y0251951D01*
X0155923Y0255148D02*
X0162067Y0255148D01*
X0162067Y0253549D02*
X0157367Y0253549D01*
X0157367Y0251951D02*
X0160992Y0251951D01*
X0160992Y0250352D02*
X0156666Y0250352D01*
X0158667Y0246879D02*
X0158407Y0246619D01*
X0151667Y0246619D01*
X0156416Y0244219D02*
X0156545Y0244219D01*
X0157266Y0243498D01*
X0160067Y0243498D01*
X0160792Y0244222D01*
X0160792Y0242811D01*
X0160915Y0242353D01*
X0160792Y0243958D02*
X0160528Y0243958D01*
X0162048Y0247128D02*
X0162048Y0247747D01*
X0165828Y0247747D01*
X0166559Y0247017D01*
X0166436Y0247088D01*
X0165978Y0247210D01*
X0164167Y0247210D01*
X0164167Y0244229D01*
X0164167Y0241248D01*
X0164167Y0244229D01*
X0164167Y0244229D01*
X0164167Y0244229D01*
X0164167Y0247210D01*
X0162355Y0247210D01*
X0162048Y0247128D01*
X0162048Y0247155D02*
X0162150Y0247155D01*
X0164167Y0247155D02*
X0164167Y0247155D01*
X0164167Y0245557D02*
X0164167Y0245557D01*
X0164167Y0243958D02*
X0164167Y0243958D01*
X0164167Y0242360D02*
X0164167Y0242360D01*
X0167067Y0240761D02*
X0158754Y0240761D01*
X0156416Y0242360D02*
X0155898Y0242879D01*
X0156416Y0243397D01*
X0156416Y0244219D01*
X0156416Y0243958D02*
X0156805Y0243958D01*
X0161908Y0239163D02*
X0166425Y0239163D01*
X0165967Y0237564D02*
X0162367Y0237564D01*
X0162279Y0235966D02*
X0166054Y0235966D01*
X0167653Y0234367D02*
X0160681Y0234367D01*
X0157653Y0234367D02*
X0139863Y0234367D01*
X0139863Y0233395D02*
X0144471Y0233395D01*
X0144471Y0230862D01*
X0144348Y0230404D01*
X0144111Y0229994D01*
X0143776Y0229659D01*
X0143365Y0229422D01*
X0142908Y0229299D01*
X0139863Y0229299D01*
X0139863Y0233395D01*
X0139863Y0232769D02*
X0138471Y0232769D01*
X0138471Y0231170D02*
X0139863Y0231170D01*
X0139863Y0229572D02*
X0138471Y0229572D01*
X0137367Y0227973D02*
X0150967Y0227973D01*
X0150967Y0226375D02*
X0136188Y0226375D01*
X0138815Y0224776D02*
X0139518Y0224776D01*
X0143625Y0229572D02*
X0151834Y0229572D01*
X0156499Y0229572D02*
X0169023Y0229572D01*
X0169023Y0231170D02*
X0144471Y0231170D01*
X0144167Y0232379D02*
X0164167Y0232379D01*
X0161954Y0230166D01*
X0161954Y0229591D01*
X0157367Y0227973D02*
X0169023Y0227973D01*
X0169023Y0226375D02*
X0157367Y0226375D01*
X0158815Y0224776D02*
X0169023Y0224776D01*
X0169023Y0223178D02*
X0159271Y0223178D01*
X0159271Y0221579D02*
X0169534Y0221579D01*
X0170748Y0219981D02*
X0159271Y0219981D01*
X0159271Y0218382D02*
X0172433Y0218382D01*
X0174032Y0216784D02*
X0159043Y0216784D01*
X0160806Y0211988D02*
X0123938Y0211988D01*
X0123916Y0213587D02*
X0164349Y0213587D01*
X0167984Y0213587D02*
X0175917Y0213587D01*
X0175917Y0211988D02*
X0169367Y0211988D01*
X0169367Y0210390D02*
X0175917Y0210390D01*
X0175813Y0208791D02*
X0168605Y0208791D01*
X0161950Y0207193D02*
X0175717Y0207193D01*
X0175717Y0203996D02*
X0158753Y0203996D01*
X0157155Y0202397D02*
X0175836Y0202397D01*
X0180187Y0202397D02*
X0181146Y0202397D01*
X0181146Y0203996D02*
X0180187Y0203996D01*
X0180187Y0205594D02*
X0160352Y0205594D01*
X0157609Y0208791D02*
X0119646Y0208791D01*
X0119646Y0207193D02*
X0118687Y0207193D01*
X0118687Y0205594D02*
X0119646Y0205594D01*
X0116567Y0203996D02*
X0152814Y0203996D01*
X0154412Y0205594D02*
X0124050Y0205594D01*
X0124116Y0207193D02*
X0156011Y0207193D01*
X0159208Y0210390D02*
X0124116Y0210390D01*
X0123916Y0218382D02*
X0129063Y0218382D01*
X0129063Y0219981D02*
X0123276Y0219981D01*
X0129063Y0221579D02*
X0116567Y0221579D01*
X0116567Y0223178D02*
X0129063Y0223178D01*
X0129518Y0224776D02*
X0116567Y0224776D01*
X0116567Y0226375D02*
X0132145Y0226375D01*
X0130967Y0227973D02*
X0116518Y0227973D01*
X0114063Y0231170D02*
X0005967Y0231170D01*
X0005967Y0229572D02*
X0101578Y0229572D01*
X0100786Y0227973D02*
X0005967Y0227973D01*
X0005967Y0226375D02*
X0100786Y0226375D01*
X0101988Y0224776D02*
X0005967Y0224776D01*
X0005967Y0223178D02*
X0047603Y0223178D01*
X0047517Y0221579D02*
X0005967Y0221579D01*
X0005967Y0219981D02*
X0047517Y0219981D01*
X0047517Y0218382D02*
X0005967Y0218382D01*
X0005967Y0216784D02*
X0047517Y0216784D01*
X0057966Y0215185D02*
X0005967Y0215185D01*
X0005967Y0213587D02*
X0059565Y0213587D01*
X0061163Y0211988D02*
X0005967Y0211988D01*
X0005967Y0210390D02*
X0008638Y0210390D01*
X0009188Y0210939D02*
X0008006Y0209758D01*
X0007367Y0208214D01*
X0007367Y0206543D01*
X0008006Y0205000D01*
X0009188Y0203818D01*
X0010731Y0203179D01*
X0017602Y0203179D01*
X0019146Y0203818D01*
X0020327Y0205000D01*
X0020967Y0206543D01*
X0020967Y0208214D01*
X0020327Y0209758D01*
X0019146Y0210939D01*
X0017602Y0211579D01*
X0010731Y0211579D01*
X0009188Y0210939D01*
X0007606Y0208791D02*
X0005967Y0208791D01*
X0005967Y0207193D02*
X0007367Y0207193D01*
X0007760Y0205594D02*
X0005967Y0205594D01*
X0005967Y0203996D02*
X0009010Y0203996D01*
X0010731Y0201579D02*
X0009188Y0200939D01*
X0008006Y0199758D01*
X0007367Y0198214D01*
X0007367Y0196543D01*
X0008006Y0195000D01*
X0009188Y0193818D01*
X0010731Y0193179D01*
X0017602Y0193179D01*
X0019146Y0193818D01*
X0020327Y0195000D01*
X0020967Y0196543D01*
X0020967Y0198214D01*
X0020327Y0199758D01*
X0019146Y0200939D01*
X0017602Y0201579D01*
X0010731Y0201579D01*
X0009047Y0200799D02*
X0005967Y0200799D01*
X0005967Y0202397D02*
X0046767Y0202397D01*
X0046767Y0200799D02*
X0019286Y0200799D01*
X0020558Y0199200D02*
X0036463Y0199200D01*
X0035967Y0198704D02*
X0035967Y0197573D01*
X0022132Y0183738D01*
X0021767Y0182856D01*
X0021767Y0174760D01*
X0020786Y0173779D01*
X0020786Y0170978D01*
X0022766Y0168998D01*
X0025567Y0168998D01*
X0027548Y0170978D01*
X0027548Y0173779D01*
X0026567Y0174760D01*
X0026567Y0181385D01*
X0039361Y0194179D01*
X0040492Y0194179D01*
X0042367Y0196053D01*
X0042367Y0198704D01*
X0040492Y0200579D01*
X0037841Y0200579D01*
X0035967Y0198704D01*
X0035967Y0197602D02*
X0020967Y0197602D01*
X0020743Y0196003D02*
X0034397Y0196003D01*
X0032798Y0194405D02*
X0019732Y0194405D01*
X0018498Y0191208D02*
X0029601Y0191208D01*
X0031200Y0192806D02*
X0005967Y0192806D01*
X0005967Y0191208D02*
X0009835Y0191208D01*
X0009188Y0190939D02*
X0008006Y0189758D01*
X0007367Y0188214D01*
X0007367Y0186543D01*
X0008006Y0185000D01*
X0009188Y0183818D01*
X0010731Y0183179D01*
X0017602Y0183179D01*
X0019146Y0183818D01*
X0020327Y0185000D01*
X0020967Y0186543D01*
X0020967Y0188214D01*
X0020327Y0189758D01*
X0019146Y0190939D01*
X0017602Y0191579D01*
X0010731Y0191579D01*
X0009188Y0190939D01*
X0007944Y0189609D02*
X0005967Y0189609D01*
X0005967Y0188011D02*
X0007367Y0188011D01*
X0007421Y0186412D02*
X0005967Y0186412D01*
X0005967Y0184813D02*
X0008192Y0184813D01*
X0005967Y0183215D02*
X0010644Y0183215D01*
X0010731Y0181579D02*
X0009188Y0180939D01*
X0008006Y0179758D01*
X0007367Y0178214D01*
X0007367Y0176543D01*
X0008006Y0175000D01*
X0009188Y0173818D01*
X0010731Y0173179D01*
X0017602Y0173179D01*
X0019146Y0173818D01*
X0020327Y0175000D01*
X0020967Y0176543D01*
X0020967Y0178214D01*
X0020327Y0179758D01*
X0019146Y0180939D01*
X0017602Y0181579D01*
X0010731Y0181579D01*
X0008266Y0180018D02*
X0005967Y0180018D01*
X0005967Y0181616D02*
X0021767Y0181616D01*
X0021767Y0180018D02*
X0020067Y0180018D01*
X0020882Y0178419D02*
X0021767Y0178419D01*
X0021767Y0176821D02*
X0020967Y0176821D01*
X0020420Y0175222D02*
X0021767Y0175222D01*
X0020786Y0173624D02*
X0018677Y0173624D01*
X0017797Y0171670D02*
X0017113Y0171779D01*
X0014167Y0171779D01*
X0014167Y0167379D01*
X0021167Y0167379D01*
X0021167Y0167725D01*
X0021058Y0168409D01*
X0020844Y0169068D01*
X0020530Y0169685D01*
X0020123Y0170245D01*
X0019633Y0170735D01*
X0019073Y0171142D01*
X0018456Y0171456D01*
X0017797Y0171670D01*
X0019941Y0170427D02*
X0021337Y0170427D01*
X0020922Y0168828D02*
X0026786Y0168828D01*
X0026786Y0169779D02*
X0026786Y0166978D01*
X0028766Y0164998D01*
X0031567Y0164998D01*
X0033548Y0166978D01*
X0033548Y0168325D01*
X0034614Y0168325D01*
X0034614Y0167503D01*
X0034644Y0167473D01*
X0034537Y0167286D01*
X0034414Y0166828D01*
X0034414Y0164512D01*
X0038687Y0164512D01*
X0038687Y0163553D01*
X0034414Y0163553D01*
X0034414Y0162913D01*
X0033567Y0163760D01*
X0030766Y0163760D01*
X0029785Y0162779D01*
X0016689Y0162779D01*
X0015807Y0162413D01*
X0014973Y0161579D01*
X0010731Y0161579D01*
X0009188Y0160939D01*
X0008006Y0159758D01*
X0007367Y0158214D01*
X0007367Y0156543D01*
X0008006Y0155000D01*
X0009188Y0153818D01*
X0010731Y0153179D01*
X0017602Y0153179D01*
X0019146Y0153818D01*
X0020327Y0155000D01*
X0020967Y0156543D01*
X0020967Y0157979D01*
X0029785Y0157979D01*
X0030766Y0156998D01*
X0033567Y0156998D01*
X0035548Y0158978D01*
X0035548Y0159788D01*
X0035977Y0159673D01*
X0038687Y0159673D01*
X0038687Y0163553D01*
X0039646Y0163553D01*
X0039646Y0164512D01*
X0043919Y0164512D01*
X0043919Y0166828D01*
X0043797Y0167286D01*
X0043689Y0167473D01*
X0043719Y0167503D01*
X0043719Y0173947D01*
X0042782Y0174884D01*
X0038226Y0174884D01*
X0037644Y0175125D01*
X0037567Y0175125D01*
X0037567Y0177385D01*
X0039361Y0179179D01*
X0040492Y0179179D01*
X0042367Y0181053D01*
X0042367Y0183704D01*
X0040492Y0185579D01*
X0037841Y0185579D01*
X0035967Y0183704D01*
X0035967Y0182573D01*
X0033807Y0180413D01*
X0033132Y0179738D01*
X0032767Y0178856D01*
X0032767Y0173125D01*
X0031036Y0173125D01*
X0030154Y0172760D01*
X0029154Y0171760D01*
X0028766Y0171760D01*
X0026786Y0169779D01*
X0026996Y0170427D02*
X0027433Y0170427D01*
X0027548Y0172025D02*
X0029419Y0172025D01*
X0027548Y0173624D02*
X0032767Y0173624D01*
X0032767Y0175222D02*
X0026567Y0175222D01*
X0026567Y0176821D02*
X0032767Y0176821D01*
X0032767Y0178419D02*
X0026567Y0178419D01*
X0026567Y0180018D02*
X0033412Y0180018D01*
X0035010Y0181616D02*
X0026798Y0181616D01*
X0028397Y0183215D02*
X0035967Y0183215D01*
X0037076Y0184813D02*
X0029996Y0184813D01*
X0031594Y0186412D02*
X0046767Y0186412D01*
X0046767Y0184813D02*
X0041257Y0184813D01*
X0042367Y0183215D02*
X0046767Y0183215D01*
X0046767Y0181616D02*
X0042367Y0181616D01*
X0041331Y0180018D02*
X0046767Y0180018D01*
X0046767Y0178419D02*
X0038601Y0178419D01*
X0037567Y0176821D02*
X0046767Y0176821D01*
X0046767Y0175222D02*
X0037567Y0175222D01*
X0037167Y0172725D02*
X0035167Y0172725D01*
X0035167Y0178379D01*
X0039167Y0182379D01*
X0033193Y0188011D02*
X0046767Y0188011D01*
X0046767Y0189609D02*
X0034791Y0189609D01*
X0036390Y0191208D02*
X0046767Y0191208D01*
X0046767Y0192806D02*
X0037988Y0192806D01*
X0040718Y0194405D02*
X0046767Y0194405D01*
X0046767Y0196003D02*
X0042316Y0196003D01*
X0042367Y0197602D02*
X0046767Y0197602D01*
X0046767Y0199200D02*
X0041871Y0199200D01*
X0039167Y0197379D02*
X0024167Y0182379D01*
X0024167Y0172379D01*
X0020786Y0172025D02*
X0005967Y0172025D01*
X0005967Y0170427D02*
X0008392Y0170427D01*
X0008211Y0170245D02*
X0007803Y0169685D01*
X0007489Y0169068D01*
X0007275Y0168409D01*
X0007167Y0167725D01*
X0007167Y0167379D01*
X0014167Y0167379D01*
X0014167Y0167379D01*
X0014167Y0167379D01*
X0021167Y0167379D01*
X0021167Y0167032D01*
X0021058Y0166348D01*
X0020844Y0165690D01*
X0020530Y0165073D01*
X0020123Y0164512D01*
X0019633Y0164023D01*
X0019073Y0163616D01*
X0018456Y0163301D01*
X0017797Y0163087D01*
X0017113Y0162979D01*
X0014167Y0162979D01*
X0014167Y0167379D01*
X0014167Y0171779D01*
X0011220Y0171779D01*
X0010536Y0171670D01*
X0009878Y0171456D01*
X0009261Y0171142D01*
X0008700Y0170735D01*
X0008211Y0170245D01*
X0007411Y0168828D02*
X0005967Y0168828D01*
X0005967Y0167230D02*
X0007167Y0167230D01*
X0007167Y0167379D02*
X0007167Y0167032D01*
X0007275Y0166348D01*
X0007489Y0165690D01*
X0007803Y0165073D01*
X0008211Y0164512D01*
X0008700Y0164023D01*
X0009261Y0163616D01*
X0009878Y0163301D01*
X0010536Y0163087D01*
X0011220Y0162979D01*
X0014167Y0162979D01*
X0014167Y0167379D01*
X0017513Y0164032D01*
X0039167Y0164032D01*
X0049167Y0164032D01*
X0049560Y0163639D01*
X0059167Y0163639D01*
X0062907Y0163639D01*
X0069167Y0157379D01*
X0063918Y0160836D02*
X0079230Y0160836D01*
X0077807Y0159413D02*
X0077807Y0159413D01*
X0077631Y0159237D02*
X0035548Y0159237D01*
X0034208Y0157639D02*
X0076767Y0157639D01*
X0076767Y0156040D02*
X0020758Y0156040D01*
X0020967Y0157639D02*
X0030125Y0157639D01*
X0032167Y0160379D02*
X0017167Y0160379D01*
X0014167Y0157379D01*
X0015858Y0162434D02*
X0005967Y0162434D01*
X0005967Y0160836D02*
X0009084Y0160836D01*
X0007790Y0159237D02*
X0005967Y0159237D01*
X0005967Y0157639D02*
X0007367Y0157639D01*
X0007575Y0156040D02*
X0005967Y0156040D01*
X0005967Y0154442D02*
X0008564Y0154442D01*
X0005967Y0152843D02*
X0020786Y0152843D01*
X0020786Y0152392D02*
X0019239Y0150846D01*
X0019146Y0150939D01*
X0017602Y0151579D01*
X0010731Y0151579D01*
X0009188Y0150939D01*
X0008006Y0149758D01*
X0007367Y0148214D01*
X0007367Y0146543D01*
X0008006Y0145000D01*
X0009188Y0143818D01*
X0010731Y0143179D01*
X0017602Y0143179D01*
X0019146Y0143818D01*
X0019239Y0143912D01*
X0020786Y0142366D01*
X0020786Y0140978D01*
X0022766Y0138998D01*
X0025567Y0138998D01*
X0027548Y0140978D01*
X0027548Y0143779D01*
X0025567Y0145760D01*
X0024180Y0145760D01*
X0022561Y0147379D01*
X0024180Y0148998D01*
X0025567Y0148998D01*
X0027548Y0150978D01*
X0027548Y0153779D01*
X0025567Y0155760D01*
X0022766Y0155760D01*
X0020786Y0153779D01*
X0020786Y0152392D01*
X0019639Y0151245D02*
X0018408Y0151245D01*
X0019769Y0154442D02*
X0021448Y0154442D01*
X0024167Y0152379D02*
X0019167Y0147379D01*
X0024167Y0142379D01*
X0026625Y0140055D02*
X0035062Y0140055D01*
X0034523Y0141654D02*
X0027548Y0141654D01*
X0027548Y0143252D02*
X0034523Y0143252D01*
X0035124Y0144851D02*
X0026476Y0144851D01*
X0023490Y0146449D02*
X0036463Y0146449D01*
X0039667Y0142379D02*
X0039667Y0137379D01*
X0044667Y0132379D01*
X0059167Y0132379D01*
X0063143Y0128402D01*
X0063143Y0104279D01*
X0066293Y0104279D02*
X0066293Y0136119D01*
X0062407Y0136119D01*
X0060165Y0135260D02*
X0045180Y0135260D01*
X0043581Y0136858D02*
X0060115Y0136858D01*
X0061278Y0133661D02*
X0063893Y0133661D01*
X0063893Y0132063D02*
X0062877Y0132063D01*
X0059286Y0128866D02*
X0031074Y0128866D01*
X0031567Y0127267D02*
X0060743Y0127267D01*
X0060743Y0125669D02*
X0055658Y0125669D01*
X0057257Y0124070D02*
X0060743Y0124070D01*
X0060743Y0122472D02*
X0057548Y0122472D01*
X0059066Y0120873D02*
X0060743Y0120873D01*
X0060743Y0119275D02*
X0060665Y0119275D01*
X0059167Y0117379D02*
X0059167Y0105302D01*
X0057267Y0103402D01*
X0057267Y0098402D01*
X0061367Y0098494D02*
X0086967Y0098494D01*
X0086967Y0100092D02*
X0080652Y0100092D01*
X0080686Y0100101D02*
X0080820Y0100179D01*
X0086953Y0100179D01*
X0087890Y0101116D01*
X0087890Y0107441D01*
X0086953Y0108379D01*
X0085061Y0108379D01*
X0085526Y0108844D01*
X0086201Y0109519D01*
X0086567Y0110401D01*
X0086567Y0132856D01*
X0086201Y0133738D01*
X0081567Y0138373D01*
X0081567Y0156385D01*
X0083786Y0158604D01*
X0083786Y0155978D01*
X0085067Y0154697D01*
X0085067Y0144784D01*
X0084567Y0144284D01*
X0084567Y0140473D01*
X0087261Y0137779D01*
X0091072Y0137779D01*
X0093767Y0140473D01*
X0093767Y0144284D01*
X0091072Y0146979D01*
X0089267Y0146979D01*
X0089267Y0154697D01*
X0090548Y0155978D01*
X0090548Y0158779D01*
X0089348Y0159979D01*
X0104644Y0159979D01*
X0105526Y0160344D01*
X0106201Y0161019D01*
X0111201Y0166019D01*
X0111567Y0166901D01*
X0111567Y0168828D02*
X0222222Y0168828D01*
X0224167Y0167379D02*
X0207667Y0150879D01*
X0195667Y0150879D01*
X0201167Y0148048D02*
X0237167Y0148048D01*
X0237167Y0149646D02*
X0209828Y0149646D01*
X0207836Y0154442D02*
X0201167Y0154442D01*
X0201097Y0156040D02*
X0209434Y0156040D01*
X0211033Y0157639D02*
X0200435Y0157639D01*
X0198986Y0159237D02*
X0212631Y0159237D01*
X0214230Y0160836D02*
X0106018Y0160836D01*
X0107616Y0162434D02*
X0215828Y0162434D01*
X0224167Y0167379D02*
X0243852Y0167379D01*
X0274167Y0137064D01*
X0278557Y0141654D02*
X0292288Y0141654D01*
X0292288Y0143252D02*
X0275820Y0143252D01*
X0272514Y0143252D02*
X0271372Y0143252D01*
X0269774Y0144851D02*
X0292288Y0144851D01*
X0292288Y0146449D02*
X0268175Y0146449D01*
X0266577Y0148048D02*
X0292288Y0148048D01*
X0292288Y0149646D02*
X0264978Y0149646D01*
X0263380Y0151245D02*
X0270861Y0151245D01*
X0270570Y0151366D02*
X0272904Y0150399D01*
X0275430Y0150399D01*
X0277764Y0151366D01*
X0279550Y0153152D01*
X0280517Y0155486D01*
X0280517Y0158012D01*
X0279550Y0160346D01*
X0277764Y0162132D01*
X0275430Y0163099D01*
X0272904Y0163099D01*
X0270570Y0162132D01*
X0268783Y0160346D01*
X0267817Y0158012D01*
X0267817Y0155486D01*
X0268783Y0153152D01*
X0270570Y0151366D01*
X0269092Y0152843D02*
X0261781Y0152843D01*
X0260183Y0154442D02*
X0268249Y0154442D01*
X0267817Y0156040D02*
X0258584Y0156040D01*
X0256986Y0157639D02*
X0267817Y0157639D01*
X0268324Y0159237D02*
X0255387Y0159237D01*
X0253789Y0160836D02*
X0269273Y0160836D01*
X0271299Y0162434D02*
X0252190Y0162434D01*
X0250592Y0164033D02*
X0292288Y0164033D01*
X0292288Y0165631D02*
X0248993Y0165631D01*
X0247395Y0167230D02*
X0292288Y0167230D01*
X0292288Y0168828D02*
X0245796Y0168828D01*
X0246687Y0176821D02*
X0247646Y0176821D01*
X0247646Y0178419D02*
X0246687Y0178419D01*
X0246687Y0180018D02*
X0247646Y0180018D01*
X0252116Y0180018D02*
X0292288Y0180018D01*
X0292288Y0181616D02*
X0252116Y0181616D01*
X0252116Y0183215D02*
X0267715Y0183215D01*
X0266222Y0184813D02*
X0251833Y0184813D01*
X0251916Y0186412D02*
X0265560Y0186412D01*
X0265517Y0188011D02*
X0251916Y0188011D01*
X0251916Y0189609D02*
X0265953Y0189609D01*
X0267065Y0191208D02*
X0251916Y0191208D01*
X0252564Y0192806D02*
X0265927Y0192806D01*
X0264328Y0194405D02*
X0254162Y0194405D01*
X0255761Y0196003D02*
X0262730Y0196003D01*
X0262224Y0197602D02*
X0256267Y0197602D01*
X0256267Y0199200D02*
X0262224Y0199200D01*
X0262224Y0200799D02*
X0256267Y0200799D01*
X0256267Y0202397D02*
X0261178Y0202397D01*
X0259580Y0203996D02*
X0256267Y0203996D01*
X0256267Y0205594D02*
X0257981Y0205594D01*
X0257067Y0207193D02*
X0256267Y0207193D01*
X0256267Y0208791D02*
X0257067Y0208791D01*
X0257067Y0210390D02*
X0256703Y0210390D01*
X0261267Y0210390D02*
X0266562Y0210390D01*
X0266297Y0210124D02*
X0265517Y0208241D01*
X0265517Y0206202D01*
X0266297Y0204318D01*
X0267739Y0202876D01*
X0269622Y0202096D01*
X0278711Y0202096D01*
X0280595Y0202876D01*
X0282036Y0204318D01*
X0282817Y0206202D01*
X0282817Y0208241D01*
X0282036Y0210124D01*
X0280595Y0211566D01*
X0278711Y0212346D01*
X0269622Y0212346D01*
X0267739Y0211566D01*
X0266297Y0210124D01*
X0265745Y0208791D02*
X0261267Y0208791D01*
X0262323Y0207193D02*
X0265517Y0207193D01*
X0265768Y0205594D02*
X0263921Y0205594D01*
X0265520Y0203996D02*
X0266619Y0203996D01*
X0266424Y0202397D02*
X0268896Y0202397D01*
X0266424Y0200799D02*
X0292288Y0200799D01*
X0292288Y0202397D02*
X0279437Y0202397D01*
X0281714Y0203996D02*
X0292288Y0203996D01*
X0292288Y0205594D02*
X0282565Y0205594D01*
X0282817Y0207193D02*
X0292288Y0207193D01*
X0292288Y0208791D02*
X0282589Y0208791D01*
X0281771Y0210390D02*
X0292288Y0210390D01*
X0292288Y0211988D02*
X0279576Y0211988D01*
X0268758Y0211988D02*
X0261267Y0211988D01*
X0261267Y0213587D02*
X0292288Y0213587D01*
X0292288Y0215185D02*
X0261267Y0215185D01*
X0261267Y0216784D02*
X0292288Y0216784D01*
X0292288Y0218382D02*
X0261267Y0218382D01*
X0261267Y0219981D02*
X0292288Y0219981D01*
X0292288Y0221579D02*
X0261267Y0221579D01*
X0261267Y0223178D02*
X0267772Y0223178D01*
X0266238Y0224776D02*
X0259739Y0224776D01*
X0258140Y0226375D02*
X0265575Y0226375D01*
X0265517Y0227973D02*
X0256542Y0227973D01*
X0256267Y0229572D02*
X0265938Y0229572D01*
X0267028Y0231170D02*
X0256267Y0231170D01*
X0256267Y0232769D02*
X0267067Y0232769D01*
X0267067Y0234367D02*
X0256267Y0234367D01*
X0256267Y0235966D02*
X0267067Y0235966D01*
X0266011Y0237564D02*
X0256267Y0237564D01*
X0256267Y0239163D02*
X0264413Y0239163D01*
X0267155Y0242360D02*
X0268986Y0242360D01*
X0269622Y0242096D02*
X0267739Y0242876D01*
X0266297Y0244318D01*
X0265517Y0246202D01*
X0265517Y0248241D01*
X0266297Y0250124D01*
X0267739Y0251566D01*
X0269622Y0252346D01*
X0278711Y0252346D01*
X0280595Y0251566D01*
X0282036Y0250124D01*
X0282817Y0248241D01*
X0282817Y0246202D01*
X0282036Y0244318D01*
X0280595Y0242876D01*
X0278711Y0242096D01*
X0269622Y0242096D01*
X0268754Y0240761D02*
X0292288Y0240761D01*
X0292288Y0239163D02*
X0270352Y0239163D01*
X0271267Y0237564D02*
X0292288Y0237564D01*
X0292288Y0235966D02*
X0271267Y0235966D01*
X0271267Y0234367D02*
X0292288Y0234367D01*
X0292288Y0232769D02*
X0271904Y0232769D01*
X0279348Y0242360D02*
X0292288Y0242360D01*
X0292288Y0243958D02*
X0281677Y0243958D01*
X0282550Y0245557D02*
X0292288Y0245557D01*
X0292288Y0247155D02*
X0282817Y0247155D01*
X0282604Y0248754D02*
X0292288Y0248754D01*
X0292288Y0250352D02*
X0281808Y0250352D01*
X0279665Y0251951D02*
X0292288Y0251951D01*
X0292288Y0253549D02*
X0252521Y0253549D01*
X0252867Y0251951D02*
X0268668Y0251951D01*
X0266525Y0250352D02*
X0254163Y0250352D01*
X0255761Y0248754D02*
X0265729Y0248754D01*
X0265517Y0247155D02*
X0256267Y0247155D01*
X0256267Y0245557D02*
X0257819Y0245557D01*
X0260514Y0245557D02*
X0265784Y0245557D01*
X0265557Y0243958D02*
X0266657Y0243958D01*
X0252067Y0245557D02*
X0250514Y0245557D01*
X0251420Y0247155D02*
X0244310Y0247155D01*
X0244310Y0245557D02*
X0247819Y0245557D01*
X0248266Y0248754D02*
X0244310Y0248754D01*
X0244310Y0250352D02*
X0246667Y0250352D01*
X0246467Y0251951D02*
X0244308Y0251951D01*
X0243645Y0253549D02*
X0246812Y0253549D01*
X0242214Y0255148D02*
X0292288Y0255148D01*
X0292288Y0256747D02*
X0204267Y0256747D01*
X0204267Y0258345D02*
X0292288Y0258345D01*
X0292288Y0259944D02*
X0204267Y0259944D01*
X0205367Y0261542D02*
X0292288Y0261542D01*
X0292288Y0263141D02*
X0205367Y0263141D01*
X0204332Y0264739D02*
X0292288Y0264739D01*
X0292288Y0266338D02*
X0175028Y0266338D01*
X0176627Y0264739D02*
X0200002Y0264739D01*
X0198967Y0263141D02*
X0186375Y0263141D01*
X0187973Y0261542D02*
X0198967Y0261542D01*
X0200067Y0259944D02*
X0189572Y0259944D01*
X0191170Y0258345D02*
X0200067Y0258345D01*
X0200067Y0256747D02*
X0191267Y0256747D01*
X0192214Y0255148D02*
X0196119Y0255148D01*
X0194688Y0253549D02*
X0193645Y0253549D01*
X0186829Y0256747D02*
X0166703Y0256747D01*
X0166267Y0255148D02*
X0176119Y0255148D01*
X0174688Y0253549D02*
X0166267Y0253549D01*
X0167564Y0251951D02*
X0174026Y0251951D01*
X0174023Y0250352D02*
X0169163Y0250352D01*
X0170761Y0248754D02*
X0174023Y0248754D01*
X0174023Y0247155D02*
X0171267Y0247155D01*
X0171267Y0245557D02*
X0174023Y0245557D01*
X0174023Y0243958D02*
X0171267Y0243958D01*
X0171267Y0242360D02*
X0174211Y0242360D01*
X0174967Y0240761D02*
X0171267Y0240761D01*
X0171908Y0239163D02*
X0177007Y0239163D01*
X0175430Y0235966D02*
X0182903Y0235966D01*
X0185430Y0235966D02*
X0192903Y0235966D01*
X0195430Y0235966D02*
X0202903Y0235966D01*
X0205430Y0235966D02*
X0211767Y0235966D01*
X0211767Y0237564D02*
X0172367Y0237564D01*
X0172279Y0235966D02*
X0172903Y0235966D01*
X0169365Y0232769D02*
X0144471Y0232769D01*
X0144471Y0235966D02*
X0146917Y0235966D01*
X0146917Y0237564D02*
X0144405Y0237564D01*
X0146917Y0239163D02*
X0110097Y0239163D01*
X0110097Y0240761D02*
X0146917Y0240761D01*
X0146917Y0245557D02*
X0105827Y0245557D01*
X0105827Y0245811D02*
X0110297Y0245811D01*
X0110297Y0248128D01*
X0110175Y0248585D01*
X0109938Y0248996D01*
X0109603Y0249331D01*
X0109192Y0249568D01*
X0108734Y0249691D01*
X0105827Y0249691D01*
X0105827Y0245811D01*
X0104868Y0245811D02*
X0104868Y0249691D01*
X0101961Y0249691D01*
X0101503Y0249568D01*
X0101093Y0249331D01*
X0100758Y0248996D01*
X0100521Y0248585D01*
X0100398Y0248128D01*
X0100398Y0245811D01*
X0104868Y0245811D01*
X0104868Y0245557D02*
X0101813Y0245557D01*
X0100398Y0247155D02*
X0097784Y0247155D01*
X0096186Y0248754D02*
X0100618Y0248754D01*
X0096922Y0250352D02*
X0147429Y0250352D01*
X0146917Y0248754D02*
X0110077Y0248754D01*
X0110297Y0247155D02*
X0146917Y0247155D01*
X0139863Y0237564D02*
X0138471Y0237564D01*
X0138471Y0235966D02*
X0139863Y0235966D01*
X0148815Y0224776D02*
X0149518Y0224776D01*
X0149290Y0216784D02*
X0149043Y0216784D01*
X0141656Y0215185D02*
X0175630Y0215185D01*
X0185416Y0211988D02*
X0186587Y0211988D01*
X0185416Y0210390D02*
X0188186Y0210390D01*
X0189784Y0208791D02*
X0185521Y0208791D01*
X0185616Y0207193D02*
X0191383Y0207193D01*
X0192067Y0205594D02*
X0181146Y0205594D01*
X0185616Y0203996D02*
X0192067Y0203996D01*
X0191215Y0202397D02*
X0185497Y0202397D01*
X0190216Y0200799D02*
X0155556Y0200799D01*
X0153958Y0199200D02*
X0190216Y0199200D01*
X0190216Y0197602D02*
X0152359Y0197602D01*
X0150761Y0196003D02*
X0190216Y0196003D01*
X0190216Y0194405D02*
X0149162Y0194405D01*
X0147564Y0192806D02*
X0190620Y0192806D01*
X0192218Y0191208D02*
X0146267Y0191208D01*
X0146267Y0189609D02*
X0193817Y0189609D01*
X0194961Y0194405D02*
X0197615Y0194405D01*
X0200718Y0194405D02*
X0209992Y0194405D01*
X0209992Y0196003D02*
X0208341Y0196003D01*
X0208341Y0197602D02*
X0210520Y0197602D01*
X0210476Y0199200D02*
X0209808Y0199200D01*
X0205167Y0197528D02*
X0200316Y0202379D01*
X0199167Y0202379D01*
X0199167Y0207379D02*
X0194167Y0212379D01*
X0194167Y0227379D01*
X0204167Y0227379D01*
X0208969Y0232769D02*
X0209365Y0232769D01*
X0210338Y0234367D02*
X0207995Y0234367D01*
X0209167Y0236379D02*
X0209167Y0247379D01*
X0208786Y0248754D02*
X0209548Y0248754D01*
X0209548Y0250352D02*
X0208786Y0250352D01*
X0208786Y0251951D02*
X0209548Y0251951D01*
X0209548Y0253549D02*
X0208786Y0253549D01*
X0208786Y0255148D02*
X0209548Y0255148D01*
X0212441Y0255148D02*
X0216119Y0255148D01*
X0214688Y0253549D02*
X0213825Y0253549D01*
X0219167Y0247379D02*
X0229167Y0247379D01*
X0233645Y0253549D02*
X0234688Y0253549D01*
X0236119Y0255148D02*
X0232214Y0255148D01*
X0226119Y0255148D02*
X0222214Y0255148D01*
X0223645Y0253549D02*
X0224688Y0253549D01*
X0219167Y0247379D02*
X0214167Y0242379D01*
X0214167Y0227379D01*
X0214167Y0222379D01*
X0219167Y0217379D01*
X0234167Y0217379D01*
X0244167Y0207379D02*
X0244167Y0197379D01*
X0239167Y0192379D01*
X0239167Y0187379D01*
X0234114Y0188011D02*
X0233619Y0188011D01*
X0234114Y0186412D02*
X0232841Y0186412D01*
X0232470Y0184813D02*
X0234114Y0184813D01*
X0233914Y0183215D02*
X0232482Y0183215D01*
X0232347Y0183351D02*
X0231936Y0183588D01*
X0231478Y0183710D01*
X0229667Y0183710D01*
X0229667Y0180729D01*
X0229667Y0180729D01*
X0233041Y0180729D01*
X0233041Y0179311D01*
X0232919Y0178853D01*
X0232682Y0178443D01*
X0232347Y0178108D01*
X0231936Y0177871D01*
X0231478Y0177748D01*
X0229667Y0177748D01*
X0229667Y0180729D01*
X0233041Y0180729D01*
X0233041Y0182147D01*
X0232919Y0182605D01*
X0232682Y0183015D01*
X0232347Y0183351D01*
X0233041Y0181616D02*
X0233914Y0181616D01*
X0233914Y0180018D02*
X0233041Y0180018D01*
X0232658Y0178419D02*
X0233914Y0178419D01*
X0234321Y0176821D02*
X0111567Y0176821D01*
X0111567Y0178419D02*
X0210175Y0178419D01*
X0210151Y0178443D02*
X0210487Y0178108D01*
X0210897Y0177871D01*
X0211355Y0177748D01*
X0213167Y0177748D01*
X0214978Y0177748D01*
X0215436Y0177871D01*
X0215847Y0178108D01*
X0216182Y0178443D01*
X0216419Y0178853D01*
X0216541Y0179311D01*
X0216541Y0180729D01*
X0213167Y0180729D01*
X0213167Y0180729D01*
X0216541Y0180729D01*
X0216541Y0182147D01*
X0216419Y0182605D01*
X0216182Y0183015D01*
X0215847Y0183351D01*
X0215436Y0183588D01*
X0214978Y0183710D01*
X0213167Y0183710D01*
X0213167Y0180729D01*
X0213167Y0177748D01*
X0213167Y0180729D01*
X0213167Y0180729D01*
X0213167Y0180729D01*
X0209792Y0180729D01*
X0209792Y0179311D01*
X0209915Y0178853D01*
X0210151Y0178443D01*
X0209792Y0180018D02*
X0159125Y0180018D01*
X0159111Y0179994D02*
X0159348Y0180404D01*
X0159471Y0180862D01*
X0159471Y0183395D01*
X0154863Y0183395D01*
X0154863Y0179299D01*
X0157908Y0179299D01*
X0158365Y0179422D01*
X0158776Y0179659D01*
X0159111Y0179994D01*
X0159471Y0181616D02*
X0209792Y0181616D01*
X0209792Y0182147D02*
X0209792Y0180729D01*
X0213167Y0180729D01*
X0213167Y0180729D01*
X0213167Y0183710D01*
X0211355Y0183710D01*
X0210897Y0183588D01*
X0210487Y0183351D01*
X0210151Y0183015D01*
X0209915Y0182605D01*
X0209792Y0182147D01*
X0210351Y0183215D02*
X0159471Y0183215D01*
X0159471Y0184813D02*
X0210363Y0184813D01*
X0213167Y0183215D02*
X0213167Y0183215D01*
X0213167Y0181616D02*
X0213167Y0181616D01*
X0213167Y0180018D02*
X0213167Y0180018D01*
X0213167Y0178419D02*
X0213167Y0178419D01*
X0216158Y0178419D02*
X0218175Y0178419D01*
X0218151Y0178443D02*
X0218487Y0178108D01*
X0218897Y0177871D01*
X0219355Y0177748D01*
X0221167Y0177748D01*
X0222978Y0177748D01*
X0223436Y0177871D01*
X0223847Y0178108D01*
X0224182Y0178443D01*
X0224419Y0178853D01*
X0224541Y0179311D01*
X0224541Y0180729D01*
X0221167Y0180729D01*
X0221167Y0180729D01*
X0224541Y0180729D01*
X0224541Y0182147D01*
X0224419Y0182605D01*
X0224182Y0183015D01*
X0223847Y0183351D01*
X0223436Y0183588D01*
X0222978Y0183710D01*
X0221167Y0183710D01*
X0221167Y0180729D01*
X0221167Y0177748D01*
X0221167Y0180729D01*
X0221167Y0180729D01*
X0221167Y0180729D01*
X0217792Y0180729D01*
X0217792Y0179311D01*
X0217915Y0178853D01*
X0218151Y0178443D01*
X0217792Y0180018D02*
X0216541Y0180018D01*
X0217792Y0180729D02*
X0221167Y0180729D01*
X0221167Y0180729D01*
X0221167Y0183710D01*
X0219355Y0183710D01*
X0218897Y0183588D01*
X0218487Y0183351D01*
X0218151Y0183015D01*
X0217915Y0182605D01*
X0217792Y0182147D01*
X0217792Y0180729D01*
X0217792Y0181616D02*
X0216541Y0181616D01*
X0215982Y0183215D02*
X0218351Y0183215D01*
X0218363Y0184813D02*
X0215970Y0184813D01*
X0216341Y0186412D02*
X0217992Y0186412D01*
X0217415Y0188011D02*
X0216341Y0188011D01*
X0215817Y0189609D02*
X0215605Y0189609D01*
X0214218Y0191208D02*
X0208341Y0191208D01*
X0208341Y0192806D02*
X0210571Y0192806D01*
X0210729Y0189609D02*
X0209757Y0189609D01*
X0207014Y0186412D02*
X0159471Y0186412D01*
X0159214Y0188011D02*
X0205415Y0188011D01*
X0216341Y0196003D02*
X0233567Y0196003D01*
X0233567Y0194405D02*
X0231666Y0194405D01*
X0232367Y0192806D02*
X0232475Y0192806D01*
X0233558Y0197602D02*
X0233567Y0197602D01*
X0228776Y0197602D02*
X0215813Y0197602D01*
X0215857Y0199200D02*
X0227992Y0199200D01*
X0220646Y0200799D02*
X0219687Y0200799D01*
X0219687Y0202397D02*
X0220646Y0202397D01*
X0220646Y0203996D02*
X0219687Y0203996D01*
X0220167Y0204532D02*
X0218820Y0205879D01*
X0215167Y0205879D01*
X0213667Y0207379D01*
X0212667Y0207379D01*
X0212071Y0205594D02*
X0215414Y0205594D01*
X0215414Y0207193D02*
X0210472Y0207193D01*
X0208874Y0208791D02*
X0215614Y0208791D01*
X0223605Y0189609D02*
X0227229Y0189609D01*
X0226492Y0188011D02*
X0224341Y0188011D01*
X0224341Y0186412D02*
X0226492Y0186412D01*
X0226863Y0184813D02*
X0223970Y0184813D01*
X0223982Y0183215D02*
X0226851Y0183215D01*
X0226987Y0183351D02*
X0226651Y0183015D01*
X0226415Y0182605D01*
X0226292Y0182147D01*
X0226292Y0180729D01*
X0226292Y0179311D01*
X0226415Y0178853D01*
X0226651Y0178443D01*
X0226987Y0178108D01*
X0227397Y0177871D01*
X0227855Y0177748D01*
X0229667Y0177748D01*
X0229667Y0180729D01*
X0229667Y0180729D01*
X0229667Y0180729D01*
X0226292Y0180729D01*
X0229667Y0180729D01*
X0229667Y0180729D01*
X0229667Y0183710D01*
X0227855Y0183710D01*
X0227397Y0183588D01*
X0226987Y0183351D01*
X0226292Y0181616D02*
X0224541Y0181616D01*
X0224541Y0180018D02*
X0226292Y0180018D01*
X0226675Y0178419D02*
X0224158Y0178419D01*
X0221167Y0178419D02*
X0221167Y0178419D01*
X0221167Y0180018D02*
X0221167Y0180018D01*
X0221167Y0181616D02*
X0221167Y0181616D01*
X0221167Y0183215D02*
X0221167Y0183215D01*
X0229667Y0183215D02*
X0229667Y0183215D01*
X0229667Y0181616D02*
X0229667Y0181616D01*
X0229667Y0180018D02*
X0229667Y0180018D01*
X0229667Y0178419D02*
X0229667Y0178419D01*
X0238187Y0178419D02*
X0239146Y0178419D01*
X0239146Y0176821D02*
X0238187Y0176821D01*
X0238187Y0180018D02*
X0239146Y0180018D01*
X0251603Y0176821D02*
X0292288Y0176821D01*
X0292288Y0178419D02*
X0252116Y0178419D01*
X0268670Y0196003D02*
X0292288Y0196003D01*
X0292288Y0194405D02*
X0270268Y0194405D01*
X0271867Y0192806D02*
X0292288Y0192806D01*
X0292288Y0191208D02*
X0281268Y0191208D01*
X0282380Y0189609D02*
X0292288Y0189609D01*
X0292288Y0188011D02*
X0282817Y0188011D01*
X0282773Y0186412D02*
X0292288Y0186412D01*
X0292288Y0184813D02*
X0282111Y0184813D01*
X0280618Y0183215D02*
X0292288Y0183215D01*
X0292288Y0175222D02*
X0111567Y0175222D01*
X0111567Y0173624D02*
X0292288Y0173624D01*
X0292288Y0172025D02*
X0111567Y0172025D01*
X0111567Y0170427D02*
X0292288Y0170427D01*
X0292288Y0162434D02*
X0277034Y0162434D01*
X0279060Y0160836D02*
X0292288Y0160836D01*
X0292288Y0159237D02*
X0280009Y0159237D01*
X0280517Y0157639D02*
X0292288Y0157639D01*
X0292288Y0156040D02*
X0280517Y0156040D01*
X0280084Y0154442D02*
X0292288Y0154442D01*
X0292288Y0152843D02*
X0279241Y0152843D01*
X0277472Y0151245D02*
X0292288Y0151245D01*
X0292288Y0140055D02*
X0279801Y0140055D01*
X0280463Y0138457D02*
X0292288Y0138457D01*
X0292288Y0136858D02*
X0280517Y0136858D01*
X0280293Y0135260D02*
X0292288Y0135260D01*
X0292288Y0133661D02*
X0279630Y0133661D01*
X0278146Y0132063D02*
X0292288Y0132063D01*
X0267817Y0119275D02*
X0187052Y0119275D01*
X0187548Y0117676D02*
X0267817Y0117676D01*
X0267817Y0116078D02*
X0187548Y0116078D01*
X0186049Y0114479D02*
X0267817Y0114479D01*
X0267817Y0112880D02*
X0183062Y0112880D01*
X0181464Y0111282D02*
X0192392Y0111282D01*
X0190917Y0109683D02*
X0181712Y0109683D01*
X0181712Y0108085D02*
X0190255Y0108085D01*
X0190167Y0106486D02*
X0181712Y0106486D01*
X0181712Y0104888D02*
X0190167Y0104888D01*
X0190167Y0103289D02*
X0181712Y0103289D01*
X0180938Y0101691D02*
X0190167Y0101691D01*
X0201167Y0101691D02*
X0214420Y0101691D01*
X0213758Y0100092D02*
X0201423Y0100092D01*
X0201167Y0103289D02*
X0215899Y0103289D01*
X0213667Y0098494D02*
X0206021Y0098494D01*
X0206267Y0096895D02*
X0213667Y0096895D01*
X0213667Y0095297D02*
X0206267Y0095297D01*
X0206267Y0093698D02*
X0213667Y0093698D01*
X0213667Y0092100D02*
X0206267Y0092100D01*
X0206267Y0090501D02*
X0213667Y0090501D01*
X0214073Y0088903D02*
X0207424Y0088903D01*
X0207548Y0087304D02*
X0215063Y0087304D01*
X0224667Y0090501D02*
X0243074Y0090501D01*
X0241476Y0092100D02*
X0224667Y0092100D01*
X0224667Y0093698D02*
X0240567Y0093698D01*
X0238570Y0095297D02*
X0224667Y0095297D01*
X0224667Y0096895D02*
X0237576Y0096895D01*
X0237167Y0098494D02*
X0224667Y0098494D01*
X0224576Y0100092D02*
X0237167Y0100092D01*
X0237167Y0101691D02*
X0223914Y0101691D01*
X0222434Y0103289D02*
X0237167Y0103289D01*
X0237167Y0104888D02*
X0201167Y0104888D01*
X0201167Y0106486D02*
X0237167Y0106486D01*
X0237255Y0108085D02*
X0201079Y0108085D01*
X0200417Y0109683D02*
X0237917Y0109683D01*
X0239392Y0111282D02*
X0198942Y0111282D01*
X0184167Y0117379D02*
X0178143Y0111355D01*
X0178143Y0106276D01*
X0174575Y0108085D02*
X0163759Y0108085D01*
X0163759Y0109683D02*
X0174575Y0109683D01*
X0156622Y0103289D02*
X0153471Y0103289D01*
X0154167Y0117379D02*
X0134167Y0097379D01*
X0139167Y0117379D02*
X0145667Y0117379D01*
X0150667Y0122379D01*
X0145767Y0120873D02*
X0142461Y0120873D01*
X0139252Y0124070D02*
X0139081Y0124070D01*
X0139081Y0125669D02*
X0139252Y0125669D01*
X0139252Y0127267D02*
X0139081Y0127267D01*
X0139167Y0127379D02*
X0139167Y0142379D01*
X0139367Y0142579D02*
X0143967Y0142579D01*
X0143967Y0144367D01*
X0141155Y0147179D01*
X0139367Y0147179D01*
X0139367Y0142579D01*
X0139367Y0142179D01*
X0143967Y0142179D01*
X0143967Y0140391D01*
X0141155Y0137579D01*
X0139367Y0137579D01*
X0139367Y0142179D01*
X0138967Y0142179D01*
X0138967Y0137579D01*
X0137178Y0137579D01*
X0134367Y0140391D01*
X0134367Y0142179D01*
X0138967Y0142179D01*
X0138967Y0142579D01*
X0138967Y0147179D01*
X0137178Y0147179D01*
X0134367Y0144367D01*
X0134367Y0142579D01*
X0138967Y0142579D01*
X0139367Y0142579D01*
X0139367Y0143252D02*
X0138967Y0143252D01*
X0138967Y0141654D02*
X0139367Y0141654D01*
X0139367Y0140055D02*
X0138967Y0140055D01*
X0138967Y0138457D02*
X0139367Y0138457D01*
X0142033Y0138457D02*
X0151767Y0138457D01*
X0151767Y0140055D02*
X0143631Y0140055D01*
X0143967Y0141654D02*
X0151498Y0141654D01*
X0154167Y0142379D02*
X0151667Y0144879D01*
X0147167Y0144879D01*
X0143967Y0144851D02*
X0143483Y0144851D01*
X0143967Y0143252D02*
X0144268Y0143252D01*
X0144212Y0146449D02*
X0141884Y0146449D01*
X0139367Y0146449D02*
X0138967Y0146449D01*
X0138967Y0144851D02*
X0139367Y0144851D01*
X0136449Y0146449D02*
X0131602Y0146449D01*
X0133200Y0144851D02*
X0134850Y0144851D01*
X0134367Y0143252D02*
X0133767Y0143252D01*
X0133767Y0141654D02*
X0134367Y0141654D01*
X0134702Y0140055D02*
X0133348Y0140055D01*
X0131750Y0138457D02*
X0136301Y0138457D01*
X0137402Y0132063D02*
X0130402Y0132063D01*
X0129167Y0129879D02*
X0129167Y0127379D01*
X0129167Y0129879D02*
X0124167Y0134879D01*
X0120786Y0135260D02*
X0110442Y0135260D01*
X0108843Y0133661D02*
X0120786Y0133661D01*
X0123348Y0140055D02*
X0124985Y0140055D01*
X0124567Y0141654D02*
X0123767Y0141654D01*
X0123767Y0143252D02*
X0124567Y0143252D01*
X0125133Y0144851D02*
X0123200Y0144851D01*
X0121602Y0146449D02*
X0126732Y0146449D01*
X0121567Y0148048D02*
X0145810Y0148048D01*
X0148523Y0148048D02*
X0190167Y0148048D01*
X0190167Y0149646D02*
X0121567Y0149646D01*
X0121406Y0151245D02*
X0190167Y0151245D01*
X0190167Y0152843D02*
X0120548Y0152843D01*
X0119885Y0154442D02*
X0190167Y0154442D01*
X0190236Y0156040D02*
X0090548Y0156040D01*
X0090548Y0157639D02*
X0190898Y0157639D01*
X0192347Y0159237D02*
X0090090Y0159237D01*
X0089267Y0154442D02*
X0114448Y0154442D01*
X0113786Y0152843D02*
X0089267Y0152843D01*
X0089267Y0151245D02*
X0113786Y0151245D01*
X0115118Y0149646D02*
X0089267Y0149646D01*
X0089267Y0148048D02*
X0116767Y0148048D01*
X0119167Y0150379D02*
X0117167Y0152379D01*
X0119167Y0150379D02*
X0119167Y0142379D01*
X0106732Y0146449D02*
X0101602Y0146449D01*
X0103200Y0144851D02*
X0105133Y0144851D01*
X0104567Y0143252D02*
X0103767Y0143252D01*
X0103767Y0141654D02*
X0104567Y0141654D01*
X0104985Y0140055D02*
X0103348Y0140055D01*
X0096583Y0138457D02*
X0091750Y0138457D01*
X0093348Y0140055D02*
X0094985Y0140055D01*
X0094567Y0141654D02*
X0093767Y0141654D01*
X0093767Y0143252D02*
X0094567Y0143252D01*
X0095133Y0144851D02*
X0093200Y0144851D01*
X0091602Y0146449D02*
X0096732Y0146449D01*
X0096767Y0136858D02*
X0083081Y0136858D01*
X0081567Y0138457D02*
X0086583Y0138457D01*
X0084985Y0140055D02*
X0081567Y0140055D01*
X0081567Y0141654D02*
X0084567Y0141654D01*
X0084567Y0143252D02*
X0081567Y0143252D01*
X0081567Y0144851D02*
X0085067Y0144851D01*
X0085067Y0146449D02*
X0081567Y0146449D01*
X0081567Y0148048D02*
X0085067Y0148048D01*
X0085067Y0149646D02*
X0081567Y0149646D01*
X0081567Y0151245D02*
X0085067Y0151245D01*
X0085067Y0152843D02*
X0081567Y0152843D01*
X0081567Y0154442D02*
X0085067Y0154442D01*
X0083786Y0156040D02*
X0081567Y0156040D01*
X0082821Y0157639D02*
X0083786Y0157639D01*
X0080828Y0162434D02*
X0063919Y0162434D01*
X0063919Y0165631D02*
X0104025Y0165631D01*
X0105624Y0167230D02*
X0063602Y0167230D01*
X0065167Y0168639D02*
X0065167Y0171379D01*
X0064167Y0172379D01*
X0065130Y0172025D02*
X0065203Y0172025D01*
X0065203Y0172059D02*
X0065203Y0168622D01*
X0067175Y0168622D01*
X0067633Y0168745D01*
X0068044Y0168982D01*
X0068379Y0169317D01*
X0068616Y0169727D01*
X0068738Y0170185D01*
X0068738Y0172059D01*
X0065203Y0172059D01*
X0065167Y0172095D02*
X0065167Y0171379D01*
X0065130Y0170427D02*
X0065203Y0170427D01*
X0065203Y0168828D02*
X0065130Y0168828D01*
X0067778Y0168828D02*
X0106767Y0168828D01*
X0106740Y0170427D02*
X0106767Y0170427D01*
X0104167Y0172379D02*
X0099167Y0177379D01*
X0079167Y0177379D01*
X0076883Y0175095D01*
X0074167Y0175095D01*
X0074167Y0179662D02*
X0074167Y0182379D01*
X0069167Y0182379D01*
X0064167Y0187379D01*
X0054167Y0187379D01*
X0051871Y0189609D02*
X0051567Y0189609D01*
X0051567Y0191208D02*
X0065917Y0191208D01*
X0065917Y0192806D02*
X0051567Y0192806D01*
X0051567Y0194405D02*
X0066410Y0194405D01*
X0065917Y0196003D02*
X0051567Y0196003D01*
X0051567Y0197602D02*
X0065917Y0197602D01*
X0065917Y0199200D02*
X0060770Y0199200D01*
X0062368Y0200799D02*
X0065917Y0200799D01*
X0068267Y0202397D02*
X0062548Y0202397D01*
X0062331Y0203996D02*
X0068267Y0203996D01*
X0067557Y0205594D02*
X0060733Y0205594D01*
X0057600Y0205594D02*
X0020573Y0205594D01*
X0020967Y0207193D02*
X0065959Y0207193D01*
X0064360Y0208791D02*
X0020728Y0208791D01*
X0019695Y0210390D02*
X0062762Y0210390D01*
X0066353Y0213587D02*
X0104565Y0213587D01*
X0105786Y0211988D02*
X0067951Y0211988D01*
X0069550Y0210390D02*
X0106374Y0210390D01*
X0109167Y0212379D02*
X0104167Y0217379D01*
X0099167Y0217379D01*
X0096579Y0215185D02*
X0064754Y0215185D01*
X0063156Y0216784D02*
X0083417Y0216784D01*
X0083417Y0216266D02*
X0084354Y0215329D01*
X0093979Y0215329D01*
X0094917Y0216266D01*
X0094917Y0223091D01*
X0093979Y0224029D01*
X0084354Y0224029D01*
X0083417Y0223091D01*
X0083417Y0216266D01*
X0083417Y0218382D02*
X0061557Y0218382D01*
X0059167Y0217379D02*
X0070667Y0205879D01*
X0070667Y0198119D01*
X0073067Y0202397D02*
X0080786Y0202397D01*
X0081002Y0203996D02*
X0073067Y0203996D01*
X0073067Y0205594D02*
X0082600Y0205594D01*
X0085733Y0205594D02*
X0097600Y0205594D01*
X0096002Y0203996D02*
X0087331Y0203996D01*
X0087548Y0202397D02*
X0095786Y0202397D01*
X0095965Y0200799D02*
X0087368Y0200799D01*
X0085770Y0199200D02*
X0096767Y0199200D01*
X0096767Y0197602D02*
X0083719Y0197602D01*
X0083719Y0196003D02*
X0096767Y0196003D01*
X0096767Y0194405D02*
X0083719Y0194405D01*
X0083719Y0192806D02*
X0096767Y0192806D01*
X0096767Y0191208D02*
X0083719Y0191208D01*
X0089718Y0189609D02*
X0096767Y0189609D01*
X0096767Y0188011D02*
X0090548Y0188011D01*
X0090548Y0186412D02*
X0096969Y0186412D01*
X0095820Y0184813D02*
X0089383Y0184813D01*
X0098167Y0182379D02*
X0074167Y0182379D01*
X0074167Y0187139D01*
X0070667Y0190639D01*
X0065917Y0189609D02*
X0065054Y0189609D01*
X0057564Y0199200D02*
X0051567Y0199200D01*
X0049167Y0202379D02*
X0059167Y0202379D01*
X0049167Y0202379D02*
X0049167Y0170725D01*
X0044614Y0170427D02*
X0043719Y0170427D01*
X0043719Y0172025D02*
X0044614Y0172025D01*
X0044614Y0173624D02*
X0043719Y0173624D01*
X0039167Y0170725D02*
X0037167Y0172725D01*
X0039167Y0170725D02*
X0031513Y0170725D01*
X0030167Y0169379D01*
X0030167Y0168379D01*
X0032201Y0165631D02*
X0034414Y0165631D01*
X0034522Y0167230D02*
X0033548Y0167230D01*
X0028132Y0165631D02*
X0020815Y0165631D01*
X0021167Y0167230D02*
X0026786Y0167230D01*
X0019643Y0164033D02*
X0038687Y0164033D01*
X0039646Y0164033D02*
X0048687Y0164033D01*
X0049646Y0164033D02*
X0058687Y0164033D01*
X0059646Y0164033D02*
X0082427Y0164033D01*
X0082132Y0163738D02*
X0082132Y0163738D01*
X0076804Y0172025D02*
X0100967Y0172025D01*
X0101593Y0170427D02*
X0068738Y0170427D01*
X0068738Y0172025D02*
X0071529Y0172025D01*
X0070795Y0173624D02*
X0068738Y0173624D01*
X0078806Y0173624D02*
X0099527Y0173624D01*
X0104167Y0177379D02*
X0104167Y0182379D01*
X0099167Y0187379D01*
X0099167Y0202379D01*
X0102548Y0202397D02*
X0111767Y0202397D01*
X0111767Y0200799D02*
X0102368Y0200799D01*
X0101567Y0199200D02*
X0111767Y0199200D01*
X0111767Y0197602D02*
X0101567Y0197602D01*
X0101567Y0196003D02*
X0111767Y0196003D01*
X0111767Y0194405D02*
X0101567Y0194405D01*
X0101567Y0192806D02*
X0111767Y0192806D01*
X0111767Y0191208D02*
X0101567Y0191208D01*
X0101567Y0189609D02*
X0111767Y0189609D01*
X0111404Y0188011D02*
X0101929Y0188011D01*
X0103527Y0186412D02*
X0109806Y0186412D01*
X0108207Y0184813D02*
X0105126Y0184813D01*
X0106418Y0183215D02*
X0106915Y0183215D01*
X0107807Y0184413D02*
X0107807Y0184413D01*
X0106767Y0181616D02*
X0106567Y0181616D01*
X0106567Y0180018D02*
X0106767Y0180018D01*
X0111567Y0180018D02*
X0129481Y0180018D01*
X0129063Y0181616D02*
X0125839Y0181616D01*
X0126116Y0183215D02*
X0129063Y0183215D01*
X0127578Y0184813D02*
X0121646Y0184813D01*
X0120687Y0184813D02*
X0114996Y0184813D01*
X0116217Y0183215D02*
X0113397Y0183215D01*
X0111798Y0181616D02*
X0116495Y0181616D01*
X0120687Y0181616D02*
X0121646Y0181616D01*
X0121646Y0183215D02*
X0120687Y0183215D01*
X0124167Y0191619D02*
X0124167Y0192379D01*
X0124167Y0191619D02*
X0131694Y0184091D01*
X0129571Y0189609D02*
X0142067Y0189609D01*
X0142067Y0191208D02*
X0127972Y0191208D01*
X0126567Y0192806D02*
X0142067Y0192806D01*
X0143223Y0194405D02*
X0125916Y0194405D01*
X0125754Y0196003D02*
X0144821Y0196003D01*
X0146420Y0197602D02*
X0116567Y0197602D01*
X0116567Y0199200D02*
X0148018Y0199200D01*
X0149617Y0200799D02*
X0116567Y0200799D01*
X0116567Y0202397D02*
X0151215Y0202397D01*
X0149120Y0188011D02*
X0149006Y0188011D01*
X0153471Y0188011D02*
X0154863Y0188011D01*
X0154863Y0186412D02*
X0153471Y0186412D01*
X0153471Y0184813D02*
X0154863Y0184813D01*
X0154863Y0183215D02*
X0153471Y0183215D01*
X0153471Y0181616D02*
X0154863Y0181616D01*
X0154863Y0180018D02*
X0153471Y0180018D01*
X0149209Y0180018D02*
X0148852Y0180018D01*
X0139481Y0180018D02*
X0138852Y0180018D01*
X0139006Y0188011D02*
X0139327Y0188011D01*
X0116579Y0196003D02*
X0116567Y0196003D01*
X0111767Y0203996D02*
X0102331Y0203996D01*
X0100733Y0205594D02*
X0111767Y0205594D01*
X0111767Y0207193D02*
X0072720Y0207193D01*
X0071148Y0208791D02*
X0111767Y0208791D01*
X0111767Y0215185D02*
X0111142Y0215185D01*
X0111767Y0216784D02*
X0108156Y0216784D01*
X0106557Y0218382D02*
X0111767Y0218382D01*
X0111767Y0219981D02*
X0101346Y0219981D01*
X0096987Y0219981D02*
X0094917Y0219981D01*
X0094917Y0221579D02*
X0111767Y0221579D01*
X0111767Y0223178D02*
X0094830Y0223178D01*
X0094917Y0218382D02*
X0095786Y0218382D01*
X0095786Y0216784D02*
X0094917Y0216784D01*
X0106346Y0224776D02*
X0111767Y0224776D01*
X0123406Y0229572D02*
X0124927Y0229572D01*
X0114063Y0237564D02*
X0110097Y0237564D01*
X0100860Y0234367D02*
X0094917Y0234367D01*
X0094917Y0233966D02*
X0093979Y0233029D01*
X0084354Y0233029D01*
X0083417Y0233966D01*
X0083417Y0240791D01*
X0084354Y0241729D01*
X0093979Y0241729D01*
X0094917Y0240791D01*
X0094917Y0233966D01*
X0094917Y0235966D02*
X0100598Y0235966D01*
X0100598Y0237564D02*
X0094917Y0237564D01*
X0094917Y0239163D02*
X0096558Y0239163D01*
X0095786Y0240761D02*
X0094917Y0240761D01*
X0094193Y0243958D02*
X0092066Y0243958D01*
X0092907Y0252379D02*
X0087907Y0257379D01*
X0091715Y0261542D02*
X0099246Y0261542D01*
X0099217Y0261435D02*
X0099217Y0259118D01*
X0103687Y0259118D01*
X0103687Y0258159D01*
X0099217Y0258159D01*
X0099217Y0255843D01*
X0099340Y0255385D01*
X0099577Y0254974D01*
X0099912Y0254639D01*
X0100322Y0254402D01*
X0100780Y0254280D01*
X0103687Y0254280D01*
X0103687Y0258159D01*
X0104646Y0258159D01*
X0104646Y0259118D01*
X0109116Y0259118D01*
X0109116Y0261435D01*
X0108994Y0261892D01*
X0108757Y0262303D01*
X0108539Y0262520D01*
X0108916Y0262897D01*
X0108916Y0264019D01*
X0109557Y0264019D01*
X0118297Y0255279D01*
X0125037Y0255279D01*
X0126267Y0256509D01*
X0131267Y0261509D01*
X0131267Y0266074D01*
X0133333Y0266074D01*
X0134167Y0266907D01*
X0135000Y0266074D01*
X0142502Y0266074D01*
X0148297Y0260279D01*
X0149555Y0260279D01*
X0150354Y0259480D01*
X0157979Y0259480D01*
X0158916Y0260417D01*
X0158916Y0266860D01*
X0158398Y0267379D01*
X0158916Y0267897D01*
X0158916Y0274341D01*
X0157979Y0275278D01*
X0150354Y0275278D01*
X0149417Y0274341D01*
X0149417Y0272410D01*
X0149067Y0272760D01*
X0146266Y0272760D01*
X0144286Y0270779D01*
X0144286Y0270230D01*
X0144271Y0270245D01*
X0144271Y0274321D01*
X0143333Y0275258D01*
X0135000Y0275258D01*
X0134167Y0274425D01*
X0133333Y0275258D01*
X0125000Y0275258D01*
X0124167Y0274425D01*
X0123333Y0275258D01*
X0115000Y0275258D01*
X0114063Y0274321D01*
X0114063Y0267011D01*
X0115000Y0266074D01*
X0123333Y0266074D01*
X0124167Y0266907D01*
X0125000Y0266074D01*
X0127067Y0266074D01*
X0127067Y0263249D01*
X0123297Y0259479D01*
X0120037Y0259479D01*
X0112526Y0266989D01*
X0111296Y0268219D01*
X0108916Y0268219D01*
X0108916Y0269341D01*
X0107979Y0270278D01*
X0100354Y0270278D01*
X0099417Y0269341D01*
X0099417Y0262897D01*
X0099794Y0262520D01*
X0099577Y0262303D01*
X0099340Y0261892D01*
X0099217Y0261435D01*
X0099217Y0259944D02*
X0092066Y0259944D01*
X0092066Y0258345D02*
X0103687Y0258345D01*
X0103687Y0256747D02*
X0104646Y0256747D01*
X0104646Y0255148D02*
X0103687Y0255148D01*
X0099476Y0255148D02*
X0096179Y0255148D01*
X0094167Y0252379D02*
X0092907Y0252379D01*
X0092066Y0256747D02*
X0099217Y0256747D01*
X0099417Y0263141D02*
X0056311Y0263141D01*
X0056770Y0261542D02*
X0076618Y0261542D01*
X0069338Y0259944D02*
X0069195Y0259944D01*
X0069195Y0259978D02*
X0069072Y0260436D01*
X0068835Y0260846D01*
X0068500Y0261181D01*
X0068090Y0261418D01*
X0067632Y0261541D01*
X0065414Y0261541D01*
X0065414Y0257760D01*
X0064652Y0257760D01*
X0064652Y0256998D01*
X0065414Y0256998D01*
X0065414Y0257760D01*
X0069195Y0257760D01*
X0069195Y0259978D01*
X0069195Y0258345D02*
X0069338Y0258345D01*
X0069195Y0256998D02*
X0069195Y0254780D01*
X0069072Y0254322D01*
X0068835Y0253911D01*
X0068500Y0253576D01*
X0068090Y0253339D01*
X0067632Y0253217D01*
X0065414Y0253217D01*
X0065414Y0256998D01*
X0069195Y0256998D01*
X0069195Y0256747D02*
X0069338Y0256747D01*
X0069338Y0255148D02*
X0069195Y0255148D01*
X0068454Y0253549D02*
X0070143Y0253549D01*
X0069338Y0250352D02*
X0069095Y0250352D01*
X0069195Y0248754D02*
X0069338Y0248754D01*
X0069338Y0247155D02*
X0065414Y0247155D01*
X0065414Y0246998D02*
X0069195Y0246998D01*
X0069195Y0244780D01*
X0069072Y0244322D01*
X0068835Y0243911D01*
X0068500Y0243576D01*
X0068090Y0243339D01*
X0067632Y0243217D01*
X0065414Y0243217D01*
X0065414Y0246998D01*
X0064652Y0247155D02*
X0028967Y0247155D01*
X0028967Y0245557D02*
X0027367Y0245557D01*
X0027367Y0247155D02*
X0005967Y0247155D01*
X0005967Y0245557D02*
X0018089Y0245557D01*
X0018561Y0243958D02*
X0005967Y0243958D01*
X0005967Y0242360D02*
X0019354Y0242360D01*
X0020533Y0240761D02*
X0005967Y0240761D01*
X0005967Y0239163D02*
X0022384Y0239163D01*
X0027367Y0239163D02*
X0028967Y0239163D01*
X0028967Y0240761D02*
X0027367Y0240761D01*
X0027367Y0242360D02*
X0028967Y0242360D01*
X0028967Y0243958D02*
X0027367Y0243958D01*
X0027367Y0248754D02*
X0028967Y0248754D01*
X0028967Y0250352D02*
X0027367Y0250352D01*
X0027367Y0251951D02*
X0028967Y0251951D01*
X0028967Y0253549D02*
X0027367Y0253549D01*
X0027367Y0255148D02*
X0028967Y0255148D01*
X0028967Y0256747D02*
X0027367Y0256747D01*
X0025619Y0261542D02*
X0005967Y0261542D01*
X0005967Y0259944D02*
X0045871Y0259944D01*
X0045871Y0258705D02*
X0036396Y0258705D01*
X0036500Y0257777D01*
X0036758Y0256649D01*
X0037140Y0255557D01*
X0037642Y0254515D01*
X0038257Y0253535D01*
X0038978Y0252631D01*
X0039796Y0251812D01*
X0040701Y0251091D01*
X0041680Y0250476D01*
X0042723Y0249974D01*
X0043815Y0249592D01*
X0044943Y0249334D01*
X0045871Y0249230D01*
X0045871Y0258705D01*
X0045871Y0261542D02*
X0047471Y0261542D01*
X0047471Y0263141D02*
X0045871Y0263141D01*
X0045871Y0264739D02*
X0047471Y0264739D01*
X0047471Y0266338D02*
X0045871Y0266338D01*
X0045871Y0267936D02*
X0047471Y0267936D01*
X0047471Y0269535D02*
X0045871Y0269535D01*
X0044327Y0269535D02*
X0038146Y0269535D01*
X0038267Y0271133D02*
X0114063Y0271133D01*
X0114063Y0269535D02*
X0108722Y0269535D01*
X0111579Y0267936D02*
X0114063Y0267936D01*
X0114736Y0266338D02*
X0113178Y0266338D01*
X0114776Y0264739D02*
X0127067Y0264739D01*
X0126959Y0263141D02*
X0116375Y0263141D01*
X0117973Y0261542D02*
X0125360Y0261542D01*
X0123762Y0259944D02*
X0119572Y0259944D01*
X0113632Y0259944D02*
X0109116Y0259944D01*
X0109087Y0261542D02*
X0112034Y0261542D01*
X0110435Y0263141D02*
X0108916Y0263141D01*
X0099417Y0264739D02*
X0055546Y0264739D01*
X0054396Y0266338D02*
X0099417Y0266338D01*
X0099417Y0267936D02*
X0052612Y0267936D01*
X0049015Y0269535D02*
X0099611Y0269535D01*
X0114063Y0272732D02*
X0038244Y0272732D01*
X0037815Y0274330D02*
X0114072Y0274330D01*
X0123597Y0266338D02*
X0124736Y0266338D01*
X0131267Y0264739D02*
X0143836Y0264739D01*
X0145435Y0263141D02*
X0131267Y0263141D01*
X0131267Y0261542D02*
X0147034Y0261542D01*
X0149890Y0259944D02*
X0129701Y0259944D01*
X0128103Y0258345D02*
X0160992Y0258345D01*
X0160992Y0259944D02*
X0158443Y0259944D01*
X0158916Y0261542D02*
X0161461Y0261542D01*
X0161536Y0263141D02*
X0158916Y0263141D01*
X0158916Y0264739D02*
X0160992Y0264739D01*
X0160992Y0266338D02*
X0158916Y0266338D01*
X0158916Y0267936D02*
X0161556Y0267936D01*
X0161767Y0269535D02*
X0158916Y0269535D01*
X0158916Y0271133D02*
X0161631Y0271133D01*
X0160786Y0272732D02*
X0158916Y0272732D01*
X0158916Y0274330D02*
X0160786Y0274330D01*
X0161935Y0275929D02*
X0037166Y0275929D01*
X0037717Y0267936D02*
X0040729Y0267936D01*
X0038945Y0266338D02*
X0036955Y0266338D01*
X0037795Y0264739D02*
X0035874Y0264739D01*
X0037030Y0263141D02*
X0034207Y0263141D01*
X0036571Y0261542D02*
X0030714Y0261542D01*
X0033107Y0256747D02*
X0036735Y0256747D01*
X0036436Y0258345D02*
X0005967Y0258345D01*
X0005967Y0256747D02*
X0023226Y0256747D01*
X0021055Y0255148D02*
X0005967Y0255148D01*
X0005967Y0253549D02*
X0019682Y0253549D01*
X0018785Y0251951D02*
X0005967Y0251951D01*
X0005967Y0250352D02*
X0018209Y0250352D01*
X0017921Y0248754D02*
X0005967Y0248754D01*
X0005967Y0263141D02*
X0022127Y0263141D01*
X0020460Y0264739D02*
X0005967Y0264739D01*
X0005967Y0266338D02*
X0019378Y0266338D01*
X0018616Y0267936D02*
X0005967Y0267936D01*
X0006323Y0269535D02*
X0018188Y0269535D01*
X0018067Y0271133D02*
X0007921Y0271133D01*
X0009520Y0272732D02*
X0018090Y0272732D01*
X0018518Y0274330D02*
X0011118Y0274330D01*
X0012717Y0275929D02*
X0019167Y0275929D01*
X0035279Y0255148D02*
X0037337Y0255148D01*
X0036652Y0253549D02*
X0038248Y0253549D01*
X0037549Y0251951D02*
X0039658Y0251951D01*
X0038125Y0250352D02*
X0041936Y0250352D01*
X0045871Y0250352D02*
X0047471Y0250352D01*
X0047471Y0251951D02*
X0045871Y0251951D01*
X0045871Y0253549D02*
X0047471Y0253549D01*
X0047471Y0255148D02*
X0045871Y0255148D01*
X0047423Y0240761D02*
X0035801Y0240761D01*
X0033950Y0239163D02*
X0047317Y0239163D01*
X0052692Y0239163D02*
X0053842Y0239163D01*
X0053842Y0240761D02*
X0052692Y0240761D01*
X0053842Y0237564D02*
X0083417Y0237564D01*
X0083417Y0235966D02*
X0059217Y0235966D01*
X0059217Y0236804D02*
X0053842Y0236804D01*
X0053842Y0232829D01*
X0057654Y0232829D01*
X0058111Y0232951D01*
X0058522Y0233188D01*
X0058857Y0233524D01*
X0059094Y0233934D01*
X0059217Y0234392D01*
X0059217Y0236804D01*
X0059167Y0237379D02*
X0064167Y0242379D01*
X0063267Y0243279D01*
X0063267Y0245198D01*
X0064652Y0245557D02*
X0065414Y0245557D01*
X0065414Y0243958D02*
X0064652Y0243958D01*
X0068863Y0243958D02*
X0069734Y0243958D01*
X0069338Y0245557D02*
X0069195Y0245557D01*
X0065414Y0250352D02*
X0064652Y0250352D01*
X0064652Y0253549D02*
X0065414Y0253549D01*
X0065414Y0255148D02*
X0064652Y0255148D01*
X0064652Y0256747D02*
X0065414Y0256747D01*
X0065414Y0258345D02*
X0064652Y0258345D01*
X0064652Y0259944D02*
X0065414Y0259944D01*
X0059111Y0240761D02*
X0083417Y0240761D01*
X0083417Y0239163D02*
X0059217Y0239163D01*
X0059210Y0234367D02*
X0083417Y0234367D01*
X0083503Y0223178D02*
X0058930Y0223178D01*
X0059017Y0221579D02*
X0083417Y0221579D01*
X0083417Y0219981D02*
X0059017Y0219981D01*
X0047389Y0203996D02*
X0019323Y0203996D01*
X0007775Y0199200D02*
X0005967Y0199200D01*
X0005967Y0197602D02*
X0007367Y0197602D01*
X0007590Y0196003D02*
X0005967Y0196003D01*
X0005967Y0194405D02*
X0008601Y0194405D01*
X0020389Y0189609D02*
X0028003Y0189609D01*
X0026404Y0188011D02*
X0020967Y0188011D01*
X0020912Y0186412D02*
X0024806Y0186412D01*
X0023207Y0184813D02*
X0020141Y0184813D01*
X0021915Y0183215D02*
X0017690Y0183215D01*
X0007452Y0178419D02*
X0005967Y0178419D01*
X0005967Y0176821D02*
X0007367Y0176821D01*
X0007914Y0175222D02*
X0005967Y0175222D01*
X0005967Y0173624D02*
X0009656Y0173624D01*
X0014167Y0170427D02*
X0014167Y0170427D01*
X0014167Y0168828D02*
X0014167Y0168828D01*
X0014167Y0167379D02*
X0014167Y0167379D01*
X0014167Y0167379D01*
X0007167Y0167379D01*
X0007519Y0165631D02*
X0005967Y0165631D01*
X0005967Y0164033D02*
X0008690Y0164033D01*
X0014167Y0164033D02*
X0014167Y0164033D01*
X0014167Y0165631D02*
X0014167Y0165631D01*
X0014167Y0167230D02*
X0014167Y0167230D01*
X0026885Y0154442D02*
X0076767Y0154442D01*
X0076767Y0152843D02*
X0027548Y0152843D01*
X0027548Y0151245D02*
X0076767Y0151245D01*
X0076767Y0149646D02*
X0026216Y0149646D01*
X0023230Y0148048D02*
X0076767Y0148048D01*
X0076767Y0146449D02*
X0061870Y0146449D01*
X0063210Y0144851D02*
X0076767Y0144851D01*
X0076767Y0143252D02*
X0063810Y0143252D01*
X0063810Y0141654D02*
X0076767Y0141654D01*
X0079167Y0137379D02*
X0084167Y0132379D01*
X0084167Y0110879D01*
X0082041Y0108753D01*
X0082041Y0104279D01*
X0078891Y0104279D02*
X0078891Y0099979D01*
X0080228Y0099979D01*
X0080686Y0100101D01*
X0078891Y0100092D02*
X0078891Y0100092D01*
X0078891Y0101691D02*
X0078891Y0101691D01*
X0078891Y0103289D02*
X0078891Y0103289D01*
X0078891Y0104279D02*
X0078891Y0104279D01*
X0078891Y0104888D02*
X0078891Y0104888D01*
X0078891Y0106486D02*
X0078891Y0106486D01*
X0078891Y0108085D02*
X0078891Y0108085D01*
X0078067Y0109683D02*
X0079828Y0109683D01*
X0079351Y0111282D02*
X0081176Y0111282D01*
X0081767Y0112880D02*
X0079548Y0112880D01*
X0079348Y0114479D02*
X0081767Y0114479D01*
X0081767Y0116078D02*
X0077749Y0116078D01*
X0074584Y0116078D02*
X0074048Y0116078D01*
X0074048Y0117676D02*
X0081767Y0117676D01*
X0081767Y0119275D02*
X0073552Y0119275D01*
X0070667Y0117379D02*
X0070667Y0112879D01*
X0069442Y0111654D01*
X0069442Y0104279D01*
X0069442Y0107103D01*
X0069167Y0107379D01*
X0071667Y0109879D01*
X0074667Y0109879D01*
X0075667Y0108879D01*
X0075667Y0112379D01*
X0076167Y0112879D01*
X0075741Y0108954D02*
X0075741Y0104279D01*
X0075667Y0104354D01*
X0075667Y0108879D01*
X0072592Y0104279D02*
X0072592Y0099979D01*
X0072592Y0104279D01*
X0072592Y0104279D01*
X0072592Y0103289D02*
X0072592Y0103289D01*
X0072592Y0101691D02*
X0072592Y0101691D01*
X0072592Y0100092D02*
X0072592Y0100092D01*
X0074353Y0100092D02*
X0077130Y0100092D01*
X0070831Y0100092D02*
X0061367Y0100092D01*
X0060443Y0101691D02*
X0059667Y0101691D01*
X0061367Y0096895D02*
X0086967Y0096895D01*
X0086967Y0095297D02*
X0061367Y0095297D01*
X0061367Y0093698D02*
X0086967Y0093698D01*
X0086967Y0092100D02*
X0061367Y0092100D01*
X0061367Y0090501D02*
X0086967Y0090501D01*
X0086967Y0088903D02*
X0061367Y0088903D01*
X0061367Y0087304D02*
X0086967Y0087304D01*
X0086967Y0085706D02*
X0061367Y0085706D01*
X0061367Y0084107D02*
X0086967Y0084107D01*
X0086967Y0082509D02*
X0061367Y0082509D01*
X0061367Y0080910D02*
X0086967Y0080910D01*
X0086967Y0079312D02*
X0061367Y0079312D01*
X0061367Y0077713D02*
X0086967Y0077713D01*
X0086967Y0076115D02*
X0061367Y0076115D01*
X0061318Y0074516D02*
X0061290Y0074516D01*
X0060443Y0072918D02*
X0059567Y0072918D01*
X0060008Y0071319D02*
X0060443Y0071319D01*
X0057167Y0069379D02*
X0057167Y0076255D01*
X0057267Y0076355D01*
X0053290Y0072379D01*
X0039167Y0072379D01*
X0034167Y0077379D01*
X0030786Y0077713D02*
X0020967Y0077713D01*
X0020967Y0078214D02*
X0020327Y0079758D01*
X0019146Y0080939D01*
X0017602Y0081579D01*
X0010731Y0081579D01*
X0009188Y0080939D01*
X0008006Y0079758D01*
X0007367Y0078214D01*
X0007367Y0076543D01*
X0008006Y0075000D01*
X0009188Y0073818D01*
X0010731Y0073179D01*
X0017602Y0073179D01*
X0019146Y0073818D01*
X0020327Y0075000D01*
X0020967Y0076543D01*
X0020967Y0078214D01*
X0020512Y0079312D02*
X0031318Y0079312D01*
X0029167Y0082379D02*
X0049167Y0082379D01*
X0049167Y0081379D01*
X0051167Y0079379D01*
X0051293Y0079505D01*
X0057267Y0079505D01*
X0057267Y0088954D02*
X0043241Y0088954D01*
X0041667Y0087379D01*
X0034167Y0087379D02*
X0029167Y0092379D01*
X0029167Y0127379D01*
X0019167Y0137379D01*
X0014167Y0137379D01*
X0009567Y0133661D02*
X0005967Y0133661D01*
X0005967Y0132063D02*
X0021089Y0132063D01*
X0019621Y0130464D02*
X0022687Y0130464D01*
X0024286Y0128866D02*
X0021074Y0128866D01*
X0022672Y0127267D02*
X0025884Y0127267D01*
X0026767Y0125669D02*
X0024271Y0125669D01*
X0025869Y0124070D02*
X0026767Y0124070D01*
X0026767Y0122472D02*
X0026567Y0122472D01*
X0026567Y0120873D02*
X0026767Y0120873D01*
X0026767Y0119275D02*
X0026567Y0119275D01*
X0026567Y0117676D02*
X0026767Y0117676D01*
X0026767Y0116078D02*
X0026567Y0116078D01*
X0026567Y0114479D02*
X0026767Y0114479D01*
X0026767Y0112880D02*
X0026567Y0112880D01*
X0026567Y0111282D02*
X0026767Y0111282D01*
X0026767Y0109683D02*
X0026567Y0109683D01*
X0026567Y0108085D02*
X0026767Y0108085D01*
X0026767Y0106486D02*
X0026567Y0106486D01*
X0026567Y0104888D02*
X0026767Y0104888D01*
X0026767Y0103289D02*
X0026567Y0103289D01*
X0026567Y0101691D02*
X0026767Y0101691D01*
X0026767Y0100092D02*
X0026567Y0100092D01*
X0026567Y0098494D02*
X0026767Y0098494D01*
X0026767Y0096895D02*
X0026567Y0096895D01*
X0026567Y0095297D02*
X0026767Y0095297D01*
X0026767Y0093698D02*
X0026567Y0093698D01*
X0026567Y0092100D02*
X0026767Y0092100D01*
X0026567Y0090501D02*
X0027650Y0090501D01*
X0026567Y0088903D02*
X0029248Y0088903D01*
X0030786Y0087304D02*
X0027635Y0087304D01*
X0029234Y0085706D02*
X0031058Y0085706D01*
X0029167Y0082379D02*
X0024167Y0087379D01*
X0024167Y0122379D01*
X0019167Y0127379D01*
X0014167Y0127379D01*
X0008936Y0124070D02*
X0005967Y0124070D01*
X0005967Y0122472D02*
X0020680Y0122472D01*
X0021767Y0120873D02*
X0019212Y0120873D01*
X0019146Y0120939D02*
X0017602Y0121579D01*
X0010731Y0121579D01*
X0009188Y0120939D01*
X0008006Y0119758D01*
X0007367Y0118214D01*
X0007367Y0116543D01*
X0008006Y0115000D01*
X0009188Y0113818D01*
X0010731Y0113179D01*
X0017602Y0113179D01*
X0019146Y0113818D01*
X0020327Y0115000D01*
X0020967Y0116543D01*
X0020967Y0118214D01*
X0020327Y0119758D01*
X0019146Y0120939D01*
X0020527Y0119275D02*
X0021767Y0119275D01*
X0021767Y0117676D02*
X0020967Y0117676D01*
X0020774Y0116078D02*
X0021767Y0116078D01*
X0021767Y0114479D02*
X0019807Y0114479D01*
X0021767Y0112880D02*
X0005967Y0112880D01*
X0005967Y0111282D02*
X0010015Y0111282D01*
X0010731Y0111579D02*
X0009188Y0110939D01*
X0008006Y0109758D01*
X0007367Y0108214D01*
X0007367Y0106543D01*
X0008006Y0105000D01*
X0009188Y0103818D01*
X0010731Y0103179D01*
X0017602Y0103179D01*
X0019146Y0103818D01*
X0020327Y0105000D01*
X0020967Y0106543D01*
X0020967Y0108214D01*
X0020327Y0109758D01*
X0019146Y0110939D01*
X0017602Y0111579D01*
X0010731Y0111579D01*
X0007975Y0109683D02*
X0005967Y0109683D01*
X0005967Y0108085D02*
X0007367Y0108085D01*
X0007390Y0106486D02*
X0005967Y0106486D01*
X0005967Y0104888D02*
X0008118Y0104888D01*
X0005967Y0103289D02*
X0010464Y0103289D01*
X0010731Y0101579D02*
X0009188Y0100939D01*
X0008006Y0099758D01*
X0007367Y0098214D01*
X0007367Y0096543D01*
X0008006Y0095000D01*
X0009188Y0093818D01*
X0010731Y0093179D01*
X0017602Y0093179D01*
X0019146Y0093818D01*
X0020327Y0095000D01*
X0020967Y0096543D01*
X0020967Y0098214D01*
X0020327Y0099758D01*
X0019146Y0100939D01*
X0017602Y0101579D01*
X0010731Y0101579D01*
X0008341Y0100092D02*
X0005967Y0100092D01*
X0005967Y0098494D02*
X0007483Y0098494D01*
X0007367Y0096895D02*
X0005967Y0096895D01*
X0005967Y0095297D02*
X0007883Y0095297D01*
X0009477Y0093698D02*
X0005967Y0093698D01*
X0005967Y0092100D02*
X0021767Y0092100D01*
X0021767Y0093698D02*
X0018857Y0093698D01*
X0020450Y0095297D02*
X0021767Y0095297D01*
X0021767Y0096895D02*
X0020967Y0096895D01*
X0020851Y0098494D02*
X0021767Y0098494D01*
X0021767Y0100092D02*
X0019993Y0100092D01*
X0021767Y0101691D02*
X0005967Y0101691D01*
X0010731Y0091579D02*
X0009188Y0090939D01*
X0008006Y0089758D01*
X0007367Y0088214D01*
X0007367Y0086543D01*
X0008006Y0085000D01*
X0009188Y0083818D01*
X0010731Y0083179D01*
X0017602Y0083179D01*
X0019146Y0083818D01*
X0020327Y0085000D01*
X0020967Y0086543D01*
X0020967Y0088214D01*
X0020327Y0089758D01*
X0019146Y0090939D01*
X0017602Y0091579D01*
X0010731Y0091579D01*
X0008750Y0090501D02*
X0005967Y0090501D01*
X0005967Y0088903D02*
X0007652Y0088903D01*
X0007367Y0087304D02*
X0005967Y0087304D01*
X0005967Y0085706D02*
X0007714Y0085706D01*
X0008898Y0084107D02*
X0005967Y0084107D01*
X0005967Y0082509D02*
X0025643Y0082509D01*
X0027241Y0080910D02*
X0019175Y0080910D01*
X0019435Y0084107D02*
X0024044Y0084107D01*
X0022445Y0085706D02*
X0020620Y0085706D01*
X0020967Y0087304D02*
X0021767Y0087304D01*
X0021767Y0088903D02*
X0020681Y0088903D01*
X0021767Y0090501D02*
X0019584Y0090501D01*
X0017869Y0103289D02*
X0021767Y0103289D01*
X0021767Y0104888D02*
X0020216Y0104888D01*
X0020943Y0106486D02*
X0021767Y0106486D01*
X0021767Y0108085D02*
X0020967Y0108085D01*
X0020358Y0109683D02*
X0021767Y0109683D01*
X0021767Y0111282D02*
X0018319Y0111282D01*
X0009121Y0120873D02*
X0005967Y0120873D01*
X0005967Y0119275D02*
X0007806Y0119275D01*
X0007367Y0117676D02*
X0005967Y0117676D01*
X0005967Y0116078D02*
X0007560Y0116078D01*
X0008527Y0114479D02*
X0005967Y0114479D01*
X0005967Y0125669D02*
X0007729Y0125669D01*
X0007367Y0127267D02*
X0005967Y0127267D01*
X0005967Y0128866D02*
X0007636Y0128866D01*
X0008712Y0130464D02*
X0005967Y0130464D01*
X0005967Y0135260D02*
X0007898Y0135260D01*
X0007367Y0136858D02*
X0005967Y0136858D01*
X0005967Y0138457D02*
X0007467Y0138457D01*
X0008303Y0140055D02*
X0005967Y0140055D01*
X0005967Y0141654D02*
X0020786Y0141654D01*
X0020030Y0140055D02*
X0021709Y0140055D01*
X0021483Y0138457D02*
X0036315Y0138457D01*
X0037285Y0136858D02*
X0023081Y0136858D01*
X0024680Y0135260D02*
X0038392Y0135260D01*
X0039990Y0133661D02*
X0026278Y0133661D01*
X0027877Y0132063D02*
X0041589Y0132063D01*
X0042632Y0131019D02*
X0042632Y0131019D01*
X0043187Y0130464D02*
X0029475Y0130464D01*
X0031567Y0125669D02*
X0052675Y0125669D01*
X0051076Y0124070D02*
X0031567Y0124070D01*
X0031567Y0122472D02*
X0050786Y0122472D01*
X0050891Y0120873D02*
X0031567Y0120873D01*
X0031567Y0119275D02*
X0052489Y0119275D01*
X0055475Y0117676D02*
X0031567Y0117676D01*
X0031567Y0116078D02*
X0056767Y0116078D01*
X0056767Y0114479D02*
X0031567Y0114479D01*
X0031567Y0112880D02*
X0056767Y0112880D01*
X0056767Y0111282D02*
X0031567Y0111282D01*
X0031567Y0109683D02*
X0043459Y0109683D01*
X0044167Y0107379D02*
X0034167Y0097379D01*
X0032099Y0100092D02*
X0031567Y0100092D01*
X0031567Y0101691D02*
X0035085Y0101691D01*
X0036683Y0103289D02*
X0031567Y0103289D01*
X0031567Y0104888D02*
X0038282Y0104888D01*
X0039880Y0106486D02*
X0031567Y0106486D01*
X0031567Y0108085D02*
X0041479Y0108085D01*
X0044167Y0107379D02*
X0054167Y0107379D01*
X0056644Y0109683D02*
X0056767Y0109683D01*
X0059167Y0117379D02*
X0054167Y0122379D01*
X0068693Y0122472D02*
X0081767Y0122472D01*
X0081767Y0124070D02*
X0068693Y0124070D01*
X0068693Y0125669D02*
X0069461Y0125669D01*
X0069414Y0127267D02*
X0068693Y0127267D01*
X0068693Y0128866D02*
X0073687Y0128866D01*
X0073687Y0127267D02*
X0074646Y0127267D01*
X0074646Y0125669D02*
X0073687Y0125669D01*
X0078873Y0125669D02*
X0081767Y0125669D01*
X0081767Y0127267D02*
X0078919Y0127267D01*
X0084680Y0135260D02*
X0096767Y0135260D01*
X0096767Y0133661D02*
X0086233Y0133661D01*
X0086567Y0132063D02*
X0096767Y0132063D01*
X0096767Y0130464D02*
X0095863Y0130464D01*
X0092470Y0130464D02*
X0086567Y0130464D01*
X0086567Y0128866D02*
X0090872Y0128866D01*
X0090786Y0127267D02*
X0086567Y0127267D01*
X0086567Y0125669D02*
X0091095Y0125669D01*
X0091767Y0124070D02*
X0086567Y0124070D01*
X0086567Y0122472D02*
X0091767Y0122472D01*
X0091767Y0120873D02*
X0086567Y0120873D01*
X0086567Y0119275D02*
X0091767Y0119275D01*
X0091767Y0117676D02*
X0086567Y0117676D01*
X0086567Y0116078D02*
X0091767Y0116078D01*
X0091767Y0114479D02*
X0086567Y0114479D01*
X0086567Y0112880D02*
X0091767Y0112880D01*
X0091767Y0111282D02*
X0086567Y0111282D01*
X0086269Y0109683D02*
X0091767Y0109683D01*
X0091767Y0108085D02*
X0087247Y0108085D01*
X0087890Y0106486D02*
X0091767Y0106486D01*
X0091767Y0104888D02*
X0087890Y0104888D01*
X0087890Y0103289D02*
X0091767Y0103289D01*
X0091854Y0101691D02*
X0087890Y0101691D01*
X0094167Y0102379D02*
X0096167Y0100379D01*
X0096167Y0097379D01*
X0093667Y0094879D01*
X0091441Y0094879D01*
X0091067Y0095253D01*
X0094167Y0102379D02*
X0094167Y0127379D01*
X0101567Y0124070D02*
X0102694Y0124070D01*
X0102468Y0122472D02*
X0105786Y0122472D01*
X0105891Y0120873D02*
X0104066Y0120873D01*
X0105665Y0119275D02*
X0107489Y0119275D01*
X0110844Y0119275D02*
X0112668Y0119275D01*
X0107675Y0125669D02*
X0107238Y0125669D01*
X0106076Y0124070D02*
X0105640Y0124070D01*
X0081767Y0120873D02*
X0068693Y0120873D01*
X0068693Y0130464D02*
X0069414Y0130464D01*
X0069635Y0132063D02*
X0068693Y0132063D01*
X0068693Y0133661D02*
X0069614Y0133661D01*
X0066293Y0136119D02*
X0074167Y0136119D01*
X0070328Y0140055D02*
X0063271Y0140055D01*
X0055315Y0138457D02*
X0043018Y0138457D01*
X0044271Y0140055D02*
X0054062Y0140055D01*
X0053523Y0141654D02*
X0044810Y0141654D01*
X0044810Y0143252D02*
X0053523Y0143252D01*
X0054124Y0144851D02*
X0044210Y0144851D01*
X0042870Y0146449D02*
X0055463Y0146449D01*
X0052356Y0159673D02*
X0049646Y0159673D01*
X0049646Y0163553D01*
X0053919Y0163553D01*
X0053919Y0161236D01*
X0053797Y0160778D01*
X0053560Y0160368D01*
X0053225Y0160033D01*
X0052814Y0159796D01*
X0052356Y0159673D01*
X0053812Y0160836D02*
X0054416Y0160836D01*
X0054414Y0162434D02*
X0053919Y0162434D01*
X0053919Y0165631D02*
X0054414Y0165631D01*
X0054731Y0167230D02*
X0053812Y0167230D01*
X0053719Y0168828D02*
X0054614Y0168828D01*
X0054614Y0170427D02*
X0053719Y0170427D01*
X0053719Y0172025D02*
X0054614Y0172025D01*
X0054527Y0173624D02*
X0053719Y0173624D01*
X0052929Y0175222D02*
X0051567Y0175222D01*
X0053667Y0177879D02*
X0053667Y0180379D01*
X0053667Y0177879D02*
X0059167Y0172379D01*
X0059167Y0171119D01*
X0058687Y0162434D02*
X0059646Y0162434D01*
X0059646Y0160836D02*
X0058687Y0160836D01*
X0049646Y0160836D02*
X0048687Y0160836D01*
X0048687Y0162434D02*
X0049646Y0162434D01*
X0044414Y0162434D02*
X0043919Y0162434D01*
X0043919Y0163553D02*
X0039646Y0163553D01*
X0039646Y0159673D01*
X0042356Y0159673D01*
X0042814Y0159796D01*
X0043225Y0160033D01*
X0043560Y0160368D01*
X0043797Y0160778D01*
X0043919Y0161236D01*
X0043919Y0163553D01*
X0043919Y0165631D02*
X0044414Y0165631D01*
X0044522Y0167230D02*
X0043812Y0167230D01*
X0043719Y0168828D02*
X0044614Y0168828D01*
X0044521Y0160836D02*
X0043812Y0160836D01*
X0039646Y0160836D02*
X0038687Y0160836D01*
X0038687Y0162434D02*
X0039646Y0162434D01*
X0019167Y0147379D02*
X0014167Y0147379D01*
X0009925Y0151245D02*
X0005967Y0151245D01*
X0005967Y0149646D02*
X0007960Y0149646D01*
X0007367Y0148048D02*
X0005967Y0148048D01*
X0005967Y0146449D02*
X0007406Y0146449D01*
X0008155Y0144851D02*
X0005967Y0144851D01*
X0005967Y0143252D02*
X0010554Y0143252D01*
X0017779Y0143252D02*
X0019899Y0143252D01*
X0019490Y0133661D02*
X0018767Y0133661D01*
X0009158Y0080910D02*
X0005967Y0080910D01*
X0005967Y0079312D02*
X0007821Y0079312D01*
X0007367Y0077713D02*
X0005967Y0077713D01*
X0005967Y0076115D02*
X0007544Y0076115D01*
X0008489Y0074516D02*
X0005967Y0074516D01*
X0005967Y0072918D02*
X0035234Y0072918D01*
X0036832Y0071319D02*
X0018229Y0071319D01*
X0017602Y0071579D02*
X0019146Y0070939D01*
X0020327Y0069758D01*
X0020967Y0068214D01*
X0020967Y0066543D01*
X0020327Y0065000D01*
X0019146Y0063818D01*
X0017602Y0063179D01*
X0010731Y0063179D01*
X0009188Y0063818D01*
X0008006Y0065000D01*
X0007367Y0066543D01*
X0007367Y0068214D01*
X0008006Y0069758D01*
X0009188Y0070939D01*
X0010731Y0071579D01*
X0017602Y0071579D01*
X0020343Y0069721D02*
X0053786Y0069721D01*
X0053786Y0068122D02*
X0020967Y0068122D01*
X0020959Y0066524D02*
X0055240Y0066524D01*
X0059093Y0066524D02*
X0060767Y0066524D01*
X0060767Y0064925D02*
X0031402Y0064925D01*
X0026931Y0064925D02*
X0020253Y0064925D01*
X0017959Y0063327D02*
X0025786Y0063327D01*
X0025786Y0061728D02*
X0005967Y0061728D01*
X0005967Y0060130D02*
X0008378Y0060130D01*
X0007498Y0058531D02*
X0005967Y0058531D01*
X0005967Y0056933D02*
X0007367Y0056933D01*
X0007868Y0055334D02*
X0005967Y0055334D01*
X0005967Y0053736D02*
X0009387Y0053736D01*
X0010374Y0063327D02*
X0005967Y0063327D01*
X0005967Y0064925D02*
X0008081Y0064925D01*
X0007375Y0066524D02*
X0005967Y0066524D01*
X0005967Y0068122D02*
X0007367Y0068122D01*
X0007991Y0069721D02*
X0005967Y0069721D01*
X0005967Y0071319D02*
X0010105Y0071319D01*
X0019844Y0074516D02*
X0032248Y0074516D01*
X0030786Y0076115D02*
X0020789Y0076115D01*
X0037296Y0058531D02*
X0059786Y0058531D01*
X0059831Y0056933D02*
X0038894Y0056933D01*
X0039048Y0055334D02*
X0061430Y0055334D01*
X0064904Y0055334D02*
X0066767Y0055334D01*
X0066767Y0056933D02*
X0066502Y0056933D01*
X0066548Y0058531D02*
X0066767Y0058531D01*
X0066767Y0060130D02*
X0066197Y0060130D01*
X0066423Y0061728D02*
X0065567Y0061728D01*
X0063167Y0062379D02*
X0063167Y0058379D01*
X0065629Y0053736D02*
X0038805Y0053736D01*
X0038167Y0050879D02*
X0050745Y0050879D01*
X0050888Y0047342D02*
X0020967Y0047342D01*
X0020666Y0048940D02*
X0036711Y0048940D01*
X0038167Y0050879D02*
X0035667Y0053379D01*
X0035667Y0055379D01*
X0020635Y0045743D02*
X0052487Y0045743D01*
X0054086Y0044145D02*
X0019472Y0044145D01*
X0019340Y0040947D02*
X0057283Y0040947D01*
X0058881Y0039349D02*
X0050591Y0039349D01*
X0052189Y0037750D02*
X0060480Y0037750D01*
X0059625Y0036152D02*
X0053788Y0036152D01*
X0057686Y0034553D02*
X0058026Y0034553D01*
X0061617Y0031356D02*
X0068727Y0031356D01*
X0068727Y0029758D02*
X0060019Y0029758D01*
X0059292Y0028159D02*
X0068727Y0028159D01*
X0068727Y0026561D02*
X0059292Y0026561D01*
X0059292Y0024962D02*
X0068727Y0024962D01*
X0068727Y0023364D02*
X0059292Y0023364D01*
X0058881Y0021765D02*
X0069137Y0021765D01*
X0070212Y0020167D02*
X0057806Y0020167D01*
X0050527Y0020167D02*
X0038404Y0020167D01*
X0039428Y0021765D02*
X0049452Y0021765D01*
X0049042Y0023364D02*
X0039807Y0023364D01*
X0039807Y0024962D02*
X0049042Y0024962D01*
X0049042Y0026561D02*
X0039807Y0026561D01*
X0039807Y0028159D02*
X0049042Y0028159D01*
X0049042Y0029758D02*
X0039807Y0029758D01*
X0039789Y0031356D02*
X0049042Y0031356D01*
X0049502Y0032955D02*
X0039373Y0032955D01*
X0038284Y0034553D02*
X0048598Y0034553D01*
X0055684Y0042546D02*
X0005967Y0042546D01*
X0007167Y0037379D02*
X0014167Y0037379D01*
X0014167Y0032979D01*
X0014167Y0037379D01*
X0014167Y0037379D01*
X0014167Y0037379D01*
X0014167Y0037750D02*
X0014167Y0037750D01*
X0014167Y0036152D02*
X0014167Y0036152D01*
X0014167Y0034553D02*
X0014167Y0034553D01*
X0016349Y0032955D02*
X0005967Y0032955D01*
X0005967Y0034553D02*
X0008181Y0034553D01*
X0007339Y0036152D02*
X0005967Y0036152D01*
X0014167Y0039349D02*
X0014167Y0039349D01*
X0014167Y0040947D02*
X0014167Y0040947D01*
X0019167Y0032379D02*
X0027167Y0032379D01*
X0032167Y0037379D01*
X0028526Y0030344D02*
X0027644Y0029979D01*
X0020161Y0029979D01*
X0020134Y0029952D01*
X0020327Y0029758D01*
X0020967Y0028159D02*
X0029157Y0028159D01*
X0029157Y0026561D02*
X0020967Y0026561D01*
X0020290Y0024962D02*
X0029157Y0024962D01*
X0029157Y0023364D02*
X0018049Y0023364D01*
X0017197Y0021765D02*
X0029536Y0021765D01*
X0030559Y0020167D02*
X0020180Y0020167D01*
X0020682Y0015371D02*
X0292288Y0015371D01*
X0292288Y0013773D02*
X0019289Y0013773D01*
X0014167Y0013773D02*
X0014167Y0013773D01*
X0014167Y0012979D02*
X0014167Y0017379D01*
X0014167Y0017379D01*
X0014167Y0017379D01*
X0014167Y0012979D01*
X0014167Y0015371D02*
X0014167Y0015371D01*
X0014167Y0016970D02*
X0014167Y0016970D01*
X0014167Y0017379D02*
X0007167Y0017379D01*
X0007167Y0017032D01*
X0007275Y0016348D01*
X0007489Y0015690D01*
X0007803Y0015073D01*
X0008211Y0014512D01*
X0008700Y0014023D01*
X0009261Y0013616D01*
X0007651Y0015371D02*
X0005967Y0015371D01*
X0005967Y0016970D02*
X0007177Y0016970D01*
X0007327Y0018568D02*
X0005967Y0018568D01*
X0005967Y0020167D02*
X0008154Y0020167D01*
X0005967Y0021765D02*
X0011136Y0021765D01*
X0010284Y0023364D02*
X0005967Y0023364D01*
X0005967Y0024962D02*
X0008043Y0024962D01*
X0007367Y0026561D02*
X0005967Y0026561D01*
X0005967Y0028159D02*
X0007367Y0028159D01*
X0014167Y0027379D02*
X0019167Y0032379D01*
X0014167Y0021765D02*
X0014167Y0021765D01*
X0014167Y0020167D02*
X0014167Y0020167D01*
X0014167Y0018568D02*
X0014167Y0018568D01*
X0034107Y0020167D02*
X0034857Y0020167D01*
X0034857Y0021765D02*
X0034107Y0021765D01*
X0034107Y0023364D02*
X0034857Y0023364D01*
X0034857Y0024962D02*
X0034107Y0024962D01*
X0034107Y0026561D02*
X0034857Y0026561D01*
X0056539Y0048479D02*
X0066644Y0048479D01*
X0067526Y0048844D01*
X0070526Y0051844D01*
X0071201Y0052519D01*
X0071567Y0053401D01*
X0071567Y0062856D01*
X0071201Y0063738D01*
X0068567Y0066373D01*
X0068567Y0066379D01*
X0073813Y0066379D01*
X0073947Y0066301D01*
X0074404Y0066179D01*
X0075741Y0066179D01*
X0075741Y0070479D01*
X0075741Y0050804D01*
X0076167Y0050379D01*
X0076167Y0045379D01*
X0079167Y0042379D01*
X0094167Y0042379D01*
X0086627Y0052137D02*
X0084567Y0052137D01*
X0084567Y0053736D02*
X0085786Y0053736D01*
X0085786Y0055334D02*
X0084567Y0055334D01*
X0084567Y0056933D02*
X0086939Y0056933D01*
X0084567Y0058531D02*
X0125786Y0058531D01*
X0125326Y0056933D02*
X0091394Y0056933D01*
X0090372Y0060130D02*
X0084567Y0060130D01*
X0084567Y0061728D02*
X0088470Y0061728D01*
X0086872Y0063327D02*
X0084567Y0063327D01*
X0084567Y0064925D02*
X0085273Y0064925D01*
X0082167Y0065127D02*
X0082041Y0065253D01*
X0082041Y0070479D01*
X0085190Y0070479D02*
X0085190Y0068402D01*
X0091214Y0062379D01*
X0101667Y0062379D01*
X0104199Y0060130D02*
X0127136Y0060130D01*
X0129167Y0057379D02*
X0126167Y0054379D01*
X0089167Y0054379D01*
X0082167Y0049379D02*
X0082167Y0065127D01*
X0079767Y0064471D02*
X0079767Y0048901D01*
X0080132Y0048019D01*
X0080807Y0047344D01*
X0081689Y0046979D01*
X0082644Y0046979D01*
X0106173Y0046979D01*
X0107807Y0045344D01*
X0108689Y0044979D01*
X0118173Y0044979D01*
X0122786Y0040366D01*
X0122786Y0039978D01*
X0124766Y0037998D01*
X0126470Y0037998D01*
X0122856Y0034383D01*
X0122070Y0035170D01*
X0120186Y0035950D01*
X0118147Y0035950D01*
X0116264Y0035170D01*
X0115517Y0034423D01*
X0110526Y0039413D01*
X0109644Y0039779D01*
X0065240Y0039779D01*
X0056539Y0048479D01*
X0057677Y0047342D02*
X0080813Y0047342D01*
X0079767Y0048940D02*
X0067622Y0048940D01*
X0069221Y0050539D02*
X0079767Y0050539D01*
X0079767Y0052137D02*
X0070819Y0052137D01*
X0071567Y0053736D02*
X0079767Y0053736D01*
X0079767Y0055334D02*
X0071567Y0055334D01*
X0071567Y0056933D02*
X0079767Y0056933D01*
X0079767Y0058531D02*
X0071567Y0058531D01*
X0071567Y0060130D02*
X0079767Y0060130D01*
X0079767Y0061728D02*
X0071567Y0061728D01*
X0071372Y0063327D02*
X0079767Y0063327D01*
X0079767Y0064471D02*
X0079641Y0064775D01*
X0079641Y0066379D01*
X0077670Y0066379D01*
X0077536Y0066301D01*
X0077078Y0066179D01*
X0075742Y0066179D01*
X0075742Y0070479D01*
X0075741Y0070479D01*
X0075741Y0069721D02*
X0075742Y0069721D01*
X0075741Y0071319D02*
X0075742Y0071319D01*
X0075741Y0072918D02*
X0075742Y0072918D01*
X0075741Y0074516D02*
X0075742Y0074516D01*
X0075741Y0068122D02*
X0075742Y0068122D01*
X0075741Y0066524D02*
X0075742Y0066524D01*
X0079641Y0064925D02*
X0070014Y0064925D01*
X0087890Y0069721D02*
X0123431Y0069721D01*
X0125029Y0068122D02*
X0088865Y0068122D01*
X0090463Y0066524D02*
X0126628Y0066524D01*
X0128226Y0064925D02*
X0103902Y0064925D01*
X0105048Y0063327D02*
X0129825Y0063327D01*
X0131423Y0061728D02*
X0105048Y0061728D01*
X0099431Y0064925D02*
X0092062Y0064925D01*
X0087890Y0071319D02*
X0121832Y0071319D01*
X0120234Y0072918D02*
X0087890Y0072918D01*
X0087043Y0074516D02*
X0087016Y0074516D01*
X0082167Y0049379D02*
X0107167Y0049379D01*
X0109167Y0047379D01*
X0119167Y0047379D01*
X0125167Y0041379D01*
X0126167Y0041379D01*
X0129548Y0040947D02*
X0148767Y0040947D01*
X0148767Y0042546D02*
X0129548Y0042546D01*
X0128182Y0044145D02*
X0148767Y0044145D01*
X0148767Y0045743D02*
X0124196Y0045743D01*
X0122598Y0047342D02*
X0148767Y0047342D01*
X0144824Y0048940D02*
X0120999Y0048940D01*
X0119007Y0044145D02*
X0060874Y0044145D01*
X0059275Y0045743D02*
X0107408Y0045743D01*
X0109401Y0050539D02*
X0142613Y0050539D01*
X0143132Y0050019D02*
X0143132Y0050019D01*
X0145167Y0051379D02*
X0147167Y0051379D01*
X0149591Y0053736D02*
X0151967Y0053736D01*
X0141014Y0052137D02*
X0127026Y0052137D01*
X0128918Y0053736D02*
X0139416Y0053736D01*
X0137817Y0055334D02*
X0131904Y0055334D01*
X0132548Y0056933D02*
X0136219Y0056933D01*
X0134620Y0058531D02*
X0132548Y0058531D01*
X0133022Y0060130D02*
X0131197Y0060130D01*
X0120605Y0042546D02*
X0062472Y0042546D01*
X0064071Y0040947D02*
X0122204Y0040947D01*
X0123415Y0039349D02*
X0110591Y0039349D01*
X0112189Y0037750D02*
X0126223Y0037750D01*
X0124625Y0036152D02*
X0113788Y0036152D01*
X0115386Y0034553D02*
X0115647Y0034553D01*
X0122686Y0034553D02*
X0123026Y0034553D01*
X0126617Y0031356D02*
X0133727Y0031356D01*
X0133727Y0029758D02*
X0125019Y0029758D01*
X0124292Y0028159D02*
X0133727Y0028159D01*
X0133727Y0026561D02*
X0124292Y0026561D01*
X0124292Y0024962D02*
X0133727Y0024962D01*
X0133727Y0023364D02*
X0124292Y0023364D01*
X0123881Y0021765D02*
X0134137Y0021765D01*
X0135212Y0020167D02*
X0122806Y0020167D01*
X0128216Y0032955D02*
X0134187Y0032955D01*
X0135332Y0034553D02*
X0129814Y0034553D01*
X0142371Y0034553D02*
X0160962Y0034553D01*
X0159817Y0032955D02*
X0143517Y0032955D01*
X0143977Y0031356D02*
X0159357Y0031356D01*
X0159357Y0029758D02*
X0143977Y0029758D01*
X0143977Y0028159D02*
X0159357Y0028159D01*
X0159357Y0026561D02*
X0143977Y0026561D01*
X0143977Y0024962D02*
X0159357Y0024962D01*
X0159357Y0023364D02*
X0143977Y0023364D01*
X0143567Y0021765D02*
X0159767Y0021765D01*
X0160842Y0020167D02*
X0142491Y0020167D01*
X0168121Y0020167D02*
X0180527Y0020167D01*
X0179452Y0021765D02*
X0169196Y0021765D01*
X0169607Y0023364D02*
X0179042Y0023364D01*
X0179042Y0024962D02*
X0169607Y0024962D01*
X0169607Y0026561D02*
X0179042Y0026561D01*
X0179042Y0028159D02*
X0169607Y0028159D01*
X0169607Y0029758D02*
X0178393Y0029758D01*
X0176795Y0031356D02*
X0169607Y0031356D01*
X0169147Y0032955D02*
X0175196Y0032955D01*
X0173598Y0034553D02*
X0168001Y0034553D01*
X0175591Y0039349D02*
X0192822Y0039349D01*
X0191223Y0037750D02*
X0177189Y0037750D01*
X0178788Y0036152D02*
X0189625Y0036152D01*
X0188026Y0034553D02*
X0187686Y0034553D01*
X0191617Y0031356D02*
X0198544Y0031356D01*
X0198527Y0029758D02*
X0190019Y0029758D01*
X0189292Y0028159D02*
X0198527Y0028159D01*
X0198527Y0026561D02*
X0189292Y0026561D01*
X0189292Y0024962D02*
X0198527Y0024962D01*
X0198527Y0023364D02*
X0189292Y0023364D01*
X0188881Y0021765D02*
X0198906Y0021765D01*
X0199929Y0020167D02*
X0187806Y0020167D01*
X0188930Y0012379D02*
X0109167Y0012379D01*
X0095559Y0020167D02*
X0077491Y0020167D01*
X0078567Y0021765D02*
X0094536Y0021765D01*
X0094157Y0023364D02*
X0078977Y0023364D01*
X0078977Y0024962D02*
X0094157Y0024962D01*
X0109167Y0037379D02*
X0064245Y0037379D01*
X0064814Y0034553D02*
X0070332Y0034553D01*
X0069187Y0032955D02*
X0063216Y0032955D01*
X0154167Y0117379D02*
X0154167Y0142379D01*
X0156403Y0143252D02*
X0191615Y0143252D01*
X0190595Y0144851D02*
X0155089Y0144851D01*
X0153490Y0146449D02*
X0190167Y0146449D01*
X0194150Y0141654D02*
X0156567Y0141654D01*
X0139252Y0132063D02*
X0139081Y0132063D01*
X0139081Y0130464D02*
X0139252Y0130464D01*
X0139252Y0128866D02*
X0139081Y0128866D01*
X0135228Y0130464D02*
X0132869Y0130464D01*
X0133746Y0128866D02*
X0134392Y0128866D01*
X0134167Y0127267D02*
X0133967Y0127267D01*
X0133654Y0125669D02*
X0134465Y0125669D01*
X0135404Y0124070D02*
X0132646Y0124070D01*
X0181299Y0090501D02*
X0202067Y0090501D01*
X0200909Y0088903D02*
X0181397Y0088903D01*
X0181397Y0087304D02*
X0200786Y0087304D01*
X0201058Y0085706D02*
X0181397Y0085706D01*
X0181397Y0084107D02*
X0202657Y0084107D01*
X0200279Y0095297D02*
X0199763Y0095297D01*
X0245942Y0111282D02*
X0268501Y0111282D01*
X0241150Y0141654D02*
X0197183Y0141654D01*
X0199718Y0143252D02*
X0238615Y0143252D01*
X0237595Y0144851D02*
X0200738Y0144851D01*
X0201167Y0146449D02*
X0237167Y0146449D01*
X0248167Y0149646D02*
X0258190Y0149646D01*
X0259789Y0148048D02*
X0248892Y0148048D01*
X0248167Y0151245D02*
X0256592Y0151245D01*
X0254993Y0152843D02*
X0248167Y0152843D01*
X0248167Y0154442D02*
X0253395Y0154442D01*
X0251796Y0156040D02*
X0248097Y0156040D01*
X0247435Y0157639D02*
X0250198Y0157639D01*
X0248599Y0159237D02*
X0245986Y0159237D01*
X0267071Y0197602D02*
X0292288Y0197602D01*
X0292288Y0199200D02*
X0266424Y0199200D01*
X0280562Y0223178D02*
X0292288Y0223178D01*
X0292288Y0224776D02*
X0282096Y0224776D01*
X0282758Y0226375D02*
X0292288Y0226375D01*
X0292288Y0227973D02*
X0282817Y0227973D01*
X0282396Y0229572D02*
X0292288Y0229572D01*
X0292288Y0231170D02*
X0281305Y0231170D01*
X0292288Y0267936D02*
X0166778Y0267936D01*
X0166567Y0269535D02*
X0172229Y0269535D01*
X0172766Y0268998D02*
X0175567Y0268998D01*
X0177548Y0270978D01*
X0177548Y0273779D01*
X0175567Y0275760D01*
X0172766Y0275760D01*
X0170786Y0273779D01*
X0170786Y0270978D01*
X0172766Y0268998D01*
X0170786Y0271133D02*
X0166703Y0271133D01*
X0167548Y0272732D02*
X0170786Y0272732D01*
X0171336Y0274330D02*
X0167548Y0274330D01*
X0166398Y0275929D02*
X0290617Y0275929D01*
X0292215Y0274330D02*
X0176997Y0274330D01*
X0177548Y0272732D02*
X0292288Y0272732D01*
X0292288Y0271133D02*
X0177548Y0271133D01*
X0176104Y0269535D02*
X0292288Y0269535D01*
X0209548Y0245557D02*
X0208786Y0245557D01*
X0208786Y0243958D02*
X0209548Y0243958D01*
X0209548Y0242360D02*
X0208786Y0242360D01*
X0208786Y0240761D02*
X0209548Y0240761D01*
X0209548Y0239163D02*
X0208786Y0239163D01*
X0206567Y0239163D02*
X0201326Y0239163D01*
X0203366Y0240761D02*
X0204795Y0240761D01*
X0200338Y0234367D02*
X0197995Y0234367D01*
X0198969Y0232769D02*
X0199365Y0232769D01*
X0197007Y0239163D02*
X0191326Y0239163D01*
X0193366Y0240761D02*
X0194967Y0240761D01*
X0194211Y0242360D02*
X0194123Y0242360D01*
X0187007Y0239163D02*
X0181326Y0239163D01*
X0183366Y0240761D02*
X0184967Y0240761D01*
X0184211Y0242360D02*
X0184123Y0242360D01*
X0180338Y0234367D02*
X0177995Y0234367D01*
X0178969Y0232769D02*
X0179365Y0232769D01*
X0187995Y0234367D02*
X0190338Y0234367D01*
X0189365Y0232769D02*
X0188969Y0232769D01*
X0184688Y0253549D02*
X0183645Y0253549D01*
X0182214Y0255148D02*
X0186119Y0255148D01*
X0185231Y0258345D02*
X0167341Y0258345D01*
X0167341Y0259944D02*
X0183632Y0259944D01*
X0173884Y0261542D02*
X0166872Y0261542D01*
X0166798Y0263141D02*
X0172285Y0263141D01*
X0164167Y0265528D02*
X0164167Y0273379D01*
X0154167Y0271119D02*
X0152427Y0269379D01*
X0147667Y0269379D01*
X0144639Y0271133D02*
X0144271Y0271133D01*
X0144271Y0272732D02*
X0146238Y0272732D01*
X0144261Y0274330D02*
X0149417Y0274330D01*
X0149417Y0272732D02*
X0149095Y0272732D01*
X0152907Y0272379D02*
X0154167Y0271119D01*
X0161631Y0256747D02*
X0126504Y0256747D01*
X0133597Y0266338D02*
X0134736Y0266338D01*
X0105827Y0248754D02*
X0104868Y0248754D01*
X0104868Y0247155D02*
X0105827Y0247155D01*
X0084167Y0202379D02*
X0079167Y0197379D01*
X0079167Y0195725D01*
X0078773Y0196119D01*
X0079192Y0200799D02*
X0075416Y0200799D01*
X0053842Y0234367D02*
X0052692Y0234367D01*
X0052692Y0235966D02*
X0053842Y0235966D01*
X0166183Y0247155D02*
X0166420Y0247155D01*
X0204267Y0253549D02*
X0204508Y0253549D01*
X0204267Y0255148D02*
X0205893Y0255148D01*
X0207654Y0034553D02*
X0225962Y0034553D01*
X0224817Y0032955D02*
X0208743Y0032955D01*
X0209159Y0031356D02*
X0224357Y0031356D01*
X0224357Y0029758D02*
X0209177Y0029758D01*
X0209177Y0028159D02*
X0224357Y0028159D01*
X0224357Y0026561D02*
X0209177Y0026561D01*
X0209177Y0024962D02*
X0224357Y0024962D01*
X0224357Y0023364D02*
X0209177Y0023364D01*
X0208798Y0021765D02*
X0224767Y0021765D01*
X0225842Y0020167D02*
X0207774Y0020167D01*
X0204227Y0020167D02*
X0203477Y0020167D01*
X0203477Y0021765D02*
X0204227Y0021765D01*
X0204227Y0023364D02*
X0203477Y0023364D01*
X0203477Y0024962D02*
X0204227Y0024962D01*
X0204227Y0026561D02*
X0203477Y0026561D01*
X0203852Y0027300D02*
X0188930Y0012379D01*
X0203852Y0017694D02*
X0203852Y0027300D01*
X0198961Y0032955D02*
X0193216Y0032955D01*
X0194814Y0034553D02*
X0200049Y0034553D01*
X0203852Y0017694D02*
X0209167Y0012379D01*
X0269167Y0012379D01*
X0269167Y0026985D01*
X0268852Y0027300D01*
X0273930Y0032379D01*
X0274177Y0029758D02*
X0292288Y0029758D01*
X0292288Y0028159D02*
X0274177Y0028159D01*
X0274177Y0026561D02*
X0292288Y0026561D01*
X0292288Y0024962D02*
X0274177Y0024962D01*
X0274177Y0023364D02*
X0292288Y0023364D01*
X0292288Y0021765D02*
X0273798Y0021765D01*
X0272774Y0020167D02*
X0292288Y0020167D01*
X0269227Y0020167D02*
X0268477Y0020167D01*
X0268477Y0021765D02*
X0269227Y0021765D01*
X0269227Y0023364D02*
X0268477Y0023364D01*
X0268477Y0024962D02*
X0269227Y0024962D01*
X0269227Y0026561D02*
X0268477Y0026561D01*
X0268477Y0028159D02*
X0269227Y0028159D01*
X0269227Y0029758D02*
X0268477Y0029758D01*
X0268477Y0031356D02*
X0269227Y0031356D01*
X0269227Y0032955D02*
X0268477Y0032955D01*
X0268477Y0034553D02*
X0269227Y0034553D01*
X0263527Y0024962D02*
X0254292Y0024962D01*
X0254292Y0023364D02*
X0263527Y0023364D01*
X0263906Y0021765D02*
X0253881Y0021765D01*
X0252806Y0020167D02*
X0264929Y0020167D01*
X0245527Y0020167D02*
X0233121Y0020167D01*
X0234196Y0021765D02*
X0244452Y0021765D01*
X0244042Y0023364D02*
X0234607Y0023364D01*
X0234607Y0024962D02*
X0244042Y0024962D01*
X0244042Y0026561D02*
X0234607Y0026561D01*
X0234607Y0028159D02*
X0244042Y0028159D01*
X0243393Y0029758D02*
X0234607Y0029758D01*
X0234607Y0031356D02*
X0241795Y0031356D01*
X0240196Y0032955D02*
X0234147Y0032955D01*
X0233001Y0034553D02*
X0238598Y0034553D01*
X0180647Y0034553D02*
X0180386Y0034553D01*
D37*
X0147167Y0051379D03*
X0144167Y0059379D03*
X0129167Y0057379D03*
X0126167Y0041379D03*
X0109167Y0030879D03*
X0094167Y0042379D03*
X0089167Y0054379D03*
X0101667Y0062379D03*
X0076167Y0050379D03*
X0063167Y0058379D03*
X0057167Y0069379D03*
X0049167Y0082379D03*
X0041667Y0087379D03*
X0034167Y0087379D03*
X0034167Y0077379D03*
X0029167Y0062379D03*
X0035667Y0055379D03*
X0024167Y0037379D03*
X0034167Y0097379D03*
X0054167Y0107379D03*
X0054167Y0122379D03*
X0070667Y0117379D03*
X0076167Y0118379D03*
X0076167Y0112879D03*
X0094167Y0127379D03*
X0104167Y0127379D03*
X0109167Y0122379D03*
X0109167Y0107379D03*
X0114167Y0097379D03*
X0150667Y0122379D03*
X0124167Y0134879D03*
X0117167Y0152379D03*
X0104167Y0177379D03*
X0098167Y0182379D03*
X0087167Y0187379D03*
X0084167Y0202379D03*
X0099167Y0202379D03*
X0109167Y0212379D03*
X0099167Y0217379D03*
X0104167Y0227379D03*
X0094167Y0252379D03*
X0147667Y0269379D03*
X0164167Y0273379D03*
X0174167Y0272379D03*
X0158667Y0246879D03*
X0199167Y0207379D03*
X0199167Y0202379D03*
X0212667Y0207379D03*
X0209167Y0236379D03*
X0087167Y0157379D03*
X0069167Y0157379D03*
X0060167Y0178379D03*
X0053667Y0180379D03*
X0059167Y0202379D03*
X0024167Y0172379D03*
X0030167Y0168379D03*
X0032167Y0160379D03*
X0024167Y0152379D03*
X0024167Y0142379D03*
X0184167Y0117379D03*
X0204167Y0087379D03*
X0229167Y0057379D03*
X0255167Y0062379D03*
D38*
X0263321Y0062379D01*
X0264167Y0063224D01*
X0264719Y0062672D01*
X0265427Y0062379D02*
X0274167Y0062379D01*
X0274543Y0062755D02*
X0274585Y0062799D01*
X0274623Y0062845D01*
X0274659Y0062894D01*
X0274692Y0062945D01*
X0274721Y0062997D01*
X0274748Y0063052D01*
X0274771Y0063107D01*
X0274791Y0063164D01*
X0274807Y0063223D01*
X0274820Y0063282D01*
X0274829Y0063341D01*
X0274834Y0063402D01*
X0274836Y0063462D01*
X0274836Y0067379D01*
X0274167Y0072379D02*
X0274167Y0077379D01*
X0279167Y0082379D01*
X0279167Y0092379D01*
X0274460Y0097086D01*
X0273752Y0097379D02*
X0268301Y0097379D01*
X0260033Y0097379D02*
X0255033Y0092379D01*
X0244167Y0092379D01*
X0242667Y0093879D01*
X0242667Y0102879D01*
X0270960Y0075900D02*
X0270960Y0074172D01*
X0269167Y0072379D01*
X0272614Y0072086D02*
X0267907Y0067379D01*
X0263874Y0063931D02*
X0260427Y0067379D01*
X0204167Y0087379D02*
X0204167Y0097379D01*
X0201167Y0097379D01*
X0195667Y0102879D01*
X0169167Y0077536D02*
X0159009Y0067379D01*
X0154167Y0067379D01*
X0089167Y0142379D02*
X0087167Y0144379D01*
X0087167Y0157379D01*
X0074167Y0175095D02*
X0072600Y0176662D01*
X0065167Y0176662D01*
X0063450Y0178379D01*
X0060167Y0178379D01*
X0079167Y0189032D02*
X0085513Y0189032D01*
X0087167Y0187379D01*
X0079167Y0195725D02*
X0076773Y0198119D01*
X0070667Y0198119D01*
X0104619Y0234091D02*
X0104619Y0237123D01*
X0105348Y0237851D01*
X0104619Y0234091D02*
X0119167Y0234091D01*
X0129167Y0234091D02*
X0132454Y0234091D01*
X0134167Y0232379D01*
X0134167Y0228879D01*
X0139167Y0234091D02*
X0139167Y0237379D01*
X0134167Y0242379D01*
X0139167Y0242379D02*
X0139167Y0237379D01*
X0151667Y0239139D02*
X0157407Y0239139D01*
X0159167Y0237379D01*
X0169167Y0237379D02*
X0169167Y0247379D01*
X0166017Y0250528D01*
X0164167Y0250528D01*
X0164167Y0259229D01*
X0164167Y0265528D02*
X0172867Y0265528D01*
X0176017Y0262379D01*
X0184167Y0262379D01*
X0189167Y0257379D01*
X0189167Y0247379D01*
X0199167Y0247379D02*
X0202167Y0250379D01*
X0202167Y0262379D01*
X0239167Y0236379D02*
X0239167Y0232379D01*
X0234167Y0227379D01*
X0239167Y0236379D02*
X0245167Y0242379D01*
X0249167Y0242379D01*
X0254167Y0247379D02*
X0254167Y0227379D01*
X0259167Y0222379D01*
X0259167Y0207379D01*
X0264324Y0202221D01*
X0264324Y0197379D01*
X0274167Y0187536D01*
X0254167Y0197379D02*
X0247167Y0190379D01*
X0247167Y0188119D01*
X0247167Y0180639D02*
X0247060Y0180532D01*
X0238667Y0180532D01*
X0238470Y0180729D01*
X0229667Y0180729D01*
X0221167Y0180729D01*
X0213167Y0180729D01*
X0213167Y0187028D02*
X0209367Y0187028D01*
X0205167Y0191229D01*
X0195167Y0191229D01*
X0192316Y0194080D01*
X0192316Y0197379D01*
X0192316Y0200528D01*
X0194167Y0202379D01*
X0194167Y0207379D01*
X0184167Y0217379D01*
X0184167Y0227379D01*
X0174167Y0227379D02*
X0174167Y0219619D01*
X0180667Y0213119D01*
X0166167Y0210879D02*
X0162667Y0210879D01*
X0144167Y0192379D01*
X0144167Y0184091D01*
X0134167Y0184091D02*
X0131694Y0184091D01*
X0139619Y0216119D02*
X0119167Y0216119D01*
X0139619Y0216119D02*
X0144167Y0220666D01*
X0154167Y0220666D02*
X0154167Y0227379D01*
X0124167Y0257379D02*
X0119167Y0257379D01*
X0110427Y0266119D01*
X0104167Y0266119D01*
X0109167Y0252379D02*
X0105167Y0248379D01*
X0124167Y0257379D02*
X0129167Y0262379D01*
X0129167Y0270666D01*
X0139167Y0270666D02*
X0140879Y0270666D01*
X0149167Y0262379D01*
X0152907Y0262379D01*
X0154167Y0263639D01*
X0204667Y0215379D02*
X0204667Y0212379D01*
X0205820Y0211225D01*
X0220167Y0211225D01*
X0221320Y0211225D01*
X0225167Y0207379D01*
X0225167Y0202379D01*
X0229017Y0202379D01*
X0231167Y0200229D01*
X0235667Y0205879D02*
X0235667Y0193028D01*
X0229667Y0187028D01*
X0229167Y0192379D02*
X0216017Y0192379D01*
X0213167Y0195229D01*
X0221167Y0187229D01*
X0221167Y0187028D01*
X0213167Y0201528D02*
X0209167Y0201528D01*
X0205167Y0197528D01*
X0199167Y0197379D02*
X0192316Y0197379D01*
X0204167Y0210028D02*
X0204667Y0210028D01*
X0213167Y0201528D01*
X0204667Y0210528D02*
X0204167Y0210028D01*
X0204667Y0210528D02*
X0204667Y0212379D01*
X0231167Y0206528D02*
X0233092Y0208454D01*
X0235667Y0205879D01*
X0233092Y0208454D02*
X0237017Y0212379D01*
X0244167Y0212379D01*
X0249667Y0217879D01*
X0252167Y0217879D01*
X0254167Y0212379D02*
X0254167Y0197379D01*
X0249167Y0197379D02*
X0249167Y0207379D01*
X0231316Y0206379D02*
X0231167Y0206528D01*
X0259167Y0242379D02*
X0264167Y0242379D01*
X0269167Y0237379D01*
X0269167Y0232379D01*
X0269324Y0232379D01*
X0274167Y0227536D01*
X0254167Y0247379D02*
X0249667Y0251879D01*
D39*
X0249667Y0251879D03*
X0249167Y0242379D03*
X0259167Y0242379D03*
X0252167Y0217879D03*
X0254167Y0212379D03*
X0249167Y0207379D03*
X0244167Y0207379D03*
X0249167Y0197379D03*
X0229167Y0192379D03*
X0204667Y0215379D03*
X0199167Y0197379D03*
X0166167Y0210879D03*
X0154167Y0227379D03*
X0159167Y0237379D03*
X0169167Y0237379D03*
X0154167Y0252379D03*
X0139167Y0242379D03*
X0134167Y0228879D03*
X0109167Y0252379D03*
X0054167Y0187379D03*
X0039167Y0182379D03*
X0039167Y0197379D03*
X0104167Y0172379D03*
X0147167Y0144879D03*
X0124167Y0082379D03*
X0144167Y0067379D03*
X0149167Y0063379D03*
X0154167Y0067379D03*
X0155167Y0053379D03*
X0234167Y0217379D03*
X0202167Y0262379D03*
D40*
X0080427Y0257379D02*
X0073301Y0257379D01*
X0073301Y0247379D02*
X0080427Y0247379D01*
X0065033Y0247379D02*
X0063560Y0245905D01*
X0063518Y0245861D01*
X0063480Y0245815D01*
X0063444Y0245766D01*
X0063411Y0245715D01*
X0063382Y0245663D01*
X0063355Y0245608D01*
X0063332Y0245553D01*
X0063312Y0245496D01*
X0063296Y0245437D01*
X0063283Y0245378D01*
X0063274Y0245319D01*
X0063269Y0245258D01*
X0063267Y0245198D01*
X0260033Y0097379D02*
X0260033Y0087854D01*
X0260035Y0087806D01*
X0260040Y0087758D01*
X0260048Y0087711D01*
X0260060Y0087665D01*
X0260075Y0087619D01*
X0260094Y0087575D01*
X0260115Y0087532D01*
X0260140Y0087491D01*
X0260167Y0087451D01*
X0260197Y0087414D01*
X0260230Y0087379D01*
X0259167Y0081316D02*
X0262811Y0077672D01*
X0263518Y0077379D02*
X0267395Y0077379D01*
X0267395Y0086256D01*
X0267688Y0086963D02*
X0268104Y0087379D01*
X0267688Y0086963D02*
X0267646Y0086919D01*
X0267608Y0086873D01*
X0267572Y0086824D01*
X0267539Y0086773D01*
X0267510Y0086721D01*
X0267483Y0086666D01*
X0267460Y0086611D01*
X0267440Y0086554D01*
X0267424Y0086495D01*
X0267411Y0086436D01*
X0267402Y0086377D01*
X0267397Y0086316D01*
X0267395Y0086256D01*
X0263518Y0077379D02*
X0263458Y0077381D01*
X0263397Y0077386D01*
X0263338Y0077395D01*
X0263279Y0077408D01*
X0263220Y0077424D01*
X0263163Y0077444D01*
X0263108Y0077467D01*
X0263053Y0077494D01*
X0263001Y0077523D01*
X0262950Y0077556D01*
X0262901Y0077592D01*
X0262855Y0077630D01*
X0262811Y0077672D01*
X0262689Y0073442D02*
X0259167Y0073442D01*
X0260134Y0072475D01*
X0260427Y0071768D02*
X0260427Y0067379D01*
X0263874Y0063931D02*
X0263916Y0063887D01*
X0263954Y0063841D01*
X0263990Y0063792D01*
X0264023Y0063741D01*
X0264052Y0063689D01*
X0264079Y0063634D01*
X0264102Y0063579D01*
X0264122Y0063522D01*
X0264138Y0063463D01*
X0264151Y0063404D01*
X0264160Y0063345D01*
X0264165Y0063284D01*
X0264167Y0063224D01*
X0264720Y0062672D02*
X0264764Y0062630D01*
X0264810Y0062592D01*
X0264859Y0062556D01*
X0264910Y0062523D01*
X0264962Y0062494D01*
X0265017Y0062467D01*
X0265072Y0062444D01*
X0265129Y0062424D01*
X0265188Y0062408D01*
X0265247Y0062395D01*
X0265306Y0062386D01*
X0265367Y0062381D01*
X0265427Y0062379D01*
X0274167Y0062379D02*
X0274543Y0062755D01*
X0272614Y0072086D02*
X0272658Y0072128D01*
X0272704Y0072166D01*
X0272753Y0072202D01*
X0272804Y0072235D01*
X0272856Y0072264D01*
X0272911Y0072291D01*
X0272966Y0072314D01*
X0273023Y0072334D01*
X0273082Y0072350D01*
X0273141Y0072363D01*
X0273200Y0072372D01*
X0273261Y0072377D01*
X0273321Y0072379D01*
X0274167Y0072379D01*
X0269167Y0072379D02*
X0264167Y0072379D01*
X0263397Y0073149D01*
X0263396Y0073149D02*
X0263352Y0073191D01*
X0263306Y0073229D01*
X0263257Y0073265D01*
X0263206Y0073298D01*
X0263154Y0073327D01*
X0263099Y0073354D01*
X0263044Y0073377D01*
X0262987Y0073397D01*
X0262928Y0073413D01*
X0262869Y0073426D01*
X0262810Y0073435D01*
X0262749Y0073440D01*
X0262689Y0073442D01*
X0260133Y0072475D02*
X0260175Y0072431D01*
X0260213Y0072385D01*
X0260249Y0072336D01*
X0260282Y0072285D01*
X0260311Y0072233D01*
X0260338Y0072178D01*
X0260361Y0072123D01*
X0260381Y0072066D01*
X0260397Y0072007D01*
X0260410Y0071948D01*
X0260419Y0071889D01*
X0260424Y0071828D01*
X0260426Y0071768D01*
X0273752Y0097379D02*
X0273812Y0097377D01*
X0273873Y0097372D01*
X0273932Y0097363D01*
X0273991Y0097350D01*
X0274050Y0097334D01*
X0274107Y0097314D01*
X0274162Y0097291D01*
X0274217Y0097264D01*
X0274269Y0097235D01*
X0274320Y0097202D01*
X0274369Y0097166D01*
X0274415Y0097128D01*
X0274459Y0097086D01*
D41*
X0099167Y0242379D03*
M02*
