G75*
%MOIN*%
%OFA0B0*%
%FSLAX25Y25*%
%IPPOS*%
%LPD*%
%AMOC8*
5,1,8,0,0,1.08239X$1,22.5*
%
%ADD10R,0.05906X0.05118*%
%ADD11R,0.03150X0.02362*%
%ADD12R,0.03150X0.03937*%
%ADD13R,0.03937X0.03150*%
%ADD14R,0.02200X0.05000*%
%ADD15R,0.05000X0.02200*%
%ADD16R,0.07008X0.05984*%
%ADD17R,0.03543X0.03150*%
%ADD18R,0.05118X0.06299*%
%ADD19R,0.06299X0.05118*%
%ADD20R,0.03543X0.03346*%
%ADD21R,0.08300X0.05500*%
%ADD22R,0.04724X0.04724*%
%ADD23R,0.21260X0.24409*%
%ADD24R,0.03937X0.06299*%
D10*
X0074167Y0128639D03*
X0074167Y0136119D03*
X0059167Y0163639D03*
X0059167Y0171119D03*
X0049167Y0170725D03*
X0049167Y0164032D03*
X0039167Y0164032D03*
X0039167Y0170725D03*
X0079167Y0189032D03*
X0079167Y0195725D03*
X0220167Y0204532D03*
X0220167Y0211225D03*
X0238667Y0187225D03*
X0238667Y0180532D03*
D11*
X0229667Y0180729D03*
X0229667Y0187028D03*
X0221167Y0187028D03*
X0221167Y0180729D03*
X0213167Y0180729D03*
X0213167Y0187028D03*
X0213167Y0195229D03*
X0213167Y0201528D03*
X0205167Y0197528D03*
X0205167Y0191229D03*
X0231167Y0200229D03*
X0231167Y0206528D03*
X0164167Y0244229D03*
X0164167Y0250528D03*
X0164167Y0259229D03*
X0164167Y0265528D03*
D12*
X0259167Y0081316D03*
X0259167Y0073442D03*
D13*
X0260230Y0087379D03*
X0268104Y0087379D03*
D14*
X0063143Y0070479D03*
X0066293Y0070479D03*
X0069442Y0070479D03*
X0072592Y0070479D03*
X0075741Y0070479D03*
X0078891Y0070479D03*
X0082041Y0070479D03*
X0085190Y0070479D03*
X0085190Y0104279D03*
X0082041Y0104279D03*
X0078891Y0104279D03*
X0075741Y0104279D03*
X0072592Y0104279D03*
X0069442Y0104279D03*
X0066293Y0104279D03*
X0063143Y0104279D03*
D15*
X0057267Y0098402D03*
X0057267Y0095253D03*
X0057267Y0092103D03*
X0057267Y0088954D03*
X0057267Y0085804D03*
X0057267Y0082654D03*
X0057267Y0079505D03*
X0057267Y0076355D03*
X0091067Y0076355D03*
X0091067Y0079505D03*
X0091067Y0082654D03*
X0091067Y0085804D03*
X0091067Y0088954D03*
X0091067Y0092103D03*
X0091067Y0095253D03*
X0091067Y0098402D03*
D16*
X0134167Y0184091D03*
X0144167Y0184091D03*
X0154167Y0184091D03*
X0154167Y0220666D03*
X0144167Y0220666D03*
X0134167Y0220666D03*
X0139167Y0234091D03*
X0129167Y0234091D03*
X0119167Y0234091D03*
X0119167Y0270666D03*
X0129167Y0270666D03*
X0139167Y0270666D03*
D17*
X0283104Y0071119D03*
X0283104Y0063639D03*
X0274836Y0067379D03*
D18*
X0267907Y0067379D03*
X0260427Y0067379D03*
X0260427Y0057379D03*
X0267907Y0057379D03*
X0087907Y0247379D03*
X0080427Y0247379D03*
X0080427Y0257379D03*
X0087907Y0257379D03*
D19*
X0104167Y0258639D03*
X0104167Y0266119D03*
X0105348Y0245331D03*
X0105348Y0237851D03*
X0119167Y0216119D03*
X0119167Y0208639D03*
X0121167Y0192619D03*
X0121167Y0185139D03*
X0070667Y0190639D03*
X0070667Y0198119D03*
X0151667Y0239139D03*
X0151667Y0246619D03*
X0154167Y0263639D03*
X0154167Y0271119D03*
X0180667Y0213119D03*
X0180667Y0205639D03*
X0247167Y0188119D03*
X0247167Y0180639D03*
D20*
X0074167Y0179662D03*
X0074167Y0175095D03*
X0065167Y0176662D03*
X0065167Y0172095D03*
D21*
X0053267Y0219679D03*
X0053267Y0237379D03*
X0089167Y0237379D03*
X0089167Y0219679D03*
D22*
X0073301Y0247379D03*
X0065033Y0247379D03*
X0065033Y0257379D03*
X0073301Y0257379D03*
X0260033Y0097379D03*
X0268301Y0097379D03*
D23*
X0169167Y0077536D03*
D24*
X0178143Y0106276D03*
X0160190Y0106276D03*
M02*
