G75*
%MOMM*%
%OFA0B0*%
%FSLAX33Y33*%
%IPPOS*%
%LPD*%
%AMOC8*
5,1,8,0,0,1.08239X$1,22.5*
%
%ADD10OC8,1.626*%
%ADD11C,1.902*%
%ADD12C,1.727*%
%ADD13C,4.420*%
%ADD14R,2.515X2.515*%
%ADD15C,2.515*%
%ADD16C,1.892*%
%ADD17C,1.902*%
%ADD18C,2.083*%
%ADD19R,2.134X2.134*%
%ADD20C,2.134*%
%ADD21C,1.422*%
D10*
X35348Y34747D03*
X30268Y34747D03*
X25188Y34747D03*
X32808Y34747D03*
X27728Y34747D03*
X22648Y34747D03*
D11*
X53128Y60517D02*
X53128Y62317D01*
X54398Y57237D02*
X54398Y55437D01*
X55668Y60517D02*
X55668Y62317D01*
X56938Y57237D02*
X56938Y55437D01*
X58208Y60517D02*
X58208Y62317D01*
X59478Y57237D02*
X59478Y55437D01*
X51858Y55437D02*
X51858Y57237D01*
X50588Y60517D02*
X50588Y62317D01*
X49318Y57237D02*
X49318Y55437D01*
X48048Y60517D02*
X48048Y62317D01*
X46778Y57237D02*
X46778Y55437D01*
X60748Y60517D02*
X60748Y62317D01*
X62018Y57237D02*
X62018Y55437D01*
X45508Y60517D02*
X45508Y62317D01*
X44238Y57237D02*
X44238Y55437D01*
D12*
X32808Y28397D03*
X32808Y30937D03*
X30268Y30937D03*
X30268Y28397D03*
X35348Y28397D03*
X35348Y30937D03*
D13*
X08297Y56226D03*
X08297Y62226D03*
X03597Y59226D03*
D14*
X69638Y28397D03*
D15*
X69638Y33397D03*
X69638Y38397D03*
D16*
X70534Y46217D02*
X68743Y46217D01*
X68743Y51217D02*
X70534Y51217D01*
X70534Y56377D02*
X68743Y56377D01*
X68743Y61377D02*
X70534Y61377D01*
D17*
X10075Y34747D03*
X14901Y34747D03*
D18*
X55668Y23673D02*
X55668Y21692D01*
X61637Y23724D02*
X61637Y25705D01*
X49699Y25705D02*
X49699Y23724D01*
X49699Y35916D02*
X49699Y37897D01*
X61637Y37897D02*
X61637Y35916D01*
D19*
X14724Y04267D03*
X26281Y04267D03*
X42791Y04267D03*
X59301Y04267D03*
X03344Y04267D03*
D20*
X18401Y04267D03*
X22079Y04267D03*
X29958Y04267D03*
X33636Y04267D03*
X46468Y04267D03*
X50146Y04267D03*
X62978Y04267D03*
X66656Y04267D03*
X07022Y04267D03*
X10700Y04267D03*
D21*
X04259Y33477D02*
X02938Y33477D01*
X02938Y36017D02*
X04259Y36017D01*
X04259Y38557D02*
X02938Y38557D01*
X02938Y41097D02*
X04259Y41097D01*
X04259Y43637D02*
X02938Y43637D01*
X02938Y46177D02*
X04259Y46177D01*
X04259Y48717D02*
X02938Y48717D01*
X02938Y51257D02*
X04259Y51257D01*
X04259Y13157D02*
X02938Y13157D01*
X02938Y15697D02*
X04259Y15697D01*
X04259Y18237D02*
X02938Y18237D01*
X02938Y20777D02*
X04259Y20777D01*
X04259Y23317D02*
X02938Y23317D01*
X02938Y25857D02*
X04259Y25857D01*
X04259Y28397D02*
X02938Y28397D01*
X02938Y30937D02*
X04259Y30937D01*
M02*
